<?xml version="1.0" encoding="utf-8" standalone="no"?>
<!DOCTYPE svg PUBLIC "-//W3C//DTD SVG 1.1//EN"
  "http://www.w3.org/Graphics/SVG/1.1/DTD/svg11.dtd">
<svg xmlns:xlink="http://www.w3.org/1999/xlink" width="1080pt" height="288pt" viewBox="0 0 1080 288" xmlns="http://www.w3.org/2000/svg" version="1.1">
 <metadata>
  <rdf:RDF xmlns:dc="http://purl.org/dc/elements/1.1/" xmlns:cc="http://creativecommons.org/ns#" xmlns:rdf="http://www.w3.org/1999/02/22-rdf-syntax-ns#">
   <cc:Work>
    <dc:type rdf:resource="http://purl.org/dc/dcmitype/StillImage"/>
    <dc:date>2026-01-12T21:48:17.948708</dc:date>
    <dc:format>image/svg+xml</dc:format>
    <dc:creator>
     <cc:Agent>
      <dc:title>Matplotlib v3.10.7, https://matplotlib.org/</dc:title>
     </cc:Agent>
    </dc:creator>
   </cc:Work>
  </rdf:RDF>
 </metadata>
 <defs>
  <style type="text/css">*{stroke-linejoin: round; stroke-linecap: butt}</style>
 </defs>
 <g id="figure_1">
  <g id="patch_1">
   <path d="M 0 288 
L 1080 288 
L 1080 0 
L 0 0 
z
" style="fill: #ffffff"/>
  </g>
  <g id="axes_1">
   <g id="patch_2">
    <path d="M 74.208612 230.4 
L 266.940062 230.4 
L 266.940062 26.88 
L 74.208612 26.88 
z
" style="fill: #ffffff"/>
   </g>
   <g id="FillBetweenPolyCollection_1">
    <defs>
     <path id="m188d6c3d6a" d="M 82.969132 -251.869091 
L 82.969132 -238.268295 
L 100.490173 -168.041464 
L 118.011214 -134.283845 
L 135.532255 -112.832032 
L 153.053296 -111.24352 
L 170.574337 -102.201209 
L 188.095378 -102.839397 
L 205.616419 -98.354331 
L 223.13746 -90.487229 
L 240.658501 -92.826742 
L 258.179542 -87.539272 
L 258.179542 -101.867053 
L 258.179542 -101.867053 
L 240.658501 -111.783235 
L 223.13746 -106.845639 
L 205.616419 -115.458478 
L 188.095378 -122.293004 
L 170.574337 -117.16664 
L 153.053296 -127.505605 
L 135.532255 -128.409282 
L 118.011214 -147.741296 
L 100.490173 -181.40673 
L 82.969132 -251.869091 
z
"/>
    </defs>
    <g clip-path="url(#p2f1ec14fe7)">
     <use xlink:href="#m188d6c3d6a" x="0" y="288" style="fill: #cd5c5c; fill-opacity: 0.3"/>
    </g>
   </g>
   <g id="FillBetweenPolyCollection_2">
    <defs>
     <path id="m48b5fb0e33" d="M 82.969132 -147.338666 
L 82.969132 -116.260823 
L 100.490173 -112.889698 
L 118.011214 -90.416768 
L 135.532255 -79.091449 
L 153.053296 -86.586444 
L 170.574337 -80.727112 
L 188.095378 -82.531244 
L 205.616419 -74.910421 
L 223.13746 -83.686048 
L 240.658501 -87.954281 
L 258.179542 -66.850909 
L 258.179542 -102.014503 
L 258.179542 -102.014503 
L 240.658501 -121.925259 
L 223.13746 -113.254758 
L 205.616419 -110.055959 
L 188.095378 -111.24352 
L 170.574337 -115.687855 
L 153.053296 -117.347601 
L 135.532255 -109.078627 
L 118.011214 -113.331577 
L 100.490173 -143.474348 
L 82.969132 -147.338666 
z
"/>
    </defs>
    <g clip-path="url(#p2f1ec14fe7)">
     <use xlink:href="#m48b5fb0e33" x="0" y="288" style="fill: #daa520; fill-opacity: 0.3"/>
    </g>
   </g>
   <g id="matplotlib.axis_1">
    <g id="xtick_1">
     <g id="line2d_1">
      <defs>
       <path id="m52982f2d16" d="M 0 0 
L 0 3.5 
" style="stroke: #000000; stroke-width: 0.8"/>
      </defs>
      <g>
       <use xlink:href="#m52982f2d16" x="100.490173" y="230.4" style="stroke: #000000; stroke-width: 0.8"/>
      </g>
     </g>
     <g id="text_1">
      <!-- 22 -->
      <g transform="translate(94.127673 244.998438) scale(0.1 -0.1)">
       <defs>
        <path id="DejaVuSans-32" d="M 1228 531 
L 3431 531 
L 3431 0 
L 469 0 
L 469 531 
Q 828 903 1448 1529 
Q 2069 2156 2228 2338 
Q 2531 2678 2651 2914 
Q 2772 3150 2772 3378 
Q 2772 3750 2511 3984 
Q 2250 4219 1831 4219 
Q 1534 4219 1204 4116 
Q 875 4013 500 3803 
L 500 4441 
Q 881 4594 1212 4672 
Q 1544 4750 1819 4750 
Q 2544 4750 2975 4387 
Q 3406 4025 3406 3419 
Q 3406 3131 3298 2873 
Q 3191 2616 2906 2266 
Q 2828 2175 2409 1742 
Q 1991 1309 1228 531 
z
" transform="scale(0.015625)"/>
       </defs>
       <use xlink:href="#DejaVuSans-32"/>
       <use xlink:href="#DejaVuSans-32" transform="translate(63.623047 0)"/>
      </g>
     </g>
    </g>
    <g id="xtick_2">
     <g id="line2d_2">
      <g>
       <use xlink:href="#m52982f2d16" x="135.532255" y="230.4" style="stroke: #000000; stroke-width: 0.8"/>
      </g>
     </g>
     <g id="text_2">
      <!-- 24 -->
      <g transform="translate(129.169755 244.998438) scale(0.1 -0.1)">
       <defs>
        <path id="DejaVuSans-34" d="M 2419 4116 
L 825 1625 
L 2419 1625 
L 2419 4116 
z
M 2253 4666 
L 3047 4666 
L 3047 1625 
L 3713 1625 
L 3713 1100 
L 3047 1100 
L 3047 0 
L 2419 0 
L 2419 1100 
L 313 1100 
L 313 1709 
L 2253 4666 
z
" transform="scale(0.015625)"/>
       </defs>
       <use xlink:href="#DejaVuSans-32"/>
       <use xlink:href="#DejaVuSans-34" transform="translate(63.623047 0)"/>
      </g>
     </g>
    </g>
    <g id="xtick_3">
     <g id="line2d_3">
      <g>
       <use xlink:href="#m52982f2d16" x="170.574337" y="230.4" style="stroke: #000000; stroke-width: 0.8"/>
      </g>
     </g>
     <g id="text_3">
      <!-- 26 -->
      <g transform="translate(164.211837 244.998438) scale(0.1 -0.1)">
       <defs>
        <path id="DejaVuSans-36" d="M 2113 2584 
Q 1688 2584 1439 2293 
Q 1191 2003 1191 1497 
Q 1191 994 1439 701 
Q 1688 409 2113 409 
Q 2538 409 2786 701 
Q 3034 994 3034 1497 
Q 3034 2003 2786 2293 
Q 2538 2584 2113 2584 
z
M 3366 4563 
L 3366 3988 
Q 3128 4100 2886 4159 
Q 2644 4219 2406 4219 
Q 1781 4219 1451 3797 
Q 1122 3375 1075 2522 
Q 1259 2794 1537 2939 
Q 1816 3084 2150 3084 
Q 2853 3084 3261 2657 
Q 3669 2231 3669 1497 
Q 3669 778 3244 343 
Q 2819 -91 2113 -91 
Q 1303 -91 875 529 
Q 447 1150 447 2328 
Q 447 3434 972 4092 
Q 1497 4750 2381 4750 
Q 2619 4750 2861 4703 
Q 3103 4656 3366 4563 
z
" transform="scale(0.015625)"/>
       </defs>
       <use xlink:href="#DejaVuSans-32"/>
       <use xlink:href="#DejaVuSans-36" transform="translate(63.623047 0)"/>
      </g>
     </g>
    </g>
    <g id="xtick_4">
     <g id="line2d_4">
      <g>
       <use xlink:href="#m52982f2d16" x="205.616419" y="230.4" style="stroke: #000000; stroke-width: 0.8"/>
      </g>
     </g>
     <g id="text_4">
      <!-- 28 -->
      <g transform="translate(199.253919 244.998438) scale(0.1 -0.1)">
       <defs>
        <path id="DejaVuSans-38" d="M 2034 2216 
Q 1584 2216 1326 1975 
Q 1069 1734 1069 1313 
Q 1069 891 1326 650 
Q 1584 409 2034 409 
Q 2484 409 2743 651 
Q 3003 894 3003 1313 
Q 3003 1734 2745 1975 
Q 2488 2216 2034 2216 
z
M 1403 2484 
Q 997 2584 770 2862 
Q 544 3141 544 3541 
Q 544 4100 942 4425 
Q 1341 4750 2034 4750 
Q 2731 4750 3128 4425 
Q 3525 4100 3525 3541 
Q 3525 3141 3298 2862 
Q 3072 2584 2669 2484 
Q 3125 2378 3379 2068 
Q 3634 1759 3634 1313 
Q 3634 634 3220 271 
Q 2806 -91 2034 -91 
Q 1263 -91 848 271 
Q 434 634 434 1313 
Q 434 1759 690 2068 
Q 947 2378 1403 2484 
z
M 1172 3481 
Q 1172 3119 1398 2916 
Q 1625 2713 2034 2713 
Q 2441 2713 2670 2916 
Q 2900 3119 2900 3481 
Q 2900 3844 2670 4047 
Q 2441 4250 2034 4250 
Q 1625 4250 1398 4047 
Q 1172 3844 1172 3481 
z
" transform="scale(0.015625)"/>
       </defs>
       <use xlink:href="#DejaVuSans-32"/>
       <use xlink:href="#DejaVuSans-38" transform="translate(63.623047 0)"/>
      </g>
     </g>
    </g>
    <g id="xtick_5">
     <g id="line2d_5">
      <g>
       <use xlink:href="#m52982f2d16" x="240.658501" y="230.4" style="stroke: #000000; stroke-width: 0.8"/>
      </g>
     </g>
     <g id="text_5">
      <!-- 30 -->
      <g transform="translate(234.296001 244.998438) scale(0.1 -0.1)">
       <defs>
        <path id="DejaVuSans-33" d="M 2597 2516 
Q 3050 2419 3304 2112 
Q 3559 1806 3559 1356 
Q 3559 666 3084 287 
Q 2609 -91 1734 -91 
Q 1441 -91 1130 -33 
Q 819 25 488 141 
L 488 750 
Q 750 597 1062 519 
Q 1375 441 1716 441 
Q 2309 441 2620 675 
Q 2931 909 2931 1356 
Q 2931 1769 2642 2001 
Q 2353 2234 1838 2234 
L 1294 2234 
L 1294 2753 
L 1863 2753 
Q 2328 2753 2575 2939 
Q 2822 3125 2822 3475 
Q 2822 3834 2567 4026 
Q 2313 4219 1838 4219 
Q 1578 4219 1281 4162 
Q 984 4106 628 3988 
L 628 4550 
Q 988 4650 1302 4700 
Q 1616 4750 1894 4750 
Q 2613 4750 3031 4423 
Q 3450 4097 3450 3541 
Q 3450 3153 3228 2886 
Q 3006 2619 2597 2516 
z
" transform="scale(0.015625)"/>
        <path id="DejaVuSans-30" d="M 2034 4250 
Q 1547 4250 1301 3770 
Q 1056 3291 1056 2328 
Q 1056 1369 1301 889 
Q 1547 409 2034 409 
Q 2525 409 2770 889 
Q 3016 1369 3016 2328 
Q 3016 3291 2770 3770 
Q 2525 4250 2034 4250 
z
M 2034 4750 
Q 2819 4750 3233 4129 
Q 3647 3509 3647 2328 
Q 3647 1150 3233 529 
Q 2819 -91 2034 -91 
Q 1250 -91 836 529 
Q 422 1150 422 2328 
Q 422 3509 836 4129 
Q 1250 4750 2034 4750 
z
" transform="scale(0.015625)"/>
       </defs>
       <use xlink:href="#DejaVuSans-33"/>
       <use xlink:href="#DejaVuSans-30" transform="translate(63.623047 0)"/>
      </g>
     </g>
    </g>
    <g id="text_6">
     <!-- $t$ -->
     <g transform="translate(168.574337 258.676563) scale(0.1 -0.1)">
      <defs>
       <path id="DejaVuSans-Oblique-74" d="M 2706 3500 
L 2619 3053 
L 1472 3053 
L 1100 1153 
Q 1081 1047 1072 975 
Q 1063 903 1063 863 
Q 1063 663 1183 572 
Q 1303 481 1569 481 
L 2150 481 
L 2053 0 
L 1503 0 
Q 991 0 739 200 
Q 488 400 488 806 
Q 488 878 497 964 
Q 506 1050 525 1153 
L 897 3053 
L 409 3053 
L 500 3500 
L 978 3500 
L 1172 4494 
L 1747 4494 
L 1556 3500 
L 2706 3500 
z
" transform="scale(0.015625)"/>
      </defs>
      <use xlink:href="#DejaVuSans-Oblique-74" transform="translate(0 0.78125)"/>
     </g>
    </g>
   </g>
   <g id="matplotlib.axis_2">
    <g id="ytick_1">
     <g id="line2d_6">
      <defs>
       <path id="m4a538ce3b2" d="M 0 0 
L -2 0 
" style="stroke: #000000; stroke-width: 0.6"/>
      </defs>
      <g>
       <use xlink:href="#m4a538ce3b2" x="74.208612" y="179.260512" style="stroke: #000000; stroke-width: 0.6"/>
      </g>
     </g>
     <g id="text_7">
      <!-- $\mathdefault{5\times10^{-2}}$ -->
      <g transform="translate(26.708612 183.059731) scale(0.1 -0.1)">
       <defs>
        <path id="DejaVuSans-35" d="M 691 4666 
L 3169 4666 
L 3169 4134 
L 1269 4134 
L 1269 2991 
Q 1406 3038 1543 3061 
Q 1681 3084 1819 3084 
Q 2600 3084 3056 2656 
Q 3513 2228 3513 1497 
Q 3513 744 3044 326 
Q 2575 -91 1722 -91 
Q 1428 -91 1123 -41 
Q 819 9 494 109 
L 494 744 
Q 775 591 1075 516 
Q 1375 441 1709 441 
Q 2250 441 2565 725 
Q 2881 1009 2881 1497 
Q 2881 1984 2565 2268 
Q 2250 2553 1709 2553 
Q 1456 2553 1204 2497 
Q 953 2441 691 2322 
L 691 4666 
z
" transform="scale(0.015625)"/>
        <path id="DejaVuSans-d7" d="M 4488 3438 
L 3059 2003 
L 4488 575 
L 4116 197 
L 2681 1631 
L 1247 197 
L 878 575 
L 2303 2003 
L 878 3438 
L 1247 3816 
L 2681 2381 
L 4116 3816 
L 4488 3438 
z
" transform="scale(0.015625)"/>
        <path id="DejaVuSans-31" d="M 794 531 
L 1825 531 
L 1825 4091 
L 703 3866 
L 703 4441 
L 1819 4666 
L 2450 4666 
L 2450 531 
L 3481 531 
L 3481 0 
L 794 0 
L 794 531 
z
" transform="scale(0.015625)"/>
        <path id="DejaVuSans-2212" d="M 678 2272 
L 4684 2272 
L 4684 1741 
L 678 1741 
L 678 2272 
z
" transform="scale(0.015625)"/>
       </defs>
       <use xlink:href="#DejaVuSans-35" transform="translate(0 0.765625)"/>
       <use xlink:href="#DejaVuSans-d7" transform="translate(83.105469 0.765625)"/>
       <use xlink:href="#DejaVuSans-31" transform="translate(186.376953 0.765625)"/>
       <use xlink:href="#DejaVuSans-30" transform="translate(250 0.765625)"/>
       <use xlink:href="#DejaVuSans-2212" transform="translate(314.580078 39.046875) scale(0.7)"/>
       <use xlink:href="#DejaVuSans-32" transform="translate(373.232422 39.046875) scale(0.7)"/>
      </g>
     </g>
    </g>
    <g id="ytick_2">
     <g id="line2d_7">
      <g>
       <use xlink:href="#m4a538ce3b2" x="74.208612" y="90.897503" style="stroke: #000000; stroke-width: 0.6"/>
      </g>
     </g>
     <g id="text_8">
      <!-- $\mathdefault{6\times10^{-2}}$ -->
      <g transform="translate(26.708612 94.696721) scale(0.1 -0.1)">
       <use xlink:href="#DejaVuSans-36" transform="translate(0 0.765625)"/>
       <use xlink:href="#DejaVuSans-d7" transform="translate(83.105469 0.765625)"/>
       <use xlink:href="#DejaVuSans-31" transform="translate(186.376953 0.765625)"/>
       <use xlink:href="#DejaVuSans-30" transform="translate(250 0.765625)"/>
       <use xlink:href="#DejaVuSans-2212" transform="translate(314.580078 39.046875) scale(0.7)"/>
       <use xlink:href="#DejaVuSans-32" transform="translate(373.232422 39.046875) scale(0.7)"/>
      </g>
     </g>
    </g>
    <g id="text_9">
     <!-- $h(t)$ -->
     <g transform="translate(20.628924 137.69) rotate(-90) scale(0.1 -0.1)">
      <defs>
       <path id="DejaVuSans-Oblique-68" d="M 3566 2113 
L 3156 0 
L 2578 0 
L 2988 2091 
Q 3016 2238 3031 2350 
Q 3047 2463 3047 2528 
Q 3047 2791 2881 2937 
Q 2716 3084 2419 3084 
Q 1956 3084 1617 2771 
Q 1278 2459 1178 1941 
L 800 0 
L 225 0 
L 1172 4863 
L 1747 4863 
L 1375 2950 
Q 1594 3244 1934 3414 
Q 2275 3584 2650 3584 
Q 3113 3584 3367 3334 
Q 3622 3084 3622 2631 
Q 3622 2519 3608 2391 
Q 3594 2263 3566 2113 
z
" transform="scale(0.015625)"/>
       <path id="DejaVuSans-28" d="M 1984 4856 
Q 1566 4138 1362 3434 
Q 1159 2731 1159 2009 
Q 1159 1288 1364 580 
Q 1569 -128 1984 -844 
L 1484 -844 
Q 1016 -109 783 600 
Q 550 1309 550 2009 
Q 550 2706 781 3412 
Q 1013 4119 1484 4856 
L 1984 4856 
z
" transform="scale(0.015625)"/>
       <path id="DejaVuSans-29" d="M 513 4856 
L 1013 4856 
Q 1481 4119 1714 3412 
Q 1947 2706 1947 2009 
Q 1947 1309 1714 600 
Q 1481 -109 1013 -844 
L 513 -844 
Q 928 -128 1133 580 
Q 1338 1288 1338 2009 
Q 1338 2731 1133 3434 
Q 928 4138 513 4856 
z
" transform="scale(0.015625)"/>
      </defs>
      <use xlink:href="#DejaVuSans-Oblique-68" transform="translate(0 0.015625)"/>
      <use xlink:href="#DejaVuSans-28" transform="translate(63.378906 0.015625)"/>
      <use xlink:href="#DejaVuSans-Oblique-74" transform="translate(102.392578 0.015625)"/>
      <use xlink:href="#DejaVuSans-29" transform="translate(141.601562 0.015625)"/>
     </g>
    </g>
   </g>
   <g id="line2d_8">
    <path d="M 82.969132 175.809084 
L 100.490173 179.147207 
L 118.011214 182.360085 
L 135.532255 185.575694 
L 153.053296 188.510173 
L 170.574337 191.33973 
L 188.095378 194.099772 
L 205.616419 196.652262 
L 223.13746 199.135012 
L 240.658501 201.764566 
L 258.179542 204.237316 
" clip-path="url(#p2f1ec14fe7)" style="fill: none; stroke: #000000; stroke-width: 3; stroke-linecap: square"/>
   </g>
   <g id="line2d_9">
    <path d="M 82.969132 43.817251 
L 100.490173 114.449389 
L 118.011214 147.575883 
L 135.532255 167.680999 
L 153.053296 169.159675 
L 170.574337 178.098734 
L 188.095378 175.927879 
L 205.616419 181.524282 
L 223.13746 190.071687 
L 240.658501 185.523776 
L 258.179542 194.76275 
" clip-path="url(#p2f1ec14fe7)" style="fill: none; stroke-dasharray: 11.1,4.8; stroke-dashoffset: 0; stroke: #cd5c5c; stroke-width: 3"/>
   </g>
   <g id="line2d_10">
    <path d="M 82.969132 156.658413 
L 100.490173 162.372343 
L 118.011214 187.856525 
L 135.532255 194.702705 
L 153.053296 185.788966 
L 170.574337 189.101307 
L 188.095378 190.587372 
L 205.616419 196.256263 
L 223.13746 190.220386 
L 240.658501 185.347063 
L 258.179542 202.164974 
" clip-path="url(#p2f1ec14fe7)" style="fill: none; stroke-dasharray: 11.1,4.8; stroke-dashoffset: 0; stroke: #daa520; stroke-width: 3"/>
   </g>
   <g id="patch_3">
    <path d="M 74.208612 230.4 
L 74.208612 26.88 
" style="fill: none; stroke: #000000; stroke-width: 0.8; stroke-linejoin: miter; stroke-linecap: square"/>
   </g>
   <g id="patch_4">
    <path d="M 74.208612 230.4 
L 266.940062 230.4 
" style="fill: none; stroke: #000000; stroke-width: 0.8; stroke-linejoin: miter; stroke-linecap: square"/>
   </g>
   <g id="text_10">
    <!-- Zymo Log, Nanopore GridION -->
    <g transform="translate(82.334962 20.88) scale(0.12 -0.12)">
     <defs>
      <path id="DejaVuSans-5a" d="M 359 4666 
L 4025 4666 
L 4025 4184 
L 1075 531 
L 4097 531 
L 4097 0 
L 288 0 
L 288 481 
L 3238 4134 
L 359 4134 
L 359 4666 
z
" transform="scale(0.015625)"/>
      <path id="DejaVuSans-79" d="M 2059 -325 
Q 1816 -950 1584 -1140 
Q 1353 -1331 966 -1331 
L 506 -1331 
L 506 -850 
L 844 -850 
Q 1081 -850 1212 -737 
Q 1344 -625 1503 -206 
L 1606 56 
L 191 3500 
L 800 3500 
L 1894 763 
L 2988 3500 
L 3597 3500 
L 2059 -325 
z
" transform="scale(0.015625)"/>
      <path id="DejaVuSans-6d" d="M 3328 2828 
Q 3544 3216 3844 3400 
Q 4144 3584 4550 3584 
Q 5097 3584 5394 3201 
Q 5691 2819 5691 2113 
L 5691 0 
L 5113 0 
L 5113 2094 
Q 5113 2597 4934 2840 
Q 4756 3084 4391 3084 
Q 3944 3084 3684 2787 
Q 3425 2491 3425 1978 
L 3425 0 
L 2847 0 
L 2847 2094 
Q 2847 2600 2669 2842 
Q 2491 3084 2119 3084 
Q 1678 3084 1418 2786 
Q 1159 2488 1159 1978 
L 1159 0 
L 581 0 
L 581 3500 
L 1159 3500 
L 1159 2956 
Q 1356 3278 1631 3431 
Q 1906 3584 2284 3584 
Q 2666 3584 2933 3390 
Q 3200 3197 3328 2828 
z
" transform="scale(0.015625)"/>
      <path id="DejaVuSans-6f" d="M 1959 3097 
Q 1497 3097 1228 2736 
Q 959 2375 959 1747 
Q 959 1119 1226 758 
Q 1494 397 1959 397 
Q 2419 397 2687 759 
Q 2956 1122 2956 1747 
Q 2956 2369 2687 2733 
Q 2419 3097 1959 3097 
z
M 1959 3584 
Q 2709 3584 3137 3096 
Q 3566 2609 3566 1747 
Q 3566 888 3137 398 
Q 2709 -91 1959 -91 
Q 1206 -91 779 398 
Q 353 888 353 1747 
Q 353 2609 779 3096 
Q 1206 3584 1959 3584 
z
" transform="scale(0.015625)"/>
      <path id="DejaVuSans-20" transform="scale(0.015625)"/>
      <path id="DejaVuSans-4c" d="M 628 4666 
L 1259 4666 
L 1259 531 
L 3531 531 
L 3531 0 
L 628 0 
L 628 4666 
z
" transform="scale(0.015625)"/>
      <path id="DejaVuSans-67" d="M 2906 1791 
Q 2906 2416 2648 2759 
Q 2391 3103 1925 3103 
Q 1463 3103 1205 2759 
Q 947 2416 947 1791 
Q 947 1169 1205 825 
Q 1463 481 1925 481 
Q 2391 481 2648 825 
Q 2906 1169 2906 1791 
z
M 3481 434 
Q 3481 -459 3084 -895 
Q 2688 -1331 1869 -1331 
Q 1566 -1331 1297 -1286 
Q 1028 -1241 775 -1147 
L 775 -588 
Q 1028 -725 1275 -790 
Q 1522 -856 1778 -856 
Q 2344 -856 2625 -561 
Q 2906 -266 2906 331 
L 2906 616 
Q 2728 306 2450 153 
Q 2172 0 1784 0 
Q 1141 0 747 490 
Q 353 981 353 1791 
Q 353 2603 747 3093 
Q 1141 3584 1784 3584 
Q 2172 3584 2450 3431 
Q 2728 3278 2906 2969 
L 2906 3500 
L 3481 3500 
L 3481 434 
z
" transform="scale(0.015625)"/>
      <path id="DejaVuSans-2c" d="M 750 794 
L 1409 794 
L 1409 256 
L 897 -744 
L 494 -744 
L 750 256 
L 750 794 
z
" transform="scale(0.015625)"/>
      <path id="DejaVuSans-4e" d="M 628 4666 
L 1478 4666 
L 3547 763 
L 3547 4666 
L 4159 4666 
L 4159 0 
L 3309 0 
L 1241 3903 
L 1241 0 
L 628 0 
L 628 4666 
z
" transform="scale(0.015625)"/>
      <path id="DejaVuSans-61" d="M 2194 1759 
Q 1497 1759 1228 1600 
Q 959 1441 959 1056 
Q 959 750 1161 570 
Q 1363 391 1709 391 
Q 2188 391 2477 730 
Q 2766 1069 2766 1631 
L 2766 1759 
L 2194 1759 
z
M 3341 1997 
L 3341 0 
L 2766 0 
L 2766 531 
Q 2569 213 2275 61 
Q 1981 -91 1556 -91 
Q 1019 -91 701 211 
Q 384 513 384 1019 
Q 384 1609 779 1909 
Q 1175 2209 1959 2209 
L 2766 2209 
L 2766 2266 
Q 2766 2663 2505 2880 
Q 2244 3097 1772 3097 
Q 1472 3097 1187 3025 
Q 903 2953 641 2809 
L 641 3341 
Q 956 3463 1253 3523 
Q 1550 3584 1831 3584 
Q 2591 3584 2966 3190 
Q 3341 2797 3341 1997 
z
" transform="scale(0.015625)"/>
      <path id="DejaVuSans-6e" d="M 3513 2113 
L 3513 0 
L 2938 0 
L 2938 2094 
Q 2938 2591 2744 2837 
Q 2550 3084 2163 3084 
Q 1697 3084 1428 2787 
Q 1159 2491 1159 1978 
L 1159 0 
L 581 0 
L 581 3500 
L 1159 3500 
L 1159 2956 
Q 1366 3272 1645 3428 
Q 1925 3584 2291 3584 
Q 2894 3584 3203 3211 
Q 3513 2838 3513 2113 
z
" transform="scale(0.015625)"/>
      <path id="DejaVuSans-70" d="M 1159 525 
L 1159 -1331 
L 581 -1331 
L 581 3500 
L 1159 3500 
L 1159 2969 
Q 1341 3281 1617 3432 
Q 1894 3584 2278 3584 
Q 2916 3584 3314 3078 
Q 3713 2572 3713 1747 
Q 3713 922 3314 415 
Q 2916 -91 2278 -91 
Q 1894 -91 1617 61 
Q 1341 213 1159 525 
z
M 3116 1747 
Q 3116 2381 2855 2742 
Q 2594 3103 2138 3103 
Q 1681 3103 1420 2742 
Q 1159 2381 1159 1747 
Q 1159 1113 1420 752 
Q 1681 391 2138 391 
Q 2594 391 2855 752 
Q 3116 1113 3116 1747 
z
" transform="scale(0.015625)"/>
      <path id="DejaVuSans-72" d="M 2631 2963 
Q 2534 3019 2420 3045 
Q 2306 3072 2169 3072 
Q 1681 3072 1420 2755 
Q 1159 2438 1159 1844 
L 1159 0 
L 581 0 
L 581 3500 
L 1159 3500 
L 1159 2956 
Q 1341 3275 1631 3429 
Q 1922 3584 2338 3584 
Q 2397 3584 2469 3576 
Q 2541 3569 2628 3553 
L 2631 2963 
z
" transform="scale(0.015625)"/>
      <path id="DejaVuSans-65" d="M 3597 1894 
L 3597 1613 
L 953 1613 
Q 991 1019 1311 708 
Q 1631 397 2203 397 
Q 2534 397 2845 478 
Q 3156 559 3463 722 
L 3463 178 
Q 3153 47 2828 -22 
Q 2503 -91 2169 -91 
Q 1331 -91 842 396 
Q 353 884 353 1716 
Q 353 2575 817 3079 
Q 1281 3584 2069 3584 
Q 2775 3584 3186 3129 
Q 3597 2675 3597 1894 
z
M 3022 2063 
Q 3016 2534 2758 2815 
Q 2500 3097 2075 3097 
Q 1594 3097 1305 2825 
Q 1016 2553 972 2059 
L 3022 2063 
z
" transform="scale(0.015625)"/>
      <path id="DejaVuSans-47" d="M 3809 666 
L 3809 1919 
L 2778 1919 
L 2778 2438 
L 4434 2438 
L 4434 434 
Q 4069 175 3628 42 
Q 3188 -91 2688 -91 
Q 1594 -91 976 548 
Q 359 1188 359 2328 
Q 359 3472 976 4111 
Q 1594 4750 2688 4750 
Q 3144 4750 3555 4637 
Q 3966 4525 4313 4306 
L 4313 3634 
Q 3963 3931 3569 4081 
Q 3175 4231 2741 4231 
Q 1884 4231 1454 3753 
Q 1025 3275 1025 2328 
Q 1025 1384 1454 906 
Q 1884 428 2741 428 
Q 3075 428 3337 486 
Q 3600 544 3809 666 
z
" transform="scale(0.015625)"/>
      <path id="DejaVuSans-69" d="M 603 3500 
L 1178 3500 
L 1178 0 
L 603 0 
L 603 3500 
z
M 603 4863 
L 1178 4863 
L 1178 4134 
L 603 4134 
L 603 4863 
z
" transform="scale(0.015625)"/>
      <path id="DejaVuSans-64" d="M 2906 2969 
L 2906 4863 
L 3481 4863 
L 3481 0 
L 2906 0 
L 2906 525 
Q 2725 213 2448 61 
Q 2172 -91 1784 -91 
Q 1150 -91 751 415 
Q 353 922 353 1747 
Q 353 2572 751 3078 
Q 1150 3584 1784 3584 
Q 2172 3584 2448 3432 
Q 2725 3281 2906 2969 
z
M 947 1747 
Q 947 1113 1208 752 
Q 1469 391 1925 391 
Q 2381 391 2643 752 
Q 2906 1113 2906 1747 
Q 2906 2381 2643 2742 
Q 2381 3103 1925 3103 
Q 1469 3103 1208 2742 
Q 947 2381 947 1747 
z
" transform="scale(0.015625)"/>
      <path id="DejaVuSans-49" d="M 628 4666 
L 1259 4666 
L 1259 0 
L 628 0 
L 628 4666 
z
" transform="scale(0.015625)"/>
      <path id="DejaVuSans-4f" d="M 2522 4238 
Q 1834 4238 1429 3725 
Q 1025 3213 1025 2328 
Q 1025 1447 1429 934 
Q 1834 422 2522 422 
Q 3209 422 3611 934 
Q 4013 1447 4013 2328 
Q 4013 3213 3611 3725 
Q 3209 4238 2522 4238 
z
M 2522 4750 
Q 3503 4750 4090 4092 
Q 4678 3434 4678 2328 
Q 4678 1225 4090 567 
Q 3503 -91 2522 -91 
Q 1538 -91 948 565 
Q 359 1222 359 2328 
Q 359 3434 948 4092 
Q 1538 4750 2522 4750 
z
" transform="scale(0.015625)"/>
     </defs>
     <use xlink:href="#DejaVuSans-5a"/>
     <use xlink:href="#DejaVuSans-79" transform="translate(68.505859 0)"/>
     <use xlink:href="#DejaVuSans-6d" transform="translate(127.685547 0)"/>
     <use xlink:href="#DejaVuSans-6f" transform="translate(225.097656 0)"/>
     <use xlink:href="#DejaVuSans-20" transform="translate(286.279297 0)"/>
     <use xlink:href="#DejaVuSans-4c" transform="translate(318.066406 0)"/>
     <use xlink:href="#DejaVuSans-6f" transform="translate(372.029297 0)"/>
     <use xlink:href="#DejaVuSans-67" transform="translate(433.210938 0)"/>
     <use xlink:href="#DejaVuSans-2c" transform="translate(496.6875 0)"/>
     <use xlink:href="#DejaVuSans-20" transform="translate(528.474609 0)"/>
     <use xlink:href="#DejaVuSans-4e" transform="translate(560.261719 0)"/>
     <use xlink:href="#DejaVuSans-61" transform="translate(635.066406 0)"/>
     <use xlink:href="#DejaVuSans-6e" transform="translate(696.345703 0)"/>
     <use xlink:href="#DejaVuSans-6f" transform="translate(759.724609 0)"/>
     <use xlink:href="#DejaVuSans-70" transform="translate(820.90625 0)"/>
     <use xlink:href="#DejaVuSans-6f" transform="translate(884.382812 0)"/>
     <use xlink:href="#DejaVuSans-72" transform="translate(945.564453 0)"/>
     <use xlink:href="#DejaVuSans-65" transform="translate(984.427734 0)"/>
     <use xlink:href="#DejaVuSans-20" transform="translate(1045.951172 0)"/>
     <use xlink:href="#DejaVuSans-47" transform="translate(1077.738281 0)"/>
     <use xlink:href="#DejaVuSans-72" transform="translate(1155.228516 0)"/>
     <use xlink:href="#DejaVuSans-69" transform="translate(1196.341797 0)"/>
     <use xlink:href="#DejaVuSans-64" transform="translate(1224.125 0)"/>
     <use xlink:href="#DejaVuSans-49" transform="translate(1287.601562 0)"/>
     <use xlink:href="#DejaVuSans-4f" transform="translate(1317.09375 0)"/>
     <use xlink:href="#DejaVuSans-4e" transform="translate(1395.804688 0)"/>
    </g>
   </g>
  </g>
  <g id="axes_2">
   <g id="patch_5">
    <path d="M 341.628591 230.4 
L 534.360042 230.4 
L 534.360042 26.88 
L 341.628591 26.88 
z
" style="fill: #ffffff"/>
   </g>
   <g id="FillBetweenPolyCollection_3">
    <defs>
     <path id="m8cfdfb43a4" d="M 350.389111 -125.596032 
L 350.389111 -99.10458 
L 367.910152 -101.031026 
L 385.431193 -91.344399 
L 402.952234 -79.537516 
L 420.473275 -72.221177 
L 437.994316 -82.178833 
L 455.515357 -76.221548 
L 473.036398 -88.084981 
L 490.557439 -86.776877 
L 508.07848 -66.850909 
L 525.599521 -82.178833 
L 525.599521 -108.683324 
L 525.599521 -108.683324 
L 508.07848 -91.344399 
L 490.557439 -111.215294 
L 473.036398 -113.108175 
L 455.515357 -102.312334 
L 437.994316 -103.59126 
L 420.473275 -96.527565 
L 402.952234 -106.778213 
L 385.431193 -118.755775 
L 367.910152 -124.976993 
L 350.389111 -125.596032 
z
"/>
    </defs>
    <g clip-path="url(#p3c3027bafb)">
     <use xlink:href="#m8cfdfb43a4" x="0" y="288" style="fill: #cd5c5c; fill-opacity: 0.3"/>
    </g>
   </g>
   <g id="FillBetweenPolyCollection_4">
    <defs>
     <path id="mb2a6ab66b3" d="M 350.389111 -251.869091 
L 350.389111 -189.372957 
L 367.910152 -181.43151 
L 385.431193 -169.925188 
L 402.952234 -151.105224 
L 420.473275 -149.314172 
L 437.994316 -166.435432 
L 455.515357 -148.716118 
L 473.036398 -155.266303 
L 490.557439 -157.632813 
L 508.07848 -149.314172 
L 525.599521 -152.296674 
L 525.599521 -182.001806 
L 525.599521 -182.001806 
L 508.07848 -180.289498 
L 490.557439 -193.87011 
L 473.036398 -192.748574 
L 455.515357 -182.571629 
L 437.994316 -197.22379 
L 420.473275 -179.145587 
L 402.952234 -183.140982 
L 385.431193 -203.330069 
L 367.910152 -215.382419 
L 350.389111 -251.869091 
z
"/>
    </defs>
    <g clip-path="url(#p3c3027bafb)">
     <use xlink:href="#mb2a6ab66b3" x="0" y="288" style="fill: #daa520; fill-opacity: 0.3"/>
    </g>
   </g>
   <g id="matplotlib.axis_3">
    <g id="xtick_6">
     <g id="line2d_11">
      <g>
       <use xlink:href="#m52982f2d16" x="367.910152" y="230.4" style="stroke: #000000; stroke-width: 0.8"/>
      </g>
     </g>
     <g id="text_11">
      <!-- 22 -->
      <g transform="translate(361.547652 244.998438) scale(0.1 -0.1)">
       <use xlink:href="#DejaVuSans-32"/>
       <use xlink:href="#DejaVuSans-32" transform="translate(63.623047 0)"/>
      </g>
     </g>
    </g>
    <g id="xtick_7">
     <g id="line2d_12">
      <g>
       <use xlink:href="#m52982f2d16" x="402.952234" y="230.4" style="stroke: #000000; stroke-width: 0.8"/>
      </g>
     </g>
     <g id="text_12">
      <!-- 24 -->
      <g transform="translate(396.589734 244.998438) scale(0.1 -0.1)">
       <use xlink:href="#DejaVuSans-32"/>
       <use xlink:href="#DejaVuSans-34" transform="translate(63.623047 0)"/>
      </g>
     </g>
    </g>
    <g id="xtick_8">
     <g id="line2d_13">
      <g>
       <use xlink:href="#m52982f2d16" x="437.994316" y="230.4" style="stroke: #000000; stroke-width: 0.8"/>
      </g>
     </g>
     <g id="text_13">
      <!-- 26 -->
      <g transform="translate(431.631816 244.998438) scale(0.1 -0.1)">
       <use xlink:href="#DejaVuSans-32"/>
       <use xlink:href="#DejaVuSans-36" transform="translate(63.623047 0)"/>
      </g>
     </g>
    </g>
    <g id="xtick_9">
     <g id="line2d_14">
      <g>
       <use xlink:href="#m52982f2d16" x="473.036398" y="230.4" style="stroke: #000000; stroke-width: 0.8"/>
      </g>
     </g>
     <g id="text_14">
      <!-- 28 -->
      <g transform="translate(466.673898 244.998438) scale(0.1 -0.1)">
       <use xlink:href="#DejaVuSans-32"/>
       <use xlink:href="#DejaVuSans-38" transform="translate(63.623047 0)"/>
      </g>
     </g>
    </g>
    <g id="xtick_10">
     <g id="line2d_15">
      <g>
       <use xlink:href="#m52982f2d16" x="508.07848" y="230.4" style="stroke: #000000; stroke-width: 0.8"/>
      </g>
     </g>
     <g id="text_15">
      <!-- 30 -->
      <g transform="translate(501.71598 244.998438) scale(0.1 -0.1)">
       <use xlink:href="#DejaVuSans-33"/>
       <use xlink:href="#DejaVuSans-30" transform="translate(63.623047 0)"/>
      </g>
     </g>
    </g>
    <g id="text_16">
     <!-- $t$ -->
     <g transform="translate(435.994316 258.676563) scale(0.1 -0.1)">
      <use xlink:href="#DejaVuSans-Oblique-74" transform="translate(0 0.78125)"/>
     </g>
    </g>
   </g>
   <g id="matplotlib.axis_4">
    <g id="ytick_3">
     <g id="line2d_16">
      <g>
       <use xlink:href="#m4a538ce3b2" x="341.628591" y="201.878108" style="stroke: #000000; stroke-width: 0.6"/>
      </g>
     </g>
     <g id="text_17">
      <!-- $\mathdefault{1.05\times10^{-3}}$ -->
      <g transform="translate(278.228591 205.677327) scale(0.1 -0.1)">
       <defs>
        <path id="DejaVuSans-2e" d="M 684 794 
L 1344 794 
L 1344 0 
L 684 0 
L 684 794 
z
" transform="scale(0.015625)"/>
       </defs>
       <use xlink:href="#DejaVuSans-31" transform="translate(0 0.765625)"/>
       <use xlink:href="#DejaVuSans-2e" transform="translate(63.623047 0.765625)"/>
       <use xlink:href="#DejaVuSans-30" transform="translate(95.410156 0.765625)"/>
       <use xlink:href="#DejaVuSans-35" transform="translate(159.033203 0.765625)"/>
       <use xlink:href="#DejaVuSans-d7" transform="translate(242.138672 0.765625)"/>
       <use xlink:href="#DejaVuSans-31" transform="translate(345.410156 0.765625)"/>
       <use xlink:href="#DejaVuSans-30" transform="translate(409.033203 0.765625)"/>
       <use xlink:href="#DejaVuSans-2212" transform="translate(473.613281 39.046875) scale(0.7)"/>
       <use xlink:href="#DejaVuSans-33" transform="translate(532.265625 39.046875) scale(0.7)"/>
      </g>
     </g>
    </g>
    <g id="ytick_4">
     <g id="line2d_17">
      <g>
       <use xlink:href="#m4a538ce3b2" x="341.628591" y="169.869452" style="stroke: #000000; stroke-width: 0.6"/>
      </g>
     </g>
     <g id="text_18">
      <!-- $\mathdefault{1.1\times10^{-3}}$ -->
      <g transform="translate(284.628591 173.668671) scale(0.1 -0.1)">
       <use xlink:href="#DejaVuSans-31" transform="translate(0 0.765625)"/>
       <use xlink:href="#DejaVuSans-2e" transform="translate(63.623047 0.765625)"/>
       <use xlink:href="#DejaVuSans-31" transform="translate(95.410156 0.765625)"/>
       <use xlink:href="#DejaVuSans-d7" transform="translate(178.515625 0.765625)"/>
       <use xlink:href="#DejaVuSans-31" transform="translate(281.787109 0.765625)"/>
       <use xlink:href="#DejaVuSans-30" transform="translate(345.410156 0.765625)"/>
       <use xlink:href="#DejaVuSans-2212" transform="translate(409.990234 39.046875) scale(0.7)"/>
       <use xlink:href="#DejaVuSans-33" transform="translate(468.642578 39.046875) scale(0.7)"/>
      </g>
     </g>
    </g>
    <g id="ytick_5">
     <g id="line2d_18">
      <g>
       <use xlink:href="#m4a538ce3b2" x="341.628591" y="139.283882" style="stroke: #000000; stroke-width: 0.6"/>
      </g>
     </g>
     <g id="text_19">
      <!-- $\mathdefault{1.15\times10^{-3}}$ -->
      <g transform="translate(278.228591 143.083101) scale(0.1 -0.1)">
       <use xlink:href="#DejaVuSans-31" transform="translate(0 0.765625)"/>
       <use xlink:href="#DejaVuSans-2e" transform="translate(63.623047 0.765625)"/>
       <use xlink:href="#DejaVuSans-31" transform="translate(95.410156 0.765625)"/>
       <use xlink:href="#DejaVuSans-35" transform="translate(159.033203 0.765625)"/>
       <use xlink:href="#DejaVuSans-d7" transform="translate(242.138672 0.765625)"/>
       <use xlink:href="#DejaVuSans-31" transform="translate(345.410156 0.765625)"/>
       <use xlink:href="#DejaVuSans-30" transform="translate(409.033203 0.765625)"/>
       <use xlink:href="#DejaVuSans-2212" transform="translate(473.613281 39.046875) scale(0.7)"/>
       <use xlink:href="#DejaVuSans-33" transform="translate(532.265625 39.046875) scale(0.7)"/>
      </g>
     </g>
    </g>
    <g id="ytick_6">
     <g id="line2d_19">
      <g>
       <use xlink:href="#m4a538ce3b2" x="341.628591" y="110.000228" style="stroke: #000000; stroke-width: 0.6"/>
      </g>
     </g>
     <g id="text_20">
      <!-- $\mathdefault{1.2\times10^{-3}}$ -->
      <g transform="translate(285.128591 113.799447) scale(0.1 -0.1)">
       <use xlink:href="#DejaVuSans-31" transform="translate(0 0.765625)"/>
       <use xlink:href="#DejaVuSans-2e" transform="translate(63.623047 0.765625)"/>
       <use xlink:href="#DejaVuSans-32" transform="translate(89.910156 0.765625)"/>
       <use xlink:href="#DejaVuSans-d7" transform="translate(173.015625 0.765625)"/>
       <use xlink:href="#DejaVuSans-31" transform="translate(276.287109 0.765625)"/>
       <use xlink:href="#DejaVuSans-30" transform="translate(339.910156 0.765625)"/>
       <use xlink:href="#DejaVuSans-2212" transform="translate(404.490234 39.046875) scale(0.7)"/>
       <use xlink:href="#DejaVuSans-33" transform="translate(463.142578 39.046875) scale(0.7)"/>
      </g>
     </g>
    </g>
    <g id="ytick_7">
     <g id="line2d_20">
      <g>
       <use xlink:href="#m4a538ce3b2" x="341.628591" y="81.912164" style="stroke: #000000; stroke-width: 0.6"/>
      </g>
     </g>
     <g id="text_21">
      <!-- $\mathdefault{1.25\times10^{-3}}$ -->
      <g transform="translate(278.728591 85.711383) scale(0.1 -0.1)">
       <use xlink:href="#DejaVuSans-31" transform="translate(0 0.765625)"/>
       <use xlink:href="#DejaVuSans-2e" transform="translate(63.623047 0.765625)"/>
       <use xlink:href="#DejaVuSans-32" transform="translate(89.910156 0.765625)"/>
       <use xlink:href="#DejaVuSans-35" transform="translate(153.533203 0.765625)"/>
       <use xlink:href="#DejaVuSans-d7" transform="translate(236.638672 0.765625)"/>
       <use xlink:href="#DejaVuSans-31" transform="translate(339.910156 0.765625)"/>
       <use xlink:href="#DejaVuSans-30" transform="translate(403.533203 0.765625)"/>
       <use xlink:href="#DejaVuSans-2212" transform="translate(468.113281 39.046875) scale(0.7)"/>
       <use xlink:href="#DejaVuSans-33" transform="translate(526.765625 39.046875) scale(0.7)"/>
      </g>
     </g>
    </g>
    <g id="ytick_8">
     <g id="line2d_21">
      <g>
       <use xlink:href="#m4a538ce3b2" x="341.628591" y="54.925881" style="stroke: #000000; stroke-width: 0.6"/>
      </g>
     </g>
     <g id="text_22">
      <!-- $\mathdefault{1.3\times10^{-3}}$ -->
      <g transform="translate(284.628591 58.7251) scale(0.1 -0.1)">
       <use xlink:href="#DejaVuSans-31" transform="translate(0 0.765625)"/>
       <use xlink:href="#DejaVuSans-2e" transform="translate(63.623047 0.765625)"/>
       <use xlink:href="#DejaVuSans-33" transform="translate(95.410156 0.765625)"/>
       <use xlink:href="#DejaVuSans-d7" transform="translate(178.515625 0.765625)"/>
       <use xlink:href="#DejaVuSans-31" transform="translate(281.787109 0.765625)"/>
       <use xlink:href="#DejaVuSans-30" transform="translate(345.410156 0.765625)"/>
       <use xlink:href="#DejaVuSans-2212" transform="translate(409.990234 39.046875) scale(0.7)"/>
       <use xlink:href="#DejaVuSans-33" transform="translate(468.642578 39.046875) scale(0.7)"/>
      </g>
     </g>
    </g>
    <g id="ytick_9">
     <g id="line2d_22">
      <g>
       <use xlink:href="#m4a538ce3b2" x="341.628591" y="28.958195" style="stroke: #000000; stroke-width: 0.6"/>
      </g>
     </g>
     <g id="text_23">
      <!-- $\mathdefault{1.35\times10^{-3}}$ -->
      <g transform="translate(278.228591 32.757413) scale(0.1 -0.1)">
       <use xlink:href="#DejaVuSans-31" transform="translate(0 0.765625)"/>
       <use xlink:href="#DejaVuSans-2e" transform="translate(63.623047 0.765625)"/>
       <use xlink:href="#DejaVuSans-33" transform="translate(95.410156 0.765625)"/>
       <use xlink:href="#DejaVuSans-35" transform="translate(159.033203 0.765625)"/>
       <use xlink:href="#DejaVuSans-d7" transform="translate(242.138672 0.765625)"/>
       <use xlink:href="#DejaVuSans-31" transform="translate(345.410156 0.765625)"/>
       <use xlink:href="#DejaVuSans-30" transform="translate(409.033203 0.765625)"/>
       <use xlink:href="#DejaVuSans-2212" transform="translate(473.613281 39.046875) scale(0.7)"/>
       <use xlink:href="#DejaVuSans-33" transform="translate(532.265625 39.046875) scale(0.7)"/>
      </g>
     </g>
    </g>
   </g>
   <g id="line2d_23">
    <path d="M 350.389111 77.262791 
L 367.910152 80.690776 
L 385.431193 83.895368 
L 402.952234 87.282895 
L 420.473275 90.536718 
L 437.994316 93.666909 
L 455.515357 96.81736 
L 473.036398 99.859099 
L 490.557439 102.889325 
L 508.07848 105.974026 
L 525.599521 108.964277 
" clip-path="url(#p3c3027bafb)" style="fill: none; stroke: #000000; stroke-width: 3; stroke-linecap: square"/>
   </g>
   <g id="line2d_24">
    <path d="M 350.389111 174.26202 
L 367.910152 175.522207 
L 385.431193 184.40874 
L 402.952234 195.356144 
L 420.473275 205.16242 
L 437.994316 195.356144 
L 455.515357 197.957516 
L 473.036398 188.252672 
L 490.557439 191.472435 
L 508.07848 209.1244 
L 525.599521 192.76457 
" clip-path="url(#p3c3027bafb)" style="fill: none; stroke-dasharray: 11.1,4.8; stroke-dashoffset: 0; stroke: #cd5c5c; stroke-width: 3"/>
   </g>
   <g id="line2d_25">
    <path d="M 350.389111 70.448747 
L 367.910152 86.884131 
L 385.431193 103.721726 
L 402.952234 119.817478 
L 420.473275 122.147919 
L 437.994316 106.56849 
L 455.515357 124.486279 
L 473.036398 118.074812 
L 490.557439 113.449168 
L 508.07848 125.072113 
L 525.599521 121.564568 
" clip-path="url(#p3c3027bafb)" style="fill: none; stroke-dasharray: 11.1,4.8; stroke-dashoffset: 0; stroke: #daa520; stroke-width: 3"/>
   </g>
   <g id="patch_6">
    <path d="M 341.628591 230.4 
L 341.628591 26.88 
" style="fill: none; stroke: #000000; stroke-width: 0.8; stroke-linejoin: miter; stroke-linecap: square"/>
   </g>
   <g id="patch_7">
    <path d="M 341.628591 230.4 
L 534.360042 230.4 
" style="fill: none; stroke: #000000; stroke-width: 0.8; stroke-linejoin: miter; stroke-linecap: square"/>
   </g>
   <g id="text_24">
    <!-- Zymo Gut Microbiome, PacBio Hifi -->
    <g transform="translate(335.913691 20.88) scale(0.12 -0.12)">
     <defs>
      <path id="DejaVuSans-75" d="M 544 1381 
L 544 3500 
L 1119 3500 
L 1119 1403 
Q 1119 906 1312 657 
Q 1506 409 1894 409 
Q 2359 409 2629 706 
Q 2900 1003 2900 1516 
L 2900 3500 
L 3475 3500 
L 3475 0 
L 2900 0 
L 2900 538 
Q 2691 219 2414 64 
Q 2138 -91 1772 -91 
Q 1169 -91 856 284 
Q 544 659 544 1381 
z
M 1991 3584 
L 1991 3584 
z
" transform="scale(0.015625)"/>
      <path id="DejaVuSans-74" d="M 1172 4494 
L 1172 3500 
L 2356 3500 
L 2356 3053 
L 1172 3053 
L 1172 1153 
Q 1172 725 1289 603 
Q 1406 481 1766 481 
L 2356 481 
L 2356 0 
L 1766 0 
Q 1100 0 847 248 
Q 594 497 594 1153 
L 594 3053 
L 172 3053 
L 172 3500 
L 594 3500 
L 594 4494 
L 1172 4494 
z
" transform="scale(0.015625)"/>
      <path id="DejaVuSans-4d" d="M 628 4666 
L 1569 4666 
L 2759 1491 
L 3956 4666 
L 4897 4666 
L 4897 0 
L 4281 0 
L 4281 4097 
L 3078 897 
L 2444 897 
L 1241 4097 
L 1241 0 
L 628 0 
L 628 4666 
z
" transform="scale(0.015625)"/>
      <path id="DejaVuSans-63" d="M 3122 3366 
L 3122 2828 
Q 2878 2963 2633 3030 
Q 2388 3097 2138 3097 
Q 1578 3097 1268 2742 
Q 959 2388 959 1747 
Q 959 1106 1268 751 
Q 1578 397 2138 397 
Q 2388 397 2633 464 
Q 2878 531 3122 666 
L 3122 134 
Q 2881 22 2623 -34 
Q 2366 -91 2075 -91 
Q 1284 -91 818 406 
Q 353 903 353 1747 
Q 353 2603 823 3093 
Q 1294 3584 2113 3584 
Q 2378 3584 2631 3529 
Q 2884 3475 3122 3366 
z
" transform="scale(0.015625)"/>
      <path id="DejaVuSans-62" d="M 3116 1747 
Q 3116 2381 2855 2742 
Q 2594 3103 2138 3103 
Q 1681 3103 1420 2742 
Q 1159 2381 1159 1747 
Q 1159 1113 1420 752 
Q 1681 391 2138 391 
Q 2594 391 2855 752 
Q 3116 1113 3116 1747 
z
M 1159 2969 
Q 1341 3281 1617 3432 
Q 1894 3584 2278 3584 
Q 2916 3584 3314 3078 
Q 3713 2572 3713 1747 
Q 3713 922 3314 415 
Q 2916 -91 2278 -91 
Q 1894 -91 1617 61 
Q 1341 213 1159 525 
L 1159 0 
L 581 0 
L 581 4863 
L 1159 4863 
L 1159 2969 
z
" transform="scale(0.015625)"/>
      <path id="DejaVuSans-50" d="M 1259 4147 
L 1259 2394 
L 2053 2394 
Q 2494 2394 2734 2622 
Q 2975 2850 2975 3272 
Q 2975 3691 2734 3919 
Q 2494 4147 2053 4147 
L 1259 4147 
z
M 628 4666 
L 2053 4666 
Q 2838 4666 3239 4311 
Q 3641 3956 3641 3272 
Q 3641 2581 3239 2228 
Q 2838 1875 2053 1875 
L 1259 1875 
L 1259 0 
L 628 0 
L 628 4666 
z
" transform="scale(0.015625)"/>
      <path id="DejaVuSans-42" d="M 1259 2228 
L 1259 519 
L 2272 519 
Q 2781 519 3026 730 
Q 3272 941 3272 1375 
Q 3272 1813 3026 2020 
Q 2781 2228 2272 2228 
L 1259 2228 
z
M 1259 4147 
L 1259 2741 
L 2194 2741 
Q 2656 2741 2882 2914 
Q 3109 3088 3109 3444 
Q 3109 3797 2882 3972 
Q 2656 4147 2194 4147 
L 1259 4147 
z
M 628 4666 
L 2241 4666 
Q 2963 4666 3353 4366 
Q 3744 4066 3744 3513 
Q 3744 3084 3544 2831 
Q 3344 2578 2956 2516 
Q 3422 2416 3680 2098 
Q 3938 1781 3938 1306 
Q 3938 681 3513 340 
Q 3088 0 2303 0 
L 628 0 
L 628 4666 
z
" transform="scale(0.015625)"/>
      <path id="DejaVuSans-48" d="M 628 4666 
L 1259 4666 
L 1259 2753 
L 3553 2753 
L 3553 4666 
L 4184 4666 
L 4184 0 
L 3553 0 
L 3553 2222 
L 1259 2222 
L 1259 0 
L 628 0 
L 628 4666 
z
" transform="scale(0.015625)"/>
      <path id="DejaVuSans-66" d="M 2375 4863 
L 2375 4384 
L 1825 4384 
Q 1516 4384 1395 4259 
Q 1275 4134 1275 3809 
L 1275 3500 
L 2222 3500 
L 2222 3053 
L 1275 3053 
L 1275 0 
L 697 0 
L 697 3053 
L 147 3053 
L 147 3500 
L 697 3500 
L 697 3744 
Q 697 4328 969 4595 
Q 1241 4863 1831 4863 
L 2375 4863 
z
" transform="scale(0.015625)"/>
     </defs>
     <use xlink:href="#DejaVuSans-5a"/>
     <use xlink:href="#DejaVuSans-79" transform="translate(68.505859 0)"/>
     <use xlink:href="#DejaVuSans-6d" transform="translate(127.685547 0)"/>
     <use xlink:href="#DejaVuSans-6f" transform="translate(225.097656 0)"/>
     <use xlink:href="#DejaVuSans-20" transform="translate(286.279297 0)"/>
     <use xlink:href="#DejaVuSans-47" transform="translate(318.066406 0)"/>
     <use xlink:href="#DejaVuSans-75" transform="translate(395.556641 0)"/>
     <use xlink:href="#DejaVuSans-74" transform="translate(458.935547 0)"/>
     <use xlink:href="#DejaVuSans-20" transform="translate(498.144531 0)"/>
     <use xlink:href="#DejaVuSans-4d" transform="translate(529.931641 0)"/>
     <use xlink:href="#DejaVuSans-69" transform="translate(616.210938 0)"/>
     <use xlink:href="#DejaVuSans-63" transform="translate(643.994141 0)"/>
     <use xlink:href="#DejaVuSans-72" transform="translate(698.974609 0)"/>
     <use xlink:href="#DejaVuSans-6f" transform="translate(737.837891 0)"/>
     <use xlink:href="#DejaVuSans-62" transform="translate(799.019531 0)"/>
     <use xlink:href="#DejaVuSans-69" transform="translate(862.496094 0)"/>
     <use xlink:href="#DejaVuSans-6f" transform="translate(890.279297 0)"/>
     <use xlink:href="#DejaVuSans-6d" transform="translate(951.460938 0)"/>
     <use xlink:href="#DejaVuSans-65" transform="translate(1048.873047 0)"/>
     <use xlink:href="#DejaVuSans-2c" transform="translate(1110.396484 0)"/>
     <use xlink:href="#DejaVuSans-20" transform="translate(1142.183594 0)"/>
     <use xlink:href="#DejaVuSans-50" transform="translate(1173.970703 0)"/>
     <use xlink:href="#DejaVuSans-61" transform="translate(1229.773438 0)"/>
     <use xlink:href="#DejaVuSans-63" transform="translate(1291.052734 0)"/>
     <use xlink:href="#DejaVuSans-42" transform="translate(1346.033203 0)"/>
     <use xlink:href="#DejaVuSans-69" transform="translate(1414.636719 0)"/>
     <use xlink:href="#DejaVuSans-6f" transform="translate(1442.419922 0)"/>
     <use xlink:href="#DejaVuSans-20" transform="translate(1503.601562 0)"/>
     <use xlink:href="#DejaVuSans-48" transform="translate(1535.388672 0)"/>
     <use xlink:href="#DejaVuSans-69" transform="translate(1610.583984 0)"/>
     <use xlink:href="#DejaVuSans-66" transform="translate(1638.367188 0)"/>
     <use xlink:href="#DejaVuSans-69" transform="translate(1673.572266 0)"/>
    </g>
   </g>
  </g>
  <g id="axes_3">
   <g id="patch_8">
    <path d="M 609.04857 230.4 
L 801.780021 230.4 
L 801.780021 26.88 
L 609.04857 26.88 
z
" style="fill: #ffffff"/>
   </g>
   <g id="FillBetweenPolyCollection_5">
    <defs>
     <path id="m6e2b3d1a2f" d="M 617.809091 -201.821651 
L 617.809091 -184.365033 
L 635.330131 -150.203832 
L 652.851172 -160.718902 
L 670.372213 -160.107292 
L 687.893254 -148.007343 
L 705.414295 -152.700722 
L 722.935336 -153.322731 
L 740.456377 -146.115851 
L 757.977418 -131.663746 
L 775.498459 -131.173718 
L 793.0195 -142.308239 
L 793.0195 -161.482219 
L 793.0195 -161.482219 
L 775.498459 -149.89072 
L 757.977418 -152.389386 
L 740.456377 -165.127775 
L 722.935336 -175.738608 
L 705.414295 -170.241032 
L 687.893254 -169.492807 
L 670.372213 -179.26814 
L 652.851172 -178.09478 
L 635.330131 -170.091489 
L 617.809091 -201.821651 
z
"/>
    </defs>
    <g clip-path="url(#pe295b6f98b)">
     <use xlink:href="#m6e2b3d1a2f" x="0" y="288" style="fill: #cd5c5c; fill-opacity: 0.3"/>
    </g>
   </g>
   <g id="FillBetweenPolyCollection_6">
    <defs>
     <path id="m9021a69b50" d="M 617.809091 -238.252208 
L 617.809091 -214.844745 
L 635.330131 -182.624186 
L 652.851172 -184.365033 
L 670.372213 -196.079565 
L 687.893254 -187.538767 
L 705.414295 -175.590927 
L 722.935336 -181.459773 
L 740.456377 -171.733665 
L 757.977418 -161.177051 
L 775.498459 -162.852853 
L 793.0195 -178.388414 
L 793.0195 -251.869091 
L 793.0195 -251.869091 
L 775.498459 -182.76952 
L 757.977418 -187.538767 
L 740.456377 -192.256756 
L 722.935336 -207.626929 
L 705.414295 -196.079565 
L 687.893254 -215.789231 
L 670.372213 -219.814166 
L 652.851172 -205.976097 
L 635.330131 -203.62674 
L 617.809091 -238.252208 
z
"/>
    </defs>
    <g clip-path="url(#pe295b6f98b)">
     <use xlink:href="#m9021a69b50" x="0" y="288" style="fill: #daa520; fill-opacity: 0.3"/>
    </g>
   </g>
   <g id="matplotlib.axis_5">
    <g id="xtick_11">
     <g id="line2d_26">
      <g>
       <use xlink:href="#m52982f2d16" x="635.330131" y="230.4" style="stroke: #000000; stroke-width: 0.8"/>
      </g>
     </g>
     <g id="text_25">
      <!-- 22 -->
      <g transform="translate(628.967631 244.998438) scale(0.1 -0.1)">
       <use xlink:href="#DejaVuSans-32"/>
       <use xlink:href="#DejaVuSans-32" transform="translate(63.623047 0)"/>
      </g>
     </g>
    </g>
    <g id="xtick_12">
     <g id="line2d_27">
      <g>
       <use xlink:href="#m52982f2d16" x="670.372213" y="230.4" style="stroke: #000000; stroke-width: 0.8"/>
      </g>
     </g>
     <g id="text_26">
      <!-- 24 -->
      <g transform="translate(664.009713 244.998438) scale(0.1 -0.1)">
       <use xlink:href="#DejaVuSans-32"/>
       <use xlink:href="#DejaVuSans-34" transform="translate(63.623047 0)"/>
      </g>
     </g>
    </g>
    <g id="xtick_13">
     <g id="line2d_28">
      <g>
       <use xlink:href="#m52982f2d16" x="705.414295" y="230.4" style="stroke: #000000; stroke-width: 0.8"/>
      </g>
     </g>
     <g id="text_27">
      <!-- 26 -->
      <g transform="translate(699.051795 244.998438) scale(0.1 -0.1)">
       <use xlink:href="#DejaVuSans-32"/>
       <use xlink:href="#DejaVuSans-36" transform="translate(63.623047 0)"/>
      </g>
     </g>
    </g>
    <g id="xtick_14">
     <g id="line2d_29">
      <g>
       <use xlink:href="#m52982f2d16" x="740.456377" y="230.4" style="stroke: #000000; stroke-width: 0.8"/>
      </g>
     </g>
     <g id="text_28">
      <!-- 28 -->
      <g transform="translate(734.093877 244.998438) scale(0.1 -0.1)">
       <use xlink:href="#DejaVuSans-32"/>
       <use xlink:href="#DejaVuSans-38" transform="translate(63.623047 0)"/>
      </g>
     </g>
    </g>
    <g id="xtick_15">
     <g id="line2d_30">
      <g>
       <use xlink:href="#m52982f2d16" x="775.498459" y="230.4" style="stroke: #000000; stroke-width: 0.8"/>
      </g>
     </g>
     <g id="text_29">
      <!-- 30 -->
      <g transform="translate(769.135959 244.998438) scale(0.1 -0.1)">
       <use xlink:href="#DejaVuSans-33"/>
       <use xlink:href="#DejaVuSans-30" transform="translate(63.623047 0)"/>
      </g>
     </g>
    </g>
    <g id="text_30">
     <!-- $t$ -->
     <g transform="translate(703.414295 258.676563) scale(0.1 -0.1)">
      <use xlink:href="#DejaVuSans-Oblique-74" transform="translate(0 0.78125)"/>
     </g>
    </g>
   </g>
   <g id="matplotlib.axis_6">
    <g id="ytick_10">
     <g id="line2d_31">
      <g>
       <use xlink:href="#m4a538ce3b2" x="609.04857" y="206.248923" style="stroke: #000000; stroke-width: 0.6"/>
      </g>
     </g>
     <g id="text_31">
      <!-- $\mathdefault{2.4\times10^{-3}}$ -->
      <g transform="translate(552.04857 210.048141) scale(0.1 -0.1)">
       <use xlink:href="#DejaVuSans-32" transform="translate(0 0.765625)"/>
       <use xlink:href="#DejaVuSans-2e" transform="translate(63.623047 0.765625)"/>
       <use xlink:href="#DejaVuSans-34" transform="translate(95.410156 0.765625)"/>
       <use xlink:href="#DejaVuSans-d7" transform="translate(178.515625 0.765625)"/>
       <use xlink:href="#DejaVuSans-31" transform="translate(281.787109 0.765625)"/>
       <use xlink:href="#DejaVuSans-30" transform="translate(345.410156 0.765625)"/>
       <use xlink:href="#DejaVuSans-2212" transform="translate(409.990234 39.046875) scale(0.7)"/>
       <use xlink:href="#DejaVuSans-33" transform="translate(468.642578 39.046875) scale(0.7)"/>
      </g>
     </g>
    </g>
    <g id="ytick_11">
     <g id="line2d_32">
      <g>
       <use xlink:href="#m4a538ce3b2" x="609.04857" y="171.11152" style="stroke: #000000; stroke-width: 0.6"/>
      </g>
     </g>
     <g id="text_32">
      <!-- $\mathdefault{2.6\times10^{-3}}$ -->
      <g transform="translate(552.04857 174.910739) scale(0.1 -0.1)">
       <use xlink:href="#DejaVuSans-32" transform="translate(0 0.765625)"/>
       <use xlink:href="#DejaVuSans-2e" transform="translate(63.623047 0.765625)"/>
       <use xlink:href="#DejaVuSans-36" transform="translate(95.410156 0.765625)"/>
       <use xlink:href="#DejaVuSans-d7" transform="translate(178.515625 0.765625)"/>
       <use xlink:href="#DejaVuSans-31" transform="translate(281.787109 0.765625)"/>
       <use xlink:href="#DejaVuSans-30" transform="translate(345.410156 0.765625)"/>
       <use xlink:href="#DejaVuSans-2212" transform="translate(409.990234 39.046875) scale(0.7)"/>
       <use xlink:href="#DejaVuSans-33" transform="translate(468.642578 39.046875) scale(0.7)"/>
      </g>
     </g>
    </g>
    <g id="ytick_12">
     <g id="line2d_33">
      <g>
       <use xlink:href="#m4a538ce3b2" x="609.04857" y="138.579367" style="stroke: #000000; stroke-width: 0.6"/>
      </g>
     </g>
     <g id="text_33">
      <!-- $\mathdefault{2.8\times10^{-3}}$ -->
      <g transform="translate(552.24857 142.378586) scale(0.1 -0.1)">
       <use xlink:href="#DejaVuSans-32" transform="translate(0 0.765625)"/>
       <use xlink:href="#DejaVuSans-2e" transform="translate(63.623047 0.765625)"/>
       <use xlink:href="#DejaVuSans-38" transform="translate(92.785156 0.765625)"/>
       <use xlink:href="#DejaVuSans-d7" transform="translate(175.890625 0.765625)"/>
       <use xlink:href="#DejaVuSans-31" transform="translate(279.162109 0.765625)"/>
       <use xlink:href="#DejaVuSans-30" transform="translate(342.785156 0.765625)"/>
       <use xlink:href="#DejaVuSans-2212" transform="translate(407.365234 39.046875) scale(0.7)"/>
       <use xlink:href="#DejaVuSans-33" transform="translate(466.017578 39.046875) scale(0.7)"/>
      </g>
     </g>
    </g>
    <g id="ytick_13">
     <g id="line2d_34">
      <g>
       <use xlink:href="#m4a538ce3b2" x="609.04857" y="108.292657" style="stroke: #000000; stroke-width: 0.6"/>
      </g>
     </g>
     <g id="text_34">
      <!-- $\mathdefault{3\times10^{-3}}$ -->
      <g transform="translate(561.54857 112.091876) scale(0.1 -0.1)">
       <use xlink:href="#DejaVuSans-33" transform="translate(0 0.765625)"/>
       <use xlink:href="#DejaVuSans-d7" transform="translate(83.105469 0.765625)"/>
       <use xlink:href="#DejaVuSans-31" transform="translate(186.376953 0.765625)"/>
       <use xlink:href="#DejaVuSans-30" transform="translate(250 0.765625)"/>
       <use xlink:href="#DejaVuSans-2212" transform="translate(314.580078 39.046875) scale(0.7)"/>
       <use xlink:href="#DejaVuSans-33" transform="translate(373.232422 39.046875) scale(0.7)"/>
      </g>
     </g>
    </g>
    <g id="ytick_14">
     <g id="line2d_35">
      <g>
       <use xlink:href="#m4a538ce3b2" x="609.04857" y="79.961332" style="stroke: #000000; stroke-width: 0.6"/>
      </g>
     </g>
     <g id="text_35">
      <!-- $\mathdefault{3.2\times10^{-3}}$ -->
      <g transform="translate(552.54857 83.76055) scale(0.1 -0.1)">
       <use xlink:href="#DejaVuSans-33" transform="translate(0 0.765625)"/>
       <use xlink:href="#DejaVuSans-2e" transform="translate(63.623047 0.765625)"/>
       <use xlink:href="#DejaVuSans-32" transform="translate(89.910156 0.765625)"/>
       <use xlink:href="#DejaVuSans-d7" transform="translate(173.015625 0.765625)"/>
       <use xlink:href="#DejaVuSans-31" transform="translate(276.287109 0.765625)"/>
       <use xlink:href="#DejaVuSans-30" transform="translate(339.910156 0.765625)"/>
       <use xlink:href="#DejaVuSans-2212" transform="translate(404.490234 39.046875) scale(0.7)"/>
       <use xlink:href="#DejaVuSans-33" transform="translate(463.142578 39.046875) scale(0.7)"/>
      </g>
     </g>
    </g>
    <g id="ytick_15">
     <g id="line2d_36">
      <g>
       <use xlink:href="#m4a538ce3b2" x="609.04857" y="53.348142" style="stroke: #000000; stroke-width: 0.6"/>
      </g>
     </g>
     <g id="text_36">
      <!-- $\mathdefault{3.4\times10^{-3}}$ -->
      <g transform="translate(552.04857 57.147361) scale(0.1 -0.1)">
       <use xlink:href="#DejaVuSans-33" transform="translate(0 0.765625)"/>
       <use xlink:href="#DejaVuSans-2e" transform="translate(63.623047 0.765625)"/>
       <use xlink:href="#DejaVuSans-34" transform="translate(95.410156 0.765625)"/>
       <use xlink:href="#DejaVuSans-d7" transform="translate(178.515625 0.765625)"/>
       <use xlink:href="#DejaVuSans-31" transform="translate(281.787109 0.765625)"/>
       <use xlink:href="#DejaVuSans-30" transform="translate(345.410156 0.765625)"/>
       <use xlink:href="#DejaVuSans-2212" transform="translate(409.990234 39.046875) scale(0.7)"/>
       <use xlink:href="#DejaVuSans-33" transform="translate(468.642578 39.046875) scale(0.7)"/>
      </g>
     </g>
    </g>
    <g id="ytick_16">
     <g id="line2d_37">
      <g>
       <use xlink:href="#m4a538ce3b2" x="609.04857" y="28.25656" style="stroke: #000000; stroke-width: 0.6"/>
      </g>
     </g>
     <g id="text_37">
      <!-- $\mathdefault{3.6\times10^{-3}}$ -->
      <g transform="translate(552.04857 32.055779) scale(0.1 -0.1)">
       <use xlink:href="#DejaVuSans-33" transform="translate(0 0.765625)"/>
       <use xlink:href="#DejaVuSans-2e" transform="translate(63.623047 0.765625)"/>
       <use xlink:href="#DejaVuSans-36" transform="translate(95.410156 0.765625)"/>
       <use xlink:href="#DejaVuSans-d7" transform="translate(178.515625 0.765625)"/>
       <use xlink:href="#DejaVuSans-31" transform="translate(281.787109 0.765625)"/>
       <use xlink:href="#DejaVuSans-30" transform="translate(345.410156 0.765625)"/>
       <use xlink:href="#DejaVuSans-2212" transform="translate(409.990234 39.046875) scale(0.7)"/>
       <use xlink:href="#DejaVuSans-33" transform="translate(468.642578 39.046875) scale(0.7)"/>
      </g>
     </g>
    </g>
   </g>
   <g id="line2d_38">
    <path d="M 617.809091 181.399187 
L 635.330131 187.608074 
L 652.851172 192.75721 
L 670.372213 199.135173 
L 687.893254 203.031079 
L 705.414295 206.481011 
L 722.935336 209.366495 
L 740.456377 211.818198 
L 757.977418 214.910334 
L 775.498459 218.975036 
L 793.0195 221.149091 
" clip-path="url(#pe295b6f98b)" style="fill: none; stroke: #000000; stroke-width: 3; stroke-linecap: square"/>
   </g>
   <g id="line2d_39">
    <path d="M 617.809091 93.898476 
L 635.330131 127.586796 
L 652.851172 118.80684 
L 670.372213 119.256695 
L 687.893254 127.892708 
L 705.414295 126.212826 
L 722.935336 124.843142 
L 740.456377 132.971273 
L 757.977418 147.448016 
L 775.498459 147.928216 
L 793.0195 137.796168 
" clip-path="url(#pe295b6f98b)" style="fill: none; stroke-dasharray: 11.1,4.8; stroke-dashoffset: 0; stroke: #cd5c5c; stroke-width: 3"/>
   </g>
   <g id="line2d_40">
    <path d="M 617.809091 59.720696 
L 635.330131 94.465272 
L 652.851172 94.323504 
L 670.372213 79.824171 
L 687.893254 87.711551 
L 705.414295 102.911646 
L 722.935336 93.756892 
L 740.456377 106.685996 
L 757.977418 114.92729 
L 775.498459 116.862779 
L 793.0195 77.362577 
" clip-path="url(#pe295b6f98b)" style="fill: none; stroke-dasharray: 11.1,4.8; stroke-dashoffset: 0; stroke: #daa520; stroke-width: 3"/>
   </g>
   <g id="patch_9">
    <path d="M 609.04857 230.4 
L 609.04857 26.88 
" style="fill: none; stroke: #000000; stroke-width: 0.8; stroke-linejoin: miter; stroke-linecap: square"/>
   </g>
   <g id="patch_10">
    <path d="M 609.04857 230.4 
L 801.780021 230.4 
" style="fill: none; stroke: #000000; stroke-width: 0.8; stroke-linejoin: miter; stroke-linecap: square"/>
   </g>
   <g id="text_38">
    <!-- B. subtilis, Illumina -->
    <g transform="translate(648.557733 20.88) scale(0.12 -0.12)">
     <defs>
      <path id="DejaVuSans-73" d="M 2834 3397 
L 2834 2853 
Q 2591 2978 2328 3040 
Q 2066 3103 1784 3103 
Q 1356 3103 1142 2972 
Q 928 2841 928 2578 
Q 928 2378 1081 2264 
Q 1234 2150 1697 2047 
L 1894 2003 
Q 2506 1872 2764 1633 
Q 3022 1394 3022 966 
Q 3022 478 2636 193 
Q 2250 -91 1575 -91 
Q 1294 -91 989 -36 
Q 684 19 347 128 
L 347 722 
Q 666 556 975 473 
Q 1284 391 1588 391 
Q 1994 391 2212 530 
Q 2431 669 2431 922 
Q 2431 1156 2273 1281 
Q 2116 1406 1581 1522 
L 1381 1569 
Q 847 1681 609 1914 
Q 372 2147 372 2553 
Q 372 3047 722 3315 
Q 1072 3584 1716 3584 
Q 2034 3584 2315 3537 
Q 2597 3491 2834 3397 
z
" transform="scale(0.015625)"/>
      <path id="DejaVuSans-6c" d="M 603 4863 
L 1178 4863 
L 1178 0 
L 603 0 
L 603 4863 
z
" transform="scale(0.015625)"/>
     </defs>
     <use xlink:href="#DejaVuSans-42"/>
     <use xlink:href="#DejaVuSans-2e" transform="translate(68.603516 0)"/>
     <use xlink:href="#DejaVuSans-20" transform="translate(100.390625 0)"/>
     <use xlink:href="#DejaVuSans-73" transform="translate(132.177734 0)"/>
     <use xlink:href="#DejaVuSans-75" transform="translate(184.277344 0)"/>
     <use xlink:href="#DejaVuSans-62" transform="translate(247.65625 0)"/>
     <use xlink:href="#DejaVuSans-74" transform="translate(311.132812 0)"/>
     <use xlink:href="#DejaVuSans-69" transform="translate(350.341797 0)"/>
     <use xlink:href="#DejaVuSans-6c" transform="translate(378.125 0)"/>
     <use xlink:href="#DejaVuSans-69" transform="translate(405.908203 0)"/>
     <use xlink:href="#DejaVuSans-73" transform="translate(433.691406 0)"/>
     <use xlink:href="#DejaVuSans-2c" transform="translate(485.791016 0)"/>
     <use xlink:href="#DejaVuSans-20" transform="translate(517.578125 0)"/>
     <use xlink:href="#DejaVuSans-49" transform="translate(549.365234 0)"/>
     <use xlink:href="#DejaVuSans-6c" transform="translate(578.857422 0)"/>
     <use xlink:href="#DejaVuSans-6c" transform="translate(606.640625 0)"/>
     <use xlink:href="#DejaVuSans-75" transform="translate(634.423828 0)"/>
     <use xlink:href="#DejaVuSans-6d" transform="translate(697.802734 0)"/>
     <use xlink:href="#DejaVuSans-69" transform="translate(795.214844 0)"/>
     <use xlink:href="#DejaVuSans-6e" transform="translate(822.998047 0)"/>
     <use xlink:href="#DejaVuSans-61" transform="translate(886.376953 0)"/>
    </g>
   </g>
  </g>
  <g id="axes_4">
   <g id="patch_11">
    <path d="M 876.468549 230.4 
L 1069.2 230.4 
L 1069.2 26.88 
L 876.468549 26.88 
z
" style="fill: #ffffff"/>
   </g>
   <g id="FillBetweenPolyCollection_7">
    <defs>
     <path id="mbb63fe1916" d="M 885.22907 -232.457932 
L 885.22907 -188.477014 
L 902.750111 -176.441075 
L 920.271152 -184.217741 
L 937.792193 -135.565339 
L 955.313234 -159.44212 
L 972.834275 -165.235799 
L 990.355316 -170.561148 
L 1007.876357 -143.711204 
L 1025.397398 -94.645714 
L 1042.918439 -90.635209 
L 1060.43948 -66.850909 
L 1060.43948 -121.768551 
L 1060.43948 -121.768551 
L 1042.918439 -150.157359 
L 1025.397398 -153.339188 
L 1007.876357 -193.145612 
L 990.355316 -216.497844 
L 972.834275 -214.46289 
L 955.313234 -206.523712 
L 937.792193 -186.590506 
L 920.271152 -227.338383 
L 902.750111 -217.542814 
L 885.22907 -232.457932 
z
"/>
    </defs>
    <g clip-path="url(#pc2bb1f221f)">
     <use xlink:href="#mbb63fe1916" x="0" y="288" style="fill: #cd5c5c; fill-opacity: 0.3"/>
    </g>
   </g>
   <g id="FillBetweenPolyCollection_8">
    <defs>
     <path id="m3d67db4fc6" d="M 885.22907 -236.570978 
L 885.22907 -186.649041 
L 902.750111 -176.986429 
L 920.271152 -205.528092 
L 937.792193 -168.086455 
L 955.313234 -187.643759 
L 972.834275 -176.64745 
L 990.355316 -189.543431 
L 1007.876357 -151.448986 
L 1025.397398 -134.638692 
L 1042.918439 -160.889096 
L 1060.43948 -121.753212 
L 1060.43948 -195.764768 
L 1060.43948 -195.764768 
L 1042.918439 -212.38184 
L 1025.397398 -198.016172 
L 1007.876357 -209.1176 
L 990.355316 -247.717502 
L 972.834275 -236.824991 
L 955.313234 -239.235781 
L 937.792193 -229.779985 
L 920.271152 -251.869091 
L 902.750111 -227.906583 
L 885.22907 -236.570978 
z
"/>
    </defs>
    <g clip-path="url(#pc2bb1f221f)">
     <use xlink:href="#m3d67db4fc6" x="0" y="288" style="fill: #daa520; fill-opacity: 0.3"/>
    </g>
   </g>
   <g id="matplotlib.axis_7">
    <g id="xtick_16">
     <g id="line2d_41">
      <g>
       <use xlink:href="#m52982f2d16" x="902.750111" y="230.4" style="stroke: #000000; stroke-width: 0.8"/>
      </g>
     </g>
     <g id="text_39">
      <!-- 22 -->
      <g transform="translate(896.387611 244.998438) scale(0.1 -0.1)">
       <use xlink:href="#DejaVuSans-32"/>
       <use xlink:href="#DejaVuSans-32" transform="translate(63.623047 0)"/>
      </g>
     </g>
    </g>
    <g id="xtick_17">
     <g id="line2d_42">
      <g>
       <use xlink:href="#m52982f2d16" x="937.792193" y="230.4" style="stroke: #000000; stroke-width: 0.8"/>
      </g>
     </g>
     <g id="text_40">
      <!-- 24 -->
      <g transform="translate(931.429693 244.998438) scale(0.1 -0.1)">
       <use xlink:href="#DejaVuSans-32"/>
       <use xlink:href="#DejaVuSans-34" transform="translate(63.623047 0)"/>
      </g>
     </g>
    </g>
    <g id="xtick_18">
     <g id="line2d_43">
      <g>
       <use xlink:href="#m52982f2d16" x="972.834275" y="230.4" style="stroke: #000000; stroke-width: 0.8"/>
      </g>
     </g>
     <g id="text_41">
      <!-- 26 -->
      <g transform="translate(966.471775 244.998438) scale(0.1 -0.1)">
       <use xlink:href="#DejaVuSans-32"/>
       <use xlink:href="#DejaVuSans-36" transform="translate(63.623047 0)"/>
      </g>
     </g>
    </g>
    <g id="xtick_19">
     <g id="line2d_44">
      <g>
       <use xlink:href="#m52982f2d16" x="1007.876357" y="230.4" style="stroke: #000000; stroke-width: 0.8"/>
      </g>
     </g>
     <g id="text_42">
      <!-- 28 -->
      <g transform="translate(1001.513857 244.998438) scale(0.1 -0.1)">
       <use xlink:href="#DejaVuSans-32"/>
       <use xlink:href="#DejaVuSans-38" transform="translate(63.623047 0)"/>
      </g>
     </g>
    </g>
    <g id="xtick_20">
     <g id="line2d_45">
      <g>
       <use xlink:href="#m52982f2d16" x="1042.918439" y="230.4" style="stroke: #000000; stroke-width: 0.8"/>
      </g>
     </g>
     <g id="text_43">
      <!-- 30 -->
      <g transform="translate(1036.555939 244.998438) scale(0.1 -0.1)">
       <use xlink:href="#DejaVuSans-33"/>
       <use xlink:href="#DejaVuSans-30" transform="translate(63.623047 0)"/>
      </g>
     </g>
    </g>
    <g id="text_44">
     <!-- $t$ -->
     <g transform="translate(970.834275 258.676563) scale(0.1 -0.1)">
      <use xlink:href="#DejaVuSans-Oblique-74" transform="translate(0 0.78125)"/>
     </g>
    </g>
   </g>
   <g id="matplotlib.axis_8">
    <g id="ytick_17">
     <g id="line2d_46">
      <g>
       <use xlink:href="#m4a538ce3b2" x="876.468549" y="227.211935" style="stroke: #000000; stroke-width: 0.6"/>
      </g>
     </g>
     <g id="text_45">
      <!-- $\mathdefault{8.6\times10^{-2}}$ -->
      <g transform="translate(819.468549 231.011153) scale(0.1 -0.1)">
       <use xlink:href="#DejaVuSans-38" transform="translate(0 0.765625)"/>
       <use xlink:href="#DejaVuSans-2e" transform="translate(63.623047 0.765625)"/>
       <use xlink:href="#DejaVuSans-36" transform="translate(95.410156 0.765625)"/>
       <use xlink:href="#DejaVuSans-d7" transform="translate(178.515625 0.765625)"/>
       <use xlink:href="#DejaVuSans-31" transform="translate(281.787109 0.765625)"/>
       <use xlink:href="#DejaVuSans-30" transform="translate(345.410156 0.765625)"/>
       <use xlink:href="#DejaVuSans-2212" transform="translate(409.990234 39.046875) scale(0.7)"/>
       <use xlink:href="#DejaVuSans-32" transform="translate(468.642578 39.046875) scale(0.7)"/>
      </g>
     </g>
    </g>
    <g id="ytick_18">
     <g id="line2d_47">
      <g>
       <use xlink:href="#m4a538ce3b2" x="876.468549" y="195.514749" style="stroke: #000000; stroke-width: 0.6"/>
      </g>
     </g>
     <g id="text_46">
      <!-- $\mathdefault{8.8\times10^{-2}}$ -->
      <g transform="translate(819.668549 199.313968) scale(0.1 -0.1)">
       <use xlink:href="#DejaVuSans-38" transform="translate(0 0.765625)"/>
       <use xlink:href="#DejaVuSans-2e" transform="translate(63.623047 0.765625)"/>
       <use xlink:href="#DejaVuSans-38" transform="translate(92.785156 0.765625)"/>
       <use xlink:href="#DejaVuSans-d7" transform="translate(175.890625 0.765625)"/>
       <use xlink:href="#DejaVuSans-31" transform="translate(279.162109 0.765625)"/>
       <use xlink:href="#DejaVuSans-30" transform="translate(342.785156 0.765625)"/>
       <use xlink:href="#DejaVuSans-2212" transform="translate(407.365234 39.046875) scale(0.7)"/>
       <use xlink:href="#DejaVuSans-32" transform="translate(466.017578 39.046875) scale(0.7)"/>
      </g>
     </g>
    </g>
    <g id="ytick_19">
     <g id="line2d_48">
      <g>
       <use xlink:href="#m4a538ce3b2" x="876.468549" y="164.52992" style="stroke: #000000; stroke-width: 0.6"/>
      </g>
     </g>
     <g id="text_47">
      <!-- $\mathdefault{9\times10^{-2}}$ -->
      <g transform="translate(828.968549 168.329139) scale(0.1 -0.1)">
       <defs>
        <path id="DejaVuSans-39" d="M 703 97 
L 703 672 
Q 941 559 1184 500 
Q 1428 441 1663 441 
Q 2288 441 2617 861 
Q 2947 1281 2994 2138 
Q 2813 1869 2534 1725 
Q 2256 1581 1919 1581 
Q 1219 1581 811 2004 
Q 403 2428 403 3163 
Q 403 3881 828 4315 
Q 1253 4750 1959 4750 
Q 2769 4750 3195 4129 
Q 3622 3509 3622 2328 
Q 3622 1225 3098 567 
Q 2575 -91 1691 -91 
Q 1453 -91 1209 -44 
Q 966 3 703 97 
z
M 1959 2075 
Q 2384 2075 2632 2365 
Q 2881 2656 2881 3163 
Q 2881 3666 2632 3958 
Q 2384 4250 1959 4250 
Q 1534 4250 1286 3958 
Q 1038 3666 1038 3163 
Q 1038 2656 1286 2365 
Q 1534 2075 1959 2075 
z
" transform="scale(0.015625)"/>
       </defs>
       <use xlink:href="#DejaVuSans-39" transform="translate(0 0.765625)"/>
       <use xlink:href="#DejaVuSans-d7" transform="translate(83.105469 0.765625)"/>
       <use xlink:href="#DejaVuSans-31" transform="translate(186.376953 0.765625)"/>
       <use xlink:href="#DejaVuSans-30" transform="translate(250 0.765625)"/>
       <use xlink:href="#DejaVuSans-2212" transform="translate(314.580078 39.046875) scale(0.7)"/>
       <use xlink:href="#DejaVuSans-32" transform="translate(373.232422 39.046875) scale(0.7)"/>
      </g>
     </g>
    </g>
    <g id="ytick_20">
     <g id="line2d_49">
      <g>
       <use xlink:href="#m4a538ce3b2" x="876.468549" y="134.226132" style="stroke: #000000; stroke-width: 0.6"/>
      </g>
     </g>
     <g id="text_48">
      <!-- $\mathdefault{9.2\times10^{-2}}$ -->
      <g transform="translate(819.968549 138.025351) scale(0.1 -0.1)">
       <use xlink:href="#DejaVuSans-39" transform="translate(0 0.765625)"/>
       <use xlink:href="#DejaVuSans-2e" transform="translate(63.623047 0.765625)"/>
       <use xlink:href="#DejaVuSans-32" transform="translate(89.910156 0.765625)"/>
       <use xlink:href="#DejaVuSans-d7" transform="translate(173.015625 0.765625)"/>
       <use xlink:href="#DejaVuSans-31" transform="translate(276.287109 0.765625)"/>
       <use xlink:href="#DejaVuSans-30" transform="translate(339.910156 0.765625)"/>
       <use xlink:href="#DejaVuSans-2212" transform="translate(404.490234 39.046875) scale(0.7)"/>
       <use xlink:href="#DejaVuSans-32" transform="translate(463.142578 39.046875) scale(0.7)"/>
      </g>
     </g>
    </g>
    <g id="ytick_21">
     <g id="line2d_50">
      <g>
       <use xlink:href="#m4a538ce3b2" x="876.468549" y="104.57409" style="stroke: #000000; stroke-width: 0.6"/>
      </g>
     </g>
     <g id="text_49">
      <!-- $\mathdefault{9.4\times10^{-2}}$ -->
      <g transform="translate(819.468549 108.373308) scale(0.1 -0.1)">
       <use xlink:href="#DejaVuSans-39" transform="translate(0 0.765625)"/>
       <use xlink:href="#DejaVuSans-2e" transform="translate(63.623047 0.765625)"/>
       <use xlink:href="#DejaVuSans-34" transform="translate(95.410156 0.765625)"/>
       <use xlink:href="#DejaVuSans-d7" transform="translate(178.515625 0.765625)"/>
       <use xlink:href="#DejaVuSans-31" transform="translate(281.787109 0.765625)"/>
       <use xlink:href="#DejaVuSans-30" transform="translate(345.410156 0.765625)"/>
       <use xlink:href="#DejaVuSans-2212" transform="translate(409.990234 39.046875) scale(0.7)"/>
       <use xlink:href="#DejaVuSans-32" transform="translate(468.642578 39.046875) scale(0.7)"/>
      </g>
     </g>
    </g>
    <g id="ytick_22">
     <g id="line2d_51">
      <g>
       <use xlink:href="#m4a538ce3b2" x="876.468549" y="75.546347" style="stroke: #000000; stroke-width: 0.6"/>
      </g>
     </g>
     <g id="text_50">
      <!-- $\mathdefault{9.6\times10^{-2}}$ -->
      <g transform="translate(819.468549 79.345566) scale(0.1 -0.1)">
       <use xlink:href="#DejaVuSans-39" transform="translate(0 0.765625)"/>
       <use xlink:href="#DejaVuSans-2e" transform="translate(63.623047 0.765625)"/>
       <use xlink:href="#DejaVuSans-36" transform="translate(95.410156 0.765625)"/>
       <use xlink:href="#DejaVuSans-d7" transform="translate(178.515625 0.765625)"/>
       <use xlink:href="#DejaVuSans-31" transform="translate(281.787109 0.765625)"/>
       <use xlink:href="#DejaVuSans-30" transform="translate(345.410156 0.765625)"/>
       <use xlink:href="#DejaVuSans-2212" transform="translate(409.990234 39.046875) scale(0.7)"/>
       <use xlink:href="#DejaVuSans-32" transform="translate(468.642578 39.046875) scale(0.7)"/>
      </g>
     </g>
    </g>
    <g id="ytick_23">
     <g id="line2d_52">
      <g>
       <use xlink:href="#m4a538ce3b2" x="876.468549" y="47.117157" style="stroke: #000000; stroke-width: 0.6"/>
      </g>
     </g>
     <g id="text_51">
      <!-- $\mathdefault{9.8\times10^{-2}}$ -->
      <g transform="translate(819.668549 50.916376) scale(0.1 -0.1)">
       <use xlink:href="#DejaVuSans-39" transform="translate(0 0.765625)"/>
       <use xlink:href="#DejaVuSans-2e" transform="translate(63.623047 0.765625)"/>
       <use xlink:href="#DejaVuSans-38" transform="translate(92.785156 0.765625)"/>
       <use xlink:href="#DejaVuSans-d7" transform="translate(175.890625 0.765625)"/>
       <use xlink:href="#DejaVuSans-31" transform="translate(279.162109 0.765625)"/>
       <use xlink:href="#DejaVuSans-30" transform="translate(342.785156 0.765625)"/>
       <use xlink:href="#DejaVuSans-2212" transform="translate(407.365234 39.046875) scale(0.7)"/>
       <use xlink:href="#DejaVuSans-32" transform="translate(466.017578 39.046875) scale(0.7)"/>
      </g>
     </g>
    </g>
   </g>
   <g id="line2d_53">
    <path d="M 885.22907 69.073824 
L 902.750111 76.172277 
L 920.271152 82.613246 
L 937.792193 89.032149 
L 955.313234 95.136318 
L 972.834275 100.862409 
L 990.355316 106.515482 
L 1007.876357 111.71057 
L 1025.397398 116.681271 
L 1042.918439 121.658305 
L 1060.43948 126.632902 
" clip-path="url(#pc2bb1f221f)" style="fill: none; stroke: #000000; stroke-width: 3; stroke-linecap: square"/>
   </g>
   <g id="line2d_54">
    <path d="M 885.22907 78.695252 
L 902.750111 91.508571 
L 920.271152 78.99758 
L 937.792193 122.556142 
L 955.313234 106.967005 
L 972.834275 96.501182 
L 990.355316 95.233122 
L 1007.876357 120.269555 
L 1025.397398 158.476654 
L 1042.918439 168.687804 
L 1060.43948 189.027894 
" clip-path="url(#pc2bb1f221f)" style="fill: none; stroke-dasharray: 11.1,4.8; stroke-dashoffset: 0; stroke: #cd5c5c; stroke-width: 3"/>
   </g>
   <g id="line2d_55">
    <path d="M 885.22907 73.322008 
L 902.750111 85.36183 
L 920.271152 60.633201 
L 937.792193 85.434156 
L 955.313234 79.170369 
L 972.834275 83.294919 
L 990.355316 69.6275 
L 1007.876357 101.951062 
L 1025.397398 118.964635 
L 1042.918439 100.443981 
L 1060.43948 126.291127 
" clip-path="url(#pc2bb1f221f)" style="fill: none; stroke-dasharray: 11.1,4.8; stroke-dashoffset: 0; stroke: #daa520; stroke-width: 3"/>
   </g>
   <g id="patch_12">
    <path d="M 876.468549 230.4 
L 876.468549 26.88 
" style="fill: none; stroke: #000000; stroke-width: 0.8; stroke-linejoin: miter; stroke-linecap: square"/>
   </g>
   <g id="patch_13">
    <path d="M 876.468549 230.4 
L 1069.2 230.4 
" style="fill: none; stroke: #000000; stroke-width: 0.8; stroke-linejoin: miter; stroke-linecap: square"/>
   </g>
   <g id="text_52">
    <!-- B. subtilis, PacBio RSII -->
    <g transform="translate(906.67115 20.88) scale(0.12 -0.12)">
     <defs>
      <path id="DejaVuSans-52" d="M 2841 2188 
Q 3044 2119 3236 1894 
Q 3428 1669 3622 1275 
L 4263 0 
L 3584 0 
L 2988 1197 
Q 2756 1666 2539 1819 
Q 2322 1972 1947 1972 
L 1259 1972 
L 1259 0 
L 628 0 
L 628 4666 
L 2053 4666 
Q 2853 4666 3247 4331 
Q 3641 3997 3641 3322 
Q 3641 2881 3436 2590 
Q 3231 2300 2841 2188 
z
M 1259 4147 
L 1259 2491 
L 2053 2491 
Q 2509 2491 2742 2702 
Q 2975 2913 2975 3322 
Q 2975 3731 2742 3939 
Q 2509 4147 2053 4147 
L 1259 4147 
z
" transform="scale(0.015625)"/>
      <path id="DejaVuSans-53" d="M 3425 4513 
L 3425 3897 
Q 3066 4069 2747 4153 
Q 2428 4238 2131 4238 
Q 1616 4238 1336 4038 
Q 1056 3838 1056 3469 
Q 1056 3159 1242 3001 
Q 1428 2844 1947 2747 
L 2328 2669 
Q 3034 2534 3370 2195 
Q 3706 1856 3706 1288 
Q 3706 609 3251 259 
Q 2797 -91 1919 -91 
Q 1588 -91 1214 -16 
Q 841 59 441 206 
L 441 856 
Q 825 641 1194 531 
Q 1563 422 1919 422 
Q 2459 422 2753 634 
Q 3047 847 3047 1241 
Q 3047 1584 2836 1778 
Q 2625 1972 2144 2069 
L 1759 2144 
Q 1053 2284 737 2584 
Q 422 2884 422 3419 
Q 422 4038 858 4394 
Q 1294 4750 2059 4750 
Q 2388 4750 2728 4690 
Q 3069 4631 3425 4513 
z
" transform="scale(0.015625)"/>
     </defs>
     <use xlink:href="#DejaVuSans-42"/>
     <use xlink:href="#DejaVuSans-2e" transform="translate(68.603516 0)"/>
     <use xlink:href="#DejaVuSans-20" transform="translate(100.390625 0)"/>
     <use xlink:href="#DejaVuSans-73" transform="translate(132.177734 0)"/>
     <use xlink:href="#DejaVuSans-75" transform="translate(184.277344 0)"/>
     <use xlink:href="#DejaVuSans-62" transform="translate(247.65625 0)"/>
     <use xlink:href="#DejaVuSans-74" transform="translate(311.132812 0)"/>
     <use xlink:href="#DejaVuSans-69" transform="translate(350.341797 0)"/>
     <use xlink:href="#DejaVuSans-6c" transform="translate(378.125 0)"/>
     <use xlink:href="#DejaVuSans-69" transform="translate(405.908203 0)"/>
     <use xlink:href="#DejaVuSans-73" transform="translate(433.691406 0)"/>
     <use xlink:href="#DejaVuSans-2c" transform="translate(485.791016 0)"/>
     <use xlink:href="#DejaVuSans-20" transform="translate(517.578125 0)"/>
     <use xlink:href="#DejaVuSans-50" transform="translate(549.365234 0)"/>
     <use xlink:href="#DejaVuSans-61" transform="translate(605.167969 0)"/>
     <use xlink:href="#DejaVuSans-63" transform="translate(666.447266 0)"/>
     <use xlink:href="#DejaVuSans-42" transform="translate(721.427734 0)"/>
     <use xlink:href="#DejaVuSans-69" transform="translate(790.03125 0)"/>
     <use xlink:href="#DejaVuSans-6f" transform="translate(817.814453 0)"/>
     <use xlink:href="#DejaVuSans-20" transform="translate(878.996094 0)"/>
     <use xlink:href="#DejaVuSans-52" transform="translate(910.783203 0)"/>
     <use xlink:href="#DejaVuSans-53" transform="translate(980.265625 0)"/>
     <use xlink:href="#DejaVuSans-49" transform="translate(1043.742188 0)"/>
     <use xlink:href="#DejaVuSans-49" transform="translate(1073.234375 0)"/>
    </g>
   </g>
  </g>
  <g id="legend_1">
   <g id="patch_14">
    <path d="M 167.145312 283 
L 912.854688 283 
Q 914.854688 283 914.854688 281 
L 914.854688 267.321875 
Q 914.854688 265.321875 912.854688 265.321875 
L 167.145312 265.321875 
Q 165.145312 265.321875 165.145312 267.321875 
L 165.145312 281 
Q 165.145312 283 167.145312 283 
z
" style="fill: #ffffff; opacity: 0.8; stroke: #cccccc; stroke-linejoin: miter"/>
   </g>
   <g id="line2d_56">
    <path d="M 169.145312 273.420313 
L 179.145312 273.420313 
L 189.145312 273.420313 
" style="fill: none; stroke: #000000; stroke-width: 3; stroke-linecap: square"/>
   </g>
   <g id="text_53">
    <!-- Observed hazard rate -->
    <g transform="translate(197.145312 276.920313) scale(0.1 -0.1)">
     <defs>
      <path id="DejaVuSans-76" d="M 191 3500 
L 800 3500 
L 1894 563 
L 2988 3500 
L 3597 3500 
L 2284 0 
L 1503 0 
L 191 3500 
z
" transform="scale(0.015625)"/>
      <path id="DejaVuSans-68" d="M 3513 2113 
L 3513 0 
L 2938 0 
L 2938 2094 
Q 2938 2591 2744 2837 
Q 2550 3084 2163 3084 
Q 1697 3084 1428 2787 
Q 1159 2491 1159 1978 
L 1159 0 
L 581 0 
L 581 4863 
L 1159 4863 
L 1159 2956 
Q 1366 3272 1645 3428 
Q 1925 3584 2291 3584 
Q 2894 3584 3203 3211 
Q 3513 2838 3513 2113 
z
" transform="scale(0.015625)"/>
      <path id="DejaVuSans-7a" d="M 353 3500 
L 3084 3500 
L 3084 2975 
L 922 459 
L 3084 459 
L 3084 0 
L 275 0 
L 275 525 
L 2438 3041 
L 353 3041 
L 353 3500 
z
" transform="scale(0.015625)"/>
     </defs>
     <use xlink:href="#DejaVuSans-4f"/>
     <use xlink:href="#DejaVuSans-62" transform="translate(78.710938 0)"/>
     <use xlink:href="#DejaVuSans-73" transform="translate(142.1875 0)"/>
     <use xlink:href="#DejaVuSans-65" transform="translate(194.287109 0)"/>
     <use xlink:href="#DejaVuSans-72" transform="translate(255.810547 0)"/>
     <use xlink:href="#DejaVuSans-76" transform="translate(296.923828 0)"/>
     <use xlink:href="#DejaVuSans-65" transform="translate(356.103516 0)"/>
     <use xlink:href="#DejaVuSans-64" transform="translate(417.626953 0)"/>
     <use xlink:href="#DejaVuSans-20" transform="translate(481.103516 0)"/>
     <use xlink:href="#DejaVuSans-68" transform="translate(512.890625 0)"/>
     <use xlink:href="#DejaVuSans-61" transform="translate(576.269531 0)"/>
     <use xlink:href="#DejaVuSans-7a" transform="translate(637.548828 0)"/>
     <use xlink:href="#DejaVuSans-61" transform="translate(690.039062 0)"/>
     <use xlink:href="#DejaVuSans-72" transform="translate(751.318359 0)"/>
     <use xlink:href="#DejaVuSans-64" transform="translate(790.681641 0)"/>
     <use xlink:href="#DejaVuSans-20" transform="translate(854.158203 0)"/>
     <use xlink:href="#DejaVuSans-72" transform="translate(885.945312 0)"/>
     <use xlink:href="#DejaVuSans-61" transform="translate(927.058594 0)"/>
     <use xlink:href="#DejaVuSans-74" transform="translate(988.337891 0)"/>
     <use xlink:href="#DejaVuSans-65" transform="translate(1027.546875 0)"/>
    </g>
   </g>
   <g id="line2d_57">
    <path d="M 326.054687 273.420313 
L 336.054687 273.420313 
L 346.054687 273.420313 
" style="fill: none; stroke-dasharray: 11.1,4.8; stroke-dashoffset: 0; stroke: #cd5c5c; stroke-width: 3"/>
   </g>
   <g id="text_54">
    <!-- $(k,v)$-mer estimated hazard rate (without reference) -->
    <g transform="translate(354.054687 276.920313) scale(0.1 -0.1)">
     <defs>
      <path id="DejaVuSans-Oblique-6b" d="M 1172 4863 
L 1747 4863 
L 1197 2028 
L 3169 3500 
L 3916 3500 
L 1716 1825 
L 3322 0 
L 2625 0 
L 1131 1709 
L 800 0 
L 225 0 
L 1172 4863 
z
" transform="scale(0.015625)"/>
      <path id="DejaVuSans-Oblique-76" d="M 459 3500 
L 1069 3500 
L 1581 525 
L 3256 3500 
L 3866 3500 
L 1875 0 
L 1100 0 
L 459 3500 
z
" transform="scale(0.015625)"/>
      <path id="DejaVuSans-2d" d="M 313 2009 
L 1997 2009 
L 1997 1497 
L 313 1497 
L 313 2009 
z
" transform="scale(0.015625)"/>
      <path id="DejaVuSans-77" d="M 269 3500 
L 844 3500 
L 1563 769 
L 2278 3500 
L 2956 3500 
L 3675 769 
L 4391 3500 
L 4966 3500 
L 4050 0 
L 3372 0 
L 2619 2869 
L 1863 0 
L 1184 0 
L 269 3500 
z
" transform="scale(0.015625)"/>
     </defs>
     <use xlink:href="#DejaVuSans-28" transform="translate(0 0.015625)"/>
     <use xlink:href="#DejaVuSans-Oblique-6b" transform="translate(39.013672 0.015625)"/>
     <use xlink:href="#DejaVuSans-2c" transform="translate(96.923828 0.015625)"/>
     <use xlink:href="#DejaVuSans-Oblique-76" transform="translate(148.193359 0.015625)"/>
     <use xlink:href="#DejaVuSans-29" transform="translate(207.373047 0.015625)"/>
     <use xlink:href="#DejaVuSans-2d" transform="translate(246.386719 0.015625)"/>
     <use xlink:href="#DejaVuSans-6d" transform="translate(280.720703 0.015625)"/>
     <use xlink:href="#DejaVuSans-65" transform="translate(378.132812 0.015625)"/>
     <use xlink:href="#DejaVuSans-72" transform="translate(439.65625 0.015625)"/>
     <use xlink:href="#DejaVuSans-20" transform="translate(480.769531 0.015625)"/>
     <use xlink:href="#DejaVuSans-65" transform="translate(512.556641 0.015625)"/>
     <use xlink:href="#DejaVuSans-73" transform="translate(574.080078 0.015625)"/>
     <use xlink:href="#DejaVuSans-74" transform="translate(626.179688 0.015625)"/>
     <use xlink:href="#DejaVuSans-69" transform="translate(665.388672 0.015625)"/>
     <use xlink:href="#DejaVuSans-6d" transform="translate(693.171875 0.015625)"/>
     <use xlink:href="#DejaVuSans-61" transform="translate(790.583984 0.015625)"/>
     <use xlink:href="#DejaVuSans-74" transform="translate(851.863281 0.015625)"/>
     <use xlink:href="#DejaVuSans-65" transform="translate(891.072266 0.015625)"/>
     <use xlink:href="#DejaVuSans-64" transform="translate(952.595703 0.015625)"/>
     <use xlink:href="#DejaVuSans-20" transform="translate(1016.072266 0.015625)"/>
     <use xlink:href="#DejaVuSans-68" transform="translate(1047.859375 0.015625)"/>
     <use xlink:href="#DejaVuSans-61" transform="translate(1111.238281 0.015625)"/>
     <use xlink:href="#DejaVuSans-7a" transform="translate(1172.517578 0.015625)"/>
     <use xlink:href="#DejaVuSans-61" transform="translate(1225.007812 0.015625)"/>
     <use xlink:href="#DejaVuSans-72" transform="translate(1286.287109 0.015625)"/>
     <use xlink:href="#DejaVuSans-64" transform="translate(1327.400391 0.015625)"/>
     <use xlink:href="#DejaVuSans-20" transform="translate(1390.876953 0.015625)"/>
     <use xlink:href="#DejaVuSans-72" transform="translate(1422.664062 0.015625)"/>
     <use xlink:href="#DejaVuSans-61" transform="translate(1463.777344 0.015625)"/>
     <use xlink:href="#DejaVuSans-74" transform="translate(1525.056641 0.015625)"/>
     <use xlink:href="#DejaVuSans-65" transform="translate(1564.265625 0.015625)"/>
     <use xlink:href="#DejaVuSans-20" transform="translate(1625.789062 0.015625)"/>
     <use xlink:href="#DejaVuSans-28" transform="translate(1657.576172 0.015625)"/>
     <use xlink:href="#DejaVuSans-77" transform="translate(1696.589844 0.015625)"/>
     <use xlink:href="#DejaVuSans-69" transform="translate(1778.376953 0.015625)"/>
     <use xlink:href="#DejaVuSans-74" transform="translate(1806.160156 0.015625)"/>
     <use xlink:href="#DejaVuSans-68" transform="translate(1845.369141 0.015625)"/>
     <use xlink:href="#DejaVuSans-6f" transform="translate(1908.748047 0.015625)"/>
     <use xlink:href="#DejaVuSans-75" transform="translate(1969.929688 0.015625)"/>
     <use xlink:href="#DejaVuSans-74" transform="translate(2033.308594 0.015625)"/>
     <use xlink:href="#DejaVuSans-20" transform="translate(2072.517578 0.015625)"/>
     <use xlink:href="#DejaVuSans-72" transform="translate(2104.304688 0.015625)"/>
     <use xlink:href="#DejaVuSans-65" transform="translate(2145.417969 0.015625)"/>
     <use xlink:href="#DejaVuSans-66" transform="translate(2206.941406 0.015625)"/>
     <use xlink:href="#DejaVuSans-65" transform="translate(2242.146484 0.015625)"/>
     <use xlink:href="#DejaVuSans-72" transform="translate(2303.669922 0.015625)"/>
     <use xlink:href="#DejaVuSans-65" transform="translate(2344.783203 0.015625)"/>
     <use xlink:href="#DejaVuSans-6e" transform="translate(2406.306641 0.015625)"/>
     <use xlink:href="#DejaVuSans-63" transform="translate(2469.685547 0.015625)"/>
     <use xlink:href="#DejaVuSans-65" transform="translate(2524.666016 0.015625)"/>
     <use xlink:href="#DejaVuSans-29" transform="translate(2586.189453 0.015625)"/>
    </g>
   </g>
   <g id="line2d_58">
    <path d="M 636.654687 273.420313 
L 646.654687 273.420313 
L 656.654687 273.420313 
" style="fill: none; stroke-dasharray: 11.1,4.8; stroke-dashoffset: 0; stroke: #daa520; stroke-width: 3"/>
   </g>
   <g id="text_55">
    <!-- $(k,v)$-mer estimated hazard rate (with reference) -->
    <g transform="translate(664.654687 276.920313) scale(0.1 -0.1)">
     <use xlink:href="#DejaVuSans-28" transform="translate(0 0.015625)"/>
     <use xlink:href="#DejaVuSans-Oblique-6b" transform="translate(39.013672 0.015625)"/>
     <use xlink:href="#DejaVuSans-2c" transform="translate(96.923828 0.015625)"/>
     <use xlink:href="#DejaVuSans-Oblique-76" transform="translate(148.193359 0.015625)"/>
     <use xlink:href="#DejaVuSans-29" transform="translate(207.373047 0.015625)"/>
     <use xlink:href="#DejaVuSans-2d" transform="translate(246.386719 0.015625)"/>
     <use xlink:href="#DejaVuSans-6d" transform="translate(280.720703 0.015625)"/>
     <use xlink:href="#DejaVuSans-65" transform="translate(378.132812 0.015625)"/>
     <use xlink:href="#DejaVuSans-72" transform="translate(439.65625 0.015625)"/>
     <use xlink:href="#DejaVuSans-20" transform="translate(480.769531 0.015625)"/>
     <use xlink:href="#DejaVuSans-65" transform="translate(512.556641 0.015625)"/>
     <use xlink:href="#DejaVuSans-73" transform="translate(574.080078 0.015625)"/>
     <use xlink:href="#DejaVuSans-74" transform="translate(626.179688 0.015625)"/>
     <use xlink:href="#DejaVuSans-69" transform="translate(665.388672 0.015625)"/>
     <use xlink:href="#DejaVuSans-6d" transform="translate(693.171875 0.015625)"/>
     <use xlink:href="#DejaVuSans-61" transform="translate(790.583984 0.015625)"/>
     <use xlink:href="#DejaVuSans-74" transform="translate(851.863281 0.015625)"/>
     <use xlink:href="#DejaVuSans-65" transform="translate(891.072266 0.015625)"/>
     <use xlink:href="#DejaVuSans-64" transform="translate(952.595703 0.015625)"/>
     <use xlink:href="#DejaVuSans-20" transform="translate(1016.072266 0.015625)"/>
     <use xlink:href="#DejaVuSans-68" transform="translate(1047.859375 0.015625)"/>
     <use xlink:href="#DejaVuSans-61" transform="translate(1111.238281 0.015625)"/>
     <use xlink:href="#DejaVuSans-7a" transform="translate(1172.517578 0.015625)"/>
     <use xlink:href="#DejaVuSans-61" transform="translate(1225.007812 0.015625)"/>
     <use xlink:href="#DejaVuSans-72" transform="translate(1286.287109 0.015625)"/>
     <use xlink:href="#DejaVuSans-64" transform="translate(1327.400391 0.015625)"/>
     <use xlink:href="#DejaVuSans-20" transform="translate(1390.876953 0.015625)"/>
     <use xlink:href="#DejaVuSans-72" transform="translate(1422.664062 0.015625)"/>
     <use xlink:href="#DejaVuSans-61" transform="translate(1463.777344 0.015625)"/>
     <use xlink:href="#DejaVuSans-74" transform="translate(1525.056641 0.015625)"/>
     <use xlink:href="#DejaVuSans-65" transform="translate(1564.265625 0.015625)"/>
     <use xlink:href="#DejaVuSans-20" transform="translate(1625.789062 0.015625)"/>
     <use xlink:href="#DejaVuSans-28" transform="translate(1657.576172 0.015625)"/>
     <use xlink:href="#DejaVuSans-77" transform="translate(1696.589844 0.015625)"/>
     <use xlink:href="#DejaVuSans-69" transform="translate(1778.376953 0.015625)"/>
     <use xlink:href="#DejaVuSans-74" transform="translate(1806.160156 0.015625)"/>
     <use xlink:href="#DejaVuSans-68" transform="translate(1845.369141 0.015625)"/>
     <use xlink:href="#DejaVuSans-20" transform="translate(1908.748047 0.015625)"/>
     <use xlink:href="#DejaVuSans-72" transform="translate(1940.535156 0.015625)"/>
     <use xlink:href="#DejaVuSans-65" transform="translate(1981.648438 0.015625)"/>
     <use xlink:href="#DejaVuSans-66" transform="translate(2043.171875 0.015625)"/>
     <use xlink:href="#DejaVuSans-65" transform="translate(2078.376953 0.015625)"/>
     <use xlink:href="#DejaVuSans-72" transform="translate(2139.900391 0.015625)"/>
     <use xlink:href="#DejaVuSans-65" transform="translate(2181.013672 0.015625)"/>
     <use xlink:href="#DejaVuSans-6e" transform="translate(2242.537109 0.015625)"/>
     <use xlink:href="#DejaVuSans-63" transform="translate(2305.916016 0.015625)"/>
     <use xlink:href="#DejaVuSans-65" transform="translate(2360.896484 0.015625)"/>
     <use xlink:href="#DejaVuSans-29" transform="translate(2422.419922 0.015625)"/>
    </g>
   </g>
  </g>
 </g>
 <defs>
  <clipPath id="p2f1ec14fe7">
   <rect x="74.208612" y="26.88" width="192.731451" height="203.52"/>
  </clipPath>
  <clipPath id="p3c3027bafb">
   <rect x="341.628591" y="26.88" width="192.731451" height="203.52"/>
  </clipPath>
  <clipPath id="pe295b6f98b">
   <rect x="609.04857" y="26.88" width="192.731451" height="203.52"/>
  </clipPath>
  <clipPath id="pc2bb1f221f">
   <rect x="876.468549" y="26.88" width="192.731451" height="203.52"/>
  </clipPath>
 </defs>
</svg>
