<?xml version="1.0" encoding="utf-8" standalone="no"?>
<!DOCTYPE svg PUBLIC "-//W3C//DTD SVG 1.1//EN"
  "http://www.w3.org/Graphics/SVG/1.1/DTD/svg11.dtd">
<svg xmlns:xlink="http://www.w3.org/1999/xlink" width="1080pt" height="288pt" viewBox="0 0 1080 288" xmlns="http://www.w3.org/2000/svg" version="1.1">
 <metadata>
  <rdf:RDF xmlns:dc="http://purl.org/dc/elements/1.1/" xmlns:cc="http://creativecommons.org/ns#" xmlns:rdf="http://www.w3.org/1999/02/22-rdf-syntax-ns#">
   <cc:Work>
    <dc:type rdf:resource="http://purl.org/dc/dcmitype/StillImage"/>
    <dc:date>2026-01-12T21:48:38.615664</dc:date>
    <dc:format>image/svg+xml</dc:format>
    <dc:creator>
     <cc:Agent>
      <dc:title>Matplotlib v3.10.7, https://matplotlib.org/</dc:title>
     </cc:Agent>
    </dc:creator>
   </cc:Work>
  </rdf:RDF>
 </metadata>
 <defs>
  <style type="text/css">*{stroke-linejoin: round; stroke-linecap: butt}</style>
 </defs>
 <g id="figure_1">
  <g id="patch_1">
   <path d="M 0 288 
L 1080 288 
L 1080 0 
L 0 0 
z
" style="fill: #ffffff"/>
  </g>
  <g id="axes_1">
   <g id="patch_2">
    <path d="M 61.76 230.4 
L 362.486667 230.4 
L 362.486667 26.88 
L 61.76 26.88 
z
" style="fill: #ffffff"/>
   </g>
   <g id="FillBetweenPolyCollection_1">
    <defs>
     <path id="m02fd3b1806" d="M 75.429394 -89.775702 
L 75.429394 -83.665832 
L 102.768182 -79.534397 
L 130.10697 -81.665577 
L 157.445758 -80.967306 
L 184.784545 -80.363593 
L 212.123333 -77.599604 
L 239.462121 -78.217865 
L 266.800909 -75.948485 
L 294.139697 -74.733785 
L 321.478485 -75.970306 
L 348.817273 -75.526613 
L 348.817273 -80.785465 
L 348.817273 -80.785465 
L 321.478485 -82.763899 
L 294.139697 -83.673106 
L 266.800909 -81.898334 
L 239.462121 -88.008204 
L 212.123333 -82.480227 
L 184.784545 -96.198339 
L 157.445758 -87.535416 
L 130.10697 -251.869091 
L 102.768182 -91.725041 
L 75.429394 -89.775702 
z
"/>
    </defs>
    <g clip-path="url(#p674b3d3f95)">
     <use xlink:href="#m02fd3b1806" x="0" y="288" style="fill: #cd5c5c; fill-opacity: 0.3"/>
    </g>
   </g>
   <g id="FillBetweenPolyCollection_2">
    <defs>
     <path id="mfd38078580" d="M 75.429394 -79.963542 
L 75.429394 -78.196044 
L 102.768182 -76.668577 
L 130.10697 -74.7847 
L 157.445758 -74.159166 
L 184.784545 -73.999146 
L 212.123333 -72.653519 
L 239.462121 -72.566236 
L 266.800909 -72.188006 
L 294.139697 -71.969796 
L 321.478485 -71.657029 
L 348.817273 -71.991617 
L 348.817273 -73.140854 
L 348.817273 -73.140854 
L 321.478485 -72.566236 
L 294.139697 -72.849908 
L 266.800909 -73.308148 
L 239.462121 -73.468169 
L 212.123333 -73.635463 
L 184.784545 -74.937447 
L 157.445758 -75.090194 
L 130.10697 -76.013948 
L 102.768182 -77.759625 
L 75.429394 -79.963542 
z
"/>
    </defs>
    <g clip-path="url(#p674b3d3f95)">
     <use xlink:href="#mfd38078580" x="0" y="288" style="fill: #daa520; fill-opacity: 0.3"/>
    </g>
   </g>
   <g id="matplotlib.axis_1">
    <g id="xtick_1">
     <g id="line2d_1">
      <defs>
       <path id="m4cbb6bff91" d="M 0 0 
L 0 3.5 
" style="stroke: #000000; stroke-width: 0.8"/>
      </defs>
      <g>
       <use xlink:href="#m4cbb6bff91" x="102.768182" y="230.4" style="stroke: #000000; stroke-width: 0.8"/>
      </g>
     </g>
     <g id="text_1">
      <!-- 42 -->
      <g transform="translate(96.405682 244.998438) scale(0.1 -0.1)">
       <defs>
        <path id="DejaVuSans-34" d="M 2419 4116 
L 825 1625 
L 2419 1625 
L 2419 4116 
z
M 2253 4666 
L 3047 4666 
L 3047 1625 
L 3713 1625 
L 3713 1100 
L 3047 1100 
L 3047 0 
L 2419 0 
L 2419 1100 
L 313 1100 
L 313 1709 
L 2253 4666 
z
" transform="scale(0.015625)"/>
        <path id="DejaVuSans-32" d="M 1228 531 
L 3431 531 
L 3431 0 
L 469 0 
L 469 531 
Q 828 903 1448 1529 
Q 2069 2156 2228 2338 
Q 2531 2678 2651 2914 
Q 2772 3150 2772 3378 
Q 2772 3750 2511 3984 
Q 2250 4219 1831 4219 
Q 1534 4219 1204 4116 
Q 875 4013 500 3803 
L 500 4441 
Q 881 4594 1212 4672 
Q 1544 4750 1819 4750 
Q 2544 4750 2975 4387 
Q 3406 4025 3406 3419 
Q 3406 3131 3298 2873 
Q 3191 2616 2906 2266 
Q 2828 2175 2409 1742 
Q 1991 1309 1228 531 
z
" transform="scale(0.015625)"/>
       </defs>
       <use xlink:href="#DejaVuSans-34"/>
       <use xlink:href="#DejaVuSans-32" transform="translate(63.623047 0)"/>
      </g>
     </g>
    </g>
    <g id="xtick_2">
     <g id="line2d_2">
      <g>
       <use xlink:href="#m4cbb6bff91" x="157.445758" y="230.4" style="stroke: #000000; stroke-width: 0.8"/>
      </g>
     </g>
     <g id="text_2">
      <!-- 44 -->
      <g transform="translate(151.083258 244.998438) scale(0.1 -0.1)">
       <use xlink:href="#DejaVuSans-34"/>
       <use xlink:href="#DejaVuSans-34" transform="translate(63.623047 0)"/>
      </g>
     </g>
    </g>
    <g id="xtick_3">
     <g id="line2d_3">
      <g>
       <use xlink:href="#m4cbb6bff91" x="212.123333" y="230.4" style="stroke: #000000; stroke-width: 0.8"/>
      </g>
     </g>
     <g id="text_3">
      <!-- 46 -->
      <g transform="translate(205.760833 244.998438) scale(0.1 -0.1)">
       <defs>
        <path id="DejaVuSans-36" d="M 2113 2584 
Q 1688 2584 1439 2293 
Q 1191 2003 1191 1497 
Q 1191 994 1439 701 
Q 1688 409 2113 409 
Q 2538 409 2786 701 
Q 3034 994 3034 1497 
Q 3034 2003 2786 2293 
Q 2538 2584 2113 2584 
z
M 3366 4563 
L 3366 3988 
Q 3128 4100 2886 4159 
Q 2644 4219 2406 4219 
Q 1781 4219 1451 3797 
Q 1122 3375 1075 2522 
Q 1259 2794 1537 2939 
Q 1816 3084 2150 3084 
Q 2853 3084 3261 2657 
Q 3669 2231 3669 1497 
Q 3669 778 3244 343 
Q 2819 -91 2113 -91 
Q 1303 -91 875 529 
Q 447 1150 447 2328 
Q 447 3434 972 4092 
Q 1497 4750 2381 4750 
Q 2619 4750 2861 4703 
Q 3103 4656 3366 4563 
z
" transform="scale(0.015625)"/>
       </defs>
       <use xlink:href="#DejaVuSans-34"/>
       <use xlink:href="#DejaVuSans-36" transform="translate(63.623047 0)"/>
      </g>
     </g>
    </g>
    <g id="xtick_4">
     <g id="line2d_4">
      <g>
       <use xlink:href="#m4cbb6bff91" x="266.800909" y="230.4" style="stroke: #000000; stroke-width: 0.8"/>
      </g>
     </g>
     <g id="text_4">
      <!-- 48 -->
      <g transform="translate(260.438409 244.998438) scale(0.1 -0.1)">
       <defs>
        <path id="DejaVuSans-38" d="M 2034 2216 
Q 1584 2216 1326 1975 
Q 1069 1734 1069 1313 
Q 1069 891 1326 650 
Q 1584 409 2034 409 
Q 2484 409 2743 651 
Q 3003 894 3003 1313 
Q 3003 1734 2745 1975 
Q 2488 2216 2034 2216 
z
M 1403 2484 
Q 997 2584 770 2862 
Q 544 3141 544 3541 
Q 544 4100 942 4425 
Q 1341 4750 2034 4750 
Q 2731 4750 3128 4425 
Q 3525 4100 3525 3541 
Q 3525 3141 3298 2862 
Q 3072 2584 2669 2484 
Q 3125 2378 3379 2068 
Q 3634 1759 3634 1313 
Q 3634 634 3220 271 
Q 2806 -91 2034 -91 
Q 1263 -91 848 271 
Q 434 634 434 1313 
Q 434 1759 690 2068 
Q 947 2378 1403 2484 
z
M 1172 3481 
Q 1172 3119 1398 2916 
Q 1625 2713 2034 2713 
Q 2441 2713 2670 2916 
Q 2900 3119 2900 3481 
Q 2900 3844 2670 4047 
Q 2441 4250 2034 4250 
Q 1625 4250 1398 4047 
Q 1172 3844 1172 3481 
z
" transform="scale(0.015625)"/>
       </defs>
       <use xlink:href="#DejaVuSans-34"/>
       <use xlink:href="#DejaVuSans-38" transform="translate(63.623047 0)"/>
      </g>
     </g>
    </g>
    <g id="xtick_5">
     <g id="line2d_5">
      <g>
       <use xlink:href="#m4cbb6bff91" x="321.478485" y="230.4" style="stroke: #000000; stroke-width: 0.8"/>
      </g>
     </g>
     <g id="text_5">
      <!-- 50 -->
      <g transform="translate(315.115985 244.998438) scale(0.1 -0.1)">
       <defs>
        <path id="DejaVuSans-35" d="M 691 4666 
L 3169 4666 
L 3169 4134 
L 1269 4134 
L 1269 2991 
Q 1406 3038 1543 3061 
Q 1681 3084 1819 3084 
Q 2600 3084 3056 2656 
Q 3513 2228 3513 1497 
Q 3513 744 3044 326 
Q 2575 -91 1722 -91 
Q 1428 -91 1123 -41 
Q 819 9 494 109 
L 494 744 
Q 775 591 1075 516 
Q 1375 441 1709 441 
Q 2250 441 2565 725 
Q 2881 1009 2881 1497 
Q 2881 1984 2565 2268 
Q 2250 2553 1709 2553 
Q 1456 2553 1204 2497 
Q 953 2441 691 2322 
L 691 4666 
z
" transform="scale(0.015625)"/>
        <path id="DejaVuSans-30" d="M 2034 4250 
Q 1547 4250 1301 3770 
Q 1056 3291 1056 2328 
Q 1056 1369 1301 889 
Q 1547 409 2034 409 
Q 2525 409 2770 889 
Q 3016 1369 3016 2328 
Q 3016 3291 2770 3770 
Q 2525 4250 2034 4250 
z
M 2034 4750 
Q 2819 4750 3233 4129 
Q 3647 3509 3647 2328 
Q 3647 1150 3233 529 
Q 2819 -91 2034 -91 
Q 1250 -91 836 529 
Q 422 1150 422 2328 
Q 422 3509 836 4129 
Q 1250 4750 2034 4750 
z
" transform="scale(0.015625)"/>
       </defs>
       <use xlink:href="#DejaVuSans-35"/>
       <use xlink:href="#DejaVuSans-30" transform="translate(63.623047 0)"/>
      </g>
     </g>
    </g>
    <g id="text_6">
     <!-- $t$ -->
     <g transform="translate(210.123333 258.676563) scale(0.1 -0.1)">
      <defs>
       <path id="DejaVuSans-Oblique-74" d="M 2706 3500 
L 2619 3053 
L 1472 3053 
L 1100 1153 
Q 1081 1047 1072 975 
Q 1063 903 1063 863 
Q 1063 663 1183 572 
Q 1303 481 1569 481 
L 2150 481 
L 2053 0 
L 1503 0 
Q 991 0 739 200 
Q 488 400 488 806 
Q 488 878 497 964 
Q 506 1050 525 1153 
L 897 3053 
L 409 3053 
L 500 3500 
L 978 3500 
L 1172 4494 
L 1747 4494 
L 1556 3500 
L 2706 3500 
z
" transform="scale(0.015625)"/>
      </defs>
      <use xlink:href="#DejaVuSans-Oblique-74" transform="translate(0 0.78125)"/>
     </g>
    </g>
   </g>
   <g id="matplotlib.axis_2">
    <g id="ytick_1">
     <g id="line2d_6">
      <defs>
       <path id="m015c450746" d="M 0 0 
L -3.5 0 
" style="stroke: #000000; stroke-width: 0.8"/>
      </defs>
      <g>
       <use xlink:href="#m015c450746" x="61.76" y="218.736004" style="stroke: #000000; stroke-width: 0.8"/>
      </g>
     </g>
     <g id="text_7">
      <!-- 0.005 -->
      <g transform="translate(26.131875 222.535222) scale(0.1 -0.1)">
       <defs>
        <path id="DejaVuSans-2e" d="M 684 794 
L 1344 794 
L 1344 0 
L 684 0 
L 684 794 
z
" transform="scale(0.015625)"/>
       </defs>
       <use xlink:href="#DejaVuSans-30"/>
       <use xlink:href="#DejaVuSans-2e" transform="translate(63.623047 0)"/>
       <use xlink:href="#DejaVuSans-30" transform="translate(95.410156 0)"/>
       <use xlink:href="#DejaVuSans-30" transform="translate(159.033203 0)"/>
       <use xlink:href="#DejaVuSans-35" transform="translate(222.65625 0)"/>
      </g>
     </g>
    </g>
    <g id="ytick_2">
     <g id="line2d_7">
      <g>
       <use xlink:href="#m015c450746" x="61.76" y="182.367731" style="stroke: #000000; stroke-width: 0.8"/>
      </g>
     </g>
     <g id="text_8">
      <!-- 0.010 -->
      <g transform="translate(26.131875 186.16695) scale(0.1 -0.1)">
       <defs>
        <path id="DejaVuSans-31" d="M 794 531 
L 1825 531 
L 1825 4091 
L 703 3866 
L 703 4441 
L 1819 4666 
L 2450 4666 
L 2450 531 
L 3481 531 
L 3481 0 
L 794 0 
L 794 531 
z
" transform="scale(0.015625)"/>
       </defs>
       <use xlink:href="#DejaVuSans-30"/>
       <use xlink:href="#DejaVuSans-2e" transform="translate(63.623047 0)"/>
       <use xlink:href="#DejaVuSans-30" transform="translate(95.410156 0)"/>
       <use xlink:href="#DejaVuSans-31" transform="translate(159.033203 0)"/>
       <use xlink:href="#DejaVuSans-30" transform="translate(222.65625 0)"/>
      </g>
     </g>
    </g>
    <g id="ytick_3">
     <g id="line2d_8">
      <g>
       <use xlink:href="#m015c450746" x="61.76" y="145.999459" style="stroke: #000000; stroke-width: 0.8"/>
      </g>
     </g>
     <g id="text_9">
      <!-- 0.015 -->
      <g transform="translate(26.131875 149.798678) scale(0.1 -0.1)">
       <use xlink:href="#DejaVuSans-30"/>
       <use xlink:href="#DejaVuSans-2e" transform="translate(63.623047 0)"/>
       <use xlink:href="#DejaVuSans-30" transform="translate(95.410156 0)"/>
       <use xlink:href="#DejaVuSans-31" transform="translate(159.033203 0)"/>
       <use xlink:href="#DejaVuSans-35" transform="translate(222.65625 0)"/>
      </g>
     </g>
    </g>
    <g id="ytick_4">
     <g id="line2d_9">
      <g>
       <use xlink:href="#m015c450746" x="61.76" y="109.631187" style="stroke: #000000; stroke-width: 0.8"/>
      </g>
     </g>
     <g id="text_10">
      <!-- 0.020 -->
      <g transform="translate(26.131875 113.430406) scale(0.1 -0.1)">
       <use xlink:href="#DejaVuSans-30"/>
       <use xlink:href="#DejaVuSans-2e" transform="translate(63.623047 0)"/>
       <use xlink:href="#DejaVuSans-30" transform="translate(95.410156 0)"/>
       <use xlink:href="#DejaVuSans-32" transform="translate(159.033203 0)"/>
       <use xlink:href="#DejaVuSans-30" transform="translate(222.65625 0)"/>
      </g>
     </g>
    </g>
    <g id="ytick_5">
     <g id="line2d_10">
      <g>
       <use xlink:href="#m015c450746" x="61.76" y="73.262915" style="stroke: #000000; stroke-width: 0.8"/>
      </g>
     </g>
     <g id="text_11">
      <!-- 0.025 -->
      <g transform="translate(26.131875 77.062134) scale(0.1 -0.1)">
       <use xlink:href="#DejaVuSans-30"/>
       <use xlink:href="#DejaVuSans-2e" transform="translate(63.623047 0)"/>
       <use xlink:href="#DejaVuSans-30" transform="translate(95.410156 0)"/>
       <use xlink:href="#DejaVuSans-32" transform="translate(159.033203 0)"/>
       <use xlink:href="#DejaVuSans-35" transform="translate(222.65625 0)"/>
      </g>
     </g>
    </g>
    <g id="ytick_6">
     <g id="line2d_11">
      <g>
       <use xlink:href="#m015c450746" x="61.76" y="36.894643" style="stroke: #000000; stroke-width: 0.8"/>
      </g>
     </g>
     <g id="text_12">
      <!-- 0.030 -->
      <g transform="translate(26.131875 40.693862) scale(0.1 -0.1)">
       <defs>
        <path id="DejaVuSans-33" d="M 2597 2516 
Q 3050 2419 3304 2112 
Q 3559 1806 3559 1356 
Q 3559 666 3084 287 
Q 2609 -91 1734 -91 
Q 1441 -91 1130 -33 
Q 819 25 488 141 
L 488 750 
Q 750 597 1062 519 
Q 1375 441 1716 441 
Q 2309 441 2620 675 
Q 2931 909 2931 1356 
Q 2931 1769 2642 2001 
Q 2353 2234 1838 2234 
L 1294 2234 
L 1294 2753 
L 1863 2753 
Q 2328 2753 2575 2939 
Q 2822 3125 2822 3475 
Q 2822 3834 2567 4026 
Q 2313 4219 1838 4219 
Q 1578 4219 1281 4162 
Q 984 4106 628 3988 
L 628 4550 
Q 988 4650 1302 4700 
Q 1616 4750 1894 4750 
Q 2613 4750 3031 4423 
Q 3450 4097 3450 3541 
Q 3450 3153 3228 2886 
Q 3006 2619 2597 2516 
z
" transform="scale(0.015625)"/>
       </defs>
       <use xlink:href="#DejaVuSans-30"/>
       <use xlink:href="#DejaVuSans-2e" transform="translate(63.623047 0)"/>
       <use xlink:href="#DejaVuSans-30" transform="translate(95.410156 0)"/>
       <use xlink:href="#DejaVuSans-33" transform="translate(159.033203 0)"/>
       <use xlink:href="#DejaVuSans-30" transform="translate(222.65625 0)"/>
      </g>
     </g>
    </g>
    <g id="text_13">
     <!-- $h(t)$ -->
     <g transform="translate(20.052187 137.69) rotate(-90) scale(0.1 -0.1)">
      <defs>
       <path id="DejaVuSans-Oblique-68" d="M 3566 2113 
L 3156 0 
L 2578 0 
L 2988 2091 
Q 3016 2238 3031 2350 
Q 3047 2463 3047 2528 
Q 3047 2791 2881 2937 
Q 2716 3084 2419 3084 
Q 1956 3084 1617 2771 
Q 1278 2459 1178 1941 
L 800 0 
L 225 0 
L 1172 4863 
L 1747 4863 
L 1375 2950 
Q 1594 3244 1934 3414 
Q 2275 3584 2650 3584 
Q 3113 3584 3367 3334 
Q 3622 3084 3622 2631 
Q 3622 2519 3608 2391 
Q 3594 2263 3566 2113 
z
" transform="scale(0.015625)"/>
       <path id="DejaVuSans-28" d="M 1984 4856 
Q 1566 4138 1362 3434 
Q 1159 2731 1159 2009 
Q 1159 1288 1364 580 
Q 1569 -128 1984 -844 
L 1484 -844 
Q 1016 -109 783 600 
Q 550 1309 550 2009 
Q 550 2706 781 3412 
Q 1013 4119 1484 4856 
L 1984 4856 
z
" transform="scale(0.015625)"/>
       <path id="DejaVuSans-29" d="M 513 4856 
L 1013 4856 
Q 1481 4119 1714 3412 
Q 1947 2706 1947 2009 
Q 1947 1309 1714 600 
Q 1481 -109 1013 -844 
L 513 -844 
Q 928 -128 1133 580 
Q 1338 1288 1338 2009 
Q 1338 2731 1133 3434 
Q 928 4138 513 4856 
z
" transform="scale(0.015625)"/>
      </defs>
      <use xlink:href="#DejaVuSans-Oblique-68" transform="translate(0 0.015625)"/>
      <use xlink:href="#DejaVuSans-28" transform="translate(63.378906 0.015625)"/>
      <use xlink:href="#DejaVuSans-Oblique-74" transform="translate(102.392578 0.015625)"/>
      <use xlink:href="#DejaVuSans-29" transform="translate(141.601562 0.015625)"/>
     </g>
    </g>
   </g>
   <g id="line2d_12">
    <path d="M 75.429394 219.64914 
L 102.768182 219.820969 
L 130.10697 219.989438 
L 157.445758 220.150211 
L 184.784545 220.306474 
L 212.123333 220.458594 
L 239.462121 220.604077 
L 266.800909 220.747864 
L 294.139697 220.883363 
L 321.478485 221.017868 
L 348.817273 221.149091 
" clip-path="url(#p674b3d3f95)" style="fill: none; stroke: #000000; stroke-width: 3; stroke-linecap: square"/>
   </g>
   <g id="line2d_13">
    <path d="M 75.429394 201.119213 
L 102.768182 203.766823 
L 130.10697 140.085978 
L 157.445758 204.232337 
L 184.784545 200.137269 
L 212.123333 208.218299 
L 239.462121 205.177912 
L 266.800909 208.771097 
L 294.139697 209.331168 
L 321.478485 208.967486 
L 348.817273 209.629388 
" clip-path="url(#p674b3d3f95)" style="fill: none; stroke-dasharray: 11.1,4.8; stroke-dashoffset: 0; stroke: #cd5c5c; stroke-width: 3"/>
   </g>
   <g id="line2d_14">
    <path d="M 75.429394 209.091138 
L 102.768182 210.865909 
L 130.10697 212.647955 
L 157.445758 213.484425 
L 184.784545 213.564435 
L 212.123333 214.880967 
L 239.462121 214.910061 
L 266.800909 215.201007 
L 294.139697 215.615606 
L 321.478485 215.884731 
L 348.817273 215.426491 
" clip-path="url(#p674b3d3f95)" style="fill: none; stroke-dasharray: 11.1,4.8; stroke-dashoffset: 0; stroke: #daa520; stroke-width: 3"/>
   </g>
   <g id="patch_3">
    <path d="M 61.76 230.4 
L 61.76 26.88 
" style="fill: none; stroke: #000000; stroke-width: 0.8; stroke-linejoin: miter; stroke-linecap: square"/>
   </g>
   <g id="patch_4">
    <path d="M 61.76 230.4 
L 362.486667 230.4 
" style="fill: none; stroke: #000000; stroke-width: 0.8; stroke-linejoin: miter; stroke-linecap: square"/>
   </g>
   <g id="text_14">
    <!-- Human, Nanopore R10.4 -->
    <g transform="translate(138.092708 20.88) scale(0.12 -0.12)">
     <defs>
      <path id="DejaVuSans-48" d="M 628 4666 
L 1259 4666 
L 1259 2753 
L 3553 2753 
L 3553 4666 
L 4184 4666 
L 4184 0 
L 3553 0 
L 3553 2222 
L 1259 2222 
L 1259 0 
L 628 0 
L 628 4666 
z
" transform="scale(0.015625)"/>
      <path id="DejaVuSans-75" d="M 544 1381 
L 544 3500 
L 1119 3500 
L 1119 1403 
Q 1119 906 1312 657 
Q 1506 409 1894 409 
Q 2359 409 2629 706 
Q 2900 1003 2900 1516 
L 2900 3500 
L 3475 3500 
L 3475 0 
L 2900 0 
L 2900 538 
Q 2691 219 2414 64 
Q 2138 -91 1772 -91 
Q 1169 -91 856 284 
Q 544 659 544 1381 
z
M 1991 3584 
L 1991 3584 
z
" transform="scale(0.015625)"/>
      <path id="DejaVuSans-6d" d="M 3328 2828 
Q 3544 3216 3844 3400 
Q 4144 3584 4550 3584 
Q 5097 3584 5394 3201 
Q 5691 2819 5691 2113 
L 5691 0 
L 5113 0 
L 5113 2094 
Q 5113 2597 4934 2840 
Q 4756 3084 4391 3084 
Q 3944 3084 3684 2787 
Q 3425 2491 3425 1978 
L 3425 0 
L 2847 0 
L 2847 2094 
Q 2847 2600 2669 2842 
Q 2491 3084 2119 3084 
Q 1678 3084 1418 2786 
Q 1159 2488 1159 1978 
L 1159 0 
L 581 0 
L 581 3500 
L 1159 3500 
L 1159 2956 
Q 1356 3278 1631 3431 
Q 1906 3584 2284 3584 
Q 2666 3584 2933 3390 
Q 3200 3197 3328 2828 
z
" transform="scale(0.015625)"/>
      <path id="DejaVuSans-61" d="M 2194 1759 
Q 1497 1759 1228 1600 
Q 959 1441 959 1056 
Q 959 750 1161 570 
Q 1363 391 1709 391 
Q 2188 391 2477 730 
Q 2766 1069 2766 1631 
L 2766 1759 
L 2194 1759 
z
M 3341 1997 
L 3341 0 
L 2766 0 
L 2766 531 
Q 2569 213 2275 61 
Q 1981 -91 1556 -91 
Q 1019 -91 701 211 
Q 384 513 384 1019 
Q 384 1609 779 1909 
Q 1175 2209 1959 2209 
L 2766 2209 
L 2766 2266 
Q 2766 2663 2505 2880 
Q 2244 3097 1772 3097 
Q 1472 3097 1187 3025 
Q 903 2953 641 2809 
L 641 3341 
Q 956 3463 1253 3523 
Q 1550 3584 1831 3584 
Q 2591 3584 2966 3190 
Q 3341 2797 3341 1997 
z
" transform="scale(0.015625)"/>
      <path id="DejaVuSans-6e" d="M 3513 2113 
L 3513 0 
L 2938 0 
L 2938 2094 
Q 2938 2591 2744 2837 
Q 2550 3084 2163 3084 
Q 1697 3084 1428 2787 
Q 1159 2491 1159 1978 
L 1159 0 
L 581 0 
L 581 3500 
L 1159 3500 
L 1159 2956 
Q 1366 3272 1645 3428 
Q 1925 3584 2291 3584 
Q 2894 3584 3203 3211 
Q 3513 2838 3513 2113 
z
" transform="scale(0.015625)"/>
      <path id="DejaVuSans-2c" d="M 750 794 
L 1409 794 
L 1409 256 
L 897 -744 
L 494 -744 
L 750 256 
L 750 794 
z
" transform="scale(0.015625)"/>
      <path id="DejaVuSans-20" transform="scale(0.015625)"/>
      <path id="DejaVuSans-4e" d="M 628 4666 
L 1478 4666 
L 3547 763 
L 3547 4666 
L 4159 4666 
L 4159 0 
L 3309 0 
L 1241 3903 
L 1241 0 
L 628 0 
L 628 4666 
z
" transform="scale(0.015625)"/>
      <path id="DejaVuSans-6f" d="M 1959 3097 
Q 1497 3097 1228 2736 
Q 959 2375 959 1747 
Q 959 1119 1226 758 
Q 1494 397 1959 397 
Q 2419 397 2687 759 
Q 2956 1122 2956 1747 
Q 2956 2369 2687 2733 
Q 2419 3097 1959 3097 
z
M 1959 3584 
Q 2709 3584 3137 3096 
Q 3566 2609 3566 1747 
Q 3566 888 3137 398 
Q 2709 -91 1959 -91 
Q 1206 -91 779 398 
Q 353 888 353 1747 
Q 353 2609 779 3096 
Q 1206 3584 1959 3584 
z
" transform="scale(0.015625)"/>
      <path id="DejaVuSans-70" d="M 1159 525 
L 1159 -1331 
L 581 -1331 
L 581 3500 
L 1159 3500 
L 1159 2969 
Q 1341 3281 1617 3432 
Q 1894 3584 2278 3584 
Q 2916 3584 3314 3078 
Q 3713 2572 3713 1747 
Q 3713 922 3314 415 
Q 2916 -91 2278 -91 
Q 1894 -91 1617 61 
Q 1341 213 1159 525 
z
M 3116 1747 
Q 3116 2381 2855 2742 
Q 2594 3103 2138 3103 
Q 1681 3103 1420 2742 
Q 1159 2381 1159 1747 
Q 1159 1113 1420 752 
Q 1681 391 2138 391 
Q 2594 391 2855 752 
Q 3116 1113 3116 1747 
z
" transform="scale(0.015625)"/>
      <path id="DejaVuSans-72" d="M 2631 2963 
Q 2534 3019 2420 3045 
Q 2306 3072 2169 3072 
Q 1681 3072 1420 2755 
Q 1159 2438 1159 1844 
L 1159 0 
L 581 0 
L 581 3500 
L 1159 3500 
L 1159 2956 
Q 1341 3275 1631 3429 
Q 1922 3584 2338 3584 
Q 2397 3584 2469 3576 
Q 2541 3569 2628 3553 
L 2631 2963 
z
" transform="scale(0.015625)"/>
      <path id="DejaVuSans-65" d="M 3597 1894 
L 3597 1613 
L 953 1613 
Q 991 1019 1311 708 
Q 1631 397 2203 397 
Q 2534 397 2845 478 
Q 3156 559 3463 722 
L 3463 178 
Q 3153 47 2828 -22 
Q 2503 -91 2169 -91 
Q 1331 -91 842 396 
Q 353 884 353 1716 
Q 353 2575 817 3079 
Q 1281 3584 2069 3584 
Q 2775 3584 3186 3129 
Q 3597 2675 3597 1894 
z
M 3022 2063 
Q 3016 2534 2758 2815 
Q 2500 3097 2075 3097 
Q 1594 3097 1305 2825 
Q 1016 2553 972 2059 
L 3022 2063 
z
" transform="scale(0.015625)"/>
      <path id="DejaVuSans-52" d="M 2841 2188 
Q 3044 2119 3236 1894 
Q 3428 1669 3622 1275 
L 4263 0 
L 3584 0 
L 2988 1197 
Q 2756 1666 2539 1819 
Q 2322 1972 1947 1972 
L 1259 1972 
L 1259 0 
L 628 0 
L 628 4666 
L 2053 4666 
Q 2853 4666 3247 4331 
Q 3641 3997 3641 3322 
Q 3641 2881 3436 2590 
Q 3231 2300 2841 2188 
z
M 1259 4147 
L 1259 2491 
L 2053 2491 
Q 2509 2491 2742 2702 
Q 2975 2913 2975 3322 
Q 2975 3731 2742 3939 
Q 2509 4147 2053 4147 
L 1259 4147 
z
" transform="scale(0.015625)"/>
     </defs>
     <use xlink:href="#DejaVuSans-48"/>
     <use xlink:href="#DejaVuSans-75" transform="translate(75.195312 0)"/>
     <use xlink:href="#DejaVuSans-6d" transform="translate(138.574219 0)"/>
     <use xlink:href="#DejaVuSans-61" transform="translate(235.986328 0)"/>
     <use xlink:href="#DejaVuSans-6e" transform="translate(297.265625 0)"/>
     <use xlink:href="#DejaVuSans-2c" transform="translate(360.644531 0)"/>
     <use xlink:href="#DejaVuSans-20" transform="translate(392.431641 0)"/>
     <use xlink:href="#DejaVuSans-4e" transform="translate(424.21875 0)"/>
     <use xlink:href="#DejaVuSans-61" transform="translate(499.023438 0)"/>
     <use xlink:href="#DejaVuSans-6e" transform="translate(560.302734 0)"/>
     <use xlink:href="#DejaVuSans-6f" transform="translate(623.681641 0)"/>
     <use xlink:href="#DejaVuSans-70" transform="translate(684.863281 0)"/>
     <use xlink:href="#DejaVuSans-6f" transform="translate(748.339844 0)"/>
     <use xlink:href="#DejaVuSans-72" transform="translate(809.521484 0)"/>
     <use xlink:href="#DejaVuSans-65" transform="translate(848.384766 0)"/>
     <use xlink:href="#DejaVuSans-20" transform="translate(909.908203 0)"/>
     <use xlink:href="#DejaVuSans-52" transform="translate(941.695312 0)"/>
     <use xlink:href="#DejaVuSans-31" transform="translate(1011.177734 0)"/>
     <use xlink:href="#DejaVuSans-30" transform="translate(1074.800781 0)"/>
     <use xlink:href="#DejaVuSans-2e" transform="translate(1138.423828 0)"/>
     <use xlink:href="#DejaVuSans-34" transform="translate(1170.210938 0)"/>
    </g>
   </g>
  </g>
  <g id="axes_2">
   <g id="patch_5">
    <path d="M 415.116667 230.4 
L 715.843333 230.4 
L 715.843333 26.88 
L 415.116667 26.88 
z
" style="fill: #ffffff"/>
   </g>
   <g id="FillBetweenPolyCollection_3">
    <defs>
     <path id="m7766940ba4" d="M 428.786061 -120.856505 
L 428.786061 -89.812199 
L 456.124848 -80.508265 
L 483.463636 -101.852061 
L 510.802424 -83.119427 
L 538.141212 -90.186495 
L 565.48 -68.829332 
L 592.818788 -74.403672 
L 620.157576 -71.98857 
L 647.496364 -69.328394 
L 674.835152 -71.257801 
L 702.173939 -66.850909 
L 702.173939 -87.829321 
L 702.173939 -87.829321 
L 674.835152 -87.602069 
L 647.496364 -84.875054 
L 620.157576 -92.200566 
L 592.818788 -98.773029 
L 565.48 -92.828848 
L 538.141212 -106.668896 
L 510.802424 -112.122927 
L 483.463636 -251.869091 
L 456.124848 -111.111436 
L 428.786061 -120.856505 
z
"/>
    </defs>
    <g clip-path="url(#pf1e3476130)">
     <use xlink:href="#m7766940ba4" x="0" y="288" style="fill: #cd5c5c; fill-opacity: 0.3"/>
    </g>
   </g>
   <g id="FillBetweenPolyCollection_4">
    <defs>
     <path id="m5b6db5390e" d="M 428.786061 -96.906004 
L 428.786061 -92.949158 
L 456.124848 -87.989733 
L 483.463636 -86.568299 
L 510.802424 -84.179932 
L 538.141212 -82.847616 
L 565.48 -81.898508 
L 592.818788 -80.85137 
L 620.157576 -79.002168 
L 647.496364 -76.689552 
L 674.835152 -76.466757 
L 702.173939 -75.878577 
L 702.173939 -77.242085 
L 702.173939 -77.242085 
L 674.835152 -77.959486 
L 647.496364 -78.34715 
L 620.157576 -80.766708 
L 592.818788 -82.468864 
L 565.48 -84.326977 
L 538.141212 -84.433919 
L 510.802424 -85.538984 
L 483.463636 -88.31947 
L 456.124848 -89.518109 
L 428.786061 -96.906004 
z
"/>
    </defs>
    <g clip-path="url(#pf1e3476130)">
     <use xlink:href="#m5b6db5390e" x="0" y="288" style="fill: #daa520; fill-opacity: 0.3"/>
    </g>
   </g>
   <g id="matplotlib.axis_3">
    <g id="xtick_6">
     <g id="line2d_15">
      <g>
       <use xlink:href="#m4cbb6bff91" x="456.124848" y="230.4" style="stroke: #000000; stroke-width: 0.8"/>
      </g>
     </g>
     <g id="text_15">
      <!-- 42 -->
      <g transform="translate(449.762348 244.998438) scale(0.1 -0.1)">
       <use xlink:href="#DejaVuSans-34"/>
       <use xlink:href="#DejaVuSans-32" transform="translate(63.623047 0)"/>
      </g>
     </g>
    </g>
    <g id="xtick_7">
     <g id="line2d_16">
      <g>
       <use xlink:href="#m4cbb6bff91" x="510.802424" y="230.4" style="stroke: #000000; stroke-width: 0.8"/>
      </g>
     </g>
     <g id="text_16">
      <!-- 44 -->
      <g transform="translate(504.439924 244.998438) scale(0.1 -0.1)">
       <use xlink:href="#DejaVuSans-34"/>
       <use xlink:href="#DejaVuSans-34" transform="translate(63.623047 0)"/>
      </g>
     </g>
    </g>
    <g id="xtick_8">
     <g id="line2d_17">
      <g>
       <use xlink:href="#m4cbb6bff91" x="565.48" y="230.4" style="stroke: #000000; stroke-width: 0.8"/>
      </g>
     </g>
     <g id="text_17">
      <!-- 46 -->
      <g transform="translate(559.1175 244.998438) scale(0.1 -0.1)">
       <use xlink:href="#DejaVuSans-34"/>
       <use xlink:href="#DejaVuSans-36" transform="translate(63.623047 0)"/>
      </g>
     </g>
    </g>
    <g id="xtick_9">
     <g id="line2d_18">
      <g>
       <use xlink:href="#m4cbb6bff91" x="620.157576" y="230.4" style="stroke: #000000; stroke-width: 0.8"/>
      </g>
     </g>
     <g id="text_18">
      <!-- 48 -->
      <g transform="translate(613.795076 244.998438) scale(0.1 -0.1)">
       <use xlink:href="#DejaVuSans-34"/>
       <use xlink:href="#DejaVuSans-38" transform="translate(63.623047 0)"/>
      </g>
     </g>
    </g>
    <g id="xtick_10">
     <g id="line2d_19">
      <g>
       <use xlink:href="#m4cbb6bff91" x="674.835152" y="230.4" style="stroke: #000000; stroke-width: 0.8"/>
      </g>
     </g>
     <g id="text_19">
      <!-- 50 -->
      <g transform="translate(668.472652 244.998438) scale(0.1 -0.1)">
       <use xlink:href="#DejaVuSans-35"/>
       <use xlink:href="#DejaVuSans-30" transform="translate(63.623047 0)"/>
      </g>
     </g>
    </g>
    <g id="text_20">
     <!-- $t$ -->
     <g transform="translate(563.48 258.676563) scale(0.1 -0.1)">
      <use xlink:href="#DejaVuSans-Oblique-74" transform="translate(0 0.78125)"/>
     </g>
    </g>
   </g>
   <g id="matplotlib.axis_4">
    <g id="ytick_7">
     <g id="line2d_20">
      <g>
       <use xlink:href="#m015c450746" x="415.116667" y="203.401212" style="stroke: #000000; stroke-width: 0.8"/>
      </g>
     </g>
     <g id="text_21">
      <!-- 0.02 -->
      <g transform="translate(385.851042 207.200431) scale(0.1 -0.1)">
       <use xlink:href="#DejaVuSans-30"/>
       <use xlink:href="#DejaVuSans-2e" transform="translate(63.623047 0)"/>
       <use xlink:href="#DejaVuSans-30" transform="translate(95.410156 0)"/>
       <use xlink:href="#DejaVuSans-32" transform="translate(159.033203 0)"/>
      </g>
     </g>
    </g>
    <g id="ytick_8">
     <g id="line2d_21">
      <g>
       <use xlink:href="#m015c450746" x="415.116667" y="158.84214" style="stroke: #000000; stroke-width: 0.8"/>
      </g>
     </g>
     <g id="text_22">
      <!-- 0.03 -->
      <g transform="translate(385.851042 162.641358) scale(0.1 -0.1)">
       <use xlink:href="#DejaVuSans-30"/>
       <use xlink:href="#DejaVuSans-2e" transform="translate(63.623047 0)"/>
       <use xlink:href="#DejaVuSans-30" transform="translate(95.410156 0)"/>
       <use xlink:href="#DejaVuSans-33" transform="translate(159.033203 0)"/>
      </g>
     </g>
    </g>
    <g id="ytick_9">
     <g id="line2d_22">
      <g>
       <use xlink:href="#m015c450746" x="415.116667" y="114.283067" style="stroke: #000000; stroke-width: 0.8"/>
      </g>
     </g>
     <g id="text_23">
      <!-- 0.04 -->
      <g transform="translate(385.851042 118.082286) scale(0.1 -0.1)">
       <use xlink:href="#DejaVuSans-30"/>
       <use xlink:href="#DejaVuSans-2e" transform="translate(63.623047 0)"/>
       <use xlink:href="#DejaVuSans-30" transform="translate(95.410156 0)"/>
       <use xlink:href="#DejaVuSans-34" transform="translate(159.033203 0)"/>
      </g>
     </g>
    </g>
    <g id="ytick_10">
     <g id="line2d_23">
      <g>
       <use xlink:href="#m015c450746" x="415.116667" y="69.723994" style="stroke: #000000; stroke-width: 0.8"/>
      </g>
     </g>
     <g id="text_24">
      <!-- 0.05 -->
      <g transform="translate(385.851042 73.523213) scale(0.1 -0.1)">
       <use xlink:href="#DejaVuSans-30"/>
       <use xlink:href="#DejaVuSans-2e" transform="translate(63.623047 0)"/>
       <use xlink:href="#DejaVuSans-30" transform="translate(95.410156 0)"/>
       <use xlink:href="#DejaVuSans-35" transform="translate(159.033203 0)"/>
      </g>
     </g>
    </g>
   </g>
   <g id="line2d_24">
    <path d="M 428.786061 126.154984 
L 456.124848 128.171395 
L 483.463636 130.197145 
L 510.802424 132.116271 
L 538.141212 134.092993 
L 565.48 135.869335 
L 592.818788 137.65306 
L 620.157576 139.454816 
L 647.496364 141.230113 
L 674.835152 142.898756 
L 702.173939 144.495556 
" clip-path="url(#pf1e3476130)" style="fill: none; stroke: #000000; stroke-width: 3; stroke-linecap: square"/>
   </g>
   <g id="line2d_25">
    <path d="M 428.786061 182.948598 
L 456.124848 191.887148 
L 483.463636 123.778605 
L 510.802424 191.049437 
L 538.141212 190.572655 
L 565.48 206.235169 
L 592.818788 200.856889 
L 620.157576 205.018707 
L 647.496364 210.873769 
L 674.835152 208.489858 
L 702.173939 210.940607 
" clip-path="url(#pf1e3476130)" style="fill: none; stroke-dasharray: 11.1,4.8; stroke-dashoffset: 0; stroke: #cd5c5c; stroke-width: 3"/>
   </g>
   <g id="line2d_26">
    <path d="M 428.786061 193.206096 
L 456.124848 199.096806 
L 483.463636 200.567255 
L 510.802424 203.209608 
L 538.141212 204.457262 
L 565.48 204.965236 
L 592.818788 206.453509 
L 620.157576 207.941782 
L 647.496364 210.481649 
L 674.835152 210.762371 
L 702.173939 211.350551 
" clip-path="url(#pf1e3476130)" style="fill: none; stroke-dasharray: 11.1,4.8; stroke-dashoffset: 0; stroke: #daa520; stroke-width: 3"/>
   </g>
   <g id="patch_6">
    <path d="M 415.116667 230.4 
L 415.116667 26.88 
" style="fill: none; stroke: #000000; stroke-width: 0.8; stroke-linejoin: miter; stroke-linecap: square"/>
   </g>
   <g id="patch_7">
    <path d="M 415.116667 230.4 
L 715.843333 230.4 
" style="fill: none; stroke: #000000; stroke-width: 0.8; stroke-linejoin: miter; stroke-linecap: square"/>
   </g>
   <g id="text_25">
    <!-- Human, Nanopore R9.4 -->
    <g transform="translate(495.266875 20.88) scale(0.12 -0.12)">
     <defs>
      <path id="DejaVuSans-39" d="M 703 97 
L 703 672 
Q 941 559 1184 500 
Q 1428 441 1663 441 
Q 2288 441 2617 861 
Q 2947 1281 2994 2138 
Q 2813 1869 2534 1725 
Q 2256 1581 1919 1581 
Q 1219 1581 811 2004 
Q 403 2428 403 3163 
Q 403 3881 828 4315 
Q 1253 4750 1959 4750 
Q 2769 4750 3195 4129 
Q 3622 3509 3622 2328 
Q 3622 1225 3098 567 
Q 2575 -91 1691 -91 
Q 1453 -91 1209 -44 
Q 966 3 703 97 
z
M 1959 2075 
Q 2384 2075 2632 2365 
Q 2881 2656 2881 3163 
Q 2881 3666 2632 3958 
Q 2384 4250 1959 4250 
Q 1534 4250 1286 3958 
Q 1038 3666 1038 3163 
Q 1038 2656 1286 2365 
Q 1534 2075 1959 2075 
z
" transform="scale(0.015625)"/>
     </defs>
     <use xlink:href="#DejaVuSans-48"/>
     <use xlink:href="#DejaVuSans-75" transform="translate(75.195312 0)"/>
     <use xlink:href="#DejaVuSans-6d" transform="translate(138.574219 0)"/>
     <use xlink:href="#DejaVuSans-61" transform="translate(235.986328 0)"/>
     <use xlink:href="#DejaVuSans-6e" transform="translate(297.265625 0)"/>
     <use xlink:href="#DejaVuSans-2c" transform="translate(360.644531 0)"/>
     <use xlink:href="#DejaVuSans-20" transform="translate(392.431641 0)"/>
     <use xlink:href="#DejaVuSans-4e" transform="translate(424.21875 0)"/>
     <use xlink:href="#DejaVuSans-61" transform="translate(499.023438 0)"/>
     <use xlink:href="#DejaVuSans-6e" transform="translate(560.302734 0)"/>
     <use xlink:href="#DejaVuSans-6f" transform="translate(623.681641 0)"/>
     <use xlink:href="#DejaVuSans-70" transform="translate(684.863281 0)"/>
     <use xlink:href="#DejaVuSans-6f" transform="translate(748.339844 0)"/>
     <use xlink:href="#DejaVuSans-72" transform="translate(809.521484 0)"/>
     <use xlink:href="#DejaVuSans-65" transform="translate(848.384766 0)"/>
     <use xlink:href="#DejaVuSans-20" transform="translate(909.908203 0)"/>
     <use xlink:href="#DejaVuSans-52" transform="translate(941.695312 0)"/>
     <use xlink:href="#DejaVuSans-39" transform="translate(1011.177734 0)"/>
     <use xlink:href="#DejaVuSans-2e" transform="translate(1074.800781 0)"/>
     <use xlink:href="#DejaVuSans-34" transform="translate(1106.587891 0)"/>
    </g>
   </g>
  </g>
  <g id="axes_3">
   <g id="patch_8">
    <path d="M 768.473333 230.4 
L 1069.2 230.4 
L 1069.2 26.88 
L 768.473333 26.88 
z
" style="fill: #ffffff"/>
   </g>
   <g id="FillBetweenPolyCollection_5">
    <defs>
     <path id="md05f7940f6" d="M 782.142727 -181.590867 
L 782.142727 -114.977947 
L 809.481515 -107.169255 
L 836.820303 -101.432257 
L 864.159091 -106.053728 
L 891.497879 -100.476091 
L 918.836667 -89.480179 
L 946.175455 -92.6674 
L 973.514242 -78.006183 
L 1000.85303 -86.771041 
L 1028.191818 -78.802988 
L 1055.530606 -83.58382 
L 1055.530606 -154.658849 
L 1055.530606 -154.658849 
L 1028.191818 -146.053352 
L 1000.85303 -123.424083 
L 973.514242 -162.945624 
L 946.175455 -181.590867 
L 918.836667 -133.782551 
L 891.497879 -189.080836 
L 864.159091 -182.06895 
L 836.820303 -251.869091 
L 809.481515 -204.698219 
L 782.142727 -181.590867 
z
"/>
    </defs>
    <g clip-path="url(#p27fcd4f988)">
     <use xlink:href="#md05f7940f6" x="0" y="288" style="fill: #cd5c5c; fill-opacity: 0.3"/>
    </g>
   </g>
   <g id="FillBetweenPolyCollection_6">
    <defs>
     <path id="m3d44bae673" d="M 782.142727 -101.591619 
L 782.142727 -94.101649 
L 809.481515 -86.292957 
L 836.820303 -81.512126 
L 864.159091 -81.671487 
L 891.497879 -76.09385 
L 918.836667 -78.962349 
L 946.175455 -78.006183 
L 973.514242 -70.197491 
L 1000.85303 -75.137684 
L 1028.191818 -66.850909 
L 1055.530606 -75.297045 
L 1055.530606 -83.105736 
L 1055.530606 -83.105736 
L 1028.191818 -73.862795 
L 1000.85303 -91.073789 
L 973.514242 -76.09385 
L 946.175455 -87.408485 
L 918.836667 -84.539986 
L 891.497879 -81.990209 
L 864.159091 -87.567846 
L 836.820303 -88.364651 
L 809.481515 -93.145483 
L 782.142727 -101.591619 
z
"/>
    </defs>
    <g clip-path="url(#p27fcd4f988)">
     <use xlink:href="#m3d44bae673" x="0" y="288" style="fill: #daa520; fill-opacity: 0.3"/>
    </g>
   </g>
   <g id="matplotlib.axis_5">
    <g id="xtick_11">
     <g id="line2d_27">
      <g>
       <use xlink:href="#m4cbb6bff91" x="809.481515" y="230.4" style="stroke: #000000; stroke-width: 0.8"/>
      </g>
     </g>
     <g id="text_26">
      <!-- 42 -->
      <g transform="translate(803.119015 244.998438) scale(0.1 -0.1)">
       <use xlink:href="#DejaVuSans-34"/>
       <use xlink:href="#DejaVuSans-32" transform="translate(63.623047 0)"/>
      </g>
     </g>
    </g>
    <g id="xtick_12">
     <g id="line2d_28">
      <g>
       <use xlink:href="#m4cbb6bff91" x="864.159091" y="230.4" style="stroke: #000000; stroke-width: 0.8"/>
      </g>
     </g>
     <g id="text_27">
      <!-- 44 -->
      <g transform="translate(857.796591 244.998438) scale(0.1 -0.1)">
       <use xlink:href="#DejaVuSans-34"/>
       <use xlink:href="#DejaVuSans-34" transform="translate(63.623047 0)"/>
      </g>
     </g>
    </g>
    <g id="xtick_13">
     <g id="line2d_29">
      <g>
       <use xlink:href="#m4cbb6bff91" x="918.836667" y="230.4" style="stroke: #000000; stroke-width: 0.8"/>
      </g>
     </g>
     <g id="text_28">
      <!-- 46 -->
      <g transform="translate(912.474167 244.998438) scale(0.1 -0.1)">
       <use xlink:href="#DejaVuSans-34"/>
       <use xlink:href="#DejaVuSans-36" transform="translate(63.623047 0)"/>
      </g>
     </g>
    </g>
    <g id="xtick_14">
     <g id="line2d_30">
      <g>
       <use xlink:href="#m4cbb6bff91" x="973.514242" y="230.4" style="stroke: #000000; stroke-width: 0.8"/>
      </g>
     </g>
     <g id="text_29">
      <!-- 48 -->
      <g transform="translate(967.151742 244.998438) scale(0.1 -0.1)">
       <use xlink:href="#DejaVuSans-34"/>
       <use xlink:href="#DejaVuSans-38" transform="translate(63.623047 0)"/>
      </g>
     </g>
    </g>
    <g id="xtick_15">
     <g id="line2d_31">
      <g>
       <use xlink:href="#m4cbb6bff91" x="1028.191818" y="230.4" style="stroke: #000000; stroke-width: 0.8"/>
      </g>
     </g>
     <g id="text_30">
      <!-- 50 -->
      <g transform="translate(1021.829318 244.998438) scale(0.1 -0.1)">
       <use xlink:href="#DejaVuSans-35"/>
       <use xlink:href="#DejaVuSans-30" transform="translate(63.623047 0)"/>
      </g>
     </g>
    </g>
    <g id="text_31">
     <!-- $t$ -->
     <g transform="translate(916.836667 258.676563) scale(0.1 -0.1)">
      <use xlink:href="#DejaVuSans-Oblique-74" transform="translate(0 0.78125)"/>
     </g>
    </g>
   </g>
   <g id="matplotlib.axis_6">
    <g id="ytick_11">
     <g id="line2d_32">
      <g>
       <use xlink:href="#m015c450746" x="768.473333" y="216.368259" style="stroke: #000000; stroke-width: 0.8"/>
      </g>
     </g>
     <g id="text_32">
      <!-- 0.0010 -->
      <g transform="translate(726.482708 220.167478) scale(0.1 -0.1)">
       <use xlink:href="#DejaVuSans-30"/>
       <use xlink:href="#DejaVuSans-2e" transform="translate(63.623047 0)"/>
       <use xlink:href="#DejaVuSans-30" transform="translate(95.410156 0)"/>
       <use xlink:href="#DejaVuSans-30" transform="translate(159.033203 0)"/>
       <use xlink:href="#DejaVuSans-31" transform="translate(222.65625 0)"/>
       <use xlink:href="#DejaVuSans-30" transform="translate(286.279297 0)"/>
      </g>
     </g>
    </g>
    <g id="ytick_12">
     <g id="line2d_33">
      <g>
       <use xlink:href="#m015c450746" x="768.473333" y="184.496049" style="stroke: #000000; stroke-width: 0.8"/>
      </g>
     </g>
     <g id="text_33">
      <!-- 0.0012 -->
      <g transform="translate(726.482708 188.295268) scale(0.1 -0.1)">
       <use xlink:href="#DejaVuSans-30"/>
       <use xlink:href="#DejaVuSans-2e" transform="translate(63.623047 0)"/>
       <use xlink:href="#DejaVuSans-30" transform="translate(95.410156 0)"/>
       <use xlink:href="#DejaVuSans-30" transform="translate(159.033203 0)"/>
       <use xlink:href="#DejaVuSans-31" transform="translate(222.65625 0)"/>
       <use xlink:href="#DejaVuSans-32" transform="translate(286.279297 0)"/>
      </g>
     </g>
    </g>
    <g id="ytick_13">
     <g id="line2d_34">
      <g>
       <use xlink:href="#m015c450746" x="768.473333" y="152.623838" style="stroke: #000000; stroke-width: 0.8"/>
      </g>
     </g>
     <g id="text_34">
      <!-- 0.0014 -->
      <g transform="translate(726.482708 156.423057) scale(0.1 -0.1)">
       <use xlink:href="#DejaVuSans-30"/>
       <use xlink:href="#DejaVuSans-2e" transform="translate(63.623047 0)"/>
       <use xlink:href="#DejaVuSans-30" transform="translate(95.410156 0)"/>
       <use xlink:href="#DejaVuSans-30" transform="translate(159.033203 0)"/>
       <use xlink:href="#DejaVuSans-31" transform="translate(222.65625 0)"/>
       <use xlink:href="#DejaVuSans-34" transform="translate(286.279297 0)"/>
      </g>
     </g>
    </g>
    <g id="ytick_14">
     <g id="line2d_35">
      <g>
       <use xlink:href="#m015c450746" x="768.473333" y="120.751628" style="stroke: #000000; stroke-width: 0.8"/>
      </g>
     </g>
     <g id="text_35">
      <!-- 0.0016 -->
      <g transform="translate(726.482708 124.550847) scale(0.1 -0.1)">
       <use xlink:href="#DejaVuSans-30"/>
       <use xlink:href="#DejaVuSans-2e" transform="translate(63.623047 0)"/>
       <use xlink:href="#DejaVuSans-30" transform="translate(95.410156 0)"/>
       <use xlink:href="#DejaVuSans-30" transform="translate(159.033203 0)"/>
       <use xlink:href="#DejaVuSans-31" transform="translate(222.65625 0)"/>
       <use xlink:href="#DejaVuSans-36" transform="translate(286.279297 0)"/>
      </g>
     </g>
    </g>
    <g id="ytick_15">
     <g id="line2d_36">
      <g>
       <use xlink:href="#m015c450746" x="768.473333" y="88.879417" style="stroke: #000000; stroke-width: 0.8"/>
      </g>
     </g>
     <g id="text_36">
      <!-- 0.0018 -->
      <g transform="translate(726.482708 92.678636) scale(0.1 -0.1)">
       <use xlink:href="#DejaVuSans-30"/>
       <use xlink:href="#DejaVuSans-2e" transform="translate(63.623047 0)"/>
       <use xlink:href="#DejaVuSans-30" transform="translate(95.410156 0)"/>
       <use xlink:href="#DejaVuSans-30" transform="translate(159.033203 0)"/>
       <use xlink:href="#DejaVuSans-31" transform="translate(222.65625 0)"/>
       <use xlink:href="#DejaVuSans-38" transform="translate(286.279297 0)"/>
      </g>
     </g>
    </g>
    <g id="ytick_16">
     <g id="line2d_37">
      <g>
       <use xlink:href="#m015c450746" x="768.473333" y="57.007207" style="stroke: #000000; stroke-width: 0.8"/>
      </g>
     </g>
     <g id="text_37">
      <!-- 0.0020 -->
      <g transform="translate(726.482708 60.806426) scale(0.1 -0.1)">
       <use xlink:href="#DejaVuSans-30"/>
       <use xlink:href="#DejaVuSans-2e" transform="translate(63.623047 0)"/>
       <use xlink:href="#DejaVuSans-30" transform="translate(95.410156 0)"/>
       <use xlink:href="#DejaVuSans-30" transform="translate(159.033203 0)"/>
       <use xlink:href="#DejaVuSans-32" transform="translate(222.65625 0)"/>
       <use xlink:href="#DejaVuSans-30" transform="translate(286.279297 0)"/>
      </g>
     </g>
    </g>
   </g>
   <g id="line2d_38">
    <path d="M 782.142727 199.667737 
L 809.481515 200.017884 
L 836.820303 200.393041 
L 864.159091 200.733595 
L 891.497879 201.119531 
L 918.836667 201.459164 
L 946.175455 201.819975 
L 973.514242 202.198165 
L 1000.85303 202.538287 
L 1028.191818 202.881444 
L 1055.530606 203.249122 
" clip-path="url(#p27fcd4f988)" style="fill: none; stroke: #000000; stroke-width: 3; stroke-linecap: square"/>
   </g>
   <g id="line2d_39">
    <path d="M 782.142727 143.221536 
L 809.481515 145.29323 
L 836.820303 131.906902 
L 864.159091 152.464477 
L 891.497879 153.420644 
L 918.836667 177.802885 
L 946.175455 159.954447 
L 973.514242 177.802885 
L 1000.85303 184.974132 
L 1028.191818 177.324802 
L 1055.530606 180.352661 
" clip-path="url(#p27fcd4f988)" style="fill: none; stroke-dasharray: 11.1,4.8; stroke-dashoffset: 0; stroke: #cd5c5c; stroke-width: 3"/>
   </g>
   <g id="line2d_40">
    <path d="M 782.142727 189.914325 
L 809.481515 198.519821 
L 836.820303 202.981931 
L 864.159091 204.097458 
L 891.497879 209.037651 
L 918.836667 206.487874 
L 946.175455 205.691069 
L 973.514242 215.412093 
L 1000.85303 206.328513 
L 1028.191818 217.643148 
L 1055.530606 208.718929 
" clip-path="url(#p27fcd4f988)" style="fill: none; stroke-dasharray: 11.1,4.8; stroke-dashoffset: 0; stroke: #daa520; stroke-width: 3"/>
   </g>
   <g id="patch_9">
    <path d="M 768.473333 230.4 
L 768.473333 26.88 
" style="fill: none; stroke: #000000; stroke-width: 0.8; stroke-linejoin: miter; stroke-linecap: square"/>
   </g>
   <g id="patch_10">
    <path d="M 768.473333 230.4 
L 1069.2 230.4 
" style="fill: none; stroke: #000000; stroke-width: 0.8; stroke-linejoin: miter; stroke-linecap: square"/>
   </g>
   <g id="text_38">
    <!-- Human, PacBio Hifi -->
    <g transform="translate(861.741042 20.88) scale(0.12 -0.12)">
     <defs>
      <path id="DejaVuSans-50" d="M 1259 4147 
L 1259 2394 
L 2053 2394 
Q 2494 2394 2734 2622 
Q 2975 2850 2975 3272 
Q 2975 3691 2734 3919 
Q 2494 4147 2053 4147 
L 1259 4147 
z
M 628 4666 
L 2053 4666 
Q 2838 4666 3239 4311 
Q 3641 3956 3641 3272 
Q 3641 2581 3239 2228 
Q 2838 1875 2053 1875 
L 1259 1875 
L 1259 0 
L 628 0 
L 628 4666 
z
" transform="scale(0.015625)"/>
      <path id="DejaVuSans-63" d="M 3122 3366 
L 3122 2828 
Q 2878 2963 2633 3030 
Q 2388 3097 2138 3097 
Q 1578 3097 1268 2742 
Q 959 2388 959 1747 
Q 959 1106 1268 751 
Q 1578 397 2138 397 
Q 2388 397 2633 464 
Q 2878 531 3122 666 
L 3122 134 
Q 2881 22 2623 -34 
Q 2366 -91 2075 -91 
Q 1284 -91 818 406 
Q 353 903 353 1747 
Q 353 2603 823 3093 
Q 1294 3584 2113 3584 
Q 2378 3584 2631 3529 
Q 2884 3475 3122 3366 
z
" transform="scale(0.015625)"/>
      <path id="DejaVuSans-42" d="M 1259 2228 
L 1259 519 
L 2272 519 
Q 2781 519 3026 730 
Q 3272 941 3272 1375 
Q 3272 1813 3026 2020 
Q 2781 2228 2272 2228 
L 1259 2228 
z
M 1259 4147 
L 1259 2741 
L 2194 2741 
Q 2656 2741 2882 2914 
Q 3109 3088 3109 3444 
Q 3109 3797 2882 3972 
Q 2656 4147 2194 4147 
L 1259 4147 
z
M 628 4666 
L 2241 4666 
Q 2963 4666 3353 4366 
Q 3744 4066 3744 3513 
Q 3744 3084 3544 2831 
Q 3344 2578 2956 2516 
Q 3422 2416 3680 2098 
Q 3938 1781 3938 1306 
Q 3938 681 3513 340 
Q 3088 0 2303 0 
L 628 0 
L 628 4666 
z
" transform="scale(0.015625)"/>
      <path id="DejaVuSans-69" d="M 603 3500 
L 1178 3500 
L 1178 0 
L 603 0 
L 603 3500 
z
M 603 4863 
L 1178 4863 
L 1178 4134 
L 603 4134 
L 603 4863 
z
" transform="scale(0.015625)"/>
      <path id="DejaVuSans-66" d="M 2375 4863 
L 2375 4384 
L 1825 4384 
Q 1516 4384 1395 4259 
Q 1275 4134 1275 3809 
L 1275 3500 
L 2222 3500 
L 2222 3053 
L 1275 3053 
L 1275 0 
L 697 0 
L 697 3053 
L 147 3053 
L 147 3500 
L 697 3500 
L 697 3744 
Q 697 4328 969 4595 
Q 1241 4863 1831 4863 
L 2375 4863 
z
" transform="scale(0.015625)"/>
     </defs>
     <use xlink:href="#DejaVuSans-48"/>
     <use xlink:href="#DejaVuSans-75" transform="translate(75.195312 0)"/>
     <use xlink:href="#DejaVuSans-6d" transform="translate(138.574219 0)"/>
     <use xlink:href="#DejaVuSans-61" transform="translate(235.986328 0)"/>
     <use xlink:href="#DejaVuSans-6e" transform="translate(297.265625 0)"/>
     <use xlink:href="#DejaVuSans-2c" transform="translate(360.644531 0)"/>
     <use xlink:href="#DejaVuSans-20" transform="translate(392.431641 0)"/>
     <use xlink:href="#DejaVuSans-50" transform="translate(424.21875 0)"/>
     <use xlink:href="#DejaVuSans-61" transform="translate(480.021484 0)"/>
     <use xlink:href="#DejaVuSans-63" transform="translate(541.300781 0)"/>
     <use xlink:href="#DejaVuSans-42" transform="translate(596.28125 0)"/>
     <use xlink:href="#DejaVuSans-69" transform="translate(664.884766 0)"/>
     <use xlink:href="#DejaVuSans-6f" transform="translate(692.667969 0)"/>
     <use xlink:href="#DejaVuSans-20" transform="translate(753.849609 0)"/>
     <use xlink:href="#DejaVuSans-48" transform="translate(785.636719 0)"/>
     <use xlink:href="#DejaVuSans-69" transform="translate(860.832031 0)"/>
     <use xlink:href="#DejaVuSans-66" transform="translate(888.615234 0)"/>
     <use xlink:href="#DejaVuSans-69" transform="translate(923.820312 0)"/>
    </g>
   </g>
  </g>
  <g id="legend_1">
   <g id="patch_11">
    <path d="M 167.145312 283 
L 912.854688 283 
Q 914.854688 283 914.854688 281 
L 914.854688 267.321875 
Q 914.854688 265.321875 912.854688 265.321875 
L 167.145312 265.321875 
Q 165.145312 265.321875 165.145312 267.321875 
L 165.145312 281 
Q 165.145312 283 167.145312 283 
z
" style="fill: #ffffff; opacity: 0.8; stroke: #cccccc; stroke-linejoin: miter"/>
   </g>
   <g id="line2d_41">
    <path d="M 169.145312 273.420313 
L 179.145312 273.420313 
L 189.145312 273.420313 
" style="fill: none; stroke: #000000; stroke-width: 3; stroke-linecap: square"/>
   </g>
   <g id="text_39">
    <!-- Observed hazard rate -->
    <g transform="translate(197.145312 276.920313) scale(0.1 -0.1)">
     <defs>
      <path id="DejaVuSans-4f" d="M 2522 4238 
Q 1834 4238 1429 3725 
Q 1025 3213 1025 2328 
Q 1025 1447 1429 934 
Q 1834 422 2522 422 
Q 3209 422 3611 934 
Q 4013 1447 4013 2328 
Q 4013 3213 3611 3725 
Q 3209 4238 2522 4238 
z
M 2522 4750 
Q 3503 4750 4090 4092 
Q 4678 3434 4678 2328 
Q 4678 1225 4090 567 
Q 3503 -91 2522 -91 
Q 1538 -91 948 565 
Q 359 1222 359 2328 
Q 359 3434 948 4092 
Q 1538 4750 2522 4750 
z
" transform="scale(0.015625)"/>
      <path id="DejaVuSans-62" d="M 3116 1747 
Q 3116 2381 2855 2742 
Q 2594 3103 2138 3103 
Q 1681 3103 1420 2742 
Q 1159 2381 1159 1747 
Q 1159 1113 1420 752 
Q 1681 391 2138 391 
Q 2594 391 2855 752 
Q 3116 1113 3116 1747 
z
M 1159 2969 
Q 1341 3281 1617 3432 
Q 1894 3584 2278 3584 
Q 2916 3584 3314 3078 
Q 3713 2572 3713 1747 
Q 3713 922 3314 415 
Q 2916 -91 2278 -91 
Q 1894 -91 1617 61 
Q 1341 213 1159 525 
L 1159 0 
L 581 0 
L 581 4863 
L 1159 4863 
L 1159 2969 
z
" transform="scale(0.015625)"/>
      <path id="DejaVuSans-73" d="M 2834 3397 
L 2834 2853 
Q 2591 2978 2328 3040 
Q 2066 3103 1784 3103 
Q 1356 3103 1142 2972 
Q 928 2841 928 2578 
Q 928 2378 1081 2264 
Q 1234 2150 1697 2047 
L 1894 2003 
Q 2506 1872 2764 1633 
Q 3022 1394 3022 966 
Q 3022 478 2636 193 
Q 2250 -91 1575 -91 
Q 1294 -91 989 -36 
Q 684 19 347 128 
L 347 722 
Q 666 556 975 473 
Q 1284 391 1588 391 
Q 1994 391 2212 530 
Q 2431 669 2431 922 
Q 2431 1156 2273 1281 
Q 2116 1406 1581 1522 
L 1381 1569 
Q 847 1681 609 1914 
Q 372 2147 372 2553 
Q 372 3047 722 3315 
Q 1072 3584 1716 3584 
Q 2034 3584 2315 3537 
Q 2597 3491 2834 3397 
z
" transform="scale(0.015625)"/>
      <path id="DejaVuSans-76" d="M 191 3500 
L 800 3500 
L 1894 563 
L 2988 3500 
L 3597 3500 
L 2284 0 
L 1503 0 
L 191 3500 
z
" transform="scale(0.015625)"/>
      <path id="DejaVuSans-64" d="M 2906 2969 
L 2906 4863 
L 3481 4863 
L 3481 0 
L 2906 0 
L 2906 525 
Q 2725 213 2448 61 
Q 2172 -91 1784 -91 
Q 1150 -91 751 415 
Q 353 922 353 1747 
Q 353 2572 751 3078 
Q 1150 3584 1784 3584 
Q 2172 3584 2448 3432 
Q 2725 3281 2906 2969 
z
M 947 1747 
Q 947 1113 1208 752 
Q 1469 391 1925 391 
Q 2381 391 2643 752 
Q 2906 1113 2906 1747 
Q 2906 2381 2643 2742 
Q 2381 3103 1925 3103 
Q 1469 3103 1208 2742 
Q 947 2381 947 1747 
z
" transform="scale(0.015625)"/>
      <path id="DejaVuSans-68" d="M 3513 2113 
L 3513 0 
L 2938 0 
L 2938 2094 
Q 2938 2591 2744 2837 
Q 2550 3084 2163 3084 
Q 1697 3084 1428 2787 
Q 1159 2491 1159 1978 
L 1159 0 
L 581 0 
L 581 4863 
L 1159 4863 
L 1159 2956 
Q 1366 3272 1645 3428 
Q 1925 3584 2291 3584 
Q 2894 3584 3203 3211 
Q 3513 2838 3513 2113 
z
" transform="scale(0.015625)"/>
      <path id="DejaVuSans-7a" d="M 353 3500 
L 3084 3500 
L 3084 2975 
L 922 459 
L 3084 459 
L 3084 0 
L 275 0 
L 275 525 
L 2438 3041 
L 353 3041 
L 353 3500 
z
" transform="scale(0.015625)"/>
      <path id="DejaVuSans-74" d="M 1172 4494 
L 1172 3500 
L 2356 3500 
L 2356 3053 
L 1172 3053 
L 1172 1153 
Q 1172 725 1289 603 
Q 1406 481 1766 481 
L 2356 481 
L 2356 0 
L 1766 0 
Q 1100 0 847 248 
Q 594 497 594 1153 
L 594 3053 
L 172 3053 
L 172 3500 
L 594 3500 
L 594 4494 
L 1172 4494 
z
" transform="scale(0.015625)"/>
     </defs>
     <use xlink:href="#DejaVuSans-4f"/>
     <use xlink:href="#DejaVuSans-62" transform="translate(78.710938 0)"/>
     <use xlink:href="#DejaVuSans-73" transform="translate(142.1875 0)"/>
     <use xlink:href="#DejaVuSans-65" transform="translate(194.287109 0)"/>
     <use xlink:href="#DejaVuSans-72" transform="translate(255.810547 0)"/>
     <use xlink:href="#DejaVuSans-76" transform="translate(296.923828 0)"/>
     <use xlink:href="#DejaVuSans-65" transform="translate(356.103516 0)"/>
     <use xlink:href="#DejaVuSans-64" transform="translate(417.626953 0)"/>
     <use xlink:href="#DejaVuSans-20" transform="translate(481.103516 0)"/>
     <use xlink:href="#DejaVuSans-68" transform="translate(512.890625 0)"/>
     <use xlink:href="#DejaVuSans-61" transform="translate(576.269531 0)"/>
     <use xlink:href="#DejaVuSans-7a" transform="translate(637.548828 0)"/>
     <use xlink:href="#DejaVuSans-61" transform="translate(690.039062 0)"/>
     <use xlink:href="#DejaVuSans-72" transform="translate(751.318359 0)"/>
     <use xlink:href="#DejaVuSans-64" transform="translate(790.681641 0)"/>
     <use xlink:href="#DejaVuSans-20" transform="translate(854.158203 0)"/>
     <use xlink:href="#DejaVuSans-72" transform="translate(885.945312 0)"/>
     <use xlink:href="#DejaVuSans-61" transform="translate(927.058594 0)"/>
     <use xlink:href="#DejaVuSans-74" transform="translate(988.337891 0)"/>
     <use xlink:href="#DejaVuSans-65" transform="translate(1027.546875 0)"/>
    </g>
   </g>
   <g id="line2d_42">
    <path d="M 326.054687 273.420313 
L 336.054687 273.420313 
L 346.054687 273.420313 
" style="fill: none; stroke-dasharray: 11.1,4.8; stroke-dashoffset: 0; stroke: #cd5c5c; stroke-width: 3"/>
   </g>
   <g id="text_40">
    <!-- $(k,v)$-mer estimated hazard rate (without reference) -->
    <g transform="translate(354.054687 276.920313) scale(0.1 -0.1)">
     <defs>
      <path id="DejaVuSans-Oblique-6b" d="M 1172 4863 
L 1747 4863 
L 1197 2028 
L 3169 3500 
L 3916 3500 
L 1716 1825 
L 3322 0 
L 2625 0 
L 1131 1709 
L 800 0 
L 225 0 
L 1172 4863 
z
" transform="scale(0.015625)"/>
      <path id="DejaVuSans-Oblique-76" d="M 459 3500 
L 1069 3500 
L 1581 525 
L 3256 3500 
L 3866 3500 
L 1875 0 
L 1100 0 
L 459 3500 
z
" transform="scale(0.015625)"/>
      <path id="DejaVuSans-2d" d="M 313 2009 
L 1997 2009 
L 1997 1497 
L 313 1497 
L 313 2009 
z
" transform="scale(0.015625)"/>
      <path id="DejaVuSans-77" d="M 269 3500 
L 844 3500 
L 1563 769 
L 2278 3500 
L 2956 3500 
L 3675 769 
L 4391 3500 
L 4966 3500 
L 4050 0 
L 3372 0 
L 2619 2869 
L 1863 0 
L 1184 0 
L 269 3500 
z
" transform="scale(0.015625)"/>
     </defs>
     <use xlink:href="#DejaVuSans-28" transform="translate(0 0.015625)"/>
     <use xlink:href="#DejaVuSans-Oblique-6b" transform="translate(39.013672 0.015625)"/>
     <use xlink:href="#DejaVuSans-2c" transform="translate(96.923828 0.015625)"/>
     <use xlink:href="#DejaVuSans-Oblique-76" transform="translate(148.193359 0.015625)"/>
     <use xlink:href="#DejaVuSans-29" transform="translate(207.373047 0.015625)"/>
     <use xlink:href="#DejaVuSans-2d" transform="translate(246.386719 0.015625)"/>
     <use xlink:href="#DejaVuSans-6d" transform="translate(280.720703 0.015625)"/>
     <use xlink:href="#DejaVuSans-65" transform="translate(378.132812 0.015625)"/>
     <use xlink:href="#DejaVuSans-72" transform="translate(439.65625 0.015625)"/>
     <use xlink:href="#DejaVuSans-20" transform="translate(480.769531 0.015625)"/>
     <use xlink:href="#DejaVuSans-65" transform="translate(512.556641 0.015625)"/>
     <use xlink:href="#DejaVuSans-73" transform="translate(574.080078 0.015625)"/>
     <use xlink:href="#DejaVuSans-74" transform="translate(626.179688 0.015625)"/>
     <use xlink:href="#DejaVuSans-69" transform="translate(665.388672 0.015625)"/>
     <use xlink:href="#DejaVuSans-6d" transform="translate(693.171875 0.015625)"/>
     <use xlink:href="#DejaVuSans-61" transform="translate(790.583984 0.015625)"/>
     <use xlink:href="#DejaVuSans-74" transform="translate(851.863281 0.015625)"/>
     <use xlink:href="#DejaVuSans-65" transform="translate(891.072266 0.015625)"/>
     <use xlink:href="#DejaVuSans-64" transform="translate(952.595703 0.015625)"/>
     <use xlink:href="#DejaVuSans-20" transform="translate(1016.072266 0.015625)"/>
     <use xlink:href="#DejaVuSans-68" transform="translate(1047.859375 0.015625)"/>
     <use xlink:href="#DejaVuSans-61" transform="translate(1111.238281 0.015625)"/>
     <use xlink:href="#DejaVuSans-7a" transform="translate(1172.517578 0.015625)"/>
     <use xlink:href="#DejaVuSans-61" transform="translate(1225.007812 0.015625)"/>
     <use xlink:href="#DejaVuSans-72" transform="translate(1286.287109 0.015625)"/>
     <use xlink:href="#DejaVuSans-64" transform="translate(1327.400391 0.015625)"/>
     <use xlink:href="#DejaVuSans-20" transform="translate(1390.876953 0.015625)"/>
     <use xlink:href="#DejaVuSans-72" transform="translate(1422.664062 0.015625)"/>
     <use xlink:href="#DejaVuSans-61" transform="translate(1463.777344 0.015625)"/>
     <use xlink:href="#DejaVuSans-74" transform="translate(1525.056641 0.015625)"/>
     <use xlink:href="#DejaVuSans-65" transform="translate(1564.265625 0.015625)"/>
     <use xlink:href="#DejaVuSans-20" transform="translate(1625.789062 0.015625)"/>
     <use xlink:href="#DejaVuSans-28" transform="translate(1657.576172 0.015625)"/>
     <use xlink:href="#DejaVuSans-77" transform="translate(1696.589844 0.015625)"/>
     <use xlink:href="#DejaVuSans-69" transform="translate(1778.376953 0.015625)"/>
     <use xlink:href="#DejaVuSans-74" transform="translate(1806.160156 0.015625)"/>
     <use xlink:href="#DejaVuSans-68" transform="translate(1845.369141 0.015625)"/>
     <use xlink:href="#DejaVuSans-6f" transform="translate(1908.748047 0.015625)"/>
     <use xlink:href="#DejaVuSans-75" transform="translate(1969.929688 0.015625)"/>
     <use xlink:href="#DejaVuSans-74" transform="translate(2033.308594 0.015625)"/>
     <use xlink:href="#DejaVuSans-20" transform="translate(2072.517578 0.015625)"/>
     <use xlink:href="#DejaVuSans-72" transform="translate(2104.304688 0.015625)"/>
     <use xlink:href="#DejaVuSans-65" transform="translate(2145.417969 0.015625)"/>
     <use xlink:href="#DejaVuSans-66" transform="translate(2206.941406 0.015625)"/>
     <use xlink:href="#DejaVuSans-65" transform="translate(2242.146484 0.015625)"/>
     <use xlink:href="#DejaVuSans-72" transform="translate(2303.669922 0.015625)"/>
     <use xlink:href="#DejaVuSans-65" transform="translate(2344.783203 0.015625)"/>
     <use xlink:href="#DejaVuSans-6e" transform="translate(2406.306641 0.015625)"/>
     <use xlink:href="#DejaVuSans-63" transform="translate(2469.685547 0.015625)"/>
     <use xlink:href="#DejaVuSans-65" transform="translate(2524.666016 0.015625)"/>
     <use xlink:href="#DejaVuSans-29" transform="translate(2586.189453 0.015625)"/>
    </g>
   </g>
   <g id="line2d_43">
    <path d="M 636.654687 273.420313 
L 646.654687 273.420313 
L 656.654687 273.420313 
" style="fill: none; stroke-dasharray: 11.1,4.8; stroke-dashoffset: 0; stroke: #daa520; stroke-width: 3"/>
   </g>
   <g id="text_41">
    <!-- $(k,v)$-mer estimated hazard rate (with reference) -->
    <g transform="translate(664.654687 276.920313) scale(0.1 -0.1)">
     <use xlink:href="#DejaVuSans-28" transform="translate(0 0.015625)"/>
     <use xlink:href="#DejaVuSans-Oblique-6b" transform="translate(39.013672 0.015625)"/>
     <use xlink:href="#DejaVuSans-2c" transform="translate(96.923828 0.015625)"/>
     <use xlink:href="#DejaVuSans-Oblique-76" transform="translate(148.193359 0.015625)"/>
     <use xlink:href="#DejaVuSans-29" transform="translate(207.373047 0.015625)"/>
     <use xlink:href="#DejaVuSans-2d" transform="translate(246.386719 0.015625)"/>
     <use xlink:href="#DejaVuSans-6d" transform="translate(280.720703 0.015625)"/>
     <use xlink:href="#DejaVuSans-65" transform="translate(378.132812 0.015625)"/>
     <use xlink:href="#DejaVuSans-72" transform="translate(439.65625 0.015625)"/>
     <use xlink:href="#DejaVuSans-20" transform="translate(480.769531 0.015625)"/>
     <use xlink:href="#DejaVuSans-65" transform="translate(512.556641 0.015625)"/>
     <use xlink:href="#DejaVuSans-73" transform="translate(574.080078 0.015625)"/>
     <use xlink:href="#DejaVuSans-74" transform="translate(626.179688 0.015625)"/>
     <use xlink:href="#DejaVuSans-69" transform="translate(665.388672 0.015625)"/>
     <use xlink:href="#DejaVuSans-6d" transform="translate(693.171875 0.015625)"/>
     <use xlink:href="#DejaVuSans-61" transform="translate(790.583984 0.015625)"/>
     <use xlink:href="#DejaVuSans-74" transform="translate(851.863281 0.015625)"/>
     <use xlink:href="#DejaVuSans-65" transform="translate(891.072266 0.015625)"/>
     <use xlink:href="#DejaVuSans-64" transform="translate(952.595703 0.015625)"/>
     <use xlink:href="#DejaVuSans-20" transform="translate(1016.072266 0.015625)"/>
     <use xlink:href="#DejaVuSans-68" transform="translate(1047.859375 0.015625)"/>
     <use xlink:href="#DejaVuSans-61" transform="translate(1111.238281 0.015625)"/>
     <use xlink:href="#DejaVuSans-7a" transform="translate(1172.517578 0.015625)"/>
     <use xlink:href="#DejaVuSans-61" transform="translate(1225.007812 0.015625)"/>
     <use xlink:href="#DejaVuSans-72" transform="translate(1286.287109 0.015625)"/>
     <use xlink:href="#DejaVuSans-64" transform="translate(1327.400391 0.015625)"/>
     <use xlink:href="#DejaVuSans-20" transform="translate(1390.876953 0.015625)"/>
     <use xlink:href="#DejaVuSans-72" transform="translate(1422.664062 0.015625)"/>
     <use xlink:href="#DejaVuSans-61" transform="translate(1463.777344 0.015625)"/>
     <use xlink:href="#DejaVuSans-74" transform="translate(1525.056641 0.015625)"/>
     <use xlink:href="#DejaVuSans-65" transform="translate(1564.265625 0.015625)"/>
     <use xlink:href="#DejaVuSans-20" transform="translate(1625.789062 0.015625)"/>
     <use xlink:href="#DejaVuSans-28" transform="translate(1657.576172 0.015625)"/>
     <use xlink:href="#DejaVuSans-77" transform="translate(1696.589844 0.015625)"/>
     <use xlink:href="#DejaVuSans-69" transform="translate(1778.376953 0.015625)"/>
     <use xlink:href="#DejaVuSans-74" transform="translate(1806.160156 0.015625)"/>
     <use xlink:href="#DejaVuSans-68" transform="translate(1845.369141 0.015625)"/>
     <use xlink:href="#DejaVuSans-20" transform="translate(1908.748047 0.015625)"/>
     <use xlink:href="#DejaVuSans-72" transform="translate(1940.535156 0.015625)"/>
     <use xlink:href="#DejaVuSans-65" transform="translate(1981.648438 0.015625)"/>
     <use xlink:href="#DejaVuSans-66" transform="translate(2043.171875 0.015625)"/>
     <use xlink:href="#DejaVuSans-65" transform="translate(2078.376953 0.015625)"/>
     <use xlink:href="#DejaVuSans-72" transform="translate(2139.900391 0.015625)"/>
     <use xlink:href="#DejaVuSans-65" transform="translate(2181.013672 0.015625)"/>
     <use xlink:href="#DejaVuSans-6e" transform="translate(2242.537109 0.015625)"/>
     <use xlink:href="#DejaVuSans-63" transform="translate(2305.916016 0.015625)"/>
     <use xlink:href="#DejaVuSans-65" transform="translate(2360.896484 0.015625)"/>
     <use xlink:href="#DejaVuSans-29" transform="translate(2422.419922 0.015625)"/>
    </g>
   </g>
  </g>
 </g>
 <defs>
  <clipPath id="p674b3d3f95">
   <rect x="61.76" y="26.88" width="300.726667" height="203.52"/>
  </clipPath>
  <clipPath id="pf1e3476130">
   <rect x="415.116667" y="26.88" width="300.726667" height="203.52"/>
  </clipPath>
  <clipPath id="p27fcd4f988">
   <rect x="768.473333" y="26.88" width="300.726667" height="203.52"/>
  </clipPath>
 </defs>
</svg>
