<?xml version="1.0" encoding="utf-8" standalone="no"?>
<!DOCTYPE svg PUBLIC "-//W3C//DTD SVG 1.1//EN"
  "http://www.w3.org/Graphics/SVG/1.1/DTD/svg11.dtd">
<svg xmlns:xlink="http://www.w3.org/1999/xlink" width="1080pt" height="216pt" viewBox="0 0 1080 216" xmlns="http://www.w3.org/2000/svg" version="1.1">
 <metadata>
  <rdf:RDF xmlns:dc="http://purl.org/dc/elements/1.1/" xmlns:cc="http://creativecommons.org/ns#" xmlns:rdf="http://www.w3.org/1999/02/22-rdf-syntax-ns#">
   <cc:Work>
    <dc:type rdf:resource="http://purl.org/dc/dcmitype/StillImage"/>
    <dc:date>2026-01-14T17:30:07.375043</dc:date>
    <dc:format>image/svg+xml</dc:format>
    <dc:creator>
     <cc:Agent>
      <dc:title>Matplotlib v3.10.7, https://matplotlib.org/</dc:title>
     </cc:Agent>
    </dc:creator>
   </cc:Work>
  </rdf:RDF>
 </metadata>
 <defs>
  <style type="text/css">*{stroke-linejoin: round; stroke-linecap: butt}</style>
 </defs>
 <g id="figure_1">
  <g id="patch_1">
   <path d="M 0 216 
L 1080 216 
L 1080 0 
L 0 0 
z
" style="fill: #ffffff"/>
  </g>
  <g id="axes_1">
   <g id="patch_2">
    <path d="M 74.208612 151.2 
L 271.236609 151.2 
L 271.236609 26.88 
L 74.208612 26.88 
z
" style="fill: #ffffff"/>
   </g>
   <g id="FillBetweenPolyCollection_1">
    <defs>
     <path id="m64d8d256c6" d="M 83.16443 -183.469091 
L 83.16443 -175.49219 
L 101.076066 -131.450542 
L 118.987702 -111.20705 
L 136.899338 -96.871703 
L 154.810974 -96.455623 
L 172.72261 -91.69361 
L 190.634247 -92.085659 
L 208.545883 -88.81744 
L 226.457519 -83.398059 
L 244.369155 -85.401011 
L 262.280791 -79.013501 
L 262.280791 -90.612856 
L 262.280791 -90.612856 
L 244.369155 -96.274541 
L 226.457519 -94.038342 
L 208.545883 -98.44043 
L 190.634247 -102.507593 
L 172.72261 -101.138115 
L 154.810974 -106.129605 
L 136.899338 -107.575697 
L 118.987702 -120.010412 
L 101.076066 -142.132574 
L 83.16443 -183.469091 
z
"/>
    </defs>
    <g clip-path="url(#p110b5d8605)">
     <use xlink:href="#m64d8d256c6" x="0" y="216" style="fill: #cd5c5c; fill-opacity: 0.3"/>
    </g>
   </g>
   <g id="FillBetweenPolyCollection_2">
    <defs>
     <path id="m590277e476" d="M 83.16443 -117.194428 
L 83.16443 -99.648997 
L 101.076066 -95.530971 
L 118.987702 -80.575343 
L 136.899338 -75.018317 
L 154.810974 -81.882373 
L 172.72261 -77.873711 
L 190.634247 -78.136627 
L 208.545883 -72.991046 
L 226.457519 -78.488961 
L 244.369155 -79.166853 
L 262.280791 -70.450909 
L 262.280791 -91.067733 
L 262.280791 -91.067733 
L 244.369155 -99.875815 
L 226.457519 -98.829851 
L 208.545883 -92.513884 
L 190.634247 -97.47972 
L 172.72261 -97.263141 
L 154.810974 -100.787341 
L 136.899338 -94.682408 
L 118.987702 -97.696145 
L 101.076066 -113.765565 
L 83.16443 -117.194428 
z
"/>
    </defs>
    <g clip-path="url(#p110b5d8605)">
     <use xlink:href="#m590277e476" x="0" y="216" style="fill: #daa520; fill-opacity: 0.3"/>
    </g>
   </g>
   <g id="matplotlib.axis_1">
    <g id="xtick_1">
     <g id="line2d_1">
      <defs>
       <path id="m7a29e044ec" d="M 0 0 
L 0 3.5 
" style="stroke: #000000; stroke-width: 0.8"/>
      </defs>
      <g>
       <use xlink:href="#m7a29e044ec" x="101.076066" y="151.2" style="stroke: #000000; stroke-width: 0.8"/>
      </g>
     </g>
     <g id="text_1">
      <!-- 22 -->
      <g transform="translate(94.713566 165.798438) scale(0.1 -0.1)">
       <defs>
        <path id="DejaVuSans-32" d="M 1228 531 
L 3431 531 
L 3431 0 
L 469 0 
L 469 531 
Q 828 903 1448 1529 
Q 2069 2156 2228 2338 
Q 2531 2678 2651 2914 
Q 2772 3150 2772 3378 
Q 2772 3750 2511 3984 
Q 2250 4219 1831 4219 
Q 1534 4219 1204 4116 
Q 875 4013 500 3803 
L 500 4441 
Q 881 4594 1212 4672 
Q 1544 4750 1819 4750 
Q 2544 4750 2975 4387 
Q 3406 4025 3406 3419 
Q 3406 3131 3298 2873 
Q 3191 2616 2906 2266 
Q 2828 2175 2409 1742 
Q 1991 1309 1228 531 
z
" transform="scale(0.015625)"/>
       </defs>
       <use xlink:href="#DejaVuSans-32"/>
       <use xlink:href="#DejaVuSans-32" transform="translate(63.623047 0)"/>
      </g>
     </g>
    </g>
    <g id="xtick_2">
     <g id="line2d_2">
      <g>
       <use xlink:href="#m7a29e044ec" x="136.899338" y="151.2" style="stroke: #000000; stroke-width: 0.8"/>
      </g>
     </g>
     <g id="text_2">
      <!-- 24 -->
      <g transform="translate(130.536838 165.798438) scale(0.1 -0.1)">
       <defs>
        <path id="DejaVuSans-34" d="M 2419 4116 
L 825 1625 
L 2419 1625 
L 2419 4116 
z
M 2253 4666 
L 3047 4666 
L 3047 1625 
L 3713 1625 
L 3713 1100 
L 3047 1100 
L 3047 0 
L 2419 0 
L 2419 1100 
L 313 1100 
L 313 1709 
L 2253 4666 
z
" transform="scale(0.015625)"/>
       </defs>
       <use xlink:href="#DejaVuSans-32"/>
       <use xlink:href="#DejaVuSans-34" transform="translate(63.623047 0)"/>
      </g>
     </g>
    </g>
    <g id="xtick_3">
     <g id="line2d_3">
      <g>
       <use xlink:href="#m7a29e044ec" x="172.72261" y="151.2" style="stroke: #000000; stroke-width: 0.8"/>
      </g>
     </g>
     <g id="text_3">
      <!-- 26 -->
      <g transform="translate(166.36011 165.798438) scale(0.1 -0.1)">
       <defs>
        <path id="DejaVuSans-36" d="M 2113 2584 
Q 1688 2584 1439 2293 
Q 1191 2003 1191 1497 
Q 1191 994 1439 701 
Q 1688 409 2113 409 
Q 2538 409 2786 701 
Q 3034 994 3034 1497 
Q 3034 2003 2786 2293 
Q 2538 2584 2113 2584 
z
M 3366 4563 
L 3366 3988 
Q 3128 4100 2886 4159 
Q 2644 4219 2406 4219 
Q 1781 4219 1451 3797 
Q 1122 3375 1075 2522 
Q 1259 2794 1537 2939 
Q 1816 3084 2150 3084 
Q 2853 3084 3261 2657 
Q 3669 2231 3669 1497 
Q 3669 778 3244 343 
Q 2819 -91 2113 -91 
Q 1303 -91 875 529 
Q 447 1150 447 2328 
Q 447 3434 972 4092 
Q 1497 4750 2381 4750 
Q 2619 4750 2861 4703 
Q 3103 4656 3366 4563 
z
" transform="scale(0.015625)"/>
       </defs>
       <use xlink:href="#DejaVuSans-32"/>
       <use xlink:href="#DejaVuSans-36" transform="translate(63.623047 0)"/>
      </g>
     </g>
    </g>
    <g id="xtick_4">
     <g id="line2d_4">
      <g>
       <use xlink:href="#m7a29e044ec" x="208.545883" y="151.2" style="stroke: #000000; stroke-width: 0.8"/>
      </g>
     </g>
     <g id="text_4">
      <!-- 28 -->
      <g transform="translate(202.183383 165.798438) scale(0.1 -0.1)">
       <defs>
        <path id="DejaVuSans-38" d="M 2034 2216 
Q 1584 2216 1326 1975 
Q 1069 1734 1069 1313 
Q 1069 891 1326 650 
Q 1584 409 2034 409 
Q 2484 409 2743 651 
Q 3003 894 3003 1313 
Q 3003 1734 2745 1975 
Q 2488 2216 2034 2216 
z
M 1403 2484 
Q 997 2584 770 2862 
Q 544 3141 544 3541 
Q 544 4100 942 4425 
Q 1341 4750 2034 4750 
Q 2731 4750 3128 4425 
Q 3525 4100 3525 3541 
Q 3525 3141 3298 2862 
Q 3072 2584 2669 2484 
Q 3125 2378 3379 2068 
Q 3634 1759 3634 1313 
Q 3634 634 3220 271 
Q 2806 -91 2034 -91 
Q 1263 -91 848 271 
Q 434 634 434 1313 
Q 434 1759 690 2068 
Q 947 2378 1403 2484 
z
M 1172 3481 
Q 1172 3119 1398 2916 
Q 1625 2713 2034 2713 
Q 2441 2713 2670 2916 
Q 2900 3119 2900 3481 
Q 2900 3844 2670 4047 
Q 2441 4250 2034 4250 
Q 1625 4250 1398 4047 
Q 1172 3844 1172 3481 
z
" transform="scale(0.015625)"/>
       </defs>
       <use xlink:href="#DejaVuSans-32"/>
       <use xlink:href="#DejaVuSans-38" transform="translate(63.623047 0)"/>
      </g>
     </g>
    </g>
    <g id="xtick_5">
     <g id="line2d_5">
      <g>
       <use xlink:href="#m7a29e044ec" x="244.369155" y="151.2" style="stroke: #000000; stroke-width: 0.8"/>
      </g>
     </g>
     <g id="text_5">
      <!-- 30 -->
      <g transform="translate(238.006655 165.798438) scale(0.1 -0.1)">
       <defs>
        <path id="DejaVuSans-33" d="M 2597 2516 
Q 3050 2419 3304 2112 
Q 3559 1806 3559 1356 
Q 3559 666 3084 287 
Q 2609 -91 1734 -91 
Q 1441 -91 1130 -33 
Q 819 25 488 141 
L 488 750 
Q 750 597 1062 519 
Q 1375 441 1716 441 
Q 2309 441 2620 675 
Q 2931 909 2931 1356 
Q 2931 1769 2642 2001 
Q 2353 2234 1838 2234 
L 1294 2234 
L 1294 2753 
L 1863 2753 
Q 2328 2753 2575 2939 
Q 2822 3125 2822 3475 
Q 2822 3834 2567 4026 
Q 2313 4219 1838 4219 
Q 1578 4219 1281 4162 
Q 984 4106 628 3988 
L 628 4550 
Q 988 4650 1302 4700 
Q 1616 4750 1894 4750 
Q 2613 4750 3031 4423 
Q 3450 4097 3450 3541 
Q 3450 3153 3228 2886 
Q 3006 2619 2597 2516 
z
" transform="scale(0.015625)"/>
        <path id="DejaVuSans-30" d="M 2034 4250 
Q 1547 4250 1301 3770 
Q 1056 3291 1056 2328 
Q 1056 1369 1301 889 
Q 1547 409 2034 409 
Q 2525 409 2770 889 
Q 3016 1369 3016 2328 
Q 3016 3291 2770 3770 
Q 2525 4250 2034 4250 
z
M 2034 4750 
Q 2819 4750 3233 4129 
Q 3647 3509 3647 2328 
Q 3647 1150 3233 529 
Q 2819 -91 2034 -91 
Q 1250 -91 836 529 
Q 422 1150 422 2328 
Q 422 3509 836 4129 
Q 1250 4750 2034 4750 
z
" transform="scale(0.015625)"/>
       </defs>
       <use xlink:href="#DejaVuSans-33"/>
       <use xlink:href="#DejaVuSans-30" transform="translate(63.623047 0)"/>
      </g>
     </g>
    </g>
    <g id="text_6">
     <!-- $t$ -->
     <g transform="translate(170.72261 179.476563) scale(0.1 -0.1)">
      <defs>
       <path id="DejaVuSans-Oblique-74" d="M 2706 3500 
L 2619 3053 
L 1472 3053 
L 1100 1153 
Q 1081 1047 1072 975 
Q 1063 903 1063 863 
Q 1063 663 1183 572 
Q 1303 481 1569 481 
L 2150 481 
L 2053 0 
L 1503 0 
Q 991 0 739 200 
Q 488 400 488 806 
Q 488 878 497 964 
Q 506 1050 525 1153 
L 897 3053 
L 409 3053 
L 500 3500 
L 978 3500 
L 1172 4494 
L 1747 4494 
L 1556 3500 
L 2706 3500 
z
" transform="scale(0.015625)"/>
      </defs>
      <use xlink:href="#DejaVuSans-Oblique-74" transform="translate(0 0.78125)"/>
     </g>
    </g>
   </g>
   <g id="matplotlib.axis_2">
    <g id="ytick_1">
     <g id="line2d_6">
      <defs>
       <path id="m757dac8dc7" d="M 0 0 
L -2 0 
" style="stroke: #000000; stroke-width: 0.6"/>
      </defs>
      <g>
       <use xlink:href="#m757dac8dc7" x="74.208612" y="121.275108" style="stroke: #000000; stroke-width: 0.6"/>
      </g>
     </g>
     <g id="text_7">
      <!-- $\mathdefault{5\times10^{-2}}$ -->
      <g transform="translate(26.708612 125.074326) scale(0.1 -0.1)">
       <defs>
        <path id="DejaVuSans-35" d="M 691 4666 
L 3169 4666 
L 3169 4134 
L 1269 4134 
L 1269 2991 
Q 1406 3038 1543 3061 
Q 1681 3084 1819 3084 
Q 2600 3084 3056 2656 
Q 3513 2228 3513 1497 
Q 3513 744 3044 326 
Q 2575 -91 1722 -91 
Q 1428 -91 1123 -41 
Q 819 9 494 109 
L 494 744 
Q 775 591 1075 516 
Q 1375 441 1709 441 
Q 2250 441 2565 725 
Q 2881 1009 2881 1497 
Q 2881 1984 2565 2268 
Q 2250 2553 1709 2553 
Q 1456 2553 1204 2497 
Q 953 2441 691 2322 
L 691 4666 
z
" transform="scale(0.015625)"/>
        <path id="DejaVuSans-d7" d="M 4488 3438 
L 3059 2003 
L 4488 575 
L 4116 197 
L 2681 1631 
L 1247 197 
L 878 575 
L 2303 2003 
L 878 3438 
L 1247 3816 
L 2681 2381 
L 4116 3816 
L 4488 3438 
z
" transform="scale(0.015625)"/>
        <path id="DejaVuSans-31" d="M 794 531 
L 1825 531 
L 1825 4091 
L 703 3866 
L 703 4441 
L 1819 4666 
L 2450 4666 
L 2450 531 
L 3481 531 
L 3481 0 
L 794 0 
L 794 531 
z
" transform="scale(0.015625)"/>
        <path id="DejaVuSans-2212" d="M 678 2272 
L 4684 2272 
L 4684 1741 
L 678 1741 
L 678 2272 
z
" transform="scale(0.015625)"/>
       </defs>
       <use xlink:href="#DejaVuSans-35" transform="translate(0 0.765625)"/>
       <use xlink:href="#DejaVuSans-d7" transform="translate(83.105469 0.765625)"/>
       <use xlink:href="#DejaVuSans-31" transform="translate(186.376953 0.765625)"/>
       <use xlink:href="#DejaVuSans-30" transform="translate(250 0.765625)"/>
       <use xlink:href="#DejaVuSans-2212" transform="translate(314.580078 39.046875) scale(0.7)"/>
       <use xlink:href="#DejaVuSans-32" transform="translate(373.232422 39.046875) scale(0.7)"/>
      </g>
     </g>
    </g>
    <g id="ytick_2">
     <g id="line2d_7">
      <g>
       <use xlink:href="#m757dac8dc7" x="74.208612" y="65.95149" style="stroke: #000000; stroke-width: 0.6"/>
      </g>
     </g>
     <g id="text_8">
      <!-- $\mathdefault{6\times10^{-2}}$ -->
      <g transform="translate(26.708612 69.750709) scale(0.1 -0.1)">
       <use xlink:href="#DejaVuSans-36" transform="translate(0 0.765625)"/>
       <use xlink:href="#DejaVuSans-d7" transform="translate(83.105469 0.765625)"/>
       <use xlink:href="#DejaVuSans-31" transform="translate(186.376953 0.765625)"/>
       <use xlink:href="#DejaVuSans-30" transform="translate(250 0.765625)"/>
       <use xlink:href="#DejaVuSans-2212" transform="translate(314.580078 39.046875) scale(0.7)"/>
       <use xlink:href="#DejaVuSans-32" transform="translate(373.232422 39.046875) scale(0.7)"/>
      </g>
     </g>
    </g>
    <g id="text_9">
     <!-- $h(t)$ -->
     <g transform="translate(20.628924 98.09) rotate(-90) scale(0.1 -0.1)">
      <defs>
       <path id="DejaVuSans-Oblique-68" d="M 3566 2113 
L 3156 0 
L 2578 0 
L 2988 2091 
Q 3016 2238 3031 2350 
Q 3047 2463 3047 2528 
Q 3047 2791 2881 2937 
Q 2716 3084 2419 3084 
Q 1956 3084 1617 2771 
Q 1278 2459 1178 1941 
L 800 0 
L 225 0 
L 1172 4863 
L 1747 4863 
L 1375 2950 
Q 1594 3244 1934 3414 
Q 2275 3584 2650 3584 
Q 3113 3584 3367 3334 
Q 3622 3084 3622 2631 
Q 3622 2519 3608 2391 
Q 3594 2263 3566 2113 
z
" transform="scale(0.015625)"/>
       <path id="DejaVuSans-28" d="M 1984 4856 
Q 1566 4138 1362 3434 
Q 1159 2731 1159 2009 
Q 1159 1288 1364 580 
Q 1569 -128 1984 -844 
L 1484 -844 
Q 1016 -109 783 600 
Q 550 1309 550 2009 
Q 550 2706 781 3412 
Q 1013 4119 1484 4856 
L 1984 4856 
z
" transform="scale(0.015625)"/>
       <path id="DejaVuSans-29" d="M 513 4856 
L 1013 4856 
Q 1481 4119 1714 3412 
Q 1947 2706 1947 2009 
Q 1947 1309 1714 600 
Q 1481 -109 1013 -844 
L 513 -844 
Q 928 -128 1133 580 
Q 1338 1288 1338 2009 
Q 1338 2731 1133 3434 
Q 928 4138 513 4856 
z
" transform="scale(0.015625)"/>
      </defs>
      <use xlink:href="#DejaVuSans-Oblique-68" transform="translate(0 0.015625)"/>
      <use xlink:href="#DejaVuSans-28" transform="translate(63.378906 0.015625)"/>
      <use xlink:href="#DejaVuSans-Oblique-74" transform="translate(102.392578 0.015625)"/>
      <use xlink:href="#DejaVuSans-29" transform="translate(141.601562 0.015625)"/>
     </g>
    </g>
   </g>
   <g id="line2d_8">
    <path d="M 83.16443 119.114187 
L 101.076066 121.204168 
L 118.987702 123.215734 
L 136.899338 125.22901 
L 154.810974 127.066272 
L 172.72261 128.837843 
L 190.634247 130.56589 
L 208.545883 132.163991 
L 226.457519 133.718428 
L 244.369155 135.364778 
L 262.280791 136.912954 
" clip-path="url(#p110b5d8605)" style="fill: none; stroke: #000000; stroke-width: 3; stroke-linecap: square"/>
   </g>
   <g id="line2d_9">
    <path d="M 83.16443 36.511506 
L 101.076066 80.660041 
L 118.987702 101.443212 
L 136.899338 114.037086 
L 154.810974 114.92131 
L 172.72261 120.481135 
L 190.634247 119.230757 
L 208.545883 122.808311 
L 226.457519 127.981877 
L 244.369155 125.214948 
L 262.280791 130.968446 
" clip-path="url(#p110b5d8605)" style="fill: none; stroke-dasharray: 11.1,4.8; stroke-dashoffset: 0; stroke: #cd5c5c; stroke-width: 3"/>
   </g>
   <g id="line2d_10">
    <path d="M 83.16443 107.124052 
L 101.076066 110.701513 
L 118.987702 126.657026 
L 136.899338 130.943383 
L 154.810974 125.362538 
L 172.72261 127.436378 
L 190.634247 128.366795 
L 208.545883 131.916058 
L 226.457519 128.137027 
L 244.369155 125.085865 
L 262.280791 135.615471 
" clip-path="url(#p110b5d8605)" style="fill: none; stroke-dasharray: 11.1,4.8; stroke-dashoffset: 0; stroke: #daa520; stroke-width: 3"/>
   </g>
   <g id="patch_3">
    <path d="M 74.208612 151.2 
L 74.208612 26.88 
" style="fill: none; stroke: #000000; stroke-width: 0.8; stroke-linejoin: miter; stroke-linecap: square"/>
   </g>
   <g id="patch_4">
    <path d="M 74.208612 151.2 
L 271.236609 151.2 
" style="fill: none; stroke: #000000; stroke-width: 0.8; stroke-linejoin: miter; stroke-linecap: square"/>
   </g>
   <g id="text_10">
    <!-- Zymo Log, Nanopore GridION -->
    <g transform="translate(84.483235 20.88) scale(0.12 -0.12)">
     <defs>
      <path id="DejaVuSans-5a" d="M 359 4666 
L 4025 4666 
L 4025 4184 
L 1075 531 
L 4097 531 
L 4097 0 
L 288 0 
L 288 481 
L 3238 4134 
L 359 4134 
L 359 4666 
z
" transform="scale(0.015625)"/>
      <path id="DejaVuSans-79" d="M 2059 -325 
Q 1816 -950 1584 -1140 
Q 1353 -1331 966 -1331 
L 506 -1331 
L 506 -850 
L 844 -850 
Q 1081 -850 1212 -737 
Q 1344 -625 1503 -206 
L 1606 56 
L 191 3500 
L 800 3500 
L 1894 763 
L 2988 3500 
L 3597 3500 
L 2059 -325 
z
" transform="scale(0.015625)"/>
      <path id="DejaVuSans-6d" d="M 3328 2828 
Q 3544 3216 3844 3400 
Q 4144 3584 4550 3584 
Q 5097 3584 5394 3201 
Q 5691 2819 5691 2113 
L 5691 0 
L 5113 0 
L 5113 2094 
Q 5113 2597 4934 2840 
Q 4756 3084 4391 3084 
Q 3944 3084 3684 2787 
Q 3425 2491 3425 1978 
L 3425 0 
L 2847 0 
L 2847 2094 
Q 2847 2600 2669 2842 
Q 2491 3084 2119 3084 
Q 1678 3084 1418 2786 
Q 1159 2488 1159 1978 
L 1159 0 
L 581 0 
L 581 3500 
L 1159 3500 
L 1159 2956 
Q 1356 3278 1631 3431 
Q 1906 3584 2284 3584 
Q 2666 3584 2933 3390 
Q 3200 3197 3328 2828 
z
" transform="scale(0.015625)"/>
      <path id="DejaVuSans-6f" d="M 1959 3097 
Q 1497 3097 1228 2736 
Q 959 2375 959 1747 
Q 959 1119 1226 758 
Q 1494 397 1959 397 
Q 2419 397 2687 759 
Q 2956 1122 2956 1747 
Q 2956 2369 2687 2733 
Q 2419 3097 1959 3097 
z
M 1959 3584 
Q 2709 3584 3137 3096 
Q 3566 2609 3566 1747 
Q 3566 888 3137 398 
Q 2709 -91 1959 -91 
Q 1206 -91 779 398 
Q 353 888 353 1747 
Q 353 2609 779 3096 
Q 1206 3584 1959 3584 
z
" transform="scale(0.015625)"/>
      <path id="DejaVuSans-20" transform="scale(0.015625)"/>
      <path id="DejaVuSans-4c" d="M 628 4666 
L 1259 4666 
L 1259 531 
L 3531 531 
L 3531 0 
L 628 0 
L 628 4666 
z
" transform="scale(0.015625)"/>
      <path id="DejaVuSans-67" d="M 2906 1791 
Q 2906 2416 2648 2759 
Q 2391 3103 1925 3103 
Q 1463 3103 1205 2759 
Q 947 2416 947 1791 
Q 947 1169 1205 825 
Q 1463 481 1925 481 
Q 2391 481 2648 825 
Q 2906 1169 2906 1791 
z
M 3481 434 
Q 3481 -459 3084 -895 
Q 2688 -1331 1869 -1331 
Q 1566 -1331 1297 -1286 
Q 1028 -1241 775 -1147 
L 775 -588 
Q 1028 -725 1275 -790 
Q 1522 -856 1778 -856 
Q 2344 -856 2625 -561 
Q 2906 -266 2906 331 
L 2906 616 
Q 2728 306 2450 153 
Q 2172 0 1784 0 
Q 1141 0 747 490 
Q 353 981 353 1791 
Q 353 2603 747 3093 
Q 1141 3584 1784 3584 
Q 2172 3584 2450 3431 
Q 2728 3278 2906 2969 
L 2906 3500 
L 3481 3500 
L 3481 434 
z
" transform="scale(0.015625)"/>
      <path id="DejaVuSans-2c" d="M 750 794 
L 1409 794 
L 1409 256 
L 897 -744 
L 494 -744 
L 750 256 
L 750 794 
z
" transform="scale(0.015625)"/>
      <path id="DejaVuSans-4e" d="M 628 4666 
L 1478 4666 
L 3547 763 
L 3547 4666 
L 4159 4666 
L 4159 0 
L 3309 0 
L 1241 3903 
L 1241 0 
L 628 0 
L 628 4666 
z
" transform="scale(0.015625)"/>
      <path id="DejaVuSans-61" d="M 2194 1759 
Q 1497 1759 1228 1600 
Q 959 1441 959 1056 
Q 959 750 1161 570 
Q 1363 391 1709 391 
Q 2188 391 2477 730 
Q 2766 1069 2766 1631 
L 2766 1759 
L 2194 1759 
z
M 3341 1997 
L 3341 0 
L 2766 0 
L 2766 531 
Q 2569 213 2275 61 
Q 1981 -91 1556 -91 
Q 1019 -91 701 211 
Q 384 513 384 1019 
Q 384 1609 779 1909 
Q 1175 2209 1959 2209 
L 2766 2209 
L 2766 2266 
Q 2766 2663 2505 2880 
Q 2244 3097 1772 3097 
Q 1472 3097 1187 3025 
Q 903 2953 641 2809 
L 641 3341 
Q 956 3463 1253 3523 
Q 1550 3584 1831 3584 
Q 2591 3584 2966 3190 
Q 3341 2797 3341 1997 
z
" transform="scale(0.015625)"/>
      <path id="DejaVuSans-6e" d="M 3513 2113 
L 3513 0 
L 2938 0 
L 2938 2094 
Q 2938 2591 2744 2837 
Q 2550 3084 2163 3084 
Q 1697 3084 1428 2787 
Q 1159 2491 1159 1978 
L 1159 0 
L 581 0 
L 581 3500 
L 1159 3500 
L 1159 2956 
Q 1366 3272 1645 3428 
Q 1925 3584 2291 3584 
Q 2894 3584 3203 3211 
Q 3513 2838 3513 2113 
z
" transform="scale(0.015625)"/>
      <path id="DejaVuSans-70" d="M 1159 525 
L 1159 -1331 
L 581 -1331 
L 581 3500 
L 1159 3500 
L 1159 2969 
Q 1341 3281 1617 3432 
Q 1894 3584 2278 3584 
Q 2916 3584 3314 3078 
Q 3713 2572 3713 1747 
Q 3713 922 3314 415 
Q 2916 -91 2278 -91 
Q 1894 -91 1617 61 
Q 1341 213 1159 525 
z
M 3116 1747 
Q 3116 2381 2855 2742 
Q 2594 3103 2138 3103 
Q 1681 3103 1420 2742 
Q 1159 2381 1159 1747 
Q 1159 1113 1420 752 
Q 1681 391 2138 391 
Q 2594 391 2855 752 
Q 3116 1113 3116 1747 
z
" transform="scale(0.015625)"/>
      <path id="DejaVuSans-72" d="M 2631 2963 
Q 2534 3019 2420 3045 
Q 2306 3072 2169 3072 
Q 1681 3072 1420 2755 
Q 1159 2438 1159 1844 
L 1159 0 
L 581 0 
L 581 3500 
L 1159 3500 
L 1159 2956 
Q 1341 3275 1631 3429 
Q 1922 3584 2338 3584 
Q 2397 3584 2469 3576 
Q 2541 3569 2628 3553 
L 2631 2963 
z
" transform="scale(0.015625)"/>
      <path id="DejaVuSans-65" d="M 3597 1894 
L 3597 1613 
L 953 1613 
Q 991 1019 1311 708 
Q 1631 397 2203 397 
Q 2534 397 2845 478 
Q 3156 559 3463 722 
L 3463 178 
Q 3153 47 2828 -22 
Q 2503 -91 2169 -91 
Q 1331 -91 842 396 
Q 353 884 353 1716 
Q 353 2575 817 3079 
Q 1281 3584 2069 3584 
Q 2775 3584 3186 3129 
Q 3597 2675 3597 1894 
z
M 3022 2063 
Q 3016 2534 2758 2815 
Q 2500 3097 2075 3097 
Q 1594 3097 1305 2825 
Q 1016 2553 972 2059 
L 3022 2063 
z
" transform="scale(0.015625)"/>
      <path id="DejaVuSans-47" d="M 3809 666 
L 3809 1919 
L 2778 1919 
L 2778 2438 
L 4434 2438 
L 4434 434 
Q 4069 175 3628 42 
Q 3188 -91 2688 -91 
Q 1594 -91 976 548 
Q 359 1188 359 2328 
Q 359 3472 976 4111 
Q 1594 4750 2688 4750 
Q 3144 4750 3555 4637 
Q 3966 4525 4313 4306 
L 4313 3634 
Q 3963 3931 3569 4081 
Q 3175 4231 2741 4231 
Q 1884 4231 1454 3753 
Q 1025 3275 1025 2328 
Q 1025 1384 1454 906 
Q 1884 428 2741 428 
Q 3075 428 3337 486 
Q 3600 544 3809 666 
z
" transform="scale(0.015625)"/>
      <path id="DejaVuSans-69" d="M 603 3500 
L 1178 3500 
L 1178 0 
L 603 0 
L 603 3500 
z
M 603 4863 
L 1178 4863 
L 1178 4134 
L 603 4134 
L 603 4863 
z
" transform="scale(0.015625)"/>
      <path id="DejaVuSans-64" d="M 2906 2969 
L 2906 4863 
L 3481 4863 
L 3481 0 
L 2906 0 
L 2906 525 
Q 2725 213 2448 61 
Q 2172 -91 1784 -91 
Q 1150 -91 751 415 
Q 353 922 353 1747 
Q 353 2572 751 3078 
Q 1150 3584 1784 3584 
Q 2172 3584 2448 3432 
Q 2725 3281 2906 2969 
z
M 947 1747 
Q 947 1113 1208 752 
Q 1469 391 1925 391 
Q 2381 391 2643 752 
Q 2906 1113 2906 1747 
Q 2906 2381 2643 2742 
Q 2381 3103 1925 3103 
Q 1469 3103 1208 2742 
Q 947 2381 947 1747 
z
" transform="scale(0.015625)"/>
      <path id="DejaVuSans-49" d="M 628 4666 
L 1259 4666 
L 1259 0 
L 628 0 
L 628 4666 
z
" transform="scale(0.015625)"/>
      <path id="DejaVuSans-4f" d="M 2522 4238 
Q 1834 4238 1429 3725 
Q 1025 3213 1025 2328 
Q 1025 1447 1429 934 
Q 1834 422 2522 422 
Q 3209 422 3611 934 
Q 4013 1447 4013 2328 
Q 4013 3213 3611 3725 
Q 3209 4238 2522 4238 
z
M 2522 4750 
Q 3503 4750 4090 4092 
Q 4678 3434 4678 2328 
Q 4678 1225 4090 567 
Q 3503 -91 2522 -91 
Q 1538 -91 948 565 
Q 359 1222 359 2328 
Q 359 3434 948 4092 
Q 1538 4750 2522 4750 
z
" transform="scale(0.015625)"/>
     </defs>
     <use xlink:href="#DejaVuSans-5a"/>
     <use xlink:href="#DejaVuSans-79" transform="translate(68.505859 0)"/>
     <use xlink:href="#DejaVuSans-6d" transform="translate(127.685547 0)"/>
     <use xlink:href="#DejaVuSans-6f" transform="translate(225.097656 0)"/>
     <use xlink:href="#DejaVuSans-20" transform="translate(286.279297 0)"/>
     <use xlink:href="#DejaVuSans-4c" transform="translate(318.066406 0)"/>
     <use xlink:href="#DejaVuSans-6f" transform="translate(372.029297 0)"/>
     <use xlink:href="#DejaVuSans-67" transform="translate(433.210938 0)"/>
     <use xlink:href="#DejaVuSans-2c" transform="translate(496.6875 0)"/>
     <use xlink:href="#DejaVuSans-20" transform="translate(528.474609 0)"/>
     <use xlink:href="#DejaVuSans-4e" transform="translate(560.261719 0)"/>
     <use xlink:href="#DejaVuSans-61" transform="translate(635.066406 0)"/>
     <use xlink:href="#DejaVuSans-6e" transform="translate(696.345703 0)"/>
     <use xlink:href="#DejaVuSans-6f" transform="translate(759.724609 0)"/>
     <use xlink:href="#DejaVuSans-70" transform="translate(820.90625 0)"/>
     <use xlink:href="#DejaVuSans-6f" transform="translate(884.382812 0)"/>
     <use xlink:href="#DejaVuSans-72" transform="translate(945.564453 0)"/>
     <use xlink:href="#DejaVuSans-65" transform="translate(984.427734 0)"/>
     <use xlink:href="#DejaVuSans-20" transform="translate(1045.951172 0)"/>
     <use xlink:href="#DejaVuSans-47" transform="translate(1077.738281 0)"/>
     <use xlink:href="#DejaVuSans-72" transform="translate(1155.228516 0)"/>
     <use xlink:href="#DejaVuSans-69" transform="translate(1196.341797 0)"/>
     <use xlink:href="#DejaVuSans-64" transform="translate(1224.125 0)"/>
     <use xlink:href="#DejaVuSans-49" transform="translate(1287.601562 0)"/>
     <use xlink:href="#DejaVuSans-4f" transform="translate(1317.09375 0)"/>
     <use xlink:href="#DejaVuSans-4e" transform="translate(1395.804688 0)"/>
    </g>
   </g>
  </g>
  <g id="axes_2">
   <g id="patch_5">
    <path d="M 340.196408 151.2 
L 537.224406 151.2 
L 537.224406 26.88 
L 340.196408 26.88 
z
" style="fill: #ffffff"/>
   </g>
   <g id="FillBetweenPolyCollection_3">
    <defs>
     <path id="m3caf6287fe" d="M 349.152227 -105.367007 
L 349.152227 -90.766405 
L 367.063863 -89.239006 
L 384.975499 -85.395363 
L 402.887135 -79.952841 
L 420.798771 -74.040055 
L 438.710407 -77.991396 
L 456.622043 -75.229471 
L 474.53368 -81.904924 
L 492.445316 -81.515252 
L 510.356952 -70.450909 
L 528.268588 -79.952841 
L 528.268588 -95.31467 
L 528.268588 -95.31467 
L 510.356952 -84.622281 
L 492.445316 -94.937574 
L 474.53368 -96.443876 
L 456.622043 -90.38509 
L 438.710407 -93.804195 
L 420.798771 -88.089702 
L 402.887135 -93.804195 
L 384.975499 -99.066629 
L 367.063863 -106.101887 
L 349.152227 -105.367007 
z
"/>
    </defs>
    <g clip-path="url(#p41698e42e2)">
     <use xlink:href="#m3caf6287fe" x="0" y="216" style="fill: #cd5c5c; fill-opacity: 0.3"/>
    </g>
   </g>
   <g id="FillBetweenPolyCollection_4">
    <defs>
     <path id="mc4e780e24f" d="M 349.152227 -183.469091 
L 349.152227 -144.946479 
L 367.063863 -141.930779 
L 384.975499 -130.678965 
L 402.887135 -121.590578 
L 420.798771 -121.943891 
L 438.710407 -128.5995 
L 456.622043 -118.04055 
L 474.53368 -120.528801 
L 492.445316 -126.858498 
L 510.356952 -118.753025 
L 528.268588 -120.528801 
L 528.268588 -139.23136 
L 528.268588 -139.23136 
L 510.356952 -137.535129 
L 492.445316 -145.280189 
L 474.53368 -141.594325 
L 456.622043 -135.831834 
L 438.710407 -149.263603 
L 420.798771 -141.257593 
L 402.887135 -140.245731 
L 384.975499 -150.911975 
L 367.063863 -163.865096 
L 349.152227 -183.469091 
z
"/>
    </defs>
    <g clip-path="url(#p41698e42e2)">
     <use xlink:href="#mc4e780e24f" x="0" y="216" style="fill: #daa520; fill-opacity: 0.3"/>
    </g>
   </g>
   <g id="matplotlib.axis_3">
    <g id="xtick_6">
     <g id="line2d_11">
      <g>
       <use xlink:href="#m7a29e044ec" x="367.063863" y="151.2" style="stroke: #000000; stroke-width: 0.8"/>
      </g>
     </g>
     <g id="text_11">
      <!-- 22 -->
      <g transform="translate(360.701363 165.798438) scale(0.1 -0.1)">
       <use xlink:href="#DejaVuSans-32"/>
       <use xlink:href="#DejaVuSans-32" transform="translate(63.623047 0)"/>
      </g>
     </g>
    </g>
    <g id="xtick_7">
     <g id="line2d_12">
      <g>
       <use xlink:href="#m7a29e044ec" x="402.887135" y="151.2" style="stroke: #000000; stroke-width: 0.8"/>
      </g>
     </g>
     <g id="text_12">
      <!-- 24 -->
      <g transform="translate(396.524635 165.798438) scale(0.1 -0.1)">
       <use xlink:href="#DejaVuSans-32"/>
       <use xlink:href="#DejaVuSans-34" transform="translate(63.623047 0)"/>
      </g>
     </g>
    </g>
    <g id="xtick_8">
     <g id="line2d_13">
      <g>
       <use xlink:href="#m7a29e044ec" x="438.710407" y="151.2" style="stroke: #000000; stroke-width: 0.8"/>
      </g>
     </g>
     <g id="text_13">
      <!-- 26 -->
      <g transform="translate(432.347907 165.798438) scale(0.1 -0.1)">
       <use xlink:href="#DejaVuSans-32"/>
       <use xlink:href="#DejaVuSans-36" transform="translate(63.623047 0)"/>
      </g>
     </g>
    </g>
    <g id="xtick_9">
     <g id="line2d_14">
      <g>
       <use xlink:href="#m7a29e044ec" x="474.53368" y="151.2" style="stroke: #000000; stroke-width: 0.8"/>
      </g>
     </g>
     <g id="text_14">
      <!-- 28 -->
      <g transform="translate(468.17118 165.798438) scale(0.1 -0.1)">
       <use xlink:href="#DejaVuSans-32"/>
       <use xlink:href="#DejaVuSans-38" transform="translate(63.623047 0)"/>
      </g>
     </g>
    </g>
    <g id="xtick_10">
     <g id="line2d_15">
      <g>
       <use xlink:href="#m7a29e044ec" x="510.356952" y="151.2" style="stroke: #000000; stroke-width: 0.8"/>
      </g>
     </g>
     <g id="text_15">
      <!-- 30 -->
      <g transform="translate(503.994452 165.798438) scale(0.1 -0.1)">
       <use xlink:href="#DejaVuSans-33"/>
       <use xlink:href="#DejaVuSans-30" transform="translate(63.623047 0)"/>
      </g>
     </g>
    </g>
    <g id="text_16">
     <!-- $t$ -->
     <g transform="translate(436.710407 179.476563) scale(0.1 -0.1)">
      <use xlink:href="#DejaVuSans-Oblique-74" transform="translate(0 0.78125)"/>
     </g>
    </g>
   </g>
   <g id="matplotlib.axis_4">
    <g id="ytick_3">
     <g id="line2d_16">
      <g>
       <use xlink:href="#m757dac8dc7" x="340.196408" y="134.095076" style="stroke: #000000; stroke-width: 0.6"/>
      </g>
     </g>
     <g id="text_17">
      <!-- $\mathdefault{1.05\times10^{-3}}$ -->
      <g transform="translate(276.796408 137.894294) scale(0.1 -0.1)">
       <defs>
        <path id="DejaVuSans-2e" d="M 684 794 
L 1344 794 
L 1344 0 
L 684 0 
L 684 794 
z
" transform="scale(0.015625)"/>
       </defs>
       <use xlink:href="#DejaVuSans-31" transform="translate(0 0.765625)"/>
       <use xlink:href="#DejaVuSans-2e" transform="translate(63.623047 0.765625)"/>
       <use xlink:href="#DejaVuSans-30" transform="translate(95.410156 0.765625)"/>
       <use xlink:href="#DejaVuSans-35" transform="translate(159.033203 0.765625)"/>
       <use xlink:href="#DejaVuSans-d7" transform="translate(242.138672 0.765625)"/>
       <use xlink:href="#DejaVuSans-31" transform="translate(345.410156 0.765625)"/>
       <use xlink:href="#DejaVuSans-30" transform="translate(409.033203 0.765625)"/>
       <use xlink:href="#DejaVuSans-2212" transform="translate(473.613281 39.046875) scale(0.7)"/>
       <use xlink:href="#DejaVuSans-33" transform="translate(532.265625 39.046875) scale(0.7)"/>
      </g>
     </g>
    </g>
    <g id="ytick_4">
     <g id="line2d_17">
      <g>
       <use xlink:href="#m757dac8dc7" x="340.196408" y="115.070222" style="stroke: #000000; stroke-width: 0.6"/>
      </g>
     </g>
     <g id="text_18">
      <!-- $\mathdefault{1.1\times10^{-3}}$ -->
      <g transform="translate(283.196408 118.869441) scale(0.1 -0.1)">
       <use xlink:href="#DejaVuSans-31" transform="translate(0 0.765625)"/>
       <use xlink:href="#DejaVuSans-2e" transform="translate(63.623047 0.765625)"/>
       <use xlink:href="#DejaVuSans-31" transform="translate(95.410156 0.765625)"/>
       <use xlink:href="#DejaVuSans-d7" transform="translate(178.515625 0.765625)"/>
       <use xlink:href="#DejaVuSans-31" transform="translate(281.787109 0.765625)"/>
       <use xlink:href="#DejaVuSans-30" transform="translate(345.410156 0.765625)"/>
       <use xlink:href="#DejaVuSans-2212" transform="translate(409.990234 39.046875) scale(0.7)"/>
       <use xlink:href="#DejaVuSans-33" transform="translate(468.642578 39.046875) scale(0.7)"/>
      </g>
     </g>
    </g>
    <g id="ytick_5">
     <g id="line2d_18">
      <g>
       <use xlink:href="#m757dac8dc7" x="340.196408" y="96.891202" style="stroke: #000000; stroke-width: 0.6"/>
      </g>
     </g>
     <g id="text_19">
      <!-- $\mathdefault{1.15\times10^{-3}}$ -->
      <g transform="translate(276.796408 100.690421) scale(0.1 -0.1)">
       <use xlink:href="#DejaVuSans-31" transform="translate(0 0.765625)"/>
       <use xlink:href="#DejaVuSans-2e" transform="translate(63.623047 0.765625)"/>
       <use xlink:href="#DejaVuSans-31" transform="translate(95.410156 0.765625)"/>
       <use xlink:href="#DejaVuSans-35" transform="translate(159.033203 0.765625)"/>
       <use xlink:href="#DejaVuSans-d7" transform="translate(242.138672 0.765625)"/>
       <use xlink:href="#DejaVuSans-31" transform="translate(345.410156 0.765625)"/>
       <use xlink:href="#DejaVuSans-30" transform="translate(409.033203 0.765625)"/>
       <use xlink:href="#DejaVuSans-2212" transform="translate(473.613281 39.046875) scale(0.7)"/>
       <use xlink:href="#DejaVuSans-33" transform="translate(532.265625 39.046875) scale(0.7)"/>
      </g>
     </g>
    </g>
    <g id="ytick_6">
     <g id="line2d_19">
      <g>
       <use xlink:href="#m757dac8dc7" x="340.196408" y="79.485997" style="stroke: #000000; stroke-width: 0.6"/>
      </g>
     </g>
     <g id="text_20">
      <!-- $\mathdefault{1.2\times10^{-3}}$ -->
      <g transform="translate(283.696408 83.285215) scale(0.1 -0.1)">
       <use xlink:href="#DejaVuSans-31" transform="translate(0 0.765625)"/>
       <use xlink:href="#DejaVuSans-2e" transform="translate(63.623047 0.765625)"/>
       <use xlink:href="#DejaVuSans-32" transform="translate(89.910156 0.765625)"/>
       <use xlink:href="#DejaVuSans-d7" transform="translate(173.015625 0.765625)"/>
       <use xlink:href="#DejaVuSans-31" transform="translate(276.287109 0.765625)"/>
       <use xlink:href="#DejaVuSans-30" transform="translate(339.910156 0.765625)"/>
       <use xlink:href="#DejaVuSans-2212" transform="translate(404.490234 39.046875) scale(0.7)"/>
       <use xlink:href="#DejaVuSans-33" transform="translate(463.142578 39.046875) scale(0.7)"/>
      </g>
     </g>
    </g>
    <g id="ytick_7">
     <g id="line2d_20">
      <g>
       <use xlink:href="#m757dac8dc7" x="340.196408" y="62.791409" style="stroke: #000000; stroke-width: 0.6"/>
      </g>
     </g>
     <g id="text_21">
      <!-- $\mathdefault{1.25\times10^{-3}}$ -->
      <g transform="translate(277.296408 66.590628) scale(0.1 -0.1)">
       <use xlink:href="#DejaVuSans-31" transform="translate(0 0.765625)"/>
       <use xlink:href="#DejaVuSans-2e" transform="translate(63.623047 0.765625)"/>
       <use xlink:href="#DejaVuSans-32" transform="translate(89.910156 0.765625)"/>
       <use xlink:href="#DejaVuSans-35" transform="translate(153.533203 0.765625)"/>
       <use xlink:href="#DejaVuSans-d7" transform="translate(236.638672 0.765625)"/>
       <use xlink:href="#DejaVuSans-31" transform="translate(339.910156 0.765625)"/>
       <use xlink:href="#DejaVuSans-30" transform="translate(403.533203 0.765625)"/>
       <use xlink:href="#DejaVuSans-2212" transform="translate(468.113281 39.046875) scale(0.7)"/>
       <use xlink:href="#DejaVuSans-33" transform="translate(526.765625 39.046875) scale(0.7)"/>
      </g>
     </g>
    </g>
    <g id="ytick_8">
     <g id="line2d_21">
      <g>
       <use xlink:href="#m757dac8dc7" x="340.196408" y="46.751683" style="stroke: #000000; stroke-width: 0.6"/>
      </g>
     </g>
     <g id="text_22">
      <!-- $\mathdefault{1.3\times10^{-3}}$ -->
      <g transform="translate(283.196408 50.550901) scale(0.1 -0.1)">
       <use xlink:href="#DejaVuSans-31" transform="translate(0 0.765625)"/>
       <use xlink:href="#DejaVuSans-2e" transform="translate(63.623047 0.765625)"/>
       <use xlink:href="#DejaVuSans-33" transform="translate(95.410156 0.765625)"/>
       <use xlink:href="#DejaVuSans-d7" transform="translate(178.515625 0.765625)"/>
       <use xlink:href="#DejaVuSans-31" transform="translate(281.787109 0.765625)"/>
       <use xlink:href="#DejaVuSans-30" transform="translate(345.410156 0.765625)"/>
       <use xlink:href="#DejaVuSans-2212" transform="translate(409.990234 39.046875) scale(0.7)"/>
       <use xlink:href="#DejaVuSans-33" transform="translate(468.642578 39.046875) scale(0.7)"/>
      </g>
     </g>
    </g>
    <g id="ytick_9">
     <g id="line2d_22">
      <g>
       <use xlink:href="#m757dac8dc7" x="340.196408" y="31.317375" style="stroke: #000000; stroke-width: 0.6"/>
      </g>
     </g>
     <g id="text_23">
      <!-- $\mathdefault{1.35\times10^{-3}}$ -->
      <g transform="translate(276.796408 35.116594) scale(0.1 -0.1)">
       <use xlink:href="#DejaVuSans-31" transform="translate(0 0.765625)"/>
       <use xlink:href="#DejaVuSans-2e" transform="translate(63.623047 0.765625)"/>
       <use xlink:href="#DejaVuSans-33" transform="translate(95.410156 0.765625)"/>
       <use xlink:href="#DejaVuSans-35" transform="translate(159.033203 0.765625)"/>
       <use xlink:href="#DejaVuSans-d7" transform="translate(242.138672 0.765625)"/>
       <use xlink:href="#DejaVuSans-31" transform="translate(345.410156 0.765625)"/>
       <use xlink:href="#DejaVuSans-30" transform="translate(409.033203 0.765625)"/>
       <use xlink:href="#DejaVuSans-2212" transform="translate(473.613281 39.046875) scale(0.7)"/>
       <use xlink:href="#DejaVuSans-33" transform="translate(532.265625 39.046875) scale(0.7)"/>
      </g>
     </g>
    </g>
   </g>
   <g id="line2d_23">
    <path d="M 349.152227 60.027981 
L 367.063863 62.065457 
L 384.975499 63.970158 
L 402.887135 65.983589 
L 420.798771 67.91755 
L 438.710407 69.778029 
L 456.622043 71.650549 
L 474.53368 73.458455 
L 492.445316 75.259518 
L 510.356952 77.092959 
L 528.268588 78.870263 
" clip-path="url(#p41698e42e2)" style="fill: none; stroke: #000000; stroke-width: 3; stroke-linecap: square"/>
   </g>
   <g id="line2d_24">
    <path d="M 349.152227 117.681014 
L 367.063863 118.430027 
L 384.975499 123.711879 
L 402.887135 130.218643 
L 420.798771 136.047159 
L 438.710407 130.218643 
L 456.622043 131.76481 
L 474.53368 125.996581 
L 492.445316 127.910298 
L 510.356952 138.402025 
L 528.268588 128.6783 
" clip-path="url(#p41698e42e2)" style="fill: none; stroke-dasharray: 11.1,4.8; stroke-dashoffset: 0; stroke: #cd5c5c; stroke-width: 3"/>
   </g>
   <g id="line2d_25">
    <path d="M 349.152227 55.977945 
L 367.063863 65.746577 
L 384.975499 75.754269 
L 402.887135 85.321035 
L 420.798771 86.70617 
L 438.710407 77.446289 
L 456.622043 88.096012 
L 474.53368 84.285254 
L 492.445316 81.535929 
L 510.356952 88.444211 
L 528.268588 86.359446 
" clip-path="url(#p41698e42e2)" style="fill: none; stroke-dasharray: 11.1,4.8; stroke-dashoffset: 0; stroke: #daa520; stroke-width: 3"/>
   </g>
   <g id="patch_6">
    <path d="M 340.196408 151.2 
L 340.196408 26.88 
" style="fill: none; stroke: #000000; stroke-width: 0.8; stroke-linejoin: miter; stroke-linecap: square"/>
   </g>
   <g id="patch_7">
    <path d="M 340.196408 151.2 
L 537.224406 151.2 
" style="fill: none; stroke: #000000; stroke-width: 0.8; stroke-linejoin: miter; stroke-linecap: square"/>
   </g>
   <g id="text_24">
    <!-- Zymo Gut Microbiome, PacBio Hifi -->
    <g transform="translate(336.629782 20.88) scale(0.12 -0.12)">
     <defs>
      <path id="DejaVuSans-75" d="M 544 1381 
L 544 3500 
L 1119 3500 
L 1119 1403 
Q 1119 906 1312 657 
Q 1506 409 1894 409 
Q 2359 409 2629 706 
Q 2900 1003 2900 1516 
L 2900 3500 
L 3475 3500 
L 3475 0 
L 2900 0 
L 2900 538 
Q 2691 219 2414 64 
Q 2138 -91 1772 -91 
Q 1169 -91 856 284 
Q 544 659 544 1381 
z
M 1991 3584 
L 1991 3584 
z
" transform="scale(0.015625)"/>
      <path id="DejaVuSans-74" d="M 1172 4494 
L 1172 3500 
L 2356 3500 
L 2356 3053 
L 1172 3053 
L 1172 1153 
Q 1172 725 1289 603 
Q 1406 481 1766 481 
L 2356 481 
L 2356 0 
L 1766 0 
Q 1100 0 847 248 
Q 594 497 594 1153 
L 594 3053 
L 172 3053 
L 172 3500 
L 594 3500 
L 594 4494 
L 1172 4494 
z
" transform="scale(0.015625)"/>
      <path id="DejaVuSans-4d" d="M 628 4666 
L 1569 4666 
L 2759 1491 
L 3956 4666 
L 4897 4666 
L 4897 0 
L 4281 0 
L 4281 4097 
L 3078 897 
L 2444 897 
L 1241 4097 
L 1241 0 
L 628 0 
L 628 4666 
z
" transform="scale(0.015625)"/>
      <path id="DejaVuSans-63" d="M 3122 3366 
L 3122 2828 
Q 2878 2963 2633 3030 
Q 2388 3097 2138 3097 
Q 1578 3097 1268 2742 
Q 959 2388 959 1747 
Q 959 1106 1268 751 
Q 1578 397 2138 397 
Q 2388 397 2633 464 
Q 2878 531 3122 666 
L 3122 134 
Q 2881 22 2623 -34 
Q 2366 -91 2075 -91 
Q 1284 -91 818 406 
Q 353 903 353 1747 
Q 353 2603 823 3093 
Q 1294 3584 2113 3584 
Q 2378 3584 2631 3529 
Q 2884 3475 3122 3366 
z
" transform="scale(0.015625)"/>
      <path id="DejaVuSans-62" d="M 3116 1747 
Q 3116 2381 2855 2742 
Q 2594 3103 2138 3103 
Q 1681 3103 1420 2742 
Q 1159 2381 1159 1747 
Q 1159 1113 1420 752 
Q 1681 391 2138 391 
Q 2594 391 2855 752 
Q 3116 1113 3116 1747 
z
M 1159 2969 
Q 1341 3281 1617 3432 
Q 1894 3584 2278 3584 
Q 2916 3584 3314 3078 
Q 3713 2572 3713 1747 
Q 3713 922 3314 415 
Q 2916 -91 2278 -91 
Q 1894 -91 1617 61 
Q 1341 213 1159 525 
L 1159 0 
L 581 0 
L 581 4863 
L 1159 4863 
L 1159 2969 
z
" transform="scale(0.015625)"/>
      <path id="DejaVuSans-50" d="M 1259 4147 
L 1259 2394 
L 2053 2394 
Q 2494 2394 2734 2622 
Q 2975 2850 2975 3272 
Q 2975 3691 2734 3919 
Q 2494 4147 2053 4147 
L 1259 4147 
z
M 628 4666 
L 2053 4666 
Q 2838 4666 3239 4311 
Q 3641 3956 3641 3272 
Q 3641 2581 3239 2228 
Q 2838 1875 2053 1875 
L 1259 1875 
L 1259 0 
L 628 0 
L 628 4666 
z
" transform="scale(0.015625)"/>
      <path id="DejaVuSans-42" d="M 1259 2228 
L 1259 519 
L 2272 519 
Q 2781 519 3026 730 
Q 3272 941 3272 1375 
Q 3272 1813 3026 2020 
Q 2781 2228 2272 2228 
L 1259 2228 
z
M 1259 4147 
L 1259 2741 
L 2194 2741 
Q 2656 2741 2882 2914 
Q 3109 3088 3109 3444 
Q 3109 3797 2882 3972 
Q 2656 4147 2194 4147 
L 1259 4147 
z
M 628 4666 
L 2241 4666 
Q 2963 4666 3353 4366 
Q 3744 4066 3744 3513 
Q 3744 3084 3544 2831 
Q 3344 2578 2956 2516 
Q 3422 2416 3680 2098 
Q 3938 1781 3938 1306 
Q 3938 681 3513 340 
Q 3088 0 2303 0 
L 628 0 
L 628 4666 
z
" transform="scale(0.015625)"/>
      <path id="DejaVuSans-48" d="M 628 4666 
L 1259 4666 
L 1259 2753 
L 3553 2753 
L 3553 4666 
L 4184 4666 
L 4184 0 
L 3553 0 
L 3553 2222 
L 1259 2222 
L 1259 0 
L 628 0 
L 628 4666 
z
" transform="scale(0.015625)"/>
      <path id="DejaVuSans-66" d="M 2375 4863 
L 2375 4384 
L 1825 4384 
Q 1516 4384 1395 4259 
Q 1275 4134 1275 3809 
L 1275 3500 
L 2222 3500 
L 2222 3053 
L 1275 3053 
L 1275 0 
L 697 0 
L 697 3053 
L 147 3053 
L 147 3500 
L 697 3500 
L 697 3744 
Q 697 4328 969 4595 
Q 1241 4863 1831 4863 
L 2375 4863 
z
" transform="scale(0.015625)"/>
     </defs>
     <use xlink:href="#DejaVuSans-5a"/>
     <use xlink:href="#DejaVuSans-79" transform="translate(68.505859 0)"/>
     <use xlink:href="#DejaVuSans-6d" transform="translate(127.685547 0)"/>
     <use xlink:href="#DejaVuSans-6f" transform="translate(225.097656 0)"/>
     <use xlink:href="#DejaVuSans-20" transform="translate(286.279297 0)"/>
     <use xlink:href="#DejaVuSans-47" transform="translate(318.066406 0)"/>
     <use xlink:href="#DejaVuSans-75" transform="translate(395.556641 0)"/>
     <use xlink:href="#DejaVuSans-74" transform="translate(458.935547 0)"/>
     <use xlink:href="#DejaVuSans-20" transform="translate(498.144531 0)"/>
     <use xlink:href="#DejaVuSans-4d" transform="translate(529.931641 0)"/>
     <use xlink:href="#DejaVuSans-69" transform="translate(616.210938 0)"/>
     <use xlink:href="#DejaVuSans-63" transform="translate(643.994141 0)"/>
     <use xlink:href="#DejaVuSans-72" transform="translate(698.974609 0)"/>
     <use xlink:href="#DejaVuSans-6f" transform="translate(737.837891 0)"/>
     <use xlink:href="#DejaVuSans-62" transform="translate(799.019531 0)"/>
     <use xlink:href="#DejaVuSans-69" transform="translate(862.496094 0)"/>
     <use xlink:href="#DejaVuSans-6f" transform="translate(890.279297 0)"/>
     <use xlink:href="#DejaVuSans-6d" transform="translate(951.460938 0)"/>
     <use xlink:href="#DejaVuSans-65" transform="translate(1048.873047 0)"/>
     <use xlink:href="#DejaVuSans-2c" transform="translate(1110.396484 0)"/>
     <use xlink:href="#DejaVuSans-20" transform="translate(1142.183594 0)"/>
     <use xlink:href="#DejaVuSans-50" transform="translate(1173.970703 0)"/>
     <use xlink:href="#DejaVuSans-61" transform="translate(1229.773438 0)"/>
     <use xlink:href="#DejaVuSans-63" transform="translate(1291.052734 0)"/>
     <use xlink:href="#DejaVuSans-42" transform="translate(1346.033203 0)"/>
     <use xlink:href="#DejaVuSans-69" transform="translate(1414.636719 0)"/>
     <use xlink:href="#DejaVuSans-6f" transform="translate(1442.419922 0)"/>
     <use xlink:href="#DejaVuSans-20" transform="translate(1503.601562 0)"/>
     <use xlink:href="#DejaVuSans-48" transform="translate(1535.388672 0)"/>
     <use xlink:href="#DejaVuSans-69" transform="translate(1610.583984 0)"/>
     <use xlink:href="#DejaVuSans-66" transform="translate(1638.367188 0)"/>
     <use xlink:href="#DejaVuSans-69" transform="translate(1673.572266 0)"/>
    </g>
   </g>
  </g>
  <g id="axes_3">
   <g id="patch_8">
    <path d="M 606.184205 151.2 
L 803.212203 151.2 
L 803.212203 26.88 
L 606.184205 26.88 
z
" style="fill: #ffffff"/>
   </g>
   <g id="FillBetweenPolyCollection_5">
    <defs>
     <path id="m412e9b1e5d" d="M 615.140023 -148.623781 
L 615.140023 -138.605978 
L 633.05166 -118.983318 
L 650.963296 -124.972006 
L 668.874932 -124.012887 
L 686.786568 -118.715791 
L 704.698204 -119.784195 
L 722.60984 -118.269276 
L 740.521477 -114.486845 
L 758.433113 -106.184365 
L 776.344749 -106.746494 
L 794.256385 -112.574029 
L 794.256385 -122.611227 
L 794.256385 -122.611227 
L 776.344749 -118.090447 
L 758.433113 -118.804998 
L 740.521477 -126.533608 
L 722.60984 -131.24582 
L 704.698204 -129.884099 
L 686.786568 -128.600738 
L 668.874932 -134.618135 
L 650.963296 -134.450591 
L 633.05166 -129.54251 
L 615.140023 -148.623781 
z
"/>
    </defs>
    <g clip-path="url(#p67dd79e3f0)">
     <use xlink:href="#m412e9b1e5d" x="0" y="216" style="fill: #cd5c5c; fill-opacity: 0.3"/>
    </g>
   </g>
   <g id="FillBetweenPolyCollection_6">
    <defs>
     <path id="mc272cef823" d="M 615.140023 -170.962298 
L 615.140023 -157.493604 
L 633.05166 -137.283727 
L 650.963296 -137.366572 
L 668.874932 -144.954006 
L 686.786568 -140.330924 
L 704.698204 -132.853322 
L 722.60984 -135.454179 
L 740.521477 -129.969423 
L 758.433113 -126.274015 
L 776.344749 -124.449305 
L 794.256385 -133.779296 
L 794.256385 -183.469091 
L 794.256385 -183.469091 
L 776.344749 -137.366572 
L 758.433113 -138.193522 
L 740.521477 -140.412769 
L 722.60984 -149.335545 
L 704.698204 -143.907092 
L 686.786568 -154.64903 
L 668.874932 -158.485442 
L 650.963296 -148.386077 
L 633.05166 -148.94037 
L 615.140023 -170.962298 
z
"/>
    </defs>
    <g clip-path="url(#p67dd79e3f0)">
     <use xlink:href="#mc272cef823" x="0" y="216" style="fill: #daa520; fill-opacity: 0.3"/>
    </g>
   </g>
   <g id="matplotlib.axis_5">
    <g id="xtick_11">
     <g id="line2d_26">
      <g>
       <use xlink:href="#m7a29e044ec" x="633.05166" y="151.2" style="stroke: #000000; stroke-width: 0.8"/>
      </g>
     </g>
     <g id="text_25">
      <!-- 22 -->
      <g transform="translate(626.68916 165.798438) scale(0.1 -0.1)">
       <use xlink:href="#DejaVuSans-32"/>
       <use xlink:href="#DejaVuSans-32" transform="translate(63.623047 0)"/>
      </g>
     </g>
    </g>
    <g id="xtick_12">
     <g id="line2d_27">
      <g>
       <use xlink:href="#m7a29e044ec" x="668.874932" y="151.2" style="stroke: #000000; stroke-width: 0.8"/>
      </g>
     </g>
     <g id="text_26">
      <!-- 24 -->
      <g transform="translate(662.512432 165.798438) scale(0.1 -0.1)">
       <use xlink:href="#DejaVuSans-32"/>
       <use xlink:href="#DejaVuSans-34" transform="translate(63.623047 0)"/>
      </g>
     </g>
    </g>
    <g id="xtick_13">
     <g id="line2d_28">
      <g>
       <use xlink:href="#m7a29e044ec" x="704.698204" y="151.2" style="stroke: #000000; stroke-width: 0.8"/>
      </g>
     </g>
     <g id="text_27">
      <!-- 26 -->
      <g transform="translate(698.335704 165.798438) scale(0.1 -0.1)">
       <use xlink:href="#DejaVuSans-32"/>
       <use xlink:href="#DejaVuSans-36" transform="translate(63.623047 0)"/>
      </g>
     </g>
    </g>
    <g id="xtick_14">
     <g id="line2d_29">
      <g>
       <use xlink:href="#m7a29e044ec" x="740.521477" y="151.2" style="stroke: #000000; stroke-width: 0.8"/>
      </g>
     </g>
     <g id="text_28">
      <!-- 28 -->
      <g transform="translate(734.158977 165.798438) scale(0.1 -0.1)">
       <use xlink:href="#DejaVuSans-32"/>
       <use xlink:href="#DejaVuSans-38" transform="translate(63.623047 0)"/>
      </g>
     </g>
    </g>
    <g id="xtick_15">
     <g id="line2d_30">
      <g>
       <use xlink:href="#m7a29e044ec" x="776.344749" y="151.2" style="stroke: #000000; stroke-width: 0.8"/>
      </g>
     </g>
     <g id="text_29">
      <!-- 30 -->
      <g transform="translate(769.982249 165.798438) scale(0.1 -0.1)">
       <use xlink:href="#DejaVuSans-33"/>
       <use xlink:href="#DejaVuSans-30" transform="translate(63.623047 0)"/>
      </g>
     </g>
    </g>
    <g id="text_30">
     <!-- $t$ -->
     <g transform="translate(702.698204 179.476563) scale(0.1 -0.1)">
      <use xlink:href="#DejaVuSans-Oblique-74" transform="translate(0 0.78125)"/>
     </g>
    </g>
   </g>
   <g id="matplotlib.axis_6">
    <g id="ytick_10">
     <g id="line2d_31">
      <g>
       <use xlink:href="#m757dac8dc7" x="606.184205" y="137.033047" style="stroke: #000000; stroke-width: 0.6"/>
      </g>
     </g>
     <g id="text_31">
      <!-- $\mathdefault{2.4\times10^{-3}}$ -->
      <g transform="translate(549.184205 140.832266) scale(0.1 -0.1)">
       <use xlink:href="#DejaVuSans-32" transform="translate(0 0.765625)"/>
       <use xlink:href="#DejaVuSans-2e" transform="translate(63.623047 0.765625)"/>
       <use xlink:href="#DejaVuSans-34" transform="translate(95.410156 0.765625)"/>
       <use xlink:href="#DejaVuSans-d7" transform="translate(178.515625 0.765625)"/>
       <use xlink:href="#DejaVuSans-31" transform="translate(281.787109 0.765625)"/>
       <use xlink:href="#DejaVuSans-30" transform="translate(345.410156 0.765625)"/>
       <use xlink:href="#DejaVuSans-2212" transform="translate(409.990234 39.046875) scale(0.7)"/>
       <use xlink:href="#DejaVuSans-33" transform="translate(468.642578 39.046875) scale(0.7)"/>
      </g>
     </g>
    </g>
    <g id="ytick_11">
     <g id="line2d_32">
      <g>
       <use xlink:href="#m757dac8dc7" x="606.184205" y="116.950613" style="stroke: #000000; stroke-width: 0.6"/>
      </g>
     </g>
     <g id="text_32">
      <!-- $\mathdefault{2.6\times10^{-3}}$ -->
      <g transform="translate(549.184205 120.749831) scale(0.1 -0.1)">
       <use xlink:href="#DejaVuSans-32" transform="translate(0 0.765625)"/>
       <use xlink:href="#DejaVuSans-2e" transform="translate(63.623047 0.765625)"/>
       <use xlink:href="#DejaVuSans-36" transform="translate(95.410156 0.765625)"/>
       <use xlink:href="#DejaVuSans-d7" transform="translate(178.515625 0.765625)"/>
       <use xlink:href="#DejaVuSans-31" transform="translate(281.787109 0.765625)"/>
       <use xlink:href="#DejaVuSans-30" transform="translate(345.410156 0.765625)"/>
       <use xlink:href="#DejaVuSans-2212" transform="translate(409.990234 39.046875) scale(0.7)"/>
       <use xlink:href="#DejaVuSans-33" transform="translate(468.642578 39.046875) scale(0.7)"/>
      </g>
     </g>
    </g>
    <g id="ytick_12">
     <g id="line2d_33">
      <g>
       <use xlink:href="#m757dac8dc7" x="606.184205" y="98.357183" style="stroke: #000000; stroke-width: 0.6"/>
      </g>
     </g>
     <g id="text_33">
      <!-- $\mathdefault{2.8\times10^{-3}}$ -->
      <g transform="translate(549.384205 102.156401) scale(0.1 -0.1)">
       <use xlink:href="#DejaVuSans-32" transform="translate(0 0.765625)"/>
       <use xlink:href="#DejaVuSans-2e" transform="translate(63.623047 0.765625)"/>
       <use xlink:href="#DejaVuSans-38" transform="translate(92.785156 0.765625)"/>
       <use xlink:href="#DejaVuSans-d7" transform="translate(175.890625 0.765625)"/>
       <use xlink:href="#DejaVuSans-31" transform="translate(279.162109 0.765625)"/>
       <use xlink:href="#DejaVuSans-30" transform="translate(342.785156 0.765625)"/>
       <use xlink:href="#DejaVuSans-2212" transform="translate(407.365234 39.046875) scale(0.7)"/>
       <use xlink:href="#DejaVuSans-33" transform="translate(466.017578 39.046875) scale(0.7)"/>
      </g>
     </g>
    </g>
    <g id="ytick_13">
     <g id="line2d_34">
      <g>
       <use xlink:href="#m757dac8dc7" x="606.184205" y="81.047113" style="stroke: #000000; stroke-width: 0.6"/>
      </g>
     </g>
     <g id="text_34">
      <!-- $\mathdefault{3\times10^{-3}}$ -->
      <g transform="translate(558.684205 84.846332) scale(0.1 -0.1)">
       <use xlink:href="#DejaVuSans-33" transform="translate(0 0.765625)"/>
       <use xlink:href="#DejaVuSans-d7" transform="translate(83.105469 0.765625)"/>
       <use xlink:href="#DejaVuSans-31" transform="translate(186.376953 0.765625)"/>
       <use xlink:href="#DejaVuSans-30" transform="translate(250 0.765625)"/>
       <use xlink:href="#DejaVuSans-2212" transform="translate(314.580078 39.046875) scale(0.7)"/>
       <use xlink:href="#DejaVuSans-33" transform="translate(373.232422 39.046875) scale(0.7)"/>
      </g>
     </g>
    </g>
    <g id="ytick_14">
     <g id="line2d_35">
      <g>
       <use xlink:href="#m757dac8dc7" x="606.184205" y="64.854625" style="stroke: #000000; stroke-width: 0.6"/>
      </g>
     </g>
     <g id="text_35">
      <!-- $\mathdefault{3.2\times10^{-3}}$ -->
      <g transform="translate(549.684205 68.653843) scale(0.1 -0.1)">
       <use xlink:href="#DejaVuSans-33" transform="translate(0 0.765625)"/>
       <use xlink:href="#DejaVuSans-2e" transform="translate(63.623047 0.765625)"/>
       <use xlink:href="#DejaVuSans-32" transform="translate(89.910156 0.765625)"/>
       <use xlink:href="#DejaVuSans-d7" transform="translate(173.015625 0.765625)"/>
       <use xlink:href="#DejaVuSans-31" transform="translate(276.287109 0.765625)"/>
       <use xlink:href="#DejaVuSans-30" transform="translate(339.910156 0.765625)"/>
       <use xlink:href="#DejaVuSans-2212" transform="translate(404.490234 39.046875) scale(0.7)"/>
       <use xlink:href="#DejaVuSans-33" transform="translate(463.142578 39.046875) scale(0.7)"/>
      </g>
     </g>
    </g>
    <g id="ytick_15">
     <g id="line2d_36">
      <g>
       <use xlink:href="#m757dac8dc7" x="606.184205" y="49.64412" style="stroke: #000000; stroke-width: 0.6"/>
      </g>
     </g>
     <g id="text_36">
      <!-- $\mathdefault{3.4\times10^{-3}}$ -->
      <g transform="translate(549.184205 53.443338) scale(0.1 -0.1)">
       <use xlink:href="#DejaVuSans-33" transform="translate(0 0.765625)"/>
       <use xlink:href="#DejaVuSans-2e" transform="translate(63.623047 0.765625)"/>
       <use xlink:href="#DejaVuSans-34" transform="translate(95.410156 0.765625)"/>
       <use xlink:href="#DejaVuSans-d7" transform="translate(178.515625 0.765625)"/>
       <use xlink:href="#DejaVuSans-31" transform="translate(281.787109 0.765625)"/>
       <use xlink:href="#DejaVuSans-30" transform="translate(345.410156 0.765625)"/>
       <use xlink:href="#DejaVuSans-2212" transform="translate(409.990234 39.046875) scale(0.7)"/>
       <use xlink:href="#DejaVuSans-33" transform="translate(468.642578 39.046875) scale(0.7)"/>
      </g>
     </g>
    </g>
    <g id="ytick_16">
     <g id="line2d_37">
      <g>
       <use xlink:href="#m757dac8dc7" x="606.184205" y="35.303274" style="stroke: #000000; stroke-width: 0.6"/>
      </g>
     </g>
     <g id="text_37">
      <!-- $\mathdefault{3.6\times10^{-3}}$ -->
      <g transform="translate(549.184205 39.102493) scale(0.1 -0.1)">
       <use xlink:href="#DejaVuSans-33" transform="translate(0 0.765625)"/>
       <use xlink:href="#DejaVuSans-2e" transform="translate(63.623047 0.765625)"/>
       <use xlink:href="#DejaVuSans-36" transform="translate(95.410156 0.765625)"/>
       <use xlink:href="#DejaVuSans-d7" transform="translate(178.515625 0.765625)"/>
       <use xlink:href="#DejaVuSans-31" transform="translate(281.787109 0.765625)"/>
       <use xlink:href="#DejaVuSans-30" transform="translate(345.410156 0.765625)"/>
       <use xlink:href="#DejaVuSans-2212" transform="translate(409.990234 39.046875) scale(0.7)"/>
       <use xlink:href="#DejaVuSans-33" transform="translate(468.642578 39.046875) scale(0.7)"/>
      </g>
     </g>
    </g>
   </g>
   <g id="line2d_38">
    <path d="M 615.140023 122.830427 
L 633.05166 126.379054 
L 650.963296 129.321993 
L 668.874932 132.967254 
L 686.786568 135.193921 
L 704.698204 137.165695 
L 722.60984 138.814865 
L 740.521477 140.216111 
L 758.433113 141.983391 
L 776.344749 144.306532 
L 794.256385 145.549091 
" clip-path="url(#p67dd79e3f0)" style="fill: none; stroke: #000000; stroke-width: 3; stroke-linecap: square"/>
   </g>
   <g id="line2d_39">
    <path d="M 615.140023 72.658445 
L 633.05166 92.074487 
L 650.963296 87.05639 
L 668.874932 87.227768 
L 686.786568 92.161893 
L 704.698204 91.289208 
L 722.60984 90.419549 
L 740.521477 95.240416 
L 758.433113 103.425971 
L 776.344749 103.700425 
L 794.256385 97.909553 
" clip-path="url(#p67dd79e3f0)" style="fill: none; stroke-dasharray: 11.1,4.8; stroke-dashoffset: 0; stroke: #cd5c5c; stroke-width: 3"/>
   </g>
   <g id="line2d_40">
    <path d="M 615.140023 53.286289 
L 633.05166 73.144208 
L 650.963296 73.063182 
L 668.874932 64.776232 
L 686.786568 69.284186 
L 704.698204 77.97165 
L 722.60984 72.73934 
L 740.521477 80.128842 
L 758.433113 84.839072 
L 776.344749 85.945282 
L 794.256385 63.369332 
" clip-path="url(#p67dd79e3f0)" style="fill: none; stroke-dasharray: 11.1,4.8; stroke-dashoffset: 0; stroke: #daa520; stroke-width: 3"/>
   </g>
   <g id="patch_9">
    <path d="M 606.184205 151.2 
L 606.184205 26.88 
" style="fill: none; stroke: #000000; stroke-width: 0.8; stroke-linejoin: miter; stroke-linecap: square"/>
   </g>
   <g id="patch_10">
    <path d="M 606.184205 151.2 
L 803.212203 151.2 
" style="fill: none; stroke: #000000; stroke-width: 0.8; stroke-linejoin: miter; stroke-linecap: square"/>
   </g>
   <g id="text_38">
    <!-- B. subtilis, Illumina -->
    <g transform="translate(647.841642 20.88) scale(0.12 -0.12)">
     <defs>
      <path id="DejaVuSans-73" d="M 2834 3397 
L 2834 2853 
Q 2591 2978 2328 3040 
Q 2066 3103 1784 3103 
Q 1356 3103 1142 2972 
Q 928 2841 928 2578 
Q 928 2378 1081 2264 
Q 1234 2150 1697 2047 
L 1894 2003 
Q 2506 1872 2764 1633 
Q 3022 1394 3022 966 
Q 3022 478 2636 193 
Q 2250 -91 1575 -91 
Q 1294 -91 989 -36 
Q 684 19 347 128 
L 347 722 
Q 666 556 975 473 
Q 1284 391 1588 391 
Q 1994 391 2212 530 
Q 2431 669 2431 922 
Q 2431 1156 2273 1281 
Q 2116 1406 1581 1522 
L 1381 1569 
Q 847 1681 609 1914 
Q 372 2147 372 2553 
Q 372 3047 722 3315 
Q 1072 3584 1716 3584 
Q 2034 3584 2315 3537 
Q 2597 3491 2834 3397 
z
" transform="scale(0.015625)"/>
      <path id="DejaVuSans-6c" d="M 603 4863 
L 1178 4863 
L 1178 0 
L 603 0 
L 603 4863 
z
" transform="scale(0.015625)"/>
     </defs>
     <use xlink:href="#DejaVuSans-42"/>
     <use xlink:href="#DejaVuSans-2e" transform="translate(68.603516 0)"/>
     <use xlink:href="#DejaVuSans-20" transform="translate(100.390625 0)"/>
     <use xlink:href="#DejaVuSans-73" transform="translate(132.177734 0)"/>
     <use xlink:href="#DejaVuSans-75" transform="translate(184.277344 0)"/>
     <use xlink:href="#DejaVuSans-62" transform="translate(247.65625 0)"/>
     <use xlink:href="#DejaVuSans-74" transform="translate(311.132812 0)"/>
     <use xlink:href="#DejaVuSans-69" transform="translate(350.341797 0)"/>
     <use xlink:href="#DejaVuSans-6c" transform="translate(378.125 0)"/>
     <use xlink:href="#DejaVuSans-69" transform="translate(405.908203 0)"/>
     <use xlink:href="#DejaVuSans-73" transform="translate(433.691406 0)"/>
     <use xlink:href="#DejaVuSans-2c" transform="translate(485.791016 0)"/>
     <use xlink:href="#DejaVuSans-20" transform="translate(517.578125 0)"/>
     <use xlink:href="#DejaVuSans-49" transform="translate(549.365234 0)"/>
     <use xlink:href="#DejaVuSans-6c" transform="translate(578.857422 0)"/>
     <use xlink:href="#DejaVuSans-6c" transform="translate(606.640625 0)"/>
     <use xlink:href="#DejaVuSans-75" transform="translate(634.423828 0)"/>
     <use xlink:href="#DejaVuSans-6d" transform="translate(697.802734 0)"/>
     <use xlink:href="#DejaVuSans-69" transform="translate(795.214844 0)"/>
     <use xlink:href="#DejaVuSans-6e" transform="translate(822.998047 0)"/>
     <use xlink:href="#DejaVuSans-61" transform="translate(886.376953 0)"/>
    </g>
   </g>
  </g>
  <g id="axes_4">
   <g id="patch_11">
    <path d="M 872.172002 151.2 
L 1069.2 151.2 
L 1069.2 26.88 
L 872.172002 26.88 
z
" style="fill: #ffffff"/>
   </g>
   <g id="FillBetweenPolyCollection_7">
    <defs>
     <path id="ma6c0141af0" d="M 881.12782 -165.531709 
L 881.12782 -144.848974 
L 899.039457 -138.201446 
L 916.951093 -142.682373 
L 934.862729 -119.609253 
L 952.774365 -124.228724 
L 970.686001 -126.630055 
L 988.597637 -131.770816 
L 1006.509273 -116.053699 
L 1024.42091 -90.655978 
L 1042.332546 -92.57014 
L 1060.244182 -70.450909 
L 1060.244182 -104.351259 
L 1060.244182 -104.351259 
L 1042.332546 -129.419759 
L 1024.42091 -121.447767 
L 1006.509273 -145.650278 
L 988.597637 -158.576999 
L 970.686001 -155.3411 
L 952.774365 -152.69016 
L 934.862729 -145.753615 
L 916.951093 -168.534886 
L 899.039457 -161.808534 
L 881.12782 -165.531709 
z
"/>
    </defs>
    <g clip-path="url(#pbf362f6e56)">
     <use xlink:href="#ma6c0141af0" x="0" y="216" style="fill: #cd5c5c; fill-opacity: 0.3"/>
    </g>
   </g>
   <g id="FillBetweenPolyCollection_8">
    <defs>
     <path id="m2b8ba9d357" d="M 881.12782 -174.96526 
L 881.12782 -144.650681 
L 899.039457 -137.314475 
L 916.951093 -151.562388 
L 934.862729 -138.722742 
L 952.774365 -138.505576 
L 970.686001 -136.313299 
L 988.597637 -146.209861 
L 1006.509273 -125.236026 
L 1024.42091 -108.55325 
L 1042.332546 -127.149998 
L 1060.244182 -111.809535 
L 1060.244182 -148.66747 
L 1060.244182 -148.66747 
L 1042.332546 -163.385801 
L 1024.42091 -150.629943 
L 1006.509273 -157.618611 
L 988.597637 -181.510097 
L 970.686001 -172.327527 
L 952.774365 -173.093933 
L 934.862729 -168.359028 
L 916.951093 -183.469091 
L 899.039457 -165.523305 
L 881.12782 -174.96526 
z
"/>
    </defs>
    <g clip-path="url(#pbf362f6e56)">
     <use xlink:href="#m2b8ba9d357" x="0" y="216" style="fill: #daa520; fill-opacity: 0.3"/>
    </g>
   </g>
   <g id="matplotlib.axis_7">
    <g id="xtick_16">
     <g id="line2d_41">
      <g>
       <use xlink:href="#m7a29e044ec" x="899.039457" y="151.2" style="stroke: #000000; stroke-width: 0.8"/>
      </g>
     </g>
     <g id="text_39">
      <!-- 22 -->
      <g transform="translate(892.676957 165.798438) scale(0.1 -0.1)">
       <use xlink:href="#DejaVuSans-32"/>
       <use xlink:href="#DejaVuSans-32" transform="translate(63.623047 0)"/>
      </g>
     </g>
    </g>
    <g id="xtick_17">
     <g id="line2d_42">
      <g>
       <use xlink:href="#m7a29e044ec" x="934.862729" y="151.2" style="stroke: #000000; stroke-width: 0.8"/>
      </g>
     </g>
     <g id="text_40">
      <!-- 24 -->
      <g transform="translate(928.500229 165.798438) scale(0.1 -0.1)">
       <use xlink:href="#DejaVuSans-32"/>
       <use xlink:href="#DejaVuSans-34" transform="translate(63.623047 0)"/>
      </g>
     </g>
    </g>
    <g id="xtick_18">
     <g id="line2d_43">
      <g>
       <use xlink:href="#m7a29e044ec" x="970.686001" y="151.2" style="stroke: #000000; stroke-width: 0.8"/>
      </g>
     </g>
     <g id="text_41">
      <!-- 26 -->
      <g transform="translate(964.323501 165.798438) scale(0.1 -0.1)">
       <use xlink:href="#DejaVuSans-32"/>
       <use xlink:href="#DejaVuSans-36" transform="translate(63.623047 0)"/>
      </g>
     </g>
    </g>
    <g id="xtick_19">
     <g id="line2d_44">
      <g>
       <use xlink:href="#m7a29e044ec" x="1006.509273" y="151.2" style="stroke: #000000; stroke-width: 0.8"/>
      </g>
     </g>
     <g id="text_42">
      <!-- 28 -->
      <g transform="translate(1000.146773 165.798438) scale(0.1 -0.1)">
       <use xlink:href="#DejaVuSans-32"/>
       <use xlink:href="#DejaVuSans-38" transform="translate(63.623047 0)"/>
      </g>
     </g>
    </g>
    <g id="xtick_20">
     <g id="line2d_45">
      <g>
       <use xlink:href="#m7a29e044ec" x="1042.332546" y="151.2" style="stroke: #000000; stroke-width: 0.8"/>
      </g>
     </g>
     <g id="text_43">
      <!-- 30 -->
      <g transform="translate(1035.970046 165.798438) scale(0.1 -0.1)">
       <use xlink:href="#DejaVuSans-33"/>
       <use xlink:href="#DejaVuSans-30" transform="translate(63.623047 0)"/>
      </g>
     </g>
    </g>
    <g id="text_44">
     <!-- $t$ -->
     <g transform="translate(968.686001 179.476563) scale(0.1 -0.1)">
      <use xlink:href="#DejaVuSans-Oblique-74" transform="translate(0 0.78125)"/>
     </g>
    </g>
   </g>
   <g id="matplotlib.axis_8">
    <g id="ytick_17">
     <g id="line2d_46">
      <g>
       <use xlink:href="#m757dac8dc7" x="872.172002" y="147.724334" style="stroke: #000000; stroke-width: 0.6"/>
      </g>
     </g>
     <g id="text_45">
      <!-- $\mathdefault{8.6\times10^{-2}}$ -->
      <g transform="translate(815.172002 151.523553) scale(0.1 -0.1)">
       <use xlink:href="#DejaVuSans-38" transform="translate(0 0.765625)"/>
       <use xlink:href="#DejaVuSans-2e" transform="translate(63.623047 0.765625)"/>
       <use xlink:href="#DejaVuSans-36" transform="translate(95.410156 0.765625)"/>
       <use xlink:href="#DejaVuSans-d7" transform="translate(178.515625 0.765625)"/>
       <use xlink:href="#DejaVuSans-31" transform="translate(281.787109 0.765625)"/>
       <use xlink:href="#DejaVuSans-30" transform="translate(345.410156 0.765625)"/>
       <use xlink:href="#DejaVuSans-2212" transform="translate(409.990234 39.046875) scale(0.7)"/>
       <use xlink:href="#DejaVuSans-32" transform="translate(468.642578 39.046875) scale(0.7)"/>
      </g>
     </g>
    </g>
    <g id="ytick_18">
     <g id="line2d_47">
      <g>
       <use xlink:href="#m757dac8dc7" x="872.172002" y="129.000776" style="stroke: #000000; stroke-width: 0.6"/>
      </g>
     </g>
     <g id="text_46">
      <!-- $\mathdefault{8.8\times10^{-2}}$ -->
      <g transform="translate(815.372002 132.799994) scale(0.1 -0.1)">
       <use xlink:href="#DejaVuSans-38" transform="translate(0 0.765625)"/>
       <use xlink:href="#DejaVuSans-2e" transform="translate(63.623047 0.765625)"/>
       <use xlink:href="#DejaVuSans-38" transform="translate(92.785156 0.765625)"/>
       <use xlink:href="#DejaVuSans-d7" transform="translate(175.890625 0.765625)"/>
       <use xlink:href="#DejaVuSans-31" transform="translate(279.162109 0.765625)"/>
       <use xlink:href="#DejaVuSans-30" transform="translate(342.785156 0.765625)"/>
       <use xlink:href="#DejaVuSans-2212" transform="translate(407.365234 39.046875) scale(0.7)"/>
       <use xlink:href="#DejaVuSans-32" transform="translate(466.017578 39.046875) scale(0.7)"/>
      </g>
     </g>
    </g>
    <g id="ytick_19">
     <g id="line2d_48">
      <g>
       <use xlink:href="#m757dac8dc7" x="872.172002" y="110.698007" style="stroke: #000000; stroke-width: 0.6"/>
      </g>
     </g>
     <g id="text_47">
      <!-- $\mathdefault{9\times10^{-2}}$ -->
      <g transform="translate(824.672002 114.497226) scale(0.1 -0.1)">
       <defs>
        <path id="DejaVuSans-39" d="M 703 97 
L 703 672 
Q 941 559 1184 500 
Q 1428 441 1663 441 
Q 2288 441 2617 861 
Q 2947 1281 2994 2138 
Q 2813 1869 2534 1725 
Q 2256 1581 1919 1581 
Q 1219 1581 811 2004 
Q 403 2428 403 3163 
Q 403 3881 828 4315 
Q 1253 4750 1959 4750 
Q 2769 4750 3195 4129 
Q 3622 3509 3622 2328 
Q 3622 1225 3098 567 
Q 2575 -91 1691 -91 
Q 1453 -91 1209 -44 
Q 966 3 703 97 
z
M 1959 2075 
Q 2384 2075 2632 2365 
Q 2881 2656 2881 3163 
Q 2881 3666 2632 3958 
Q 2384 4250 1959 4250 
Q 1534 4250 1286 3958 
Q 1038 3666 1038 3163 
Q 1038 2656 1286 2365 
Q 1534 2075 1959 2075 
z
" transform="scale(0.015625)"/>
       </defs>
       <use xlink:href="#DejaVuSans-39" transform="translate(0 0.765625)"/>
       <use xlink:href="#DejaVuSans-d7" transform="translate(83.105469 0.765625)"/>
       <use xlink:href="#DejaVuSans-31" transform="translate(186.376953 0.765625)"/>
       <use xlink:href="#DejaVuSans-30" transform="translate(250 0.765625)"/>
       <use xlink:href="#DejaVuSans-2212" transform="translate(314.580078 39.046875) scale(0.7)"/>
       <use xlink:href="#DejaVuSans-32" transform="translate(373.232422 39.046875) scale(0.7)"/>
      </g>
     </g>
    </g>
    <g id="ytick_20">
     <g id="line2d_49">
      <g>
       <use xlink:href="#m757dac8dc7" x="872.172002" y="92.79753" style="stroke: #000000; stroke-width: 0.6"/>
      </g>
     </g>
     <g id="text_48">
      <!-- $\mathdefault{9.2\times10^{-2}}$ -->
      <g transform="translate(815.672002 96.596749) scale(0.1 -0.1)">
       <use xlink:href="#DejaVuSans-39" transform="translate(0 0.765625)"/>
       <use xlink:href="#DejaVuSans-2e" transform="translate(63.623047 0.765625)"/>
       <use xlink:href="#DejaVuSans-32" transform="translate(89.910156 0.765625)"/>
       <use xlink:href="#DejaVuSans-d7" transform="translate(173.015625 0.765625)"/>
       <use xlink:href="#DejaVuSans-31" transform="translate(276.287109 0.765625)"/>
       <use xlink:href="#DejaVuSans-30" transform="translate(339.910156 0.765625)"/>
       <use xlink:href="#DejaVuSans-2212" transform="translate(404.490234 39.046875) scale(0.7)"/>
       <use xlink:href="#DejaVuSans-32" transform="translate(463.142578 39.046875) scale(0.7)"/>
      </g>
     </g>
    </g>
    <g id="ytick_21">
     <g id="line2d_50">
      <g>
       <use xlink:href="#m757dac8dc7" x="872.172002" y="75.28204" style="stroke: #000000; stroke-width: 0.6"/>
      </g>
     </g>
     <g id="text_49">
      <!-- $\mathdefault{9.4\times10^{-2}}$ -->
      <g transform="translate(815.172002 79.081258) scale(0.1 -0.1)">
       <use xlink:href="#DejaVuSans-39" transform="translate(0 0.765625)"/>
       <use xlink:href="#DejaVuSans-2e" transform="translate(63.623047 0.765625)"/>
       <use xlink:href="#DejaVuSans-34" transform="translate(95.410156 0.765625)"/>
       <use xlink:href="#DejaVuSans-d7" transform="translate(178.515625 0.765625)"/>
       <use xlink:href="#DejaVuSans-31" transform="translate(281.787109 0.765625)"/>
       <use xlink:href="#DejaVuSans-30" transform="translate(345.410156 0.765625)"/>
       <use xlink:href="#DejaVuSans-2212" transform="translate(409.990234 39.046875) scale(0.7)"/>
       <use xlink:href="#DejaVuSans-32" transform="translate(468.642578 39.046875) scale(0.7)"/>
      </g>
     </g>
    </g>
    <g id="ytick_22">
     <g id="line2d_51">
      <g>
       <use xlink:href="#m757dac8dc7" x="872.172002" y="58.135324" style="stroke: #000000; stroke-width: 0.6"/>
      </g>
     </g>
     <g id="text_50">
      <!-- $\mathdefault{9.6\times10^{-2}}$ -->
      <g transform="translate(815.172002 61.934543) scale(0.1 -0.1)">
       <use xlink:href="#DejaVuSans-39" transform="translate(0 0.765625)"/>
       <use xlink:href="#DejaVuSans-2e" transform="translate(63.623047 0.765625)"/>
       <use xlink:href="#DejaVuSans-36" transform="translate(95.410156 0.765625)"/>
       <use xlink:href="#DejaVuSans-d7" transform="translate(178.515625 0.765625)"/>
       <use xlink:href="#DejaVuSans-31" transform="translate(281.787109 0.765625)"/>
       <use xlink:href="#DejaVuSans-30" transform="translate(345.410156 0.765625)"/>
       <use xlink:href="#DejaVuSans-2212" transform="translate(409.990234 39.046875) scale(0.7)"/>
       <use xlink:href="#DejaVuSans-32" transform="translate(468.642578 39.046875) scale(0.7)"/>
      </g>
     </g>
    </g>
    <g id="ytick_23">
     <g id="line2d_52">
      <g>
       <use xlink:href="#m757dac8dc7" x="872.172002" y="41.342174" style="stroke: #000000; stroke-width: 0.6"/>
      </g>
     </g>
     <g id="text_51">
      <!-- $\mathdefault{9.8\times10^{-2}}$ -->
      <g transform="translate(815.372002 45.141393) scale(0.1 -0.1)">
       <use xlink:href="#DejaVuSans-39" transform="translate(0 0.765625)"/>
       <use xlink:href="#DejaVuSans-2e" transform="translate(63.623047 0.765625)"/>
       <use xlink:href="#DejaVuSans-38" transform="translate(92.785156 0.765625)"/>
       <use xlink:href="#DejaVuSans-d7" transform="translate(175.890625 0.765625)"/>
       <use xlink:href="#DejaVuSans-31" transform="translate(279.162109 0.765625)"/>
       <use xlink:href="#DejaVuSans-30" transform="translate(342.785156 0.765625)"/>
       <use xlink:href="#DejaVuSans-2212" transform="translate(407.365234 39.046875) scale(0.7)"/>
       <use xlink:href="#DejaVuSans-32" transform="translate(466.017578 39.046875) scale(0.7)"/>
      </g>
     </g>
    </g>
   </g>
   <g id="line2d_53">
    <path d="M 881.12782 54.311998 
L 899.039457 58.505061 
L 916.951093 62.309748 
L 934.862729 66.101401 
L 952.774365 69.707139 
L 970.686001 73.089546 
L 988.597637 76.428822 
L 1006.509273 79.497566 
L 1024.42091 82.433763 
L 1042.332546 85.373703 
L 1060.244182 88.312201 
" clip-path="url(#pbf362f6e56)" style="fill: none; stroke: #000000; stroke-width: 3; stroke-linecap: square"/>
   </g>
   <g id="line2d_54">
    <path d="M 881.12782 61.663707 
L 899.039457 67.109478 
L 916.951093 59.578838 
L 934.862729 83.274908 
L 952.774365 77.607373 
L 970.686001 74.286261 
L 988.597637 70.797666 
L 1006.509273 86.527531 
L 1024.42091 110.236623 
L 1042.332546 108.565163 
L 1060.244182 128.926739 
" clip-path="url(#pbf362f6e56)" style="fill: none; stroke-dasharray: 11.1,4.8; stroke-dashoffset: 0; stroke: #cd5c5c; stroke-width: 3"/>
   </g>
   <g id="line2d_55">
    <path d="M 881.12782 56.821405 
L 899.039457 63.933339 
L 916.951093 49.326114 
L 934.862729 63.976062 
L 952.774365 60.276037 
L 970.686001 62.712413 
L 988.597637 54.639055 
L 1006.509273 73.732615 
L 1024.42091 83.782549 
L 1042.332546 72.842381 
L 1060.244182 88.110315 
" clip-path="url(#pbf362f6e56)" style="fill: none; stroke-dasharray: 11.1,4.8; stroke-dashoffset: 0; stroke: #daa520; stroke-width: 3"/>
   </g>
   <g id="patch_12">
    <path d="M 872.172002 151.2 
L 872.172002 26.88 
" style="fill: none; stroke: #000000; stroke-width: 0.8; stroke-linejoin: miter; stroke-linecap: square"/>
   </g>
   <g id="patch_13">
    <path d="M 872.172002 151.2 
L 1069.2 151.2 
" style="fill: none; stroke: #000000; stroke-width: 0.8; stroke-linejoin: miter; stroke-linecap: square"/>
   </g>
   <g id="text_52">
    <!-- B. subtilis, PacBio RSII -->
    <g transform="translate(904.522876 20.88) scale(0.12 -0.12)">
     <defs>
      <path id="DejaVuSans-52" d="M 2841 2188 
Q 3044 2119 3236 1894 
Q 3428 1669 3622 1275 
L 4263 0 
L 3584 0 
L 2988 1197 
Q 2756 1666 2539 1819 
Q 2322 1972 1947 1972 
L 1259 1972 
L 1259 0 
L 628 0 
L 628 4666 
L 2053 4666 
Q 2853 4666 3247 4331 
Q 3641 3997 3641 3322 
Q 3641 2881 3436 2590 
Q 3231 2300 2841 2188 
z
M 1259 4147 
L 1259 2491 
L 2053 2491 
Q 2509 2491 2742 2702 
Q 2975 2913 2975 3322 
Q 2975 3731 2742 3939 
Q 2509 4147 2053 4147 
L 1259 4147 
z
" transform="scale(0.015625)"/>
      <path id="DejaVuSans-53" d="M 3425 4513 
L 3425 3897 
Q 3066 4069 2747 4153 
Q 2428 4238 2131 4238 
Q 1616 4238 1336 4038 
Q 1056 3838 1056 3469 
Q 1056 3159 1242 3001 
Q 1428 2844 1947 2747 
L 2328 2669 
Q 3034 2534 3370 2195 
Q 3706 1856 3706 1288 
Q 3706 609 3251 259 
Q 2797 -91 1919 -91 
Q 1588 -91 1214 -16 
Q 841 59 441 206 
L 441 856 
Q 825 641 1194 531 
Q 1563 422 1919 422 
Q 2459 422 2753 634 
Q 3047 847 3047 1241 
Q 3047 1584 2836 1778 
Q 2625 1972 2144 2069 
L 1759 2144 
Q 1053 2284 737 2584 
Q 422 2884 422 3419 
Q 422 4038 858 4394 
Q 1294 4750 2059 4750 
Q 2388 4750 2728 4690 
Q 3069 4631 3425 4513 
z
" transform="scale(0.015625)"/>
     </defs>
     <use xlink:href="#DejaVuSans-42"/>
     <use xlink:href="#DejaVuSans-2e" transform="translate(68.603516 0)"/>
     <use xlink:href="#DejaVuSans-20" transform="translate(100.390625 0)"/>
     <use xlink:href="#DejaVuSans-73" transform="translate(132.177734 0)"/>
     <use xlink:href="#DejaVuSans-75" transform="translate(184.277344 0)"/>
     <use xlink:href="#DejaVuSans-62" transform="translate(247.65625 0)"/>
     <use xlink:href="#DejaVuSans-74" transform="translate(311.132812 0)"/>
     <use xlink:href="#DejaVuSans-69" transform="translate(350.341797 0)"/>
     <use xlink:href="#DejaVuSans-6c" transform="translate(378.125 0)"/>
     <use xlink:href="#DejaVuSans-69" transform="translate(405.908203 0)"/>
     <use xlink:href="#DejaVuSans-73" transform="translate(433.691406 0)"/>
     <use xlink:href="#DejaVuSans-2c" transform="translate(485.791016 0)"/>
     <use xlink:href="#DejaVuSans-20" transform="translate(517.578125 0)"/>
     <use xlink:href="#DejaVuSans-50" transform="translate(549.365234 0)"/>
     <use xlink:href="#DejaVuSans-61" transform="translate(605.167969 0)"/>
     <use xlink:href="#DejaVuSans-63" transform="translate(666.447266 0)"/>
     <use xlink:href="#DejaVuSans-42" transform="translate(721.427734 0)"/>
     <use xlink:href="#DejaVuSans-69" transform="translate(790.03125 0)"/>
     <use xlink:href="#DejaVuSans-6f" transform="translate(817.814453 0)"/>
     <use xlink:href="#DejaVuSans-20" transform="translate(878.996094 0)"/>
     <use xlink:href="#DejaVuSans-52" transform="translate(910.783203 0)"/>
     <use xlink:href="#DejaVuSans-53" transform="translate(980.265625 0)"/>
     <use xlink:href="#DejaVuSans-49" transform="translate(1043.742188 0)"/>
     <use xlink:href="#DejaVuSans-49" transform="translate(1073.234375 0)"/>
    </g>
   </g>
  </g>
  <g id="legend_1">
   <g id="patch_14">
    <path d="M 167.145312 211 
L 912.854688 211 
Q 914.854688 211 914.854688 209 
L 914.854688 195.321875 
Q 914.854688 193.321875 912.854688 193.321875 
L 167.145312 193.321875 
Q 165.145312 193.321875 165.145312 195.321875 
L 165.145312 209 
Q 165.145312 211 167.145312 211 
z
" style="fill: #ffffff; opacity: 0.8; stroke: #cccccc; stroke-linejoin: miter"/>
   </g>
   <g id="line2d_56">
    <path d="M 169.145312 201.420312 
L 179.145312 201.420312 
L 189.145312 201.420312 
" style="fill: none; stroke: #000000; stroke-width: 3; stroke-linecap: square"/>
   </g>
   <g id="text_53">
    <!-- Observed hazard rate -->
    <g transform="translate(197.145312 204.920312) scale(0.1 -0.1)">
     <defs>
      <path id="DejaVuSans-76" d="M 191 3500 
L 800 3500 
L 1894 563 
L 2988 3500 
L 3597 3500 
L 2284 0 
L 1503 0 
L 191 3500 
z
" transform="scale(0.015625)"/>
      <path id="DejaVuSans-68" d="M 3513 2113 
L 3513 0 
L 2938 0 
L 2938 2094 
Q 2938 2591 2744 2837 
Q 2550 3084 2163 3084 
Q 1697 3084 1428 2787 
Q 1159 2491 1159 1978 
L 1159 0 
L 581 0 
L 581 4863 
L 1159 4863 
L 1159 2956 
Q 1366 3272 1645 3428 
Q 1925 3584 2291 3584 
Q 2894 3584 3203 3211 
Q 3513 2838 3513 2113 
z
" transform="scale(0.015625)"/>
      <path id="DejaVuSans-7a" d="M 353 3500 
L 3084 3500 
L 3084 2975 
L 922 459 
L 3084 459 
L 3084 0 
L 275 0 
L 275 525 
L 2438 3041 
L 353 3041 
L 353 3500 
z
" transform="scale(0.015625)"/>
     </defs>
     <use xlink:href="#DejaVuSans-4f"/>
     <use xlink:href="#DejaVuSans-62" transform="translate(78.710938 0)"/>
     <use xlink:href="#DejaVuSans-73" transform="translate(142.1875 0)"/>
     <use xlink:href="#DejaVuSans-65" transform="translate(194.287109 0)"/>
     <use xlink:href="#DejaVuSans-72" transform="translate(255.810547 0)"/>
     <use xlink:href="#DejaVuSans-76" transform="translate(296.923828 0)"/>
     <use xlink:href="#DejaVuSans-65" transform="translate(356.103516 0)"/>
     <use xlink:href="#DejaVuSans-64" transform="translate(417.626953 0)"/>
     <use xlink:href="#DejaVuSans-20" transform="translate(481.103516 0)"/>
     <use xlink:href="#DejaVuSans-68" transform="translate(512.890625 0)"/>
     <use xlink:href="#DejaVuSans-61" transform="translate(576.269531 0)"/>
     <use xlink:href="#DejaVuSans-7a" transform="translate(637.548828 0)"/>
     <use xlink:href="#DejaVuSans-61" transform="translate(690.039062 0)"/>
     <use xlink:href="#DejaVuSans-72" transform="translate(751.318359 0)"/>
     <use xlink:href="#DejaVuSans-64" transform="translate(790.681641 0)"/>
     <use xlink:href="#DejaVuSans-20" transform="translate(854.158203 0)"/>
     <use xlink:href="#DejaVuSans-72" transform="translate(885.945312 0)"/>
     <use xlink:href="#DejaVuSans-61" transform="translate(927.058594 0)"/>
     <use xlink:href="#DejaVuSans-74" transform="translate(988.337891 0)"/>
     <use xlink:href="#DejaVuSans-65" transform="translate(1027.546875 0)"/>
    </g>
   </g>
   <g id="line2d_57">
    <path d="M 326.054687 201.420312 
L 336.054687 201.420312 
L 346.054687 201.420312 
" style="fill: none; stroke-dasharray: 11.1,4.8; stroke-dashoffset: 0; stroke: #cd5c5c; stroke-width: 3"/>
   </g>
   <g id="text_54">
    <!-- $(k,v)$-mer estimated hazard rate (without reference) -->
    <g transform="translate(354.054687 204.920312) scale(0.1 -0.1)">
     <defs>
      <path id="DejaVuSans-Oblique-6b" d="M 1172 4863 
L 1747 4863 
L 1197 2028 
L 3169 3500 
L 3916 3500 
L 1716 1825 
L 3322 0 
L 2625 0 
L 1131 1709 
L 800 0 
L 225 0 
L 1172 4863 
z
" transform="scale(0.015625)"/>
      <path id="DejaVuSans-Oblique-76" d="M 459 3500 
L 1069 3500 
L 1581 525 
L 3256 3500 
L 3866 3500 
L 1875 0 
L 1100 0 
L 459 3500 
z
" transform="scale(0.015625)"/>
      <path id="DejaVuSans-2d" d="M 313 2009 
L 1997 2009 
L 1997 1497 
L 313 1497 
L 313 2009 
z
" transform="scale(0.015625)"/>
      <path id="DejaVuSans-77" d="M 269 3500 
L 844 3500 
L 1563 769 
L 2278 3500 
L 2956 3500 
L 3675 769 
L 4391 3500 
L 4966 3500 
L 4050 0 
L 3372 0 
L 2619 2869 
L 1863 0 
L 1184 0 
L 269 3500 
z
" transform="scale(0.015625)"/>
     </defs>
     <use xlink:href="#DejaVuSans-28" transform="translate(0 0.015625)"/>
     <use xlink:href="#DejaVuSans-Oblique-6b" transform="translate(39.013672 0.015625)"/>
     <use xlink:href="#DejaVuSans-2c" transform="translate(96.923828 0.015625)"/>
     <use xlink:href="#DejaVuSans-Oblique-76" transform="translate(148.193359 0.015625)"/>
     <use xlink:href="#DejaVuSans-29" transform="translate(207.373047 0.015625)"/>
     <use xlink:href="#DejaVuSans-2d" transform="translate(246.386719 0.015625)"/>
     <use xlink:href="#DejaVuSans-6d" transform="translate(280.720703 0.015625)"/>
     <use xlink:href="#DejaVuSans-65" transform="translate(378.132812 0.015625)"/>
     <use xlink:href="#DejaVuSans-72" transform="translate(439.65625 0.015625)"/>
     <use xlink:href="#DejaVuSans-20" transform="translate(480.769531 0.015625)"/>
     <use xlink:href="#DejaVuSans-65" transform="translate(512.556641 0.015625)"/>
     <use xlink:href="#DejaVuSans-73" transform="translate(574.080078 0.015625)"/>
     <use xlink:href="#DejaVuSans-74" transform="translate(626.179688 0.015625)"/>
     <use xlink:href="#DejaVuSans-69" transform="translate(665.388672 0.015625)"/>
     <use xlink:href="#DejaVuSans-6d" transform="translate(693.171875 0.015625)"/>
     <use xlink:href="#DejaVuSans-61" transform="translate(790.583984 0.015625)"/>
     <use xlink:href="#DejaVuSans-74" transform="translate(851.863281 0.015625)"/>
     <use xlink:href="#DejaVuSans-65" transform="translate(891.072266 0.015625)"/>
     <use xlink:href="#DejaVuSans-64" transform="translate(952.595703 0.015625)"/>
     <use xlink:href="#DejaVuSans-20" transform="translate(1016.072266 0.015625)"/>
     <use xlink:href="#DejaVuSans-68" transform="translate(1047.859375 0.015625)"/>
     <use xlink:href="#DejaVuSans-61" transform="translate(1111.238281 0.015625)"/>
     <use xlink:href="#DejaVuSans-7a" transform="translate(1172.517578 0.015625)"/>
     <use xlink:href="#DejaVuSans-61" transform="translate(1225.007812 0.015625)"/>
     <use xlink:href="#DejaVuSans-72" transform="translate(1286.287109 0.015625)"/>
     <use xlink:href="#DejaVuSans-64" transform="translate(1327.400391 0.015625)"/>
     <use xlink:href="#DejaVuSans-20" transform="translate(1390.876953 0.015625)"/>
     <use xlink:href="#DejaVuSans-72" transform="translate(1422.664062 0.015625)"/>
     <use xlink:href="#DejaVuSans-61" transform="translate(1463.777344 0.015625)"/>
     <use xlink:href="#DejaVuSans-74" transform="translate(1525.056641 0.015625)"/>
     <use xlink:href="#DejaVuSans-65" transform="translate(1564.265625 0.015625)"/>
     <use xlink:href="#DejaVuSans-20" transform="translate(1625.789062 0.015625)"/>
     <use xlink:href="#DejaVuSans-28" transform="translate(1657.576172 0.015625)"/>
     <use xlink:href="#DejaVuSans-77" transform="translate(1696.589844 0.015625)"/>
     <use xlink:href="#DejaVuSans-69" transform="translate(1778.376953 0.015625)"/>
     <use xlink:href="#DejaVuSans-74" transform="translate(1806.160156 0.015625)"/>
     <use xlink:href="#DejaVuSans-68" transform="translate(1845.369141 0.015625)"/>
     <use xlink:href="#DejaVuSans-6f" transform="translate(1908.748047 0.015625)"/>
     <use xlink:href="#DejaVuSans-75" transform="translate(1969.929688 0.015625)"/>
     <use xlink:href="#DejaVuSans-74" transform="translate(2033.308594 0.015625)"/>
     <use xlink:href="#DejaVuSans-20" transform="translate(2072.517578 0.015625)"/>
     <use xlink:href="#DejaVuSans-72" transform="translate(2104.304688 0.015625)"/>
     <use xlink:href="#DejaVuSans-65" transform="translate(2145.417969 0.015625)"/>
     <use xlink:href="#DejaVuSans-66" transform="translate(2206.941406 0.015625)"/>
     <use xlink:href="#DejaVuSans-65" transform="translate(2242.146484 0.015625)"/>
     <use xlink:href="#DejaVuSans-72" transform="translate(2303.669922 0.015625)"/>
     <use xlink:href="#DejaVuSans-65" transform="translate(2344.783203 0.015625)"/>
     <use xlink:href="#DejaVuSans-6e" transform="translate(2406.306641 0.015625)"/>
     <use xlink:href="#DejaVuSans-63" transform="translate(2469.685547 0.015625)"/>
     <use xlink:href="#DejaVuSans-65" transform="translate(2524.666016 0.015625)"/>
     <use xlink:href="#DejaVuSans-29" transform="translate(2586.189453 0.015625)"/>
    </g>
   </g>
   <g id="line2d_58">
    <path d="M 636.654687 201.420312 
L 646.654687 201.420312 
L 656.654687 201.420312 
" style="fill: none; stroke-dasharray: 11.1,4.8; stroke-dashoffset: 0; stroke: #daa520; stroke-width: 3"/>
   </g>
   <g id="text_55">
    <!-- $(k,v)$-mer estimated hazard rate (with reference) -->
    <g transform="translate(664.654687 204.920312) scale(0.1 -0.1)">
     <use xlink:href="#DejaVuSans-28" transform="translate(0 0.015625)"/>
     <use xlink:href="#DejaVuSans-Oblique-6b" transform="translate(39.013672 0.015625)"/>
     <use xlink:href="#DejaVuSans-2c" transform="translate(96.923828 0.015625)"/>
     <use xlink:href="#DejaVuSans-Oblique-76" transform="translate(148.193359 0.015625)"/>
     <use xlink:href="#DejaVuSans-29" transform="translate(207.373047 0.015625)"/>
     <use xlink:href="#DejaVuSans-2d" transform="translate(246.386719 0.015625)"/>
     <use xlink:href="#DejaVuSans-6d" transform="translate(280.720703 0.015625)"/>
     <use xlink:href="#DejaVuSans-65" transform="translate(378.132812 0.015625)"/>
     <use xlink:href="#DejaVuSans-72" transform="translate(439.65625 0.015625)"/>
     <use xlink:href="#DejaVuSans-20" transform="translate(480.769531 0.015625)"/>
     <use xlink:href="#DejaVuSans-65" transform="translate(512.556641 0.015625)"/>
     <use xlink:href="#DejaVuSans-73" transform="translate(574.080078 0.015625)"/>
     <use xlink:href="#DejaVuSans-74" transform="translate(626.179688 0.015625)"/>
     <use xlink:href="#DejaVuSans-69" transform="translate(665.388672 0.015625)"/>
     <use xlink:href="#DejaVuSans-6d" transform="translate(693.171875 0.015625)"/>
     <use xlink:href="#DejaVuSans-61" transform="translate(790.583984 0.015625)"/>
     <use xlink:href="#DejaVuSans-74" transform="translate(851.863281 0.015625)"/>
     <use xlink:href="#DejaVuSans-65" transform="translate(891.072266 0.015625)"/>
     <use xlink:href="#DejaVuSans-64" transform="translate(952.595703 0.015625)"/>
     <use xlink:href="#DejaVuSans-20" transform="translate(1016.072266 0.015625)"/>
     <use xlink:href="#DejaVuSans-68" transform="translate(1047.859375 0.015625)"/>
     <use xlink:href="#DejaVuSans-61" transform="translate(1111.238281 0.015625)"/>
     <use xlink:href="#DejaVuSans-7a" transform="translate(1172.517578 0.015625)"/>
     <use xlink:href="#DejaVuSans-61" transform="translate(1225.007812 0.015625)"/>
     <use xlink:href="#DejaVuSans-72" transform="translate(1286.287109 0.015625)"/>
     <use xlink:href="#DejaVuSans-64" transform="translate(1327.400391 0.015625)"/>
     <use xlink:href="#DejaVuSans-20" transform="translate(1390.876953 0.015625)"/>
     <use xlink:href="#DejaVuSans-72" transform="translate(1422.664062 0.015625)"/>
     <use xlink:href="#DejaVuSans-61" transform="translate(1463.777344 0.015625)"/>
     <use xlink:href="#DejaVuSans-74" transform="translate(1525.056641 0.015625)"/>
     <use xlink:href="#DejaVuSans-65" transform="translate(1564.265625 0.015625)"/>
     <use xlink:href="#DejaVuSans-20" transform="translate(1625.789062 0.015625)"/>
     <use xlink:href="#DejaVuSans-28" transform="translate(1657.576172 0.015625)"/>
     <use xlink:href="#DejaVuSans-77" transform="translate(1696.589844 0.015625)"/>
     <use xlink:href="#DejaVuSans-69" transform="translate(1778.376953 0.015625)"/>
     <use xlink:href="#DejaVuSans-74" transform="translate(1806.160156 0.015625)"/>
     <use xlink:href="#DejaVuSans-68" transform="translate(1845.369141 0.015625)"/>
     <use xlink:href="#DejaVuSans-20" transform="translate(1908.748047 0.015625)"/>
     <use xlink:href="#DejaVuSans-72" transform="translate(1940.535156 0.015625)"/>
     <use xlink:href="#DejaVuSans-65" transform="translate(1981.648438 0.015625)"/>
     <use xlink:href="#DejaVuSans-66" transform="translate(2043.171875 0.015625)"/>
     <use xlink:href="#DejaVuSans-65" transform="translate(2078.376953 0.015625)"/>
     <use xlink:href="#DejaVuSans-72" transform="translate(2139.900391 0.015625)"/>
     <use xlink:href="#DejaVuSans-65" transform="translate(2181.013672 0.015625)"/>
     <use xlink:href="#DejaVuSans-6e" transform="translate(2242.537109 0.015625)"/>
     <use xlink:href="#DejaVuSans-63" transform="translate(2305.916016 0.015625)"/>
     <use xlink:href="#DejaVuSans-65" transform="translate(2360.896484 0.015625)"/>
     <use xlink:href="#DejaVuSans-29" transform="translate(2422.419922 0.015625)"/>
    </g>
   </g>
  </g>
 </g>
 <defs>
  <clipPath id="p110b5d8605">
   <rect x="74.208612" y="26.88" width="197.027998" height="124.32"/>
  </clipPath>
  <clipPath id="p41698e42e2">
   <rect x="340.196408" y="26.88" width="197.027998" height="124.32"/>
  </clipPath>
  <clipPath id="p67dd79e3f0">
   <rect x="606.184205" y="26.88" width="197.027998" height="124.32"/>
  </clipPath>
  <clipPath id="pbf362f6e56">
   <rect x="872.172002" y="26.88" width="197.027998" height="124.32"/>
  </clipPath>
 </defs>
</svg>
