<?xml version="1.0" encoding="utf-8" standalone="no"?>
<!DOCTYPE svg PUBLIC "-//W3C//DTD SVG 1.1//EN"
  "http://www.w3.org/Graphics/SVG/1.1/DTD/svg11.dtd">
<svg xmlns:xlink="http://www.w3.org/1999/xlink" width="1080pt" height="216pt" viewBox="0 0 1080 216" xmlns="http://www.w3.org/2000/svg" version="1.1">
 <metadata>
  <rdf:RDF xmlns:dc="http://purl.org/dc/elements/1.1/" xmlns:cc="http://creativecommons.org/ns#" xmlns:rdf="http://www.w3.org/1999/02/22-rdf-syntax-ns#">
   <cc:Work>
    <dc:type rdf:resource="http://purl.org/dc/dcmitype/StillImage"/>
    <dc:date>2026-04-21T15:53:30.171079</dc:date>
    <dc:format>image/svg+xml</dc:format>
    <dc:creator>
     <cc:Agent>
      <dc:title>Matplotlib v3.10.7, https://matplotlib.org/</dc:title>
     </cc:Agent>
    </dc:creator>
   </cc:Work>
  </rdf:RDF>
 </metadata>
 <defs>
  <style type="text/css">*{stroke-linejoin: round; stroke-linecap: butt}</style>
 </defs>
 <g id="figure_1">
  <g id="patch_1">
   <path d="M 0 216 
L 1080 216 
L 1080 0 
L 0 0 
z
" style="fill: #ffffff"/>
  </g>
  <g id="axes_1">
   <g id="patch_2">
    <path d="M 74.208612 151.2 
L 271.236609 151.2 
L 271.236609 26.88 
L 74.208612 26.88 
z
" style="fill: #ffffff"/>
   </g>
   <g id="FillBetweenPolyCollection_1">
    <defs>
     <path id="mc0cf5ea387" d="M 83.16443 -158.153773 
L 83.16443 -142.789976 
L 105.553975 -115.886061 
L 127.94352 -104.886746 
L 150.333065 -100.35048 
L 172.72261 -90.527688 
L 195.112156 -85.756389 
L 217.501701 -76.679974 
L 239.891246 -76.919033 
L 262.280791 -70.450909 
L 262.280791 -85.470025 
L 262.280791 -85.470025 
L 239.891246 -93.600895 
L 217.501701 -94.573965 
L 195.112156 -104.829367 
L 172.72261 -106.260387 
L 150.333065 -114.995149 
L 127.94352 -120.227043 
L 105.553975 -132.191611 
L 83.16443 -158.153773 
z
"/>
    </defs>
    <g clip-path="url(#p60a093aff7)">
     <use xlink:href="#mc0cf5ea387" x="0" y="216" style="fill: #cd5c5c; fill-opacity: 0.3"/>
    </g>
   </g>
   <g id="FillBetweenPolyCollection_2">
    <defs>
     <path id="m4559c2d6d3" d="M 83.16443 -183.469091 
L 83.16443 -144.732528 
L 105.553975 -141.334195 
L 127.94352 -124.580627 
L 150.333065 -106.209629 
L 172.72261 -110.354752 
L 195.112156 -106.127127 
L 217.501701 -117.165349 
L 239.891246 -104.701819 
L 262.280791 -125.519402 
L 262.280791 -162.753698 
L 262.280791 -162.753698 
L 239.891246 -147.805797 
L 217.501701 -151.854688 
L 195.112156 -155.681699 
L 172.72261 -165.70763 
L 150.333065 -145.38082 
L 127.94352 -162.795368 
L 105.553975 -178.576846 
L 83.16443 -183.469091 
z
"/>
    </defs>
    <g clip-path="url(#p60a093aff7)">
     <use xlink:href="#m4559c2d6d3" x="0" y="216" style="fill: #daa520; fill-opacity: 0.3"/>
    </g>
   </g>
   <g id="matplotlib.axis_1">
    <g id="xtick_1">
     <g id="line2d_1">
      <defs>
       <path id="m4cce30f087" d="M 0 0 
L 0 3.5 
" style="stroke: #000000; stroke-width: 0.8"/>
      </defs>
      <g>
       <use xlink:href="#m4cce30f087" x="83.16443" y="151.2" style="stroke: #000000; stroke-width: 0.8"/>
      </g>
     </g>
     <g id="text_1">
      <!-- 20 -->
      <g transform="translate(76.80193 165.798438) scale(0.1 -0.1)">
       <defs>
        <path id="DejaVuSans-32" d="M 1228 531 
L 3431 531 
L 3431 0 
L 469 0 
L 469 531 
Q 828 903 1448 1529 
Q 2069 2156 2228 2338 
Q 2531 2678 2651 2914 
Q 2772 3150 2772 3378 
Q 2772 3750 2511 3984 
Q 2250 4219 1831 4219 
Q 1534 4219 1204 4116 
Q 875 4013 500 3803 
L 500 4441 
Q 881 4594 1212 4672 
Q 1544 4750 1819 4750 
Q 2544 4750 2975 4387 
Q 3406 4025 3406 3419 
Q 3406 3131 3298 2873 
Q 3191 2616 2906 2266 
Q 2828 2175 2409 1742 
Q 1991 1309 1228 531 
z
" transform="scale(0.015625)"/>
        <path id="DejaVuSans-30" d="M 2034 4250 
Q 1547 4250 1301 3770 
Q 1056 3291 1056 2328 
Q 1056 1369 1301 889 
Q 1547 409 2034 409 
Q 2525 409 2770 889 
Q 3016 1369 3016 2328 
Q 3016 3291 2770 3770 
Q 2525 4250 2034 4250 
z
M 2034 4750 
Q 2819 4750 3233 4129 
Q 3647 3509 3647 2328 
Q 3647 1150 3233 529 
Q 2819 -91 2034 -91 
Q 1250 -91 836 529 
Q 422 1150 422 2328 
Q 422 3509 836 4129 
Q 1250 4750 2034 4750 
z
" transform="scale(0.015625)"/>
       </defs>
       <use xlink:href="#DejaVuSans-32"/>
       <use xlink:href="#DejaVuSans-30" transform="translate(63.623047 0)"/>
      </g>
     </g>
    </g>
    <g id="xtick_2">
     <g id="line2d_2">
      <g>
       <use xlink:href="#m4cce30f087" x="127.94352" y="151.2" style="stroke: #000000; stroke-width: 0.8"/>
      </g>
     </g>
     <g id="text_2">
      <!-- 22 -->
      <g transform="translate(121.58102 165.798438) scale(0.1 -0.1)">
       <use xlink:href="#DejaVuSans-32"/>
       <use xlink:href="#DejaVuSans-32" transform="translate(63.623047 0)"/>
      </g>
     </g>
    </g>
    <g id="xtick_3">
     <g id="line2d_3">
      <g>
       <use xlink:href="#m4cce30f087" x="172.72261" y="151.2" style="stroke: #000000; stroke-width: 0.8"/>
      </g>
     </g>
     <g id="text_3">
      <!-- 24 -->
      <g transform="translate(166.36011 165.798438) scale(0.1 -0.1)">
       <defs>
        <path id="DejaVuSans-34" d="M 2419 4116 
L 825 1625 
L 2419 1625 
L 2419 4116 
z
M 2253 4666 
L 3047 4666 
L 3047 1625 
L 3713 1625 
L 3713 1100 
L 3047 1100 
L 3047 0 
L 2419 0 
L 2419 1100 
L 313 1100 
L 313 1709 
L 2253 4666 
z
" transform="scale(0.015625)"/>
       </defs>
       <use xlink:href="#DejaVuSans-32"/>
       <use xlink:href="#DejaVuSans-34" transform="translate(63.623047 0)"/>
      </g>
     </g>
    </g>
    <g id="xtick_4">
     <g id="line2d_4">
      <g>
       <use xlink:href="#m4cce30f087" x="217.501701" y="151.2" style="stroke: #000000; stroke-width: 0.8"/>
      </g>
     </g>
     <g id="text_4">
      <!-- 26 -->
      <g transform="translate(211.139201 165.798438) scale(0.1 -0.1)">
       <defs>
        <path id="DejaVuSans-36" d="M 2113 2584 
Q 1688 2584 1439 2293 
Q 1191 2003 1191 1497 
Q 1191 994 1439 701 
Q 1688 409 2113 409 
Q 2538 409 2786 701 
Q 3034 994 3034 1497 
Q 3034 2003 2786 2293 
Q 2538 2584 2113 2584 
z
M 3366 4563 
L 3366 3988 
Q 3128 4100 2886 4159 
Q 2644 4219 2406 4219 
Q 1781 4219 1451 3797 
Q 1122 3375 1075 2522 
Q 1259 2794 1537 2939 
Q 1816 3084 2150 3084 
Q 2853 3084 3261 2657 
Q 3669 2231 3669 1497 
Q 3669 778 3244 343 
Q 2819 -91 2113 -91 
Q 1303 -91 875 529 
Q 447 1150 447 2328 
Q 447 3434 972 4092 
Q 1497 4750 2381 4750 
Q 2619 4750 2861 4703 
Q 3103 4656 3366 4563 
z
" transform="scale(0.015625)"/>
       </defs>
       <use xlink:href="#DejaVuSans-32"/>
       <use xlink:href="#DejaVuSans-36" transform="translate(63.623047 0)"/>
      </g>
     </g>
    </g>
    <g id="xtick_5">
     <g id="line2d_5">
      <g>
       <use xlink:href="#m4cce30f087" x="262.280791" y="151.2" style="stroke: #000000; stroke-width: 0.8"/>
      </g>
     </g>
     <g id="text_5">
      <!-- 28 -->
      <g transform="translate(255.918291 165.798438) scale(0.1 -0.1)">
       <defs>
        <path id="DejaVuSans-38" d="M 2034 2216 
Q 1584 2216 1326 1975 
Q 1069 1734 1069 1313 
Q 1069 891 1326 650 
Q 1584 409 2034 409 
Q 2484 409 2743 651 
Q 3003 894 3003 1313 
Q 3003 1734 2745 1975 
Q 2488 2216 2034 2216 
z
M 1403 2484 
Q 997 2584 770 2862 
Q 544 3141 544 3541 
Q 544 4100 942 4425 
Q 1341 4750 2034 4750 
Q 2731 4750 3128 4425 
Q 3525 4100 3525 3541 
Q 3525 3141 3298 2862 
Q 3072 2584 2669 2484 
Q 3125 2378 3379 2068 
Q 3634 1759 3634 1313 
Q 3634 634 3220 271 
Q 2806 -91 2034 -91 
Q 1263 -91 848 271 
Q 434 634 434 1313 
Q 434 1759 690 2068 
Q 947 2378 1403 2484 
z
M 1172 3481 
Q 1172 3119 1398 2916 
Q 1625 2713 2034 2713 
Q 2441 2713 2670 2916 
Q 2900 3119 2900 3481 
Q 2900 3844 2670 4047 
Q 2441 4250 2034 4250 
Q 1625 4250 1398 4047 
Q 1172 3844 1172 3481 
z
" transform="scale(0.015625)"/>
       </defs>
       <use xlink:href="#DejaVuSans-32"/>
       <use xlink:href="#DejaVuSans-38" transform="translate(63.623047 0)"/>
      </g>
     </g>
    </g>
    <g id="text_6">
     <!-- $t$ -->
     <g transform="translate(170.72261 179.476563) scale(0.1 -0.1)">
      <defs>
       <path id="DejaVuSans-Oblique-74" d="M 2706 3500 
L 2619 3053 
L 1472 3053 
L 1100 1153 
Q 1081 1047 1072 975 
Q 1063 903 1063 863 
Q 1063 663 1183 572 
Q 1303 481 1569 481 
L 2150 481 
L 2053 0 
L 1503 0 
Q 991 0 739 200 
Q 488 400 488 806 
Q 488 878 497 964 
Q 506 1050 525 1153 
L 897 3053 
L 409 3053 
L 500 3500 
L 978 3500 
L 1172 4494 
L 1747 4494 
L 1556 3500 
L 2706 3500 
z
" transform="scale(0.015625)"/>
      </defs>
      <use xlink:href="#DejaVuSans-Oblique-74" transform="translate(0 0.78125)"/>
     </g>
    </g>
   </g>
   <g id="matplotlib.axis_2">
    <g id="ytick_1">
     <g id="line2d_6">
      <defs>
       <path id="mbe787bac4e" d="M 0 0 
L -2 0 
" style="stroke: #000000; stroke-width: 0.6"/>
      </defs>
      <g>
       <use xlink:href="#mbe787bac4e" x="74.208612" y="144.580263" style="stroke: #000000; stroke-width: 0.6"/>
      </g>
     </g>
     <g id="text_7">
      <!-- $\mathdefault{4\times10^{-2}}$ -->
      <g transform="translate(26.708612 148.379482) scale(0.1 -0.1)">
       <defs>
        <path id="DejaVuSans-d7" d="M 4488 3438 
L 3059 2003 
L 4488 575 
L 4116 197 
L 2681 1631 
L 1247 197 
L 878 575 
L 2303 2003 
L 878 3438 
L 1247 3816 
L 2681 2381 
L 4116 3816 
L 4488 3438 
z
" transform="scale(0.015625)"/>
        <path id="DejaVuSans-31" d="M 794 531 
L 1825 531 
L 1825 4091 
L 703 3866 
L 703 4441 
L 1819 4666 
L 2450 4666 
L 2450 531 
L 3481 531 
L 3481 0 
L 794 0 
L 794 531 
z
" transform="scale(0.015625)"/>
        <path id="DejaVuSans-2212" d="M 678 2272 
L 4684 2272 
L 4684 1741 
L 678 1741 
L 678 2272 
z
" transform="scale(0.015625)"/>
       </defs>
       <use xlink:href="#DejaVuSans-34" transform="translate(0 0.765625)"/>
       <use xlink:href="#DejaVuSans-d7" transform="translate(83.105469 0.765625)"/>
       <use xlink:href="#DejaVuSans-31" transform="translate(186.376953 0.765625)"/>
       <use xlink:href="#DejaVuSans-30" transform="translate(250 0.765625)"/>
       <use xlink:href="#DejaVuSans-2212" transform="translate(314.580078 39.046875) scale(0.7)"/>
       <use xlink:href="#DejaVuSans-32" transform="translate(373.232422 39.046875) scale(0.7)"/>
      </g>
     </g>
    </g>
    <g id="ytick_2">
     <g id="line2d_7">
      <g>
       <use xlink:href="#mbe787bac4e" x="74.208612" y="80.632798" style="stroke: #000000; stroke-width: 0.6"/>
      </g>
     </g>
     <g id="text_8">
      <!-- $\mathdefault{5\times10^{-2}}$ -->
      <g transform="translate(26.708612 84.432016) scale(0.1 -0.1)">
       <defs>
        <path id="DejaVuSans-35" d="M 691 4666 
L 3169 4666 
L 3169 4134 
L 1269 4134 
L 1269 2991 
Q 1406 3038 1543 3061 
Q 1681 3084 1819 3084 
Q 2600 3084 3056 2656 
Q 3513 2228 3513 1497 
Q 3513 744 3044 326 
Q 2575 -91 1722 -91 
Q 1428 -91 1123 -41 
Q 819 9 494 109 
L 494 744 
Q 775 591 1075 516 
Q 1375 441 1709 441 
Q 2250 441 2565 725 
Q 2881 1009 2881 1497 
Q 2881 1984 2565 2268 
Q 2250 2553 1709 2553 
Q 1456 2553 1204 2497 
Q 953 2441 691 2322 
L 691 4666 
z
" transform="scale(0.015625)"/>
       </defs>
       <use xlink:href="#DejaVuSans-35" transform="translate(0 0.765625)"/>
       <use xlink:href="#DejaVuSans-d7" transform="translate(83.105469 0.765625)"/>
       <use xlink:href="#DejaVuSans-31" transform="translate(186.376953 0.765625)"/>
       <use xlink:href="#DejaVuSans-30" transform="translate(250 0.765625)"/>
       <use xlink:href="#DejaVuSans-2212" transform="translate(314.580078 39.046875) scale(0.7)"/>
       <use xlink:href="#DejaVuSans-32" transform="translate(373.232422 39.046875) scale(0.7)"/>
      </g>
     </g>
    </g>
    <g id="ytick_3">
     <g id="line2d_8">
      <g>
       <use xlink:href="#mbe787bac4e" x="74.208612" y="28.383914" style="stroke: #000000; stroke-width: 0.6"/>
      </g>
     </g>
     <g id="text_9">
      <!-- $\mathdefault{6\times10^{-2}}$ -->
      <g transform="translate(26.708612 32.183133) scale(0.1 -0.1)">
       <use xlink:href="#DejaVuSans-36" transform="translate(0 0.765625)"/>
       <use xlink:href="#DejaVuSans-d7" transform="translate(83.105469 0.765625)"/>
       <use xlink:href="#DejaVuSans-31" transform="translate(186.376953 0.765625)"/>
       <use xlink:href="#DejaVuSans-30" transform="translate(250 0.765625)"/>
       <use xlink:href="#DejaVuSans-2212" transform="translate(314.580078 39.046875) scale(0.7)"/>
       <use xlink:href="#DejaVuSans-32" transform="translate(373.232422 39.046875) scale(0.7)"/>
      </g>
     </g>
    </g>
    <g id="text_10">
     <!-- $h(t)$ -->
     <g transform="translate(20.628924 98.09) rotate(-90) scale(0.1 -0.1)">
      <defs>
       <path id="DejaVuSans-Oblique-68" d="M 3566 2113 
L 3156 0 
L 2578 0 
L 2988 2091 
Q 3016 2238 3031 2350 
Q 3047 2463 3047 2528 
Q 3047 2791 2881 2937 
Q 2716 3084 2419 3084 
Q 1956 3084 1617 2771 
Q 1278 2459 1178 1941 
L 800 0 
L 225 0 
L 1172 4863 
L 1747 4863 
L 1375 2950 
Q 1594 3244 1934 3414 
Q 2275 3584 2650 3584 
Q 3113 3584 3367 3334 
Q 3622 3084 3622 2631 
Q 3622 2519 3608 2391 
Q 3594 2263 3566 2113 
z
" transform="scale(0.015625)"/>
       <path id="DejaVuSans-28" d="M 1984 4856 
Q 1566 4138 1362 3434 
Q 1159 2731 1159 2009 
Q 1159 1288 1364 580 
Q 1569 -128 1984 -844 
L 1484 -844 
Q 1016 -109 783 600 
Q 550 1309 550 2009 
Q 550 2706 781 3412 
Q 1013 4119 1484 4856 
L 1984 4856 
z
" transform="scale(0.015625)"/>
       <path id="DejaVuSans-29" d="M 513 4856 
L 1013 4856 
Q 1481 4119 1714 3412 
Q 1947 2706 1947 2009 
Q 1947 1309 1714 600 
Q 1481 -109 1013 -844 
L 513 -844 
Q 928 -128 1133 580 
Q 1338 1288 1338 2009 
Q 1338 2731 1133 3434 
Q 928 4138 513 4856 
z
" transform="scale(0.015625)"/>
      </defs>
      <use xlink:href="#DejaVuSans-Oblique-68" transform="translate(0 0.015625)"/>
      <use xlink:href="#DejaVuSans-28" transform="translate(63.378906 0.015625)"/>
      <use xlink:href="#DejaVuSans-Oblique-74" transform="translate(102.392578 0.015625)"/>
      <use xlink:href="#DejaVuSans-29" transform="translate(141.601562 0.015625)"/>
     </g>
    </g>
   </g>
   <g id="line2d_9">
    <path d="M 83.16443 76.353216 
L 105.553975 78.591975 
L 127.94352 80.5658 
L 150.333065 82.465569 
L 172.72261 84.366953 
L 195.112156 86.102105 
L 217.501701 87.775217 
L 239.891246 89.407224 
L 262.280791 90.916507 
" clip-path="url(#p60a093aff7)" style="fill: none; stroke: #000000; stroke-width: 3; stroke-linecap: square"/>
   </g>
   <g id="line2d_10">
    <path d="M 83.16443 66.040024 
L 105.553975 91.502704 
L 127.94352 103.880742 
L 150.333065 109.042595 
L 172.72261 117.912226 
L 195.112156 121.84266 
L 217.501701 129.950725 
L 239.891246 132.034671 
L 262.280791 138.063684 
" clip-path="url(#p60a093aff7)" style="fill: none; stroke-dasharray: 11.1,4.8; stroke-dashoffset: 0; stroke: #cd5c5c; stroke-width: 3"/>
   </g>
   <g id="line2d_11">
    <path d="M 83.16443 51.015082 
L 105.553975 57.497073 
L 127.94352 70.138065 
L 150.333065 91.169525 
L 172.72261 79.694368 
L 195.112156 83.131131 
L 217.501701 79.871519 
L 239.891246 89.663165 
L 262.280791 76.05004 
" clip-path="url(#p60a093aff7)" style="fill: none; stroke-dasharray: 11.1,4.8; stroke-dashoffset: 0; stroke: #daa520; stroke-width: 3"/>
   </g>
   <g id="patch_3">
    <path d="M 74.208612 151.2 
L 74.208612 26.88 
" style="fill: none; stroke: #000000; stroke-width: 0.8; stroke-linejoin: miter; stroke-linecap: square"/>
   </g>
   <g id="patch_4">
    <path d="M 74.208612 151.2 
L 271.236609 151.2 
" style="fill: none; stroke: #000000; stroke-width: 0.8; stroke-linejoin: miter; stroke-linecap: square"/>
   </g>
   <g id="text_11">
    <!-- Zymo Log, Nanopore GridION -->
    <g transform="translate(84.483235 20.88) scale(0.12 -0.12)">
     <defs>
      <path id="DejaVuSans-5a" d="M 359 4666 
L 4025 4666 
L 4025 4184 
L 1075 531 
L 4097 531 
L 4097 0 
L 288 0 
L 288 481 
L 3238 4134 
L 359 4134 
L 359 4666 
z
" transform="scale(0.015625)"/>
      <path id="DejaVuSans-79" d="M 2059 -325 
Q 1816 -950 1584 -1140 
Q 1353 -1331 966 -1331 
L 506 -1331 
L 506 -850 
L 844 -850 
Q 1081 -850 1212 -737 
Q 1344 -625 1503 -206 
L 1606 56 
L 191 3500 
L 800 3500 
L 1894 763 
L 2988 3500 
L 3597 3500 
L 2059 -325 
z
" transform="scale(0.015625)"/>
      <path id="DejaVuSans-6d" d="M 3328 2828 
Q 3544 3216 3844 3400 
Q 4144 3584 4550 3584 
Q 5097 3584 5394 3201 
Q 5691 2819 5691 2113 
L 5691 0 
L 5113 0 
L 5113 2094 
Q 5113 2597 4934 2840 
Q 4756 3084 4391 3084 
Q 3944 3084 3684 2787 
Q 3425 2491 3425 1978 
L 3425 0 
L 2847 0 
L 2847 2094 
Q 2847 2600 2669 2842 
Q 2491 3084 2119 3084 
Q 1678 3084 1418 2786 
Q 1159 2488 1159 1978 
L 1159 0 
L 581 0 
L 581 3500 
L 1159 3500 
L 1159 2956 
Q 1356 3278 1631 3431 
Q 1906 3584 2284 3584 
Q 2666 3584 2933 3390 
Q 3200 3197 3328 2828 
z
" transform="scale(0.015625)"/>
      <path id="DejaVuSans-6f" d="M 1959 3097 
Q 1497 3097 1228 2736 
Q 959 2375 959 1747 
Q 959 1119 1226 758 
Q 1494 397 1959 397 
Q 2419 397 2687 759 
Q 2956 1122 2956 1747 
Q 2956 2369 2687 2733 
Q 2419 3097 1959 3097 
z
M 1959 3584 
Q 2709 3584 3137 3096 
Q 3566 2609 3566 1747 
Q 3566 888 3137 398 
Q 2709 -91 1959 -91 
Q 1206 -91 779 398 
Q 353 888 353 1747 
Q 353 2609 779 3096 
Q 1206 3584 1959 3584 
z
" transform="scale(0.015625)"/>
      <path id="DejaVuSans-20" transform="scale(0.015625)"/>
      <path id="DejaVuSans-4c" d="M 628 4666 
L 1259 4666 
L 1259 531 
L 3531 531 
L 3531 0 
L 628 0 
L 628 4666 
z
" transform="scale(0.015625)"/>
      <path id="DejaVuSans-67" d="M 2906 1791 
Q 2906 2416 2648 2759 
Q 2391 3103 1925 3103 
Q 1463 3103 1205 2759 
Q 947 2416 947 1791 
Q 947 1169 1205 825 
Q 1463 481 1925 481 
Q 2391 481 2648 825 
Q 2906 1169 2906 1791 
z
M 3481 434 
Q 3481 -459 3084 -895 
Q 2688 -1331 1869 -1331 
Q 1566 -1331 1297 -1286 
Q 1028 -1241 775 -1147 
L 775 -588 
Q 1028 -725 1275 -790 
Q 1522 -856 1778 -856 
Q 2344 -856 2625 -561 
Q 2906 -266 2906 331 
L 2906 616 
Q 2728 306 2450 153 
Q 2172 0 1784 0 
Q 1141 0 747 490 
Q 353 981 353 1791 
Q 353 2603 747 3093 
Q 1141 3584 1784 3584 
Q 2172 3584 2450 3431 
Q 2728 3278 2906 2969 
L 2906 3500 
L 3481 3500 
L 3481 434 
z
" transform="scale(0.015625)"/>
      <path id="DejaVuSans-2c" d="M 750 794 
L 1409 794 
L 1409 256 
L 897 -744 
L 494 -744 
L 750 256 
L 750 794 
z
" transform="scale(0.015625)"/>
      <path id="DejaVuSans-4e" d="M 628 4666 
L 1478 4666 
L 3547 763 
L 3547 4666 
L 4159 4666 
L 4159 0 
L 3309 0 
L 1241 3903 
L 1241 0 
L 628 0 
L 628 4666 
z
" transform="scale(0.015625)"/>
      <path id="DejaVuSans-61" d="M 2194 1759 
Q 1497 1759 1228 1600 
Q 959 1441 959 1056 
Q 959 750 1161 570 
Q 1363 391 1709 391 
Q 2188 391 2477 730 
Q 2766 1069 2766 1631 
L 2766 1759 
L 2194 1759 
z
M 3341 1997 
L 3341 0 
L 2766 0 
L 2766 531 
Q 2569 213 2275 61 
Q 1981 -91 1556 -91 
Q 1019 -91 701 211 
Q 384 513 384 1019 
Q 384 1609 779 1909 
Q 1175 2209 1959 2209 
L 2766 2209 
L 2766 2266 
Q 2766 2663 2505 2880 
Q 2244 3097 1772 3097 
Q 1472 3097 1187 3025 
Q 903 2953 641 2809 
L 641 3341 
Q 956 3463 1253 3523 
Q 1550 3584 1831 3584 
Q 2591 3584 2966 3190 
Q 3341 2797 3341 1997 
z
" transform="scale(0.015625)"/>
      <path id="DejaVuSans-6e" d="M 3513 2113 
L 3513 0 
L 2938 0 
L 2938 2094 
Q 2938 2591 2744 2837 
Q 2550 3084 2163 3084 
Q 1697 3084 1428 2787 
Q 1159 2491 1159 1978 
L 1159 0 
L 581 0 
L 581 3500 
L 1159 3500 
L 1159 2956 
Q 1366 3272 1645 3428 
Q 1925 3584 2291 3584 
Q 2894 3584 3203 3211 
Q 3513 2838 3513 2113 
z
" transform="scale(0.015625)"/>
      <path id="DejaVuSans-70" d="M 1159 525 
L 1159 -1331 
L 581 -1331 
L 581 3500 
L 1159 3500 
L 1159 2969 
Q 1341 3281 1617 3432 
Q 1894 3584 2278 3584 
Q 2916 3584 3314 3078 
Q 3713 2572 3713 1747 
Q 3713 922 3314 415 
Q 2916 -91 2278 -91 
Q 1894 -91 1617 61 
Q 1341 213 1159 525 
z
M 3116 1747 
Q 3116 2381 2855 2742 
Q 2594 3103 2138 3103 
Q 1681 3103 1420 2742 
Q 1159 2381 1159 1747 
Q 1159 1113 1420 752 
Q 1681 391 2138 391 
Q 2594 391 2855 752 
Q 3116 1113 3116 1747 
z
" transform="scale(0.015625)"/>
      <path id="DejaVuSans-72" d="M 2631 2963 
Q 2534 3019 2420 3045 
Q 2306 3072 2169 3072 
Q 1681 3072 1420 2755 
Q 1159 2438 1159 1844 
L 1159 0 
L 581 0 
L 581 3500 
L 1159 3500 
L 1159 2956 
Q 1341 3275 1631 3429 
Q 1922 3584 2338 3584 
Q 2397 3584 2469 3576 
Q 2541 3569 2628 3553 
L 2631 2963 
z
" transform="scale(0.015625)"/>
      <path id="DejaVuSans-65" d="M 3597 1894 
L 3597 1613 
L 953 1613 
Q 991 1019 1311 708 
Q 1631 397 2203 397 
Q 2534 397 2845 478 
Q 3156 559 3463 722 
L 3463 178 
Q 3153 47 2828 -22 
Q 2503 -91 2169 -91 
Q 1331 -91 842 396 
Q 353 884 353 1716 
Q 353 2575 817 3079 
Q 1281 3584 2069 3584 
Q 2775 3584 3186 3129 
Q 3597 2675 3597 1894 
z
M 3022 2063 
Q 3016 2534 2758 2815 
Q 2500 3097 2075 3097 
Q 1594 3097 1305 2825 
Q 1016 2553 972 2059 
L 3022 2063 
z
" transform="scale(0.015625)"/>
      <path id="DejaVuSans-47" d="M 3809 666 
L 3809 1919 
L 2778 1919 
L 2778 2438 
L 4434 2438 
L 4434 434 
Q 4069 175 3628 42 
Q 3188 -91 2688 -91 
Q 1594 -91 976 548 
Q 359 1188 359 2328 
Q 359 3472 976 4111 
Q 1594 4750 2688 4750 
Q 3144 4750 3555 4637 
Q 3966 4525 4313 4306 
L 4313 3634 
Q 3963 3931 3569 4081 
Q 3175 4231 2741 4231 
Q 1884 4231 1454 3753 
Q 1025 3275 1025 2328 
Q 1025 1384 1454 906 
Q 1884 428 2741 428 
Q 3075 428 3337 486 
Q 3600 544 3809 666 
z
" transform="scale(0.015625)"/>
      <path id="DejaVuSans-69" d="M 603 3500 
L 1178 3500 
L 1178 0 
L 603 0 
L 603 3500 
z
M 603 4863 
L 1178 4863 
L 1178 4134 
L 603 4134 
L 603 4863 
z
" transform="scale(0.015625)"/>
      <path id="DejaVuSans-64" d="M 2906 2969 
L 2906 4863 
L 3481 4863 
L 3481 0 
L 2906 0 
L 2906 525 
Q 2725 213 2448 61 
Q 2172 -91 1784 -91 
Q 1150 -91 751 415 
Q 353 922 353 1747 
Q 353 2572 751 3078 
Q 1150 3584 1784 3584 
Q 2172 3584 2448 3432 
Q 2725 3281 2906 2969 
z
M 947 1747 
Q 947 1113 1208 752 
Q 1469 391 1925 391 
Q 2381 391 2643 752 
Q 2906 1113 2906 1747 
Q 2906 2381 2643 2742 
Q 2381 3103 1925 3103 
Q 1469 3103 1208 2742 
Q 947 2381 947 1747 
z
" transform="scale(0.015625)"/>
      <path id="DejaVuSans-49" d="M 628 4666 
L 1259 4666 
L 1259 0 
L 628 0 
L 628 4666 
z
" transform="scale(0.015625)"/>
      <path id="DejaVuSans-4f" d="M 2522 4238 
Q 1834 4238 1429 3725 
Q 1025 3213 1025 2328 
Q 1025 1447 1429 934 
Q 1834 422 2522 422 
Q 3209 422 3611 934 
Q 4013 1447 4013 2328 
Q 4013 3213 3611 3725 
Q 3209 4238 2522 4238 
z
M 2522 4750 
Q 3503 4750 4090 4092 
Q 4678 3434 4678 2328 
Q 4678 1225 4090 567 
Q 3503 -91 2522 -91 
Q 1538 -91 948 565 
Q 359 1222 359 2328 
Q 359 3434 948 4092 
Q 1538 4750 2522 4750 
z
" transform="scale(0.015625)"/>
     </defs>
     <use xlink:href="#DejaVuSans-5a"/>
     <use xlink:href="#DejaVuSans-79" transform="translate(68.505859 0)"/>
     <use xlink:href="#DejaVuSans-6d" transform="translate(127.685547 0)"/>
     <use xlink:href="#DejaVuSans-6f" transform="translate(225.097656 0)"/>
     <use xlink:href="#DejaVuSans-20" transform="translate(286.279297 0)"/>
     <use xlink:href="#DejaVuSans-4c" transform="translate(318.066406 0)"/>
     <use xlink:href="#DejaVuSans-6f" transform="translate(372.029297 0)"/>
     <use xlink:href="#DejaVuSans-67" transform="translate(433.210938 0)"/>
     <use xlink:href="#DejaVuSans-2c" transform="translate(496.6875 0)"/>
     <use xlink:href="#DejaVuSans-20" transform="translate(528.474609 0)"/>
     <use xlink:href="#DejaVuSans-4e" transform="translate(560.261719 0)"/>
     <use xlink:href="#DejaVuSans-61" transform="translate(635.066406 0)"/>
     <use xlink:href="#DejaVuSans-6e" transform="translate(696.345703 0)"/>
     <use xlink:href="#DejaVuSans-6f" transform="translate(759.724609 0)"/>
     <use xlink:href="#DejaVuSans-70" transform="translate(820.90625 0)"/>
     <use xlink:href="#DejaVuSans-6f" transform="translate(884.382812 0)"/>
     <use xlink:href="#DejaVuSans-72" transform="translate(945.564453 0)"/>
     <use xlink:href="#DejaVuSans-65" transform="translate(984.427734 0)"/>
     <use xlink:href="#DejaVuSans-20" transform="translate(1045.951172 0)"/>
     <use xlink:href="#DejaVuSans-47" transform="translate(1077.738281 0)"/>
     <use xlink:href="#DejaVuSans-72" transform="translate(1155.228516 0)"/>
     <use xlink:href="#DejaVuSans-69" transform="translate(1196.341797 0)"/>
     <use xlink:href="#DejaVuSans-64" transform="translate(1224.125 0)"/>
     <use xlink:href="#DejaVuSans-49" transform="translate(1287.601562 0)"/>
     <use xlink:href="#DejaVuSans-4f" transform="translate(1317.09375 0)"/>
     <use xlink:href="#DejaVuSans-4e" transform="translate(1395.804688 0)"/>
    </g>
   </g>
  </g>
  <g id="axes_2">
   <g id="patch_5">
    <path d="M 340.196408 151.2 
L 537.224406 151.2 
L 537.224406 26.88 
L 340.196408 26.88 
z
" style="fill: #ffffff"/>
   </g>
   <g id="FillBetweenPolyCollection_3">
    <defs>
     <path id="m4ba9205bd4" d="M 349.152227 -94.842784 
L 349.152227 -80.72953 
L 371.541772 -80.47823 
L 393.931317 -81.981823 
L 416.320862 -70.450909 
L 438.710407 -79.470198 
L 461.099952 -75.134731 
L 483.489498 -81.731924 
L 505.879043 -79.974781 
L 528.268588 -71.500254 
L 528.268588 -86.188009 
L 528.268588 -86.188009 
L 505.879043 -91.516652 
L 483.489498 -93.66054 
L 461.099952 -90.797439 
L 438.710407 -94.134187 
L 416.320862 -84.465603 
L 393.931317 -94.842784 
L 371.541772 -95.784107 
L 349.152227 -94.842784 
z
"/>
    </defs>
    <g clip-path="url(#p1c52907639)">
     <use xlink:href="#m4ba9205bd4" x="0" y="216" style="fill: #cd5c5c; fill-opacity: 0.3"/>
    </g>
   </g>
   <g id="FillBetweenPolyCollection_4">
    <defs>
     <path id="mc9da6e8b0c" d="M 349.152227 -176.371647 
L 349.152227 -152.894674 
L 371.541772 -144.362522 
L 393.931317 -138.811614 
L 416.320862 -137.060575 
L 438.710407 -133.913416 
L 461.099952 -140.741296 
L 483.489498 -149.96368 
L 505.879043 -144.173383 
L 528.268588 -126.870885 
L 528.268588 -143.984085 
L 528.268588 -143.984085 
L 505.879043 -163.556542 
L 483.489498 -170.392607 
L 461.099952 -160.058662 
L 438.710407 -152.894674 
L 416.320862 -156.505302 
L 393.931317 -159.705851 
L 371.541772 -183.469091 
L 349.152227 -176.371647 
z
"/>
    </defs>
    <g clip-path="url(#p1c52907639)">
     <use xlink:href="#mc9da6e8b0c" x="0" y="216" style="fill: #daa520; fill-opacity: 0.3"/>
    </g>
   </g>
   <g id="matplotlib.axis_3">
    <g id="xtick_6">
     <g id="line2d_12">
      <g>
       <use xlink:href="#m4cce30f087" x="349.152227" y="151.2" style="stroke: #000000; stroke-width: 0.8"/>
      </g>
     </g>
     <g id="text_12">
      <!-- 20 -->
      <g transform="translate(342.789727 165.798438) scale(0.1 -0.1)">
       <use xlink:href="#DejaVuSans-32"/>
       <use xlink:href="#DejaVuSans-30" transform="translate(63.623047 0)"/>
      </g>
     </g>
    </g>
    <g id="xtick_7">
     <g id="line2d_13">
      <g>
       <use xlink:href="#m4cce30f087" x="393.931317" y="151.2" style="stroke: #000000; stroke-width: 0.8"/>
      </g>
     </g>
     <g id="text_13">
      <!-- 22 -->
      <g transform="translate(387.568817 165.798438) scale(0.1 -0.1)">
       <use xlink:href="#DejaVuSans-32"/>
       <use xlink:href="#DejaVuSans-32" transform="translate(63.623047 0)"/>
      </g>
     </g>
    </g>
    <g id="xtick_8">
     <g id="line2d_14">
      <g>
       <use xlink:href="#m4cce30f087" x="438.710407" y="151.2" style="stroke: #000000; stroke-width: 0.8"/>
      </g>
     </g>
     <g id="text_14">
      <!-- 24 -->
      <g transform="translate(432.347907 165.798438) scale(0.1 -0.1)">
       <use xlink:href="#DejaVuSans-32"/>
       <use xlink:href="#DejaVuSans-34" transform="translate(63.623047 0)"/>
      </g>
     </g>
    </g>
    <g id="xtick_9">
     <g id="line2d_15">
      <g>
       <use xlink:href="#m4cce30f087" x="483.489498" y="151.2" style="stroke: #000000; stroke-width: 0.8"/>
      </g>
     </g>
     <g id="text_15">
      <!-- 26 -->
      <g transform="translate(477.126998 165.798438) scale(0.1 -0.1)">
       <use xlink:href="#DejaVuSans-32"/>
       <use xlink:href="#DejaVuSans-36" transform="translate(63.623047 0)"/>
      </g>
     </g>
    </g>
    <g id="xtick_10">
     <g id="line2d_16">
      <g>
       <use xlink:href="#m4cce30f087" x="528.268588" y="151.2" style="stroke: #000000; stroke-width: 0.8"/>
      </g>
     </g>
     <g id="text_16">
      <!-- 28 -->
      <g transform="translate(521.906088 165.798438) scale(0.1 -0.1)">
       <use xlink:href="#DejaVuSans-32"/>
       <use xlink:href="#DejaVuSans-38" transform="translate(63.623047 0)"/>
      </g>
     </g>
    </g>
    <g id="text_17">
     <!-- $t$ -->
     <g transform="translate(436.710407 179.476563) scale(0.1 -0.1)">
      <use xlink:href="#DejaVuSans-Oblique-74" transform="translate(0 0.78125)"/>
     </g>
    </g>
   </g>
   <g id="matplotlib.axis_4">
    <g id="ytick_4">
     <g id="line2d_17">
      <defs>
       <path id="m35bc64d80d" d="M 0 0 
L -3.5 0 
" style="stroke: #000000; stroke-width: 0.8"/>
      </defs>
      <g>
       <use xlink:href="#m35bc64d80d" x="340.196408" y="109.665741" style="stroke: #000000; stroke-width: 0.8"/>
      </g>
     </g>
     <g id="text_18">
      <!-- $\mathdefault{10^{-3}}$ -->
      <g transform="translate(309.696408 113.46496) scale(0.1 -0.1)">
       <defs>
        <path id="DejaVuSans-33" d="M 2597 2516 
Q 3050 2419 3304 2112 
Q 3559 1806 3559 1356 
Q 3559 666 3084 287 
Q 2609 -91 1734 -91 
Q 1441 -91 1130 -33 
Q 819 25 488 141 
L 488 750 
Q 750 597 1062 519 
Q 1375 441 1716 441 
Q 2309 441 2620 675 
Q 2931 909 2931 1356 
Q 2931 1769 2642 2001 
Q 2353 2234 1838 2234 
L 1294 2234 
L 1294 2753 
L 1863 2753 
Q 2328 2753 2575 2939 
Q 2822 3125 2822 3475 
Q 2822 3834 2567 4026 
Q 2313 4219 1838 4219 
Q 1578 4219 1281 4162 
Q 984 4106 628 3988 
L 628 4550 
Q 988 4650 1302 4700 
Q 1616 4750 1894 4750 
Q 2613 4750 3031 4423 
Q 3450 4097 3450 3541 
Q 3450 3153 3228 2886 
Q 3006 2619 2597 2516 
z
" transform="scale(0.015625)"/>
       </defs>
       <use xlink:href="#DejaVuSans-31" transform="translate(0 0.765625)"/>
       <use xlink:href="#DejaVuSans-30" transform="translate(63.623047 0.765625)"/>
       <use xlink:href="#DejaVuSans-2212" transform="translate(128.203125 39.046875) scale(0.7)"/>
       <use xlink:href="#DejaVuSans-33" transform="translate(186.855469 39.046875) scale(0.7)"/>
      </g>
     </g>
    </g>
    <g id="ytick_5">
     <g id="line2d_18">
      <g>
       <use xlink:href="#mbe787bac4e" x="340.196408" y="133.270147" style="stroke: #000000; stroke-width: 0.6"/>
      </g>
     </g>
     <g id="text_19">
      <!-- $\mathdefault{9\times10^{-4}}$ -->
      <g transform="translate(292.696408 137.069366) scale(0.1 -0.1)">
       <defs>
        <path id="DejaVuSans-39" d="M 703 97 
L 703 672 
Q 941 559 1184 500 
Q 1428 441 1663 441 
Q 2288 441 2617 861 
Q 2947 1281 2994 2138 
Q 2813 1869 2534 1725 
Q 2256 1581 1919 1581 
Q 1219 1581 811 2004 
Q 403 2428 403 3163 
Q 403 3881 828 4315 
Q 1253 4750 1959 4750 
Q 2769 4750 3195 4129 
Q 3622 3509 3622 2328 
Q 3622 1225 3098 567 
Q 2575 -91 1691 -91 
Q 1453 -91 1209 -44 
Q 966 3 703 97 
z
M 1959 2075 
Q 2384 2075 2632 2365 
Q 2881 2656 2881 3163 
Q 2881 3666 2632 3958 
Q 2384 4250 1959 4250 
Q 1534 4250 1286 3958 
Q 1038 3666 1038 3163 
Q 1038 2656 1286 2365 
Q 1534 2075 1959 2075 
z
" transform="scale(0.015625)"/>
       </defs>
       <use xlink:href="#DejaVuSans-39" transform="translate(0 0.684375)"/>
       <use xlink:href="#DejaVuSans-d7" transform="translate(83.105469 0.684375)"/>
       <use xlink:href="#DejaVuSans-31" transform="translate(186.376953 0.684375)"/>
       <use xlink:href="#DejaVuSans-30" transform="translate(250 0.684375)"/>
       <use xlink:href="#DejaVuSans-2212" transform="translate(314.580078 38.965625) scale(0.7)"/>
       <use xlink:href="#DejaVuSans-34" transform="translate(373.232422 38.965625) scale(0.7)"/>
      </g>
     </g>
    </g>
    <g id="ytick_6">
     <g id="line2d_19">
      <g>
       <use xlink:href="#mbe787bac4e" x="340.196408" y="88.312958" style="stroke: #000000; stroke-width: 0.6"/>
      </g>
     </g>
     <g id="text_20">
      <!-- $\mathdefault{1.1\times10^{-3}}$ -->
      <g transform="translate(283.196408 92.112177) scale(0.1 -0.1)">
       <defs>
        <path id="DejaVuSans-2e" d="M 684 794 
L 1344 794 
L 1344 0 
L 684 0 
L 684 794 
z
" transform="scale(0.015625)"/>
       </defs>
       <use xlink:href="#DejaVuSans-31" transform="translate(0 0.765625)"/>
       <use xlink:href="#DejaVuSans-2e" transform="translate(63.623047 0.765625)"/>
       <use xlink:href="#DejaVuSans-31" transform="translate(95.410156 0.765625)"/>
       <use xlink:href="#DejaVuSans-d7" transform="translate(178.515625 0.765625)"/>
       <use xlink:href="#DejaVuSans-31" transform="translate(281.787109 0.765625)"/>
       <use xlink:href="#DejaVuSans-30" transform="translate(345.410156 0.765625)"/>
       <use xlink:href="#DejaVuSans-2212" transform="translate(409.990234 39.046875) scale(0.7)"/>
       <use xlink:href="#DejaVuSans-33" transform="translate(468.642578 39.046875) scale(0.7)"/>
      </g>
     </g>
    </g>
    <g id="ytick_7">
     <g id="line2d_20">
      <g>
       <use xlink:href="#mbe787bac4e" x="340.196408" y="68.819395" style="stroke: #000000; stroke-width: 0.6"/>
      </g>
     </g>
     <g id="text_21">
      <!-- $\mathdefault{1.2\times10^{-3}}$ -->
      <g transform="translate(283.696408 72.618614) scale(0.1 -0.1)">
       <use xlink:href="#DejaVuSans-31" transform="translate(0 0.765625)"/>
       <use xlink:href="#DejaVuSans-2e" transform="translate(63.623047 0.765625)"/>
       <use xlink:href="#DejaVuSans-32" transform="translate(89.910156 0.765625)"/>
       <use xlink:href="#DejaVuSans-d7" transform="translate(173.015625 0.765625)"/>
       <use xlink:href="#DejaVuSans-31" transform="translate(276.287109 0.765625)"/>
       <use xlink:href="#DejaVuSans-30" transform="translate(339.910156 0.765625)"/>
       <use xlink:href="#DejaVuSans-2212" transform="translate(404.490234 39.046875) scale(0.7)"/>
       <use xlink:href="#DejaVuSans-33" transform="translate(463.142578 39.046875) scale(0.7)"/>
      </g>
     </g>
    </g>
    <g id="ytick_8">
     <g id="line2d_21">
      <g>
       <use xlink:href="#mbe787bac4e" x="340.196408" y="50.887055" style="stroke: #000000; stroke-width: 0.6"/>
      </g>
     </g>
     <g id="text_22">
      <!-- $\mathdefault{1.3\times10^{-3}}$ -->
      <g transform="translate(283.196408 54.686274) scale(0.1 -0.1)">
       <use xlink:href="#DejaVuSans-31" transform="translate(0 0.765625)"/>
       <use xlink:href="#DejaVuSans-2e" transform="translate(63.623047 0.765625)"/>
       <use xlink:href="#DejaVuSans-33" transform="translate(95.410156 0.765625)"/>
       <use xlink:href="#DejaVuSans-d7" transform="translate(178.515625 0.765625)"/>
       <use xlink:href="#DejaVuSans-31" transform="translate(281.787109 0.765625)"/>
       <use xlink:href="#DejaVuSans-30" transform="translate(345.410156 0.765625)"/>
       <use xlink:href="#DejaVuSans-2212" transform="translate(409.990234 39.046875) scale(0.7)"/>
       <use xlink:href="#DejaVuSans-33" transform="translate(468.642578 39.046875) scale(0.7)"/>
      </g>
     </g>
    </g>
    <g id="ytick_9">
     <g id="line2d_22">
      <g>
       <use xlink:href="#mbe787bac4e" x="340.196408" y="34.284302" style="stroke: #000000; stroke-width: 0.6"/>
      </g>
     </g>
     <g id="text_23">
      <!-- $\mathdefault{1.4\times10^{-3}}$ -->
      <g transform="translate(283.196408 38.083521) scale(0.1 -0.1)">
       <use xlink:href="#DejaVuSans-31" transform="translate(0 0.765625)"/>
       <use xlink:href="#DejaVuSans-2e" transform="translate(63.623047 0.765625)"/>
       <use xlink:href="#DejaVuSans-34" transform="translate(95.410156 0.765625)"/>
       <use xlink:href="#DejaVuSans-d7" transform="translate(178.515625 0.765625)"/>
       <use xlink:href="#DejaVuSans-31" transform="translate(281.787109 0.765625)"/>
       <use xlink:href="#DejaVuSans-30" transform="translate(345.410156 0.765625)"/>
       <use xlink:href="#DejaVuSans-2212" transform="translate(409.990234 39.046875) scale(0.7)"/>
       <use xlink:href="#DejaVuSans-33" transform="translate(468.642578 39.046875) scale(0.7)"/>
      </g>
     </g>
    </g>
   </g>
   <g id="line2d_23">
    <path d="M 349.152227 57.05393 
L 371.541772 58.160007 
L 393.931317 59.276167 
L 416.320862 60.31959 
L 438.710407 61.422577 
L 461.099952 62.48203 
L 483.489498 63.501227 
L 505.879043 64.527022 
L 528.268588 65.517419 
" clip-path="url(#p1c52907639)" style="fill: none; stroke: #000000; stroke-width: 3; stroke-linecap: square"/>
   </g>
   <g id="line2d_24">
    <path d="M 349.152227 128.833672 
L 371.541772 128.102727 
L 393.931317 128.34611 
L 416.320862 138.050405 
L 438.710407 129.567011 
L 461.099952 133.519213 
L 483.489498 128.102727 
L 505.879043 130.794601 
L 528.268588 136.78252 
" clip-path="url(#p1c52907639)" style="fill: none; stroke-dasharray: 11.1,4.8; stroke-dashoffset: 0; stroke: #cd5c5c; stroke-width: 3"/>
   </g>
   <g id="line2d_25">
    <path d="M 349.152227 52.617061 
L 371.541772 53.138679 
L 393.931317 67.702013 
L 416.320862 68.073855 
L 438.710407 72.584772 
L 461.099952 65.852006 
L 483.489498 55.589082 
L 505.879043 61.473339 
L 528.268588 80.114435 
" clip-path="url(#p1c52907639)" style="fill: none; stroke-dasharray: 11.1,4.8; stroke-dashoffset: 0; stroke: #daa520; stroke-width: 3"/>
   </g>
   <g id="patch_6">
    <path d="M 340.196408 151.2 
L 340.196408 26.88 
" style="fill: none; stroke: #000000; stroke-width: 0.8; stroke-linejoin: miter; stroke-linecap: square"/>
   </g>
   <g id="patch_7">
    <path d="M 340.196408 151.2 
L 537.224406 151.2 
" style="fill: none; stroke: #000000; stroke-width: 0.8; stroke-linejoin: miter; stroke-linecap: square"/>
   </g>
   <g id="text_24">
    <!-- Zymo Gut Microbiome, PacBio Hifi -->
    <g transform="translate(336.629782 20.88) scale(0.12 -0.12)">
     <defs>
      <path id="DejaVuSans-75" d="M 544 1381 
L 544 3500 
L 1119 3500 
L 1119 1403 
Q 1119 906 1312 657 
Q 1506 409 1894 409 
Q 2359 409 2629 706 
Q 2900 1003 2900 1516 
L 2900 3500 
L 3475 3500 
L 3475 0 
L 2900 0 
L 2900 538 
Q 2691 219 2414 64 
Q 2138 -91 1772 -91 
Q 1169 -91 856 284 
Q 544 659 544 1381 
z
M 1991 3584 
L 1991 3584 
z
" transform="scale(0.015625)"/>
      <path id="DejaVuSans-74" d="M 1172 4494 
L 1172 3500 
L 2356 3500 
L 2356 3053 
L 1172 3053 
L 1172 1153 
Q 1172 725 1289 603 
Q 1406 481 1766 481 
L 2356 481 
L 2356 0 
L 1766 0 
Q 1100 0 847 248 
Q 594 497 594 1153 
L 594 3053 
L 172 3053 
L 172 3500 
L 594 3500 
L 594 4494 
L 1172 4494 
z
" transform="scale(0.015625)"/>
      <path id="DejaVuSans-4d" d="M 628 4666 
L 1569 4666 
L 2759 1491 
L 3956 4666 
L 4897 4666 
L 4897 0 
L 4281 0 
L 4281 4097 
L 3078 897 
L 2444 897 
L 1241 4097 
L 1241 0 
L 628 0 
L 628 4666 
z
" transform="scale(0.015625)"/>
      <path id="DejaVuSans-63" d="M 3122 3366 
L 3122 2828 
Q 2878 2963 2633 3030 
Q 2388 3097 2138 3097 
Q 1578 3097 1268 2742 
Q 959 2388 959 1747 
Q 959 1106 1268 751 
Q 1578 397 2138 397 
Q 2388 397 2633 464 
Q 2878 531 3122 666 
L 3122 134 
Q 2881 22 2623 -34 
Q 2366 -91 2075 -91 
Q 1284 -91 818 406 
Q 353 903 353 1747 
Q 353 2603 823 3093 
Q 1294 3584 2113 3584 
Q 2378 3584 2631 3529 
Q 2884 3475 3122 3366 
z
" transform="scale(0.015625)"/>
      <path id="DejaVuSans-62" d="M 3116 1747 
Q 3116 2381 2855 2742 
Q 2594 3103 2138 3103 
Q 1681 3103 1420 2742 
Q 1159 2381 1159 1747 
Q 1159 1113 1420 752 
Q 1681 391 2138 391 
Q 2594 391 2855 752 
Q 3116 1113 3116 1747 
z
M 1159 2969 
Q 1341 3281 1617 3432 
Q 1894 3584 2278 3584 
Q 2916 3584 3314 3078 
Q 3713 2572 3713 1747 
Q 3713 922 3314 415 
Q 2916 -91 2278 -91 
Q 1894 -91 1617 61 
Q 1341 213 1159 525 
L 1159 0 
L 581 0 
L 581 4863 
L 1159 4863 
L 1159 2969 
z
" transform="scale(0.015625)"/>
      <path id="DejaVuSans-50" d="M 1259 4147 
L 1259 2394 
L 2053 2394 
Q 2494 2394 2734 2622 
Q 2975 2850 2975 3272 
Q 2975 3691 2734 3919 
Q 2494 4147 2053 4147 
L 1259 4147 
z
M 628 4666 
L 2053 4666 
Q 2838 4666 3239 4311 
Q 3641 3956 3641 3272 
Q 3641 2581 3239 2228 
Q 2838 1875 2053 1875 
L 1259 1875 
L 1259 0 
L 628 0 
L 628 4666 
z
" transform="scale(0.015625)"/>
      <path id="DejaVuSans-42" d="M 1259 2228 
L 1259 519 
L 2272 519 
Q 2781 519 3026 730 
Q 3272 941 3272 1375 
Q 3272 1813 3026 2020 
Q 2781 2228 2272 2228 
L 1259 2228 
z
M 1259 4147 
L 1259 2741 
L 2194 2741 
Q 2656 2741 2882 2914 
Q 3109 3088 3109 3444 
Q 3109 3797 2882 3972 
Q 2656 4147 2194 4147 
L 1259 4147 
z
M 628 4666 
L 2241 4666 
Q 2963 4666 3353 4366 
Q 3744 4066 3744 3513 
Q 3744 3084 3544 2831 
Q 3344 2578 2956 2516 
Q 3422 2416 3680 2098 
Q 3938 1781 3938 1306 
Q 3938 681 3513 340 
Q 3088 0 2303 0 
L 628 0 
L 628 4666 
z
" transform="scale(0.015625)"/>
      <path id="DejaVuSans-48" d="M 628 4666 
L 1259 4666 
L 1259 2753 
L 3553 2753 
L 3553 4666 
L 4184 4666 
L 4184 0 
L 3553 0 
L 3553 2222 
L 1259 2222 
L 1259 0 
L 628 0 
L 628 4666 
z
" transform="scale(0.015625)"/>
      <path id="DejaVuSans-66" d="M 2375 4863 
L 2375 4384 
L 1825 4384 
Q 1516 4384 1395 4259 
Q 1275 4134 1275 3809 
L 1275 3500 
L 2222 3500 
L 2222 3053 
L 1275 3053 
L 1275 0 
L 697 0 
L 697 3053 
L 147 3053 
L 147 3500 
L 697 3500 
L 697 3744 
Q 697 4328 969 4595 
Q 1241 4863 1831 4863 
L 2375 4863 
z
" transform="scale(0.015625)"/>
     </defs>
     <use xlink:href="#DejaVuSans-5a"/>
     <use xlink:href="#DejaVuSans-79" transform="translate(68.505859 0)"/>
     <use xlink:href="#DejaVuSans-6d" transform="translate(127.685547 0)"/>
     <use xlink:href="#DejaVuSans-6f" transform="translate(225.097656 0)"/>
     <use xlink:href="#DejaVuSans-20" transform="translate(286.279297 0)"/>
     <use xlink:href="#DejaVuSans-47" transform="translate(318.066406 0)"/>
     <use xlink:href="#DejaVuSans-75" transform="translate(395.556641 0)"/>
     <use xlink:href="#DejaVuSans-74" transform="translate(458.935547 0)"/>
     <use xlink:href="#DejaVuSans-20" transform="translate(498.144531 0)"/>
     <use xlink:href="#DejaVuSans-4d" transform="translate(529.931641 0)"/>
     <use xlink:href="#DejaVuSans-69" transform="translate(616.210938 0)"/>
     <use xlink:href="#DejaVuSans-63" transform="translate(643.994141 0)"/>
     <use xlink:href="#DejaVuSans-72" transform="translate(698.974609 0)"/>
     <use xlink:href="#DejaVuSans-6f" transform="translate(737.837891 0)"/>
     <use xlink:href="#DejaVuSans-62" transform="translate(799.019531 0)"/>
     <use xlink:href="#DejaVuSans-69" transform="translate(862.496094 0)"/>
     <use xlink:href="#DejaVuSans-6f" transform="translate(890.279297 0)"/>
     <use xlink:href="#DejaVuSans-6d" transform="translate(951.460938 0)"/>
     <use xlink:href="#DejaVuSans-65" transform="translate(1048.873047 0)"/>
     <use xlink:href="#DejaVuSans-2c" transform="translate(1110.396484 0)"/>
     <use xlink:href="#DejaVuSans-20" transform="translate(1142.183594 0)"/>
     <use xlink:href="#DejaVuSans-50" transform="translate(1173.970703 0)"/>
     <use xlink:href="#DejaVuSans-61" transform="translate(1229.773438 0)"/>
     <use xlink:href="#DejaVuSans-63" transform="translate(1291.052734 0)"/>
     <use xlink:href="#DejaVuSans-42" transform="translate(1346.033203 0)"/>
     <use xlink:href="#DejaVuSans-69" transform="translate(1414.636719 0)"/>
     <use xlink:href="#DejaVuSans-6f" transform="translate(1442.419922 0)"/>
     <use xlink:href="#DejaVuSans-20" transform="translate(1503.601562 0)"/>
     <use xlink:href="#DejaVuSans-48" transform="translate(1535.388672 0)"/>
     <use xlink:href="#DejaVuSans-69" transform="translate(1610.583984 0)"/>
     <use xlink:href="#DejaVuSans-66" transform="translate(1638.367188 0)"/>
     <use xlink:href="#DejaVuSans-69" transform="translate(1673.572266 0)"/>
    </g>
   </g>
  </g>
  <g id="axes_3">
   <g id="patch_8">
    <path d="M 606.184205 151.2 
L 803.212203 151.2 
L 803.212203 26.88 
L 606.184205 26.88 
z
" style="fill: #ffffff"/>
   </g>
   <g id="FillBetweenPolyCollection_5">
    <defs>
     <path id="m34773c5025" d="M 615.140023 -160.785228 
L 615.140023 -148.59735 
L 637.529569 -147.331398 
L 659.919114 -134.827504 
L 682.308659 -135.596114 
L 704.698204 -118.011552 
L 727.087749 -128.162276 
L 749.477295 -120.205859 
L 771.86684 -120.320932 
L 794.256385 -126.361094 
L 794.256385 -139.736542 
L 794.256385 -139.736542 
L 771.86684 -132.842526 
L 749.477295 -133.83656 
L 727.087749 -143.074881 
L 704.698204 -131.512308 
L 682.308659 -149.963149 
L 659.919114 -149.543526 
L 637.529569 -160.278136 
L 615.140023 -160.785228 
z
"/>
    </defs>
    <g clip-path="url(#pf8a346b738)">
     <use xlink:href="#m34773c5025" x="0" y="216" style="fill: #cd5c5c; fill-opacity: 0.3"/>
    </g>
   </g>
   <g id="FillBetweenPolyCollection_6">
    <defs>
     <path id="m1194c501f2" d="M 615.140023 -181.575924 
L 615.140023 -165.712503 
L 637.529569 -168.494271 
L 659.919114 -161.897999 
L 682.308659 -160.88655 
L 704.698204 -140.709343 
L 727.087749 -149.858295 
L 749.477295 -145.954254 
L 771.86684 -139.844778 
L 794.256385 -150.905286 
L 794.256385 -167.106421 
L 794.256385 -167.106421 
L 771.86684 -158.955911 
L 749.477295 -163.610131 
L 727.087749 -165.712503 
L 704.698204 -156.089277 
L 682.308659 -178.810707 
L 659.919114 -181.005774 
L 637.529569 -183.469091 
L 615.140023 -181.575924 
z
"/>
    </defs>
    <g clip-path="url(#pf8a346b738)">
     <use xlink:href="#m1194c501f2" x="0" y="216" style="fill: #daa520; fill-opacity: 0.3"/>
    </g>
   </g>
   <g id="matplotlib.axis_5">
    <g id="xtick_11">
     <g id="line2d_26">
      <g>
       <use xlink:href="#m4cce30f087" x="615.140023" y="151.2" style="stroke: #000000; stroke-width: 0.8"/>
      </g>
     </g>
     <g id="text_25">
      <!-- 20 -->
      <g transform="translate(608.777523 165.798438) scale(0.1 -0.1)">
       <use xlink:href="#DejaVuSans-32"/>
       <use xlink:href="#DejaVuSans-30" transform="translate(63.623047 0)"/>
      </g>
     </g>
    </g>
    <g id="xtick_12">
     <g id="line2d_27">
      <g>
       <use xlink:href="#m4cce30f087" x="659.919114" y="151.2" style="stroke: #000000; stroke-width: 0.8"/>
      </g>
     </g>
     <g id="text_26">
      <!-- 22 -->
      <g transform="translate(653.556614 165.798438) scale(0.1 -0.1)">
       <use xlink:href="#DejaVuSans-32"/>
       <use xlink:href="#DejaVuSans-32" transform="translate(63.623047 0)"/>
      </g>
     </g>
    </g>
    <g id="xtick_13">
     <g id="line2d_28">
      <g>
       <use xlink:href="#m4cce30f087" x="704.698204" y="151.2" style="stroke: #000000; stroke-width: 0.8"/>
      </g>
     </g>
     <g id="text_27">
      <!-- 24 -->
      <g transform="translate(698.335704 165.798438) scale(0.1 -0.1)">
       <use xlink:href="#DejaVuSans-32"/>
       <use xlink:href="#DejaVuSans-34" transform="translate(63.623047 0)"/>
      </g>
     </g>
    </g>
    <g id="xtick_14">
     <g id="line2d_29">
      <g>
       <use xlink:href="#m4cce30f087" x="749.477295" y="151.2" style="stroke: #000000; stroke-width: 0.8"/>
      </g>
     </g>
     <g id="text_28">
      <!-- 26 -->
      <g transform="translate(743.114795 165.798438) scale(0.1 -0.1)">
       <use xlink:href="#DejaVuSans-32"/>
       <use xlink:href="#DejaVuSans-36" transform="translate(63.623047 0)"/>
      </g>
     </g>
    </g>
    <g id="xtick_15">
     <g id="line2d_30">
      <g>
       <use xlink:href="#m4cce30f087" x="794.256385" y="151.2" style="stroke: #000000; stroke-width: 0.8"/>
      </g>
     </g>
     <g id="text_29">
      <!-- 28 -->
      <g transform="translate(787.893885 165.798438) scale(0.1 -0.1)">
       <use xlink:href="#DejaVuSans-32"/>
       <use xlink:href="#DejaVuSans-38" transform="translate(63.623047 0)"/>
      </g>
     </g>
    </g>
    <g id="text_30">
     <!-- $t$ -->
     <g transform="translate(702.698204 179.476563) scale(0.1 -0.1)">
      <use xlink:href="#DejaVuSans-Oblique-74" transform="translate(0 0.78125)"/>
     </g>
    </g>
   </g>
   <g id="matplotlib.axis_6">
    <g id="ytick_10">
     <g id="line2d_31">
      <g>
       <use xlink:href="#mbe787bac4e" x="606.184205" y="141.504444" style="stroke: #000000; stroke-width: 0.6"/>
      </g>
     </g>
     <g id="text_31">
      <!-- $\mathdefault{2.4\times10^{-3}}$ -->
      <g transform="translate(549.184205 145.303663) scale(0.1 -0.1)">
       <use xlink:href="#DejaVuSans-32" transform="translate(0 0.765625)"/>
       <use xlink:href="#DejaVuSans-2e" transform="translate(63.623047 0.765625)"/>
       <use xlink:href="#DejaVuSans-34" transform="translate(95.410156 0.765625)"/>
       <use xlink:href="#DejaVuSans-d7" transform="translate(178.515625 0.765625)"/>
       <use xlink:href="#DejaVuSans-31" transform="translate(281.787109 0.765625)"/>
       <use xlink:href="#DejaVuSans-30" transform="translate(345.410156 0.765625)"/>
       <use xlink:href="#DejaVuSans-2212" transform="translate(409.990234 39.046875) scale(0.7)"/>
       <use xlink:href="#DejaVuSans-33" transform="translate(468.642578 39.046875) scale(0.7)"/>
      </g>
     </g>
    </g>
    <g id="ytick_11">
     <g id="line2d_32">
      <g>
       <use xlink:href="#mbe787bac4e" x="606.184205" y="115.986153" style="stroke: #000000; stroke-width: 0.6"/>
      </g>
     </g>
     <g id="text_32">
      <!-- $\mathdefault{2.6\times10^{-3}}$ -->
      <g transform="translate(549.184205 119.785372) scale(0.1 -0.1)">
       <use xlink:href="#DejaVuSans-32" transform="translate(0 0.765625)"/>
       <use xlink:href="#DejaVuSans-2e" transform="translate(63.623047 0.765625)"/>
       <use xlink:href="#DejaVuSans-36" transform="translate(95.410156 0.765625)"/>
       <use xlink:href="#DejaVuSans-d7" transform="translate(178.515625 0.765625)"/>
       <use xlink:href="#DejaVuSans-31" transform="translate(281.787109 0.765625)"/>
       <use xlink:href="#DejaVuSans-30" transform="translate(345.410156 0.765625)"/>
       <use xlink:href="#DejaVuSans-2212" transform="translate(409.990234 39.046875) scale(0.7)"/>
       <use xlink:href="#DejaVuSans-33" transform="translate(468.642578 39.046875) scale(0.7)"/>
      </g>
     </g>
    </g>
    <g id="ytick_12">
     <g id="line2d_33">
      <g>
       <use xlink:href="#mbe787bac4e" x="606.184205" y="92.359905" style="stroke: #000000; stroke-width: 0.6"/>
      </g>
     </g>
     <g id="text_33">
      <!-- $\mathdefault{2.8\times10^{-3}}$ -->
      <g transform="translate(549.384205 96.159124) scale(0.1 -0.1)">
       <use xlink:href="#DejaVuSans-32" transform="translate(0 0.765625)"/>
       <use xlink:href="#DejaVuSans-2e" transform="translate(63.623047 0.765625)"/>
       <use xlink:href="#DejaVuSans-38" transform="translate(92.785156 0.765625)"/>
       <use xlink:href="#DejaVuSans-d7" transform="translate(175.890625 0.765625)"/>
       <use xlink:href="#DejaVuSans-31" transform="translate(279.162109 0.765625)"/>
       <use xlink:href="#DejaVuSans-30" transform="translate(342.785156 0.765625)"/>
       <use xlink:href="#DejaVuSans-2212" transform="translate(407.365234 39.046875) scale(0.7)"/>
       <use xlink:href="#DejaVuSans-33" transform="translate(466.017578 39.046875) scale(0.7)"/>
      </g>
     </g>
    </g>
    <g id="ytick_13">
     <g id="line2d_34">
      <g>
       <use xlink:href="#mbe787bac4e" x="606.184205" y="70.364395" style="stroke: #000000; stroke-width: 0.6"/>
      </g>
     </g>
     <g id="text_34">
      <!-- $\mathdefault{3\times10^{-3}}$ -->
      <g transform="translate(558.684205 74.163614) scale(0.1 -0.1)">
       <use xlink:href="#DejaVuSans-33" transform="translate(0 0.765625)"/>
       <use xlink:href="#DejaVuSans-d7" transform="translate(83.105469 0.765625)"/>
       <use xlink:href="#DejaVuSans-31" transform="translate(186.376953 0.765625)"/>
       <use xlink:href="#DejaVuSans-30" transform="translate(250 0.765625)"/>
       <use xlink:href="#DejaVuSans-2212" transform="translate(314.580078 39.046875) scale(0.7)"/>
       <use xlink:href="#DejaVuSans-33" transform="translate(373.232422 39.046875) scale(0.7)"/>
      </g>
     </g>
    </g>
    <g id="ytick_14">
     <g id="line2d_35">
      <g>
       <use xlink:href="#mbe787bac4e" x="606.184205" y="49.788969" style="stroke: #000000; stroke-width: 0.6"/>
      </g>
     </g>
     <g id="text_35">
      <!-- $\mathdefault{3.2\times10^{-3}}$ -->
      <g transform="translate(549.684205 53.588188) scale(0.1 -0.1)">
       <use xlink:href="#DejaVuSans-33" transform="translate(0 0.765625)"/>
       <use xlink:href="#DejaVuSans-2e" transform="translate(63.623047 0.765625)"/>
       <use xlink:href="#DejaVuSans-32" transform="translate(89.910156 0.765625)"/>
       <use xlink:href="#DejaVuSans-d7" transform="translate(173.015625 0.765625)"/>
       <use xlink:href="#DejaVuSans-31" transform="translate(276.287109 0.765625)"/>
       <use xlink:href="#DejaVuSans-30" transform="translate(339.910156 0.765625)"/>
       <use xlink:href="#DejaVuSans-2212" transform="translate(404.490234 39.046875) scale(0.7)"/>
       <use xlink:href="#DejaVuSans-33" transform="translate(463.142578 39.046875) scale(0.7)"/>
      </g>
     </g>
    </g>
    <g id="ytick_15">
     <g id="line2d_36">
      <g>
       <use xlink:href="#mbe787bac4e" x="606.184205" y="30.461328" style="stroke: #000000; stroke-width: 0.6"/>
      </g>
     </g>
     <g id="text_36">
      <!-- $\mathdefault{3.4\times10^{-3}}$ -->
      <g transform="translate(549.184205 34.260547) scale(0.1 -0.1)">
       <use xlink:href="#DejaVuSans-33" transform="translate(0 0.765625)"/>
       <use xlink:href="#DejaVuSans-2e" transform="translate(63.623047 0.765625)"/>
       <use xlink:href="#DejaVuSans-34" transform="translate(95.410156 0.765625)"/>
       <use xlink:href="#DejaVuSans-d7" transform="translate(178.515625 0.765625)"/>
       <use xlink:href="#DejaVuSans-31" transform="translate(281.787109 0.765625)"/>
       <use xlink:href="#DejaVuSans-30" transform="translate(345.410156 0.765625)"/>
       <use xlink:href="#DejaVuSans-2212" transform="translate(409.990234 39.046875) scale(0.7)"/>
       <use xlink:href="#DejaVuSans-33" transform="translate(468.642578 39.046875) scale(0.7)"/>
      </g>
     </g>
    </g>
   </g>
   <g id="line2d_37">
    <path d="M 615.140023 118.840193 
L 637.529569 123.457499 
L 659.919114 127.966659 
L 682.308659 131.706183 
L 704.698204 136.338133 
L 727.087749 139.167508 
L 749.477295 141.672996 
L 771.86684 143.768559 
L 794.256385 145.549091 
" clip-path="url(#pf8a346b738)" style="fill: none; stroke: #000000; stroke-width: 3; stroke-linecap: square"/>
   </g>
   <g id="line2d_38">
    <path d="M 615.140023 61.870723 
L 637.529569 61.974215 
L 659.919114 73.461202 
L 682.308659 73.675888 
L 704.698204 90.996503 
L 727.087749 80.6233 
L 749.477295 88.174671 
L 771.86684 89.751819 
L 794.256385 82.715298 
" clip-path="url(#pf8a346b738)" style="fill: none; stroke-dasharray: 11.1,4.8; stroke-dashoffset: 0; stroke: #cd5c5c; stroke-width: 3"/>
   </g>
   <g id="line2d_39">
    <path d="M 615.140023 41.916756 
L 637.529569 40.752512 
L 659.919114 45.140524 
L 682.308659 47.406828 
L 704.698204 66.456474 
L 727.087749 58.167195 
L 749.477295 61.870723 
L 771.86684 68.351642 
L 794.256385 56.738473 
" clip-path="url(#pf8a346b738)" style="fill: none; stroke-dasharray: 11.1,4.8; stroke-dashoffset: 0; stroke: #daa520; stroke-width: 3"/>
   </g>
   <g id="patch_9">
    <path d="M 606.184205 151.2 
L 606.184205 26.88 
" style="fill: none; stroke: #000000; stroke-width: 0.8; stroke-linejoin: miter; stroke-linecap: square"/>
   </g>
   <g id="patch_10">
    <path d="M 606.184205 151.2 
L 803.212203 151.2 
" style="fill: none; stroke: #000000; stroke-width: 0.8; stroke-linejoin: miter; stroke-linecap: square"/>
   </g>
   <g id="text_37">
    <!-- B. subtilis, Illumina -->
    <g transform="translate(647.841642 20.88) scale(0.12 -0.12)">
     <defs>
      <path id="DejaVuSans-73" d="M 2834 3397 
L 2834 2853 
Q 2591 2978 2328 3040 
Q 2066 3103 1784 3103 
Q 1356 3103 1142 2972 
Q 928 2841 928 2578 
Q 928 2378 1081 2264 
Q 1234 2150 1697 2047 
L 1894 2003 
Q 2506 1872 2764 1633 
Q 3022 1394 3022 966 
Q 3022 478 2636 193 
Q 2250 -91 1575 -91 
Q 1294 -91 989 -36 
Q 684 19 347 128 
L 347 722 
Q 666 556 975 473 
Q 1284 391 1588 391 
Q 1994 391 2212 530 
Q 2431 669 2431 922 
Q 2431 1156 2273 1281 
Q 2116 1406 1581 1522 
L 1381 1569 
Q 847 1681 609 1914 
Q 372 2147 372 2553 
Q 372 3047 722 3315 
Q 1072 3584 1716 3584 
Q 2034 3584 2315 3537 
Q 2597 3491 2834 3397 
z
" transform="scale(0.015625)"/>
      <path id="DejaVuSans-6c" d="M 603 4863 
L 1178 4863 
L 1178 0 
L 603 0 
L 603 4863 
z
" transform="scale(0.015625)"/>
     </defs>
     <use xlink:href="#DejaVuSans-42"/>
     <use xlink:href="#DejaVuSans-2e" transform="translate(68.603516 0)"/>
     <use xlink:href="#DejaVuSans-20" transform="translate(100.390625 0)"/>
     <use xlink:href="#DejaVuSans-73" transform="translate(132.177734 0)"/>
     <use xlink:href="#DejaVuSans-75" transform="translate(184.277344 0)"/>
     <use xlink:href="#DejaVuSans-62" transform="translate(247.65625 0)"/>
     <use xlink:href="#DejaVuSans-74" transform="translate(311.132812 0)"/>
     <use xlink:href="#DejaVuSans-69" transform="translate(350.341797 0)"/>
     <use xlink:href="#DejaVuSans-6c" transform="translate(378.125 0)"/>
     <use xlink:href="#DejaVuSans-69" transform="translate(405.908203 0)"/>
     <use xlink:href="#DejaVuSans-73" transform="translate(433.691406 0)"/>
     <use xlink:href="#DejaVuSans-2c" transform="translate(485.791016 0)"/>
     <use xlink:href="#DejaVuSans-20" transform="translate(517.578125 0)"/>
     <use xlink:href="#DejaVuSans-49" transform="translate(549.365234 0)"/>
     <use xlink:href="#DejaVuSans-6c" transform="translate(578.857422 0)"/>
     <use xlink:href="#DejaVuSans-6c" transform="translate(606.640625 0)"/>
     <use xlink:href="#DejaVuSans-75" transform="translate(634.423828 0)"/>
     <use xlink:href="#DejaVuSans-6d" transform="translate(697.802734 0)"/>
     <use xlink:href="#DejaVuSans-69" transform="translate(795.214844 0)"/>
     <use xlink:href="#DejaVuSans-6e" transform="translate(822.998047 0)"/>
     <use xlink:href="#DejaVuSans-61" transform="translate(886.376953 0)"/>
    </g>
   </g>
  </g>
  <g id="axes_4">
   <g id="patch_11">
    <path d="M 872.172002 151.2 
L 1069.2 151.2 
L 1069.2 26.88 
L 872.172002 26.88 
z
" style="fill: #ffffff"/>
   </g>
   <g id="FillBetweenPolyCollection_7">
    <defs>
     <path id="m688cfe9439" d="M 881.12782 -183.469091 
L 881.12782 -166.055578 
L 903.517366 -136.357758 
L 925.906911 -121.673728 
L 948.296456 -113.091243 
L 970.686001 -97.65898 
L 993.075546 -95.356587 
L 1015.465092 -88.024184 
L 1037.854637 -72.613961 
L 1060.244182 -77.750181 
L 1060.244182 -98.139234 
L 1060.244182 -98.139234 
L 1037.854637 -90.25137 
L 1015.465092 -107.512528 
L 993.075546 -114.679275 
L 970.686001 -117.607283 
L 948.296456 -130.576047 
L 925.906911 -138.613784 
L 903.517366 -150.53213 
L 881.12782 -183.469091 
z
"/>
    </defs>
    <g clip-path="url(#pf65c79ec02)">
     <use xlink:href="#m688cfe9439" x="0" y="216" style="fill: #cd5c5c; fill-opacity: 0.3"/>
    </g>
   </g>
   <g id="FillBetweenPolyCollection_8">
    <defs>
     <path id="m732f769783" d="M 881.12782 -166.122241 
L 881.12782 -137.407954 
L 903.517366 -112.437182 
L 925.906911 -123.67569 
L 948.296456 -91.671617 
L 970.686001 -95.213146 
L 993.075546 -93.674942 
L 1015.465092 -83.938022 
L 1037.854637 -70.450909 
L 1060.244182 -93.007628 
L 1060.244182 -132.628714 
L 1060.244182 -132.628714 
L 1037.854637 -116.625582 
L 1015.465092 -118.778011 
L 993.075546 -136.436317 
L 970.686001 -131.622661 
L 948.296456 -125.375598 
L 925.906911 -153.488934 
L 903.517366 -144.678926 
L 881.12782 -166.122241 
z
"/>
    </defs>
    <g clip-path="url(#pf65c79ec02)">
     <use xlink:href="#m732f769783" x="0" y="216" style="fill: #daa520; fill-opacity: 0.3"/>
    </g>
   </g>
   <g id="matplotlib.axis_7">
    <g id="xtick_16">
     <g id="line2d_40">
      <g>
       <use xlink:href="#m4cce30f087" x="881.12782" y="151.2" style="stroke: #000000; stroke-width: 0.8"/>
      </g>
     </g>
     <g id="text_38">
      <!-- 20 -->
      <g transform="translate(874.76532 165.798438) scale(0.1 -0.1)">
       <use xlink:href="#DejaVuSans-32"/>
       <use xlink:href="#DejaVuSans-30" transform="translate(63.623047 0)"/>
      </g>
     </g>
    </g>
    <g id="xtick_17">
     <g id="line2d_41">
      <g>
       <use xlink:href="#m4cce30f087" x="925.906911" y="151.2" style="stroke: #000000; stroke-width: 0.8"/>
      </g>
     </g>
     <g id="text_39">
      <!-- 22 -->
      <g transform="translate(919.544411 165.798438) scale(0.1 -0.1)">
       <use xlink:href="#DejaVuSans-32"/>
       <use xlink:href="#DejaVuSans-32" transform="translate(63.623047 0)"/>
      </g>
     </g>
    </g>
    <g id="xtick_18">
     <g id="line2d_42">
      <g>
       <use xlink:href="#m4cce30f087" x="970.686001" y="151.2" style="stroke: #000000; stroke-width: 0.8"/>
      </g>
     </g>
     <g id="text_40">
      <!-- 24 -->
      <g transform="translate(964.323501 165.798438) scale(0.1 -0.1)">
       <use xlink:href="#DejaVuSans-32"/>
       <use xlink:href="#DejaVuSans-34" transform="translate(63.623047 0)"/>
      </g>
     </g>
    </g>
    <g id="xtick_19">
     <g id="line2d_43">
      <g>
       <use xlink:href="#m4cce30f087" x="1015.465092" y="151.2" style="stroke: #000000; stroke-width: 0.8"/>
      </g>
     </g>
     <g id="text_41">
      <!-- 26 -->
      <g transform="translate(1009.102592 165.798438) scale(0.1 -0.1)">
       <use xlink:href="#DejaVuSans-32"/>
       <use xlink:href="#DejaVuSans-36" transform="translate(63.623047 0)"/>
      </g>
     </g>
    </g>
    <g id="xtick_20">
     <g id="line2d_44">
      <g>
       <use xlink:href="#m4cce30f087" x="1060.244182" y="151.2" style="stroke: #000000; stroke-width: 0.8"/>
      </g>
     </g>
     <g id="text_42">
      <!-- 28 -->
      <g transform="translate(1053.881682 165.798438) scale(0.1 -0.1)">
       <use xlink:href="#DejaVuSans-32"/>
       <use xlink:href="#DejaVuSans-38" transform="translate(63.623047 0)"/>
      </g>
     </g>
    </g>
    <g id="text_43">
     <!-- $t$ -->
     <g transform="translate(968.686001 179.476563) scale(0.1 -0.1)">
      <use xlink:href="#DejaVuSans-Oblique-74" transform="translate(0 0.78125)"/>
     </g>
    </g>
   </g>
   <g id="matplotlib.axis_8">
    <g id="ytick_16">
     <g id="line2d_45">
      <g>
       <use xlink:href="#m35bc64d80d" x="872.172002" y="65.932502" style="stroke: #000000; stroke-width: 0.8"/>
      </g>
     </g>
     <g id="text_44">
      <!-- $\mathdefault{10^{-1}}$ -->
      <g transform="translate(841.672002 69.731721) scale(0.1 -0.1)">
       <use xlink:href="#DejaVuSans-31" transform="translate(0 0.684375)"/>
       <use xlink:href="#DejaVuSans-30" transform="translate(63.623047 0.684375)"/>
       <use xlink:href="#DejaVuSans-2212" transform="translate(128.203125 38.965625) scale(0.7)"/>
       <use xlink:href="#DejaVuSans-31" transform="translate(186.855469 38.965625) scale(0.7)"/>
      </g>
     </g>
    </g>
    <g id="ytick_17">
     <g id="line2d_46">
      <g>
       <use xlink:href="#mbe787bac4e" x="872.172002" y="146.664003" style="stroke: #000000; stroke-width: 0.6"/>
      </g>
     </g>
     <g id="text_45">
      <!-- $\mathdefault{9.2\times10^{-2}}$ -->
      <g transform="translate(815.672002 150.463222) scale(0.1 -0.1)">
       <use xlink:href="#DejaVuSans-39" transform="translate(0 0.765625)"/>
       <use xlink:href="#DejaVuSans-2e" transform="translate(63.623047 0.765625)"/>
       <use xlink:href="#DejaVuSans-32" transform="translate(89.910156 0.765625)"/>
       <use xlink:href="#DejaVuSans-d7" transform="translate(173.015625 0.765625)"/>
       <use xlink:href="#DejaVuSans-31" transform="translate(276.287109 0.765625)"/>
       <use xlink:href="#DejaVuSans-30" transform="translate(339.910156 0.765625)"/>
       <use xlink:href="#DejaVuSans-2212" transform="translate(404.490234 39.046875) scale(0.7)"/>
       <use xlink:href="#DejaVuSans-32" transform="translate(463.142578 39.046875) scale(0.7)"/>
      </g>
     </g>
    </g>
    <g id="ytick_18">
     <g id="line2d_47">
      <g>
       <use xlink:href="#mbe787bac4e" x="872.172002" y="125.841327" style="stroke: #000000; stroke-width: 0.6"/>
      </g>
     </g>
     <g id="text_46">
      <!-- $\mathdefault{9.4\times10^{-2}}$ -->
      <g transform="translate(815.172002 129.640546) scale(0.1 -0.1)">
       <use xlink:href="#DejaVuSans-39" transform="translate(0 0.765625)"/>
       <use xlink:href="#DejaVuSans-2e" transform="translate(63.623047 0.765625)"/>
       <use xlink:href="#DejaVuSans-34" transform="translate(95.410156 0.765625)"/>
       <use xlink:href="#DejaVuSans-d7" transform="translate(178.515625 0.765625)"/>
       <use xlink:href="#DejaVuSans-31" transform="translate(281.787109 0.765625)"/>
       <use xlink:href="#DejaVuSans-30" transform="translate(345.410156 0.765625)"/>
       <use xlink:href="#DejaVuSans-2212" transform="translate(409.990234 39.046875) scale(0.7)"/>
       <use xlink:href="#DejaVuSans-32" transform="translate(468.642578 39.046875) scale(0.7)"/>
      </g>
     </g>
    </g>
    <g id="ytick_19">
     <g id="line2d_48">
      <g>
       <use xlink:href="#mbe787bac4e" x="872.172002" y="105.457056" style="stroke: #000000; stroke-width: 0.6"/>
      </g>
     </g>
     <g id="text_47">
      <!-- $\mathdefault{9.6\times10^{-2}}$ -->
      <g transform="translate(815.172002 109.256275) scale(0.1 -0.1)">
       <use xlink:href="#DejaVuSans-39" transform="translate(0 0.765625)"/>
       <use xlink:href="#DejaVuSans-2e" transform="translate(63.623047 0.765625)"/>
       <use xlink:href="#DejaVuSans-36" transform="translate(95.410156 0.765625)"/>
       <use xlink:href="#DejaVuSans-d7" transform="translate(178.515625 0.765625)"/>
       <use xlink:href="#DejaVuSans-31" transform="translate(281.787109 0.765625)"/>
       <use xlink:href="#DejaVuSans-30" transform="translate(345.410156 0.765625)"/>
       <use xlink:href="#DejaVuSans-2212" transform="translate(409.990234 39.046875) scale(0.7)"/>
       <use xlink:href="#DejaVuSans-32" transform="translate(468.642578 39.046875) scale(0.7)"/>
      </g>
     </g>
    </g>
    <g id="ytick_20">
     <g id="line2d_49">
      <g>
       <use xlink:href="#mbe787bac4e" x="872.172002" y="85.493109" style="stroke: #000000; stroke-width: 0.6"/>
      </g>
     </g>
     <g id="text_48">
      <!-- $\mathdefault{9.8\times10^{-2}}$ -->
      <g transform="translate(815.372002 89.292328) scale(0.1 -0.1)">
       <use xlink:href="#DejaVuSans-39" transform="translate(0 0.765625)"/>
       <use xlink:href="#DejaVuSans-2e" transform="translate(63.623047 0.765625)"/>
       <use xlink:href="#DejaVuSans-38" transform="translate(92.785156 0.765625)"/>
       <use xlink:href="#DejaVuSans-d7" transform="translate(175.890625 0.765625)"/>
       <use xlink:href="#DejaVuSans-31" transform="translate(279.162109 0.765625)"/>
       <use xlink:href="#DejaVuSans-30" transform="translate(342.785156 0.765625)"/>
       <use xlink:href="#DejaVuSans-2212" transform="translate(407.365234 39.046875) scale(0.7)"/>
       <use xlink:href="#DejaVuSans-32" transform="translate(466.017578 39.046875) scale(0.7)"/>
      </g>
     </g>
    </g>
    <g id="ytick_21">
     <g id="line2d_50">
      <g>
       <use xlink:href="#mbe787bac4e" x="872.172002" y="46.75926" style="stroke: #000000; stroke-width: 0.6"/>
      </g>
     </g>
     <g id="text_49">
      <!-- $\mathdefault{1.02\times10^{-1}}$ -->
      <g transform="translate(808.772002 50.558478) scale(0.1 -0.1)">
       <use xlink:href="#DejaVuSans-31" transform="translate(0 0.684375)"/>
       <use xlink:href="#DejaVuSans-2e" transform="translate(63.623047 0.684375)"/>
       <use xlink:href="#DejaVuSans-30" transform="translate(95.410156 0.684375)"/>
       <use xlink:href="#DejaVuSans-32" transform="translate(159.033203 0.684375)"/>
       <use xlink:href="#DejaVuSans-d7" transform="translate(242.138672 0.684375)"/>
       <use xlink:href="#DejaVuSans-31" transform="translate(345.410156 0.684375)"/>
       <use xlink:href="#DejaVuSans-30" transform="translate(409.033203 0.684375)"/>
       <use xlink:href="#DejaVuSans-2212" transform="translate(473.613281 38.965625) scale(0.7)"/>
       <use xlink:href="#DejaVuSans-31" transform="translate(532.265625 38.965625) scale(0.7)"/>
      </g>
     </g>
    </g>
    <g id="ytick_22">
     <g id="line2d_51">
      <g>
       <use xlink:href="#mbe787bac4e" x="872.172002" y="27.958337" style="stroke: #000000; stroke-width: 0.6"/>
      </g>
     </g>
     <g id="text_50">
      <!-- $\mathdefault{1.04\times10^{-1}}$ -->
      <g transform="translate(808.772002 31.757555) scale(0.1 -0.1)">
       <use xlink:href="#DejaVuSans-31" transform="translate(0 0.684375)"/>
       <use xlink:href="#DejaVuSans-2e" transform="translate(63.623047 0.684375)"/>
       <use xlink:href="#DejaVuSans-30" transform="translate(95.410156 0.684375)"/>
       <use xlink:href="#DejaVuSans-34" transform="translate(159.033203 0.684375)"/>
       <use xlink:href="#DejaVuSans-d7" transform="translate(242.138672 0.684375)"/>
       <use xlink:href="#DejaVuSans-31" transform="translate(345.410156 0.684375)"/>
       <use xlink:href="#DejaVuSans-30" transform="translate(409.033203 0.684375)"/>
       <use xlink:href="#DejaVuSans-2212" transform="translate(473.613281 38.965625) scale(0.7)"/>
       <use xlink:href="#DejaVuSans-31" transform="translate(532.265625 38.965625) scale(0.7)"/>
      </g>
     </g>
    </g>
   </g>
   <g id="line2d_52">
    <path d="M 881.12782 95.391403 
L 903.517366 100.91183 
L 925.906911 105.896606 
L 948.296456 110.419674 
L 970.686001 114.927247 
L 993.075546 119.213802 
L 1015.465092 123.234859 
L 1037.854637 127.204639 
L 1060.244182 130.852807 
" clip-path="url(#pf65c79ec02)" style="fill: none; stroke: #000000; stroke-width: 3; stroke-linecap: square"/>
   </g>
   <g id="line2d_53">
    <path d="M 881.12782 40.589961 
L 903.517366 73.855803 
L 925.906911 84.900505 
L 948.296456 94.087014 
L 970.686001 108.679718 
L 993.075546 109.337691 
L 1015.465092 118.105972 
L 1037.854637 135.322565 
L 1060.244182 126.006144 
" clip-path="url(#pf65c79ec02)" style="fill: none; stroke-dasharray: 11.1,4.8; stroke-dashoffset: 0; stroke: #cd5c5c; stroke-width: 3"/>
   </g>
   <g id="line2d_54">
    <path d="M 881.12782 64.80035 
L 903.517366 85.690725 
L 925.906911 78.631285 
L 948.296456 105.648701 
L 970.686001 103.291078 
L 993.075546 99.264177 
L 1015.465092 114.424204 
L 1037.854637 117.523709 
L 1060.244182 101.280555 
" clip-path="url(#pf65c79ec02)" style="fill: none; stroke-dasharray: 11.1,4.8; stroke-dashoffset: 0; stroke: #daa520; stroke-width: 3"/>
   </g>
   <g id="patch_12">
    <path d="M 872.172002 151.2 
L 872.172002 26.88 
" style="fill: none; stroke: #000000; stroke-width: 0.8; stroke-linejoin: miter; stroke-linecap: square"/>
   </g>
   <g id="patch_13">
    <path d="M 872.172002 151.2 
L 1069.2 151.2 
" style="fill: none; stroke: #000000; stroke-width: 0.8; stroke-linejoin: miter; stroke-linecap: square"/>
   </g>
   <g id="text_51">
    <!-- B. subtilis, PacBio RSII -->
    <g transform="translate(904.522876 20.88) scale(0.12 -0.12)">
     <defs>
      <path id="DejaVuSans-52" d="M 2841 2188 
Q 3044 2119 3236 1894 
Q 3428 1669 3622 1275 
L 4263 0 
L 3584 0 
L 2988 1197 
Q 2756 1666 2539 1819 
Q 2322 1972 1947 1972 
L 1259 1972 
L 1259 0 
L 628 0 
L 628 4666 
L 2053 4666 
Q 2853 4666 3247 4331 
Q 3641 3997 3641 3322 
Q 3641 2881 3436 2590 
Q 3231 2300 2841 2188 
z
M 1259 4147 
L 1259 2491 
L 2053 2491 
Q 2509 2491 2742 2702 
Q 2975 2913 2975 3322 
Q 2975 3731 2742 3939 
Q 2509 4147 2053 4147 
L 1259 4147 
z
" transform="scale(0.015625)"/>
      <path id="DejaVuSans-53" d="M 3425 4513 
L 3425 3897 
Q 3066 4069 2747 4153 
Q 2428 4238 2131 4238 
Q 1616 4238 1336 4038 
Q 1056 3838 1056 3469 
Q 1056 3159 1242 3001 
Q 1428 2844 1947 2747 
L 2328 2669 
Q 3034 2534 3370 2195 
Q 3706 1856 3706 1288 
Q 3706 609 3251 259 
Q 2797 -91 1919 -91 
Q 1588 -91 1214 -16 
Q 841 59 441 206 
L 441 856 
Q 825 641 1194 531 
Q 1563 422 1919 422 
Q 2459 422 2753 634 
Q 3047 847 3047 1241 
Q 3047 1584 2836 1778 
Q 2625 1972 2144 2069 
L 1759 2144 
Q 1053 2284 737 2584 
Q 422 2884 422 3419 
Q 422 4038 858 4394 
Q 1294 4750 2059 4750 
Q 2388 4750 2728 4690 
Q 3069 4631 3425 4513 
z
" transform="scale(0.015625)"/>
     </defs>
     <use xlink:href="#DejaVuSans-42"/>
     <use xlink:href="#DejaVuSans-2e" transform="translate(68.603516 0)"/>
     <use xlink:href="#DejaVuSans-20" transform="translate(100.390625 0)"/>
     <use xlink:href="#DejaVuSans-73" transform="translate(132.177734 0)"/>
     <use xlink:href="#DejaVuSans-75" transform="translate(184.277344 0)"/>
     <use xlink:href="#DejaVuSans-62" transform="translate(247.65625 0)"/>
     <use xlink:href="#DejaVuSans-74" transform="translate(311.132812 0)"/>
     <use xlink:href="#DejaVuSans-69" transform="translate(350.341797 0)"/>
     <use xlink:href="#DejaVuSans-6c" transform="translate(378.125 0)"/>
     <use xlink:href="#DejaVuSans-69" transform="translate(405.908203 0)"/>
     <use xlink:href="#DejaVuSans-73" transform="translate(433.691406 0)"/>
     <use xlink:href="#DejaVuSans-2c" transform="translate(485.791016 0)"/>
     <use xlink:href="#DejaVuSans-20" transform="translate(517.578125 0)"/>
     <use xlink:href="#DejaVuSans-50" transform="translate(549.365234 0)"/>
     <use xlink:href="#DejaVuSans-61" transform="translate(605.167969 0)"/>
     <use xlink:href="#DejaVuSans-63" transform="translate(666.447266 0)"/>
     <use xlink:href="#DejaVuSans-42" transform="translate(721.427734 0)"/>
     <use xlink:href="#DejaVuSans-69" transform="translate(790.03125 0)"/>
     <use xlink:href="#DejaVuSans-6f" transform="translate(817.814453 0)"/>
     <use xlink:href="#DejaVuSans-20" transform="translate(878.996094 0)"/>
     <use xlink:href="#DejaVuSans-52" transform="translate(910.783203 0)"/>
     <use xlink:href="#DejaVuSans-53" transform="translate(980.265625 0)"/>
     <use xlink:href="#DejaVuSans-49" transform="translate(1043.742188 0)"/>
     <use xlink:href="#DejaVuSans-49" transform="translate(1073.234375 0)"/>
    </g>
   </g>
  </g>
  <g id="legend_1">
   <g id="patch_14">
    <path d="M 177.723437 211 
L 902.276562 211 
Q 904.276562 211 904.276562 209 
L 904.276562 195.321875 
Q 904.276562 193.321875 902.276562 193.321875 
L 177.723437 193.321875 
Q 175.723437 193.321875 175.723437 195.321875 
L 175.723437 209 
Q 175.723437 211 177.723437 211 
z
" style="fill: #ffffff; opacity: 0.8; stroke: #cccccc; stroke-linejoin: miter"/>
   </g>
   <g id="line2d_55">
    <path d="M 179.723437 201.420312 
L 189.723437 201.420312 
L 199.723437 201.420312 
" style="fill: none; stroke: #000000; stroke-width: 3; stroke-linecap: square"/>
   </g>
   <g id="text_52">
    <!-- Ground truth hazard rate -->
    <g transform="translate(207.723437 204.920312) scale(0.1 -0.1)">
     <defs>
      <path id="DejaVuSans-68" d="M 3513 2113 
L 3513 0 
L 2938 0 
L 2938 2094 
Q 2938 2591 2744 2837 
Q 2550 3084 2163 3084 
Q 1697 3084 1428 2787 
Q 1159 2491 1159 1978 
L 1159 0 
L 581 0 
L 581 4863 
L 1159 4863 
L 1159 2956 
Q 1366 3272 1645 3428 
Q 1925 3584 2291 3584 
Q 2894 3584 3203 3211 
Q 3513 2838 3513 2113 
z
" transform="scale(0.015625)"/>
      <path id="DejaVuSans-7a" d="M 353 3500 
L 3084 3500 
L 3084 2975 
L 922 459 
L 3084 459 
L 3084 0 
L 275 0 
L 275 525 
L 2438 3041 
L 353 3041 
L 353 3500 
z
" transform="scale(0.015625)"/>
     </defs>
     <use xlink:href="#DejaVuSans-47"/>
     <use xlink:href="#DejaVuSans-72" transform="translate(77.490234 0)"/>
     <use xlink:href="#DejaVuSans-6f" transform="translate(116.353516 0)"/>
     <use xlink:href="#DejaVuSans-75" transform="translate(177.535156 0)"/>
     <use xlink:href="#DejaVuSans-6e" transform="translate(240.914062 0)"/>
     <use xlink:href="#DejaVuSans-64" transform="translate(304.292969 0)"/>
     <use xlink:href="#DejaVuSans-20" transform="translate(367.769531 0)"/>
     <use xlink:href="#DejaVuSans-74" transform="translate(399.556641 0)"/>
     <use xlink:href="#DejaVuSans-72" transform="translate(438.765625 0)"/>
     <use xlink:href="#DejaVuSans-75" transform="translate(479.878906 0)"/>
     <use xlink:href="#DejaVuSans-74" transform="translate(543.257812 0)"/>
     <use xlink:href="#DejaVuSans-68" transform="translate(582.466797 0)"/>
     <use xlink:href="#DejaVuSans-20" transform="translate(645.845703 0)"/>
     <use xlink:href="#DejaVuSans-68" transform="translate(677.632812 0)"/>
     <use xlink:href="#DejaVuSans-61" transform="translate(741.011719 0)"/>
     <use xlink:href="#DejaVuSans-7a" transform="translate(802.291016 0)"/>
     <use xlink:href="#DejaVuSans-61" transform="translate(854.78125 0)"/>
     <use xlink:href="#DejaVuSans-72" transform="translate(916.060547 0)"/>
     <use xlink:href="#DejaVuSans-64" transform="translate(955.423828 0)"/>
     <use xlink:href="#DejaVuSans-20" transform="translate(1018.900391 0)"/>
     <use xlink:href="#DejaVuSans-72" transform="translate(1050.6875 0)"/>
     <use xlink:href="#DejaVuSans-61" transform="translate(1091.800781 0)"/>
     <use xlink:href="#DejaVuSans-74" transform="translate(1153.080078 0)"/>
     <use xlink:href="#DejaVuSans-65" transform="translate(1192.289062 0)"/>
    </g>
   </g>
   <g id="line2d_56">
    <path d="M 353.1 201.420312 
L 363.1 201.420312 
L 373.1 201.420312 
" style="fill: none; stroke-dasharray: 11.1,4.8; stroke-dashoffset: 0; stroke: #cd5c5c; stroke-width: 3"/>
   </g>
   <g id="text_53">
    <!-- skiver estimated hazard rate (without reference) -->
    <g transform="translate(381.1 204.920312) scale(0.1 -0.1)">
     <defs>
      <path id="DejaVuSans-6b" d="M 581 4863 
L 1159 4863 
L 1159 1991 
L 2875 3500 
L 3609 3500 
L 1753 1863 
L 3688 0 
L 2938 0 
L 1159 1709 
L 1159 0 
L 581 0 
L 581 4863 
z
" transform="scale(0.015625)"/>
      <path id="DejaVuSans-76" d="M 191 3500 
L 800 3500 
L 1894 563 
L 2988 3500 
L 3597 3500 
L 2284 0 
L 1503 0 
L 191 3500 
z
" transform="scale(0.015625)"/>
      <path id="DejaVuSans-77" d="M 269 3500 
L 844 3500 
L 1563 769 
L 2278 3500 
L 2956 3500 
L 3675 769 
L 4391 3500 
L 4966 3500 
L 4050 0 
L 3372 0 
L 2619 2869 
L 1863 0 
L 1184 0 
L 269 3500 
z
" transform="scale(0.015625)"/>
     </defs>
     <use xlink:href="#DejaVuSans-73"/>
     <use xlink:href="#DejaVuSans-6b" transform="translate(52.099609 0)"/>
     <use xlink:href="#DejaVuSans-69" transform="translate(110.009766 0)"/>
     <use xlink:href="#DejaVuSans-76" transform="translate(137.792969 0)"/>
     <use xlink:href="#DejaVuSans-65" transform="translate(196.972656 0)"/>
     <use xlink:href="#DejaVuSans-72" transform="translate(258.496094 0)"/>
     <use xlink:href="#DejaVuSans-20" transform="translate(299.609375 0)"/>
     <use xlink:href="#DejaVuSans-65" transform="translate(331.396484 0)"/>
     <use xlink:href="#DejaVuSans-73" transform="translate(392.919922 0)"/>
     <use xlink:href="#DejaVuSans-74" transform="translate(445.019531 0)"/>
     <use xlink:href="#DejaVuSans-69" transform="translate(484.228516 0)"/>
     <use xlink:href="#DejaVuSans-6d" transform="translate(512.011719 0)"/>
     <use xlink:href="#DejaVuSans-61" transform="translate(609.423828 0)"/>
     <use xlink:href="#DejaVuSans-74" transform="translate(670.703125 0)"/>
     <use xlink:href="#DejaVuSans-65" transform="translate(709.912109 0)"/>
     <use xlink:href="#DejaVuSans-64" transform="translate(771.435547 0)"/>
     <use xlink:href="#DejaVuSans-20" transform="translate(834.912109 0)"/>
     <use xlink:href="#DejaVuSans-68" transform="translate(866.699219 0)"/>
     <use xlink:href="#DejaVuSans-61" transform="translate(930.078125 0)"/>
     <use xlink:href="#DejaVuSans-7a" transform="translate(991.357422 0)"/>
     <use xlink:href="#DejaVuSans-61" transform="translate(1043.847656 0)"/>
     <use xlink:href="#DejaVuSans-72" transform="translate(1105.126953 0)"/>
     <use xlink:href="#DejaVuSans-64" transform="translate(1144.490234 0)"/>
     <use xlink:href="#DejaVuSans-20" transform="translate(1207.966797 0)"/>
     <use xlink:href="#DejaVuSans-72" transform="translate(1239.753906 0)"/>
     <use xlink:href="#DejaVuSans-61" transform="translate(1280.867188 0)"/>
     <use xlink:href="#DejaVuSans-74" transform="translate(1342.146484 0)"/>
     <use xlink:href="#DejaVuSans-65" transform="translate(1381.355469 0)"/>
     <use xlink:href="#DejaVuSans-20" transform="translate(1442.878906 0)"/>
     <use xlink:href="#DejaVuSans-28" transform="translate(1474.666016 0)"/>
     <use xlink:href="#DejaVuSans-77" transform="translate(1513.679688 0)"/>
     <use xlink:href="#DejaVuSans-69" transform="translate(1595.466797 0)"/>
     <use xlink:href="#DejaVuSans-74" transform="translate(1623.25 0)"/>
     <use xlink:href="#DejaVuSans-68" transform="translate(1662.458984 0)"/>
     <use xlink:href="#DejaVuSans-6f" transform="translate(1725.837891 0)"/>
     <use xlink:href="#DejaVuSans-75" transform="translate(1787.019531 0)"/>
     <use xlink:href="#DejaVuSans-74" transform="translate(1850.398438 0)"/>
     <use xlink:href="#DejaVuSans-20" transform="translate(1889.607422 0)"/>
     <use xlink:href="#DejaVuSans-72" transform="translate(1921.394531 0)"/>
     <use xlink:href="#DejaVuSans-65" transform="translate(1960.257812 0)"/>
     <use xlink:href="#DejaVuSans-66" transform="translate(2021.78125 0)"/>
     <use xlink:href="#DejaVuSans-65" transform="translate(2056.986328 0)"/>
     <use xlink:href="#DejaVuSans-72" transform="translate(2118.509766 0)"/>
     <use xlink:href="#DejaVuSans-65" transform="translate(2157.373047 0)"/>
     <use xlink:href="#DejaVuSans-6e" transform="translate(2218.896484 0)"/>
     <use xlink:href="#DejaVuSans-63" transform="translate(2282.275391 0)"/>
     <use xlink:href="#DejaVuSans-65" transform="translate(2337.255859 0)"/>
     <use xlink:href="#DejaVuSans-29" transform="translate(2398.779297 0)"/>
    </g>
   </g>
   <g id="line2d_57">
    <path d="M 644.876563 201.420312 
L 654.876563 201.420312 
L 664.876563 201.420312 
" style="fill: none; stroke-dasharray: 11.1,4.8; stroke-dashoffset: 0; stroke: #daa520; stroke-width: 3"/>
   </g>
   <g id="text_54">
    <!-- skiver estimated hazard rate (with reference) -->
    <g transform="translate(672.876563 204.920312) scale(0.1 -0.1)">
     <use xlink:href="#DejaVuSans-73"/>
     <use xlink:href="#DejaVuSans-6b" transform="translate(52.099609 0)"/>
     <use xlink:href="#DejaVuSans-69" transform="translate(110.009766 0)"/>
     <use xlink:href="#DejaVuSans-76" transform="translate(137.792969 0)"/>
     <use xlink:href="#DejaVuSans-65" transform="translate(196.972656 0)"/>
     <use xlink:href="#DejaVuSans-72" transform="translate(258.496094 0)"/>
     <use xlink:href="#DejaVuSans-20" transform="translate(299.609375 0)"/>
     <use xlink:href="#DejaVuSans-65" transform="translate(331.396484 0)"/>
     <use xlink:href="#DejaVuSans-73" transform="translate(392.919922 0)"/>
     <use xlink:href="#DejaVuSans-74" transform="translate(445.019531 0)"/>
     <use xlink:href="#DejaVuSans-69" transform="translate(484.228516 0)"/>
     <use xlink:href="#DejaVuSans-6d" transform="translate(512.011719 0)"/>
     <use xlink:href="#DejaVuSans-61" transform="translate(609.423828 0)"/>
     <use xlink:href="#DejaVuSans-74" transform="translate(670.703125 0)"/>
     <use xlink:href="#DejaVuSans-65" transform="translate(709.912109 0)"/>
     <use xlink:href="#DejaVuSans-64" transform="translate(771.435547 0)"/>
     <use xlink:href="#DejaVuSans-20" transform="translate(834.912109 0)"/>
     <use xlink:href="#DejaVuSans-68" transform="translate(866.699219 0)"/>
     <use xlink:href="#DejaVuSans-61" transform="translate(930.078125 0)"/>
     <use xlink:href="#DejaVuSans-7a" transform="translate(991.357422 0)"/>
     <use xlink:href="#DejaVuSans-61" transform="translate(1043.847656 0)"/>
     <use xlink:href="#DejaVuSans-72" transform="translate(1105.126953 0)"/>
     <use xlink:href="#DejaVuSans-64" transform="translate(1144.490234 0)"/>
     <use xlink:href="#DejaVuSans-20" transform="translate(1207.966797 0)"/>
     <use xlink:href="#DejaVuSans-72" transform="translate(1239.753906 0)"/>
     <use xlink:href="#DejaVuSans-61" transform="translate(1280.867188 0)"/>
     <use xlink:href="#DejaVuSans-74" transform="translate(1342.146484 0)"/>
     <use xlink:href="#DejaVuSans-65" transform="translate(1381.355469 0)"/>
     <use xlink:href="#DejaVuSans-20" transform="translate(1442.878906 0)"/>
     <use xlink:href="#DejaVuSans-28" transform="translate(1474.666016 0)"/>
     <use xlink:href="#DejaVuSans-77" transform="translate(1513.679688 0)"/>
     <use xlink:href="#DejaVuSans-69" transform="translate(1595.466797 0)"/>
     <use xlink:href="#DejaVuSans-74" transform="translate(1623.25 0)"/>
     <use xlink:href="#DejaVuSans-68" transform="translate(1662.458984 0)"/>
     <use xlink:href="#DejaVuSans-20" transform="translate(1725.837891 0)"/>
     <use xlink:href="#DejaVuSans-72" transform="translate(1757.625 0)"/>
     <use xlink:href="#DejaVuSans-65" transform="translate(1796.488281 0)"/>
     <use xlink:href="#DejaVuSans-66" transform="translate(1858.011719 0)"/>
     <use xlink:href="#DejaVuSans-65" transform="translate(1893.216797 0)"/>
     <use xlink:href="#DejaVuSans-72" transform="translate(1954.740234 0)"/>
     <use xlink:href="#DejaVuSans-65" transform="translate(1993.603516 0)"/>
     <use xlink:href="#DejaVuSans-6e" transform="translate(2055.126953 0)"/>
     <use xlink:href="#DejaVuSans-63" transform="translate(2118.505859 0)"/>
     <use xlink:href="#DejaVuSans-65" transform="translate(2173.486328 0)"/>
     <use xlink:href="#DejaVuSans-29" transform="translate(2235.009766 0)"/>
    </g>
   </g>
  </g>
 </g>
 <defs>
  <clipPath id="p60a093aff7">
   <rect x="74.208612" y="26.88" width="197.027998" height="124.32"/>
  </clipPath>
  <clipPath id="p1c52907639">
   <rect x="340.196408" y="26.88" width="197.027998" height="124.32"/>
  </clipPath>
  <clipPath id="pf8a346b738">
   <rect x="606.184205" y="26.88" width="197.027998" height="124.32"/>
  </clipPath>
  <clipPath id="pf65c79ec02">
   <rect x="872.172002" y="26.88" width="197.027998" height="124.32"/>
  </clipPath>
 </defs>
</svg>
