<?xml version="1.0" encoding="utf-8" standalone="no"?>
<!DOCTYPE svg PUBLIC "-//W3C//DTD SVG 1.1//EN"
  "http://www.w3.org/Graphics/SVG/1.1/DTD/svg11.dtd">
<svg xmlns:xlink="http://www.w3.org/1999/xlink" width="720pt" height="288pt" viewBox="0 0 720 288" xmlns="http://www.w3.org/2000/svg" version="1.1">
 <metadata>
  <rdf:RDF xmlns:dc="http://purl.org/dc/elements/1.1/" xmlns:cc="http://creativecommons.org/ns#" xmlns:rdf="http://www.w3.org/1999/02/22-rdf-syntax-ns#">
   <cc:Work>
    <dc:type rdf:resource="http://purl.org/dc/dcmitype/StillImage"/>
    <dc:date>2026-01-20T23:32:38.179180</dc:date>
    <dc:format>image/svg+xml</dc:format>
    <dc:creator>
     <cc:Agent>
      <dc:title>Matplotlib v3.10.0, https://matplotlib.org/</dc:title>
     </cc:Agent>
    </dc:creator>
   </cc:Work>
  </rdf:RDF>
 </metadata>
 <defs>
  <style type="text/css">*{stroke-linejoin: round; stroke-linecap: butt}</style>
 </defs>
 <g id="figure_1">
  <g id="patch_1">
   <path d="M 0 288 
L 720 288 
L 720 0 
L 0 0 
z
" style="fill: #ffffff"/>
  </g>
  <g id="axes_1">
   <g id="patch_2">
    <path d="M 47.72 212.32463 
L 673.678786 212.32463 
L 673.678786 26.88 
L 47.72 26.88 
z
" style="fill: #ffffff"/>
   </g>
   <g id="patch_3">
    <path d="M 76.172672 212.32463 
L 103.270455 212.32463 
L 103.270455 168.985478 
L 76.172672 168.985478 
z
" clip-path="url(#p84f6ec162a)" style="fill: #708090"/>
   </g>
   <g id="patch_4">
    <path d="M 130.368238 212.32463 
L 157.466021 212.32463 
L 157.466021 169.394198 
L 130.368238 169.394198 
z
" clip-path="url(#p84f6ec162a)" style="fill: #708090"/>
   </g>
   <g id="patch_5">
    <path d="M 184.563804 212.32463 
L 211.661587 212.32463 
L 211.661587 161.184193 
L 184.563804 161.184193 
z
" clip-path="url(#p84f6ec162a)" style="fill: #708090"/>
   </g>
   <g id="patch_6">
    <path d="M 238.75937 212.32463 
L 265.857153 212.32463 
L 265.857153 139.932239 
L 238.75937 139.932239 
z
" clip-path="url(#p84f6ec162a)" style="fill: #708090"/>
   </g>
   <g id="patch_7">
    <path d="M 292.954936 212.32463 
L 320.052719 212.32463 
L 320.052719 168.467717 
L 292.954936 168.467717 
z
" clip-path="url(#p84f6ec162a)" style="fill: #708090"/>
   </g>
   <g id="patch_8">
    <path d="M 347.150502 212.32463 
L 374.248285 212.32463 
L 374.248285 108.352131 
L 347.150502 108.352131 
z
" clip-path="url(#p84f6ec162a)" style="fill: #708090"/>
   </g>
   <g id="patch_9">
    <path d="M 401.346068 212.32463 
L 428.443851 212.32463 
L 428.443851 106.729861 
L 401.346068 106.729861 
z
" clip-path="url(#p84f6ec162a)" style="fill: #708090"/>
   </g>
   <g id="patch_10">
    <path d="M 455.541634 212.32463 
L 482.639417 212.32463 
L 482.639417 122.600954 
L 455.541634 122.600954 
z
" clip-path="url(#p84f6ec162a)" style="fill: #708090"/>
   </g>
   <g id="patch_11">
    <path d="M 509.7372 212.32463 
L 536.834982 212.32463 
L 536.834982 134.084057 
L 509.7372 134.084057 
z
" clip-path="url(#p84f6ec162a)" style="fill: #708090"/>
   </g>
   <g id="patch_12">
    <path d="M 563.932765 212.32463 
L 591.030548 212.32463 
L 591.030548 165.957538 
L 563.932765 165.957538 
z
" clip-path="url(#p84f6ec162a)" style="fill: #708090"/>
   </g>
   <g id="patch_13">
    <path d="M 618.128331 212.32463 
L 645.226114 212.32463 
L 645.226114 113.544581 
L 618.128331 113.544581 
z
" clip-path="url(#p84f6ec162a)" style="fill: #708090"/>
   </g>
   <g id="matplotlib.axis_1">
    <g id="xtick_1">
     <g id="line2d_1">
      <defs>
       <path id="m397f406b26" d="M 0 0 
L 0 3.5 
" style="stroke: #000000; stroke-width: 0.8"/>
      </defs>
      <g>
       <use xlink:href="#m397f406b26" x="89.721564" y="212.32463" style="stroke: #000000; stroke-width: 0.8"/>
      </g>
     </g>
     <g id="text_1">
      <!-- All Genomes -->
      <g transform="translate(29.775863 248.024386) rotate(-20) scale(0.1 -0.1)">
       <defs>
        <path id="DejaVuSans-41" d="M 2188 4044 
L 1331 1722 
L 3047 1722 
L 2188 4044 
z
M 1831 4666 
L 2547 4666 
L 4325 0 
L 3669 0 
L 3244 1197 
L 1141 1197 
L 716 0 
L 50 0 
L 1831 4666 
z
" transform="scale(0.015625)"/>
        <path id="DejaVuSans-6c" d="M 603 4863 
L 1178 4863 
L 1178 0 
L 603 0 
L 603 4863 
z
" transform="scale(0.015625)"/>
        <path id="DejaVuSans-20" transform="scale(0.015625)"/>
        <path id="DejaVuSans-47" d="M 3809 666 
L 3809 1919 
L 2778 1919 
L 2778 2438 
L 4434 2438 
L 4434 434 
Q 4069 175 3628 42 
Q 3188 -91 2688 -91 
Q 1594 -91 976 548 
Q 359 1188 359 2328 
Q 359 3472 976 4111 
Q 1594 4750 2688 4750 
Q 3144 4750 3555 4637 
Q 3966 4525 4313 4306 
L 4313 3634 
Q 3963 3931 3569 4081 
Q 3175 4231 2741 4231 
Q 1884 4231 1454 3753 
Q 1025 3275 1025 2328 
Q 1025 1384 1454 906 
Q 1884 428 2741 428 
Q 3075 428 3337 486 
Q 3600 544 3809 666 
z
" transform="scale(0.015625)"/>
        <path id="DejaVuSans-65" d="M 3597 1894 
L 3597 1613 
L 953 1613 
Q 991 1019 1311 708 
Q 1631 397 2203 397 
Q 2534 397 2845 478 
Q 3156 559 3463 722 
L 3463 178 
Q 3153 47 2828 -22 
Q 2503 -91 2169 -91 
Q 1331 -91 842 396 
Q 353 884 353 1716 
Q 353 2575 817 3079 
Q 1281 3584 2069 3584 
Q 2775 3584 3186 3129 
Q 3597 2675 3597 1894 
z
M 3022 2063 
Q 3016 2534 2758 2815 
Q 2500 3097 2075 3097 
Q 1594 3097 1305 2825 
Q 1016 2553 972 2059 
L 3022 2063 
z
" transform="scale(0.015625)"/>
        <path id="DejaVuSans-6e" d="M 3513 2113 
L 3513 0 
L 2938 0 
L 2938 2094 
Q 2938 2591 2744 2837 
Q 2550 3084 2163 3084 
Q 1697 3084 1428 2787 
Q 1159 2491 1159 1978 
L 1159 0 
L 581 0 
L 581 3500 
L 1159 3500 
L 1159 2956 
Q 1366 3272 1645 3428 
Q 1925 3584 2291 3584 
Q 2894 3584 3203 3211 
Q 3513 2838 3513 2113 
z
" transform="scale(0.015625)"/>
        <path id="DejaVuSans-6f" d="M 1959 3097 
Q 1497 3097 1228 2736 
Q 959 2375 959 1747 
Q 959 1119 1226 758 
Q 1494 397 1959 397 
Q 2419 397 2687 759 
Q 2956 1122 2956 1747 
Q 2956 2369 2687 2733 
Q 2419 3097 1959 3097 
z
M 1959 3584 
Q 2709 3584 3137 3096 
Q 3566 2609 3566 1747 
Q 3566 888 3137 398 
Q 2709 -91 1959 -91 
Q 1206 -91 779 398 
Q 353 888 353 1747 
Q 353 2609 779 3096 
Q 1206 3584 1959 3584 
z
" transform="scale(0.015625)"/>
        <path id="DejaVuSans-6d" d="M 3328 2828 
Q 3544 3216 3844 3400 
Q 4144 3584 4550 3584 
Q 5097 3584 5394 3201 
Q 5691 2819 5691 2113 
L 5691 0 
L 5113 0 
L 5113 2094 
Q 5113 2597 4934 2840 
Q 4756 3084 4391 3084 
Q 3944 3084 3684 2787 
Q 3425 2491 3425 1978 
L 3425 0 
L 2847 0 
L 2847 2094 
Q 2847 2600 2669 2842 
Q 2491 3084 2119 3084 
Q 1678 3084 1418 2786 
Q 1159 2488 1159 1978 
L 1159 0 
L 581 0 
L 581 3500 
L 1159 3500 
L 1159 2956 
Q 1356 3278 1631 3431 
Q 1906 3584 2284 3584 
Q 2666 3584 2933 3390 
Q 3200 3197 3328 2828 
z
" transform="scale(0.015625)"/>
        <path id="DejaVuSans-73" d="M 2834 3397 
L 2834 2853 
Q 2591 2978 2328 3040 
Q 2066 3103 1784 3103 
Q 1356 3103 1142 2972 
Q 928 2841 928 2578 
Q 928 2378 1081 2264 
Q 1234 2150 1697 2047 
L 1894 2003 
Q 2506 1872 2764 1633 
Q 3022 1394 3022 966 
Q 3022 478 2636 193 
Q 2250 -91 1575 -91 
Q 1294 -91 989 -36 
Q 684 19 347 128 
L 347 722 
Q 666 556 975 473 
Q 1284 391 1588 391 
Q 1994 391 2212 530 
Q 2431 669 2431 922 
Q 2431 1156 2273 1281 
Q 2116 1406 1581 1522 
L 1381 1569 
Q 847 1681 609 1914 
Q 372 2147 372 2553 
Q 372 3047 722 3315 
Q 1072 3584 1716 3584 
Q 2034 3584 2315 3537 
Q 2597 3491 2834 3397 
z
" transform="scale(0.015625)"/>
       </defs>
       <use xlink:href="#DejaVuSans-41"/>
       <use xlink:href="#DejaVuSans-6c" transform="translate(68.408203 0)"/>
       <use xlink:href="#DejaVuSans-6c" transform="translate(96.191406 0)"/>
       <use xlink:href="#DejaVuSans-20" transform="translate(123.974609 0)"/>
       <use xlink:href="#DejaVuSans-47" transform="translate(155.761719 0)"/>
       <use xlink:href="#DejaVuSans-65" transform="translate(233.251953 0)"/>
       <use xlink:href="#DejaVuSans-6e" transform="translate(294.775391 0)"/>
       <use xlink:href="#DejaVuSans-6f" transform="translate(358.154297 0)"/>
       <use xlink:href="#DejaVuSans-6d" transform="translate(419.335938 0)"/>
       <use xlink:href="#DejaVuSans-65" transform="translate(516.748047 0)"/>
       <use xlink:href="#DejaVuSans-73" transform="translate(578.271484 0)"/>
      </g>
     </g>
    </g>
    <g id="xtick_2">
     <g id="line2d_2">
      <g>
       <use xlink:href="#m397f406b26" x="143.91713" y="212.32463" style="stroke: #000000; stroke-width: 0.8"/>
      </g>
     </g>
     <g id="text_2">
      <!-- $\it{Listeria}$ $\it{monocytogenes}$ -->
      <g transform="translate(30.623711 267.440307) rotate(-20) scale(0.1 -0.1)">
       <defs>
        <path id="DejaVuSans-Oblique-4c" d="M 1075 4666 
L 1709 4666 
L 909 525 
L 3181 525 
L 3078 0 
L 172 0 
L 1075 4666 
z
" transform="scale(0.015625)"/>
        <path id="DejaVuSans-Oblique-69" d="M 1172 4863 
L 1747 4863 
L 1606 4134 
L 1031 4134 
L 1172 4863 
z
M 909 3500 
L 1484 3500 
L 800 0 
L 225 0 
L 909 3500 
z
" transform="scale(0.015625)"/>
        <path id="DejaVuSans-Oblique-73" d="M 3200 3397 
L 3091 2853 
Q 2863 2978 2609 3040 
Q 2356 3103 2088 3103 
Q 1634 3103 1373 2948 
Q 1113 2794 1113 2528 
Q 1113 2219 1719 2053 
Q 1766 2041 1788 2034 
L 1972 1978 
Q 2547 1819 2739 1644 
Q 2931 1469 2931 1166 
Q 2931 609 2489 259 
Q 2047 -91 1331 -91 
Q 1053 -91 747 -37 
Q 441 16 72 128 
L 184 722 
Q 500 559 806 475 
Q 1113 391 1394 391 
Q 1816 391 2080 572 
Q 2344 753 2344 1031 
Q 2344 1331 1650 1516 
L 1591 1531 
L 1394 1581 
Q 956 1697 753 1886 
Q 550 2075 550 2369 
Q 550 2928 970 3256 
Q 1391 3584 2113 3584 
Q 2397 3584 2667 3537 
Q 2938 3491 3200 3397 
z
" transform="scale(0.015625)"/>
        <path id="DejaVuSans-Oblique-74" d="M 2706 3500 
L 2619 3053 
L 1472 3053 
L 1100 1153 
Q 1081 1047 1072 975 
Q 1063 903 1063 863 
Q 1063 663 1183 572 
Q 1303 481 1569 481 
L 2150 481 
L 2053 0 
L 1503 0 
Q 991 0 739 200 
Q 488 400 488 806 
Q 488 878 497 964 
Q 506 1050 525 1153 
L 897 3053 
L 409 3053 
L 500 3500 
L 978 3500 
L 1172 4494 
L 1747 4494 
L 1556 3500 
L 2706 3500 
z
" transform="scale(0.015625)"/>
        <path id="DejaVuSans-Oblique-65" d="M 3078 2063 
Q 3088 2113 3092 2166 
Q 3097 2219 3097 2272 
Q 3097 2653 2873 2875 
Q 2650 3097 2266 3097 
Q 1838 3097 1509 2826 
Q 1181 2556 1013 2059 
L 3078 2063 
z
M 3578 1613 
L 903 1613 
Q 884 1494 878 1425 
Q 872 1356 872 1306 
Q 872 872 1139 634 
Q 1406 397 1894 397 
Q 2269 397 2603 481 
Q 2938 566 3225 728 
L 3116 159 
Q 2806 34 2476 -28 
Q 2147 -91 1806 -91 
Q 1078 -91 686 257 
Q 294 606 294 1247 
Q 294 1794 489 2264 
Q 684 2734 1063 3103 
Q 1306 3334 1642 3459 
Q 1978 3584 2356 3584 
Q 2950 3584 3301 3228 
Q 3653 2872 3653 2272 
Q 3653 2128 3634 1964 
Q 3616 1800 3578 1613 
z
" transform="scale(0.015625)"/>
        <path id="DejaVuSans-Oblique-72" d="M 2853 2969 
Q 2766 3016 2653 3041 
Q 2541 3066 2413 3066 
Q 1953 3066 1609 2717 
Q 1266 2369 1153 1784 
L 800 0 
L 225 0 
L 909 3500 
L 1484 3500 
L 1375 2956 
Q 1603 3259 1920 3421 
Q 2238 3584 2597 3584 
Q 2691 3584 2781 3573 
Q 2872 3563 2963 3538 
L 2853 2969 
z
" transform="scale(0.015625)"/>
        <path id="DejaVuSans-Oblique-61" d="M 3438 1997 
L 3047 0 
L 2472 0 
L 2578 531 
Q 2325 219 2001 64 
Q 1678 -91 1281 -91 
Q 834 -91 548 182 
Q 263 456 263 884 
Q 263 1497 752 1853 
Q 1241 2209 2100 2209 
L 2900 2209 
L 2931 2363 
Q 2938 2388 2941 2417 
Q 2944 2447 2944 2509 
Q 2944 2788 2717 2942 
Q 2491 3097 2081 3097 
Q 1800 3097 1504 3025 
Q 1209 2953 897 2809 
L 997 3341 
Q 1322 3463 1633 3523 
Q 1944 3584 2234 3584 
Q 2853 3584 3176 3315 
Q 3500 3047 3500 2534 
Q 3500 2431 3484 2292 
Q 3469 2153 3438 1997 
z
M 2816 1759 
L 2241 1759 
Q 1534 1759 1195 1570 
Q 856 1381 856 984 
Q 856 709 1029 553 
Q 1203 397 1509 397 
Q 1978 397 2328 733 
Q 2678 1069 2791 1631 
L 2816 1759 
z
" transform="scale(0.015625)"/>
        <path id="DejaVuSans-Oblique-6d" d="M 5747 2113 
L 5338 0 
L 4763 0 
L 5166 2094 
Q 5191 2228 5203 2325 
Q 5216 2422 5216 2491 
Q 5216 2772 5059 2928 
Q 4903 3084 4622 3084 
Q 4203 3084 3875 2770 
Q 3547 2456 3450 1953 
L 3066 0 
L 2491 0 
L 2900 2094 
Q 2925 2209 2937 2307 
Q 2950 2406 2950 2484 
Q 2950 2769 2794 2926 
Q 2638 3084 2363 3084 
Q 1938 3084 1609 2770 
Q 1281 2456 1184 1953 
L 800 0 
L 225 0 
L 909 3500 
L 1484 3500 
L 1375 2956 
Q 1609 3263 1923 3423 
Q 2238 3584 2597 3584 
Q 2978 3584 3223 3384 
Q 3469 3184 3519 2828 
Q 3781 3197 4126 3390 
Q 4472 3584 4856 3584 
Q 5306 3584 5551 3325 
Q 5797 3066 5797 2591 
Q 5797 2488 5784 2364 
Q 5772 2241 5747 2113 
z
" transform="scale(0.015625)"/>
        <path id="DejaVuSans-Oblique-6f" d="M 1625 -91 
Q 1009 -91 651 289 
Q 294 669 294 1325 
Q 294 1706 417 2101 
Q 541 2497 738 2766 
Q 1047 3184 1428 3384 
Q 1809 3584 2291 3584 
Q 2888 3584 3255 3212 
Q 3622 2841 3622 2241 
Q 3622 1825 3500 1412 
Q 3378 1000 3181 728 
Q 2875 309 2494 109 
Q 2113 -91 1625 -91 
z
M 891 1344 
Q 891 869 1089 633 
Q 1288 397 1691 397 
Q 2269 397 2648 901 
Q 3028 1406 3028 2181 
Q 3028 2634 2825 2865 
Q 2622 3097 2228 3097 
Q 1903 3097 1650 2945 
Q 1397 2794 1197 2484 
Q 1050 2253 970 1956 
Q 891 1659 891 1344 
z
" transform="scale(0.015625)"/>
        <path id="DejaVuSans-Oblique-6e" d="M 3566 2113 
L 3156 0 
L 2578 0 
L 2988 2091 
Q 3016 2238 3031 2350 
Q 3047 2463 3047 2528 
Q 3047 2791 2881 2937 
Q 2716 3084 2419 3084 
Q 1956 3084 1622 2776 
Q 1288 2469 1184 1941 
L 800 0 
L 225 0 
L 903 3500 
L 1478 3500 
L 1363 2950 
Q 1603 3253 1940 3418 
Q 2278 3584 2650 3584 
Q 3113 3584 3367 3334 
Q 3622 3084 3622 2631 
Q 3622 2519 3608 2391 
Q 3594 2263 3566 2113 
z
" transform="scale(0.015625)"/>
        <path id="DejaVuSans-Oblique-63" d="M 3431 3366 
L 3316 2797 
Q 3109 2947 2876 3022 
Q 2644 3097 2394 3097 
Q 2119 3097 1870 3000 
Q 1622 2903 1453 2725 
Q 1184 2453 1037 2087 
Q 891 1722 891 1331 
Q 891 859 1127 628 
Q 1363 397 1844 397 
Q 2081 397 2348 469 
Q 2616 541 2906 684 
L 2797 116 
Q 2547 13 2283 -39 
Q 2019 -91 1741 -91 
Q 1044 -91 669 257 
Q 294 606 294 1253 
Q 294 1797 489 2255 
Q 684 2713 1069 3078 
Q 1331 3328 1684 3456 
Q 2038 3584 2456 3584 
Q 2700 3584 2940 3529 
Q 3181 3475 3431 3366 
z
" transform="scale(0.015625)"/>
        <path id="DejaVuSans-Oblique-79" d="M 1588 -325 
Q 1188 -997 936 -1164 
Q 684 -1331 294 -1331 
L -159 -1331 
L -63 -850 
L 269 -850 
Q 509 -850 678 -719 
Q 847 -588 1056 -206 
L 1234 128 
L 459 3500 
L 1069 3500 
L 1650 819 
L 3256 3500 
L 3859 3500 
L 1588 -325 
z
" transform="scale(0.015625)"/>
        <path id="DejaVuSans-Oblique-67" d="M 3816 3500 
L 3219 434 
Q 3047 -456 2561 -893 
Q 2075 -1331 1253 -1331 
Q 950 -1331 690 -1286 
Q 431 -1241 206 -1147 
L 313 -588 
Q 525 -725 762 -790 
Q 1000 -856 1269 -856 
Q 1816 -856 2167 -557 
Q 2519 -259 2631 300 
L 2681 563 
Q 2441 288 2122 144 
Q 1803 0 1434 0 
Q 903 0 598 351 
Q 294 703 294 1319 
Q 294 1803 478 2267 
Q 663 2731 997 3091 
Q 1219 3328 1514 3456 
Q 1809 3584 2131 3584 
Q 2484 3584 2746 3420 
Q 3009 3256 3138 2956 
L 3238 3500 
L 3816 3500 
z
M 2950 2216 
Q 2950 2641 2750 2872 
Q 2550 3103 2181 3103 
Q 1953 3103 1747 3012 
Q 1541 2922 1394 2759 
Q 1156 2491 1023 2127 
Q 891 1763 891 1375 
Q 891 944 1092 712 
Q 1294 481 1672 481 
Q 2219 481 2584 976 
Q 2950 1472 2950 2216 
z
" transform="scale(0.015625)"/>
       </defs>
       <use xlink:href="#DejaVuSans-Oblique-4c" transform="translate(0 0.015625)"/>
       <use xlink:href="#DejaVuSans-Oblique-69" transform="translate(55.712891 0.015625)"/>
       <use xlink:href="#DejaVuSans-Oblique-73" transform="translate(83.496094 0.015625)"/>
       <use xlink:href="#DejaVuSans-Oblique-74" transform="translate(135.595703 0.015625)"/>
       <use xlink:href="#DejaVuSans-Oblique-65" transform="translate(174.804688 0.015625)"/>
       <use xlink:href="#DejaVuSans-Oblique-72" transform="translate(236.328125 0.015625)"/>
       <use xlink:href="#DejaVuSans-Oblique-69" transform="translate(277.441406 0.015625)"/>
       <use xlink:href="#DejaVuSans-Oblique-61" transform="translate(305.224609 0.015625)"/>
       <use xlink:href="#DejaVuSans-20" transform="translate(366.503906 0.015625)"/>
       <use xlink:href="#DejaVuSans-Oblique-6d" transform="translate(398.291016 0.015625)"/>
       <use xlink:href="#DejaVuSans-Oblique-6f" transform="translate(495.703125 0.015625)"/>
       <use xlink:href="#DejaVuSans-Oblique-6e" transform="translate(556.884766 0.015625)"/>
       <use xlink:href="#DejaVuSans-Oblique-6f" transform="translate(620.263672 0.015625)"/>
       <use xlink:href="#DejaVuSans-Oblique-63" transform="translate(681.445312 0.015625)"/>
       <use xlink:href="#DejaVuSans-Oblique-79" transform="translate(736.425781 0.015625)"/>
       <use xlink:href="#DejaVuSans-Oblique-74" transform="translate(795.605469 0.015625)"/>
       <use xlink:href="#DejaVuSans-Oblique-6f" transform="translate(834.814453 0.015625)"/>
       <use xlink:href="#DejaVuSans-Oblique-67" transform="translate(895.996094 0.015625)"/>
       <use xlink:href="#DejaVuSans-Oblique-65" transform="translate(959.472656 0.015625)"/>
       <use xlink:href="#DejaVuSans-Oblique-6e" transform="translate(1020.996094 0.015625)"/>
       <use xlink:href="#DejaVuSans-Oblique-65" transform="translate(1084.375 0.015625)"/>
       <use xlink:href="#DejaVuSans-Oblique-73" transform="translate(1145.898438 0.015625)"/>
      </g>
     </g>
    </g>
    <g id="xtick_3">
     <g id="line2d_3">
      <g>
       <use xlink:href="#m397f406b26" x="198.112695" y="212.32463" style="stroke: #000000; stroke-width: 0.8"/>
      </g>
     </g>
     <g id="text_3">
      <!-- $\it{Pseudomonas}$ $\it{aeruginosa}$ -->
      <g transform="translate(76.549982 270.450084) rotate(-20) scale(0.1 -0.1)">
       <defs>
        <path id="DejaVuSans-Oblique-50" d="M 1081 4666 
L 2541 4666 
Q 3178 4666 3512 4369 
Q 3847 4072 3847 3500 
Q 3847 2731 3353 2303 
Q 2859 1875 1966 1875 
L 1172 1875 
L 806 0 
L 172 0 
L 1081 4666 
z
M 1613 4147 
L 1275 2394 
L 2069 2394 
Q 2606 2394 2893 2669 
Q 3181 2944 3181 3456 
Q 3181 3784 2986 3965 
Q 2791 4147 2438 4147 
L 1613 4147 
z
" transform="scale(0.015625)"/>
        <path id="DejaVuSans-Oblique-75" d="M 428 1388 
L 838 3500 
L 1416 3500 
L 1006 1409 
Q 975 1256 961 1147 
Q 947 1038 947 966 
Q 947 700 1109 554 
Q 1272 409 1569 409 
Q 2031 409 2368 721 
Q 2706 1034 2809 1563 
L 3194 3500 
L 3769 3500 
L 3091 0 
L 2516 0 
L 2631 550 
Q 2388 244 2052 76 
Q 1716 -91 1338 -91 
Q 878 -91 622 161 
Q 366 413 366 863 
Q 366 956 381 1097 
Q 397 1238 428 1388 
z
" transform="scale(0.015625)"/>
        <path id="DejaVuSans-Oblique-64" d="M 2675 525 
Q 2444 222 2128 65 
Q 1813 -91 1428 -91 
Q 903 -91 598 267 
Q 294 625 294 1247 
Q 294 1766 478 2236 
Q 663 2706 1013 3078 
Q 1244 3325 1534 3454 
Q 1825 3584 2144 3584 
Q 2481 3584 2739 3421 
Q 2997 3259 3138 2956 
L 3513 4863 
L 4091 4863 
L 3144 0 
L 2566 0 
L 2675 525 
z
M 891 1350 
Q 891 897 1095 644 
Q 1300 391 1663 391 
Q 1931 391 2161 520 
Q 2391 650 2566 903 
Q 2750 1166 2856 1509 
Q 2963 1853 2963 2188 
Q 2963 2622 2758 2865 
Q 2553 3109 2194 3109 
Q 1922 3109 1687 2981 
Q 1453 2853 1288 2613 
Q 1106 2353 998 2009 
Q 891 1666 891 1350 
z
" transform="scale(0.015625)"/>
       </defs>
       <use xlink:href="#DejaVuSans-Oblique-50" transform="translate(0 0.015625)"/>
       <use xlink:href="#DejaVuSans-Oblique-73" transform="translate(60.302734 0.015625)"/>
       <use xlink:href="#DejaVuSans-Oblique-65" transform="translate(112.402344 0.015625)"/>
       <use xlink:href="#DejaVuSans-Oblique-75" transform="translate(173.925781 0.015625)"/>
       <use xlink:href="#DejaVuSans-Oblique-64" transform="translate(237.304688 0.015625)"/>
       <use xlink:href="#DejaVuSans-Oblique-6f" transform="translate(300.78125 0.015625)"/>
       <use xlink:href="#DejaVuSans-Oblique-6d" transform="translate(361.962891 0.015625)"/>
       <use xlink:href="#DejaVuSans-Oblique-6f" transform="translate(459.375 0.015625)"/>
       <use xlink:href="#DejaVuSans-Oblique-6e" transform="translate(520.556641 0.015625)"/>
       <use xlink:href="#DejaVuSans-Oblique-61" transform="translate(583.935547 0.015625)"/>
       <use xlink:href="#DejaVuSans-Oblique-73" transform="translate(645.214844 0.015625)"/>
       <use xlink:href="#DejaVuSans-20" transform="translate(697.314453 0.015625)"/>
       <use xlink:href="#DejaVuSans-Oblique-61" transform="translate(729.101562 0.015625)"/>
       <use xlink:href="#DejaVuSans-Oblique-65" transform="translate(790.380859 0.015625)"/>
       <use xlink:href="#DejaVuSans-Oblique-72" transform="translate(851.904297 0.015625)"/>
       <use xlink:href="#DejaVuSans-Oblique-75" transform="translate(893.017578 0.015625)"/>
       <use xlink:href="#DejaVuSans-Oblique-67" transform="translate(956.396484 0.015625)"/>
       <use xlink:href="#DejaVuSans-Oblique-69" transform="translate(1019.873047 0.015625)"/>
       <use xlink:href="#DejaVuSans-Oblique-6e" transform="translate(1047.65625 0.015625)"/>
       <use xlink:href="#DejaVuSans-Oblique-6f" transform="translate(1111.035156 0.015625)"/>
       <use xlink:href="#DejaVuSans-Oblique-73" transform="translate(1172.216797 0.015625)"/>
       <use xlink:href="#DejaVuSans-Oblique-61" transform="translate(1224.316406 0.015625)"/>
      </g>
     </g>
    </g>
    <g id="xtick_4">
     <g id="line2d_4">
      <g>
       <use xlink:href="#m397f406b26" x="252.308261" y="212.32463" style="stroke: #000000; stroke-width: 0.8"/>
      </g>
     </g>
     <g id="text_4">
      <!-- $\it{Bacillus}$ $\it{subtilis}$ -->
      <g transform="translate(179.240635 252.800376) rotate(-20) scale(0.1 -0.1)">
       <defs>
        <path id="DejaVuSans-Oblique-42" d="M 1081 4666 
L 2694 4666 
Q 3350 4666 3675 4422 
Q 4000 4178 4000 3688 
Q 4000 3238 3720 2911 
Q 3441 2584 2988 2516 
Q 3375 2428 3569 2181 
Q 3763 1934 3763 1522 
Q 3763 819 3242 409 
Q 2722 0 1819 0 
L 172 0 
L 1081 4666 
z
M 1234 2228 
L 903 519 
L 1919 519 
Q 2491 519 2800 781 
Q 3109 1044 3109 1522 
Q 3109 1891 2904 2059 
Q 2700 2228 2247 2228 
L 1234 2228 
z
M 1606 4147 
L 1331 2741 
L 2272 2741 
Q 2775 2741 3058 2959 
Q 3341 3178 3341 3566 
Q 3341 3869 3150 4008 
Q 2959 4147 2541 4147 
L 1606 4147 
z
" transform="scale(0.015625)"/>
        <path id="DejaVuSans-Oblique-6c" d="M 1172 4863 
L 1747 4863 
L 800 0 
L 225 0 
L 1172 4863 
z
" transform="scale(0.015625)"/>
        <path id="DejaVuSans-Oblique-62" d="M 3169 2138 
Q 3169 2591 2961 2847 
Q 2753 3103 2388 3103 
Q 2122 3103 1889 2973 
Q 1656 2844 1484 2597 
Q 1303 2338 1198 1995 
Q 1094 1653 1094 1313 
Q 1094 881 1298 636 
Q 1503 391 1863 391 
Q 2134 391 2365 517 
Q 2597 644 2772 891 
Q 2950 1147 3059 1487 
Q 3169 1828 3169 2138 
z
M 1381 2969 
Q 1594 3256 1914 3420 
Q 2234 3584 2584 3584 
Q 3122 3584 3439 3221 
Q 3756 2859 3756 2241 
Q 3756 1734 3570 1259 
Q 3384 784 3041 416 
Q 2816 172 2522 40 
Q 2228 -91 1906 -91 
Q 1566 -91 1316 65 
Q 1066 222 909 531 
L 806 0 
L 231 0 
L 1178 4863 
L 1753 4863 
L 1381 2969 
z
" transform="scale(0.015625)"/>
       </defs>
       <use xlink:href="#DejaVuSans-Oblique-42" transform="translate(0 0.015625)"/>
       <use xlink:href="#DejaVuSans-Oblique-61" transform="translate(68.603516 0.015625)"/>
       <use xlink:href="#DejaVuSans-Oblique-63" transform="translate(129.882812 0.015625)"/>
       <use xlink:href="#DejaVuSans-Oblique-69" transform="translate(184.863281 0.015625)"/>
       <use xlink:href="#DejaVuSans-Oblique-6c" transform="translate(212.646484 0.015625)"/>
       <use xlink:href="#DejaVuSans-Oblique-6c" transform="translate(240.429688 0.015625)"/>
       <use xlink:href="#DejaVuSans-Oblique-75" transform="translate(268.212891 0.015625)"/>
       <use xlink:href="#DejaVuSans-Oblique-73" transform="translate(331.591797 0.015625)"/>
       <use xlink:href="#DejaVuSans-20" transform="translate(383.691406 0.015625)"/>
       <use xlink:href="#DejaVuSans-Oblique-73" transform="translate(415.478516 0.015625)"/>
       <use xlink:href="#DejaVuSans-Oblique-75" transform="translate(467.578125 0.015625)"/>
       <use xlink:href="#DejaVuSans-Oblique-62" transform="translate(530.957031 0.015625)"/>
       <use xlink:href="#DejaVuSans-Oblique-74" transform="translate(594.433594 0.015625)"/>
       <use xlink:href="#DejaVuSans-Oblique-69" transform="translate(633.642578 0.015625)"/>
       <use xlink:href="#DejaVuSans-Oblique-6c" transform="translate(661.425781 0.015625)"/>
       <use xlink:href="#DejaVuSans-Oblique-69" transform="translate(689.208984 0.015625)"/>
       <use xlink:href="#DejaVuSans-Oblique-73" transform="translate(716.992188 0.015625)"/>
      </g>
     </g>
    </g>
    <g id="xtick_5">
     <g id="line2d_5">
      <g>
       <use xlink:href="#m397f406b26" x="306.503827" y="212.32463" style="stroke: #000000; stroke-width: 0.8"/>
      </g>
     </g>
     <g id="text_5">
      <!-- $\it{Saccharomyces}$ $\it{cerevisiae}$ -->
      <g transform="translate(180.994405 271.886569) rotate(-20) scale(0.1 -0.1)">
       <defs>
        <path id="DejaVuSans-Oblique-53" d="M 3859 4513 
L 3738 3897 
Q 3422 4066 3111 4152 
Q 2800 4238 2509 4238 
Q 1944 4238 1609 3991 
Q 1275 3744 1275 3334 
Q 1275 3109 1398 2989 
Q 1522 2869 2034 2731 
L 2413 2638 
Q 3053 2472 3303 2217 
Q 3553 1963 3553 1503 
Q 3553 797 2998 353 
Q 2444 -91 1538 -91 
Q 1166 -91 791 -17 
Q 416 56 38 206 
L 166 856 
Q 513 641 861 531 
Q 1209 422 1556 422 
Q 2147 422 2503 684 
Q 2859 947 2859 1369 
Q 2859 1650 2717 1795 
Q 2575 1941 2106 2059 
L 1728 2156 
Q 1081 2325 845 2545 
Q 609 2766 609 3163 
Q 609 3859 1145 4304 
Q 1681 4750 2541 4750 
Q 2875 4750 3203 4690 
Q 3531 4631 3859 4513 
z
" transform="scale(0.015625)"/>
        <path id="DejaVuSans-Oblique-68" d="M 3566 2113 
L 3156 0 
L 2578 0 
L 2988 2091 
Q 3016 2238 3031 2350 
Q 3047 2463 3047 2528 
Q 3047 2791 2881 2937 
Q 2716 3084 2419 3084 
Q 1956 3084 1617 2771 
Q 1278 2459 1178 1941 
L 800 0 
L 225 0 
L 1172 4863 
L 1747 4863 
L 1375 2950 
Q 1594 3244 1934 3414 
Q 2275 3584 2650 3584 
Q 3113 3584 3367 3334 
Q 3622 3084 3622 2631 
Q 3622 2519 3608 2391 
Q 3594 2263 3566 2113 
z
" transform="scale(0.015625)"/>
        <path id="DejaVuSans-Oblique-76" d="M 459 3500 
L 1069 3500 
L 1581 525 
L 3256 3500 
L 3866 3500 
L 1875 0 
L 1100 0 
L 459 3500 
z
" transform="scale(0.015625)"/>
       </defs>
       <use xlink:href="#DejaVuSans-Oblique-53" transform="translate(0 0.015625)"/>
       <use xlink:href="#DejaVuSans-Oblique-61" transform="translate(63.476562 0.015625)"/>
       <use xlink:href="#DejaVuSans-Oblique-63" transform="translate(124.755859 0.015625)"/>
       <use xlink:href="#DejaVuSans-Oblique-63" transform="translate(179.736328 0.015625)"/>
       <use xlink:href="#DejaVuSans-Oblique-68" transform="translate(234.716797 0.015625)"/>
       <use xlink:href="#DejaVuSans-Oblique-61" transform="translate(298.095703 0.015625)"/>
       <use xlink:href="#DejaVuSans-Oblique-72" transform="translate(359.375 0.015625)"/>
       <use xlink:href="#DejaVuSans-Oblique-6f" transform="translate(400.488281 0.015625)"/>
       <use xlink:href="#DejaVuSans-Oblique-6d" transform="translate(461.669922 0.015625)"/>
       <use xlink:href="#DejaVuSans-Oblique-79" transform="translate(559.082031 0.015625)"/>
       <use xlink:href="#DejaVuSans-Oblique-63" transform="translate(618.261719 0.015625)"/>
       <use xlink:href="#DejaVuSans-Oblique-65" transform="translate(673.242188 0.015625)"/>
       <use xlink:href="#DejaVuSans-Oblique-73" transform="translate(734.765625 0.015625)"/>
       <use xlink:href="#DejaVuSans-20" transform="translate(786.865234 0.015625)"/>
       <use xlink:href="#DejaVuSans-Oblique-63" transform="translate(818.652344 0.015625)"/>
       <use xlink:href="#DejaVuSans-Oblique-65" transform="translate(873.632812 0.015625)"/>
       <use xlink:href="#DejaVuSans-Oblique-72" transform="translate(935.15625 0.015625)"/>
       <use xlink:href="#DejaVuSans-Oblique-65" transform="translate(976.269531 0.015625)"/>
       <use xlink:href="#DejaVuSans-Oblique-76" transform="translate(1037.792969 0.015625)"/>
       <use xlink:href="#DejaVuSans-Oblique-69" transform="translate(1096.972656 0.015625)"/>
       <use xlink:href="#DejaVuSans-Oblique-73" transform="translate(1124.755859 0.015625)"/>
       <use xlink:href="#DejaVuSans-Oblique-69" transform="translate(1176.855469 0.015625)"/>
       <use xlink:href="#DejaVuSans-Oblique-61" transform="translate(1204.638672 0.015625)"/>
       <use xlink:href="#DejaVuSans-Oblique-65" transform="translate(1265.917969 0.015625)"/>
      </g>
     </g>
    </g>
    <g id="xtick_6">
     <g id="line2d_6">
      <g>
       <use xlink:href="#m397f406b26" x="360.699393" y="212.32463" style="stroke: #000000; stroke-width: 0.8"/>
      </g>
     </g>
     <g id="text_6">
      <!-- $\it{Escherichia}$ $\it{coli}$ -->
      <g transform="translate(287.16192 252.971386) rotate(-20) scale(0.1 -0.1)">
       <defs>
        <path id="DejaVuSans-Oblique-45" d="M 1081 4666 
L 4031 4666 
L 3928 4134 
L 1606 4134 
L 1338 2753 
L 3566 2753 
L 3463 2222 
L 1234 2222 
L 909 531 
L 3284 531 
L 3181 0 
L 172 0 
L 1081 4666 
z
" transform="scale(0.015625)"/>
       </defs>
       <use xlink:href="#DejaVuSans-Oblique-45" transform="translate(0 0.015625)"/>
       <use xlink:href="#DejaVuSans-Oblique-73" transform="translate(63.183594 0.015625)"/>
       <use xlink:href="#DejaVuSans-Oblique-63" transform="translate(115.283203 0.015625)"/>
       <use xlink:href="#DejaVuSans-Oblique-68" transform="translate(170.263672 0.015625)"/>
       <use xlink:href="#DejaVuSans-Oblique-65" transform="translate(233.642578 0.015625)"/>
       <use xlink:href="#DejaVuSans-Oblique-72" transform="translate(295.166016 0.015625)"/>
       <use xlink:href="#DejaVuSans-Oblique-69" transform="translate(336.279297 0.015625)"/>
       <use xlink:href="#DejaVuSans-Oblique-63" transform="translate(364.0625 0.015625)"/>
       <use xlink:href="#DejaVuSans-Oblique-68" transform="translate(419.042969 0.015625)"/>
       <use xlink:href="#DejaVuSans-Oblique-69" transform="translate(482.421875 0.015625)"/>
       <use xlink:href="#DejaVuSans-Oblique-61" transform="translate(510.205078 0.015625)"/>
       <use xlink:href="#DejaVuSans-20" transform="translate(571.484375 0.015625)"/>
       <use xlink:href="#DejaVuSans-Oblique-63" transform="translate(603.271484 0.015625)"/>
       <use xlink:href="#DejaVuSans-Oblique-6f" transform="translate(658.251953 0.015625)"/>
       <use xlink:href="#DejaVuSans-Oblique-6c" transform="translate(719.433594 0.015625)"/>
       <use xlink:href="#DejaVuSans-Oblique-69" transform="translate(747.216797 0.015625)"/>
      </g>
     </g>
    </g>
    <g id="xtick_7">
     <g id="line2d_7">
      <g>
       <use xlink:href="#m397f406b26" x="414.894959" y="212.32463" style="stroke: #000000; stroke-width: 0.8"/>
      </g>
     </g>
     <g id="text_7">
      <!-- $\it{Salmonella}$ $\it{enterica}$ -->
      <g transform="translate(320.590279 260.530032) rotate(-20) scale(0.1 -0.1)">
       <use xlink:href="#DejaVuSans-Oblique-53" transform="translate(0 0.015625)"/>
       <use xlink:href="#DejaVuSans-Oblique-61" transform="translate(63.476562 0.015625)"/>
       <use xlink:href="#DejaVuSans-Oblique-6c" transform="translate(124.755859 0.015625)"/>
       <use xlink:href="#DejaVuSans-Oblique-6d" transform="translate(152.539062 0.015625)"/>
       <use xlink:href="#DejaVuSans-Oblique-6f" transform="translate(249.951172 0.015625)"/>
       <use xlink:href="#DejaVuSans-Oblique-6e" transform="translate(311.132812 0.015625)"/>
       <use xlink:href="#DejaVuSans-Oblique-65" transform="translate(374.511719 0.015625)"/>
       <use xlink:href="#DejaVuSans-Oblique-6c" transform="translate(436.035156 0.015625)"/>
       <use xlink:href="#DejaVuSans-Oblique-6c" transform="translate(463.818359 0.015625)"/>
       <use xlink:href="#DejaVuSans-Oblique-61" transform="translate(491.601562 0.015625)"/>
       <use xlink:href="#DejaVuSans-20" transform="translate(552.880859 0.015625)"/>
       <use xlink:href="#DejaVuSans-Oblique-65" transform="translate(584.667969 0.015625)"/>
       <use xlink:href="#DejaVuSans-Oblique-6e" transform="translate(646.191406 0.015625)"/>
       <use xlink:href="#DejaVuSans-Oblique-74" transform="translate(709.570312 0.015625)"/>
       <use xlink:href="#DejaVuSans-Oblique-65" transform="translate(748.779297 0.015625)"/>
       <use xlink:href="#DejaVuSans-Oblique-72" transform="translate(810.302734 0.015625)"/>
       <use xlink:href="#DejaVuSans-Oblique-69" transform="translate(851.416016 0.015625)"/>
       <use xlink:href="#DejaVuSans-Oblique-63" transform="translate(879.199219 0.015625)"/>
       <use xlink:href="#DejaVuSans-Oblique-61" transform="translate(934.179688 0.015625)"/>
      </g>
     </g>
    </g>
    <g id="xtick_8">
     <g id="line2d_8">
      <g>
       <use xlink:href="#m397f406b26" x="469.090525" y="212.32463" style="stroke: #000000; stroke-width: 0.8"/>
      </g>
     </g>
     <g id="text_8">
      <!-- $\it{Lactobacillus}$ $\it{fermentum}$ -->
      <g transform="translate(351.575437 268.977929) rotate(-20) scale(0.1 -0.1)">
       <defs>
        <path id="DejaVuSans-Oblique-66" d="M 3059 4863 
L 2969 4384 
L 2419 4384 
Q 2106 4384 1964 4261 
Q 1822 4138 1753 3809 
L 1691 3500 
L 2638 3500 
L 2553 3053 
L 1606 3053 
L 1013 0 
L 434 0 
L 1031 3053 
L 481 3053 
L 563 3500 
L 1113 3500 
L 1159 3744 
Q 1278 4363 1576 4613 
Q 1875 4863 2516 4863 
L 3059 4863 
z
" transform="scale(0.015625)"/>
       </defs>
       <use xlink:href="#DejaVuSans-Oblique-4c" transform="translate(0 0.015625)"/>
       <use xlink:href="#DejaVuSans-Oblique-61" transform="translate(55.712891 0.015625)"/>
       <use xlink:href="#DejaVuSans-Oblique-63" transform="translate(116.992188 0.015625)"/>
       <use xlink:href="#DejaVuSans-Oblique-74" transform="translate(171.972656 0.015625)"/>
       <use xlink:href="#DejaVuSans-Oblique-6f" transform="translate(211.181641 0.015625)"/>
       <use xlink:href="#DejaVuSans-Oblique-62" transform="translate(272.363281 0.015625)"/>
       <use xlink:href="#DejaVuSans-Oblique-61" transform="translate(335.839844 0.015625)"/>
       <use xlink:href="#DejaVuSans-Oblique-63" transform="translate(397.119141 0.015625)"/>
       <use xlink:href="#DejaVuSans-Oblique-69" transform="translate(452.099609 0.015625)"/>
       <use xlink:href="#DejaVuSans-Oblique-6c" transform="translate(479.882812 0.015625)"/>
       <use xlink:href="#DejaVuSans-Oblique-6c" transform="translate(507.666016 0.015625)"/>
       <use xlink:href="#DejaVuSans-Oblique-75" transform="translate(535.449219 0.015625)"/>
       <use xlink:href="#DejaVuSans-Oblique-73" transform="translate(598.828125 0.015625)"/>
       <use xlink:href="#DejaVuSans-20" transform="translate(650.927734 0.015625)"/>
       <use xlink:href="#DejaVuSans-Oblique-66" transform="translate(682.714844 0.015625)"/>
       <use xlink:href="#DejaVuSans-Oblique-65" transform="translate(717.919922 0.015625)"/>
       <use xlink:href="#DejaVuSans-Oblique-72" transform="translate(779.443359 0.015625)"/>
       <use xlink:href="#DejaVuSans-Oblique-6d" transform="translate(820.556641 0.015625)"/>
       <use xlink:href="#DejaVuSans-Oblique-65" transform="translate(917.96875 0.015625)"/>
       <use xlink:href="#DejaVuSans-Oblique-6e" transform="translate(979.492188 0.015625)"/>
       <use xlink:href="#DejaVuSans-Oblique-74" transform="translate(1042.871094 0.015625)"/>
       <use xlink:href="#DejaVuSans-Oblique-75" transform="translate(1082.080078 0.015625)"/>
       <use xlink:href="#DejaVuSans-Oblique-6d" transform="translate(1145.458984 0.015625)"/>
      </g>
     </g>
    </g>
    <g id="xtick_9">
     <g id="line2d_9">
      <g>
       <use xlink:href="#m397f406b26" x="523.286091" y="212.32463" style="stroke: #000000; stroke-width: 0.8"/>
      </g>
     </g>
     <g id="text_9">
      <!-- $\it{Enterococcus}$ $\it{faecalis}$ -->
      <g transform="translate(420.618147 263.574011) rotate(-20) scale(0.1 -0.1)">
       <use xlink:href="#DejaVuSans-Oblique-45" transform="translate(0 0.015625)"/>
       <use xlink:href="#DejaVuSans-Oblique-6e" transform="translate(63.183594 0.015625)"/>
       <use xlink:href="#DejaVuSans-Oblique-74" transform="translate(126.5625 0.015625)"/>
       <use xlink:href="#DejaVuSans-Oblique-65" transform="translate(165.771484 0.015625)"/>
       <use xlink:href="#DejaVuSans-Oblique-72" transform="translate(227.294922 0.015625)"/>
       <use xlink:href="#DejaVuSans-Oblique-6f" transform="translate(268.408203 0.015625)"/>
       <use xlink:href="#DejaVuSans-Oblique-63" transform="translate(329.589844 0.015625)"/>
       <use xlink:href="#DejaVuSans-Oblique-6f" transform="translate(384.570312 0.015625)"/>
       <use xlink:href="#DejaVuSans-Oblique-63" transform="translate(445.751953 0.015625)"/>
       <use xlink:href="#DejaVuSans-Oblique-63" transform="translate(500.732422 0.015625)"/>
       <use xlink:href="#DejaVuSans-Oblique-75" transform="translate(555.712891 0.015625)"/>
       <use xlink:href="#DejaVuSans-Oblique-73" transform="translate(619.091797 0.015625)"/>
       <use xlink:href="#DejaVuSans-20" transform="translate(671.191406 0.015625)"/>
       <use xlink:href="#DejaVuSans-Oblique-66" transform="translate(702.978516 0.015625)"/>
       <use xlink:href="#DejaVuSans-Oblique-61" transform="translate(738.183594 0.015625)"/>
       <use xlink:href="#DejaVuSans-Oblique-65" transform="translate(799.462891 0.015625)"/>
       <use xlink:href="#DejaVuSans-Oblique-63" transform="translate(860.986328 0.015625)"/>
       <use xlink:href="#DejaVuSans-Oblique-61" transform="translate(915.966797 0.015625)"/>
       <use xlink:href="#DejaVuSans-Oblique-6c" transform="translate(977.246094 0.015625)"/>
       <use xlink:href="#DejaVuSans-Oblique-69" transform="translate(1005.029297 0.015625)"/>
       <use xlink:href="#DejaVuSans-Oblique-73" transform="translate(1032.8125 0.015625)"/>
      </g>
     </g>
    </g>
    <g id="xtick_10">
     <g id="line2d_10">
      <g>
       <use xlink:href="#m397f406b26" x="577.481657" y="212.32463" style="stroke: #000000; stroke-width: 0.8"/>
      </g>
     </g>
     <g id="text_10">
      <!-- $\it{Cryptococcus}$ $\it{neoformans}$ -->
      <g transform="translate(454.039558 271.134124) rotate(-20) scale(0.1 -0.1)">
       <defs>
        <path id="DejaVuSans-Oblique-43" d="M 4447 4306 
L 4319 3641 
Q 4019 3944 3683 4091 
Q 3347 4238 2956 4238 
Q 2422 4238 2017 3981 
Q 1613 3725 1319 3200 
Q 1131 2863 1032 2486 
Q 934 2109 934 1728 
Q 934 1091 1264 756 
Q 1594 422 2222 422 
Q 2656 422 3056 561 
Q 3456 700 3834 978 
L 3688 231 
Q 3316 72 2936 -9 
Q 2556 -91 2175 -91 
Q 1278 -91 773 396 
Q 269 884 269 1753 
Q 269 2309 461 2846 
Q 653 3384 1013 3828 
Q 1394 4300 1883 4525 
Q 2372 4750 3022 4750 
Q 3422 4750 3780 4639 
Q 4138 4528 4447 4306 
z
" transform="scale(0.015625)"/>
        <path id="DejaVuSans-Oblique-70" d="M 3175 2156 
Q 3175 2616 2975 2859 
Q 2775 3103 2400 3103 
Q 2144 3103 1911 2972 
Q 1678 2841 1497 2591 
Q 1319 2344 1212 1994 
Q 1106 1644 1106 1300 
Q 1106 863 1306 627 
Q 1506 391 1875 391 
Q 2147 391 2380 519 
Q 2613 647 2778 891 
Q 2956 1147 3065 1494 
Q 3175 1841 3175 2156 
z
M 1394 2969 
Q 1625 3272 1939 3428 
Q 2253 3584 2638 3584 
Q 3175 3584 3472 3232 
Q 3769 2881 3769 2247 
Q 3769 1728 3584 1258 
Q 3400 788 3053 416 
Q 2822 169 2531 39 
Q 2241 -91 1919 -91 
Q 1547 -91 1294 64 
Q 1041 219 916 525 
L 556 -1331 
L -19 -1331 
L 922 3500 
L 1497 3500 
L 1394 2969 
z
" transform="scale(0.015625)"/>
       </defs>
       <use xlink:href="#DejaVuSans-Oblique-43" transform="translate(0 0.015625)"/>
       <use xlink:href="#DejaVuSans-Oblique-72" transform="translate(69.824219 0.015625)"/>
       <use xlink:href="#DejaVuSans-Oblique-79" transform="translate(110.9375 0.015625)"/>
       <use xlink:href="#DejaVuSans-Oblique-70" transform="translate(170.117188 0.015625)"/>
       <use xlink:href="#DejaVuSans-Oblique-74" transform="translate(233.59375 0.015625)"/>
       <use xlink:href="#DejaVuSans-Oblique-6f" transform="translate(272.802734 0.015625)"/>
       <use xlink:href="#DejaVuSans-Oblique-63" transform="translate(333.984375 0.015625)"/>
       <use xlink:href="#DejaVuSans-Oblique-6f" transform="translate(388.964844 0.015625)"/>
       <use xlink:href="#DejaVuSans-Oblique-63" transform="translate(450.146484 0.015625)"/>
       <use xlink:href="#DejaVuSans-Oblique-63" transform="translate(505.126953 0.015625)"/>
       <use xlink:href="#DejaVuSans-Oblique-75" transform="translate(560.107422 0.015625)"/>
       <use xlink:href="#DejaVuSans-Oblique-73" transform="translate(623.486328 0.015625)"/>
       <use xlink:href="#DejaVuSans-20" transform="translate(675.585938 0.015625)"/>
       <use xlink:href="#DejaVuSans-Oblique-6e" transform="translate(707.373047 0.015625)"/>
       <use xlink:href="#DejaVuSans-Oblique-65" transform="translate(770.751953 0.015625)"/>
       <use xlink:href="#DejaVuSans-Oblique-6f" transform="translate(832.275391 0.015625)"/>
       <use xlink:href="#DejaVuSans-Oblique-66" transform="translate(893.457031 0.015625)"/>
       <use xlink:href="#DejaVuSans-Oblique-6f" transform="translate(928.662109 0.015625)"/>
       <use xlink:href="#DejaVuSans-Oblique-72" transform="translate(989.84375 0.015625)"/>
       <use xlink:href="#DejaVuSans-Oblique-6d" transform="translate(1030.957031 0.015625)"/>
       <use xlink:href="#DejaVuSans-Oblique-61" transform="translate(1128.369141 0.015625)"/>
       <use xlink:href="#DejaVuSans-Oblique-6e" transform="translate(1189.648438 0.015625)"/>
       <use xlink:href="#DejaVuSans-Oblique-73" transform="translate(1253.027344 0.015625)"/>
      </g>
     </g>
    </g>
    <g id="xtick_11">
     <g id="line2d_11">
      <g>
       <use xlink:href="#m397f406b26" x="631.677223" y="212.32463" style="stroke: #000000; stroke-width: 0.8"/>
      </g>
     </g>
     <g id="text_11">
      <!-- $\it{Staphylococcus}$ $\it{aureus}$ -->
      <g transform="translate(522.330514 266.003822) rotate(-20) scale(0.1 -0.1)">
       <use xlink:href="#DejaVuSans-Oblique-53" transform="translate(0 0.015625)"/>
       <use xlink:href="#DejaVuSans-Oblique-74" transform="translate(63.476562 0.015625)"/>
       <use xlink:href="#DejaVuSans-Oblique-61" transform="translate(102.685547 0.015625)"/>
       <use xlink:href="#DejaVuSans-Oblique-70" transform="translate(163.964844 0.015625)"/>
       <use xlink:href="#DejaVuSans-Oblique-68" transform="translate(227.441406 0.015625)"/>
       <use xlink:href="#DejaVuSans-Oblique-79" transform="translate(290.820312 0.015625)"/>
       <use xlink:href="#DejaVuSans-Oblique-6c" transform="translate(350 0.015625)"/>
       <use xlink:href="#DejaVuSans-Oblique-6f" transform="translate(377.783203 0.015625)"/>
       <use xlink:href="#DejaVuSans-Oblique-63" transform="translate(438.964844 0.015625)"/>
       <use xlink:href="#DejaVuSans-Oblique-6f" transform="translate(493.945312 0.015625)"/>
       <use xlink:href="#DejaVuSans-Oblique-63" transform="translate(555.126953 0.015625)"/>
       <use xlink:href="#DejaVuSans-Oblique-63" transform="translate(610.107422 0.015625)"/>
       <use xlink:href="#DejaVuSans-Oblique-75" transform="translate(665.087891 0.015625)"/>
       <use xlink:href="#DejaVuSans-Oblique-73" transform="translate(728.466797 0.015625)"/>
       <use xlink:href="#DejaVuSans-20" transform="translate(780.566406 0.015625)"/>
       <use xlink:href="#DejaVuSans-Oblique-61" transform="translate(812.353516 0.015625)"/>
       <use xlink:href="#DejaVuSans-Oblique-75" transform="translate(873.632812 0.015625)"/>
       <use xlink:href="#DejaVuSans-Oblique-72" transform="translate(937.011719 0.015625)"/>
       <use xlink:href="#DejaVuSans-Oblique-65" transform="translate(978.125 0.015625)"/>
       <use xlink:href="#DejaVuSans-Oblique-75" transform="translate(1039.648438 0.015625)"/>
       <use xlink:href="#DejaVuSans-Oblique-73" transform="translate(1103.027344 0.015625)"/>
      </g>
     </g>
    </g>
   </g>
   <g id="matplotlib.axis_2">
    <g id="ytick_1">
     <g id="line2d_12">
      <defs>
       <path id="ma862a2eca9" d="M 0 0 
L -3.5 0 
" style="stroke: #000000; stroke-width: 0.8"/>
      </defs>
      <g>
       <use xlink:href="#ma862a2eca9" x="47.72" y="212.32463" style="stroke: #000000; stroke-width: 0.8"/>
      </g>
     </g>
     <g id="text_12">
      <!-- 0.0 -->
      <g transform="translate(24.816875 216.123848) scale(0.1 -0.1)">
       <defs>
        <path id="DejaVuSans-30" d="M 2034 4250 
Q 1547 4250 1301 3770 
Q 1056 3291 1056 2328 
Q 1056 1369 1301 889 
Q 1547 409 2034 409 
Q 2525 409 2770 889 
Q 3016 1369 3016 2328 
Q 3016 3291 2770 3770 
Q 2525 4250 2034 4250 
z
M 2034 4750 
Q 2819 4750 3233 4129 
Q 3647 3509 3647 2328 
Q 3647 1150 3233 529 
Q 2819 -91 2034 -91 
Q 1250 -91 836 529 
Q 422 1150 422 2328 
Q 422 3509 836 4129 
Q 1250 4750 2034 4750 
z
" transform="scale(0.015625)"/>
        <path id="DejaVuSans-2e" d="M 684 794 
L 1344 794 
L 1344 0 
L 684 0 
L 684 794 
z
" transform="scale(0.015625)"/>
       </defs>
       <use xlink:href="#DejaVuSans-30"/>
       <use xlink:href="#DejaVuSans-2e" transform="translate(63.623047 0)"/>
       <use xlink:href="#DejaVuSans-30" transform="translate(95.410156 0)"/>
      </g>
     </g>
    </g>
    <g id="ytick_2">
     <g id="line2d_13">
      <g>
       <use xlink:href="#ma862a2eca9" x="47.72" y="175.235704" style="stroke: #000000; stroke-width: 0.8"/>
      </g>
     </g>
     <g id="text_13">
      <!-- 0.1 -->
      <g transform="translate(24.816875 179.034922) scale(0.1 -0.1)">
       <defs>
        <path id="DejaVuSans-31" d="M 794 531 
L 1825 531 
L 1825 4091 
L 703 3866 
L 703 4441 
L 1819 4666 
L 2450 4666 
L 2450 531 
L 3481 531 
L 3481 0 
L 794 0 
L 794 531 
z
" transform="scale(0.015625)"/>
       </defs>
       <use xlink:href="#DejaVuSans-30"/>
       <use xlink:href="#DejaVuSans-2e" transform="translate(63.623047 0)"/>
       <use xlink:href="#DejaVuSans-31" transform="translate(95.410156 0)"/>
      </g>
     </g>
    </g>
    <g id="ytick_3">
     <g id="line2d_14">
      <g>
       <use xlink:href="#ma862a2eca9" x="47.72" y="138.146778" style="stroke: #000000; stroke-width: 0.8"/>
      </g>
     </g>
     <g id="text_14">
      <!-- 0.2 -->
      <g transform="translate(24.816875 141.945997) scale(0.1 -0.1)">
       <defs>
        <path id="DejaVuSans-32" d="M 1228 531 
L 3431 531 
L 3431 0 
L 469 0 
L 469 531 
Q 828 903 1448 1529 
Q 2069 2156 2228 2338 
Q 2531 2678 2651 2914 
Q 2772 3150 2772 3378 
Q 2772 3750 2511 3984 
Q 2250 4219 1831 4219 
Q 1534 4219 1204 4116 
Q 875 4013 500 3803 
L 500 4441 
Q 881 4594 1212 4672 
Q 1544 4750 1819 4750 
Q 2544 4750 2975 4387 
Q 3406 4025 3406 3419 
Q 3406 3131 3298 2873 
Q 3191 2616 2906 2266 
Q 2828 2175 2409 1742 
Q 1991 1309 1228 531 
z
" transform="scale(0.015625)"/>
       </defs>
       <use xlink:href="#DejaVuSans-30"/>
       <use xlink:href="#DejaVuSans-2e" transform="translate(63.623047 0)"/>
       <use xlink:href="#DejaVuSans-32" transform="translate(95.410156 0)"/>
      </g>
     </g>
    </g>
    <g id="ytick_4">
     <g id="line2d_15">
      <g>
       <use xlink:href="#ma862a2eca9" x="47.72" y="101.057852" style="stroke: #000000; stroke-width: 0.8"/>
      </g>
     </g>
     <g id="text_15">
      <!-- 0.3 -->
      <g transform="translate(24.816875 104.857071) scale(0.1 -0.1)">
       <defs>
        <path id="DejaVuSans-33" d="M 2597 2516 
Q 3050 2419 3304 2112 
Q 3559 1806 3559 1356 
Q 3559 666 3084 287 
Q 2609 -91 1734 -91 
Q 1441 -91 1130 -33 
Q 819 25 488 141 
L 488 750 
Q 750 597 1062 519 
Q 1375 441 1716 441 
Q 2309 441 2620 675 
Q 2931 909 2931 1356 
Q 2931 1769 2642 2001 
Q 2353 2234 1838 2234 
L 1294 2234 
L 1294 2753 
L 1863 2753 
Q 2328 2753 2575 2939 
Q 2822 3125 2822 3475 
Q 2822 3834 2567 4026 
Q 2313 4219 1838 4219 
Q 1578 4219 1281 4162 
Q 984 4106 628 3988 
L 628 4550 
Q 988 4650 1302 4700 
Q 1616 4750 1894 4750 
Q 2613 4750 3031 4423 
Q 3450 4097 3450 3541 
Q 3450 3153 3228 2886 
Q 3006 2619 2597 2516 
z
" transform="scale(0.015625)"/>
       </defs>
       <use xlink:href="#DejaVuSans-30"/>
       <use xlink:href="#DejaVuSans-2e" transform="translate(63.623047 0)"/>
       <use xlink:href="#DejaVuSans-33" transform="translate(95.410156 0)"/>
      </g>
     </g>
    </g>
    <g id="ytick_5">
     <g id="line2d_16">
      <g>
       <use xlink:href="#ma862a2eca9" x="47.72" y="63.968926" style="stroke: #000000; stroke-width: 0.8"/>
      </g>
     </g>
     <g id="text_16">
      <!-- 0.4 -->
      <g transform="translate(24.816875 67.768145) scale(0.1 -0.1)">
       <defs>
        <path id="DejaVuSans-34" d="M 2419 4116 
L 825 1625 
L 2419 1625 
L 2419 4116 
z
M 2253 4666 
L 3047 4666 
L 3047 1625 
L 3713 1625 
L 3713 1100 
L 3047 1100 
L 3047 0 
L 2419 0 
L 2419 1100 
L 313 1100 
L 313 1709 
L 2253 4666 
z
" transform="scale(0.015625)"/>
       </defs>
       <use xlink:href="#DejaVuSans-30"/>
       <use xlink:href="#DejaVuSans-2e" transform="translate(63.623047 0)"/>
       <use xlink:href="#DejaVuSans-34" transform="translate(95.410156 0)"/>
      </g>
     </g>
    </g>
    <g id="ytick_6">
     <g id="line2d_17">
      <g>
       <use xlink:href="#ma862a2eca9" x="47.72" y="26.88" style="stroke: #000000; stroke-width: 0.8"/>
      </g>
     </g>
     <g id="text_17">
      <!-- 0.5 -->
      <g transform="translate(24.816875 30.679219) scale(0.1 -0.1)">
       <defs>
        <path id="DejaVuSans-35" d="M 691 4666 
L 3169 4666 
L 3169 4134 
L 1269 4134 
L 1269 2991 
Q 1406 3038 1543 3061 
Q 1681 3084 1819 3084 
Q 2600 3084 3056 2656 
Q 3513 2228 3513 1497 
Q 3513 744 3044 326 
Q 2575 -91 1722 -91 
Q 1428 -91 1123 -41 
Q 819 9 494 109 
L 494 744 
Q 775 591 1075 516 
Q 1375 441 1709 441 
Q 2250 441 2565 725 
Q 2881 1009 2881 1497 
Q 2881 1984 2565 2268 
Q 2250 2553 1709 2553 
Q 1456 2553 1204 2497 
Q 953 2441 691 2322 
L 691 4666 
z
" transform="scale(0.015625)"/>
       </defs>
       <use xlink:href="#DejaVuSans-30"/>
       <use xlink:href="#DejaVuSans-2e" transform="translate(63.623047 0)"/>
       <use xlink:href="#DejaVuSans-35" transform="translate(95.410156 0)"/>
      </g>
     </g>
    </g>
    <g id="text_18">
     <!-- Estimated error rate -->
     <g transform="translate(18.737187 170.297627) rotate(-90) scale(0.1 -0.1)">
      <defs>
       <path id="DejaVuSans-45" d="M 628 4666 
L 3578 4666 
L 3578 4134 
L 1259 4134 
L 1259 2753 
L 3481 2753 
L 3481 2222 
L 1259 2222 
L 1259 531 
L 3634 531 
L 3634 0 
L 628 0 
L 628 4666 
z
" transform="scale(0.015625)"/>
       <path id="DejaVuSans-74" d="M 1172 4494 
L 1172 3500 
L 2356 3500 
L 2356 3053 
L 1172 3053 
L 1172 1153 
Q 1172 725 1289 603 
Q 1406 481 1766 481 
L 2356 481 
L 2356 0 
L 1766 0 
Q 1100 0 847 248 
Q 594 497 594 1153 
L 594 3053 
L 172 3053 
L 172 3500 
L 594 3500 
L 594 4494 
L 1172 4494 
z
" transform="scale(0.015625)"/>
       <path id="DejaVuSans-69" d="M 603 3500 
L 1178 3500 
L 1178 0 
L 603 0 
L 603 3500 
z
M 603 4863 
L 1178 4863 
L 1178 4134 
L 603 4134 
L 603 4863 
z
" transform="scale(0.015625)"/>
       <path id="DejaVuSans-61" d="M 2194 1759 
Q 1497 1759 1228 1600 
Q 959 1441 959 1056 
Q 959 750 1161 570 
Q 1363 391 1709 391 
Q 2188 391 2477 730 
Q 2766 1069 2766 1631 
L 2766 1759 
L 2194 1759 
z
M 3341 1997 
L 3341 0 
L 2766 0 
L 2766 531 
Q 2569 213 2275 61 
Q 1981 -91 1556 -91 
Q 1019 -91 701 211 
Q 384 513 384 1019 
Q 384 1609 779 1909 
Q 1175 2209 1959 2209 
L 2766 2209 
L 2766 2266 
Q 2766 2663 2505 2880 
Q 2244 3097 1772 3097 
Q 1472 3097 1187 3025 
Q 903 2953 641 2809 
L 641 3341 
Q 956 3463 1253 3523 
Q 1550 3584 1831 3584 
Q 2591 3584 2966 3190 
Q 3341 2797 3341 1997 
z
" transform="scale(0.015625)"/>
       <path id="DejaVuSans-64" d="M 2906 2969 
L 2906 4863 
L 3481 4863 
L 3481 0 
L 2906 0 
L 2906 525 
Q 2725 213 2448 61 
Q 2172 -91 1784 -91 
Q 1150 -91 751 415 
Q 353 922 353 1747 
Q 353 2572 751 3078 
Q 1150 3584 1784 3584 
Q 2172 3584 2448 3432 
Q 2725 3281 2906 2969 
z
M 947 1747 
Q 947 1113 1208 752 
Q 1469 391 1925 391 
Q 2381 391 2643 752 
Q 2906 1113 2906 1747 
Q 2906 2381 2643 2742 
Q 2381 3103 1925 3103 
Q 1469 3103 1208 2742 
Q 947 2381 947 1747 
z
" transform="scale(0.015625)"/>
       <path id="DejaVuSans-72" d="M 2631 2963 
Q 2534 3019 2420 3045 
Q 2306 3072 2169 3072 
Q 1681 3072 1420 2755 
Q 1159 2438 1159 1844 
L 1159 0 
L 581 0 
L 581 3500 
L 1159 3500 
L 1159 2956 
Q 1341 3275 1631 3429 
Q 1922 3584 2338 3584 
Q 2397 3584 2469 3576 
Q 2541 3569 2628 3553 
L 2631 2963 
z
" transform="scale(0.015625)"/>
      </defs>
      <use xlink:href="#DejaVuSans-45"/>
      <use xlink:href="#DejaVuSans-73" transform="translate(63.183594 0)"/>
      <use xlink:href="#DejaVuSans-74" transform="translate(115.283203 0)"/>
      <use xlink:href="#DejaVuSans-69" transform="translate(154.492188 0)"/>
      <use xlink:href="#DejaVuSans-6d" transform="translate(182.275391 0)"/>
      <use xlink:href="#DejaVuSans-61" transform="translate(279.6875 0)"/>
      <use xlink:href="#DejaVuSans-74" transform="translate(340.966797 0)"/>
      <use xlink:href="#DejaVuSans-65" transform="translate(380.175781 0)"/>
      <use xlink:href="#DejaVuSans-64" transform="translate(441.699219 0)"/>
      <use xlink:href="#DejaVuSans-20" transform="translate(505.175781 0)"/>
      <use xlink:href="#DejaVuSans-65" transform="translate(536.962891 0)"/>
      <use xlink:href="#DejaVuSans-72" transform="translate(598.486328 0)"/>
      <use xlink:href="#DejaVuSans-72" transform="translate(637.849609 0)"/>
      <use xlink:href="#DejaVuSans-6f" transform="translate(676.712891 0)"/>
      <use xlink:href="#DejaVuSans-72" transform="translate(737.894531 0)"/>
      <use xlink:href="#DejaVuSans-20" transform="translate(779.007812 0)"/>
      <use xlink:href="#DejaVuSans-72" transform="translate(810.794922 0)"/>
      <use xlink:href="#DejaVuSans-61" transform="translate(851.908203 0)"/>
      <use xlink:href="#DejaVuSans-74" transform="translate(913.1875 0)"/>
      <use xlink:href="#DejaVuSans-65" transform="translate(952.396484 0)"/>
     </g>
    </g>
   </g>
   <g id="patch_14">
    <path d="M 47.72 212.32463 
L 47.72 26.88 
" style="fill: none; stroke: #000000; stroke-width: 0.8; stroke-linejoin: miter; stroke-linecap: square"/>
   </g>
   <g id="patch_15">
    <path d="M 673.678786 212.32463 
L 673.678786 26.88 
" style="fill: none; stroke: #000000; stroke-width: 0.8; stroke-linejoin: miter; stroke-linecap: square"/>
   </g>
   <g id="patch_16">
    <path d="M 47.72 212.32463 
L 673.678786 212.32463 
" style="fill: none; stroke: #000000; stroke-width: 0.8; stroke-linejoin: miter; stroke-linecap: square"/>
   </g>
   <g id="patch_17">
    <path d="M 47.72 26.88 
L 673.678786 26.88 
" style="fill: none; stroke: #000000; stroke-width: 0.8; stroke-linejoin: miter; stroke-linecap: square"/>
   </g>
   <g id="text_19">
    <!-- 0.12 -->
    <g transform="translate(78.588751 163.90579) scale(0.1 -0.1)">
     <use xlink:href="#DejaVuSans-30"/>
     <use xlink:href="#DejaVuSans-2e" transform="translate(63.623047 0)"/>
     <use xlink:href="#DejaVuSans-31" transform="translate(95.410156 0)"/>
     <use xlink:href="#DejaVuSans-32" transform="translate(159.033203 0)"/>
    </g>
   </g>
   <g id="text_20">
    <!-- 0.12 -->
    <g transform="translate(132.784317 164.31451) scale(0.1 -0.1)">
     <use xlink:href="#DejaVuSans-30"/>
     <use xlink:href="#DejaVuSans-2e" transform="translate(63.623047 0)"/>
     <use xlink:href="#DejaVuSans-31" transform="translate(95.410156 0)"/>
     <use xlink:href="#DejaVuSans-32" transform="translate(159.033203 0)"/>
    </g>
   </g>
   <g id="text_21">
    <!-- 0.14 -->
    <g transform="translate(186.979883 156.104506) scale(0.1 -0.1)">
     <use xlink:href="#DejaVuSans-30"/>
     <use xlink:href="#DejaVuSans-2e" transform="translate(63.623047 0)"/>
     <use xlink:href="#DejaVuSans-31" transform="translate(95.410156 0)"/>
     <use xlink:href="#DejaVuSans-34" transform="translate(159.033203 0)"/>
    </g>
   </g>
   <g id="text_22">
    <!-- 0.20 -->
    <g transform="translate(241.175449 134.852551) scale(0.1 -0.1)">
     <use xlink:href="#DejaVuSans-30"/>
     <use xlink:href="#DejaVuSans-2e" transform="translate(63.623047 0)"/>
     <use xlink:href="#DejaVuSans-32" transform="translate(95.410156 0)"/>
     <use xlink:href="#DejaVuSans-30" transform="translate(159.033203 0)"/>
    </g>
   </g>
   <g id="text_23">
    <!-- 0.12 -->
    <g transform="translate(295.371015 163.388029) scale(0.1 -0.1)">
     <use xlink:href="#DejaVuSans-30"/>
     <use xlink:href="#DejaVuSans-2e" transform="translate(63.623047 0)"/>
     <use xlink:href="#DejaVuSans-31" transform="translate(95.410156 0)"/>
     <use xlink:href="#DejaVuSans-32" transform="translate(159.033203 0)"/>
    </g>
   </g>
   <g id="text_24">
    <!-- 0.28 -->
    <g transform="translate(349.566581 103.272443) scale(0.1 -0.1)">
     <defs>
      <path id="DejaVuSans-38" d="M 2034 2216 
Q 1584 2216 1326 1975 
Q 1069 1734 1069 1313 
Q 1069 891 1326 650 
Q 1584 409 2034 409 
Q 2484 409 2743 651 
Q 3003 894 3003 1313 
Q 3003 1734 2745 1975 
Q 2488 2216 2034 2216 
z
M 1403 2484 
Q 997 2584 770 2862 
Q 544 3141 544 3541 
Q 544 4100 942 4425 
Q 1341 4750 2034 4750 
Q 2731 4750 3128 4425 
Q 3525 4100 3525 3541 
Q 3525 3141 3298 2862 
Q 3072 2584 2669 2484 
Q 3125 2378 3379 2068 
Q 3634 1759 3634 1313 
Q 3634 634 3220 271 
Q 2806 -91 2034 -91 
Q 1263 -91 848 271 
Q 434 634 434 1313 
Q 434 1759 690 2068 
Q 947 2378 1403 2484 
z
M 1172 3481 
Q 1172 3119 1398 2916 
Q 1625 2713 2034 2713 
Q 2441 2713 2670 2916 
Q 2900 3119 2900 3481 
Q 2900 3844 2670 4047 
Q 2441 4250 2034 4250 
Q 1625 4250 1398 4047 
Q 1172 3844 1172 3481 
z
" transform="scale(0.015625)"/>
     </defs>
     <use xlink:href="#DejaVuSans-30"/>
     <use xlink:href="#DejaVuSans-2e" transform="translate(63.623047 0)"/>
     <use xlink:href="#DejaVuSans-32" transform="translate(95.410156 0)"/>
     <use xlink:href="#DejaVuSans-38" transform="translate(159.033203 0)"/>
    </g>
   </g>
   <g id="text_25">
    <!-- 0.28 -->
    <g transform="translate(403.762147 101.650174) scale(0.1 -0.1)">
     <use xlink:href="#DejaVuSans-30"/>
     <use xlink:href="#DejaVuSans-2e" transform="translate(63.623047 0)"/>
     <use xlink:href="#DejaVuSans-32" transform="translate(95.410156 0)"/>
     <use xlink:href="#DejaVuSans-38" transform="translate(159.033203 0)"/>
    </g>
   </g>
   <g id="text_26">
    <!-- 0.24 -->
    <g transform="translate(457.957713 117.521267) scale(0.1 -0.1)">
     <use xlink:href="#DejaVuSans-30"/>
     <use xlink:href="#DejaVuSans-2e" transform="translate(63.623047 0)"/>
     <use xlink:href="#DejaVuSans-32" transform="translate(95.410156 0)"/>
     <use xlink:href="#DejaVuSans-34" transform="translate(159.033203 0)"/>
    </g>
   </g>
   <g id="text_27">
    <!-- 0.21 -->
    <g transform="translate(512.153278 129.004369) scale(0.1 -0.1)">
     <use xlink:href="#DejaVuSans-30"/>
     <use xlink:href="#DejaVuSans-2e" transform="translate(63.623047 0)"/>
     <use xlink:href="#DejaVuSans-32" transform="translate(95.410156 0)"/>
     <use xlink:href="#DejaVuSans-31" transform="translate(159.033203 0)"/>
    </g>
   </g>
   <g id="text_28">
    <!-- 0.13 -->
    <g transform="translate(566.348844 160.877851) scale(0.1 -0.1)">
     <use xlink:href="#DejaVuSans-30"/>
     <use xlink:href="#DejaVuSans-2e" transform="translate(63.623047 0)"/>
     <use xlink:href="#DejaVuSans-31" transform="translate(95.410156 0)"/>
     <use xlink:href="#DejaVuSans-33" transform="translate(159.033203 0)"/>
    </g>
   </g>
   <g id="text_29">
    <!-- 0.27 -->
    <g transform="translate(620.54441 108.464893) scale(0.1 -0.1)">
     <defs>
      <path id="DejaVuSans-37" d="M 525 4666 
L 3525 4666 
L 3525 4397 
L 1831 0 
L 1172 0 
L 2766 4134 
L 525 4134 
L 525 4666 
z
" transform="scale(0.015625)"/>
     </defs>
     <use xlink:href="#DejaVuSans-30"/>
     <use xlink:href="#DejaVuSans-2e" transform="translate(63.623047 0)"/>
     <use xlink:href="#DejaVuSans-32" transform="translate(95.410156 0)"/>
     <use xlink:href="#DejaVuSans-37" transform="translate(159.033203 0)"/>
    </g>
   </g>
   <g id="text_30">
    <!-- Estimated error rate by mapping reads to individual genomes -->
    <g transform="translate(175.231893 20.88) scale(0.12 -0.12)">
     <defs>
      <path id="DejaVuSans-62" d="M 3116 1747 
Q 3116 2381 2855 2742 
Q 2594 3103 2138 3103 
Q 1681 3103 1420 2742 
Q 1159 2381 1159 1747 
Q 1159 1113 1420 752 
Q 1681 391 2138 391 
Q 2594 391 2855 752 
Q 3116 1113 3116 1747 
z
M 1159 2969 
Q 1341 3281 1617 3432 
Q 1894 3584 2278 3584 
Q 2916 3584 3314 3078 
Q 3713 2572 3713 1747 
Q 3713 922 3314 415 
Q 2916 -91 2278 -91 
Q 1894 -91 1617 61 
Q 1341 213 1159 525 
L 1159 0 
L 581 0 
L 581 4863 
L 1159 4863 
L 1159 2969 
z
" transform="scale(0.015625)"/>
      <path id="DejaVuSans-79" d="M 2059 -325 
Q 1816 -950 1584 -1140 
Q 1353 -1331 966 -1331 
L 506 -1331 
L 506 -850 
L 844 -850 
Q 1081 -850 1212 -737 
Q 1344 -625 1503 -206 
L 1606 56 
L 191 3500 
L 800 3500 
L 1894 763 
L 2988 3500 
L 3597 3500 
L 2059 -325 
z
" transform="scale(0.015625)"/>
      <path id="DejaVuSans-70" d="M 1159 525 
L 1159 -1331 
L 581 -1331 
L 581 3500 
L 1159 3500 
L 1159 2969 
Q 1341 3281 1617 3432 
Q 1894 3584 2278 3584 
Q 2916 3584 3314 3078 
Q 3713 2572 3713 1747 
Q 3713 922 3314 415 
Q 2916 -91 2278 -91 
Q 1894 -91 1617 61 
Q 1341 213 1159 525 
z
M 3116 1747 
Q 3116 2381 2855 2742 
Q 2594 3103 2138 3103 
Q 1681 3103 1420 2742 
Q 1159 2381 1159 1747 
Q 1159 1113 1420 752 
Q 1681 391 2138 391 
Q 2594 391 2855 752 
Q 3116 1113 3116 1747 
z
" transform="scale(0.015625)"/>
      <path id="DejaVuSans-67" d="M 2906 1791 
Q 2906 2416 2648 2759 
Q 2391 3103 1925 3103 
Q 1463 3103 1205 2759 
Q 947 2416 947 1791 
Q 947 1169 1205 825 
Q 1463 481 1925 481 
Q 2391 481 2648 825 
Q 2906 1169 2906 1791 
z
M 3481 434 
Q 3481 -459 3084 -895 
Q 2688 -1331 1869 -1331 
Q 1566 -1331 1297 -1286 
Q 1028 -1241 775 -1147 
L 775 -588 
Q 1028 -725 1275 -790 
Q 1522 -856 1778 -856 
Q 2344 -856 2625 -561 
Q 2906 -266 2906 331 
L 2906 616 
Q 2728 306 2450 153 
Q 2172 0 1784 0 
Q 1141 0 747 490 
Q 353 981 353 1791 
Q 353 2603 747 3093 
Q 1141 3584 1784 3584 
Q 2172 3584 2450 3431 
Q 2728 3278 2906 2969 
L 2906 3500 
L 3481 3500 
L 3481 434 
z
" transform="scale(0.015625)"/>
      <path id="DejaVuSans-76" d="M 191 3500 
L 800 3500 
L 1894 563 
L 2988 3500 
L 3597 3500 
L 2284 0 
L 1503 0 
L 191 3500 
z
" transform="scale(0.015625)"/>
      <path id="DejaVuSans-75" d="M 544 1381 
L 544 3500 
L 1119 3500 
L 1119 1403 
Q 1119 906 1312 657 
Q 1506 409 1894 409 
Q 2359 409 2629 706 
Q 2900 1003 2900 1516 
L 2900 3500 
L 3475 3500 
L 3475 0 
L 2900 0 
L 2900 538 
Q 2691 219 2414 64 
Q 2138 -91 1772 -91 
Q 1169 -91 856 284 
Q 544 659 544 1381 
z
M 1991 3584 
L 1991 3584 
z
" transform="scale(0.015625)"/>
     </defs>
     <use xlink:href="#DejaVuSans-45"/>
     <use xlink:href="#DejaVuSans-73" transform="translate(63.183594 0)"/>
     <use xlink:href="#DejaVuSans-74" transform="translate(115.283203 0)"/>
     <use xlink:href="#DejaVuSans-69" transform="translate(154.492188 0)"/>
     <use xlink:href="#DejaVuSans-6d" transform="translate(182.275391 0)"/>
     <use xlink:href="#DejaVuSans-61" transform="translate(279.6875 0)"/>
     <use xlink:href="#DejaVuSans-74" transform="translate(340.966797 0)"/>
     <use xlink:href="#DejaVuSans-65" transform="translate(380.175781 0)"/>
     <use xlink:href="#DejaVuSans-64" transform="translate(441.699219 0)"/>
     <use xlink:href="#DejaVuSans-20" transform="translate(505.175781 0)"/>
     <use xlink:href="#DejaVuSans-65" transform="translate(536.962891 0)"/>
     <use xlink:href="#DejaVuSans-72" transform="translate(598.486328 0)"/>
     <use xlink:href="#DejaVuSans-72" transform="translate(637.849609 0)"/>
     <use xlink:href="#DejaVuSans-6f" transform="translate(676.712891 0)"/>
     <use xlink:href="#DejaVuSans-72" transform="translate(737.894531 0)"/>
     <use xlink:href="#DejaVuSans-20" transform="translate(779.007812 0)"/>
     <use xlink:href="#DejaVuSans-72" transform="translate(810.794922 0)"/>
     <use xlink:href="#DejaVuSans-61" transform="translate(851.908203 0)"/>
     <use xlink:href="#DejaVuSans-74" transform="translate(913.1875 0)"/>
     <use xlink:href="#DejaVuSans-65" transform="translate(952.396484 0)"/>
     <use xlink:href="#DejaVuSans-20" transform="translate(1013.919922 0)"/>
     <use xlink:href="#DejaVuSans-62" transform="translate(1045.707031 0)"/>
     <use xlink:href="#DejaVuSans-79" transform="translate(1109.183594 0)"/>
     <use xlink:href="#DejaVuSans-20" transform="translate(1168.363281 0)"/>
     <use xlink:href="#DejaVuSans-6d" transform="translate(1200.150391 0)"/>
     <use xlink:href="#DejaVuSans-61" transform="translate(1297.5625 0)"/>
     <use xlink:href="#DejaVuSans-70" transform="translate(1358.841797 0)"/>
     <use xlink:href="#DejaVuSans-70" transform="translate(1422.318359 0)"/>
     <use xlink:href="#DejaVuSans-69" transform="translate(1485.794922 0)"/>
     <use xlink:href="#DejaVuSans-6e" transform="translate(1513.578125 0)"/>
     <use xlink:href="#DejaVuSans-67" transform="translate(1576.957031 0)"/>
     <use xlink:href="#DejaVuSans-20" transform="translate(1640.433594 0)"/>
     <use xlink:href="#DejaVuSans-72" transform="translate(1672.220703 0)"/>
     <use xlink:href="#DejaVuSans-65" transform="translate(1711.083984 0)"/>
     <use xlink:href="#DejaVuSans-61" transform="translate(1772.607422 0)"/>
     <use xlink:href="#DejaVuSans-64" transform="translate(1833.886719 0)"/>
     <use xlink:href="#DejaVuSans-73" transform="translate(1897.363281 0)"/>
     <use xlink:href="#DejaVuSans-20" transform="translate(1949.462891 0)"/>
     <use xlink:href="#DejaVuSans-74" transform="translate(1981.25 0)"/>
     <use xlink:href="#DejaVuSans-6f" transform="translate(2020.458984 0)"/>
     <use xlink:href="#DejaVuSans-20" transform="translate(2081.640625 0)"/>
     <use xlink:href="#DejaVuSans-69" transform="translate(2113.427734 0)"/>
     <use xlink:href="#DejaVuSans-6e" transform="translate(2141.210938 0)"/>
     <use xlink:href="#DejaVuSans-64" transform="translate(2204.589844 0)"/>
     <use xlink:href="#DejaVuSans-69" transform="translate(2268.066406 0)"/>
     <use xlink:href="#DejaVuSans-76" transform="translate(2295.849609 0)"/>
     <use xlink:href="#DejaVuSans-69" transform="translate(2355.029297 0)"/>
     <use xlink:href="#DejaVuSans-64" transform="translate(2382.8125 0)"/>
     <use xlink:href="#DejaVuSans-75" transform="translate(2446.289062 0)"/>
     <use xlink:href="#DejaVuSans-61" transform="translate(2509.667969 0)"/>
     <use xlink:href="#DejaVuSans-6c" transform="translate(2570.947266 0)"/>
     <use xlink:href="#DejaVuSans-20" transform="translate(2598.730469 0)"/>
     <use xlink:href="#DejaVuSans-67" transform="translate(2630.517578 0)"/>
     <use xlink:href="#DejaVuSans-65" transform="translate(2693.994141 0)"/>
     <use xlink:href="#DejaVuSans-6e" transform="translate(2755.517578 0)"/>
     <use xlink:href="#DejaVuSans-6f" transform="translate(2818.896484 0)"/>
     <use xlink:href="#DejaVuSans-6d" transform="translate(2880.078125 0)"/>
     <use xlink:href="#DejaVuSans-65" transform="translate(2977.490234 0)"/>
     <use xlink:href="#DejaVuSans-73" transform="translate(3039.013672 0)"/>
    </g>
   </g>
  </g>
  <g id="axes_2">
   <g id="matplotlib.axis_3">
    <g id="ytick_7">
     <g id="line2d_18">
      <defs>
       <path id="ma15f395e6f" d="M 0 0 
L 3.5 0 
" style="stroke: #000000; stroke-width: 0.8"/>
      </defs>
      <g>
       <use xlink:href="#ma15f395e6f" x="673.678786" y="212.32463" style="stroke: #000000; stroke-width: 0.8"/>
      </g>
     </g>
     <g id="text_31">
      <!-- $\mathdefault{10^{-12}}$ -->
      <g transform="translate(680.678786 216.123848) scale(0.1 -0.1)">
       <defs>
        <path id="DejaVuSans-2212" d="M 678 2272 
L 4684 2272 
L 4684 1741 
L 678 1741 
L 678 2272 
z
" transform="scale(0.015625)"/>
       </defs>
       <use xlink:href="#DejaVuSans-31" transform="translate(0 0.765625)"/>
       <use xlink:href="#DejaVuSans-30" transform="translate(63.623047 0.765625)"/>
       <use xlink:href="#DejaVuSans-2212" transform="translate(128.203125 39.046875) scale(0.7)"/>
       <use xlink:href="#DejaVuSans-31" transform="translate(186.855469 39.046875) scale(0.7)"/>
       <use xlink:href="#DejaVuSans-32" transform="translate(231.391602 39.046875) scale(0.7)"/>
      </g>
     </g>
    </g>
    <g id="ytick_8">
     <g id="line2d_19">
      <g>
       <use xlink:href="#ma15f395e6f" x="673.678786" y="183.794687" style="stroke: #000000; stroke-width: 0.8"/>
      </g>
     </g>
     <g id="text_32">
      <!-- $\mathdefault{10^{-10}}$ -->
      <g transform="translate(680.678786 187.593905) scale(0.1 -0.1)">
       <use xlink:href="#DejaVuSans-31" transform="translate(0 0.765625)"/>
       <use xlink:href="#DejaVuSans-30" transform="translate(63.623047 0.765625)"/>
       <use xlink:href="#DejaVuSans-2212" transform="translate(128.203125 39.046875) scale(0.7)"/>
       <use xlink:href="#DejaVuSans-31" transform="translate(186.855469 39.046875) scale(0.7)"/>
       <use xlink:href="#DejaVuSans-30" transform="translate(231.391602 39.046875) scale(0.7)"/>
      </g>
     </g>
    </g>
    <g id="ytick_9">
     <g id="line2d_20">
      <g>
       <use xlink:href="#ma15f395e6f" x="673.678786" y="155.264744" style="stroke: #000000; stroke-width: 0.8"/>
      </g>
     </g>
     <g id="text_33">
      <!-- $\mathdefault{10^{-8}}$ -->
      <g transform="translate(680.678786 159.063962) scale(0.1 -0.1)">
       <use xlink:href="#DejaVuSans-31" transform="translate(0 0.765625)"/>
       <use xlink:href="#DejaVuSans-30" transform="translate(63.623047 0.765625)"/>
       <use xlink:href="#DejaVuSans-2212" transform="translate(128.203125 39.046875) scale(0.7)"/>
       <use xlink:href="#DejaVuSans-38" transform="translate(186.855469 39.046875) scale(0.7)"/>
      </g>
     </g>
    </g>
    <g id="ytick_10">
     <g id="line2d_21">
      <g>
       <use xlink:href="#ma15f395e6f" x="673.678786" y="126.734801" style="stroke: #000000; stroke-width: 0.8"/>
      </g>
     </g>
     <g id="text_34">
      <!-- $\mathdefault{10^{-6}}$ -->
      <g transform="translate(680.678786 130.534019) scale(0.1 -0.1)">
       <defs>
        <path id="DejaVuSans-36" d="M 2113 2584 
Q 1688 2584 1439 2293 
Q 1191 2003 1191 1497 
Q 1191 994 1439 701 
Q 1688 409 2113 409 
Q 2538 409 2786 701 
Q 3034 994 3034 1497 
Q 3034 2003 2786 2293 
Q 2538 2584 2113 2584 
z
M 3366 4563 
L 3366 3988 
Q 3128 4100 2886 4159 
Q 2644 4219 2406 4219 
Q 1781 4219 1451 3797 
Q 1122 3375 1075 2522 
Q 1259 2794 1537 2939 
Q 1816 3084 2150 3084 
Q 2853 3084 3261 2657 
Q 3669 2231 3669 1497 
Q 3669 778 3244 343 
Q 2819 -91 2113 -91 
Q 1303 -91 875 529 
Q 447 1150 447 2328 
Q 447 3434 972 4092 
Q 1497 4750 2381 4750 
Q 2619 4750 2861 4703 
Q 3103 4656 3366 4563 
z
" transform="scale(0.015625)"/>
       </defs>
       <use xlink:href="#DejaVuSans-31" transform="translate(0 0.765625)"/>
       <use xlink:href="#DejaVuSans-30" transform="translate(63.623047 0.765625)"/>
       <use xlink:href="#DejaVuSans-2212" transform="translate(128.203125 39.046875) scale(0.7)"/>
       <use xlink:href="#DejaVuSans-36" transform="translate(186.855469 39.046875) scale(0.7)"/>
      </g>
     </g>
    </g>
    <g id="ytick_11">
     <g id="line2d_22">
      <g>
       <use xlink:href="#ma15f395e6f" x="673.678786" y="98.204858" style="stroke: #000000; stroke-width: 0.8"/>
      </g>
     </g>
     <g id="text_35">
      <!-- $\mathdefault{10^{-4}}$ -->
      <g transform="translate(680.678786 102.004076) scale(0.1 -0.1)">
       <use xlink:href="#DejaVuSans-31" transform="translate(0 0.684375)"/>
       <use xlink:href="#DejaVuSans-30" transform="translate(63.623047 0.684375)"/>
       <use xlink:href="#DejaVuSans-2212" transform="translate(128.203125 38.965625) scale(0.7)"/>
       <use xlink:href="#DejaVuSans-34" transform="translate(186.855469 38.965625) scale(0.7)"/>
      </g>
     </g>
    </g>
    <g id="ytick_12">
     <g id="line2d_23">
      <g>
       <use xlink:href="#ma15f395e6f" x="673.678786" y="69.674915" style="stroke: #000000; stroke-width: 0.8"/>
      </g>
     </g>
     <g id="text_36">
      <!-- $\mathdefault{10^{-2}}$ -->
      <g transform="translate(680.678786 73.474133) scale(0.1 -0.1)">
       <use xlink:href="#DejaVuSans-31" transform="translate(0 0.765625)"/>
       <use xlink:href="#DejaVuSans-30" transform="translate(63.623047 0.765625)"/>
       <use xlink:href="#DejaVuSans-2212" transform="translate(128.203125 39.046875) scale(0.7)"/>
       <use xlink:href="#DejaVuSans-32" transform="translate(186.855469 39.046875) scale(0.7)"/>
      </g>
     </g>
    </g>
    <g id="ytick_13">
     <g id="line2d_24">
      <g>
       <use xlink:href="#ma15f395e6f" x="673.678786" y="41.144972" style="stroke: #000000; stroke-width: 0.8"/>
      </g>
     </g>
     <g id="text_37">
      <!-- $\mathdefault{10^{0}}$ -->
      <g transform="translate(680.678786 44.94419) scale(0.1 -0.1)">
       <use xlink:href="#DejaVuSans-31" transform="translate(0 0.765625)"/>
       <use xlink:href="#DejaVuSans-30" transform="translate(63.623047 0.765625)"/>
       <use xlink:href="#DejaVuSans-30" transform="translate(128.203125 39.046875) scale(0.7)"/>
      </g>
     </g>
    </g>
   </g>
   <g id="line2d_25">
    <path d="M 89.721564 41.144972 
L 143.91713 41.859965 
L 198.112695 56.131893 
L 252.308261 70.396865 
L 306.503827 70.396865 
L 360.699393 84.661836 
L 414.894959 84.661836 
L 469.090525 98.926808 
L 523.286091 113.191779 
L 577.481657 113.191779 
L 631.677223 127.456751 
" clip-path="url(#p84f6ec162a)" style="fill: none; stroke: #000000; stroke-width: 3; stroke-linecap: square"/>
    <defs>
     <path id="ma1b6240733" d="M -0 4.242641 
L 2.545584 0 
L 0 -4.242641 
L -2.545584 -0 
z
" style="stroke: #000000; stroke-linejoin: miter"/>
    </defs>
    <g clip-path="url(#p84f6ec162a)">
     <use xlink:href="#ma1b6240733" x="89.721564" y="41.144972" style="stroke: #000000; stroke-linejoin: miter"/>
     <use xlink:href="#ma1b6240733" x="143.91713" y="41.859965" style="stroke: #000000; stroke-linejoin: miter"/>
     <use xlink:href="#ma1b6240733" x="198.112695" y="56.131893" style="stroke: #000000; stroke-linejoin: miter"/>
     <use xlink:href="#ma1b6240733" x="252.308261" y="70.396865" style="stroke: #000000; stroke-linejoin: miter"/>
     <use xlink:href="#ma1b6240733" x="306.503827" y="70.396865" style="stroke: #000000; stroke-linejoin: miter"/>
     <use xlink:href="#ma1b6240733" x="360.699393" y="84.661836" style="stroke: #000000; stroke-linejoin: miter"/>
     <use xlink:href="#ma1b6240733" x="414.894959" y="84.661836" style="stroke: #000000; stroke-linejoin: miter"/>
     <use xlink:href="#ma1b6240733" x="469.090525" y="98.926808" style="stroke: #000000; stroke-linejoin: miter"/>
     <use xlink:href="#ma1b6240733" x="523.286091" y="113.191779" style="stroke: #000000; stroke-linejoin: miter"/>
     <use xlink:href="#ma1b6240733" x="577.481657" y="113.191779" style="stroke: #000000; stroke-linejoin: miter"/>
     <use xlink:href="#ma1b6240733" x="631.677223" y="127.456751" style="stroke: #000000; stroke-linejoin: miter"/>
    </g>
   </g>
   <g id="line2d_26">
    <path d="M 89.721564 41.144972 
L 143.91713 41.589575 
L 198.112695 58.040892 
L 252.308261 60.279118 
L 306.503827 70.437607 
L 360.699393 67.166013 
L 414.894959 67.21023 
L 469.090525 66.876866 
L 523.286091 58.329639 
L 577.481657 88.861622 
L 631.677223 61.24599 
" clip-path="url(#p84f6ec162a)" style="fill: none; stroke-dasharray: 11.1,4.8; stroke-dashoffset: 0; stroke: #708090; stroke-width: 3"/>
    <defs>
     <path id="m51b418750b" d="M 0 3 
C 0.795609 3 1.55874 2.683901 2.12132 2.12132 
C 2.683901 1.55874 3 0.795609 3 0 
C 3 -0.795609 2.683901 -1.55874 2.12132 -2.12132 
C 1.55874 -2.683901 0.795609 -3 0 -3 
C -0.795609 -3 -1.55874 -2.683901 -2.12132 -2.12132 
C -2.683901 -1.55874 -3 -0.795609 -3 0 
C -3 0.795609 -2.683901 1.55874 -2.12132 2.12132 
C -1.55874 2.683901 -0.795609 3 0 3 
z
" style="stroke: #708090"/>
    </defs>
    <g clip-path="url(#p84f6ec162a)">
     <use xlink:href="#m51b418750b" x="89.721564" y="41.144972" style="fill: #708090; stroke: #708090"/>
     <use xlink:href="#m51b418750b" x="143.91713" y="41.589575" style="fill: #708090; stroke: #708090"/>
     <use xlink:href="#m51b418750b" x="198.112695" y="58.040892" style="fill: #708090; stroke: #708090"/>
     <use xlink:href="#m51b418750b" x="252.308261" y="60.279118" style="fill: #708090; stroke: #708090"/>
     <use xlink:href="#m51b418750b" x="306.503827" y="70.437607" style="fill: #708090; stroke: #708090"/>
     <use xlink:href="#m51b418750b" x="360.699393" y="67.166013" style="fill: #708090; stroke: #708090"/>
     <use xlink:href="#m51b418750b" x="414.894959" y="67.21023" style="fill: #708090; stroke: #708090"/>
     <use xlink:href="#m51b418750b" x="469.090525" y="66.876866" style="fill: #708090; stroke: #708090"/>
     <use xlink:href="#m51b418750b" x="523.286091" y="58.329639" style="fill: #708090; stroke: #708090"/>
     <use xlink:href="#m51b418750b" x="577.481657" y="88.861622" style="fill: #708090; stroke: #708090"/>
     <use xlink:href="#m51b418750b" x="631.677223" y="61.24599" style="fill: #708090; stroke: #708090"/>
    </g>
   </g>
   <g id="patch_18">
    <path d="M 47.72 212.32463 
L 47.72 26.88 
" style="fill: none; stroke: #000000; stroke-width: 0.8; stroke-linejoin: miter; stroke-linecap: square"/>
   </g>
   <g id="patch_19">
    <path d="M 673.678786 212.32463 
L 673.678786 26.88 
" style="fill: none; stroke: #000000; stroke-width: 0.8; stroke-linejoin: miter; stroke-linecap: square"/>
   </g>
   <g id="patch_20">
    <path d="M 47.72 212.32463 
L 673.678786 212.32463 
" style="fill: none; stroke: #000000; stroke-width: 0.8; stroke-linejoin: miter; stroke-linecap: square"/>
   </g>
   <g id="patch_21">
    <path d="M 47.72 26.88 
L 673.678786 26.88 
" style="fill: none; stroke: #000000; stroke-width: 0.8; stroke-linejoin: miter; stroke-linecap: square"/>
   </g>
  </g>
  <g id="legend_1">
   <g id="patch_22">
    <path d="M 54.957812 124.034375 
L 281 124.034375 
Q 283 124.034375 283 122.034375 
L 283 79 
Q 283 77 281 77 
L 54.957812 77 
Q 52.957812 77 52.957812 79 
L 52.957812 122.034375 
Q 52.957812 124.034375 54.957812 124.034375 
z
" style="fill: #ffffff; opacity: 0.8; stroke: #cccccc; stroke-linejoin: miter"/>
   </g>
   <g id="patch_23">
    <path d="M 56.957812 88.598438 
L 76.957812 88.598438 
L 76.957812 81.598438 
L 56.957812 81.598438 
z
" style="fill: #708090"/>
   </g>
   <g id="text_38">
    <!-- BEST + Minimap2 Estimated error rate -->
    <g transform="translate(84.957812 88.598438) scale(0.1 -0.1)">
     <defs>
      <path id="DejaVuSans-42" d="M 1259 2228 
L 1259 519 
L 2272 519 
Q 2781 519 3026 730 
Q 3272 941 3272 1375 
Q 3272 1813 3026 2020 
Q 2781 2228 2272 2228 
L 1259 2228 
z
M 1259 4147 
L 1259 2741 
L 2194 2741 
Q 2656 2741 2882 2914 
Q 3109 3088 3109 3444 
Q 3109 3797 2882 3972 
Q 2656 4147 2194 4147 
L 1259 4147 
z
M 628 4666 
L 2241 4666 
Q 2963 4666 3353 4366 
Q 3744 4066 3744 3513 
Q 3744 3084 3544 2831 
Q 3344 2578 2956 2516 
Q 3422 2416 3680 2098 
Q 3938 1781 3938 1306 
Q 3938 681 3513 340 
Q 3088 0 2303 0 
L 628 0 
L 628 4666 
z
" transform="scale(0.015625)"/>
      <path id="DejaVuSans-53" d="M 3425 4513 
L 3425 3897 
Q 3066 4069 2747 4153 
Q 2428 4238 2131 4238 
Q 1616 4238 1336 4038 
Q 1056 3838 1056 3469 
Q 1056 3159 1242 3001 
Q 1428 2844 1947 2747 
L 2328 2669 
Q 3034 2534 3370 2195 
Q 3706 1856 3706 1288 
Q 3706 609 3251 259 
Q 2797 -91 1919 -91 
Q 1588 -91 1214 -16 
Q 841 59 441 206 
L 441 856 
Q 825 641 1194 531 
Q 1563 422 1919 422 
Q 2459 422 2753 634 
Q 3047 847 3047 1241 
Q 3047 1584 2836 1778 
Q 2625 1972 2144 2069 
L 1759 2144 
Q 1053 2284 737 2584 
Q 422 2884 422 3419 
Q 422 4038 858 4394 
Q 1294 4750 2059 4750 
Q 2388 4750 2728 4690 
Q 3069 4631 3425 4513 
z
" transform="scale(0.015625)"/>
      <path id="DejaVuSans-54" d="M -19 4666 
L 3928 4666 
L 3928 4134 
L 2272 4134 
L 2272 0 
L 1638 0 
L 1638 4134 
L -19 4134 
L -19 4666 
z
" transform="scale(0.015625)"/>
      <path id="DejaVuSans-2b" d="M 2944 4013 
L 2944 2272 
L 4684 2272 
L 4684 1741 
L 2944 1741 
L 2944 0 
L 2419 0 
L 2419 1741 
L 678 1741 
L 678 2272 
L 2419 2272 
L 2419 4013 
L 2944 4013 
z
" transform="scale(0.015625)"/>
      <path id="DejaVuSans-4d" d="M 628 4666 
L 1569 4666 
L 2759 1491 
L 3956 4666 
L 4897 4666 
L 4897 0 
L 4281 0 
L 4281 4097 
L 3078 897 
L 2444 897 
L 1241 4097 
L 1241 0 
L 628 0 
L 628 4666 
z
" transform="scale(0.015625)"/>
     </defs>
     <use xlink:href="#DejaVuSans-42"/>
     <use xlink:href="#DejaVuSans-45" transform="translate(68.603516 0)"/>
     <use xlink:href="#DejaVuSans-53" transform="translate(131.787109 0)"/>
     <use xlink:href="#DejaVuSans-54" transform="translate(195.263672 0)"/>
     <use xlink:href="#DejaVuSans-20" transform="translate(256.347656 0)"/>
     <use xlink:href="#DejaVuSans-2b" transform="translate(288.134766 0)"/>
     <use xlink:href="#DejaVuSans-20" transform="translate(371.923828 0)"/>
     <use xlink:href="#DejaVuSans-4d" transform="translate(403.710938 0)"/>
     <use xlink:href="#DejaVuSans-69" transform="translate(489.990234 0)"/>
     <use xlink:href="#DejaVuSans-6e" transform="translate(517.773438 0)"/>
     <use xlink:href="#DejaVuSans-69" transform="translate(581.152344 0)"/>
     <use xlink:href="#DejaVuSans-6d" transform="translate(608.935547 0)"/>
     <use xlink:href="#DejaVuSans-61" transform="translate(706.347656 0)"/>
     <use xlink:href="#DejaVuSans-70" transform="translate(767.626953 0)"/>
     <use xlink:href="#DejaVuSans-32" transform="translate(831.103516 0)"/>
     <use xlink:href="#DejaVuSans-20" transform="translate(894.726562 0)"/>
     <use xlink:href="#DejaVuSans-45" transform="translate(926.513672 0)"/>
     <use xlink:href="#DejaVuSans-73" transform="translate(989.697266 0)"/>
     <use xlink:href="#DejaVuSans-74" transform="translate(1041.796875 0)"/>
     <use xlink:href="#DejaVuSans-69" transform="translate(1081.005859 0)"/>
     <use xlink:href="#DejaVuSans-6d" transform="translate(1108.789062 0)"/>
     <use xlink:href="#DejaVuSans-61" transform="translate(1206.201172 0)"/>
     <use xlink:href="#DejaVuSans-74" transform="translate(1267.480469 0)"/>
     <use xlink:href="#DejaVuSans-65" transform="translate(1306.689453 0)"/>
     <use xlink:href="#DejaVuSans-64" transform="translate(1368.212891 0)"/>
     <use xlink:href="#DejaVuSans-20" transform="translate(1431.689453 0)"/>
     <use xlink:href="#DejaVuSans-65" transform="translate(1463.476562 0)"/>
     <use xlink:href="#DejaVuSans-72" transform="translate(1525 0)"/>
     <use xlink:href="#DejaVuSans-72" transform="translate(1564.363281 0)"/>
     <use xlink:href="#DejaVuSans-6f" transform="translate(1603.226562 0)"/>
     <use xlink:href="#DejaVuSans-72" transform="translate(1664.408203 0)"/>
     <use xlink:href="#DejaVuSans-20" transform="translate(1705.521484 0)"/>
     <use xlink:href="#DejaVuSans-72" transform="translate(1737.308594 0)"/>
     <use xlink:href="#DejaVuSans-61" transform="translate(1778.421875 0)"/>
     <use xlink:href="#DejaVuSans-74" transform="translate(1839.701172 0)"/>
     <use xlink:href="#DejaVuSans-65" transform="translate(1878.910156 0)"/>
    </g>
   </g>
   <g id="line2d_27">
    <path d="M 56.957812 99.776563 
L 66.957812 99.776563 
L 76.957812 99.776563 
" style="fill: none; stroke: #000000; stroke-width: 3; stroke-linecap: square"/>
    <g>
     <use xlink:href="#ma1b6240733" x="66.957812" y="99.776563" style="stroke: #000000; stroke-linejoin: miter"/>
    </g>
   </g>
   <g id="text_39">
    <!-- Ground truth abundance -->
    <g transform="translate(84.957812 103.276563) scale(0.1 -0.1)">
     <defs>
      <path id="DejaVuSans-68" d="M 3513 2113 
L 3513 0 
L 2938 0 
L 2938 2094 
Q 2938 2591 2744 2837 
Q 2550 3084 2163 3084 
Q 1697 3084 1428 2787 
Q 1159 2491 1159 1978 
L 1159 0 
L 581 0 
L 581 4863 
L 1159 4863 
L 1159 2956 
Q 1366 3272 1645 3428 
Q 1925 3584 2291 3584 
Q 2894 3584 3203 3211 
Q 3513 2838 3513 2113 
z
" transform="scale(0.015625)"/>
      <path id="DejaVuSans-63" d="M 3122 3366 
L 3122 2828 
Q 2878 2963 2633 3030 
Q 2388 3097 2138 3097 
Q 1578 3097 1268 2742 
Q 959 2388 959 1747 
Q 959 1106 1268 751 
Q 1578 397 2138 397 
Q 2388 397 2633 464 
Q 2878 531 3122 666 
L 3122 134 
Q 2881 22 2623 -34 
Q 2366 -91 2075 -91 
Q 1284 -91 818 406 
Q 353 903 353 1747 
Q 353 2603 823 3093 
Q 1294 3584 2113 3584 
Q 2378 3584 2631 3529 
Q 2884 3475 3122 3366 
z
" transform="scale(0.015625)"/>
     </defs>
     <use xlink:href="#DejaVuSans-47"/>
     <use xlink:href="#DejaVuSans-72" transform="translate(77.490234 0)"/>
     <use xlink:href="#DejaVuSans-6f" transform="translate(116.353516 0)"/>
     <use xlink:href="#DejaVuSans-75" transform="translate(177.535156 0)"/>
     <use xlink:href="#DejaVuSans-6e" transform="translate(240.914062 0)"/>
     <use xlink:href="#DejaVuSans-64" transform="translate(304.292969 0)"/>
     <use xlink:href="#DejaVuSans-20" transform="translate(367.769531 0)"/>
     <use xlink:href="#DejaVuSans-74" transform="translate(399.556641 0)"/>
     <use xlink:href="#DejaVuSans-72" transform="translate(438.765625 0)"/>
     <use xlink:href="#DejaVuSans-75" transform="translate(479.878906 0)"/>
     <use xlink:href="#DejaVuSans-74" transform="translate(543.257812 0)"/>
     <use xlink:href="#DejaVuSans-68" transform="translate(582.466797 0)"/>
     <use xlink:href="#DejaVuSans-20" transform="translate(645.845703 0)"/>
     <use xlink:href="#DejaVuSans-61" transform="translate(677.632812 0)"/>
     <use xlink:href="#DejaVuSans-62" transform="translate(738.912109 0)"/>
     <use xlink:href="#DejaVuSans-75" transform="translate(802.388672 0)"/>
     <use xlink:href="#DejaVuSans-6e" transform="translate(865.767578 0)"/>
     <use xlink:href="#DejaVuSans-64" transform="translate(929.146484 0)"/>
     <use xlink:href="#DejaVuSans-61" transform="translate(992.623047 0)"/>
     <use xlink:href="#DejaVuSans-6e" transform="translate(1053.902344 0)"/>
     <use xlink:href="#DejaVuSans-63" transform="translate(1117.28125 0)"/>
     <use xlink:href="#DejaVuSans-65" transform="translate(1172.261719 0)"/>
    </g>
   </g>
   <g id="line2d_28">
    <path d="M 56.957812 114.454688 
L 66.957812 114.454688 
L 76.957812 114.454688 
" style="fill: none; stroke-dasharray: 11.1,4.8; stroke-dashoffset: 0; stroke: #708090; stroke-width: 3"/>
    <g>
     <use xlink:href="#m51b418750b" x="66.957812" y="114.454688" style="fill: #708090; stroke: #708090"/>
    </g>
   </g>
   <g id="text_40">
    <!-- % Reads mapped by Minimap2 -->
    <g transform="translate(84.957812 117.954688) scale(0.1 -0.1)">
     <defs>
      <path id="DejaVuSans-25" d="M 4653 2053 
Q 4381 2053 4226 1822 
Q 4072 1591 4072 1178 
Q 4072 772 4226 539 
Q 4381 306 4653 306 
Q 4919 306 5073 539 
Q 5228 772 5228 1178 
Q 5228 1588 5073 1820 
Q 4919 2053 4653 2053 
z
M 4653 2450 
Q 5147 2450 5437 2106 
Q 5728 1763 5728 1178 
Q 5728 594 5436 251 
Q 5144 -91 4653 -91 
Q 4153 -91 3862 251 
Q 3572 594 3572 1178 
Q 3572 1766 3864 2108 
Q 4156 2450 4653 2450 
z
M 1428 4353 
Q 1159 4353 1004 4120 
Q 850 3888 850 3481 
Q 850 3069 1003 2837 
Q 1156 2606 1428 2606 
Q 1700 2606 1854 2837 
Q 2009 3069 2009 3481 
Q 2009 3884 1853 4118 
Q 1697 4353 1428 4353 
z
M 4250 4750 
L 4750 4750 
L 1831 -91 
L 1331 -91 
L 4250 4750 
z
M 1428 4750 
Q 1922 4750 2215 4408 
Q 2509 4066 2509 3481 
Q 2509 2891 2217 2550 
Q 1925 2209 1428 2209 
Q 931 2209 642 2551 
Q 353 2894 353 3481 
Q 353 4063 643 4406 
Q 934 4750 1428 4750 
z
" transform="scale(0.015625)"/>
      <path id="DejaVuSans-52" d="M 2841 2188 
Q 3044 2119 3236 1894 
Q 3428 1669 3622 1275 
L 4263 0 
L 3584 0 
L 2988 1197 
Q 2756 1666 2539 1819 
Q 2322 1972 1947 1972 
L 1259 1972 
L 1259 0 
L 628 0 
L 628 4666 
L 2053 4666 
Q 2853 4666 3247 4331 
Q 3641 3997 3641 3322 
Q 3641 2881 3436 2590 
Q 3231 2300 2841 2188 
z
M 1259 4147 
L 1259 2491 
L 2053 2491 
Q 2509 2491 2742 2702 
Q 2975 2913 2975 3322 
Q 2975 3731 2742 3939 
Q 2509 4147 2053 4147 
L 1259 4147 
z
" transform="scale(0.015625)"/>
     </defs>
     <use xlink:href="#DejaVuSans-25"/>
     <use xlink:href="#DejaVuSans-20" transform="translate(95.019531 0)"/>
     <use xlink:href="#DejaVuSans-52" transform="translate(126.806641 0)"/>
     <use xlink:href="#DejaVuSans-65" transform="translate(191.789062 0)"/>
     <use xlink:href="#DejaVuSans-61" transform="translate(253.3125 0)"/>
     <use xlink:href="#DejaVuSans-64" transform="translate(314.591797 0)"/>
     <use xlink:href="#DejaVuSans-73" transform="translate(378.068359 0)"/>
     <use xlink:href="#DejaVuSans-20" transform="translate(430.167969 0)"/>
     <use xlink:href="#DejaVuSans-6d" transform="translate(461.955078 0)"/>
     <use xlink:href="#DejaVuSans-61" transform="translate(559.367188 0)"/>
     <use xlink:href="#DejaVuSans-70" transform="translate(620.646484 0)"/>
     <use xlink:href="#DejaVuSans-70" transform="translate(684.123047 0)"/>
     <use xlink:href="#DejaVuSans-65" transform="translate(747.599609 0)"/>
     <use xlink:href="#DejaVuSans-64" transform="translate(809.123047 0)"/>
     <use xlink:href="#DejaVuSans-20" transform="translate(872.599609 0)"/>
     <use xlink:href="#DejaVuSans-62" transform="translate(904.386719 0)"/>
     <use xlink:href="#DejaVuSans-79" transform="translate(967.863281 0)"/>
     <use xlink:href="#DejaVuSans-20" transform="translate(1027.042969 0)"/>
     <use xlink:href="#DejaVuSans-4d" transform="translate(1058.830078 0)"/>
     <use xlink:href="#DejaVuSans-69" transform="translate(1145.109375 0)"/>
     <use xlink:href="#DejaVuSans-6e" transform="translate(1172.892578 0)"/>
     <use xlink:href="#DejaVuSans-69" transform="translate(1236.271484 0)"/>
     <use xlink:href="#DejaVuSans-6d" transform="translate(1264.054688 0)"/>
     <use xlink:href="#DejaVuSans-61" transform="translate(1361.466797 0)"/>
     <use xlink:href="#DejaVuSans-70" transform="translate(1422.746094 0)"/>
     <use xlink:href="#DejaVuSans-32" transform="translate(1486.222656 0)"/>
    </g>
   </g>
  </g>
 </g>
 <defs>
  <clipPath id="p84f6ec162a">
   <rect x="47.72" y="26.88" width="625.958786" height="185.44463"/>
  </clipPath>
 </defs>
</svg>
