<?xml version="1.0" encoding="utf-8" standalone="no"?>
<!DOCTYPE svg PUBLIC "-//W3C//DTD SVG 1.1//EN"
  "http://www.w3.org/Graphics/SVG/1.1/DTD/svg11.dtd">
<svg xmlns:xlink="http://www.w3.org/1999/xlink" width="504pt" height="288pt" viewBox="0 0 504 288" xmlns="http://www.w3.org/2000/svg" version="1.1">
 <metadata>
  <rdf:RDF xmlns:dc="http://purl.org/dc/elements/1.1/" xmlns:cc="http://creativecommons.org/ns#" xmlns:rdf="http://www.w3.org/1999/02/22-rdf-syntax-ns#">
   <cc:Work>
    <dc:type rdf:resource="http://purl.org/dc/dcmitype/StillImage"/>
    <dc:date>2026-05-13T20:14:21.022366</dc:date>
    <dc:format>image/svg+xml</dc:format>
    <dc:creator>
     <cc:Agent>
      <dc:title>Matplotlib v3.10.7, https://matplotlib.org/</dc:title>
     </cc:Agent>
    </dc:creator>
   </cc:Work>
  </rdf:RDF>
 </metadata>
 <defs>
  <style type="text/css">*{stroke-linejoin: round; stroke-linecap: butt}</style>
 </defs>
 <g id="figure_1">
  <g id="patch_1">
   <path d="M 0 288 
L 504 288 
L 504 0 
L 0 0 
z
" style="fill: #ffffff"/>
  </g>
  <g id="axes_1">
   <g id="patch_2">
    <path d="M 60.32 243.16 
L 493.2 243.16 
L 493.2 26.88 
L 60.32 26.88 
z
" style="fill: #ffffff"/>
   </g>
   <g id="patch_3">
    <path clip-path="url(#p528b8abdbc)" style="fill: none; stroke: #cd5c5c; stroke-width: 2; stroke-linejoin: miter"/>
   </g>
   <g id="patch_4">
    <path clip-path="url(#p528b8abdbc)" style="fill: none; stroke: #ee82ee; stroke-width: 2; stroke-linejoin: miter"/>
   </g>
   <g id="matplotlib.axis_1">
    <g id="xtick_1">
     <g id="line2d_1">
      <defs>
       <path id="m037db62081" d="M 0 0 
L 0 3.5 
" style="stroke: #000000; stroke-width: 0.8"/>
      </defs>
      <g>
       <use xlink:href="#m037db62081" x="79.996364" y="243.16" style="stroke: #000000; stroke-width: 0.8"/>
      </g>
     </g>
     <g id="text_1">
      <!-- 0.0 -->
      <g transform="translate(72.044801 257.758438) scale(0.1 -0.1)">
       <defs>
        <path id="DejaVuSans-30" d="M 2034 4250 
Q 1547 4250 1301 3770 
Q 1056 3291 1056 2328 
Q 1056 1369 1301 889 
Q 1547 409 2034 409 
Q 2525 409 2770 889 
Q 3016 1369 3016 2328 
Q 3016 3291 2770 3770 
Q 2525 4250 2034 4250 
z
M 2034 4750 
Q 2819 4750 3233 4129 
Q 3647 3509 3647 2328 
Q 3647 1150 3233 529 
Q 2819 -91 2034 -91 
Q 1250 -91 836 529 
Q 422 1150 422 2328 
Q 422 3509 836 4129 
Q 1250 4750 2034 4750 
z
" transform="scale(0.015625)"/>
        <path id="DejaVuSans-2e" d="M 684 794 
L 1344 794 
L 1344 0 
L 684 0 
L 684 794 
z
" transform="scale(0.015625)"/>
       </defs>
       <use xlink:href="#DejaVuSans-30"/>
       <use xlink:href="#DejaVuSans-2e" transform="translate(63.623047 0)"/>
       <use xlink:href="#DejaVuSans-30" transform="translate(95.410156 0)"/>
      </g>
     </g>
    </g>
    <g id="xtick_2">
     <g id="line2d_2">
      <g>
       <use xlink:href="#m037db62081" x="119.349091" y="243.16" style="stroke: #000000; stroke-width: 0.8"/>
      </g>
     </g>
     <g id="text_2">
      <!-- 0.1 -->
      <g transform="translate(111.397528 257.758438) scale(0.1 -0.1)">
       <defs>
        <path id="DejaVuSans-31" d="M 794 531 
L 1825 531 
L 1825 4091 
L 703 3866 
L 703 4441 
L 1819 4666 
L 2450 4666 
L 2450 531 
L 3481 531 
L 3481 0 
L 794 0 
L 794 531 
z
" transform="scale(0.015625)"/>
       </defs>
       <use xlink:href="#DejaVuSans-30"/>
       <use xlink:href="#DejaVuSans-2e" transform="translate(63.623047 0)"/>
       <use xlink:href="#DejaVuSans-31" transform="translate(95.410156 0)"/>
      </g>
     </g>
    </g>
    <g id="xtick_3">
     <g id="line2d_3">
      <g>
       <use xlink:href="#m037db62081" x="158.701818" y="243.16" style="stroke: #000000; stroke-width: 0.8"/>
      </g>
     </g>
     <g id="text_3">
      <!-- 0.2 -->
      <g transform="translate(150.750256 257.758438) scale(0.1 -0.1)">
       <defs>
        <path id="DejaVuSans-32" d="M 1228 531 
L 3431 531 
L 3431 0 
L 469 0 
L 469 531 
Q 828 903 1448 1529 
Q 2069 2156 2228 2338 
Q 2531 2678 2651 2914 
Q 2772 3150 2772 3378 
Q 2772 3750 2511 3984 
Q 2250 4219 1831 4219 
Q 1534 4219 1204 4116 
Q 875 4013 500 3803 
L 500 4441 
Q 881 4594 1212 4672 
Q 1544 4750 1819 4750 
Q 2544 4750 2975 4387 
Q 3406 4025 3406 3419 
Q 3406 3131 3298 2873 
Q 3191 2616 2906 2266 
Q 2828 2175 2409 1742 
Q 1991 1309 1228 531 
z
" transform="scale(0.015625)"/>
       </defs>
       <use xlink:href="#DejaVuSans-30"/>
       <use xlink:href="#DejaVuSans-2e" transform="translate(63.623047 0)"/>
       <use xlink:href="#DejaVuSans-32" transform="translate(95.410156 0)"/>
      </g>
     </g>
    </g>
    <g id="xtick_4">
     <g id="line2d_4">
      <g>
       <use xlink:href="#m037db62081" x="198.054545" y="243.16" style="stroke: #000000; stroke-width: 0.8"/>
      </g>
     </g>
     <g id="text_4">
      <!-- 0.3 -->
      <g transform="translate(190.102983 257.758438) scale(0.1 -0.1)">
       <defs>
        <path id="DejaVuSans-33" d="M 2597 2516 
Q 3050 2419 3304 2112 
Q 3559 1806 3559 1356 
Q 3559 666 3084 287 
Q 2609 -91 1734 -91 
Q 1441 -91 1130 -33 
Q 819 25 488 141 
L 488 750 
Q 750 597 1062 519 
Q 1375 441 1716 441 
Q 2309 441 2620 675 
Q 2931 909 2931 1356 
Q 2931 1769 2642 2001 
Q 2353 2234 1838 2234 
L 1294 2234 
L 1294 2753 
L 1863 2753 
Q 2328 2753 2575 2939 
Q 2822 3125 2822 3475 
Q 2822 3834 2567 4026 
Q 2313 4219 1838 4219 
Q 1578 4219 1281 4162 
Q 984 4106 628 3988 
L 628 4550 
Q 988 4650 1302 4700 
Q 1616 4750 1894 4750 
Q 2613 4750 3031 4423 
Q 3450 4097 3450 3541 
Q 3450 3153 3228 2886 
Q 3006 2619 2597 2516 
z
" transform="scale(0.015625)"/>
       </defs>
       <use xlink:href="#DejaVuSans-30"/>
       <use xlink:href="#DejaVuSans-2e" transform="translate(63.623047 0)"/>
       <use xlink:href="#DejaVuSans-33" transform="translate(95.410156 0)"/>
      </g>
     </g>
    </g>
    <g id="xtick_5">
     <g id="line2d_5">
      <g>
       <use xlink:href="#m037db62081" x="237.407273" y="243.16" style="stroke: #000000; stroke-width: 0.8"/>
      </g>
     </g>
     <g id="text_5">
      <!-- 0.4 -->
      <g transform="translate(229.45571 257.758438) scale(0.1 -0.1)">
       <defs>
        <path id="DejaVuSans-34" d="M 2419 4116 
L 825 1625 
L 2419 1625 
L 2419 4116 
z
M 2253 4666 
L 3047 4666 
L 3047 1625 
L 3713 1625 
L 3713 1100 
L 3047 1100 
L 3047 0 
L 2419 0 
L 2419 1100 
L 313 1100 
L 313 1709 
L 2253 4666 
z
" transform="scale(0.015625)"/>
       </defs>
       <use xlink:href="#DejaVuSans-30"/>
       <use xlink:href="#DejaVuSans-2e" transform="translate(63.623047 0)"/>
       <use xlink:href="#DejaVuSans-34" transform="translate(95.410156 0)"/>
      </g>
     </g>
    </g>
    <g id="xtick_6">
     <g id="line2d_6">
      <g>
       <use xlink:href="#m037db62081" x="276.76" y="243.16" style="stroke: #000000; stroke-width: 0.8"/>
      </g>
     </g>
     <g id="text_6">
      <!-- 0.5 -->
      <g transform="translate(268.808437 257.758438) scale(0.1 -0.1)">
       <defs>
        <path id="DejaVuSans-35" d="M 691 4666 
L 3169 4666 
L 3169 4134 
L 1269 4134 
L 1269 2991 
Q 1406 3038 1543 3061 
Q 1681 3084 1819 3084 
Q 2600 3084 3056 2656 
Q 3513 2228 3513 1497 
Q 3513 744 3044 326 
Q 2575 -91 1722 -91 
Q 1428 -91 1123 -41 
Q 819 9 494 109 
L 494 744 
Q 775 591 1075 516 
Q 1375 441 1709 441 
Q 2250 441 2565 725 
Q 2881 1009 2881 1497 
Q 2881 1984 2565 2268 
Q 2250 2553 1709 2553 
Q 1456 2553 1204 2497 
Q 953 2441 691 2322 
L 691 4666 
z
" transform="scale(0.015625)"/>
       </defs>
       <use xlink:href="#DejaVuSans-30"/>
       <use xlink:href="#DejaVuSans-2e" transform="translate(63.623047 0)"/>
       <use xlink:href="#DejaVuSans-35" transform="translate(95.410156 0)"/>
      </g>
     </g>
    </g>
    <g id="xtick_7">
     <g id="line2d_7">
      <g>
       <use xlink:href="#m037db62081" x="316.112727" y="243.16" style="stroke: #000000; stroke-width: 0.8"/>
      </g>
     </g>
     <g id="text_7">
      <!-- 0.6 -->
      <g transform="translate(308.161165 257.758438) scale(0.1 -0.1)">
       <defs>
        <path id="DejaVuSans-36" d="M 2113 2584 
Q 1688 2584 1439 2293 
Q 1191 2003 1191 1497 
Q 1191 994 1439 701 
Q 1688 409 2113 409 
Q 2538 409 2786 701 
Q 3034 994 3034 1497 
Q 3034 2003 2786 2293 
Q 2538 2584 2113 2584 
z
M 3366 4563 
L 3366 3988 
Q 3128 4100 2886 4159 
Q 2644 4219 2406 4219 
Q 1781 4219 1451 3797 
Q 1122 3375 1075 2522 
Q 1259 2794 1537 2939 
Q 1816 3084 2150 3084 
Q 2853 3084 3261 2657 
Q 3669 2231 3669 1497 
Q 3669 778 3244 343 
Q 2819 -91 2113 -91 
Q 1303 -91 875 529 
Q 447 1150 447 2328 
Q 447 3434 972 4092 
Q 1497 4750 2381 4750 
Q 2619 4750 2861 4703 
Q 3103 4656 3366 4563 
z
" transform="scale(0.015625)"/>
       </defs>
       <use xlink:href="#DejaVuSans-30"/>
       <use xlink:href="#DejaVuSans-2e" transform="translate(63.623047 0)"/>
       <use xlink:href="#DejaVuSans-36" transform="translate(95.410156 0)"/>
      </g>
     </g>
    </g>
    <g id="xtick_8">
     <g id="line2d_8">
      <g>
       <use xlink:href="#m037db62081" x="355.465455" y="243.16" style="stroke: #000000; stroke-width: 0.8"/>
      </g>
     </g>
     <g id="text_8">
      <!-- 0.7 -->
      <g transform="translate(347.513892 257.758438) scale(0.1 -0.1)">
       <defs>
        <path id="DejaVuSans-37" d="M 525 4666 
L 3525 4666 
L 3525 4397 
L 1831 0 
L 1172 0 
L 2766 4134 
L 525 4134 
L 525 4666 
z
" transform="scale(0.015625)"/>
       </defs>
       <use xlink:href="#DejaVuSans-30"/>
       <use xlink:href="#DejaVuSans-2e" transform="translate(63.623047 0)"/>
       <use xlink:href="#DejaVuSans-37" transform="translate(95.410156 0)"/>
      </g>
     </g>
    </g>
    <g id="xtick_9">
     <g id="line2d_9">
      <g>
       <use xlink:href="#m037db62081" x="394.818182" y="243.16" style="stroke: #000000; stroke-width: 0.8"/>
      </g>
     </g>
     <g id="text_9">
      <!-- 0.8 -->
      <g transform="translate(386.866619 257.758438) scale(0.1 -0.1)">
       <defs>
        <path id="DejaVuSans-38" d="M 2034 2216 
Q 1584 2216 1326 1975 
Q 1069 1734 1069 1313 
Q 1069 891 1326 650 
Q 1584 409 2034 409 
Q 2484 409 2743 651 
Q 3003 894 3003 1313 
Q 3003 1734 2745 1975 
Q 2488 2216 2034 2216 
z
M 1403 2484 
Q 997 2584 770 2862 
Q 544 3141 544 3541 
Q 544 4100 942 4425 
Q 1341 4750 2034 4750 
Q 2731 4750 3128 4425 
Q 3525 4100 3525 3541 
Q 3525 3141 3298 2862 
Q 3072 2584 2669 2484 
Q 3125 2378 3379 2068 
Q 3634 1759 3634 1313 
Q 3634 634 3220 271 
Q 2806 -91 2034 -91 
Q 1263 -91 848 271 
Q 434 634 434 1313 
Q 434 1759 690 2068 
Q 947 2378 1403 2484 
z
M 1172 3481 
Q 1172 3119 1398 2916 
Q 1625 2713 2034 2713 
Q 2441 2713 2670 2916 
Q 2900 3119 2900 3481 
Q 2900 3844 2670 4047 
Q 2441 4250 2034 4250 
Q 1625 4250 1398 4047 
Q 1172 3844 1172 3481 
z
" transform="scale(0.015625)"/>
       </defs>
       <use xlink:href="#DejaVuSans-30"/>
       <use xlink:href="#DejaVuSans-2e" transform="translate(63.623047 0)"/>
       <use xlink:href="#DejaVuSans-38" transform="translate(95.410156 0)"/>
      </g>
     </g>
    </g>
    <g id="xtick_10">
     <g id="line2d_10">
      <g>
       <use xlink:href="#m037db62081" x="434.170909" y="243.16" style="stroke: #000000; stroke-width: 0.8"/>
      </g>
     </g>
     <g id="text_10">
      <!-- 0.9 -->
      <g transform="translate(426.219347 257.758438) scale(0.1 -0.1)">
       <defs>
        <path id="DejaVuSans-39" d="M 703 97 
L 703 672 
Q 941 559 1184 500 
Q 1428 441 1663 441 
Q 2288 441 2617 861 
Q 2947 1281 2994 2138 
Q 2813 1869 2534 1725 
Q 2256 1581 1919 1581 
Q 1219 1581 811 2004 
Q 403 2428 403 3163 
Q 403 3881 828 4315 
Q 1253 4750 1959 4750 
Q 2769 4750 3195 4129 
Q 3622 3509 3622 2328 
Q 3622 1225 3098 567 
Q 2575 -91 1691 -91 
Q 1453 -91 1209 -44 
Q 966 3 703 97 
z
M 1959 2075 
Q 2384 2075 2632 2365 
Q 2881 2656 2881 3163 
Q 2881 3666 2632 3958 
Q 2384 4250 1959 4250 
Q 1534 4250 1286 3958 
Q 1038 3666 1038 3163 
Q 1038 2656 1286 2365 
Q 1534 2075 1959 2075 
z
" transform="scale(0.015625)"/>
       </defs>
       <use xlink:href="#DejaVuSans-30"/>
       <use xlink:href="#DejaVuSans-2e" transform="translate(63.623047 0)"/>
       <use xlink:href="#DejaVuSans-39" transform="translate(95.410156 0)"/>
      </g>
     </g>
    </g>
    <g id="xtick_11">
     <g id="line2d_11">
      <g>
       <use xlink:href="#m037db62081" x="473.523636" y="243.16" style="stroke: #000000; stroke-width: 0.8"/>
      </g>
     </g>
     <g id="text_11">
      <!-- 1.0 -->
      <g transform="translate(465.572074 257.758438) scale(0.1 -0.1)">
       <use xlink:href="#DejaVuSans-31"/>
       <use xlink:href="#DejaVuSans-2e" transform="translate(63.623047 0)"/>
       <use xlink:href="#DejaVuSans-30" transform="translate(95.410156 0)"/>
      </g>
     </g>
    </g>
    <g id="text_12">
     <!-- Proportion of $\it{E. coli}$ K12 MG1655 strain in the mixture -->
     <g transform="translate(141.86 271.438125) scale(0.1 -0.1)">
      <defs>
       <path id="DejaVuSans-50" d="M 1259 4147 
L 1259 2394 
L 2053 2394 
Q 2494 2394 2734 2622 
Q 2975 2850 2975 3272 
Q 2975 3691 2734 3919 
Q 2494 4147 2053 4147 
L 1259 4147 
z
M 628 4666 
L 2053 4666 
Q 2838 4666 3239 4311 
Q 3641 3956 3641 3272 
Q 3641 2581 3239 2228 
Q 2838 1875 2053 1875 
L 1259 1875 
L 1259 0 
L 628 0 
L 628 4666 
z
" transform="scale(0.015625)"/>
       <path id="DejaVuSans-72" d="M 2631 2963 
Q 2534 3019 2420 3045 
Q 2306 3072 2169 3072 
Q 1681 3072 1420 2755 
Q 1159 2438 1159 1844 
L 1159 0 
L 581 0 
L 581 3500 
L 1159 3500 
L 1159 2956 
Q 1341 3275 1631 3429 
Q 1922 3584 2338 3584 
Q 2397 3584 2469 3576 
Q 2541 3569 2628 3553 
L 2631 2963 
z
" transform="scale(0.015625)"/>
       <path id="DejaVuSans-6f" d="M 1959 3097 
Q 1497 3097 1228 2736 
Q 959 2375 959 1747 
Q 959 1119 1226 758 
Q 1494 397 1959 397 
Q 2419 397 2687 759 
Q 2956 1122 2956 1747 
Q 2956 2369 2687 2733 
Q 2419 3097 1959 3097 
z
M 1959 3584 
Q 2709 3584 3137 3096 
Q 3566 2609 3566 1747 
Q 3566 888 3137 398 
Q 2709 -91 1959 -91 
Q 1206 -91 779 398 
Q 353 888 353 1747 
Q 353 2609 779 3096 
Q 1206 3584 1959 3584 
z
" transform="scale(0.015625)"/>
       <path id="DejaVuSans-70" d="M 1159 525 
L 1159 -1331 
L 581 -1331 
L 581 3500 
L 1159 3500 
L 1159 2969 
Q 1341 3281 1617 3432 
Q 1894 3584 2278 3584 
Q 2916 3584 3314 3078 
Q 3713 2572 3713 1747 
Q 3713 922 3314 415 
Q 2916 -91 2278 -91 
Q 1894 -91 1617 61 
Q 1341 213 1159 525 
z
M 3116 1747 
Q 3116 2381 2855 2742 
Q 2594 3103 2138 3103 
Q 1681 3103 1420 2742 
Q 1159 2381 1159 1747 
Q 1159 1113 1420 752 
Q 1681 391 2138 391 
Q 2594 391 2855 752 
Q 3116 1113 3116 1747 
z
" transform="scale(0.015625)"/>
       <path id="DejaVuSans-74" d="M 1172 4494 
L 1172 3500 
L 2356 3500 
L 2356 3053 
L 1172 3053 
L 1172 1153 
Q 1172 725 1289 603 
Q 1406 481 1766 481 
L 2356 481 
L 2356 0 
L 1766 0 
Q 1100 0 847 248 
Q 594 497 594 1153 
L 594 3053 
L 172 3053 
L 172 3500 
L 594 3500 
L 594 4494 
L 1172 4494 
z
" transform="scale(0.015625)"/>
       <path id="DejaVuSans-69" d="M 603 3500 
L 1178 3500 
L 1178 0 
L 603 0 
L 603 3500 
z
M 603 4863 
L 1178 4863 
L 1178 4134 
L 603 4134 
L 603 4863 
z
" transform="scale(0.015625)"/>
       <path id="DejaVuSans-6e" d="M 3513 2113 
L 3513 0 
L 2938 0 
L 2938 2094 
Q 2938 2591 2744 2837 
Q 2550 3084 2163 3084 
Q 1697 3084 1428 2787 
Q 1159 2491 1159 1978 
L 1159 0 
L 581 0 
L 581 3500 
L 1159 3500 
L 1159 2956 
Q 1366 3272 1645 3428 
Q 1925 3584 2291 3584 
Q 2894 3584 3203 3211 
Q 3513 2838 3513 2113 
z
" transform="scale(0.015625)"/>
       <path id="DejaVuSans-20" transform="scale(0.015625)"/>
       <path id="DejaVuSans-66" d="M 2375 4863 
L 2375 4384 
L 1825 4384 
Q 1516 4384 1395 4259 
Q 1275 4134 1275 3809 
L 1275 3500 
L 2222 3500 
L 2222 3053 
L 1275 3053 
L 1275 0 
L 697 0 
L 697 3053 
L 147 3053 
L 147 3500 
L 697 3500 
L 697 3744 
Q 697 4328 969 4595 
Q 1241 4863 1831 4863 
L 2375 4863 
z
" transform="scale(0.015625)"/>
       <path id="DejaVuSans-Oblique-45" d="M 1081 4666 
L 4031 4666 
L 3928 4134 
L 1606 4134 
L 1338 2753 
L 3566 2753 
L 3463 2222 
L 1234 2222 
L 909 531 
L 3284 531 
L 3181 0 
L 172 0 
L 1081 4666 
z
" transform="scale(0.015625)"/>
       <path id="DejaVuSans-Oblique-63" d="M 3431 3366 
L 3316 2797 
Q 3109 2947 2876 3022 
Q 2644 3097 2394 3097 
Q 2119 3097 1870 3000 
Q 1622 2903 1453 2725 
Q 1184 2453 1037 2087 
Q 891 1722 891 1331 
Q 891 859 1127 628 
Q 1363 397 1844 397 
Q 2081 397 2348 469 
Q 2616 541 2906 684 
L 2797 116 
Q 2547 13 2283 -39 
Q 2019 -91 1741 -91 
Q 1044 -91 669 257 
Q 294 606 294 1253 
Q 294 1797 489 2255 
Q 684 2713 1069 3078 
Q 1331 3328 1684 3456 
Q 2038 3584 2456 3584 
Q 2700 3584 2940 3529 
Q 3181 3475 3431 3366 
z
" transform="scale(0.015625)"/>
       <path id="DejaVuSans-Oblique-6f" d="M 1625 -91 
Q 1009 -91 651 289 
Q 294 669 294 1325 
Q 294 1706 417 2101 
Q 541 2497 738 2766 
Q 1047 3184 1428 3384 
Q 1809 3584 2291 3584 
Q 2888 3584 3255 3212 
Q 3622 2841 3622 2241 
Q 3622 1825 3500 1412 
Q 3378 1000 3181 728 
Q 2875 309 2494 109 
Q 2113 -91 1625 -91 
z
M 891 1344 
Q 891 869 1089 633 
Q 1288 397 1691 397 
Q 2269 397 2648 901 
Q 3028 1406 3028 2181 
Q 3028 2634 2825 2865 
Q 2622 3097 2228 3097 
Q 1903 3097 1650 2945 
Q 1397 2794 1197 2484 
Q 1050 2253 970 1956 
Q 891 1659 891 1344 
z
" transform="scale(0.015625)"/>
       <path id="DejaVuSans-Oblique-6c" d="M 1172 4863 
L 1747 4863 
L 800 0 
L 225 0 
L 1172 4863 
z
" transform="scale(0.015625)"/>
       <path id="DejaVuSans-Oblique-69" d="M 1172 4863 
L 1747 4863 
L 1606 4134 
L 1031 4134 
L 1172 4863 
z
M 909 3500 
L 1484 3500 
L 800 0 
L 225 0 
L 909 3500 
z
" transform="scale(0.015625)"/>
       <path id="DejaVuSans-4b" d="M 628 4666 
L 1259 4666 
L 1259 2694 
L 3353 4666 
L 4166 4666 
L 1850 2491 
L 4331 0 
L 3500 0 
L 1259 2247 
L 1259 0 
L 628 0 
L 628 4666 
z
" transform="scale(0.015625)"/>
       <path id="DejaVuSans-4d" d="M 628 4666 
L 1569 4666 
L 2759 1491 
L 3956 4666 
L 4897 4666 
L 4897 0 
L 4281 0 
L 4281 4097 
L 3078 897 
L 2444 897 
L 1241 4097 
L 1241 0 
L 628 0 
L 628 4666 
z
" transform="scale(0.015625)"/>
       <path id="DejaVuSans-47" d="M 3809 666 
L 3809 1919 
L 2778 1919 
L 2778 2438 
L 4434 2438 
L 4434 434 
Q 4069 175 3628 42 
Q 3188 -91 2688 -91 
Q 1594 -91 976 548 
Q 359 1188 359 2328 
Q 359 3472 976 4111 
Q 1594 4750 2688 4750 
Q 3144 4750 3555 4637 
Q 3966 4525 4313 4306 
L 4313 3634 
Q 3963 3931 3569 4081 
Q 3175 4231 2741 4231 
Q 1884 4231 1454 3753 
Q 1025 3275 1025 2328 
Q 1025 1384 1454 906 
Q 1884 428 2741 428 
Q 3075 428 3337 486 
Q 3600 544 3809 666 
z
" transform="scale(0.015625)"/>
       <path id="DejaVuSans-73" d="M 2834 3397 
L 2834 2853 
Q 2591 2978 2328 3040 
Q 2066 3103 1784 3103 
Q 1356 3103 1142 2972 
Q 928 2841 928 2578 
Q 928 2378 1081 2264 
Q 1234 2150 1697 2047 
L 1894 2003 
Q 2506 1872 2764 1633 
Q 3022 1394 3022 966 
Q 3022 478 2636 193 
Q 2250 -91 1575 -91 
Q 1294 -91 989 -36 
Q 684 19 347 128 
L 347 722 
Q 666 556 975 473 
Q 1284 391 1588 391 
Q 1994 391 2212 530 
Q 2431 669 2431 922 
Q 2431 1156 2273 1281 
Q 2116 1406 1581 1522 
L 1381 1569 
Q 847 1681 609 1914 
Q 372 2147 372 2553 
Q 372 3047 722 3315 
Q 1072 3584 1716 3584 
Q 2034 3584 2315 3537 
Q 2597 3491 2834 3397 
z
" transform="scale(0.015625)"/>
       <path id="DejaVuSans-61" d="M 2194 1759 
Q 1497 1759 1228 1600 
Q 959 1441 959 1056 
Q 959 750 1161 570 
Q 1363 391 1709 391 
Q 2188 391 2477 730 
Q 2766 1069 2766 1631 
L 2766 1759 
L 2194 1759 
z
M 3341 1997 
L 3341 0 
L 2766 0 
L 2766 531 
Q 2569 213 2275 61 
Q 1981 -91 1556 -91 
Q 1019 -91 701 211 
Q 384 513 384 1019 
Q 384 1609 779 1909 
Q 1175 2209 1959 2209 
L 2766 2209 
L 2766 2266 
Q 2766 2663 2505 2880 
Q 2244 3097 1772 3097 
Q 1472 3097 1187 3025 
Q 903 2953 641 2809 
L 641 3341 
Q 956 3463 1253 3523 
Q 1550 3584 1831 3584 
Q 2591 3584 2966 3190 
Q 3341 2797 3341 1997 
z
" transform="scale(0.015625)"/>
       <path id="DejaVuSans-68" d="M 3513 2113 
L 3513 0 
L 2938 0 
L 2938 2094 
Q 2938 2591 2744 2837 
Q 2550 3084 2163 3084 
Q 1697 3084 1428 2787 
Q 1159 2491 1159 1978 
L 1159 0 
L 581 0 
L 581 4863 
L 1159 4863 
L 1159 2956 
Q 1366 3272 1645 3428 
Q 1925 3584 2291 3584 
Q 2894 3584 3203 3211 
Q 3513 2838 3513 2113 
z
" transform="scale(0.015625)"/>
       <path id="DejaVuSans-65" d="M 3597 1894 
L 3597 1613 
L 953 1613 
Q 991 1019 1311 708 
Q 1631 397 2203 397 
Q 2534 397 2845 478 
Q 3156 559 3463 722 
L 3463 178 
Q 3153 47 2828 -22 
Q 2503 -91 2169 -91 
Q 1331 -91 842 396 
Q 353 884 353 1716 
Q 353 2575 817 3079 
Q 1281 3584 2069 3584 
Q 2775 3584 3186 3129 
Q 3597 2675 3597 1894 
z
M 3022 2063 
Q 3016 2534 2758 2815 
Q 2500 3097 2075 3097 
Q 1594 3097 1305 2825 
Q 1016 2553 972 2059 
L 3022 2063 
z
" transform="scale(0.015625)"/>
       <path id="DejaVuSans-6d" d="M 3328 2828 
Q 3544 3216 3844 3400 
Q 4144 3584 4550 3584 
Q 5097 3584 5394 3201 
Q 5691 2819 5691 2113 
L 5691 0 
L 5113 0 
L 5113 2094 
Q 5113 2597 4934 2840 
Q 4756 3084 4391 3084 
Q 3944 3084 3684 2787 
Q 3425 2491 3425 1978 
L 3425 0 
L 2847 0 
L 2847 2094 
Q 2847 2600 2669 2842 
Q 2491 3084 2119 3084 
Q 1678 3084 1418 2786 
Q 1159 2488 1159 1978 
L 1159 0 
L 581 0 
L 581 3500 
L 1159 3500 
L 1159 2956 
Q 1356 3278 1631 3431 
Q 1906 3584 2284 3584 
Q 2666 3584 2933 3390 
Q 3200 3197 3328 2828 
z
" transform="scale(0.015625)"/>
       <path id="DejaVuSans-78" d="M 3513 3500 
L 2247 1797 
L 3578 0 
L 2900 0 
L 1881 1375 
L 863 0 
L 184 0 
L 1544 1831 
L 300 3500 
L 978 3500 
L 1906 2253 
L 2834 3500 
L 3513 3500 
z
" transform="scale(0.015625)"/>
       <path id="DejaVuSans-75" d="M 544 1381 
L 544 3500 
L 1119 3500 
L 1119 1403 
Q 1119 906 1312 657 
Q 1506 409 1894 409 
Q 2359 409 2629 706 
Q 2900 1003 2900 1516 
L 2900 3500 
L 3475 3500 
L 3475 0 
L 2900 0 
L 2900 538 
Q 2691 219 2414 64 
Q 2138 -91 1772 -91 
Q 1169 -91 856 284 
Q 544 659 544 1381 
z
M 1991 3584 
L 1991 3584 
z
" transform="scale(0.015625)"/>
      </defs>
      <use xlink:href="#DejaVuSans-50" transform="translate(0 0.015625)"/>
      <use xlink:href="#DejaVuSans-72" transform="translate(60.302734 0.015625)"/>
      <use xlink:href="#DejaVuSans-6f" transform="translate(101.416016 0.015625)"/>
      <use xlink:href="#DejaVuSans-70" transform="translate(162.597656 0.015625)"/>
      <use xlink:href="#DejaVuSans-6f" transform="translate(226.074219 0.015625)"/>
      <use xlink:href="#DejaVuSans-72" transform="translate(287.255859 0.015625)"/>
      <use xlink:href="#DejaVuSans-74" transform="translate(328.369141 0.015625)"/>
      <use xlink:href="#DejaVuSans-69" transform="translate(367.578125 0.015625)"/>
      <use xlink:href="#DejaVuSans-6f" transform="translate(395.361328 0.015625)"/>
      <use xlink:href="#DejaVuSans-6e" transform="translate(456.542969 0.015625)"/>
      <use xlink:href="#DejaVuSans-20" transform="translate(519.921875 0.015625)"/>
      <use xlink:href="#DejaVuSans-6f" transform="translate(551.708984 0.015625)"/>
      <use xlink:href="#DejaVuSans-66" transform="translate(612.890625 0.015625)"/>
      <use xlink:href="#DejaVuSans-20" transform="translate(648.095703 0.015625)"/>
      <use xlink:href="#DejaVuSans-Oblique-45" transform="translate(679.882812 0.015625)"/>
      <use xlink:href="#DejaVuSans-2e" transform="translate(743.066406 0.015625)"/>
      <use xlink:href="#DejaVuSans-Oblique-63" transform="translate(794.335938 0.015625)"/>
      <use xlink:href="#DejaVuSans-Oblique-6f" transform="translate(849.316406 0.015625)"/>
      <use xlink:href="#DejaVuSans-Oblique-6c" transform="translate(910.498047 0.015625)"/>
      <use xlink:href="#DejaVuSans-Oblique-69" transform="translate(938.28125 0.015625)"/>
      <use xlink:href="#DejaVuSans-20" transform="translate(966.064453 0.015625)"/>
      <use xlink:href="#DejaVuSans-4b" transform="translate(997.851562 0.015625)"/>
      <use xlink:href="#DejaVuSans-31" transform="translate(1063.427734 0.015625)"/>
      <use xlink:href="#DejaVuSans-32" transform="translate(1127.050781 0.015625)"/>
      <use xlink:href="#DejaVuSans-20" transform="translate(1190.673828 0.015625)"/>
      <use xlink:href="#DejaVuSans-4d" transform="translate(1222.460938 0.015625)"/>
      <use xlink:href="#DejaVuSans-47" transform="translate(1308.740234 0.015625)"/>
      <use xlink:href="#DejaVuSans-31" transform="translate(1386.230469 0.015625)"/>
      <use xlink:href="#DejaVuSans-36" transform="translate(1449.853516 0.015625)"/>
      <use xlink:href="#DejaVuSans-35" transform="translate(1513.476562 0.015625)"/>
      <use xlink:href="#DejaVuSans-35" transform="translate(1577.099609 0.015625)"/>
      <use xlink:href="#DejaVuSans-20" transform="translate(1640.722656 0.015625)"/>
      <use xlink:href="#DejaVuSans-73" transform="translate(1672.509766 0.015625)"/>
      <use xlink:href="#DejaVuSans-74" transform="translate(1724.609375 0.015625)"/>
      <use xlink:href="#DejaVuSans-72" transform="translate(1763.818359 0.015625)"/>
      <use xlink:href="#DejaVuSans-61" transform="translate(1804.931641 0.015625)"/>
      <use xlink:href="#DejaVuSans-69" transform="translate(1866.210938 0.015625)"/>
      <use xlink:href="#DejaVuSans-6e" transform="translate(1893.994141 0.015625)"/>
      <use xlink:href="#DejaVuSans-20" transform="translate(1957.373047 0.015625)"/>
      <use xlink:href="#DejaVuSans-69" transform="translate(1989.160156 0.015625)"/>
      <use xlink:href="#DejaVuSans-6e" transform="translate(2016.943359 0.015625)"/>
      <use xlink:href="#DejaVuSans-20" transform="translate(2080.322266 0.015625)"/>
      <use xlink:href="#DejaVuSans-74" transform="translate(2112.109375 0.015625)"/>
      <use xlink:href="#DejaVuSans-68" transform="translate(2151.318359 0.015625)"/>
      <use xlink:href="#DejaVuSans-65" transform="translate(2214.697266 0.015625)"/>
      <use xlink:href="#DejaVuSans-20" transform="translate(2276.220703 0.015625)"/>
      <use xlink:href="#DejaVuSans-6d" transform="translate(2308.007812 0.015625)"/>
      <use xlink:href="#DejaVuSans-69" transform="translate(2405.419922 0.015625)"/>
      <use xlink:href="#DejaVuSans-78" transform="translate(2433.203125 0.015625)"/>
      <use xlink:href="#DejaVuSans-74" transform="translate(2492.382812 0.015625)"/>
      <use xlink:href="#DejaVuSans-75" transform="translate(2531.591797 0.015625)"/>
      <use xlink:href="#DejaVuSans-72" transform="translate(2594.970703 0.015625)"/>
      <use xlink:href="#DejaVuSans-65" transform="translate(2636.083984 0.015625)"/>
     </g>
    </g>
   </g>
   <g id="matplotlib.axis_2">
    <g id="ytick_1">
     <g id="line2d_12">
      <defs>
       <path id="m32ffa8b7ea" d="M 0 0 
L -3.5 0 
" style="stroke: #000000; stroke-width: 0.8"/>
      </defs>
      <g>
       <use xlink:href="#m32ffa8b7ea" x="60.32" y="238.00749" style="stroke: #000000; stroke-width: 0.8"/>
      </g>
     </g>
     <g id="text_13">
      <!-- 0.038 -->
      <g transform="translate(24.691875 241.806709) scale(0.1 -0.1)">
       <use xlink:href="#DejaVuSans-30"/>
       <use xlink:href="#DejaVuSans-2e" transform="translate(63.623047 0)"/>
       <use xlink:href="#DejaVuSans-30" transform="translate(95.410156 0)"/>
       <use xlink:href="#DejaVuSans-33" transform="translate(159.033203 0)"/>
       <use xlink:href="#DejaVuSans-38" transform="translate(222.65625 0)"/>
      </g>
     </g>
    </g>
    <g id="ytick_2">
     <g id="line2d_13">
      <g>
       <use xlink:href="#m32ffa8b7ea" x="60.32" y="212.922241" style="stroke: #000000; stroke-width: 0.8"/>
      </g>
     </g>
     <g id="text_14">
      <!-- 0.040 -->
      <g transform="translate(24.691875 216.72146) scale(0.1 -0.1)">
       <use xlink:href="#DejaVuSans-30"/>
       <use xlink:href="#DejaVuSans-2e" transform="translate(63.623047 0)"/>
       <use xlink:href="#DejaVuSans-30" transform="translate(95.410156 0)"/>
       <use xlink:href="#DejaVuSans-34" transform="translate(159.033203 0)"/>
       <use xlink:href="#DejaVuSans-30" transform="translate(222.65625 0)"/>
      </g>
     </g>
    </g>
    <g id="ytick_3">
     <g id="line2d_14">
      <g>
       <use xlink:href="#m32ffa8b7ea" x="60.32" y="187.836992" style="stroke: #000000; stroke-width: 0.8"/>
      </g>
     </g>
     <g id="text_15">
      <!-- 0.042 -->
      <g transform="translate(24.691875 191.636211) scale(0.1 -0.1)">
       <use xlink:href="#DejaVuSans-30"/>
       <use xlink:href="#DejaVuSans-2e" transform="translate(63.623047 0)"/>
       <use xlink:href="#DejaVuSans-30" transform="translate(95.410156 0)"/>
       <use xlink:href="#DejaVuSans-34" transform="translate(159.033203 0)"/>
       <use xlink:href="#DejaVuSans-32" transform="translate(222.65625 0)"/>
      </g>
     </g>
    </g>
    <g id="ytick_4">
     <g id="line2d_15">
      <g>
       <use xlink:href="#m32ffa8b7ea" x="60.32" y="162.751743" style="stroke: #000000; stroke-width: 0.8"/>
      </g>
     </g>
     <g id="text_16">
      <!-- 0.044 -->
      <g transform="translate(24.691875 166.550962) scale(0.1 -0.1)">
       <use xlink:href="#DejaVuSans-30"/>
       <use xlink:href="#DejaVuSans-2e" transform="translate(63.623047 0)"/>
       <use xlink:href="#DejaVuSans-30" transform="translate(95.410156 0)"/>
       <use xlink:href="#DejaVuSans-34" transform="translate(159.033203 0)"/>
       <use xlink:href="#DejaVuSans-34" transform="translate(222.65625 0)"/>
      </g>
     </g>
    </g>
    <g id="ytick_5">
     <g id="line2d_16">
      <g>
       <use xlink:href="#m32ffa8b7ea" x="60.32" y="137.666494" style="stroke: #000000; stroke-width: 0.8"/>
      </g>
     </g>
     <g id="text_17">
      <!-- 0.046 -->
      <g transform="translate(24.691875 141.465713) scale(0.1 -0.1)">
       <use xlink:href="#DejaVuSans-30"/>
       <use xlink:href="#DejaVuSans-2e" transform="translate(63.623047 0)"/>
       <use xlink:href="#DejaVuSans-30" transform="translate(95.410156 0)"/>
       <use xlink:href="#DejaVuSans-34" transform="translate(159.033203 0)"/>
       <use xlink:href="#DejaVuSans-36" transform="translate(222.65625 0)"/>
      </g>
     </g>
    </g>
    <g id="ytick_6">
     <g id="line2d_17">
      <g>
       <use xlink:href="#m32ffa8b7ea" x="60.32" y="112.581245" style="stroke: #000000; stroke-width: 0.8"/>
      </g>
     </g>
     <g id="text_18">
      <!-- 0.048 -->
      <g transform="translate(24.691875 116.380464) scale(0.1 -0.1)">
       <use xlink:href="#DejaVuSans-30"/>
       <use xlink:href="#DejaVuSans-2e" transform="translate(63.623047 0)"/>
       <use xlink:href="#DejaVuSans-30" transform="translate(95.410156 0)"/>
       <use xlink:href="#DejaVuSans-34" transform="translate(159.033203 0)"/>
       <use xlink:href="#DejaVuSans-38" transform="translate(222.65625 0)"/>
      </g>
     </g>
    </g>
    <g id="ytick_7">
     <g id="line2d_18">
      <g>
       <use xlink:href="#m32ffa8b7ea" x="60.32" y="87.495996" style="stroke: #000000; stroke-width: 0.8"/>
      </g>
     </g>
     <g id="text_19">
      <!-- 0.050 -->
      <g transform="translate(24.691875 91.295214) scale(0.1 -0.1)">
       <use xlink:href="#DejaVuSans-30"/>
       <use xlink:href="#DejaVuSans-2e" transform="translate(63.623047 0)"/>
       <use xlink:href="#DejaVuSans-30" transform="translate(95.410156 0)"/>
       <use xlink:href="#DejaVuSans-35" transform="translate(159.033203 0)"/>
       <use xlink:href="#DejaVuSans-30" transform="translate(222.65625 0)"/>
      </g>
     </g>
    </g>
    <g id="ytick_8">
     <g id="line2d_19">
      <g>
       <use xlink:href="#m32ffa8b7ea" x="60.32" y="62.410747" style="stroke: #000000; stroke-width: 0.8"/>
      </g>
     </g>
     <g id="text_20">
      <!-- 0.052 -->
      <g transform="translate(24.691875 66.209965) scale(0.1 -0.1)">
       <use xlink:href="#DejaVuSans-30"/>
       <use xlink:href="#DejaVuSans-2e" transform="translate(63.623047 0)"/>
       <use xlink:href="#DejaVuSans-30" transform="translate(95.410156 0)"/>
       <use xlink:href="#DejaVuSans-35" transform="translate(159.033203 0)"/>
       <use xlink:href="#DejaVuSans-32" transform="translate(222.65625 0)"/>
      </g>
     </g>
    </g>
    <g id="ytick_9">
     <g id="line2d_20">
      <g>
       <use xlink:href="#m32ffa8b7ea" x="60.32" y="37.325498" style="stroke: #000000; stroke-width: 0.8"/>
      </g>
     </g>
     <g id="text_21">
      <!-- 0.054 -->
      <g transform="translate(24.691875 41.124716) scale(0.1 -0.1)">
       <use xlink:href="#DejaVuSans-30"/>
       <use xlink:href="#DejaVuSans-2e" transform="translate(63.623047 0)"/>
       <use xlink:href="#DejaVuSans-30" transform="translate(95.410156 0)"/>
       <use xlink:href="#DejaVuSans-35" transform="translate(159.033203 0)"/>
       <use xlink:href="#DejaVuSans-34" transform="translate(222.65625 0)"/>
      </g>
     </g>
    </g>
    <g id="text_22">
     <!-- Skiver estimated error rates -->
     <g transform="translate(18.612188 205.37625) rotate(-90) scale(0.1 -0.1)">
      <defs>
       <path id="DejaVuSans-53" d="M 3425 4513 
L 3425 3897 
Q 3066 4069 2747 4153 
Q 2428 4238 2131 4238 
Q 1616 4238 1336 4038 
Q 1056 3838 1056 3469 
Q 1056 3159 1242 3001 
Q 1428 2844 1947 2747 
L 2328 2669 
Q 3034 2534 3370 2195 
Q 3706 1856 3706 1288 
Q 3706 609 3251 259 
Q 2797 -91 1919 -91 
Q 1588 -91 1214 -16 
Q 841 59 441 206 
L 441 856 
Q 825 641 1194 531 
Q 1563 422 1919 422 
Q 2459 422 2753 634 
Q 3047 847 3047 1241 
Q 3047 1584 2836 1778 
Q 2625 1972 2144 2069 
L 1759 2144 
Q 1053 2284 737 2584 
Q 422 2884 422 3419 
Q 422 4038 858 4394 
Q 1294 4750 2059 4750 
Q 2388 4750 2728 4690 
Q 3069 4631 3425 4513 
z
" transform="scale(0.015625)"/>
       <path id="DejaVuSans-6b" d="M 581 4863 
L 1159 4863 
L 1159 1991 
L 2875 3500 
L 3609 3500 
L 1753 1863 
L 3688 0 
L 2938 0 
L 1159 1709 
L 1159 0 
L 581 0 
L 581 4863 
z
" transform="scale(0.015625)"/>
       <path id="DejaVuSans-76" d="M 191 3500 
L 800 3500 
L 1894 563 
L 2988 3500 
L 3597 3500 
L 2284 0 
L 1503 0 
L 191 3500 
z
" transform="scale(0.015625)"/>
       <path id="DejaVuSans-64" d="M 2906 2969 
L 2906 4863 
L 3481 4863 
L 3481 0 
L 2906 0 
L 2906 525 
Q 2725 213 2448 61 
Q 2172 -91 1784 -91 
Q 1150 -91 751 415 
Q 353 922 353 1747 
Q 353 2572 751 3078 
Q 1150 3584 1784 3584 
Q 2172 3584 2448 3432 
Q 2725 3281 2906 2969 
z
M 947 1747 
Q 947 1113 1208 752 
Q 1469 391 1925 391 
Q 2381 391 2643 752 
Q 2906 1113 2906 1747 
Q 2906 2381 2643 2742 
Q 2381 3103 1925 3103 
Q 1469 3103 1208 2742 
Q 947 2381 947 1747 
z
" transform="scale(0.015625)"/>
      </defs>
      <use xlink:href="#DejaVuSans-53"/>
      <use xlink:href="#DejaVuSans-6b" transform="translate(63.476562 0)"/>
      <use xlink:href="#DejaVuSans-69" transform="translate(121.386719 0)"/>
      <use xlink:href="#DejaVuSans-76" transform="translate(149.169922 0)"/>
      <use xlink:href="#DejaVuSans-65" transform="translate(208.349609 0)"/>
      <use xlink:href="#DejaVuSans-72" transform="translate(269.873047 0)"/>
      <use xlink:href="#DejaVuSans-20" transform="translate(310.986328 0)"/>
      <use xlink:href="#DejaVuSans-65" transform="translate(342.773438 0)"/>
      <use xlink:href="#DejaVuSans-73" transform="translate(404.296875 0)"/>
      <use xlink:href="#DejaVuSans-74" transform="translate(456.396484 0)"/>
      <use xlink:href="#DejaVuSans-69" transform="translate(495.605469 0)"/>
      <use xlink:href="#DejaVuSans-6d" transform="translate(523.388672 0)"/>
      <use xlink:href="#DejaVuSans-61" transform="translate(620.800781 0)"/>
      <use xlink:href="#DejaVuSans-74" transform="translate(682.080078 0)"/>
      <use xlink:href="#DejaVuSans-65" transform="translate(721.289062 0)"/>
      <use xlink:href="#DejaVuSans-64" transform="translate(782.8125 0)"/>
      <use xlink:href="#DejaVuSans-20" transform="translate(846.289062 0)"/>
      <use xlink:href="#DejaVuSans-65" transform="translate(878.076172 0)"/>
      <use xlink:href="#DejaVuSans-72" transform="translate(939.599609 0)"/>
      <use xlink:href="#DejaVuSans-72" transform="translate(978.962891 0)"/>
      <use xlink:href="#DejaVuSans-6f" transform="translate(1017.826172 0)"/>
      <use xlink:href="#DejaVuSans-72" transform="translate(1079.007812 0)"/>
      <use xlink:href="#DejaVuSans-20" transform="translate(1120.121094 0)"/>
      <use xlink:href="#DejaVuSans-72" transform="translate(1151.908203 0)"/>
      <use xlink:href="#DejaVuSans-61" transform="translate(1193.021484 0)"/>
      <use xlink:href="#DejaVuSans-74" transform="translate(1254.300781 0)"/>
      <use xlink:href="#DejaVuSans-65" transform="translate(1293.509766 0)"/>
      <use xlink:href="#DejaVuSans-73" transform="translate(1355.033203 0)"/>
     </g>
    </g>
   </g>
   <g id="line2d_21">
    <path d="M 71.142 198.799246 
L 79.012545 198.799246 
L 79.012545 192.578104 
L 71.142 192.578104 
L 71.142 198.799246 
" clip-path="url(#p528b8abdbc)" style="fill: none; stroke: #cd5c5c; stroke-width: 2; stroke-linecap: square"/>
   </g>
   <g id="line2d_22">
    <path d="M 75.077273 198.799246 
L 75.077273 201.809476 
" clip-path="url(#p528b8abdbc)" style="fill: none; stroke: #cd5c5c; stroke-width: 2"/>
   </g>
   <g id="line2d_23">
    <path d="M 75.077273 192.578104 
L 75.077273 189.028541 
" clip-path="url(#p528b8abdbc)" style="fill: none; stroke: #cd5c5c; stroke-width: 2"/>
   </g>
   <g id="line2d_24">
    <path d="M 73.109636 201.809476 
L 77.044909 201.809476 
" clip-path="url(#p528b8abdbc)" style="fill: none; stroke: #cd5c5c; stroke-width: 2; stroke-linecap: square"/>
   </g>
   <g id="line2d_25">
    <path d="M 73.109636 189.028541 
L 77.044909 189.028541 
" clip-path="url(#p528b8abdbc)" style="fill: none; stroke: #cd5c5c; stroke-width: 2; stroke-linecap: square"/>
   </g>
   <g id="line2d_26">
    <defs>
     <path id="m658991d241" d="M 0 3 
C 0.795609 3 1.55874 2.683901 2.12132 2.12132 
C 2.683901 1.55874 3 0.795609 3 0 
C 3 -0.795609 2.683901 -1.55874 2.12132 -2.12132 
C 1.55874 -2.683901 0.795609 -3 0 -3 
C -0.795609 -3 -1.55874 -2.683901 -2.12132 -2.12132 
C -2.683901 -1.55874 -3 -0.795609 -3 0 
C -3 0.795609 -2.683901 1.55874 -2.12132 2.12132 
C -1.55874 2.683901 -0.795609 3 0 3 
z
" style="stroke: #cd5c5c"/>
    </defs>
    <g clip-path="url(#p528b8abdbc)">
     <use xlink:href="#m658991d241" x="75.077273" y="215.807044" style="fill-opacity: 0; stroke: #cd5c5c"/>
    </g>
   </g>
   <g id="line2d_27">
    <path d="M 110.494727 188.012589 
L 118.365273 188.012589 
L 118.365273 178.60562 
L 110.494727 178.60562 
L 110.494727 188.012589 
" clip-path="url(#p528b8abdbc)" style="fill: none; stroke: #cd5c5c; stroke-width: 2; stroke-linecap: square"/>
   </g>
   <g id="line2d_28">
    <path d="M 114.43 188.012589 
L 114.43 198.222285 
" clip-path="url(#p528b8abdbc)" style="fill: none; stroke: #cd5c5c; stroke-width: 2"/>
   </g>
   <g id="line2d_29">
    <path d="M 114.43 178.60562 
L 114.43 172.961439 
" clip-path="url(#p528b8abdbc)" style="fill: none; stroke: #cd5c5c; stroke-width: 2"/>
   </g>
   <g id="line2d_30">
    <path d="M 112.462364 198.222285 
L 116.397636 198.222285 
" clip-path="url(#p528b8abdbc)" style="fill: none; stroke: #cd5c5c; stroke-width: 2; stroke-linecap: square"/>
   </g>
   <g id="line2d_31">
    <path d="M 112.462364 172.961439 
L 116.397636 172.961439 
" clip-path="url(#p528b8abdbc)" style="fill: none; stroke: #cd5c5c; stroke-width: 2; stroke-linecap: square"/>
   </g>
   <g id="line2d_32"/>
   <g id="line2d_33">
    <path d="M 149.847455 193.405917 
L 157.718 193.405917 
L 157.718 184.801677 
L 149.847455 184.801677 
L 149.847455 193.405917 
" clip-path="url(#p528b8abdbc)" style="fill: none; stroke: #cd5c5c; stroke-width: 2; stroke-linecap: square"/>
   </g>
   <g id="line2d_34">
    <path d="M 153.782727 193.405917 
L 153.782727 202.26101 
" clip-path="url(#p528b8abdbc)" style="fill: none; stroke: #cd5c5c; stroke-width: 2"/>
   </g>
   <g id="line2d_35">
    <path d="M 153.782727 184.801677 
L 153.782727 176.097095 
" clip-path="url(#p528b8abdbc)" style="fill: none; stroke: #cd5c5c; stroke-width: 2"/>
   </g>
   <g id="line2d_36">
    <path d="M 151.815091 202.26101 
L 155.750364 202.26101 
" clip-path="url(#p528b8abdbc)" style="fill: none; stroke: #cd5c5c; stroke-width: 2; stroke-linecap: square"/>
   </g>
   <g id="line2d_37">
    <path d="M 151.815091 176.097095 
L 155.750364 176.097095 
" clip-path="url(#p528b8abdbc)" style="fill: none; stroke: #cd5c5c; stroke-width: 2; stroke-linecap: square"/>
   </g>
   <g id="line2d_38"/>
   <g id="line2d_39">
    <path d="M 189.200182 208.896058 
L 197.070727 208.896058 
L 197.070727 195.651047 
L 189.200182 195.651047 
L 189.200182 208.896058 
" clip-path="url(#p528b8abdbc)" style="fill: none; stroke: #cd5c5c; stroke-width: 2; stroke-linecap: square"/>
   </g>
   <g id="line2d_40">
    <path d="M 193.135455 208.896058 
L 193.135455 219.306437 
" clip-path="url(#p528b8abdbc)" style="fill: none; stroke: #cd5c5c; stroke-width: 2"/>
   </g>
   <g id="line2d_41">
    <path d="M 193.135455 195.651047 
L 193.135455 192.402507 
" clip-path="url(#p528b8abdbc)" style="fill: none; stroke: #cd5c5c; stroke-width: 2"/>
   </g>
   <g id="line2d_42">
    <path d="M 191.167818 219.306437 
L 195.103091 219.306437 
" clip-path="url(#p528b8abdbc)" style="fill: none; stroke: #cd5c5c; stroke-width: 2; stroke-linecap: square"/>
   </g>
   <g id="line2d_43">
    <path d="M 191.167818 192.402507 
L 195.103091 192.402507 
" clip-path="url(#p528b8abdbc)" style="fill: none; stroke: #cd5c5c; stroke-width: 2; stroke-linecap: square"/>
   </g>
   <g id="line2d_44">
    <g clip-path="url(#p528b8abdbc)">
     <use xlink:href="#m658991d241" x="193.135455" y="233.329091" style="fill-opacity: 0; stroke: #cd5c5c"/>
     <use xlink:href="#m658991d241" x="193.135455" y="175.645561" style="fill-opacity: 0; stroke: #cd5c5c"/>
    </g>
   </g>
   <g id="line2d_45">
    <path d="M 228.552909 221.727163 
L 236.423455 221.727163 
L 236.423455 196.604286 
L 228.552909 196.604286 
L 228.552909 221.727163 
" clip-path="url(#p528b8abdbc)" style="fill: none; stroke: #cd5c5c; stroke-width: 2; stroke-linecap: square"/>
   </g>
   <g id="line2d_46">
    <path d="M 232.488182 221.727163 
L 232.488182 228.136444 
" clip-path="url(#p528b8abdbc)" style="fill: none; stroke: #cd5c5c; stroke-width: 2"/>
   </g>
   <g id="line2d_47">
    <path d="M 232.488182 196.604286 
L 232.488182 189.103797 
" clip-path="url(#p528b8abdbc)" style="fill: none; stroke: #cd5c5c; stroke-width: 2"/>
   </g>
   <g id="line2d_48">
    <path d="M 230.520545 228.136444 
L 234.455818 228.136444 
" clip-path="url(#p528b8abdbc)" style="fill: none; stroke: #cd5c5c; stroke-width: 2; stroke-linecap: square"/>
   </g>
   <g id="line2d_49">
    <path d="M 230.520545 189.103797 
L 234.455818 189.103797 
" clip-path="url(#p528b8abdbc)" style="fill: none; stroke: #cd5c5c; stroke-width: 2; stroke-linecap: square"/>
   </g>
   <g id="line2d_50"/>
   <g id="line2d_51">
    <path d="M 267.905636 216.722656 
L 275.776182 216.722656 
L 275.776182 203.164079 
L 267.905636 203.164079 
L 267.905636 216.722656 
" clip-path="url(#p528b8abdbc)" style="fill: none; stroke: #cd5c5c; stroke-width: 2; stroke-linecap: square"/>
   </g>
   <g id="line2d_52">
    <path d="M 271.840909 216.722656 
L 271.840909 224.348572 
" clip-path="url(#p528b8abdbc)" style="fill: none; stroke: #cd5c5c; stroke-width: 2"/>
   </g>
   <g id="line2d_53">
    <path d="M 271.840909 203.164079 
L 271.840909 201.169802 
" clip-path="url(#p528b8abdbc)" style="fill: none; stroke: #cd5c5c; stroke-width: 2"/>
   </g>
   <g id="line2d_54">
    <path d="M 269.873273 224.348572 
L 273.808545 224.348572 
" clip-path="url(#p528b8abdbc)" style="fill: none; stroke: #cd5c5c; stroke-width: 2; stroke-linecap: square"/>
   </g>
   <g id="line2d_55">
    <path d="M 269.873273 201.169802 
L 273.808545 201.169802 
" clip-path="url(#p528b8abdbc)" style="fill: none; stroke: #cd5c5c; stroke-width: 2; stroke-linecap: square"/>
   </g>
   <g id="line2d_56">
    <g clip-path="url(#p528b8abdbc)">
     <use xlink:href="#m658991d241" x="271.840909" y="179.220209" style="fill-opacity: 0; stroke: #cd5c5c"/>
    </g>
   </g>
   <g id="line2d_57">
    <path d="M 307.258364 212.834442 
L 315.128909 212.834442 
L 315.128909 200.705725 
L 307.258364 200.705725 
L 307.258364 212.834442 
" clip-path="url(#p528b8abdbc)" style="fill: none; stroke: #cd5c5c; stroke-width: 2; stroke-linecap: square"/>
   </g>
   <g id="line2d_58">
    <path d="M 311.193636 212.834442 
L 311.193636 226.39302 
" clip-path="url(#p528b8abdbc)" style="fill: none; stroke: #cd5c5c; stroke-width: 2"/>
   </g>
   <g id="line2d_59">
    <path d="M 311.193636 200.705725 
L 311.193636 190.771966 
" clip-path="url(#p528b8abdbc)" style="fill: none; stroke: #cd5c5c; stroke-width: 2"/>
   </g>
   <g id="line2d_60">
    <path d="M 309.226 226.39302 
L 313.161273 226.39302 
" clip-path="url(#p528b8abdbc)" style="fill: none; stroke: #cd5c5c; stroke-width: 2; stroke-linecap: square"/>
   </g>
   <g id="line2d_61">
    <path d="M 309.226 190.771966 
L 313.161273 190.771966 
" clip-path="url(#p528b8abdbc)" style="fill: none; stroke: #cd5c5c; stroke-width: 2; stroke-linecap: square"/>
   </g>
   <g id="line2d_62"/>
   <g id="line2d_63">
    <path d="M 346.611091 214.891433 
L 354.481636 214.891433 
L 354.481636 204.694279 
L 346.611091 204.694279 
L 346.611091 214.891433 
" clip-path="url(#p528b8abdbc)" style="fill: none; stroke: #cd5c5c; stroke-width: 2; stroke-linecap: square"/>
   </g>
   <g id="line2d_64">
    <path d="M 350.546364 214.891433 
L 350.546364 217.249446 
" clip-path="url(#p528b8abdbc)" style="fill: none; stroke: #cd5c5c; stroke-width: 2"/>
   </g>
   <g id="line2d_65">
    <path d="M 350.546364 204.694279 
L 350.546364 197.394472 
" clip-path="url(#p528b8abdbc)" style="fill: none; stroke: #cd5c5c; stroke-width: 2"/>
   </g>
   <g id="line2d_66">
    <path d="M 348.578727 217.249446 
L 352.514 217.249446 
" clip-path="url(#p528b8abdbc)" style="fill: none; stroke: #cd5c5c; stroke-width: 2; stroke-linecap: square"/>
   </g>
   <g id="line2d_67">
    <path d="M 348.578727 197.394472 
L 352.514 197.394472 
" clip-path="url(#p528b8abdbc)" style="fill: none; stroke: #cd5c5c; stroke-width: 2; stroke-linecap: square"/>
   </g>
   <g id="line2d_68">
    <g clip-path="url(#p528b8abdbc)">
     <use xlink:href="#m658991d241" x="350.546364" y="166.326391" style="fill-opacity: 0; stroke: #cd5c5c"/>
    </g>
   </g>
   <g id="line2d_69">
    <path d="M 385.963818 197.758208 
L 393.834364 197.758208 
L 393.834364 187.987503 
L 385.963818 187.987503 
L 385.963818 197.758208 
" clip-path="url(#p528b8abdbc)" style="fill: none; stroke: #cd5c5c; stroke-width: 2; stroke-linecap: square"/>
   </g>
   <g id="line2d_70">
    <path d="M 389.899091 197.758208 
L 389.899091 206.161766 
" clip-path="url(#p528b8abdbc)" style="fill: none; stroke: #cd5c5c; stroke-width: 2"/>
   </g>
   <g id="line2d_71">
    <path d="M 389.899091 187.987503 
L 389.899091 179.834797 
" clip-path="url(#p528b8abdbc)" style="fill: none; stroke: #cd5c5c; stroke-width: 2"/>
   </g>
   <g id="line2d_72">
    <path d="M 387.931455 206.161766 
L 391.866727 206.161766 
" clip-path="url(#p528b8abdbc)" style="fill: none; stroke: #cd5c5c; stroke-width: 2; stroke-linecap: square"/>
   </g>
   <g id="line2d_73">
    <path d="M 387.931455 179.834797 
L 391.866727 179.834797 
" clip-path="url(#p528b8abdbc)" style="fill: none; stroke: #cd5c5c; stroke-width: 2; stroke-linecap: square"/>
   </g>
   <g id="line2d_74"/>
   <g id="line2d_75">
    <path d="M 425.316545 185.554234 
L 433.187091 185.554234 
L 433.187091 181.979586 
L 425.316545 181.979586 
L 425.316545 185.554234 
" clip-path="url(#p528b8abdbc)" style="fill: none; stroke: #cd5c5c; stroke-width: 2; stroke-linecap: square"/>
   </g>
   <g id="line2d_76">
    <path d="M 429.251818 185.554234 
L 429.251818 188.551921 
" clip-path="url(#p528b8abdbc)" style="fill: none; stroke: #cd5c5c; stroke-width: 2"/>
   </g>
   <g id="line2d_77">
    <path d="M 429.251818 181.979586 
L 429.251818 181.979586 
" clip-path="url(#p528b8abdbc)" style="fill: none; stroke: #cd5c5c; stroke-width: 2"/>
   </g>
   <g id="line2d_78">
    <path d="M 427.284182 188.551921 
L 431.219455 188.551921 
" clip-path="url(#p528b8abdbc)" style="fill: none; stroke: #cd5c5c; stroke-width: 2; stroke-linecap: square"/>
   </g>
   <g id="line2d_79">
    <path d="M 427.284182 181.979586 
L 431.219455 181.979586 
" clip-path="url(#p528b8abdbc)" style="fill: none; stroke: #cd5c5c; stroke-width: 2; stroke-linecap: square"/>
   </g>
   <g id="line2d_80">
    <g clip-path="url(#p528b8abdbc)">
     <use xlink:href="#m658991d241" x="429.251818" y="191.236043" style="fill-opacity: 0; stroke: #cd5c5c"/>
     <use xlink:href="#m658991d241" x="429.251818" y="173.162121" style="fill-opacity: 0; stroke: #cd5c5c"/>
     <use xlink:href="#m658991d241" x="429.251818" y="174.893003" style="fill-opacity: 0; stroke: #cd5c5c"/>
    </g>
   </g>
   <g id="line2d_81">
    <path d="M 464.669273 203.803753 
L 472.539818 203.803753 
L 472.539818 190.922477 
L 464.669273 190.922477 
L 464.669273 203.803753 
" clip-path="url(#p528b8abdbc)" style="fill: none; stroke: #cd5c5c; stroke-width: 2; stroke-linecap: square"/>
   </g>
   <g id="line2d_82">
    <path d="M 468.604545 203.803753 
L 468.604545 209.761499 
" clip-path="url(#p528b8abdbc)" style="fill: none; stroke: #cd5c5c; stroke-width: 2"/>
   </g>
   <g id="line2d_83">
    <path d="M 468.604545 190.922477 
L 468.604545 181.741276 
" clip-path="url(#p528b8abdbc)" style="fill: none; stroke: #cd5c5c; stroke-width: 2"/>
   </g>
   <g id="line2d_84">
    <path d="M 466.636909 209.761499 
L 470.572182 209.761499 
" clip-path="url(#p528b8abdbc)" style="fill: none; stroke: #cd5c5c; stroke-width: 2; stroke-linecap: square"/>
   </g>
   <g id="line2d_85">
    <path d="M 466.636909 181.741276 
L 470.572182 181.741276 
" clip-path="url(#p528b8abdbc)" style="fill: none; stroke: #cd5c5c; stroke-width: 2; stroke-linecap: square"/>
   </g>
   <g id="line2d_86"/>
   <g id="line2d_87">
    <path d="M 80.980182 142.57066 
L 88.850727 142.57066 
L 88.850727 138.105486 
L 80.980182 138.105486 
L 80.980182 142.57066 
" clip-path="url(#p528b8abdbc)" style="fill: none; stroke: #ee82ee; stroke-width: 2; stroke-linecap: square"/>
   </g>
   <g id="line2d_88">
    <path d="M 84.915455 142.57066 
L 84.915455 147.725679 
" clip-path="url(#p528b8abdbc)" style="fill: none; stroke: #ee82ee; stroke-width: 2"/>
   </g>
   <g id="line2d_89">
    <path d="M 84.915455 138.105486 
L 84.915455 136.763425 
" clip-path="url(#p528b8abdbc)" style="fill: none; stroke: #ee82ee; stroke-width: 2"/>
   </g>
   <g id="line2d_90">
    <path d="M 82.947818 147.725679 
L 86.883091 147.725679 
" clip-path="url(#p528b8abdbc)" style="fill: none; stroke: #ee82ee; stroke-width: 2; stroke-linecap: square"/>
   </g>
   <g id="line2d_91">
    <path d="M 82.947818 136.763425 
L 86.883091 136.763425 
" clip-path="url(#p528b8abdbc)" style="fill: none; stroke: #ee82ee; stroke-width: 2; stroke-linecap: square"/>
   </g>
   <g id="line2d_92">
    <defs>
     <path id="mbf078d8dfc" d="M 0 3 
C 0.795609 3 1.55874 2.683901 2.12132 2.12132 
C 2.683901 1.55874 3 0.795609 3 0 
C 3 -0.795609 2.683901 -1.55874 2.12132 -2.12132 
C 1.55874 -2.683901 0.795609 -3 0 -3 
C -0.795609 -3 -1.55874 -2.683901 -2.12132 -2.12132 
C -2.683901 -1.55874 -3 -0.795609 -3 0 
C -3 0.795609 -2.683901 1.55874 -2.12132 2.12132 
C -1.55874 2.683901 -0.795609 3 0 3 
z
" style="stroke: #ee82ee"/>
    </defs>
    <g clip-path="url(#p528b8abdbc)">
     <use xlink:href="#mbf078d8dfc" x="84.915455" y="155.401765" style="fill-opacity: 0; stroke: #ee82ee"/>
     <use xlink:href="#mbf078d8dfc" x="84.915455" y="127.306286" style="fill-opacity: 0; stroke: #ee82ee"/>
    </g>
   </g>
   <g id="line2d_93">
    <path d="M 120.332909 127.155774 
L 128.203455 127.155774 
L 128.203455 118.463736 
L 120.332909 118.463736 
L 120.332909 127.155774 
" clip-path="url(#p528b8abdbc)" style="fill: none; stroke: #ee82ee; stroke-width: 2; stroke-linecap: square"/>
   </g>
   <g id="line2d_94">
    <path d="M 124.268182 127.155774 
L 124.268182 136.424774 
" clip-path="url(#p528b8abdbc)" style="fill: none; stroke: #ee82ee; stroke-width: 2"/>
   </g>
   <g id="line2d_95">
    <path d="M 124.268182 118.463736 
L 124.268182 111.201556 
" clip-path="url(#p528b8abdbc)" style="fill: none; stroke: #ee82ee; stroke-width: 2"/>
   </g>
   <g id="line2d_96">
    <path d="M 122.300545 136.424774 
L 126.235818 136.424774 
" clip-path="url(#p528b8abdbc)" style="fill: none; stroke: #ee82ee; stroke-width: 2; stroke-linecap: square"/>
   </g>
   <g id="line2d_97">
    <path d="M 122.300545 111.201556 
L 126.235818 111.201556 
" clip-path="url(#p528b8abdbc)" style="fill: none; stroke: #ee82ee; stroke-width: 2; stroke-linecap: square"/>
   </g>
   <g id="line2d_98"/>
   <g id="line2d_99">
    <path d="M 159.685636 115.478591 
L 167.556182 115.478591 
L 167.556182 104.190229 
L 159.685636 104.190229 
L 159.685636 115.478591 
" clip-path="url(#p528b8abdbc)" style="fill: none; stroke: #ee82ee; stroke-width: 2; stroke-linecap: square"/>
   </g>
   <g id="line2d_100">
    <path d="M 163.620909 115.478591 
L 163.620909 124.735048 
" clip-path="url(#p528b8abdbc)" style="fill: none; stroke: #ee82ee; stroke-width: 2"/>
   </g>
   <g id="line2d_101">
    <path d="M 163.620909 104.190229 
L 163.620909 101.543735 
" clip-path="url(#p528b8abdbc)" style="fill: none; stroke: #ee82ee; stroke-width: 2"/>
   </g>
   <g id="line2d_102">
    <path d="M 161.653273 124.735048 
L 165.588545 124.735048 
" clip-path="url(#p528b8abdbc)" style="fill: none; stroke: #ee82ee; stroke-width: 2; stroke-linecap: square"/>
   </g>
   <g id="line2d_103">
    <path d="M 161.653273 101.543735 
L 165.588545 101.543735 
" clip-path="url(#p528b8abdbc)" style="fill: none; stroke: #ee82ee; stroke-width: 2; stroke-linecap: square"/>
   </g>
   <g id="line2d_104"/>
   <g id="line2d_105">
    <path d="M 199.038364 106.284847 
L 206.908909 106.284847 
L 206.908909 71.378723 
L 199.038364 71.378723 
L 199.038364 106.284847 
" clip-path="url(#p528b8abdbc)" style="fill: none; stroke: #ee82ee; stroke-width: 2; stroke-linecap: square"/>
   </g>
   <g id="line2d_106">
    <path d="M 202.973636 106.284847 
L 202.973636 113.308717 
" clip-path="url(#p528b8abdbc)" style="fill: none; stroke: #ee82ee; stroke-width: 2"/>
   </g>
   <g id="line2d_107">
    <path d="M 202.973636 71.378723 
L 202.973636 64.731132 
" clip-path="url(#p528b8abdbc)" style="fill: none; stroke: #ee82ee; stroke-width: 2"/>
   </g>
   <g id="line2d_108">
    <path d="M 201.006 113.308717 
L 204.941273 113.308717 
" clip-path="url(#p528b8abdbc)" style="fill: none; stroke: #ee82ee; stroke-width: 2; stroke-linecap: square"/>
   </g>
   <g id="line2d_109">
    <path d="M 201.006 64.731132 
L 204.941273 64.731132 
" clip-path="url(#p528b8abdbc)" style="fill: none; stroke: #ee82ee; stroke-width: 2; stroke-linecap: square"/>
   </g>
   <g id="line2d_110"/>
   <g id="line2d_111">
    <path d="M 238.391091 86.091222 
L 246.261636 86.091222 
L 246.261636 63.088048 
L 238.391091 63.088048 
L 238.391091 86.091222 
" clip-path="url(#p528b8abdbc)" style="fill: none; stroke: #ee82ee; stroke-width: 2; stroke-linecap: square"/>
   </g>
   <g id="line2d_112">
    <path d="M 242.326364 86.091222 
L 242.326364 91.133357 
" clip-path="url(#p528b8abdbc)" style="fill: none; stroke: #ee82ee; stroke-width: 2"/>
   </g>
   <g id="line2d_113">
    <path d="M 242.326364 63.088048 
L 242.326364 59.676455 
" clip-path="url(#p528b8abdbc)" style="fill: none; stroke: #ee82ee; stroke-width: 2"/>
   </g>
   <g id="line2d_114">
    <path d="M 240.358727 91.133357 
L 244.294 91.133357 
" clip-path="url(#p528b8abdbc)" style="fill: none; stroke: #ee82ee; stroke-width: 2; stroke-linecap: square"/>
   </g>
   <g id="line2d_115">
    <path d="M 240.358727 59.676455 
L 244.294 59.676455 
" clip-path="url(#p528b8abdbc)" style="fill: none; stroke: #ee82ee; stroke-width: 2; stroke-linecap: square"/>
   </g>
   <g id="line2d_116"/>
   <g id="line2d_117">
    <path d="M 277.743818 77.675121 
L 285.614364 77.675121 
L 285.614364 54.220413 
L 277.743818 54.220413 
L 277.743818 77.675121 
" clip-path="url(#p528b8abdbc)" style="fill: none; stroke: #ee82ee; stroke-width: 2; stroke-linecap: square"/>
   </g>
   <g id="line2d_118">
    <path d="M 281.679091 77.675121 
L 281.679091 81.337567 
" clip-path="url(#p528b8abdbc)" style="fill: none; stroke: #ee82ee; stroke-width: 2"/>
   </g>
   <g id="line2d_119">
    <path d="M 281.679091 54.220413 
L 281.679091 36.710909 
" clip-path="url(#p528b8abdbc)" style="fill: none; stroke: #ee82ee; stroke-width: 2"/>
   </g>
   <g id="line2d_120">
    <path d="M 279.711455 81.337567 
L 283.646727 81.337567 
" clip-path="url(#p528b8abdbc)" style="fill: none; stroke: #ee82ee; stroke-width: 2; stroke-linecap: square"/>
   </g>
   <g id="line2d_121">
    <path d="M 279.711455 36.710909 
L 283.646727 36.710909 
" clip-path="url(#p528b8abdbc)" style="fill: none; stroke: #ee82ee; stroke-width: 2; stroke-linecap: square"/>
   </g>
   <g id="line2d_122"/>
   <g id="line2d_123">
    <path d="M 317.096545 69.898694 
L 324.967091 69.898694 
L 324.967091 58.735758 
L 317.096545 58.735758 
L 317.096545 69.898694 
" clip-path="url(#p528b8abdbc)" style="fill: none; stroke: #ee82ee; stroke-width: 2; stroke-linecap: square"/>
   </g>
   <g id="line2d_124">
    <path d="M 321.031818 69.898694 
L 321.031818 81.726388 
" clip-path="url(#p528b8abdbc)" style="fill: none; stroke: #ee82ee; stroke-width: 2"/>
   </g>
   <g id="line2d_125">
    <path d="M 321.031818 58.735758 
L 321.031818 53.655995 
" clip-path="url(#p528b8abdbc)" style="fill: none; stroke: #ee82ee; stroke-width: 2"/>
   </g>
   <g id="line2d_126">
    <path d="M 319.064182 81.726388 
L 322.999455 81.726388 
" clip-path="url(#p528b8abdbc)" style="fill: none; stroke: #ee82ee; stroke-width: 2; stroke-linecap: square"/>
   </g>
   <g id="line2d_127">
    <path d="M 319.064182 53.655995 
L 322.999455 53.655995 
" clip-path="url(#p528b8abdbc)" style="fill: none; stroke: #ee82ee; stroke-width: 2; stroke-linecap: square"/>
   </g>
   <g id="line2d_128"/>
   <g id="line2d_129">
    <path d="M 356.449273 92.287278 
L 364.319818 92.287278 
L 364.319818 88.060414 
L 356.449273 88.060414 
L 356.449273 92.287278 
" clip-path="url(#p528b8abdbc)" style="fill: none; stroke: #ee82ee; stroke-width: 2; stroke-linecap: square"/>
   </g>
   <g id="line2d_130">
    <path d="M 360.384545 92.287278 
L 360.384545 95.460562 
" clip-path="url(#p528b8abdbc)" style="fill: none; stroke: #ee82ee; stroke-width: 2"/>
   </g>
   <g id="line2d_131">
    <path d="M 360.384545 88.060414 
L 360.384545 88.060414 
" clip-path="url(#p528b8abdbc)" style="fill: none; stroke: #ee82ee; stroke-width: 2"/>
   </g>
   <g id="line2d_132">
    <path d="M 358.416909 95.460562 
L 362.352182 95.460562 
" clip-path="url(#p528b8abdbc)" style="fill: none; stroke: #ee82ee; stroke-width: 2; stroke-linecap: square"/>
   </g>
   <g id="line2d_133">
    <path d="M 358.416909 88.060414 
L 362.352182 88.060414 
" clip-path="url(#p528b8abdbc)" style="fill: none; stroke: #ee82ee; stroke-width: 2; stroke-linecap: square"/>
   </g>
   <g id="line2d_134">
    <g clip-path="url(#p528b8abdbc)">
     <use xlink:href="#mbf078d8dfc" x="360.384545" y="44.587677" style="fill-opacity: 0; stroke: #ee82ee"/>
     <use xlink:href="#mbf078d8dfc" x="360.384545" y="73.573683" style="fill-opacity: 0; stroke: #ee82ee"/>
    </g>
   </g>
   <g id="line2d_135">
    <path d="M 395.802 115.604017 
L 403.672545 115.604017 
L 403.672545 105.268895 
L 395.802 105.268895 
L 395.802 115.604017 
" clip-path="url(#p528b8abdbc)" style="fill: none; stroke: #ee82ee; stroke-width: 2; stroke-linecap: square"/>
   </g>
   <g id="line2d_136">
    <path d="M 399.737273 115.604017 
L 399.737273 123.192305 
" clip-path="url(#p528b8abdbc)" style="fill: none; stroke: #ee82ee; stroke-width: 2"/>
   </g>
   <g id="line2d_137">
    <path d="M 399.737273 105.268895 
L 399.737273 98.897241 
" clip-path="url(#p528b8abdbc)" style="fill: none; stroke: #ee82ee; stroke-width: 2"/>
   </g>
   <g id="line2d_138">
    <path d="M 397.769636 123.192305 
L 401.704909 123.192305 
" clip-path="url(#p528b8abdbc)" style="fill: none; stroke: #ee82ee; stroke-width: 2; stroke-linecap: square"/>
   </g>
   <g id="line2d_139">
    <path d="M 397.769636 98.897241 
L 401.704909 98.897241 
" clip-path="url(#p528b8abdbc)" style="fill: none; stroke: #ee82ee; stroke-width: 2; stroke-linecap: square"/>
   </g>
   <g id="line2d_140"/>
   <g id="line2d_141">
    <path d="M 435.154727 123.392987 
L 443.025273 123.392987 
L 443.025273 114.236871 
L 435.154727 114.236871 
L 435.154727 123.392987 
" clip-path="url(#p528b8abdbc)" style="fill: none; stroke: #ee82ee; stroke-width: 2; stroke-linecap: square"/>
   </g>
   <g id="line2d_142">
    <path d="M 439.09 123.392987 
L 439.09 131.207042 
" clip-path="url(#p528b8abdbc)" style="fill: none; stroke: #ee82ee; stroke-width: 2"/>
   </g>
   <g id="line2d_143">
    <path d="M 439.09 114.236871 
L 439.09 106.799095 
" clip-path="url(#p528b8abdbc)" style="fill: none; stroke: #ee82ee; stroke-width: 2"/>
   </g>
   <g id="line2d_144">
    <path d="M 437.122364 131.207042 
L 441.057636 131.207042 
" clip-path="url(#p528b8abdbc)" style="fill: none; stroke: #ee82ee; stroke-width: 2; stroke-linecap: square"/>
   </g>
   <g id="line2d_145">
    <path d="M 437.122364 106.799095 
L 441.057636 106.799095 
" clip-path="url(#p528b8abdbc)" style="fill: none; stroke: #ee82ee; stroke-width: 2; stroke-linecap: square"/>
   </g>
   <g id="line2d_146"/>
   <g id="line2d_147">
    <path d="M 474.507455 141.32894 
L 482.378 141.32894 
L 482.378 130.266345 
L 474.507455 130.266345 
L 474.507455 141.32894 
" clip-path="url(#p528b8abdbc)" style="fill: none; stroke: #ee82ee; stroke-width: 2; stroke-linecap: square"/>
   </g>
   <g id="line2d_148">
    <path d="M 478.442727 141.32894 
L 478.442727 146.220564 
" clip-path="url(#p528b8abdbc)" style="fill: none; stroke: #ee82ee; stroke-width: 2"/>
   </g>
   <g id="line2d_149">
    <path d="M 478.442727 130.266345 
L 478.442727 116.306404 
" clip-path="url(#p528b8abdbc)" style="fill: none; stroke: #ee82ee; stroke-width: 2"/>
   </g>
   <g id="line2d_150">
    <path d="M 476.475091 146.220564 
L 480.410364 146.220564 
" clip-path="url(#p528b8abdbc)" style="fill: none; stroke: #ee82ee; stroke-width: 2; stroke-linecap: square"/>
   </g>
   <g id="line2d_151">
    <path d="M 476.475091 116.306404 
L 480.410364 116.306404 
" clip-path="url(#p528b8abdbc)" style="fill: none; stroke: #ee82ee; stroke-width: 2; stroke-linecap: square"/>
   </g>
   <g id="line2d_152"/>
   <g id="line2d_153">
    <path d="M 60.32 212.922241 
L 493.2 212.922241 
" clip-path="url(#p528b8abdbc)" style="fill: none; stroke-dasharray: 11.1,4.8; stroke-dashoffset: 0; stroke: #000000; stroke-width: 3"/>
   </g>
   <g id="line2d_154">
    <path d="M 71.142 196.42869 
L 79.012545 196.42869 
" clip-path="url(#p528b8abdbc)" style="fill: none; stroke: #cd5c5c; stroke-width: 2"/>
   </g>
   <g id="line2d_155">
    <path d="M 110.494727 182.368408 
L 118.365273 182.368408 
" clip-path="url(#p528b8abdbc)" style="fill: none; stroke: #cd5c5c; stroke-width: 2"/>
   </g>
   <g id="line2d_156">
    <path d="M 149.847455 189.567874 
L 157.718 189.567874 
" clip-path="url(#p528b8abdbc)" style="fill: none; stroke: #cd5c5c; stroke-width: 2"/>
   </g>
   <g id="line2d_157">
    <path d="M 189.200182 198.799246 
L 197.070727 198.799246 
" clip-path="url(#p528b8abdbc)" style="fill: none; stroke: #cd5c5c; stroke-width: 2"/>
   </g>
   <g id="line2d_158">
    <path d="M 228.552909 197.908719 
L 236.423455 197.908719 
" clip-path="url(#p528b8abdbc)" style="fill: none; stroke: #cd5c5c; stroke-width: 2"/>
   </g>
   <g id="line2d_159">
    <path d="M 267.905636 205.760402 
L 275.776182 205.760402 
" clip-path="url(#p528b8abdbc)" style="fill: none; stroke: #cd5c5c; stroke-width: 2"/>
   </g>
   <g id="line2d_160">
    <path d="M 307.258364 211.153731 
L 315.128909 211.153731 
" clip-path="url(#p528b8abdbc)" style="fill: none; stroke: #cd5c5c; stroke-width: 2"/>
   </g>
   <g id="line2d_161">
    <path d="M 346.611091 208.419439 
L 354.481636 208.419439 
" clip-path="url(#p528b8abdbc)" style="fill: none; stroke: #cd5c5c; stroke-width: 2"/>
   </g>
   <g id="line2d_162">
    <path d="M 385.963818 191.88826 
L 393.834364 191.88826 
" clip-path="url(#p528b8abdbc)" style="fill: none; stroke: #cd5c5c; stroke-width: 2"/>
   </g>
   <g id="line2d_163">
    <path d="M 425.316545 184.977273 
L 433.187091 184.977273 
" clip-path="url(#p528b8abdbc)" style="fill: none; stroke: #cd5c5c; stroke-width: 2"/>
   </g>
   <g id="line2d_164">
    <path d="M 464.669273 194.171017 
L 472.539818 194.171017 
" clip-path="url(#p528b8abdbc)" style="fill: none; stroke: #cd5c5c; stroke-width: 2"/>
   </g>
   <g id="line2d_165">
    <path d="M 80.980182 138.444136 
L 88.850727 138.444136 
" clip-path="url(#p528b8abdbc)" style="fill: none; stroke: #ee82ee; stroke-width: 2"/>
   </g>
   <g id="line2d_166">
    <path d="M 120.332909 122.552631 
L 128.203455 122.552631 
" clip-path="url(#p528b8abdbc)" style="fill: none; stroke: #ee82ee; stroke-width: 2"/>
   </g>
   <g id="line2d_167">
    <path d="M 159.685636 111.929028 
L 167.556182 111.929028 
" clip-path="url(#p528b8abdbc)" style="fill: none; stroke: #ee82ee; stroke-width: 2"/>
   </g>
   <g id="line2d_168">
    <path d="M 199.038364 88.587204 
L 206.908909 88.587204 
" clip-path="url(#p528b8abdbc)" style="fill: none; stroke: #ee82ee; stroke-width: 2"/>
   </g>
   <g id="line2d_169">
    <path d="M 238.391091 65.345721 
L 246.261636 65.345721 
" clip-path="url(#p528b8abdbc)" style="fill: none; stroke: #ee82ee; stroke-width: 2"/>
   </g>
   <g id="line2d_170">
    <path d="M 277.743818 60.51681 
L 285.614364 60.51681 
" clip-path="url(#p528b8abdbc)" style="fill: none; stroke: #ee82ee; stroke-width: 2"/>
   </g>
   <g id="line2d_171">
    <path d="M 317.096545 67.339998 
L 324.967091 67.339998 
" clip-path="url(#p528b8abdbc)" style="fill: none; stroke: #ee82ee; stroke-width: 2"/>
   </g>
   <g id="line2d_172">
    <path d="M 356.449273 90.042149 
L 364.319818 90.042149 
" clip-path="url(#p528b8abdbc)" style="fill: none; stroke: #ee82ee; stroke-width: 2"/>
   </g>
   <g id="line2d_173">
    <path d="M 395.802 108.994054 
L 403.672545 108.994054 
" clip-path="url(#p528b8abdbc)" style="fill: none; stroke: #ee82ee; stroke-width: 2"/>
   </g>
   <g id="line2d_174">
    <path d="M 435.154727 120.796664 
L 443.025273 120.796664 
" clip-path="url(#p528b8abdbc)" style="fill: none; stroke: #ee82ee; stroke-width: 2"/>
   </g>
   <g id="line2d_175">
    <path d="M 474.507455 133.188777 
L 482.378 133.188777 
" clip-path="url(#p528b8abdbc)" style="fill: none; stroke: #ee82ee; stroke-width: 2"/>
   </g>
   <g id="patch_5">
    <path d="M 60.32 243.16 
L 60.32 26.88 
" style="fill: none; stroke: #000000; stroke-width: 0.8; stroke-linejoin: miter; stroke-linecap: square"/>
   </g>
   <g id="patch_6">
    <path d="M 60.32 243.16 
L 493.2 243.16 
" style="fill: none; stroke: #000000; stroke-width: 0.8; stroke-linejoin: miter; stroke-linecap: square"/>
   </g>
   <g id="text_23">
    <!-- Estimated error rates in a mixture of two $\it{E. coli}$ strains -->
    <g transform="translate(112.54 20.88) scale(0.12 -0.12)">
     <defs>
      <path id="DejaVuSans-45" d="M 628 4666 
L 3578 4666 
L 3578 4134 
L 1259 4134 
L 1259 2753 
L 3481 2753 
L 3481 2222 
L 1259 2222 
L 1259 531 
L 3634 531 
L 3634 0 
L 628 0 
L 628 4666 
z
" transform="scale(0.015625)"/>
      <path id="DejaVuSans-77" d="M 269 3500 
L 844 3500 
L 1563 769 
L 2278 3500 
L 2956 3500 
L 3675 769 
L 4391 3500 
L 4966 3500 
L 4050 0 
L 3372 0 
L 2619 2869 
L 1863 0 
L 1184 0 
L 269 3500 
z
" transform="scale(0.015625)"/>
     </defs>
     <use xlink:href="#DejaVuSans-45" transform="translate(0 0.015625)"/>
     <use xlink:href="#DejaVuSans-73" transform="translate(63.183594 0.015625)"/>
     <use xlink:href="#DejaVuSans-74" transform="translate(115.283203 0.015625)"/>
     <use xlink:href="#DejaVuSans-69" transform="translate(154.492188 0.015625)"/>
     <use xlink:href="#DejaVuSans-6d" transform="translate(182.275391 0.015625)"/>
     <use xlink:href="#DejaVuSans-61" transform="translate(279.6875 0.015625)"/>
     <use xlink:href="#DejaVuSans-74" transform="translate(340.966797 0.015625)"/>
     <use xlink:href="#DejaVuSans-65" transform="translate(380.175781 0.015625)"/>
     <use xlink:href="#DejaVuSans-64" transform="translate(441.699219 0.015625)"/>
     <use xlink:href="#DejaVuSans-20" transform="translate(505.175781 0.015625)"/>
     <use xlink:href="#DejaVuSans-65" transform="translate(536.962891 0.015625)"/>
     <use xlink:href="#DejaVuSans-72" transform="translate(598.486328 0.015625)"/>
     <use xlink:href="#DejaVuSans-72" transform="translate(639.599609 0.015625)"/>
     <use xlink:href="#DejaVuSans-6f" transform="translate(680.712891 0.015625)"/>
     <use xlink:href="#DejaVuSans-72" transform="translate(741.894531 0.015625)"/>
     <use xlink:href="#DejaVuSans-20" transform="translate(783.007812 0.015625)"/>
     <use xlink:href="#DejaVuSans-72" transform="translate(814.794922 0.015625)"/>
     <use xlink:href="#DejaVuSans-61" transform="translate(855.908203 0.015625)"/>
     <use xlink:href="#DejaVuSans-74" transform="translate(917.1875 0.015625)"/>
     <use xlink:href="#DejaVuSans-65" transform="translate(956.396484 0.015625)"/>
     <use xlink:href="#DejaVuSans-73" transform="translate(1017.919922 0.015625)"/>
     <use xlink:href="#DejaVuSans-20" transform="translate(1070.019531 0.015625)"/>
     <use xlink:href="#DejaVuSans-69" transform="translate(1101.806641 0.015625)"/>
     <use xlink:href="#DejaVuSans-6e" transform="translate(1129.589844 0.015625)"/>
     <use xlink:href="#DejaVuSans-20" transform="translate(1192.96875 0.015625)"/>
     <use xlink:href="#DejaVuSans-61" transform="translate(1224.755859 0.015625)"/>
     <use xlink:href="#DejaVuSans-20" transform="translate(1286.035156 0.015625)"/>
     <use xlink:href="#DejaVuSans-6d" transform="translate(1317.822266 0.015625)"/>
     <use xlink:href="#DejaVuSans-69" transform="translate(1415.234375 0.015625)"/>
     <use xlink:href="#DejaVuSans-78" transform="translate(1443.017578 0.015625)"/>
     <use xlink:href="#DejaVuSans-74" transform="translate(1502.197266 0.015625)"/>
     <use xlink:href="#DejaVuSans-75" transform="translate(1541.40625 0.015625)"/>
     <use xlink:href="#DejaVuSans-72" transform="translate(1604.785156 0.015625)"/>
     <use xlink:href="#DejaVuSans-65" transform="translate(1645.898438 0.015625)"/>
     <use xlink:href="#DejaVuSans-20" transform="translate(1707.421875 0.015625)"/>
     <use xlink:href="#DejaVuSans-6f" transform="translate(1739.208984 0.015625)"/>
     <use xlink:href="#DejaVuSans-66" transform="translate(1800.390625 0.015625)"/>
     <use xlink:href="#DejaVuSans-20" transform="translate(1835.595703 0.015625)"/>
     <use xlink:href="#DejaVuSans-74" transform="translate(1867.382812 0.015625)"/>
     <use xlink:href="#DejaVuSans-77" transform="translate(1906.591797 0.015625)"/>
     <use xlink:href="#DejaVuSans-6f" transform="translate(1988.378906 0.015625)"/>
     <use xlink:href="#DejaVuSans-20" transform="translate(2049.560547 0.015625)"/>
     <use xlink:href="#DejaVuSans-Oblique-45" transform="translate(2081.347656 0.015625)"/>
     <use xlink:href="#DejaVuSans-2e" transform="translate(2144.53125 0.015625)"/>
     <use xlink:href="#DejaVuSans-Oblique-63" transform="translate(2195.800781 0.015625)"/>
     <use xlink:href="#DejaVuSans-Oblique-6f" transform="translate(2250.78125 0.015625)"/>
     <use xlink:href="#DejaVuSans-Oblique-6c" transform="translate(2311.962891 0.015625)"/>
     <use xlink:href="#DejaVuSans-Oblique-69" transform="translate(2339.746094 0.015625)"/>
     <use xlink:href="#DejaVuSans-20" transform="translate(2367.529297 0.015625)"/>
     <use xlink:href="#DejaVuSans-73" transform="translate(2399.316406 0.015625)"/>
     <use xlink:href="#DejaVuSans-74" transform="translate(2451.416016 0.015625)"/>
     <use xlink:href="#DejaVuSans-72" transform="translate(2490.625 0.015625)"/>
     <use xlink:href="#DejaVuSans-61" transform="translate(2531.738281 0.015625)"/>
     <use xlink:href="#DejaVuSans-69" transform="translate(2593.017578 0.015625)"/>
     <use xlink:href="#DejaVuSans-6e" transform="translate(2620.800781 0.015625)"/>
     <use xlink:href="#DejaVuSans-73" transform="translate(2684.179688 0.015625)"/>
    </g>
   </g>
   <g id="legend_1">
    <g id="patch_7">
     <path d="M 338.745313 78.914375 
L 486.2 78.914375 
Q 488.2 78.914375 488.2 76.914375 
L 488.2 33.88 
Q 488.2 31.88 486.2 31.88 
L 338.745313 31.88 
Q 336.745313 31.88 336.745313 33.88 
L 336.745313 76.914375 
Q 336.745313 78.914375 338.745313 78.914375 
z
" style="fill: #ffffff; opacity: 0.8; stroke: #cccccc; stroke-linejoin: miter"/>
    </g>
    <g id="patch_8">
     <path d="M 340.745313 43.478438 
L 360.745313 43.478438 
L 360.745313 36.478438 
L 340.745313 36.478438 
L 340.745313 43.478438 
z
" style="fill: none; stroke: #cd5c5c; stroke-width: 2; stroke-linejoin: miter"/>
    </g>
    <g id="text_24">
     <!-- With filter -->
     <g transform="translate(368.745313 43.478438) scale(0.1 -0.1)">
      <defs>
       <path id="DejaVuSans-57" d="M 213 4666 
L 850 4666 
L 1831 722 
L 2809 4666 
L 3519 4666 
L 4500 722 
L 5478 4666 
L 6119 4666 
L 4947 0 
L 4153 0 
L 3169 4050 
L 2175 0 
L 1381 0 
L 213 4666 
z
" transform="scale(0.015625)"/>
       <path id="DejaVuSans-6c" d="M 603 4863 
L 1178 4863 
L 1178 0 
L 603 0 
L 603 4863 
z
" transform="scale(0.015625)"/>
      </defs>
      <use xlink:href="#DejaVuSans-57"/>
      <use xlink:href="#DejaVuSans-69" transform="translate(96.626953 0)"/>
      <use xlink:href="#DejaVuSans-74" transform="translate(124.410156 0)"/>
      <use xlink:href="#DejaVuSans-68" transform="translate(163.619141 0)"/>
      <use xlink:href="#DejaVuSans-20" transform="translate(226.998047 0)"/>
      <use xlink:href="#DejaVuSans-66" transform="translate(258.785156 0)"/>
      <use xlink:href="#DejaVuSans-69" transform="translate(293.990234 0)"/>
      <use xlink:href="#DejaVuSans-6c" transform="translate(321.773438 0)"/>
      <use xlink:href="#DejaVuSans-74" transform="translate(349.556641 0)"/>
      <use xlink:href="#DejaVuSans-65" transform="translate(388.765625 0)"/>
      <use xlink:href="#DejaVuSans-72" transform="translate(450.289062 0)"/>
     </g>
    </g>
    <g id="patch_9">
     <path d="M 340.745313 58.156563 
L 360.745313 58.156563 
L 360.745313 51.156563 
L 340.745313 51.156563 
L 340.745313 58.156563 
z
" style="fill: none; stroke: #ee82ee; stroke-width: 2; stroke-linejoin: miter"/>
    </g>
    <g id="text_25">
     <!-- Without filter -->
     <g transform="translate(368.745313 58.156563) scale(0.1 -0.1)">
      <use xlink:href="#DejaVuSans-57"/>
      <use xlink:href="#DejaVuSans-69" transform="translate(96.626953 0)"/>
      <use xlink:href="#DejaVuSans-74" transform="translate(124.410156 0)"/>
      <use xlink:href="#DejaVuSans-68" transform="translate(163.619141 0)"/>
      <use xlink:href="#DejaVuSans-6f" transform="translate(226.998047 0)"/>
      <use xlink:href="#DejaVuSans-75" transform="translate(288.179688 0)"/>
      <use xlink:href="#DejaVuSans-74" transform="translate(351.558594 0)"/>
      <use xlink:href="#DejaVuSans-20" transform="translate(390.767578 0)"/>
      <use xlink:href="#DejaVuSans-66" transform="translate(422.554688 0)"/>
      <use xlink:href="#DejaVuSans-69" transform="translate(457.759766 0)"/>
      <use xlink:href="#DejaVuSans-6c" transform="translate(485.542969 0)"/>
      <use xlink:href="#DejaVuSans-74" transform="translate(513.326172 0)"/>
      <use xlink:href="#DejaVuSans-65" transform="translate(552.535156 0)"/>
      <use xlink:href="#DejaVuSans-72" transform="translate(614.058594 0)"/>
     </g>
    </g>
    <g id="line2d_176">
     <path d="M 340.745313 69.334688 
L 350.745313 69.334688 
L 360.745313 69.334688 
" style="fill: none; stroke-dasharray: 11.1,4.8; stroke-dashoffset: 0; stroke: #000000; stroke-width: 3"/>
    </g>
    <g id="text_26">
     <!-- Ground truth error rate -->
     <g transform="translate(368.745313 72.834688) scale(0.1 -0.1)">
      <use xlink:href="#DejaVuSans-47"/>
      <use xlink:href="#DejaVuSans-72" transform="translate(77.490234 0)"/>
      <use xlink:href="#DejaVuSans-6f" transform="translate(116.353516 0)"/>
      <use xlink:href="#DejaVuSans-75" transform="translate(177.535156 0)"/>
      <use xlink:href="#DejaVuSans-6e" transform="translate(240.914062 0)"/>
      <use xlink:href="#DejaVuSans-64" transform="translate(304.292969 0)"/>
      <use xlink:href="#DejaVuSans-20" transform="translate(367.769531 0)"/>
      <use xlink:href="#DejaVuSans-74" transform="translate(399.556641 0)"/>
      <use xlink:href="#DejaVuSans-72" transform="translate(438.765625 0)"/>
      <use xlink:href="#DejaVuSans-75" transform="translate(479.878906 0)"/>
      <use xlink:href="#DejaVuSans-74" transform="translate(543.257812 0)"/>
      <use xlink:href="#DejaVuSans-68" transform="translate(582.466797 0)"/>
      <use xlink:href="#DejaVuSans-20" transform="translate(645.845703 0)"/>
      <use xlink:href="#DejaVuSans-65" transform="translate(677.632812 0)"/>
      <use xlink:href="#DejaVuSans-72" transform="translate(739.15625 0)"/>
      <use xlink:href="#DejaVuSans-72" transform="translate(778.519531 0)"/>
      <use xlink:href="#DejaVuSans-6f" transform="translate(817.382812 0)"/>
      <use xlink:href="#DejaVuSans-72" transform="translate(878.564453 0)"/>
      <use xlink:href="#DejaVuSans-20" transform="translate(919.677734 0)"/>
      <use xlink:href="#DejaVuSans-72" transform="translate(951.464844 0)"/>
      <use xlink:href="#DejaVuSans-61" transform="translate(992.578125 0)"/>
      <use xlink:href="#DejaVuSans-74" transform="translate(1053.857422 0)"/>
      <use xlink:href="#DejaVuSans-65" transform="translate(1093.066406 0)"/>
     </g>
    </g>
   </g>
  </g>
 </g>
 <defs>
  <clipPath id="p528b8abdbc">
   <rect x="60.32" y="26.88" width="432.88" height="216.28"/>
  </clipPath>
 </defs>
</svg>
