<?xml version="1.0" encoding="utf-8" standalone="no"?>
<!DOCTYPE svg PUBLIC "-//W3C//DTD SVG 1.1//EN"
  "http://www.w3.org/Graphics/SVG/1.1/DTD/svg11.dtd">
<svg xmlns:xlink="http://www.w3.org/1999/xlink" width="288pt" height="288pt" viewBox="0 0 288 288" xmlns="http://www.w3.org/2000/svg" version="1.1">
 <metadata>
  <rdf:RDF xmlns:dc="http://purl.org/dc/elements/1.1/" xmlns:cc="http://creativecommons.org/ns#" xmlns:rdf="http://www.w3.org/1999/02/22-rdf-syntax-ns#">
   <cc:Work>
    <dc:type rdf:resource="http://purl.org/dc/dcmitype/StillImage"/>
    <dc:date>2026-01-20T21:33:19.290690</dc:date>
    <dc:format>image/svg+xml</dc:format>
    <dc:creator>
     <cc:Agent>
      <dc:title>Matplotlib v3.10.0, https://matplotlib.org/</dc:title>
     </cc:Agent>
    </dc:creator>
   </cc:Work>
  </rdf:RDF>
 </metadata>
 <defs>
  <style type="text/css">*{stroke-linejoin: round; stroke-linecap: butt}</style>
 </defs>
 <g id="figure_1">
  <g id="patch_1">
   <path d="M 0 288 
L 288 288 
L 288 0 
L 0 0 
z
" style="fill: #ffffff"/>
  </g>
  <g id="axes_1">
   <g id="patch_2">
    <path d="M 66.62 246.04 
L 277.2 246.04 
L 277.2 26.88 
L 66.62 26.88 
z
" style="fill: #ffffff"/>
   </g>
   <g id="patch_3">
    <path d="M 77.149 237.046375 
L 77.149 237.046375 
L 77.149 237.046375 
L 77.149 237.046375 
L 77.149 237.046375 
z
" clip-path="url(#pcf5207e201)" style="fill: none; stroke: #cd5c5c; stroke-width: 2; stroke-linejoin: miter"/>
   </g>
   <g id="patch_4">
    <path d="M 77.149 237.046375 
L 77.149 237.046375 
L 77.149 237.046375 
L 77.149 237.046375 
L 77.149 237.046375 
z
" clip-path="url(#pcf5207e201)" style="fill: none; stroke: #daa520; stroke-width: 2; stroke-linejoin: miter"/>
   </g>
   <g id="matplotlib.axis_1">
    <g id="xtick_1">
     <g id="line2d_1">
      <defs>
       <path id="m24e87c411a" d="M 0 0 
L 0 3.5 
" style="stroke: #000000; stroke-width: 0.8"/>
      </defs>
      <g>
       <use xlink:href="#m24e87c411a" x="77.149" y="246.04" style="stroke: #000000; stroke-width: 0.8"/>
      </g>
     </g>
     <g id="text_1">
      <!-- 10 -->
      <g transform="translate(70.7865 260.638438) scale(0.1 -0.1)">
       <defs>
        <path id="DejaVuSans-31" d="M 794 531 
L 1825 531 
L 1825 4091 
L 703 3866 
L 703 4441 
L 1819 4666 
L 2450 4666 
L 2450 531 
L 3481 531 
L 3481 0 
L 794 0 
L 794 531 
z
" transform="scale(0.015625)"/>
        <path id="DejaVuSans-30" d="M 2034 4250 
Q 1547 4250 1301 3770 
Q 1056 3291 1056 2328 
Q 1056 1369 1301 889 
Q 1547 409 2034 409 
Q 2525 409 2770 889 
Q 3016 1369 3016 2328 
Q 3016 3291 2770 3770 
Q 2525 4250 2034 4250 
z
M 2034 4750 
Q 2819 4750 3233 4129 
Q 3647 3509 3647 2328 
Q 3647 1150 3233 529 
Q 2819 -91 2034 -91 
Q 1250 -91 836 529 
Q 422 1150 422 2328 
Q 422 3509 836 4129 
Q 1250 4750 2034 4750 
z
" transform="scale(0.015625)"/>
       </defs>
       <use xlink:href="#DejaVuSans-31"/>
       <use xlink:href="#DejaVuSans-30" transform="translate(63.623047 0)"/>
      </g>
     </g>
    </g>
    <g id="xtick_2">
     <g id="line2d_2">
      <g>
       <use xlink:href="#m24e87c411a" x="98.207" y="246.04" style="stroke: #000000; stroke-width: 0.8"/>
      </g>
     </g>
     <g id="text_2">
      <!-- 20 -->
      <g transform="translate(91.8445 260.638438) scale(0.1 -0.1)">
       <defs>
        <path id="DejaVuSans-32" d="M 1228 531 
L 3431 531 
L 3431 0 
L 469 0 
L 469 531 
Q 828 903 1448 1529 
Q 2069 2156 2228 2338 
Q 2531 2678 2651 2914 
Q 2772 3150 2772 3378 
Q 2772 3750 2511 3984 
Q 2250 4219 1831 4219 
Q 1534 4219 1204 4116 
Q 875 4013 500 3803 
L 500 4441 
Q 881 4594 1212 4672 
Q 1544 4750 1819 4750 
Q 2544 4750 2975 4387 
Q 3406 4025 3406 3419 
Q 3406 3131 3298 2873 
Q 3191 2616 2906 2266 
Q 2828 2175 2409 1742 
Q 1991 1309 1228 531 
z
" transform="scale(0.015625)"/>
       </defs>
       <use xlink:href="#DejaVuSans-32"/>
       <use xlink:href="#DejaVuSans-30" transform="translate(63.623047 0)"/>
      </g>
     </g>
    </g>
    <g id="xtick_3">
     <g id="line2d_3">
      <g>
       <use xlink:href="#m24e87c411a" x="119.265" y="246.04" style="stroke: #000000; stroke-width: 0.8"/>
      </g>
     </g>
     <g id="text_3">
      <!-- 30 -->
      <g transform="translate(112.9025 260.638438) scale(0.1 -0.1)">
       <defs>
        <path id="DejaVuSans-33" d="M 2597 2516 
Q 3050 2419 3304 2112 
Q 3559 1806 3559 1356 
Q 3559 666 3084 287 
Q 2609 -91 1734 -91 
Q 1441 -91 1130 -33 
Q 819 25 488 141 
L 488 750 
Q 750 597 1062 519 
Q 1375 441 1716 441 
Q 2309 441 2620 675 
Q 2931 909 2931 1356 
Q 2931 1769 2642 2001 
Q 2353 2234 1838 2234 
L 1294 2234 
L 1294 2753 
L 1863 2753 
Q 2328 2753 2575 2939 
Q 2822 3125 2822 3475 
Q 2822 3834 2567 4026 
Q 2313 4219 1838 4219 
Q 1578 4219 1281 4162 
Q 984 4106 628 3988 
L 628 4550 
Q 988 4650 1302 4700 
Q 1616 4750 1894 4750 
Q 2613 4750 3031 4423 
Q 3450 4097 3450 3541 
Q 3450 3153 3228 2886 
Q 3006 2619 2597 2516 
z
" transform="scale(0.015625)"/>
       </defs>
       <use xlink:href="#DejaVuSans-33"/>
       <use xlink:href="#DejaVuSans-30" transform="translate(63.623047 0)"/>
      </g>
     </g>
    </g>
    <g id="xtick_4">
     <g id="line2d_4">
      <g>
       <use xlink:href="#m24e87c411a" x="140.323" y="246.04" style="stroke: #000000; stroke-width: 0.8"/>
      </g>
     </g>
     <g id="text_4">
      <!-- 40 -->
      <g transform="translate(133.9605 260.638438) scale(0.1 -0.1)">
       <defs>
        <path id="DejaVuSans-34" d="M 2419 4116 
L 825 1625 
L 2419 1625 
L 2419 4116 
z
M 2253 4666 
L 3047 4666 
L 3047 1625 
L 3713 1625 
L 3713 1100 
L 3047 1100 
L 3047 0 
L 2419 0 
L 2419 1100 
L 313 1100 
L 313 1709 
L 2253 4666 
z
" transform="scale(0.015625)"/>
       </defs>
       <use xlink:href="#DejaVuSans-34"/>
       <use xlink:href="#DejaVuSans-30" transform="translate(63.623047 0)"/>
      </g>
     </g>
    </g>
    <g id="xtick_5">
     <g id="line2d_5">
      <g>
       <use xlink:href="#m24e87c411a" x="161.381" y="246.04" style="stroke: #000000; stroke-width: 0.8"/>
      </g>
     </g>
     <g id="text_5">
      <!-- 50 -->
      <g transform="translate(155.0185 260.638438) scale(0.1 -0.1)">
       <defs>
        <path id="DejaVuSans-35" d="M 691 4666 
L 3169 4666 
L 3169 4134 
L 1269 4134 
L 1269 2991 
Q 1406 3038 1543 3061 
Q 1681 3084 1819 3084 
Q 2600 3084 3056 2656 
Q 3513 2228 3513 1497 
Q 3513 744 3044 326 
Q 2575 -91 1722 -91 
Q 1428 -91 1123 -41 
Q 819 9 494 109 
L 494 744 
Q 775 591 1075 516 
Q 1375 441 1709 441 
Q 2250 441 2565 725 
Q 2881 1009 2881 1497 
Q 2881 1984 2565 2268 
Q 2250 2553 1709 2553 
Q 1456 2553 1204 2497 
Q 953 2441 691 2322 
L 691 4666 
z
" transform="scale(0.015625)"/>
       </defs>
       <use xlink:href="#DejaVuSans-35"/>
       <use xlink:href="#DejaVuSans-30" transform="translate(63.623047 0)"/>
      </g>
     </g>
    </g>
    <g id="xtick_6">
     <g id="line2d_6">
      <g>
       <use xlink:href="#m24e87c411a" x="182.439" y="246.04" style="stroke: #000000; stroke-width: 0.8"/>
      </g>
     </g>
     <g id="text_6">
      <!-- 60 -->
      <g transform="translate(176.0765 260.638438) scale(0.1 -0.1)">
       <defs>
        <path id="DejaVuSans-36" d="M 2113 2584 
Q 1688 2584 1439 2293 
Q 1191 2003 1191 1497 
Q 1191 994 1439 701 
Q 1688 409 2113 409 
Q 2538 409 2786 701 
Q 3034 994 3034 1497 
Q 3034 2003 2786 2293 
Q 2538 2584 2113 2584 
z
M 3366 4563 
L 3366 3988 
Q 3128 4100 2886 4159 
Q 2644 4219 2406 4219 
Q 1781 4219 1451 3797 
Q 1122 3375 1075 2522 
Q 1259 2794 1537 2939 
Q 1816 3084 2150 3084 
Q 2853 3084 3261 2657 
Q 3669 2231 3669 1497 
Q 3669 778 3244 343 
Q 2819 -91 2113 -91 
Q 1303 -91 875 529 
Q 447 1150 447 2328 
Q 447 3434 972 4092 
Q 1497 4750 2381 4750 
Q 2619 4750 2861 4703 
Q 3103 4656 3366 4563 
z
" transform="scale(0.015625)"/>
       </defs>
       <use xlink:href="#DejaVuSans-36"/>
       <use xlink:href="#DejaVuSans-30" transform="translate(63.623047 0)"/>
      </g>
     </g>
    </g>
    <g id="xtick_7">
     <g id="line2d_7">
      <g>
       <use xlink:href="#m24e87c411a" x="203.497" y="246.04" style="stroke: #000000; stroke-width: 0.8"/>
      </g>
     </g>
     <g id="text_7">
      <!-- 70 -->
      <g transform="translate(197.1345 260.638438) scale(0.1 -0.1)">
       <defs>
        <path id="DejaVuSans-37" d="M 525 4666 
L 3525 4666 
L 3525 4397 
L 1831 0 
L 1172 0 
L 2766 4134 
L 525 4134 
L 525 4666 
z
" transform="scale(0.015625)"/>
       </defs>
       <use xlink:href="#DejaVuSans-37"/>
       <use xlink:href="#DejaVuSans-30" transform="translate(63.623047 0)"/>
      </g>
     </g>
    </g>
    <g id="xtick_8">
     <g id="line2d_8">
      <g>
       <use xlink:href="#m24e87c411a" x="224.555" y="246.04" style="stroke: #000000; stroke-width: 0.8"/>
      </g>
     </g>
     <g id="text_8">
      <!-- 80 -->
      <g transform="translate(218.1925 260.638438) scale(0.1 -0.1)">
       <defs>
        <path id="DejaVuSans-38" d="M 2034 2216 
Q 1584 2216 1326 1975 
Q 1069 1734 1069 1313 
Q 1069 891 1326 650 
Q 1584 409 2034 409 
Q 2484 409 2743 651 
Q 3003 894 3003 1313 
Q 3003 1734 2745 1975 
Q 2488 2216 2034 2216 
z
M 1403 2484 
Q 997 2584 770 2862 
Q 544 3141 544 3541 
Q 544 4100 942 4425 
Q 1341 4750 2034 4750 
Q 2731 4750 3128 4425 
Q 3525 4100 3525 3541 
Q 3525 3141 3298 2862 
Q 3072 2584 2669 2484 
Q 3125 2378 3379 2068 
Q 3634 1759 3634 1313 
Q 3634 634 3220 271 
Q 2806 -91 2034 -91 
Q 1263 -91 848 271 
Q 434 634 434 1313 
Q 434 1759 690 2068 
Q 947 2378 1403 2484 
z
M 1172 3481 
Q 1172 3119 1398 2916 
Q 1625 2713 2034 2713 
Q 2441 2713 2670 2916 
Q 2900 3119 2900 3481 
Q 2900 3844 2670 4047 
Q 2441 4250 2034 4250 
Q 1625 4250 1398 4047 
Q 1172 3844 1172 3481 
z
" transform="scale(0.015625)"/>
       </defs>
       <use xlink:href="#DejaVuSans-38"/>
       <use xlink:href="#DejaVuSans-30" transform="translate(63.623047 0)"/>
      </g>
     </g>
    </g>
    <g id="xtick_9">
     <g id="line2d_9">
      <g>
       <use xlink:href="#m24e87c411a" x="245.613" y="246.04" style="stroke: #000000; stroke-width: 0.8"/>
      </g>
     </g>
     <g id="text_9">
      <!-- 90 -->
      <g transform="translate(239.2505 260.638438) scale(0.1 -0.1)">
       <defs>
        <path id="DejaVuSans-39" d="M 703 97 
L 703 672 
Q 941 559 1184 500 
Q 1428 441 1663 441 
Q 2288 441 2617 861 
Q 2947 1281 2994 2138 
Q 2813 1869 2534 1725 
Q 2256 1581 1919 1581 
Q 1219 1581 811 2004 
Q 403 2428 403 3163 
Q 403 3881 828 4315 
Q 1253 4750 1959 4750 
Q 2769 4750 3195 4129 
Q 3622 3509 3622 2328 
Q 3622 1225 3098 567 
Q 2575 -91 1691 -91 
Q 1453 -91 1209 -44 
Q 966 3 703 97 
z
M 1959 2075 
Q 2384 2075 2632 2365 
Q 2881 2656 2881 3163 
Q 2881 3666 2632 3958 
Q 2384 4250 1959 4250 
Q 1534 4250 1286 3958 
Q 1038 3666 1038 3163 
Q 1038 2656 1286 2365 
Q 1534 2075 1959 2075 
z
" transform="scale(0.015625)"/>
       </defs>
       <use xlink:href="#DejaVuSans-39"/>
       <use xlink:href="#DejaVuSans-30" transform="translate(63.623047 0)"/>
      </g>
     </g>
    </g>
    <g id="xtick_10">
     <g id="line2d_10">
      <g>
       <use xlink:href="#m24e87c411a" x="266.671" y="246.04" style="stroke: #000000; stroke-width: 0.8"/>
      </g>
     </g>
     <g id="text_10">
      <!-- 100 -->
      <g transform="translate(257.12725 260.638438) scale(0.1 -0.1)">
       <use xlink:href="#DejaVuSans-31"/>
       <use xlink:href="#DejaVuSans-30" transform="translate(63.623047 0)"/>
       <use xlink:href="#DejaVuSans-30" transform="translate(127.246094 0)"/>
      </g>
     </g>
    </g>
    <g id="text_11">
     <!-- Genome Coverage -->
     <g transform="translate(125.238125 274.316562) scale(0.1 -0.1)">
      <defs>
       <path id="DejaVuSans-47" d="M 3809 666 
L 3809 1919 
L 2778 1919 
L 2778 2438 
L 4434 2438 
L 4434 434 
Q 4069 175 3628 42 
Q 3188 -91 2688 -91 
Q 1594 -91 976 548 
Q 359 1188 359 2328 
Q 359 3472 976 4111 
Q 1594 4750 2688 4750 
Q 3144 4750 3555 4637 
Q 3966 4525 4313 4306 
L 4313 3634 
Q 3963 3931 3569 4081 
Q 3175 4231 2741 4231 
Q 1884 4231 1454 3753 
Q 1025 3275 1025 2328 
Q 1025 1384 1454 906 
Q 1884 428 2741 428 
Q 3075 428 3337 486 
Q 3600 544 3809 666 
z
" transform="scale(0.015625)"/>
       <path id="DejaVuSans-65" d="M 3597 1894 
L 3597 1613 
L 953 1613 
Q 991 1019 1311 708 
Q 1631 397 2203 397 
Q 2534 397 2845 478 
Q 3156 559 3463 722 
L 3463 178 
Q 3153 47 2828 -22 
Q 2503 -91 2169 -91 
Q 1331 -91 842 396 
Q 353 884 353 1716 
Q 353 2575 817 3079 
Q 1281 3584 2069 3584 
Q 2775 3584 3186 3129 
Q 3597 2675 3597 1894 
z
M 3022 2063 
Q 3016 2534 2758 2815 
Q 2500 3097 2075 3097 
Q 1594 3097 1305 2825 
Q 1016 2553 972 2059 
L 3022 2063 
z
" transform="scale(0.015625)"/>
       <path id="DejaVuSans-6e" d="M 3513 2113 
L 3513 0 
L 2938 0 
L 2938 2094 
Q 2938 2591 2744 2837 
Q 2550 3084 2163 3084 
Q 1697 3084 1428 2787 
Q 1159 2491 1159 1978 
L 1159 0 
L 581 0 
L 581 3500 
L 1159 3500 
L 1159 2956 
Q 1366 3272 1645 3428 
Q 1925 3584 2291 3584 
Q 2894 3584 3203 3211 
Q 3513 2838 3513 2113 
z
" transform="scale(0.015625)"/>
       <path id="DejaVuSans-6f" d="M 1959 3097 
Q 1497 3097 1228 2736 
Q 959 2375 959 1747 
Q 959 1119 1226 758 
Q 1494 397 1959 397 
Q 2419 397 2687 759 
Q 2956 1122 2956 1747 
Q 2956 2369 2687 2733 
Q 2419 3097 1959 3097 
z
M 1959 3584 
Q 2709 3584 3137 3096 
Q 3566 2609 3566 1747 
Q 3566 888 3137 398 
Q 2709 -91 1959 -91 
Q 1206 -91 779 398 
Q 353 888 353 1747 
Q 353 2609 779 3096 
Q 1206 3584 1959 3584 
z
" transform="scale(0.015625)"/>
       <path id="DejaVuSans-6d" d="M 3328 2828 
Q 3544 3216 3844 3400 
Q 4144 3584 4550 3584 
Q 5097 3584 5394 3201 
Q 5691 2819 5691 2113 
L 5691 0 
L 5113 0 
L 5113 2094 
Q 5113 2597 4934 2840 
Q 4756 3084 4391 3084 
Q 3944 3084 3684 2787 
Q 3425 2491 3425 1978 
L 3425 0 
L 2847 0 
L 2847 2094 
Q 2847 2600 2669 2842 
Q 2491 3084 2119 3084 
Q 1678 3084 1418 2786 
Q 1159 2488 1159 1978 
L 1159 0 
L 581 0 
L 581 3500 
L 1159 3500 
L 1159 2956 
Q 1356 3278 1631 3431 
Q 1906 3584 2284 3584 
Q 2666 3584 2933 3390 
Q 3200 3197 3328 2828 
z
" transform="scale(0.015625)"/>
       <path id="DejaVuSans-20" transform="scale(0.015625)"/>
       <path id="DejaVuSans-43" d="M 4122 4306 
L 4122 3641 
Q 3803 3938 3442 4084 
Q 3081 4231 2675 4231 
Q 1875 4231 1450 3742 
Q 1025 3253 1025 2328 
Q 1025 1406 1450 917 
Q 1875 428 2675 428 
Q 3081 428 3442 575 
Q 3803 722 4122 1019 
L 4122 359 
Q 3791 134 3420 21 
Q 3050 -91 2638 -91 
Q 1578 -91 968 557 
Q 359 1206 359 2328 
Q 359 3453 968 4101 
Q 1578 4750 2638 4750 
Q 3056 4750 3426 4639 
Q 3797 4528 4122 4306 
z
" transform="scale(0.015625)"/>
       <path id="DejaVuSans-76" d="M 191 3500 
L 800 3500 
L 1894 563 
L 2988 3500 
L 3597 3500 
L 2284 0 
L 1503 0 
L 191 3500 
z
" transform="scale(0.015625)"/>
       <path id="DejaVuSans-72" d="M 2631 2963 
Q 2534 3019 2420 3045 
Q 2306 3072 2169 3072 
Q 1681 3072 1420 2755 
Q 1159 2438 1159 1844 
L 1159 0 
L 581 0 
L 581 3500 
L 1159 3500 
L 1159 2956 
Q 1341 3275 1631 3429 
Q 1922 3584 2338 3584 
Q 2397 3584 2469 3576 
Q 2541 3569 2628 3553 
L 2631 2963 
z
" transform="scale(0.015625)"/>
       <path id="DejaVuSans-61" d="M 2194 1759 
Q 1497 1759 1228 1600 
Q 959 1441 959 1056 
Q 959 750 1161 570 
Q 1363 391 1709 391 
Q 2188 391 2477 730 
Q 2766 1069 2766 1631 
L 2766 1759 
L 2194 1759 
z
M 3341 1997 
L 3341 0 
L 2766 0 
L 2766 531 
Q 2569 213 2275 61 
Q 1981 -91 1556 -91 
Q 1019 -91 701 211 
Q 384 513 384 1019 
Q 384 1609 779 1909 
Q 1175 2209 1959 2209 
L 2766 2209 
L 2766 2266 
Q 2766 2663 2505 2880 
Q 2244 3097 1772 3097 
Q 1472 3097 1187 3025 
Q 903 2953 641 2809 
L 641 3341 
Q 956 3463 1253 3523 
Q 1550 3584 1831 3584 
Q 2591 3584 2966 3190 
Q 3341 2797 3341 1997 
z
" transform="scale(0.015625)"/>
       <path id="DejaVuSans-67" d="M 2906 1791 
Q 2906 2416 2648 2759 
Q 2391 3103 1925 3103 
Q 1463 3103 1205 2759 
Q 947 2416 947 1791 
Q 947 1169 1205 825 
Q 1463 481 1925 481 
Q 2391 481 2648 825 
Q 2906 1169 2906 1791 
z
M 3481 434 
Q 3481 -459 3084 -895 
Q 2688 -1331 1869 -1331 
Q 1566 -1331 1297 -1286 
Q 1028 -1241 775 -1147 
L 775 -588 
Q 1028 -725 1275 -790 
Q 1522 -856 1778 -856 
Q 2344 -856 2625 -561 
Q 2906 -266 2906 331 
L 2906 616 
Q 2728 306 2450 153 
Q 2172 0 1784 0 
Q 1141 0 747 490 
Q 353 981 353 1791 
Q 353 2603 747 3093 
Q 1141 3584 1784 3584 
Q 2172 3584 2450 3431 
Q 2728 3278 2906 2969 
L 2906 3500 
L 3481 3500 
L 3481 434 
z
" transform="scale(0.015625)"/>
      </defs>
      <use xlink:href="#DejaVuSans-47"/>
      <use xlink:href="#DejaVuSans-65" transform="translate(77.490234 0)"/>
      <use xlink:href="#DejaVuSans-6e" transform="translate(139.013672 0)"/>
      <use xlink:href="#DejaVuSans-6f" transform="translate(202.392578 0)"/>
      <use xlink:href="#DejaVuSans-6d" transform="translate(263.574219 0)"/>
      <use xlink:href="#DejaVuSans-65" transform="translate(360.986328 0)"/>
      <use xlink:href="#DejaVuSans-20" transform="translate(422.509766 0)"/>
      <use xlink:href="#DejaVuSans-43" transform="translate(454.296875 0)"/>
      <use xlink:href="#DejaVuSans-6f" transform="translate(524.121094 0)"/>
      <use xlink:href="#DejaVuSans-76" transform="translate(585.302734 0)"/>
      <use xlink:href="#DejaVuSans-65" transform="translate(644.482422 0)"/>
      <use xlink:href="#DejaVuSans-72" transform="translate(706.005859 0)"/>
      <use xlink:href="#DejaVuSans-61" transform="translate(747.119141 0)"/>
      <use xlink:href="#DejaVuSans-67" transform="translate(808.398438 0)"/>
      <use xlink:href="#DejaVuSans-65" transform="translate(871.875 0)"/>
     </g>
    </g>
   </g>
   <g id="matplotlib.axis_2">
    <g id="ytick_1">
     <g id="line2d_11">
      <defs>
       <path id="m3376cdb90a" d="M 0 0 
L -3.5 0 
" style="stroke: #000000; stroke-width: 0.8"/>
      </defs>
      <g>
       <use xlink:href="#m3376cdb90a" x="66.62" y="237.046375" style="stroke: #000000; stroke-width: 0.8"/>
      </g>
     </g>
     <g id="text_12">
      <!-- 0.0000 -->
      <g transform="translate(24.629375 240.845594) scale(0.1 -0.1)">
       <defs>
        <path id="DejaVuSans-2e" d="M 684 794 
L 1344 794 
L 1344 0 
L 684 0 
L 684 794 
z
" transform="scale(0.015625)"/>
       </defs>
       <use xlink:href="#DejaVuSans-30"/>
       <use xlink:href="#DejaVuSans-2e" transform="translate(63.623047 0)"/>
       <use xlink:href="#DejaVuSans-30" transform="translate(95.410156 0)"/>
       <use xlink:href="#DejaVuSans-30" transform="translate(159.033203 0)"/>
       <use xlink:href="#DejaVuSans-30" transform="translate(222.65625 0)"/>
       <use xlink:href="#DejaVuSans-30" transform="translate(286.279297 0)"/>
      </g>
     </g>
    </g>
    <g id="ytick_2">
     <g id="line2d_12">
      <g>
       <use xlink:href="#m3376cdb90a" x="66.62" y="211.373491" style="stroke: #000000; stroke-width: 0.8"/>
      </g>
     </g>
     <g id="text_13">
      <!-- 0.0001 -->
      <g transform="translate(24.629375 215.17271) scale(0.1 -0.1)">
       <use xlink:href="#DejaVuSans-30"/>
       <use xlink:href="#DejaVuSans-2e" transform="translate(63.623047 0)"/>
       <use xlink:href="#DejaVuSans-30" transform="translate(95.410156 0)"/>
       <use xlink:href="#DejaVuSans-30" transform="translate(159.033203 0)"/>
       <use xlink:href="#DejaVuSans-30" transform="translate(222.65625 0)"/>
       <use xlink:href="#DejaVuSans-31" transform="translate(286.279297 0)"/>
      </g>
     </g>
    </g>
    <g id="ytick_3">
     <g id="line2d_13">
      <g>
       <use xlink:href="#m3376cdb90a" x="66.62" y="185.700607" style="stroke: #000000; stroke-width: 0.8"/>
      </g>
     </g>
     <g id="text_14">
      <!-- 0.0002 -->
      <g transform="translate(24.629375 189.499826) scale(0.1 -0.1)">
       <use xlink:href="#DejaVuSans-30"/>
       <use xlink:href="#DejaVuSans-2e" transform="translate(63.623047 0)"/>
       <use xlink:href="#DejaVuSans-30" transform="translate(95.410156 0)"/>
       <use xlink:href="#DejaVuSans-30" transform="translate(159.033203 0)"/>
       <use xlink:href="#DejaVuSans-30" transform="translate(222.65625 0)"/>
       <use xlink:href="#DejaVuSans-32" transform="translate(286.279297 0)"/>
      </g>
     </g>
    </g>
    <g id="ytick_4">
     <g id="line2d_14">
      <g>
       <use xlink:href="#m3376cdb90a" x="66.62" y="160.027723" style="stroke: #000000; stroke-width: 0.8"/>
      </g>
     </g>
     <g id="text_15">
      <!-- 0.0003 -->
      <g transform="translate(24.629375 163.826942) scale(0.1 -0.1)">
       <use xlink:href="#DejaVuSans-30"/>
       <use xlink:href="#DejaVuSans-2e" transform="translate(63.623047 0)"/>
       <use xlink:href="#DejaVuSans-30" transform="translate(95.410156 0)"/>
       <use xlink:href="#DejaVuSans-30" transform="translate(159.033203 0)"/>
       <use xlink:href="#DejaVuSans-30" transform="translate(222.65625 0)"/>
       <use xlink:href="#DejaVuSans-33" transform="translate(286.279297 0)"/>
      </g>
     </g>
    </g>
    <g id="ytick_5">
     <g id="line2d_15">
      <g>
       <use xlink:href="#m3376cdb90a" x="66.62" y="134.354839" style="stroke: #000000; stroke-width: 0.8"/>
      </g>
     </g>
     <g id="text_16">
      <!-- 0.0004 -->
      <g transform="translate(24.629375 138.154058) scale(0.1 -0.1)">
       <use xlink:href="#DejaVuSans-30"/>
       <use xlink:href="#DejaVuSans-2e" transform="translate(63.623047 0)"/>
       <use xlink:href="#DejaVuSans-30" transform="translate(95.410156 0)"/>
       <use xlink:href="#DejaVuSans-30" transform="translate(159.033203 0)"/>
       <use xlink:href="#DejaVuSans-30" transform="translate(222.65625 0)"/>
       <use xlink:href="#DejaVuSans-34" transform="translate(286.279297 0)"/>
      </g>
     </g>
    </g>
    <g id="ytick_6">
     <g id="line2d_16">
      <g>
       <use xlink:href="#m3376cdb90a" x="66.62" y="108.681955" style="stroke: #000000; stroke-width: 0.8"/>
      </g>
     </g>
     <g id="text_17">
      <!-- 0.0005 -->
      <g transform="translate(24.629375 112.481174) scale(0.1 -0.1)">
       <use xlink:href="#DejaVuSans-30"/>
       <use xlink:href="#DejaVuSans-2e" transform="translate(63.623047 0)"/>
       <use xlink:href="#DejaVuSans-30" transform="translate(95.410156 0)"/>
       <use xlink:href="#DejaVuSans-30" transform="translate(159.033203 0)"/>
       <use xlink:href="#DejaVuSans-30" transform="translate(222.65625 0)"/>
       <use xlink:href="#DejaVuSans-35" transform="translate(286.279297 0)"/>
      </g>
     </g>
    </g>
    <g id="ytick_7">
     <g id="line2d_17">
      <g>
       <use xlink:href="#m3376cdb90a" x="66.62" y="83.009071" style="stroke: #000000; stroke-width: 0.8"/>
      </g>
     </g>
     <g id="text_18">
      <!-- 0.0006 -->
      <g transform="translate(24.629375 86.80829) scale(0.1 -0.1)">
       <use xlink:href="#DejaVuSans-30"/>
       <use xlink:href="#DejaVuSans-2e" transform="translate(63.623047 0)"/>
       <use xlink:href="#DejaVuSans-30" transform="translate(95.410156 0)"/>
       <use xlink:href="#DejaVuSans-30" transform="translate(159.033203 0)"/>
       <use xlink:href="#DejaVuSans-30" transform="translate(222.65625 0)"/>
       <use xlink:href="#DejaVuSans-36" transform="translate(286.279297 0)"/>
      </g>
     </g>
    </g>
    <g id="ytick_8">
     <g id="line2d_18">
      <g>
       <use xlink:href="#m3376cdb90a" x="66.62" y="57.336187" style="stroke: #000000; stroke-width: 0.8"/>
      </g>
     </g>
     <g id="text_19">
      <!-- 0.0007 -->
      <g transform="translate(24.629375 61.135406) scale(0.1 -0.1)">
       <use xlink:href="#DejaVuSans-30"/>
       <use xlink:href="#DejaVuSans-2e" transform="translate(63.623047 0)"/>
       <use xlink:href="#DejaVuSans-30" transform="translate(95.410156 0)"/>
       <use xlink:href="#DejaVuSans-30" transform="translate(159.033203 0)"/>
       <use xlink:href="#DejaVuSans-30" transform="translate(222.65625 0)"/>
       <use xlink:href="#DejaVuSans-37" transform="translate(286.279297 0)"/>
      </g>
     </g>
    </g>
    <g id="ytick_9">
     <g id="line2d_19">
      <g>
       <use xlink:href="#m3376cdb90a" x="66.62" y="31.663303" style="stroke: #000000; stroke-width: 0.8"/>
      </g>
     </g>
     <g id="text_20">
      <!-- 0.0008 -->
      <g transform="translate(24.629375 35.462522) scale(0.1 -0.1)">
       <use xlink:href="#DejaVuSans-30"/>
       <use xlink:href="#DejaVuSans-2e" transform="translate(63.623047 0)"/>
       <use xlink:href="#DejaVuSans-30" transform="translate(95.410156 0)"/>
       <use xlink:href="#DejaVuSans-30" transform="translate(159.033203 0)"/>
       <use xlink:href="#DejaVuSans-30" transform="translate(222.65625 0)"/>
       <use xlink:href="#DejaVuSans-38" transform="translate(286.279297 0)"/>
      </g>
     </g>
    </g>
    <g id="text_21">
     <!-- Survival rate MSE -->
     <g transform="translate(18.549687 180.601406) rotate(-90) scale(0.1 -0.1)">
      <defs>
       <path id="DejaVuSans-53" d="M 3425 4513 
L 3425 3897 
Q 3066 4069 2747 4153 
Q 2428 4238 2131 4238 
Q 1616 4238 1336 4038 
Q 1056 3838 1056 3469 
Q 1056 3159 1242 3001 
Q 1428 2844 1947 2747 
L 2328 2669 
Q 3034 2534 3370 2195 
Q 3706 1856 3706 1288 
Q 3706 609 3251 259 
Q 2797 -91 1919 -91 
Q 1588 -91 1214 -16 
Q 841 59 441 206 
L 441 856 
Q 825 641 1194 531 
Q 1563 422 1919 422 
Q 2459 422 2753 634 
Q 3047 847 3047 1241 
Q 3047 1584 2836 1778 
Q 2625 1972 2144 2069 
L 1759 2144 
Q 1053 2284 737 2584 
Q 422 2884 422 3419 
Q 422 4038 858 4394 
Q 1294 4750 2059 4750 
Q 2388 4750 2728 4690 
Q 3069 4631 3425 4513 
z
" transform="scale(0.015625)"/>
       <path id="DejaVuSans-75" d="M 544 1381 
L 544 3500 
L 1119 3500 
L 1119 1403 
Q 1119 906 1312 657 
Q 1506 409 1894 409 
Q 2359 409 2629 706 
Q 2900 1003 2900 1516 
L 2900 3500 
L 3475 3500 
L 3475 0 
L 2900 0 
L 2900 538 
Q 2691 219 2414 64 
Q 2138 -91 1772 -91 
Q 1169 -91 856 284 
Q 544 659 544 1381 
z
M 1991 3584 
L 1991 3584 
z
" transform="scale(0.015625)"/>
       <path id="DejaVuSans-69" d="M 603 3500 
L 1178 3500 
L 1178 0 
L 603 0 
L 603 3500 
z
M 603 4863 
L 1178 4863 
L 1178 4134 
L 603 4134 
L 603 4863 
z
" transform="scale(0.015625)"/>
       <path id="DejaVuSans-6c" d="M 603 4863 
L 1178 4863 
L 1178 0 
L 603 0 
L 603 4863 
z
" transform="scale(0.015625)"/>
       <path id="DejaVuSans-74" d="M 1172 4494 
L 1172 3500 
L 2356 3500 
L 2356 3053 
L 1172 3053 
L 1172 1153 
Q 1172 725 1289 603 
Q 1406 481 1766 481 
L 2356 481 
L 2356 0 
L 1766 0 
Q 1100 0 847 248 
Q 594 497 594 1153 
L 594 3053 
L 172 3053 
L 172 3500 
L 594 3500 
L 594 4494 
L 1172 4494 
z
" transform="scale(0.015625)"/>
       <path id="DejaVuSans-4d" d="M 628 4666 
L 1569 4666 
L 2759 1491 
L 3956 4666 
L 4897 4666 
L 4897 0 
L 4281 0 
L 4281 4097 
L 3078 897 
L 2444 897 
L 1241 4097 
L 1241 0 
L 628 0 
L 628 4666 
z
" transform="scale(0.015625)"/>
       <path id="DejaVuSans-45" d="M 628 4666 
L 3578 4666 
L 3578 4134 
L 1259 4134 
L 1259 2753 
L 3481 2753 
L 3481 2222 
L 1259 2222 
L 1259 531 
L 3634 531 
L 3634 0 
L 628 0 
L 628 4666 
z
" transform="scale(0.015625)"/>
      </defs>
      <use xlink:href="#DejaVuSans-53"/>
      <use xlink:href="#DejaVuSans-75" transform="translate(63.476562 0)"/>
      <use xlink:href="#DejaVuSans-72" transform="translate(126.855469 0)"/>
      <use xlink:href="#DejaVuSans-76" transform="translate(167.96875 0)"/>
      <use xlink:href="#DejaVuSans-69" transform="translate(227.148438 0)"/>
      <use xlink:href="#DejaVuSans-76" transform="translate(254.931641 0)"/>
      <use xlink:href="#DejaVuSans-61" transform="translate(314.111328 0)"/>
      <use xlink:href="#DejaVuSans-6c" transform="translate(375.390625 0)"/>
      <use xlink:href="#DejaVuSans-20" transform="translate(403.173828 0)"/>
      <use xlink:href="#DejaVuSans-72" transform="translate(434.960938 0)"/>
      <use xlink:href="#DejaVuSans-61" transform="translate(476.074219 0)"/>
      <use xlink:href="#DejaVuSans-74" transform="translate(537.353516 0)"/>
      <use xlink:href="#DejaVuSans-65" transform="translate(576.5625 0)"/>
      <use xlink:href="#DejaVuSans-20" transform="translate(638.085938 0)"/>
      <use xlink:href="#DejaVuSans-4d" transform="translate(669.873047 0)"/>
      <use xlink:href="#DejaVuSans-53" transform="translate(756.152344 0)"/>
      <use xlink:href="#DejaVuSans-45" transform="translate(819.628906 0)"/>
     </g>
    </g>
   </g>
   <g id="line2d_20">
    <path d="M 69.56812 127.158653 
L 76.30668 127.158653 
L 76.30668 72.120836 
L 69.56812 72.120836 
L 69.56812 127.158653 
" clip-path="url(#pcf5207e201)" style="fill: none; stroke: #cd5c5c; stroke-width: 2; stroke-linecap: square"/>
   </g>
   <g id="line2d_21">
    <path d="M 72.9374 127.158653 
L 72.9374 207.09527 
" clip-path="url(#pcf5207e201)" style="fill: none; stroke: #cd5c5c; stroke-width: 2"/>
   </g>
   <g id="line2d_22">
    <path d="M 72.9374 72.120836 
L 72.9374 36.841818 
" clip-path="url(#pcf5207e201)" style="fill: none; stroke: #cd5c5c; stroke-width: 2"/>
   </g>
   <g id="line2d_23">
    <path d="M 71.25276 207.09527 
L 74.62204 207.09527 
" clip-path="url(#pcf5207e201)" style="fill: none; stroke: #cd5c5c; stroke-width: 2; stroke-linecap: square"/>
   </g>
   <g id="line2d_24">
    <path d="M 71.25276 36.841818 
L 74.62204 36.841818 
" clip-path="url(#pcf5207e201)" style="fill: none; stroke: #cd5c5c; stroke-width: 2; stroke-linecap: square"/>
   </g>
   <g id="line2d_25"/>
   <g id="line2d_26">
    <path d="M 90.62612 231.750604 
L 97.36468 231.750604 
L 97.36468 223.29197 
L 90.62612 223.29197 
L 90.62612 231.750604 
" clip-path="url(#pcf5207e201)" style="fill: none; stroke: #cd5c5c; stroke-width: 2; stroke-linecap: square"/>
   </g>
   <g id="line2d_27">
    <path d="M 93.9954 231.750604 
L 93.9954 232.890919 
" clip-path="url(#pcf5207e201)" style="fill: none; stroke: #cd5c5c; stroke-width: 2"/>
   </g>
   <g id="line2d_28">
    <path d="M 93.9954 223.29197 
L 93.9954 220.207739 
" clip-path="url(#pcf5207e201)" style="fill: none; stroke: #cd5c5c; stroke-width: 2"/>
   </g>
   <g id="line2d_29">
    <path d="M 92.31076 232.890919 
L 95.68004 232.890919 
" clip-path="url(#pcf5207e201)" style="fill: none; stroke: #cd5c5c; stroke-width: 2; stroke-linecap: square"/>
   </g>
   <g id="line2d_30">
    <path d="M 92.31076 220.207739 
L 95.68004 220.207739 
" clip-path="url(#pcf5207e201)" style="fill: none; stroke: #cd5c5c; stroke-width: 2; stroke-linecap: square"/>
   </g>
   <g id="line2d_31">
    <defs>
     <path id="mc4adb9dfd8" d="M 0 3 
C 0.795609 3 1.55874 2.683901 2.12132 2.12132 
C 2.683901 1.55874 3 0.795609 3 0 
C 3 -0.795609 2.683901 -1.55874 2.12132 -2.12132 
C 1.55874 -2.683901 0.795609 -3 0 -3 
C -0.795609 -3 -1.55874 -2.683901 -2.12132 -2.12132 
C -2.683901 -1.55874 -3 -0.795609 -3 0 
C -3 0.795609 -2.683901 1.55874 -2.12132 2.12132 
C -1.55874 2.683901 -0.795609 3 0 3 
z
" style="stroke: #cd5c5c"/>
    </defs>
    <g clip-path="url(#pcf5207e201)">
     <use xlink:href="#mc4adb9dfd8" x="93.9954" y="200.909118" style="fill-opacity: 0; stroke: #cd5c5c"/>
    </g>
   </g>
   <g id="line2d_32">
    <path d="M 111.68412 232.043362 
L 118.42268 232.043362 
L 118.42268 229.625241 
L 111.68412 229.625241 
L 111.68412 232.043362 
" clip-path="url(#pcf5207e201)" style="fill: none; stroke: #cd5c5c; stroke-width: 2; stroke-linecap: square"/>
   </g>
   <g id="line2d_33">
    <path d="M 115.0534 232.043362 
L 115.0534 234.156866 
" clip-path="url(#pcf5207e201)" style="fill: none; stroke: #cd5c5c; stroke-width: 2"/>
   </g>
   <g id="line2d_34">
    <path d="M 115.0534 229.625241 
L 115.0534 227.596624 
" clip-path="url(#pcf5207e201)" style="fill: none; stroke: #cd5c5c; stroke-width: 2"/>
   </g>
   <g id="line2d_35">
    <path d="M 113.36876 234.156866 
L 116.73804 234.156866 
" clip-path="url(#pcf5207e201)" style="fill: none; stroke: #cd5c5c; stroke-width: 2; stroke-linecap: square"/>
   </g>
   <g id="line2d_36">
    <path d="M 113.36876 227.596624 
L 116.73804 227.596624 
" clip-path="url(#pcf5207e201)" style="fill: none; stroke: #cd5c5c; stroke-width: 2; stroke-linecap: square"/>
   </g>
   <g id="line2d_37"/>
   <g id="line2d_38">
    <path d="M 132.74212 232.817361 
L 139.48068 232.817361 
L 139.48068 228.256801 
L 132.74212 228.256801 
L 132.74212 232.817361 
" clip-path="url(#pcf5207e201)" style="fill: none; stroke: #cd5c5c; stroke-width: 2; stroke-linecap: square"/>
   </g>
   <g id="line2d_39">
    <path d="M 136.1114 232.817361 
L 136.1114 233.850723 
" clip-path="url(#pcf5207e201)" style="fill: none; stroke: #cd5c5c; stroke-width: 2"/>
   </g>
   <g id="line2d_40">
    <path d="M 136.1114 228.256801 
L 136.1114 222.58877 
" clip-path="url(#pcf5207e201)" style="fill: none; stroke: #cd5c5c; stroke-width: 2"/>
   </g>
   <g id="line2d_41">
    <path d="M 134.42676 233.850723 
L 137.79604 233.850723 
" clip-path="url(#pcf5207e201)" style="fill: none; stroke: #cd5c5c; stroke-width: 2; stroke-linecap: square"/>
   </g>
   <g id="line2d_42">
    <path d="M 134.42676 222.58877 
L 137.79604 222.58877 
" clip-path="url(#pcf5207e201)" style="fill: none; stroke: #cd5c5c; stroke-width: 2; stroke-linecap: square"/>
   </g>
   <g id="line2d_43"/>
   <g id="line2d_44">
    <path d="M 153.80012 233.209051 
L 160.53868 233.209051 
L 160.53868 224.888852 
L 153.80012 224.888852 
L 153.80012 233.209051 
" clip-path="url(#pcf5207e201)" style="fill: none; stroke: #cd5c5c; stroke-width: 2; stroke-linecap: square"/>
   </g>
   <g id="line2d_45">
    <path d="M 157.1694 233.209051 
L 157.1694 234.678592 
" clip-path="url(#pcf5207e201)" style="fill: none; stroke: #cd5c5c; stroke-width: 2"/>
   </g>
   <g id="line2d_46">
    <path d="M 157.1694 224.888852 
L 157.1694 213.04655 
" clip-path="url(#pcf5207e201)" style="fill: none; stroke: #cd5c5c; stroke-width: 2"/>
   </g>
   <g id="line2d_47">
    <path d="M 155.48476 234.678592 
L 158.85404 234.678592 
" clip-path="url(#pcf5207e201)" style="fill: none; stroke: #cd5c5c; stroke-width: 2; stroke-linecap: square"/>
   </g>
   <g id="line2d_48">
    <path d="M 155.48476 213.04655 
L 158.85404 213.04655 
" clip-path="url(#pcf5207e201)" style="fill: none; stroke: #cd5c5c; stroke-width: 2; stroke-linecap: square"/>
   </g>
   <g id="line2d_49">
    <g clip-path="url(#pcf5207e201)">
     <use xlink:href="#mc4adb9dfd8" x="157.1694" y="210.796872" style="fill-opacity: 0; stroke: #cd5c5c"/>
    </g>
   </g>
   <g id="line2d_50">
    <path d="M 174.85812 229.34124 
L 181.59668 229.34124 
L 181.59668 226.267695 
L 174.85812 226.267695 
L 174.85812 229.34124 
" clip-path="url(#pcf5207e201)" style="fill: none; stroke: #cd5c5c; stroke-width: 2; stroke-linecap: square"/>
   </g>
   <g id="line2d_51">
    <path d="M 178.2274 229.34124 
L 178.2274 231.64097 
" clip-path="url(#pcf5207e201)" style="fill: none; stroke: #cd5c5c; stroke-width: 2"/>
   </g>
   <g id="line2d_52">
    <path d="M 178.2274 226.267695 
L 178.2274 222.659706 
" clip-path="url(#pcf5207e201)" style="fill: none; stroke: #cd5c5c; stroke-width: 2"/>
   </g>
   <g id="line2d_53">
    <path d="M 176.54276 231.64097 
L 179.91204 231.64097 
" clip-path="url(#pcf5207e201)" style="fill: none; stroke: #cd5c5c; stroke-width: 2; stroke-linecap: square"/>
   </g>
   <g id="line2d_54">
    <path d="M 176.54276 222.659706 
L 179.91204 222.659706 
" clip-path="url(#pcf5207e201)" style="fill: none; stroke: #cd5c5c; stroke-width: 2; stroke-linecap: square"/>
   </g>
   <g id="line2d_55"/>
   <g id="line2d_56">
    <path d="M 195.91612 227.804191 
L 202.65468 227.804191 
L 202.65468 222.353617 
L 195.91612 222.353617 
L 195.91612 227.804191 
" clip-path="url(#pcf5207e201)" style="fill: none; stroke: #cd5c5c; stroke-width: 2; stroke-linecap: square"/>
   </g>
   <g id="line2d_57">
    <path d="M 199.2854 227.804191 
L 199.2854 230.633856 
" clip-path="url(#pcf5207e201)" style="fill: none; stroke: #cd5c5c; stroke-width: 2"/>
   </g>
   <g id="line2d_58">
    <path d="M 199.2854 222.353617 
L 199.2854 218.045456 
" clip-path="url(#pcf5207e201)" style="fill: none; stroke: #cd5c5c; stroke-width: 2"/>
   </g>
   <g id="line2d_59">
    <path d="M 197.60076 230.633856 
L 200.97004 230.633856 
" clip-path="url(#pcf5207e201)" style="fill: none; stroke: #cd5c5c; stroke-width: 2; stroke-linecap: square"/>
   </g>
   <g id="line2d_60">
    <path d="M 197.60076 218.045456 
L 200.97004 218.045456 
" clip-path="url(#pcf5207e201)" style="fill: none; stroke: #cd5c5c; stroke-width: 2; stroke-linecap: square"/>
   </g>
   <g id="line2d_61"/>
   <g id="line2d_62">
    <path d="M 216.97412 227.522157 
L 223.71268 227.522157 
L 223.71268 225.160028 
L 216.97412 225.160028 
L 216.97412 227.522157 
" clip-path="url(#pcf5207e201)" style="fill: none; stroke: #cd5c5c; stroke-width: 2; stroke-linecap: square"/>
   </g>
   <g id="line2d_63">
    <path d="M 220.3434 227.522157 
L 220.3434 230.059284 
" clip-path="url(#pcf5207e201)" style="fill: none; stroke: #cd5c5c; stroke-width: 2"/>
   </g>
   <g id="line2d_64">
    <path d="M 220.3434 225.160028 
L 220.3434 222.62769 
" clip-path="url(#pcf5207e201)" style="fill: none; stroke: #cd5c5c; stroke-width: 2"/>
   </g>
   <g id="line2d_65">
    <path d="M 218.65876 230.059284 
L 222.02804 230.059284 
" clip-path="url(#pcf5207e201)" style="fill: none; stroke: #cd5c5c; stroke-width: 2; stroke-linecap: square"/>
   </g>
   <g id="line2d_66">
    <path d="M 218.65876 222.62769 
L 222.02804 222.62769 
" clip-path="url(#pcf5207e201)" style="fill: none; stroke: #cd5c5c; stroke-width: 2; stroke-linecap: square"/>
   </g>
   <g id="line2d_67">
    <g clip-path="url(#pcf5207e201)">
     <use xlink:href="#mc4adb9dfd8" x="220.3434" y="220.163675" style="fill-opacity: 0; stroke: #cd5c5c"/>
    </g>
   </g>
   <g id="line2d_68">
    <path d="M 238.03212 227.005905 
L 244.77068 227.005905 
L 244.77068 219.832305 
L 238.03212 219.832305 
L 238.03212 227.005905 
" clip-path="url(#pcf5207e201)" style="fill: none; stroke: #cd5c5c; stroke-width: 2; stroke-linecap: square"/>
   </g>
   <g id="line2d_69">
    <path d="M 241.4014 227.005905 
L 241.4014 228.249272 
" clip-path="url(#pcf5207e201)" style="fill: none; stroke: #cd5c5c; stroke-width: 2"/>
   </g>
   <g id="line2d_70">
    <path d="M 241.4014 219.832305 
L 241.4014 213.805853 
" clip-path="url(#pcf5207e201)" style="fill: none; stroke: #cd5c5c; stroke-width: 2"/>
   </g>
   <g id="line2d_71">
    <path d="M 239.71676 228.249272 
L 243.08604 228.249272 
" clip-path="url(#pcf5207e201)" style="fill: none; stroke: #cd5c5c; stroke-width: 2; stroke-linecap: square"/>
   </g>
   <g id="line2d_72">
    <path d="M 239.71676 213.805853 
L 243.08604 213.805853 
" clip-path="url(#pcf5207e201)" style="fill: none; stroke: #cd5c5c; stroke-width: 2; stroke-linecap: square"/>
   </g>
   <g id="line2d_73"/>
   <g id="line2d_74">
    <path d="M 259.09012 224.449208 
L 265.82868 224.449208 
L 265.82868 221.375559 
L 259.09012 221.375559 
L 259.09012 224.449208 
" clip-path="url(#pcf5207e201)" style="fill: none; stroke: #cd5c5c; stroke-width: 2; stroke-linecap: square"/>
   </g>
   <g id="line2d_75">
    <path d="M 262.4594 224.449208 
L 262.4594 228.605247 
" clip-path="url(#pcf5207e201)" style="fill: none; stroke: #cd5c5c; stroke-width: 2"/>
   </g>
   <g id="line2d_76">
    <path d="M 262.4594 221.375559 
L 262.4594 218.669789 
" clip-path="url(#pcf5207e201)" style="fill: none; stroke: #cd5c5c; stroke-width: 2"/>
   </g>
   <g id="line2d_77">
    <path d="M 260.77476 228.605247 
L 264.14404 228.605247 
" clip-path="url(#pcf5207e201)" style="fill: none; stroke: #cd5c5c; stroke-width: 2; stroke-linecap: square"/>
   </g>
   <g id="line2d_78">
    <path d="M 260.77476 218.669789 
L 264.14404 218.669789 
" clip-path="url(#pcf5207e201)" style="fill: none; stroke: #cd5c5c; stroke-width: 2; stroke-linecap: square"/>
   </g>
   <g id="line2d_79">
    <g clip-path="url(#pcf5207e201)">
     <use xlink:href="#mc4adb9dfd8" x="262.4594" y="215.589357" style="fill-opacity: 0; stroke: #cd5c5c"/>
    </g>
   </g>
   <g id="line2d_80">
    <path d="M 77.99132 227.564512 
L 84.72988 227.564512 
L 84.72988 214.456903 
L 77.99132 214.456903 
L 77.99132 227.564512 
" clip-path="url(#pcf5207e201)" style="fill: none; stroke: #daa520; stroke-width: 2; stroke-linecap: square"/>
   </g>
   <g id="line2d_81">
    <path d="M 81.3606 227.564512 
L 81.3606 235.224824 
" clip-path="url(#pcf5207e201)" style="fill: none; stroke: #daa520; stroke-width: 2"/>
   </g>
   <g id="line2d_82">
    <path d="M 81.3606 214.456903 
L 81.3606 211.932239 
" clip-path="url(#pcf5207e201)" style="fill: none; stroke: #daa520; stroke-width: 2"/>
   </g>
   <g id="line2d_83">
    <path d="M 79.67596 235.224824 
L 83.04524 235.224824 
" clip-path="url(#pcf5207e201)" style="fill: none; stroke: #daa520; stroke-width: 2; stroke-linecap: square"/>
   </g>
   <g id="line2d_84">
    <path d="M 79.67596 211.932239 
L 83.04524 211.932239 
" clip-path="url(#pcf5207e201)" style="fill: none; stroke: #daa520; stroke-width: 2; stroke-linecap: square"/>
   </g>
   <g id="line2d_85">
    <defs>
     <path id="m79cd3cc366" d="M 0 3 
C 0.795609 3 1.55874 2.683901 2.12132 2.12132 
C 2.683901 1.55874 3 0.795609 3 0 
C 3 -0.795609 2.683901 -1.55874 2.12132 -2.12132 
C 1.55874 -2.683901 0.795609 -3 0 -3 
C -0.795609 -3 -1.55874 -2.683901 -2.12132 -2.12132 
C -2.683901 -1.55874 -3 -0.795609 -3 0 
C -3 0.795609 -2.683901 1.55874 -2.12132 2.12132 
C -1.55874 2.683901 -0.795609 3 0 3 
z
" style="stroke: #daa520"/>
    </defs>
    <g clip-path="url(#pcf5207e201)">
     <use xlink:href="#m79cd3cc366" x="81.3606" y="180.844423" style="fill-opacity: 0; stroke: #daa520"/>
    </g>
   </g>
   <g id="line2d_86">
    <path d="M 99.04932 231.72512 
L 105.78788 231.72512 
L 105.78788 215.849136 
L 99.04932 215.849136 
L 99.04932 231.72512 
" clip-path="url(#pcf5207e201)" style="fill: none; stroke: #daa520; stroke-width: 2; stroke-linecap: square"/>
   </g>
   <g id="line2d_87">
    <path d="M 102.4186 231.72512 
L 102.4186 236.078182 
" clip-path="url(#pcf5207e201)" style="fill: none; stroke: #daa520; stroke-width: 2"/>
   </g>
   <g id="line2d_88">
    <path d="M 102.4186 215.849136 
L 102.4186 209.131018 
" clip-path="url(#pcf5207e201)" style="fill: none; stroke: #daa520; stroke-width: 2"/>
   </g>
   <g id="line2d_89">
    <path d="M 100.73396 236.078182 
L 104.10324 236.078182 
" clip-path="url(#pcf5207e201)" style="fill: none; stroke: #daa520; stroke-width: 2; stroke-linecap: square"/>
   </g>
   <g id="line2d_90">
    <path d="M 100.73396 209.131018 
L 104.10324 209.131018 
" clip-path="url(#pcf5207e201)" style="fill: none; stroke: #daa520; stroke-width: 2; stroke-linecap: square"/>
   </g>
   <g id="line2d_91"/>
   <g id="line2d_92">
    <path d="M 120.10732 228.969681 
L 126.84588 228.969681 
L 126.84588 216.693908 
L 120.10732 216.693908 
L 120.10732 228.969681 
" clip-path="url(#pcf5207e201)" style="fill: none; stroke: #daa520; stroke-width: 2; stroke-linecap: square"/>
   </g>
   <g id="line2d_93">
    <path d="M 123.4766 228.969681 
L 123.4766 232.540627 
" clip-path="url(#pcf5207e201)" style="fill: none; stroke: #daa520; stroke-width: 2"/>
   </g>
   <g id="line2d_94">
    <path d="M 123.4766 216.693908 
L 123.4766 209.673924 
" clip-path="url(#pcf5207e201)" style="fill: none; stroke: #daa520; stroke-width: 2"/>
   </g>
   <g id="line2d_95">
    <path d="M 121.79196 232.540627 
L 125.16124 232.540627 
" clip-path="url(#pcf5207e201)" style="fill: none; stroke: #daa520; stroke-width: 2; stroke-linecap: square"/>
   </g>
   <g id="line2d_96">
    <path d="M 121.79196 209.673924 
L 125.16124 209.673924 
" clip-path="url(#pcf5207e201)" style="fill: none; stroke: #daa520; stroke-width: 2; stroke-linecap: square"/>
   </g>
   <g id="line2d_97"/>
   <g id="line2d_98">
    <path d="M 141.16532 222.446059 
L 147.90388 222.446059 
L 147.90388 216.799401 
L 141.16532 216.799401 
L 141.16532 222.446059 
" clip-path="url(#pcf5207e201)" style="fill: none; stroke: #daa520; stroke-width: 2; stroke-linecap: square"/>
   </g>
   <g id="line2d_99">
    <path d="M 144.5346 222.446059 
L 144.5346 226.828101 
" clip-path="url(#pcf5207e201)" style="fill: none; stroke: #daa520; stroke-width: 2"/>
   </g>
   <g id="line2d_100">
    <path d="M 144.5346 216.799401 
L 144.5346 211.273075 
" clip-path="url(#pcf5207e201)" style="fill: none; stroke: #daa520; stroke-width: 2"/>
   </g>
   <g id="line2d_101">
    <path d="M 142.84996 226.828101 
L 146.21924 226.828101 
" clip-path="url(#pcf5207e201)" style="fill: none; stroke: #daa520; stroke-width: 2; stroke-linecap: square"/>
   </g>
   <g id="line2d_102">
    <path d="M 142.84996 211.273075 
L 146.21924 211.273075 
" clip-path="url(#pcf5207e201)" style="fill: none; stroke: #daa520; stroke-width: 2; stroke-linecap: square"/>
   </g>
   <g id="line2d_103">
    <g clip-path="url(#pcf5207e201)">
     <use xlink:href="#m79cd3cc366" x="144.5346" y="204.890925" style="fill-opacity: 0; stroke: #daa520"/>
    </g>
   </g>
   <g id="line2d_104">
    <path d="M 162.22332 229.118344 
L 168.96188 229.118344 
L 168.96188 218.68831 
L 162.22332 218.68831 
L 162.22332 229.118344 
" clip-path="url(#pcf5207e201)" style="fill: none; stroke: #daa520; stroke-width: 2; stroke-linecap: square"/>
   </g>
   <g id="line2d_105">
    <path d="M 165.5926 229.118344 
L 165.5926 231.855651 
" clip-path="url(#pcf5207e201)" style="fill: none; stroke: #daa520; stroke-width: 2"/>
   </g>
   <g id="line2d_106">
    <path d="M 165.5926 218.68831 
L 165.5926 203.235821 
" clip-path="url(#pcf5207e201)" style="fill: none; stroke: #daa520; stroke-width: 2"/>
   </g>
   <g id="line2d_107">
    <path d="M 163.90796 231.855651 
L 167.27724 231.855651 
" clip-path="url(#pcf5207e201)" style="fill: none; stroke: #daa520; stroke-width: 2; stroke-linecap: square"/>
   </g>
   <g id="line2d_108">
    <path d="M 163.90796 203.235821 
L 167.27724 203.235821 
" clip-path="url(#pcf5207e201)" style="fill: none; stroke: #daa520; stroke-width: 2; stroke-linecap: square"/>
   </g>
   <g id="line2d_109"/>
   <g id="line2d_110">
    <path d="M 183.28132 225.170388 
L 190.01988 225.170388 
L 190.01988 220.540233 
L 183.28132 220.540233 
L 183.28132 225.170388 
" clip-path="url(#pcf5207e201)" style="fill: none; stroke: #daa520; stroke-width: 2; stroke-linecap: square"/>
   </g>
   <g id="line2d_111">
    <path d="M 186.6506 225.170388 
L 186.6506 229.903852 
" clip-path="url(#pcf5207e201)" style="fill: none; stroke: #daa520; stroke-width: 2"/>
   </g>
   <g id="line2d_112">
    <path d="M 186.6506 220.540233 
L 186.6506 217.62566 
" clip-path="url(#pcf5207e201)" style="fill: none; stroke: #daa520; stroke-width: 2"/>
   </g>
   <g id="line2d_113">
    <path d="M 184.96596 229.903852 
L 188.33524 229.903852 
" clip-path="url(#pcf5207e201)" style="fill: none; stroke: #daa520; stroke-width: 2; stroke-linecap: square"/>
   </g>
   <g id="line2d_114">
    <path d="M 184.96596 217.62566 
L 188.33524 217.62566 
" clip-path="url(#pcf5207e201)" style="fill: none; stroke: #daa520; stroke-width: 2; stroke-linecap: square"/>
   </g>
   <g id="line2d_115"/>
   <g id="line2d_116">
    <path d="M 204.33932 225.415298 
L 211.07788 225.415298 
L 211.07788 219.266558 
L 204.33932 219.266558 
L 204.33932 225.415298 
" clip-path="url(#pcf5207e201)" style="fill: none; stroke: #daa520; stroke-width: 2; stroke-linecap: square"/>
   </g>
   <g id="line2d_117">
    <path d="M 207.7086 225.415298 
L 207.7086 227.903661 
" clip-path="url(#pcf5207e201)" style="fill: none; stroke: #daa520; stroke-width: 2"/>
   </g>
   <g id="line2d_118">
    <path d="M 207.7086 219.266558 
L 207.7086 216.235136 
" clip-path="url(#pcf5207e201)" style="fill: none; stroke: #daa520; stroke-width: 2"/>
   </g>
   <g id="line2d_119">
    <path d="M 206.02396 227.903661 
L 209.39324 227.903661 
" clip-path="url(#pcf5207e201)" style="fill: none; stroke: #daa520; stroke-width: 2; stroke-linecap: square"/>
   </g>
   <g id="line2d_120">
    <path d="M 206.02396 216.235136 
L 209.39324 216.235136 
" clip-path="url(#pcf5207e201)" style="fill: none; stroke: #daa520; stroke-width: 2; stroke-linecap: square"/>
   </g>
   <g id="line2d_121"/>
   <g id="line2d_122">
    <path d="M 225.39732 225.854739 
L 232.13588 225.854739 
L 232.13588 221.89153 
L 225.39732 221.89153 
L 225.39732 225.854739 
" clip-path="url(#pcf5207e201)" style="fill: none; stroke: #daa520; stroke-width: 2; stroke-linecap: square"/>
   </g>
   <g id="line2d_123">
    <path d="M 228.7666 225.854739 
L 228.7666 227.894129 
" clip-path="url(#pcf5207e201)" style="fill: none; stroke: #daa520; stroke-width: 2"/>
   </g>
   <g id="line2d_124">
    <path d="M 228.7666 221.89153 
L 228.7666 217.397979 
" clip-path="url(#pcf5207e201)" style="fill: none; stroke: #daa520; stroke-width: 2"/>
   </g>
   <g id="line2d_125">
    <path d="M 227.08196 227.894129 
L 230.45124 227.894129 
" clip-path="url(#pcf5207e201)" style="fill: none; stroke: #daa520; stroke-width: 2; stroke-linecap: square"/>
   </g>
   <g id="line2d_126">
    <path d="M 227.08196 217.397979 
L 230.45124 217.397979 
" clip-path="url(#pcf5207e201)" style="fill: none; stroke: #daa520; stroke-width: 2; stroke-linecap: square"/>
   </g>
   <g id="line2d_127"/>
   <g id="line2d_128">
    <path d="M 246.45532 225.627577 
L 253.19388 225.627577 
L 253.19388 219.930962 
L 246.45532 219.930962 
L 246.45532 225.627577 
" clip-path="url(#pcf5207e201)" style="fill: none; stroke: #daa520; stroke-width: 2; stroke-linecap: square"/>
   </g>
   <g id="line2d_129">
    <path d="M 249.8246 225.627577 
L 249.8246 226.671346 
" clip-path="url(#pcf5207e201)" style="fill: none; stroke: #daa520; stroke-width: 2"/>
   </g>
   <g id="line2d_130">
    <path d="M 249.8246 219.930962 
L 249.8246 212.391165 
" clip-path="url(#pcf5207e201)" style="fill: none; stroke: #daa520; stroke-width: 2"/>
   </g>
   <g id="line2d_131">
    <path d="M 248.13996 226.671346 
L 251.50924 226.671346 
" clip-path="url(#pcf5207e201)" style="fill: none; stroke: #daa520; stroke-width: 2; stroke-linecap: square"/>
   </g>
   <g id="line2d_132">
    <path d="M 248.13996 212.391165 
L 251.50924 212.391165 
" clip-path="url(#pcf5207e201)" style="fill: none; stroke: #daa520; stroke-width: 2; stroke-linecap: square"/>
   </g>
   <g id="line2d_133"/>
   <g id="line2d_134">
    <path d="M 267.51332 223.143608 
L 274.25188 223.143608 
L 274.25188 219.377977 
L 267.51332 219.377977 
L 267.51332 223.143608 
" clip-path="url(#pcf5207e201)" style="fill: none; stroke: #daa520; stroke-width: 2; stroke-linecap: square"/>
   </g>
   <g id="line2d_135">
    <path d="M 270.8826 223.143608 
L 270.8826 228.41756 
" clip-path="url(#pcf5207e201)" style="fill: none; stroke: #daa520; stroke-width: 2"/>
   </g>
   <g id="line2d_136">
    <path d="M 270.8826 219.377977 
L 270.8826 215.615796 
" clip-path="url(#pcf5207e201)" style="fill: none; stroke: #daa520; stroke-width: 2"/>
   </g>
   <g id="line2d_137">
    <path d="M 269.19796 228.41756 
L 272.56724 228.41756 
" clip-path="url(#pcf5207e201)" style="fill: none; stroke: #daa520; stroke-width: 2; stroke-linecap: square"/>
   </g>
   <g id="line2d_138">
    <path d="M 269.19796 215.615796 
L 272.56724 215.615796 
" clip-path="url(#pcf5207e201)" style="fill: none; stroke: #daa520; stroke-width: 2; stroke-linecap: square"/>
   </g>
   <g id="line2d_139"/>
   <g id="line2d_140">
    <path d="M 69.56812 105.52792 
L 76.30668 105.52792 
" clip-path="url(#pcf5207e201)" style="fill: none; stroke: #cd5c5c; stroke-width: 2"/>
   </g>
   <g id="line2d_141">
    <path d="M 90.62612 227.531004 
L 97.36468 227.531004 
" clip-path="url(#pcf5207e201)" style="fill: none; stroke: #cd5c5c; stroke-width: 2"/>
   </g>
   <g id="line2d_142">
    <path d="M 111.68412 229.835744 
L 118.42268 229.835744 
" clip-path="url(#pcf5207e201)" style="fill: none; stroke: #cd5c5c; stroke-width: 2"/>
   </g>
   <g id="line2d_143">
    <path d="M 132.74212 230.352852 
L 139.48068 230.352852 
" clip-path="url(#pcf5207e201)" style="fill: none; stroke: #cd5c5c; stroke-width: 2"/>
   </g>
   <g id="line2d_144">
    <path d="M 153.80012 228.850602 
L 160.53868 228.850602 
" clip-path="url(#pcf5207e201)" style="fill: none; stroke: #cd5c5c; stroke-width: 2"/>
   </g>
   <g id="line2d_145">
    <path d="M 174.85812 228.050756 
L 181.59668 228.050756 
" clip-path="url(#pcf5207e201)" style="fill: none; stroke: #cd5c5c; stroke-width: 2"/>
   </g>
   <g id="line2d_146">
    <path d="M 195.91612 226.442566 
L 202.65468 226.442566 
" clip-path="url(#pcf5207e201)" style="fill: none; stroke: #cd5c5c; stroke-width: 2"/>
   </g>
   <g id="line2d_147">
    <path d="M 216.97412 227.028024 
L 223.71268 227.028024 
" clip-path="url(#pcf5207e201)" style="fill: none; stroke: #cd5c5c; stroke-width: 2"/>
   </g>
   <g id="line2d_148">
    <path d="M 238.03212 226.747578 
L 244.77068 226.747578 
" clip-path="url(#pcf5207e201)" style="fill: none; stroke: #cd5c5c; stroke-width: 2"/>
   </g>
   <g id="line2d_149">
    <path d="M 259.09012 222.494211 
L 265.82868 222.494211 
" clip-path="url(#pcf5207e201)" style="fill: none; stroke: #cd5c5c; stroke-width: 2"/>
   </g>
   <g id="line2d_150">
    <path d="M 77.99132 223.196335 
L 84.72988 223.196335 
" clip-path="url(#pcf5207e201)" style="fill: none; stroke: #daa520; stroke-width: 2"/>
   </g>
   <g id="line2d_151">
    <path d="M 99.04932 229.90831 
L 105.78788 229.90831 
" clip-path="url(#pcf5207e201)" style="fill: none; stroke: #daa520; stroke-width: 2"/>
   </g>
   <g id="line2d_152">
    <path d="M 120.10732 221.412736 
L 126.84588 221.412736 
" clip-path="url(#pcf5207e201)" style="fill: none; stroke: #daa520; stroke-width: 2"/>
   </g>
   <g id="line2d_153">
    <path d="M 141.16532 218.363826 
L 147.90388 218.363826 
" clip-path="url(#pcf5207e201)" style="fill: none; stroke: #daa520; stroke-width: 2"/>
   </g>
   <g id="line2d_154">
    <path d="M 162.22332 224.888053 
L 168.96188 224.888053 
" clip-path="url(#pcf5207e201)" style="fill: none; stroke: #daa520; stroke-width: 2"/>
   </g>
   <g id="line2d_155">
    <path d="M 183.28132 223.883051 
L 190.01988 223.883051 
" clip-path="url(#pcf5207e201)" style="fill: none; stroke: #daa520; stroke-width: 2"/>
   </g>
   <g id="line2d_156">
    <path d="M 204.33932 221.595569 
L 211.07788 221.595569 
" clip-path="url(#pcf5207e201)" style="fill: none; stroke: #daa520; stroke-width: 2"/>
   </g>
   <g id="line2d_157">
    <path d="M 225.39732 223.868016 
L 232.13588 223.868016 
" clip-path="url(#pcf5207e201)" style="fill: none; stroke: #daa520; stroke-width: 2"/>
   </g>
   <g id="line2d_158">
    <path d="M 246.45532 224.283241 
L 253.19388 224.283241 
" clip-path="url(#pcf5207e201)" style="fill: none; stroke: #daa520; stroke-width: 2"/>
   </g>
   <g id="line2d_159">
    <path d="M 267.51332 222.490189 
L 274.25188 222.490189 
" clip-path="url(#pcf5207e201)" style="fill: none; stroke: #daa520; stroke-width: 2"/>
   </g>
   <g id="patch_5">
    <path d="M 66.62 246.04 
L 66.62 26.88 
" style="fill: none; stroke: #000000; stroke-width: 0.8; stroke-linejoin: miter; stroke-linecap: square"/>
   </g>
   <g id="patch_6">
    <path d="M 66.62 246.04 
L 277.2 246.04 
" style="fill: none; stroke: #000000; stroke-width: 0.8; stroke-linejoin: miter; stroke-linecap: square"/>
   </g>
   <g id="text_22">
    <!-- skiver results at 96% read identity -->
    <g transform="translate(68.535625 20.88) scale(0.12 -0.12)">
     <defs>
      <path id="DejaVuSans-73" d="M 2834 3397 
L 2834 2853 
Q 2591 2978 2328 3040 
Q 2066 3103 1784 3103 
Q 1356 3103 1142 2972 
Q 928 2841 928 2578 
Q 928 2378 1081 2264 
Q 1234 2150 1697 2047 
L 1894 2003 
Q 2506 1872 2764 1633 
Q 3022 1394 3022 966 
Q 3022 478 2636 193 
Q 2250 -91 1575 -91 
Q 1294 -91 989 -36 
Q 684 19 347 128 
L 347 722 
Q 666 556 975 473 
Q 1284 391 1588 391 
Q 1994 391 2212 530 
Q 2431 669 2431 922 
Q 2431 1156 2273 1281 
Q 2116 1406 1581 1522 
L 1381 1569 
Q 847 1681 609 1914 
Q 372 2147 372 2553 
Q 372 3047 722 3315 
Q 1072 3584 1716 3584 
Q 2034 3584 2315 3537 
Q 2597 3491 2834 3397 
z
" transform="scale(0.015625)"/>
      <path id="DejaVuSans-6b" d="M 581 4863 
L 1159 4863 
L 1159 1991 
L 2875 3500 
L 3609 3500 
L 1753 1863 
L 3688 0 
L 2938 0 
L 1159 1709 
L 1159 0 
L 581 0 
L 581 4863 
z
" transform="scale(0.015625)"/>
      <path id="DejaVuSans-25" d="M 4653 2053 
Q 4381 2053 4226 1822 
Q 4072 1591 4072 1178 
Q 4072 772 4226 539 
Q 4381 306 4653 306 
Q 4919 306 5073 539 
Q 5228 772 5228 1178 
Q 5228 1588 5073 1820 
Q 4919 2053 4653 2053 
z
M 4653 2450 
Q 5147 2450 5437 2106 
Q 5728 1763 5728 1178 
Q 5728 594 5436 251 
Q 5144 -91 4653 -91 
Q 4153 -91 3862 251 
Q 3572 594 3572 1178 
Q 3572 1766 3864 2108 
Q 4156 2450 4653 2450 
z
M 1428 4353 
Q 1159 4353 1004 4120 
Q 850 3888 850 3481 
Q 850 3069 1003 2837 
Q 1156 2606 1428 2606 
Q 1700 2606 1854 2837 
Q 2009 3069 2009 3481 
Q 2009 3884 1853 4118 
Q 1697 4353 1428 4353 
z
M 4250 4750 
L 4750 4750 
L 1831 -91 
L 1331 -91 
L 4250 4750 
z
M 1428 4750 
Q 1922 4750 2215 4408 
Q 2509 4066 2509 3481 
Q 2509 2891 2217 2550 
Q 1925 2209 1428 2209 
Q 931 2209 642 2551 
Q 353 2894 353 3481 
Q 353 4063 643 4406 
Q 934 4750 1428 4750 
z
" transform="scale(0.015625)"/>
      <path id="DejaVuSans-64" d="M 2906 2969 
L 2906 4863 
L 3481 4863 
L 3481 0 
L 2906 0 
L 2906 525 
Q 2725 213 2448 61 
Q 2172 -91 1784 -91 
Q 1150 -91 751 415 
Q 353 922 353 1747 
Q 353 2572 751 3078 
Q 1150 3584 1784 3584 
Q 2172 3584 2448 3432 
Q 2725 3281 2906 2969 
z
M 947 1747 
Q 947 1113 1208 752 
Q 1469 391 1925 391 
Q 2381 391 2643 752 
Q 2906 1113 2906 1747 
Q 2906 2381 2643 2742 
Q 2381 3103 1925 3103 
Q 1469 3103 1208 2742 
Q 947 2381 947 1747 
z
" transform="scale(0.015625)"/>
      <path id="DejaVuSans-79" d="M 2059 -325 
Q 1816 -950 1584 -1140 
Q 1353 -1331 966 -1331 
L 506 -1331 
L 506 -850 
L 844 -850 
Q 1081 -850 1212 -737 
Q 1344 -625 1503 -206 
L 1606 56 
L 191 3500 
L 800 3500 
L 1894 763 
L 2988 3500 
L 3597 3500 
L 2059 -325 
z
" transform="scale(0.015625)"/>
     </defs>
     <use xlink:href="#DejaVuSans-73"/>
     <use xlink:href="#DejaVuSans-6b" transform="translate(52.099609 0)"/>
     <use xlink:href="#DejaVuSans-69" transform="translate(110.009766 0)"/>
     <use xlink:href="#DejaVuSans-76" transform="translate(137.792969 0)"/>
     <use xlink:href="#DejaVuSans-65" transform="translate(196.972656 0)"/>
     <use xlink:href="#DejaVuSans-72" transform="translate(258.496094 0)"/>
     <use xlink:href="#DejaVuSans-20" transform="translate(299.609375 0)"/>
     <use xlink:href="#DejaVuSans-72" transform="translate(331.396484 0)"/>
     <use xlink:href="#DejaVuSans-65" transform="translate(370.259766 0)"/>
     <use xlink:href="#DejaVuSans-73" transform="translate(431.783203 0)"/>
     <use xlink:href="#DejaVuSans-75" transform="translate(483.882812 0)"/>
     <use xlink:href="#DejaVuSans-6c" transform="translate(547.261719 0)"/>
     <use xlink:href="#DejaVuSans-74" transform="translate(575.044922 0)"/>
     <use xlink:href="#DejaVuSans-73" transform="translate(614.253906 0)"/>
     <use xlink:href="#DejaVuSans-20" transform="translate(666.353516 0)"/>
     <use xlink:href="#DejaVuSans-61" transform="translate(698.140625 0)"/>
     <use xlink:href="#DejaVuSans-74" transform="translate(759.419922 0)"/>
     <use xlink:href="#DejaVuSans-20" transform="translate(798.628906 0)"/>
     <use xlink:href="#DejaVuSans-39" transform="translate(830.416016 0)"/>
     <use xlink:href="#DejaVuSans-36" transform="translate(894.039062 0)"/>
     <use xlink:href="#DejaVuSans-25" transform="translate(957.662109 0)"/>
     <use xlink:href="#DejaVuSans-20" transform="translate(1052.681641 0)"/>
     <use xlink:href="#DejaVuSans-72" transform="translate(1084.46875 0)"/>
     <use xlink:href="#DejaVuSans-65" transform="translate(1123.332031 0)"/>
     <use xlink:href="#DejaVuSans-61" transform="translate(1184.855469 0)"/>
     <use xlink:href="#DejaVuSans-64" transform="translate(1246.134766 0)"/>
     <use xlink:href="#DejaVuSans-20" transform="translate(1309.611328 0)"/>
     <use xlink:href="#DejaVuSans-69" transform="translate(1341.398438 0)"/>
     <use xlink:href="#DejaVuSans-64" transform="translate(1369.181641 0)"/>
     <use xlink:href="#DejaVuSans-65" transform="translate(1432.658203 0)"/>
     <use xlink:href="#DejaVuSans-6e" transform="translate(1494.181641 0)"/>
     <use xlink:href="#DejaVuSans-74" transform="translate(1557.560547 0)"/>
     <use xlink:href="#DejaVuSans-69" transform="translate(1596.769531 0)"/>
     <use xlink:href="#DejaVuSans-74" transform="translate(1624.552734 0)"/>
     <use xlink:href="#DejaVuSans-79" transform="translate(1663.761719 0)"/>
    </g>
   </g>
   <g id="legend_1">
    <g id="patch_7">
     <path d="M 148.20625 64.23625 
L 270.2 64.23625 
Q 272.2 64.23625 272.2 62.23625 
L 272.2 33.88 
Q 272.2 31.88 270.2 31.88 
L 148.20625 31.88 
Q 146.20625 31.88 146.20625 33.88 
L 146.20625 62.23625 
Q 146.20625 64.23625 148.20625 64.23625 
z
" style="fill: #ffffff; opacity: 0.8; stroke: #cccccc; stroke-linejoin: miter"/>
    </g>
    <g id="patch_8">
     <path d="M 150.20625 43.478438 
L 170.20625 43.478438 
L 170.20625 36.478438 
L 150.20625 36.478438 
L 150.20625 43.478438 
z
" style="fill: none; stroke: #cd5c5c; stroke-width: 2; stroke-linejoin: miter"/>
    </g>
    <g id="text_23">
     <!-- Without reference -->
     <g transform="translate(178.20625 43.478438) scale(0.1 -0.1)">
      <defs>
       <path id="DejaVuSans-57" d="M 213 4666 
L 850 4666 
L 1831 722 
L 2809 4666 
L 3519 4666 
L 4500 722 
L 5478 4666 
L 6119 4666 
L 4947 0 
L 4153 0 
L 3169 4050 
L 2175 0 
L 1381 0 
L 213 4666 
z
" transform="scale(0.015625)"/>
       <path id="DejaVuSans-68" d="M 3513 2113 
L 3513 0 
L 2938 0 
L 2938 2094 
Q 2938 2591 2744 2837 
Q 2550 3084 2163 3084 
Q 1697 3084 1428 2787 
Q 1159 2491 1159 1978 
L 1159 0 
L 581 0 
L 581 4863 
L 1159 4863 
L 1159 2956 
Q 1366 3272 1645 3428 
Q 1925 3584 2291 3584 
Q 2894 3584 3203 3211 
Q 3513 2838 3513 2113 
z
" transform="scale(0.015625)"/>
       <path id="DejaVuSans-66" d="M 2375 4863 
L 2375 4384 
L 1825 4384 
Q 1516 4384 1395 4259 
Q 1275 4134 1275 3809 
L 1275 3500 
L 2222 3500 
L 2222 3053 
L 1275 3053 
L 1275 0 
L 697 0 
L 697 3053 
L 147 3053 
L 147 3500 
L 697 3500 
L 697 3744 
Q 697 4328 969 4595 
Q 1241 4863 1831 4863 
L 2375 4863 
z
" transform="scale(0.015625)"/>
       <path id="DejaVuSans-63" d="M 3122 3366 
L 3122 2828 
Q 2878 2963 2633 3030 
Q 2388 3097 2138 3097 
Q 1578 3097 1268 2742 
Q 959 2388 959 1747 
Q 959 1106 1268 751 
Q 1578 397 2138 397 
Q 2388 397 2633 464 
Q 2878 531 3122 666 
L 3122 134 
Q 2881 22 2623 -34 
Q 2366 -91 2075 -91 
Q 1284 -91 818 406 
Q 353 903 353 1747 
Q 353 2603 823 3093 
Q 1294 3584 2113 3584 
Q 2378 3584 2631 3529 
Q 2884 3475 3122 3366 
z
" transform="scale(0.015625)"/>
      </defs>
      <use xlink:href="#DejaVuSans-57"/>
      <use xlink:href="#DejaVuSans-69" transform="translate(96.626953 0)"/>
      <use xlink:href="#DejaVuSans-74" transform="translate(124.410156 0)"/>
      <use xlink:href="#DejaVuSans-68" transform="translate(163.619141 0)"/>
      <use xlink:href="#DejaVuSans-6f" transform="translate(226.998047 0)"/>
      <use xlink:href="#DejaVuSans-75" transform="translate(288.179688 0)"/>
      <use xlink:href="#DejaVuSans-74" transform="translate(351.558594 0)"/>
      <use xlink:href="#DejaVuSans-20" transform="translate(390.767578 0)"/>
      <use xlink:href="#DejaVuSans-72" transform="translate(422.554688 0)"/>
      <use xlink:href="#DejaVuSans-65" transform="translate(461.417969 0)"/>
      <use xlink:href="#DejaVuSans-66" transform="translate(522.941406 0)"/>
      <use xlink:href="#DejaVuSans-65" transform="translate(558.146484 0)"/>
      <use xlink:href="#DejaVuSans-72" transform="translate(619.669922 0)"/>
      <use xlink:href="#DejaVuSans-65" transform="translate(658.533203 0)"/>
      <use xlink:href="#DejaVuSans-6e" transform="translate(720.056641 0)"/>
      <use xlink:href="#DejaVuSans-63" transform="translate(783.435547 0)"/>
      <use xlink:href="#DejaVuSans-65" transform="translate(838.416016 0)"/>
     </g>
    </g>
    <g id="patch_9">
     <path d="M 150.20625 58.156563 
L 170.20625 58.156563 
L 170.20625 51.156563 
L 150.20625 51.156563 
L 150.20625 58.156563 
z
" style="fill: none; stroke: #daa520; stroke-width: 2; stroke-linejoin: miter"/>
    </g>
    <g id="text_24">
     <!-- With reference -->
     <g transform="translate(178.20625 58.156563) scale(0.1 -0.1)">
      <use xlink:href="#DejaVuSans-57"/>
      <use xlink:href="#DejaVuSans-69" transform="translate(96.626953 0)"/>
      <use xlink:href="#DejaVuSans-74" transform="translate(124.410156 0)"/>
      <use xlink:href="#DejaVuSans-68" transform="translate(163.619141 0)"/>
      <use xlink:href="#DejaVuSans-20" transform="translate(226.998047 0)"/>
      <use xlink:href="#DejaVuSans-72" transform="translate(258.785156 0)"/>
      <use xlink:href="#DejaVuSans-65" transform="translate(297.648438 0)"/>
      <use xlink:href="#DejaVuSans-66" transform="translate(359.171875 0)"/>
      <use xlink:href="#DejaVuSans-65" transform="translate(394.376953 0)"/>
      <use xlink:href="#DejaVuSans-72" transform="translate(455.900391 0)"/>
      <use xlink:href="#DejaVuSans-65" transform="translate(494.763672 0)"/>
      <use xlink:href="#DejaVuSans-6e" transform="translate(556.287109 0)"/>
      <use xlink:href="#DejaVuSans-63" transform="translate(619.666016 0)"/>
      <use xlink:href="#DejaVuSans-65" transform="translate(674.646484 0)"/>
     </g>
    </g>
   </g>
  </g>
 </g>
 <defs>
  <clipPath id="pcf5207e201">
   <rect x="66.62" y="26.88" width="210.58" height="219.16"/>
  </clipPath>
 </defs>
</svg>
