<?xml version="1.0" encoding="utf-8" standalone="no"?>
<!DOCTYPE svg PUBLIC "-//W3C//DTD SVG 1.1//EN"
  "http://www.w3.org/Graphics/SVG/1.1/DTD/svg11.dtd">
<svg xmlns:xlink="http://www.w3.org/1999/xlink" width="288pt" height="288pt" viewBox="0 0 288 288" xmlns="http://www.w3.org/2000/svg" version="1.1">
 <metadata>
  <rdf:RDF xmlns:dc="http://purl.org/dc/elements/1.1/" xmlns:cc="http://creativecommons.org/ns#" xmlns:rdf="http://www.w3.org/1999/02/22-rdf-syntax-ns#">
   <cc:Work>
    <dc:type rdf:resource="http://purl.org/dc/dcmitype/StillImage"/>
    <dc:date>2026-01-14T14:39:19.990282</dc:date>
    <dc:format>image/svg+xml</dc:format>
    <dc:creator>
     <cc:Agent>
      <dc:title>Matplotlib v3.10.7, https://matplotlib.org/</dc:title>
     </cc:Agent>
    </dc:creator>
   </cc:Work>
  </rdf:RDF>
 </metadata>
 <defs>
  <style type="text/css">*{stroke-linejoin: round; stroke-linecap: butt}</style>
 </defs>
 <g id="figure_1">
  <g id="patch_1">
   <path d="M 0 288 
L 288 288 
L 288 0 
L 0 0 
z
" style="fill: #ffffff"/>
  </g>
  <g id="axes_1">
   <g id="patch_2">
    <path d="M 55.46 246.04 
L 277.2 246.04 
L 277.2 28.32 
L 55.46 28.32 
z
" style="fill: #ffffff"/>
   </g>
   <g id="patch_3">
    <path d="M 78.226058 236.143636 
L 78.226058 236.143636 
L 78.226058 236.143636 
L 78.226058 236.143636 
L 78.226058 236.143636 
z
" clip-path="url(#pc454ac7208)" style="fill: none; stroke: #cd5c5c; stroke-width: 2; stroke-linejoin: miter"/>
   </g>
   <g id="patch_4">
    <path d="M 78.226058 236.143636 
L 78.226058 236.143636 
L 78.226058 236.143636 
L 78.226058 236.143636 
L 78.226058 236.143636 
z
" clip-path="url(#pc454ac7208)" style="fill: none; stroke: #daa520; stroke-width: 2; stroke-linejoin: miter"/>
   </g>
   <g id="matplotlib.axis_1">
    <g id="xtick_1">
     <g id="line2d_1">
      <defs>
       <path id="mf525a07b59" d="M 0 0 
L 0 3.5 
" style="stroke: #000000; stroke-width: 0.8"/>
      </defs>
      <g>
       <use xlink:href="#mf525a07b59" x="78.226058" y="246.04" style="stroke: #000000; stroke-width: 0.8"/>
      </g>
     </g>
     <g id="text_1">
      <!-- 90 -->
      <g transform="translate(71.863558 260.638438) scale(0.1 -0.1)">
       <defs>
        <path id="DejaVuSans-39" d="M 703 97 
L 703 672 
Q 941 559 1184 500 
Q 1428 441 1663 441 
Q 2288 441 2617 861 
Q 2947 1281 2994 2138 
Q 2813 1869 2534 1725 
Q 2256 1581 1919 1581 
Q 1219 1581 811 2004 
Q 403 2428 403 3163 
Q 403 3881 828 4315 
Q 1253 4750 1959 4750 
Q 2769 4750 3195 4129 
Q 3622 3509 3622 2328 
Q 3622 1225 3098 567 
Q 2575 -91 1691 -91 
Q 1453 -91 1209 -44 
Q 966 3 703 97 
z
M 1959 2075 
Q 2384 2075 2632 2365 
Q 2881 2656 2881 3163 
Q 2881 3666 2632 3958 
Q 2384 4250 1959 4250 
Q 1534 4250 1286 3958 
Q 1038 3666 1038 3163 
Q 1038 2656 1286 2365 
Q 1534 2075 1959 2075 
z
" transform="scale(0.015625)"/>
        <path id="DejaVuSans-30" d="M 2034 4250 
Q 1547 4250 1301 3770 
Q 1056 3291 1056 2328 
Q 1056 1369 1301 889 
Q 1547 409 2034 409 
Q 2525 409 2770 889 
Q 3016 1369 3016 2328 
Q 3016 3291 2770 3770 
Q 2525 4250 2034 4250 
z
M 2034 4750 
Q 2819 4750 3233 4129 
Q 3647 3509 3647 2328 
Q 3647 1150 3233 529 
Q 2819 -91 2034 -91 
Q 1250 -91 836 529 
Q 422 1150 422 2328 
Q 422 3509 836 4129 
Q 1250 4750 2034 4750 
z
" transform="scale(0.015625)"/>
       </defs>
       <use xlink:href="#DejaVuSans-39"/>
       <use xlink:href="#DejaVuSans-30" transform="translate(63.623047 0)"/>
      </g>
     </g>
    </g>
    <g id="xtick_2">
     <g id="line2d_2">
      <g>
       <use xlink:href="#mf525a07b59" x="113.467635" y="246.04" style="stroke: #000000; stroke-width: 0.8"/>
      </g>
     </g>
     <g id="text_2">
      <!-- 92 -->
      <g transform="translate(107.105135 260.638438) scale(0.1 -0.1)">
       <defs>
        <path id="DejaVuSans-32" d="M 1228 531 
L 3431 531 
L 3431 0 
L 469 0 
L 469 531 
Q 828 903 1448 1529 
Q 2069 2156 2228 2338 
Q 2531 2678 2651 2914 
Q 2772 3150 2772 3378 
Q 2772 3750 2511 3984 
Q 2250 4219 1831 4219 
Q 1534 4219 1204 4116 
Q 875 4013 500 3803 
L 500 4441 
Q 881 4594 1212 4672 
Q 1544 4750 1819 4750 
Q 2544 4750 2975 4387 
Q 3406 4025 3406 3419 
Q 3406 3131 3298 2873 
Q 3191 2616 2906 2266 
Q 2828 2175 2409 1742 
Q 1991 1309 1228 531 
z
" transform="scale(0.015625)"/>
       </defs>
       <use xlink:href="#DejaVuSans-39"/>
       <use xlink:href="#DejaVuSans-32" transform="translate(63.623047 0)"/>
      </g>
     </g>
    </g>
    <g id="xtick_3">
     <g id="line2d_3">
      <g>
       <use xlink:href="#mf525a07b59" x="148.709212" y="246.04" style="stroke: #000000; stroke-width: 0.8"/>
      </g>
     </g>
     <g id="text_3">
      <!-- 94 -->
      <g transform="translate(142.346712 260.638438) scale(0.1 -0.1)">
       <defs>
        <path id="DejaVuSans-34" d="M 2419 4116 
L 825 1625 
L 2419 1625 
L 2419 4116 
z
M 2253 4666 
L 3047 4666 
L 3047 1625 
L 3713 1625 
L 3713 1100 
L 3047 1100 
L 3047 0 
L 2419 0 
L 2419 1100 
L 313 1100 
L 313 1709 
L 2253 4666 
z
" transform="scale(0.015625)"/>
       </defs>
       <use xlink:href="#DejaVuSans-39"/>
       <use xlink:href="#DejaVuSans-34" transform="translate(63.623047 0)"/>
      </g>
     </g>
    </g>
    <g id="xtick_4">
     <g id="line2d_4">
      <g>
       <use xlink:href="#mf525a07b59" x="183.950788" y="246.04" style="stroke: #000000; stroke-width: 0.8"/>
      </g>
     </g>
     <g id="text_4">
      <!-- 96 -->
      <g transform="translate(177.588288 260.638438) scale(0.1 -0.1)">
       <defs>
        <path id="DejaVuSans-36" d="M 2113 2584 
Q 1688 2584 1439 2293 
Q 1191 2003 1191 1497 
Q 1191 994 1439 701 
Q 1688 409 2113 409 
Q 2538 409 2786 701 
Q 3034 994 3034 1497 
Q 3034 2003 2786 2293 
Q 2538 2584 2113 2584 
z
M 3366 4563 
L 3366 3988 
Q 3128 4100 2886 4159 
Q 2644 4219 2406 4219 
Q 1781 4219 1451 3797 
Q 1122 3375 1075 2522 
Q 1259 2794 1537 2939 
Q 1816 3084 2150 3084 
Q 2853 3084 3261 2657 
Q 3669 2231 3669 1497 
Q 3669 778 3244 343 
Q 2819 -91 2113 -91 
Q 1303 -91 875 529 
Q 447 1150 447 2328 
Q 447 3434 972 4092 
Q 1497 4750 2381 4750 
Q 2619 4750 2861 4703 
Q 3103 4656 3366 4563 
z
" transform="scale(0.015625)"/>
       </defs>
       <use xlink:href="#DejaVuSans-39"/>
       <use xlink:href="#DejaVuSans-36" transform="translate(63.623047 0)"/>
      </g>
     </g>
    </g>
    <g id="xtick_5">
     <g id="line2d_5">
      <g>
       <use xlink:href="#mf525a07b59" x="219.192365" y="246.04" style="stroke: #000000; stroke-width: 0.8"/>
      </g>
     </g>
     <g id="text_5">
      <!-- 98 -->
      <g transform="translate(212.829865 260.638438) scale(0.1 -0.1)">
       <defs>
        <path id="DejaVuSans-38" d="M 2034 2216 
Q 1584 2216 1326 1975 
Q 1069 1734 1069 1313 
Q 1069 891 1326 650 
Q 1584 409 2034 409 
Q 2484 409 2743 651 
Q 3003 894 3003 1313 
Q 3003 1734 2745 1975 
Q 2488 2216 2034 2216 
z
M 1403 2484 
Q 997 2584 770 2862 
Q 544 3141 544 3541 
Q 544 4100 942 4425 
Q 1341 4750 2034 4750 
Q 2731 4750 3128 4425 
Q 3525 4100 3525 3541 
Q 3525 3141 3298 2862 
Q 3072 2584 2669 2484 
Q 3125 2378 3379 2068 
Q 3634 1759 3634 1313 
Q 3634 634 3220 271 
Q 2806 -91 2034 -91 
Q 1263 -91 848 271 
Q 434 634 434 1313 
Q 434 1759 690 2068 
Q 947 2378 1403 2484 
z
M 1172 3481 
Q 1172 3119 1398 2916 
Q 1625 2713 2034 2713 
Q 2441 2713 2670 2916 
Q 2900 3119 2900 3481 
Q 2900 3844 2670 4047 
Q 2441 4250 2034 4250 
Q 1625 4250 1398 4047 
Q 1172 3844 1172 3481 
z
" transform="scale(0.015625)"/>
       </defs>
       <use xlink:href="#DejaVuSans-39"/>
       <use xlink:href="#DejaVuSans-38" transform="translate(63.623047 0)"/>
      </g>
     </g>
    </g>
    <g id="xtick_6">
     <g id="line2d_6">
      <g>
       <use xlink:href="#mf525a07b59" x="254.433942" y="246.04" style="stroke: #000000; stroke-width: 0.8"/>
      </g>
     </g>
     <g id="text_6">
      <!-- 100 -->
      <g transform="translate(244.890192 260.638438) scale(0.1 -0.1)">
       <defs>
        <path id="DejaVuSans-31" d="M 794 531 
L 1825 531 
L 1825 4091 
L 703 3866 
L 703 4441 
L 1819 4666 
L 2450 4666 
L 2450 531 
L 3481 531 
L 3481 0 
L 794 0 
L 794 531 
z
" transform="scale(0.015625)"/>
       </defs>
       <use xlink:href="#DejaVuSans-31"/>
       <use xlink:href="#DejaVuSans-30" transform="translate(63.623047 0)"/>
       <use xlink:href="#DejaVuSans-30" transform="translate(127.246094 0)"/>
      </g>
     </g>
    </g>
    <g id="text_7">
     <!-- BadRead read identity (%) -->
     <g transform="translate(100.3425 274.316562) scale(0.1 -0.1)">
      <defs>
       <path id="DejaVuSans-42" d="M 1259 2228 
L 1259 519 
L 2272 519 
Q 2781 519 3026 730 
Q 3272 941 3272 1375 
Q 3272 1813 3026 2020 
Q 2781 2228 2272 2228 
L 1259 2228 
z
M 1259 4147 
L 1259 2741 
L 2194 2741 
Q 2656 2741 2882 2914 
Q 3109 3088 3109 3444 
Q 3109 3797 2882 3972 
Q 2656 4147 2194 4147 
L 1259 4147 
z
M 628 4666 
L 2241 4666 
Q 2963 4666 3353 4366 
Q 3744 4066 3744 3513 
Q 3744 3084 3544 2831 
Q 3344 2578 2956 2516 
Q 3422 2416 3680 2098 
Q 3938 1781 3938 1306 
Q 3938 681 3513 340 
Q 3088 0 2303 0 
L 628 0 
L 628 4666 
z
" transform="scale(0.015625)"/>
       <path id="DejaVuSans-61" d="M 2194 1759 
Q 1497 1759 1228 1600 
Q 959 1441 959 1056 
Q 959 750 1161 570 
Q 1363 391 1709 391 
Q 2188 391 2477 730 
Q 2766 1069 2766 1631 
L 2766 1759 
L 2194 1759 
z
M 3341 1997 
L 3341 0 
L 2766 0 
L 2766 531 
Q 2569 213 2275 61 
Q 1981 -91 1556 -91 
Q 1019 -91 701 211 
Q 384 513 384 1019 
Q 384 1609 779 1909 
Q 1175 2209 1959 2209 
L 2766 2209 
L 2766 2266 
Q 2766 2663 2505 2880 
Q 2244 3097 1772 3097 
Q 1472 3097 1187 3025 
Q 903 2953 641 2809 
L 641 3341 
Q 956 3463 1253 3523 
Q 1550 3584 1831 3584 
Q 2591 3584 2966 3190 
Q 3341 2797 3341 1997 
z
" transform="scale(0.015625)"/>
       <path id="DejaVuSans-64" d="M 2906 2969 
L 2906 4863 
L 3481 4863 
L 3481 0 
L 2906 0 
L 2906 525 
Q 2725 213 2448 61 
Q 2172 -91 1784 -91 
Q 1150 -91 751 415 
Q 353 922 353 1747 
Q 353 2572 751 3078 
Q 1150 3584 1784 3584 
Q 2172 3584 2448 3432 
Q 2725 3281 2906 2969 
z
M 947 1747 
Q 947 1113 1208 752 
Q 1469 391 1925 391 
Q 2381 391 2643 752 
Q 2906 1113 2906 1747 
Q 2906 2381 2643 2742 
Q 2381 3103 1925 3103 
Q 1469 3103 1208 2742 
Q 947 2381 947 1747 
z
" transform="scale(0.015625)"/>
       <path id="DejaVuSans-52" d="M 2841 2188 
Q 3044 2119 3236 1894 
Q 3428 1669 3622 1275 
L 4263 0 
L 3584 0 
L 2988 1197 
Q 2756 1666 2539 1819 
Q 2322 1972 1947 1972 
L 1259 1972 
L 1259 0 
L 628 0 
L 628 4666 
L 2053 4666 
Q 2853 4666 3247 4331 
Q 3641 3997 3641 3322 
Q 3641 2881 3436 2590 
Q 3231 2300 2841 2188 
z
M 1259 4147 
L 1259 2491 
L 2053 2491 
Q 2509 2491 2742 2702 
Q 2975 2913 2975 3322 
Q 2975 3731 2742 3939 
Q 2509 4147 2053 4147 
L 1259 4147 
z
" transform="scale(0.015625)"/>
       <path id="DejaVuSans-65" d="M 3597 1894 
L 3597 1613 
L 953 1613 
Q 991 1019 1311 708 
Q 1631 397 2203 397 
Q 2534 397 2845 478 
Q 3156 559 3463 722 
L 3463 178 
Q 3153 47 2828 -22 
Q 2503 -91 2169 -91 
Q 1331 -91 842 396 
Q 353 884 353 1716 
Q 353 2575 817 3079 
Q 1281 3584 2069 3584 
Q 2775 3584 3186 3129 
Q 3597 2675 3597 1894 
z
M 3022 2063 
Q 3016 2534 2758 2815 
Q 2500 3097 2075 3097 
Q 1594 3097 1305 2825 
Q 1016 2553 972 2059 
L 3022 2063 
z
" transform="scale(0.015625)"/>
       <path id="DejaVuSans-20" transform="scale(0.015625)"/>
       <path id="DejaVuSans-72" d="M 2631 2963 
Q 2534 3019 2420 3045 
Q 2306 3072 2169 3072 
Q 1681 3072 1420 2755 
Q 1159 2438 1159 1844 
L 1159 0 
L 581 0 
L 581 3500 
L 1159 3500 
L 1159 2956 
Q 1341 3275 1631 3429 
Q 1922 3584 2338 3584 
Q 2397 3584 2469 3576 
Q 2541 3569 2628 3553 
L 2631 2963 
z
" transform="scale(0.015625)"/>
       <path id="DejaVuSans-69" d="M 603 3500 
L 1178 3500 
L 1178 0 
L 603 0 
L 603 3500 
z
M 603 4863 
L 1178 4863 
L 1178 4134 
L 603 4134 
L 603 4863 
z
" transform="scale(0.015625)"/>
       <path id="DejaVuSans-6e" d="M 3513 2113 
L 3513 0 
L 2938 0 
L 2938 2094 
Q 2938 2591 2744 2837 
Q 2550 3084 2163 3084 
Q 1697 3084 1428 2787 
Q 1159 2491 1159 1978 
L 1159 0 
L 581 0 
L 581 3500 
L 1159 3500 
L 1159 2956 
Q 1366 3272 1645 3428 
Q 1925 3584 2291 3584 
Q 2894 3584 3203 3211 
Q 3513 2838 3513 2113 
z
" transform="scale(0.015625)"/>
       <path id="DejaVuSans-74" d="M 1172 4494 
L 1172 3500 
L 2356 3500 
L 2356 3053 
L 1172 3053 
L 1172 1153 
Q 1172 725 1289 603 
Q 1406 481 1766 481 
L 2356 481 
L 2356 0 
L 1766 0 
Q 1100 0 847 248 
Q 594 497 594 1153 
L 594 3053 
L 172 3053 
L 172 3500 
L 594 3500 
L 594 4494 
L 1172 4494 
z
" transform="scale(0.015625)"/>
       <path id="DejaVuSans-79" d="M 2059 -325 
Q 1816 -950 1584 -1140 
Q 1353 -1331 966 -1331 
L 506 -1331 
L 506 -850 
L 844 -850 
Q 1081 -850 1212 -737 
Q 1344 -625 1503 -206 
L 1606 56 
L 191 3500 
L 800 3500 
L 1894 763 
L 2988 3500 
L 3597 3500 
L 2059 -325 
z
" transform="scale(0.015625)"/>
       <path id="DejaVuSans-28" d="M 1984 4856 
Q 1566 4138 1362 3434 
Q 1159 2731 1159 2009 
Q 1159 1288 1364 580 
Q 1569 -128 1984 -844 
L 1484 -844 
Q 1016 -109 783 600 
Q 550 1309 550 2009 
Q 550 2706 781 3412 
Q 1013 4119 1484 4856 
L 1984 4856 
z
" transform="scale(0.015625)"/>
       <path id="DejaVuSans-25" d="M 4653 2053 
Q 4381 2053 4226 1822 
Q 4072 1591 4072 1178 
Q 4072 772 4226 539 
Q 4381 306 4653 306 
Q 4919 306 5073 539 
Q 5228 772 5228 1178 
Q 5228 1588 5073 1820 
Q 4919 2053 4653 2053 
z
M 4653 2450 
Q 5147 2450 5437 2106 
Q 5728 1763 5728 1178 
Q 5728 594 5436 251 
Q 5144 -91 4653 -91 
Q 4153 -91 3862 251 
Q 3572 594 3572 1178 
Q 3572 1766 3864 2108 
Q 4156 2450 4653 2450 
z
M 1428 4353 
Q 1159 4353 1004 4120 
Q 850 3888 850 3481 
Q 850 3069 1003 2837 
Q 1156 2606 1428 2606 
Q 1700 2606 1854 2837 
Q 2009 3069 2009 3481 
Q 2009 3884 1853 4118 
Q 1697 4353 1428 4353 
z
M 4250 4750 
L 4750 4750 
L 1831 -91 
L 1331 -91 
L 4250 4750 
z
M 1428 4750 
Q 1922 4750 2215 4408 
Q 2509 4066 2509 3481 
Q 2509 2891 2217 2550 
Q 1925 2209 1428 2209 
Q 931 2209 642 2551 
Q 353 2894 353 3481 
Q 353 4063 643 4406 
Q 934 4750 1428 4750 
z
" transform="scale(0.015625)"/>
       <path id="DejaVuSans-29" d="M 513 4856 
L 1013 4856 
Q 1481 4119 1714 3412 
Q 1947 2706 1947 2009 
Q 1947 1309 1714 600 
Q 1481 -109 1013 -844 
L 513 -844 
Q 928 -128 1133 580 
Q 1338 1288 1338 2009 
Q 1338 2731 1133 3434 
Q 928 4138 513 4856 
z
" transform="scale(0.015625)"/>
      </defs>
      <use xlink:href="#DejaVuSans-42"/>
      <use xlink:href="#DejaVuSans-61" transform="translate(68.603516 0)"/>
      <use xlink:href="#DejaVuSans-64" transform="translate(129.882812 0)"/>
      <use xlink:href="#DejaVuSans-52" transform="translate(193.359375 0)"/>
      <use xlink:href="#DejaVuSans-65" transform="translate(258.341797 0)"/>
      <use xlink:href="#DejaVuSans-61" transform="translate(319.865234 0)"/>
      <use xlink:href="#DejaVuSans-64" transform="translate(381.144531 0)"/>
      <use xlink:href="#DejaVuSans-20" transform="translate(444.621094 0)"/>
      <use xlink:href="#DejaVuSans-72" transform="translate(476.408203 0)"/>
      <use xlink:href="#DejaVuSans-65" transform="translate(515.271484 0)"/>
      <use xlink:href="#DejaVuSans-61" transform="translate(576.794922 0)"/>
      <use xlink:href="#DejaVuSans-64" transform="translate(638.074219 0)"/>
      <use xlink:href="#DejaVuSans-20" transform="translate(701.550781 0)"/>
      <use xlink:href="#DejaVuSans-69" transform="translate(733.337891 0)"/>
      <use xlink:href="#DejaVuSans-64" transform="translate(761.121094 0)"/>
      <use xlink:href="#DejaVuSans-65" transform="translate(824.597656 0)"/>
      <use xlink:href="#DejaVuSans-6e" transform="translate(886.121094 0)"/>
      <use xlink:href="#DejaVuSans-74" transform="translate(949.5 0)"/>
      <use xlink:href="#DejaVuSans-69" transform="translate(988.708984 0)"/>
      <use xlink:href="#DejaVuSans-74" transform="translate(1016.492188 0)"/>
      <use xlink:href="#DejaVuSans-79" transform="translate(1055.701172 0)"/>
      <use xlink:href="#DejaVuSans-20" transform="translate(1114.880859 0)"/>
      <use xlink:href="#DejaVuSans-28" transform="translate(1146.667969 0)"/>
      <use xlink:href="#DejaVuSans-25" transform="translate(1185.681641 0)"/>
      <use xlink:href="#DejaVuSans-29" transform="translate(1280.701172 0)"/>
     </g>
    </g>
   </g>
   <g id="matplotlib.axis_2">
    <g id="ytick_1">
     <g id="line2d_7">
      <defs>
       <path id="m454b60b8dc" d="M 0 0 
L -3.5 0 
" style="stroke: #000000; stroke-width: 0.8"/>
      </defs>
      <g>
       <use xlink:href="#m454b60b8dc" x="55.46" y="236.143636" style="stroke: #000000; stroke-width: 0.8"/>
      </g>
     </g>
     <g id="text_8">
      <!-- 0.00 -->
      <g transform="translate(26.194375 239.942855) scale(0.1 -0.1)">
       <defs>
        <path id="DejaVuSans-2e" d="M 684 794 
L 1344 794 
L 1344 0 
L 684 0 
L 684 794 
z
" transform="scale(0.015625)"/>
       </defs>
       <use xlink:href="#DejaVuSans-30"/>
       <use xlink:href="#DejaVuSans-2e" transform="translate(63.623047 0)"/>
       <use xlink:href="#DejaVuSans-30" transform="translate(95.410156 0)"/>
       <use xlink:href="#DejaVuSans-30" transform="translate(159.033203 0)"/>
      </g>
     </g>
    </g>
    <g id="ytick_2">
     <g id="line2d_8">
      <g>
       <use xlink:href="#m454b60b8dc" x="55.46" y="205.571295" style="stroke: #000000; stroke-width: 0.8"/>
      </g>
     </g>
     <g id="text_9">
      <!-- 0.02 -->
      <g transform="translate(26.194375 209.370514) scale(0.1 -0.1)">
       <use xlink:href="#DejaVuSans-30"/>
       <use xlink:href="#DejaVuSans-2e" transform="translate(63.623047 0)"/>
       <use xlink:href="#DejaVuSans-30" transform="translate(95.410156 0)"/>
       <use xlink:href="#DejaVuSans-32" transform="translate(159.033203 0)"/>
      </g>
     </g>
    </g>
    <g id="ytick_3">
     <g id="line2d_9">
      <g>
       <use xlink:href="#m454b60b8dc" x="55.46" y="174.998954" style="stroke: #000000; stroke-width: 0.8"/>
      </g>
     </g>
     <g id="text_10">
      <!-- 0.04 -->
      <g transform="translate(26.194375 178.798173) scale(0.1 -0.1)">
       <use xlink:href="#DejaVuSans-30"/>
       <use xlink:href="#DejaVuSans-2e" transform="translate(63.623047 0)"/>
       <use xlink:href="#DejaVuSans-30" transform="translate(95.410156 0)"/>
       <use xlink:href="#DejaVuSans-34" transform="translate(159.033203 0)"/>
      </g>
     </g>
    </g>
    <g id="ytick_4">
     <g id="line2d_10">
      <g>
       <use xlink:href="#m454b60b8dc" x="55.46" y="144.426613" style="stroke: #000000; stroke-width: 0.8"/>
      </g>
     </g>
     <g id="text_11">
      <!-- 0.06 -->
      <g transform="translate(26.194375 148.225832) scale(0.1 -0.1)">
       <use xlink:href="#DejaVuSans-30"/>
       <use xlink:href="#DejaVuSans-2e" transform="translate(63.623047 0)"/>
       <use xlink:href="#DejaVuSans-30" transform="translate(95.410156 0)"/>
       <use xlink:href="#DejaVuSans-36" transform="translate(159.033203 0)"/>
      </g>
     </g>
    </g>
    <g id="ytick_5">
     <g id="line2d_11">
      <g>
       <use xlink:href="#m454b60b8dc" x="55.46" y="113.854272" style="stroke: #000000; stroke-width: 0.8"/>
      </g>
     </g>
     <g id="text_12">
      <!-- 0.08 -->
      <g transform="translate(26.194375 117.653491) scale(0.1 -0.1)">
       <use xlink:href="#DejaVuSans-30"/>
       <use xlink:href="#DejaVuSans-2e" transform="translate(63.623047 0)"/>
       <use xlink:href="#DejaVuSans-30" transform="translate(95.410156 0)"/>
       <use xlink:href="#DejaVuSans-38" transform="translate(159.033203 0)"/>
      </g>
     </g>
    </g>
    <g id="ytick_6">
     <g id="line2d_12">
      <g>
       <use xlink:href="#m454b60b8dc" x="55.46" y="83.281931" style="stroke: #000000; stroke-width: 0.8"/>
      </g>
     </g>
     <g id="text_13">
      <!-- 0.10 -->
      <g transform="translate(26.194375 87.08115) scale(0.1 -0.1)">
       <use xlink:href="#DejaVuSans-30"/>
       <use xlink:href="#DejaVuSans-2e" transform="translate(63.623047 0)"/>
       <use xlink:href="#DejaVuSans-31" transform="translate(95.410156 0)"/>
       <use xlink:href="#DejaVuSans-30" transform="translate(159.033203 0)"/>
      </g>
     </g>
    </g>
    <g id="ytick_7">
     <g id="line2d_13">
      <g>
       <use xlink:href="#m454b60b8dc" x="55.46" y="52.70959" style="stroke: #000000; stroke-width: 0.8"/>
      </g>
     </g>
     <g id="text_14">
      <!-- 0.12 -->
      <g transform="translate(26.194375 56.508809) scale(0.1 -0.1)">
       <use xlink:href="#DejaVuSans-30"/>
       <use xlink:href="#DejaVuSans-2e" transform="translate(63.623047 0)"/>
       <use xlink:href="#DejaVuSans-31" transform="translate(95.410156 0)"/>
       <use xlink:href="#DejaVuSans-32" transform="translate(159.033203 0)"/>
      </g>
     </g>
    </g>
    <g id="text_15">
     <!-- Estimated $h(1)$ -->
     <g transform="translate(20.114688 174.28) rotate(-90) scale(0.1 -0.1)">
      <defs>
       <path id="DejaVuSans-45" d="M 628 4666 
L 3578 4666 
L 3578 4134 
L 1259 4134 
L 1259 2753 
L 3481 2753 
L 3481 2222 
L 1259 2222 
L 1259 531 
L 3634 531 
L 3634 0 
L 628 0 
L 628 4666 
z
" transform="scale(0.015625)"/>
       <path id="DejaVuSans-73" d="M 2834 3397 
L 2834 2853 
Q 2591 2978 2328 3040 
Q 2066 3103 1784 3103 
Q 1356 3103 1142 2972 
Q 928 2841 928 2578 
Q 928 2378 1081 2264 
Q 1234 2150 1697 2047 
L 1894 2003 
Q 2506 1872 2764 1633 
Q 3022 1394 3022 966 
Q 3022 478 2636 193 
Q 2250 -91 1575 -91 
Q 1294 -91 989 -36 
Q 684 19 347 128 
L 347 722 
Q 666 556 975 473 
Q 1284 391 1588 391 
Q 1994 391 2212 530 
Q 2431 669 2431 922 
Q 2431 1156 2273 1281 
Q 2116 1406 1581 1522 
L 1381 1569 
Q 847 1681 609 1914 
Q 372 2147 372 2553 
Q 372 3047 722 3315 
Q 1072 3584 1716 3584 
Q 2034 3584 2315 3537 
Q 2597 3491 2834 3397 
z
" transform="scale(0.015625)"/>
       <path id="DejaVuSans-6d" d="M 3328 2828 
Q 3544 3216 3844 3400 
Q 4144 3584 4550 3584 
Q 5097 3584 5394 3201 
Q 5691 2819 5691 2113 
L 5691 0 
L 5113 0 
L 5113 2094 
Q 5113 2597 4934 2840 
Q 4756 3084 4391 3084 
Q 3944 3084 3684 2787 
Q 3425 2491 3425 1978 
L 3425 0 
L 2847 0 
L 2847 2094 
Q 2847 2600 2669 2842 
Q 2491 3084 2119 3084 
Q 1678 3084 1418 2786 
Q 1159 2488 1159 1978 
L 1159 0 
L 581 0 
L 581 3500 
L 1159 3500 
L 1159 2956 
Q 1356 3278 1631 3431 
Q 1906 3584 2284 3584 
Q 2666 3584 2933 3390 
Q 3200 3197 3328 2828 
z
" transform="scale(0.015625)"/>
       <path id="DejaVuSans-Oblique-68" d="M 3566 2113 
L 3156 0 
L 2578 0 
L 2988 2091 
Q 3016 2238 3031 2350 
Q 3047 2463 3047 2528 
Q 3047 2791 2881 2937 
Q 2716 3084 2419 3084 
Q 1956 3084 1617 2771 
Q 1278 2459 1178 1941 
L 800 0 
L 225 0 
L 1172 4863 
L 1747 4863 
L 1375 2950 
Q 1594 3244 1934 3414 
Q 2275 3584 2650 3584 
Q 3113 3584 3367 3334 
Q 3622 3084 3622 2631 
Q 3622 2519 3608 2391 
Q 3594 2263 3566 2113 
z
" transform="scale(0.015625)"/>
      </defs>
      <use xlink:href="#DejaVuSans-45" transform="translate(0 0.015625)"/>
      <use xlink:href="#DejaVuSans-73" transform="translate(63.183594 0.015625)"/>
      <use xlink:href="#DejaVuSans-74" transform="translate(115.283203 0.015625)"/>
      <use xlink:href="#DejaVuSans-69" transform="translate(154.492188 0.015625)"/>
      <use xlink:href="#DejaVuSans-6d" transform="translate(182.275391 0.015625)"/>
      <use xlink:href="#DejaVuSans-61" transform="translate(279.6875 0.015625)"/>
      <use xlink:href="#DejaVuSans-74" transform="translate(340.966797 0.015625)"/>
      <use xlink:href="#DejaVuSans-65" transform="translate(380.175781 0.015625)"/>
      <use xlink:href="#DejaVuSans-64" transform="translate(441.699219 0.015625)"/>
      <use xlink:href="#DejaVuSans-20" transform="translate(505.175781 0.015625)"/>
      <use xlink:href="#DejaVuSans-Oblique-68" transform="translate(536.962891 0.015625)"/>
      <use xlink:href="#DejaVuSans-28" transform="translate(600.341797 0.015625)"/>
      <use xlink:href="#DejaVuSans-31" transform="translate(639.355469 0.015625)"/>
      <use xlink:href="#DejaVuSans-29" transform="translate(702.978516 0.015625)"/>
     </g>
    </g>
   </g>
   <g id="line2d_14">
    <path d="M 65.539091 45.883178 
L 76.816395 45.883178 
L 76.816395 41.503228 
L 65.539091 41.503228 
L 65.539091 45.883178 
" clip-path="url(#pc454ac7208)" style="fill: none; stroke: #cd5c5c; stroke-width: 2; stroke-linecap: square"/>
   </g>
   <g id="line2d_15">
    <path d="M 71.177743 45.883178 
L 71.177743 50.351363 
" clip-path="url(#pc454ac7208)" style="fill: none; stroke: #cd5c5c; stroke-width: 2"/>
   </g>
   <g id="line2d_16">
    <path d="M 71.177743 41.503228 
L 71.177743 38.216364 
" clip-path="url(#pc454ac7208)" style="fill: none; stroke: #cd5c5c; stroke-width: 2"/>
   </g>
   <g id="line2d_17">
    <path d="M 68.358417 50.351363 
L 73.997069 50.351363 
" clip-path="url(#pc454ac7208)" style="fill: none; stroke: #cd5c5c; stroke-width: 2; stroke-linecap: square"/>
   </g>
   <g id="line2d_18">
    <path d="M 68.358417 38.216364 
L 73.997069 38.216364 
" clip-path="url(#pc454ac7208)" style="fill: none; stroke: #cd5c5c; stroke-width: 2; stroke-linecap: square"/>
   </g>
   <g id="line2d_19">
    <defs>
     <path id="mfe2ce53ef8" d="M 0 3 
C 0.795609 3 1.55874 2.683901 2.12132 2.12132 
C 2.683901 1.55874 3 0.795609 3 0 
C 3 -0.795609 2.683901 -1.55874 2.12132 -2.12132 
C 1.55874 -2.683901 0.795609 -3 0 -3 
C -0.795609 -3 -1.55874 -2.683901 -2.12132 -2.12132 
C -2.683901 -1.55874 -3 -0.795609 -3 0 
C -3 0.795609 -2.683901 1.55874 -2.12132 2.12132 
C -1.55874 2.683901 -0.795609 3 0 3 
z
" style="stroke: #cd5c5c"/>
    </defs>
    <g clip-path="url(#pc454ac7208)">
     <use xlink:href="#mfe2ce53ef8" x="71.177743" y="53.739549" style="fill-opacity: 0; stroke: #cd5c5c"/>
    </g>
   </g>
   <g id="line2d_20">
    <path d="M 100.780668 99.274484 
L 112.057972 99.274484 
L 112.057972 96.421545 
L 100.780668 96.421545 
L 100.780668 99.274484 
" clip-path="url(#pc454ac7208)" style="fill: none; stroke: #cd5c5c; stroke-width: 2; stroke-linecap: square"/>
   </g>
   <g id="line2d_21">
    <path d="M 106.41932 99.274484 
L 106.41932 99.480478 
" clip-path="url(#pc454ac7208)" style="fill: none; stroke: #cd5c5c; stroke-width: 2"/>
   </g>
   <g id="line2d_22">
    <path d="M 106.41932 96.421545 
L 106.41932 94.28984 
" clip-path="url(#pc454ac7208)" style="fill: none; stroke: #cd5c5c; stroke-width: 2"/>
   </g>
   <g id="line2d_23">
    <path d="M 103.599994 99.480478 
L 109.238646 99.480478 
" clip-path="url(#pc454ac7208)" style="fill: none; stroke: #cd5c5c; stroke-width: 2; stroke-linecap: square"/>
   </g>
   <g id="line2d_24">
    <path d="M 103.599994 94.28984 
L 109.238646 94.28984 
" clip-path="url(#pc454ac7208)" style="fill: none; stroke: #cd5c5c; stroke-width: 2; stroke-linecap: square"/>
   </g>
   <g id="line2d_25">
    <g clip-path="url(#pc454ac7208)">
     <use xlink:href="#mfe2ce53ef8" x="106.41932" y="106.145749" style="fill-opacity: 0; stroke: #cd5c5c"/>
    </g>
   </g>
   <g id="line2d_26">
    <path d="M 136.022244 133.837653 
L 147.299549 133.837653 
L 147.299549 132.802527 
L 136.022244 132.802527 
L 136.022244 133.837653 
" clip-path="url(#pc454ac7208)" style="fill: none; stroke: #cd5c5c; stroke-width: 2; stroke-linecap: square"/>
   </g>
   <g id="line2d_27">
    <path d="M 141.660896 133.837653 
L 141.660896 134.288439 
" clip-path="url(#pc454ac7208)" style="fill: none; stroke: #cd5c5c; stroke-width: 2"/>
   </g>
   <g id="line2d_28">
    <path d="M 141.660896 132.802527 
L 141.660896 132.52035 
" clip-path="url(#pc454ac7208)" style="fill: none; stroke: #cd5c5c; stroke-width: 2"/>
   </g>
   <g id="line2d_29">
    <path d="M 138.84157 134.288439 
L 144.480223 134.288439 
" clip-path="url(#pc454ac7208)" style="fill: none; stroke: #cd5c5c; stroke-width: 2; stroke-linecap: square"/>
   </g>
   <g id="line2d_30">
    <path d="M 138.84157 132.52035 
L 144.480223 132.52035 
" clip-path="url(#pc454ac7208)" style="fill: none; stroke: #cd5c5c; stroke-width: 2; stroke-linecap: square"/>
   </g>
   <g id="line2d_31">
    <g clip-path="url(#pc454ac7208)">
     <use xlink:href="#mfe2ce53ef8" x="141.660896" y="129.880859" style="fill-opacity: 0; stroke: #cd5c5c"/>
    </g>
   </g>
   <g id="line2d_32">
    <path d="M 171.263821 171.230921 
L 182.541125 171.230921 
L 182.541125 170.554845 
L 171.263821 170.554845 
L 171.263821 171.230921 
" clip-path="url(#pc454ac7208)" style="fill: none; stroke: #cd5c5c; stroke-width: 2; stroke-linecap: square"/>
   </g>
   <g id="line2d_33">
    <path d="M 176.902473 171.230921 
L 176.902473 171.230921 
" clip-path="url(#pc454ac7208)" style="fill: none; stroke: #cd5c5c; stroke-width: 2"/>
   </g>
   <g id="line2d_34">
    <path d="M 176.902473 170.554845 
L 176.902473 170.199373 
" clip-path="url(#pc454ac7208)" style="fill: none; stroke: #cd5c5c; stroke-width: 2"/>
   </g>
   <g id="line2d_35">
    <path d="M 174.083147 171.230921 
L 179.721799 171.230921 
" clip-path="url(#pc454ac7208)" style="fill: none; stroke: #cd5c5c; stroke-width: 2; stroke-linecap: square"/>
   </g>
   <g id="line2d_36">
    <path d="M 174.083147 170.199373 
L 179.721799 170.199373 
" clip-path="url(#pc454ac7208)" style="fill: none; stroke: #cd5c5c; stroke-width: 2; stroke-linecap: square"/>
   </g>
   <g id="line2d_37">
    <g clip-path="url(#pc454ac7208)">
     <use xlink:href="#mfe2ce53ef8" x="176.902473" y="172.528337" style="fill-opacity: 0; stroke: #cd5c5c"/>
     <use xlink:href="#mfe2ce53ef8" x="176.902473" y="172.792061" style="fill-opacity: 0; stroke: #cd5c5c"/>
     <use xlink:href="#mfe2ce53ef8" x="176.902473" y="169.3922" style="fill-opacity: 0; stroke: #cd5c5c"/>
    </g>
   </g>
   <g id="line2d_38">
    <path d="M 206.505397 203.712937 
L 217.782702 203.712937 
L 217.782702 203.352399 
L 206.505397 203.352399 
L 206.505397 203.712937 
" clip-path="url(#pc454ac7208)" style="fill: none; stroke: #cd5c5c; stroke-width: 2; stroke-linecap: square"/>
   </g>
   <g id="line2d_39">
    <path d="M 212.14405 203.712937 
L 212.14405 204.251661 
" clip-path="url(#pc454ac7208)" style="fill: none; stroke: #cd5c5c; stroke-width: 2"/>
   </g>
   <g id="line2d_40">
    <path d="M 212.14405 203.352399 
L 212.14405 202.81998 
" clip-path="url(#pc454ac7208)" style="fill: none; stroke: #cd5c5c; stroke-width: 2"/>
   </g>
   <g id="line2d_41">
    <path d="M 209.324723 204.251661 
L 214.963376 204.251661 
" clip-path="url(#pc454ac7208)" style="fill: none; stroke: #cd5c5c; stroke-width: 2; stroke-linecap: square"/>
   </g>
   <g id="line2d_42">
    <path d="M 209.324723 202.81998 
L 214.963376 202.81998 
" clip-path="url(#pc454ac7208)" style="fill: none; stroke: #cd5c5c; stroke-width: 2; stroke-linecap: square"/>
   </g>
   <g id="line2d_43">
    <g clip-path="url(#pc454ac7208)">
     <use xlink:href="#mfe2ce53ef8" x="212.14405" y="202.778113" style="fill-opacity: 0; stroke: #cd5c5c"/>
    </g>
   </g>
   <g id="line2d_44">
    <path d="M 241.746974 235.741663 
L 253.024278 235.741663 
L 253.024278 235.704986 
L 241.746974 235.704986 
L 241.746974 235.741663 
" clip-path="url(#pc454ac7208)" style="fill: none; stroke: #cd5c5c; stroke-width: 2; stroke-linecap: square"/>
   </g>
   <g id="line2d_45">
    <path d="M 247.385626 235.741663 
L 247.385626 235.743191 
" clip-path="url(#pc454ac7208)" style="fill: none; stroke: #cd5c5c; stroke-width: 2"/>
   </g>
   <g id="line2d_46">
    <path d="M 247.385626 235.704986 
L 247.385626 235.694289 
" clip-path="url(#pc454ac7208)" style="fill: none; stroke: #cd5c5c; stroke-width: 2"/>
   </g>
   <g id="line2d_47">
    <path d="M 244.5663 235.743191 
L 250.204952 235.743191 
" clip-path="url(#pc454ac7208)" style="fill: none; stroke: #cd5c5c; stroke-width: 2; stroke-linecap: square"/>
   </g>
   <g id="line2d_48">
    <path d="M 244.5663 235.694289 
L 250.204952 235.694289 
" clip-path="url(#pc454ac7208)" style="fill: none; stroke: #cd5c5c; stroke-width: 2; stroke-linecap: square"/>
   </g>
   <g id="line2d_49"/>
   <g id="line2d_50">
    <path d="M 79.635722 71.124099 
L 90.913026 71.124099 
L 90.913026 67.092459 
L 79.635722 67.092459 
L 79.635722 71.124099 
" clip-path="url(#pc454ac7208)" style="fill: none; stroke: #daa520; stroke-width: 2; stroke-linecap: square"/>
   </g>
   <g id="line2d_51">
    <path d="M 85.274374 71.124099 
L 85.274374 72.330052 
" clip-path="url(#pc454ac7208)" style="fill: none; stroke: #daa520; stroke-width: 2"/>
   </g>
   <g id="line2d_52">
    <path d="M 85.274374 67.092459 
L 85.274374 65.392705 
" clip-path="url(#pc454ac7208)" style="fill: none; stroke: #daa520; stroke-width: 2"/>
   </g>
   <g id="line2d_53">
    <path d="M 82.455048 72.330052 
L 88.0937 72.330052 
" clip-path="url(#pc454ac7208)" style="fill: none; stroke: #daa520; stroke-width: 2; stroke-linecap: square"/>
   </g>
   <g id="line2d_54">
    <path d="M 82.455048 65.392705 
L 88.0937 65.392705 
" clip-path="url(#pc454ac7208)" style="fill: none; stroke: #daa520; stroke-width: 2; stroke-linecap: square"/>
   </g>
   <g id="line2d_55"/>
   <g id="line2d_56">
    <path d="M 114.877298 103.109849 
L 126.154603 103.109849 
L 126.154603 100.764451 
L 114.877298 100.764451 
L 114.877298 103.109849 
" clip-path="url(#pc454ac7208)" style="fill: none; stroke: #daa520; stroke-width: 2; stroke-linecap: square"/>
   </g>
   <g id="line2d_57">
    <path d="M 120.51595 103.109849 
L 120.51595 104.07872 
" clip-path="url(#pc454ac7208)" style="fill: none; stroke: #daa520; stroke-width: 2"/>
   </g>
   <g id="line2d_58">
    <path d="M 120.51595 100.764451 
L 120.51595 99.953823 
" clip-path="url(#pc454ac7208)" style="fill: none; stroke: #daa520; stroke-width: 2"/>
   </g>
   <g id="line2d_59">
    <path d="M 117.696624 104.07872 
L 123.335277 104.07872 
" clip-path="url(#pc454ac7208)" style="fill: none; stroke: #daa520; stroke-width: 2; stroke-linecap: square"/>
   </g>
   <g id="line2d_60">
    <path d="M 117.696624 99.953823 
L 123.335277 99.953823 
" clip-path="url(#pc454ac7208)" style="fill: none; stroke: #daa520; stroke-width: 2; stroke-linecap: square"/>
   </g>
   <g id="line2d_61">
    <defs>
     <path id="m4b4a08853d" d="M 0 3 
C 0.795609 3 1.55874 2.683901 2.12132 2.12132 
C 2.683901 1.55874 3 0.795609 3 0 
C 3 -0.795609 2.683901 -1.55874 2.12132 -2.12132 
C 1.55874 -2.683901 0.795609 -3 0 -3 
C -0.795609 -3 -1.55874 -2.683901 -2.12132 -2.12132 
C -2.683901 -1.55874 -3 -0.795609 -3 0 
C -3 0.795609 -2.683901 1.55874 -2.12132 2.12132 
C -1.55874 2.683901 -0.795609 3 0 3 
z
" style="stroke: #daa520"/>
    </defs>
    <g clip-path="url(#pc454ac7208)">
     <use xlink:href="#m4b4a08853d" x="120.51595" y="108.636107" style="fill-opacity: 0; stroke: #daa520"/>
    </g>
   </g>
   <g id="line2d_62">
    <path d="M 150.118875 134.308413 
L 161.396179 134.308413 
L 161.396179 133.640836 
L 150.118875 133.640836 
L 150.118875 134.308413 
" clip-path="url(#pc454ac7208)" style="fill: none; stroke: #daa520; stroke-width: 2; stroke-linecap: square"/>
   </g>
   <g id="line2d_63">
    <path d="M 155.757527 134.308413 
L 155.757527 135.043395 
" clip-path="url(#pc454ac7208)" style="fill: none; stroke: #daa520; stroke-width: 2"/>
   </g>
   <g id="line2d_64">
    <path d="M 155.757527 133.640836 
L 155.757527 133.140357 
" clip-path="url(#pc454ac7208)" style="fill: none; stroke: #daa520; stroke-width: 2"/>
   </g>
   <g id="line2d_65">
    <path d="M 152.938201 135.043395 
L 158.576853 135.043395 
" clip-path="url(#pc454ac7208)" style="fill: none; stroke: #daa520; stroke-width: 2; stroke-linecap: square"/>
   </g>
   <g id="line2d_66">
    <path d="M 152.938201 133.140357 
L 158.576853 133.140357 
" clip-path="url(#pc454ac7208)" style="fill: none; stroke: #daa520; stroke-width: 2; stroke-linecap: square"/>
   </g>
   <g id="line2d_67">
    <g clip-path="url(#pc454ac7208)">
     <use xlink:href="#m4b4a08853d" x="155.757527" y="130.619253" style="fill-opacity: 0; stroke: #daa520"/>
    </g>
   </g>
   <g id="line2d_68">
    <path d="M 185.360451 171.535403 
L 196.637756 171.535403 
L 196.637756 170.900161 
L 185.360451 170.900161 
L 185.360451 171.535403 
" clip-path="url(#pc454ac7208)" style="fill: none; stroke: #daa520; stroke-width: 2; stroke-linecap: square"/>
   </g>
   <g id="line2d_69">
    <path d="M 190.999104 171.535403 
L 190.999104 171.535403 
" clip-path="url(#pc454ac7208)" style="fill: none; stroke: #daa520; stroke-width: 2"/>
   </g>
   <g id="line2d_70">
    <path d="M 190.999104 170.900161 
L 190.999104 170.048725 
" clip-path="url(#pc454ac7208)" style="fill: none; stroke: #daa520; stroke-width: 2"/>
   </g>
   <g id="line2d_71">
    <path d="M 188.179777 171.535403 
L 193.81843 171.535403 
" clip-path="url(#pc454ac7208)" style="fill: none; stroke: #daa520; stroke-width: 2; stroke-linecap: square"/>
   </g>
   <g id="line2d_72">
    <path d="M 188.179777 170.048725 
L 193.81843 170.048725 
" clip-path="url(#pc454ac7208)" style="fill: none; stroke: #daa520; stroke-width: 2; stroke-linecap: square"/>
   </g>
   <g id="line2d_73">
    <g clip-path="url(#pc454ac7208)">
     <use xlink:href="#m4b4a08853d" x="190.999104" y="173.341639" style="fill-opacity: 0; stroke: #daa520"/>
     <use xlink:href="#m4b4a08853d" x="190.999104" y="172.674845" style="fill-opacity: 0; stroke: #daa520"/>
    </g>
   </g>
   <g id="line2d_74">
    <path d="M 220.602028 203.395779 
L 231.879332 203.395779 
L 231.879332 203.06822 
L 220.602028 203.06822 
L 220.602028 203.395779 
" clip-path="url(#pc454ac7208)" style="fill: none; stroke: #daa520; stroke-width: 2; stroke-linecap: square"/>
   </g>
   <g id="line2d_75">
    <path d="M 226.24068 203.395779 
L 226.24068 203.790741 
" clip-path="url(#pc454ac7208)" style="fill: none; stroke: #daa520; stroke-width: 2"/>
   </g>
   <g id="line2d_76">
    <path d="M 226.24068 203.06822 
L 226.24068 202.815494 
" clip-path="url(#pc454ac7208)" style="fill: none; stroke: #daa520; stroke-width: 2"/>
   </g>
   <g id="line2d_77">
    <path d="M 223.421354 203.790741 
L 229.060006 203.790741 
" clip-path="url(#pc454ac7208)" style="fill: none; stroke: #daa520; stroke-width: 2; stroke-linecap: square"/>
   </g>
   <g id="line2d_78">
    <path d="M 223.421354 202.815494 
L 229.060006 202.815494 
" clip-path="url(#pc454ac7208)" style="fill: none; stroke: #daa520; stroke-width: 2; stroke-linecap: square"/>
   </g>
   <g id="line2d_79">
    <g clip-path="url(#pc454ac7208)">
     <use xlink:href="#m4b4a08853d" x="226.24068" y="202.280277" style="fill-opacity: 0; stroke: #daa520"/>
    </g>
   </g>
   <g id="line2d_80">
    <path d="M 255.843605 235.990782 
L 267.120909 235.990782 
L 267.120909 235.990782 
L 255.843605 235.990782 
L 255.843605 235.990782 
" clip-path="url(#pc454ac7208)" style="fill: none; stroke: #daa520; stroke-width: 2; stroke-linecap: square"/>
   </g>
   <g id="line2d_81">
    <path d="M 261.482257 235.990782 
L 261.482257 235.990782 
" clip-path="url(#pc454ac7208)" style="fill: none; stroke: #daa520; stroke-width: 2"/>
   </g>
   <g id="line2d_82">
    <path d="M 261.482257 235.990782 
L 261.482257 235.990782 
" clip-path="url(#pc454ac7208)" style="fill: none; stroke: #daa520; stroke-width: 2"/>
   </g>
   <g id="line2d_83">
    <path d="M 258.662931 235.990782 
L 264.301583 235.990782 
" clip-path="url(#pc454ac7208)" style="fill: none; stroke: #daa520; stroke-width: 2; stroke-linecap: square"/>
   </g>
   <g id="line2d_84">
    <path d="M 258.662931 235.990782 
L 264.301583 235.990782 
" clip-path="url(#pc454ac7208)" style="fill: none; stroke: #daa520; stroke-width: 2; stroke-linecap: square"/>
   </g>
   <g id="line2d_85"/>
   <g id="line2d_86">
    <path d="M 78.226058 73.379377 
L 113.467635 107.735624 
L 148.709212 141.001206 
L 183.950788 173.433276 
L 219.192365 204.965324 
L 254.433942 236.143636 
" clip-path="url(#pc454ac7208)" style="fill: none; stroke-dasharray: 11.1,4.8; stroke-dashoffset: 0; stroke: #000000; stroke-width: 3"/>
    <defs>
     <path id="mb1cd6fe1b6" d="M -0 4.242641 
L 2.545584 0 
L 0 -4.242641 
L -2.545584 -0 
z
" style="stroke: #000000; stroke-linejoin: miter"/>
    </defs>
    <g clip-path="url(#pc454ac7208)">
     <use xlink:href="#mb1cd6fe1b6" x="78.226058" y="73.379377" style="stroke: #000000; stroke-linejoin: miter"/>
     <use xlink:href="#mb1cd6fe1b6" x="113.467635" y="107.735624" style="stroke: #000000; stroke-linejoin: miter"/>
     <use xlink:href="#mb1cd6fe1b6" x="148.709212" y="141.001206" style="stroke: #000000; stroke-linejoin: miter"/>
     <use xlink:href="#mb1cd6fe1b6" x="183.950788" y="173.433276" style="stroke: #000000; stroke-linejoin: miter"/>
     <use xlink:href="#mb1cd6fe1b6" x="219.192365" y="204.965324" style="stroke: #000000; stroke-linejoin: miter"/>
     <use xlink:href="#mb1cd6fe1b6" x="254.433942" y="236.143636" style="stroke: #000000; stroke-linejoin: miter"/>
    </g>
   </g>
   <g id="line2d_87">
    <path d="M 65.539091 43.221161 
L 76.816395 43.221161 
" clip-path="url(#pc454ac7208)" style="fill: none; stroke: #cd5c5c; stroke-width: 2"/>
   </g>
   <g id="line2d_88">
    <path d="M 100.780668 98.427168 
L 112.057972 98.427168 
" clip-path="url(#pc454ac7208)" style="fill: none; stroke: #cd5c5c; stroke-width: 2"/>
   </g>
   <g id="line2d_89">
    <path d="M 136.022244 133.180275 
L 147.299549 133.180275 
" clip-path="url(#pc454ac7208)" style="fill: none; stroke: #cd5c5c; stroke-width: 2"/>
   </g>
   <g id="line2d_90">
    <path d="M 171.263821 170.901624 
L 182.541125 170.901624 
" clip-path="url(#pc454ac7208)" style="fill: none; stroke: #cd5c5c; stroke-width: 2"/>
   </g>
   <g id="line2d_91">
    <path d="M 206.505397 203.606711 
L 217.782702 203.606711 
" clip-path="url(#pc454ac7208)" style="fill: none; stroke: #cd5c5c; stroke-width: 2"/>
   </g>
   <g id="line2d_92">
    <path d="M 241.746974 235.73555 
L 253.024278 235.73555 
" clip-path="url(#pc454ac7208)" style="fill: none; stroke: #cd5c5c; stroke-width: 2"/>
   </g>
   <g id="line2d_93">
    <path d="M 79.635722 69.739388 
L 90.913026 69.739388 
" clip-path="url(#pc454ac7208)" style="fill: none; stroke: #daa520; stroke-width: 2"/>
   </g>
   <g id="line2d_94">
    <path d="M 114.877298 102.352253 
L 126.154603 102.352253 
" clip-path="url(#pc454ac7208)" style="fill: none; stroke: #daa520; stroke-width: 2"/>
   </g>
   <g id="line2d_95">
    <path d="M 150.118875 134.114384 
L 161.396179 134.114384 
" clip-path="url(#pc454ac7208)" style="fill: none; stroke: #daa520; stroke-width: 2"/>
   </g>
   <g id="line2d_96">
    <path d="M 185.360451 171.447565 
L 196.637756 171.447565 
" clip-path="url(#pc454ac7208)" style="fill: none; stroke: #daa520; stroke-width: 2"/>
   </g>
   <g id="line2d_97">
    <path d="M 220.602028 203.30603 
L 231.879332 203.30603 
" clip-path="url(#pc454ac7208)" style="fill: none; stroke: #daa520; stroke-width: 2"/>
   </g>
   <g id="line2d_98">
    <path d="M 255.843605 235.990782 
L 267.120909 235.990782 
" clip-path="url(#pc454ac7208)" style="fill: none; stroke: #daa520; stroke-width: 2"/>
   </g>
   <g id="patch_5">
    <path d="M 55.46 246.04 
L 55.46 28.32 
" style="fill: none; stroke: #000000; stroke-width: 0.8; stroke-linejoin: miter; stroke-linecap: square"/>
   </g>
   <g id="patch_6">
    <path d="M 55.46 246.04 
L 277.2 246.04 
" style="fill: none; stroke: #000000; stroke-width: 0.8; stroke-linejoin: miter; stroke-linecap: square"/>
   </g>
   <g id="text_16">
    <!-- $(k,v)$-mer results at 100x coverage -->
    <g transform="translate(60.73 22.32) scale(0.12 -0.12)">
     <defs>
      <path id="DejaVuSans-Oblique-6b" d="M 1172 4863 
L 1747 4863 
L 1197 2028 
L 3169 3500 
L 3916 3500 
L 1716 1825 
L 3322 0 
L 2625 0 
L 1131 1709 
L 800 0 
L 225 0 
L 1172 4863 
z
" transform="scale(0.015625)"/>
      <path id="DejaVuSans-2c" d="M 750 794 
L 1409 794 
L 1409 256 
L 897 -744 
L 494 -744 
L 750 256 
L 750 794 
z
" transform="scale(0.015625)"/>
      <path id="DejaVuSans-Oblique-76" d="M 459 3500 
L 1069 3500 
L 1581 525 
L 3256 3500 
L 3866 3500 
L 1875 0 
L 1100 0 
L 459 3500 
z
" transform="scale(0.015625)"/>
      <path id="DejaVuSans-2d" d="M 313 2009 
L 1997 2009 
L 1997 1497 
L 313 1497 
L 313 2009 
z
" transform="scale(0.015625)"/>
      <path id="DejaVuSans-75" d="M 544 1381 
L 544 3500 
L 1119 3500 
L 1119 1403 
Q 1119 906 1312 657 
Q 1506 409 1894 409 
Q 2359 409 2629 706 
Q 2900 1003 2900 1516 
L 2900 3500 
L 3475 3500 
L 3475 0 
L 2900 0 
L 2900 538 
Q 2691 219 2414 64 
Q 2138 -91 1772 -91 
Q 1169 -91 856 284 
Q 544 659 544 1381 
z
M 1991 3584 
L 1991 3584 
z
" transform="scale(0.015625)"/>
      <path id="DejaVuSans-6c" d="M 603 4863 
L 1178 4863 
L 1178 0 
L 603 0 
L 603 4863 
z
" transform="scale(0.015625)"/>
      <path id="DejaVuSans-78" d="M 3513 3500 
L 2247 1797 
L 3578 0 
L 2900 0 
L 1881 1375 
L 863 0 
L 184 0 
L 1544 1831 
L 300 3500 
L 978 3500 
L 1906 2253 
L 2834 3500 
L 3513 3500 
z
" transform="scale(0.015625)"/>
      <path id="DejaVuSans-63" d="M 3122 3366 
L 3122 2828 
Q 2878 2963 2633 3030 
Q 2388 3097 2138 3097 
Q 1578 3097 1268 2742 
Q 959 2388 959 1747 
Q 959 1106 1268 751 
Q 1578 397 2138 397 
Q 2388 397 2633 464 
Q 2878 531 3122 666 
L 3122 134 
Q 2881 22 2623 -34 
Q 2366 -91 2075 -91 
Q 1284 -91 818 406 
Q 353 903 353 1747 
Q 353 2603 823 3093 
Q 1294 3584 2113 3584 
Q 2378 3584 2631 3529 
Q 2884 3475 3122 3366 
z
" transform="scale(0.015625)"/>
      <path id="DejaVuSans-6f" d="M 1959 3097 
Q 1497 3097 1228 2736 
Q 959 2375 959 1747 
Q 959 1119 1226 758 
Q 1494 397 1959 397 
Q 2419 397 2687 759 
Q 2956 1122 2956 1747 
Q 2956 2369 2687 2733 
Q 2419 3097 1959 3097 
z
M 1959 3584 
Q 2709 3584 3137 3096 
Q 3566 2609 3566 1747 
Q 3566 888 3137 398 
Q 2709 -91 1959 -91 
Q 1206 -91 779 398 
Q 353 888 353 1747 
Q 353 2609 779 3096 
Q 1206 3584 1959 3584 
z
" transform="scale(0.015625)"/>
      <path id="DejaVuSans-76" d="M 191 3500 
L 800 3500 
L 1894 563 
L 2988 3500 
L 3597 3500 
L 2284 0 
L 1503 0 
L 191 3500 
z
" transform="scale(0.015625)"/>
      <path id="DejaVuSans-67" d="M 2906 1791 
Q 2906 2416 2648 2759 
Q 2391 3103 1925 3103 
Q 1463 3103 1205 2759 
Q 947 2416 947 1791 
Q 947 1169 1205 825 
Q 1463 481 1925 481 
Q 2391 481 2648 825 
Q 2906 1169 2906 1791 
z
M 3481 434 
Q 3481 -459 3084 -895 
Q 2688 -1331 1869 -1331 
Q 1566 -1331 1297 -1286 
Q 1028 -1241 775 -1147 
L 775 -588 
Q 1028 -725 1275 -790 
Q 1522 -856 1778 -856 
Q 2344 -856 2625 -561 
Q 2906 -266 2906 331 
L 2906 616 
Q 2728 306 2450 153 
Q 2172 0 1784 0 
Q 1141 0 747 490 
Q 353 981 353 1791 
Q 353 2603 747 3093 
Q 1141 3584 1784 3584 
Q 2172 3584 2450 3431 
Q 2728 3278 2906 2969 
L 2906 3500 
L 3481 3500 
L 3481 434 
z
" transform="scale(0.015625)"/>
     </defs>
     <use xlink:href="#DejaVuSans-28" transform="translate(0 0.015625)"/>
     <use xlink:href="#DejaVuSans-Oblique-6b" transform="translate(39.013672 0.015625)"/>
     <use xlink:href="#DejaVuSans-2c" transform="translate(96.923828 0.015625)"/>
     <use xlink:href="#DejaVuSans-Oblique-76" transform="translate(148.193359 0.015625)"/>
     <use xlink:href="#DejaVuSans-29" transform="translate(207.373047 0.015625)"/>
     <use xlink:href="#DejaVuSans-2d" transform="translate(246.386719 0.015625)"/>
     <use xlink:href="#DejaVuSans-6d" transform="translate(280.720703 0.015625)"/>
     <use xlink:href="#DejaVuSans-65" transform="translate(378.132812 0.015625)"/>
     <use xlink:href="#DejaVuSans-72" transform="translate(439.65625 0.015625)"/>
     <use xlink:href="#DejaVuSans-20" transform="translate(480.769531 0.015625)"/>
     <use xlink:href="#DejaVuSans-72" transform="translate(512.556641 0.015625)"/>
     <use xlink:href="#DejaVuSans-65" transform="translate(553.669922 0.015625)"/>
     <use xlink:href="#DejaVuSans-73" transform="translate(615.193359 0.015625)"/>
     <use xlink:href="#DejaVuSans-75" transform="translate(667.292969 0.015625)"/>
     <use xlink:href="#DejaVuSans-6c" transform="translate(730.671875 0.015625)"/>
     <use xlink:href="#DejaVuSans-74" transform="translate(758.455078 0.015625)"/>
     <use xlink:href="#DejaVuSans-73" transform="translate(797.664062 0.015625)"/>
     <use xlink:href="#DejaVuSans-20" transform="translate(849.763672 0.015625)"/>
     <use xlink:href="#DejaVuSans-61" transform="translate(881.550781 0.015625)"/>
     <use xlink:href="#DejaVuSans-74" transform="translate(942.830078 0.015625)"/>
     <use xlink:href="#DejaVuSans-20" transform="translate(982.039062 0.015625)"/>
     <use xlink:href="#DejaVuSans-31" transform="translate(1013.826172 0.015625)"/>
     <use xlink:href="#DejaVuSans-30" transform="translate(1077.449219 0.015625)"/>
     <use xlink:href="#DejaVuSans-30" transform="translate(1141.072266 0.015625)"/>
     <use xlink:href="#DejaVuSans-78" transform="translate(1204.695312 0.015625)"/>
     <use xlink:href="#DejaVuSans-20" transform="translate(1263.875 0.015625)"/>
     <use xlink:href="#DejaVuSans-63" transform="translate(1295.662109 0.015625)"/>
     <use xlink:href="#DejaVuSans-6f" transform="translate(1350.642578 0.015625)"/>
     <use xlink:href="#DejaVuSans-76" transform="translate(1411.824219 0.015625)"/>
     <use xlink:href="#DejaVuSans-65" transform="translate(1471.003906 0.015625)"/>
     <use xlink:href="#DejaVuSans-72" transform="translate(1532.527344 0.015625)"/>
     <use xlink:href="#DejaVuSans-61" transform="translate(1573.640625 0.015625)"/>
     <use xlink:href="#DejaVuSans-67" transform="translate(1634.919922 0.015625)"/>
     <use xlink:href="#DejaVuSans-65" transform="translate(1698.396484 0.015625)"/>
    </g>
   </g>
   <g id="legend_1">
    <g id="patch_7">
     <path d="M 148.20625 80.354375 
L 270.2 80.354375 
Q 272.2 80.354375 272.2 78.354375 
L 272.2 35.32 
Q 272.2 33.32 270.2 33.32 
L 148.20625 33.32 
Q 146.20625 33.32 146.20625 35.32 
L 146.20625 78.354375 
Q 146.20625 80.354375 148.20625 80.354375 
z
" style="fill: #ffffff; opacity: 0.8; stroke: #cccccc; stroke-linejoin: miter"/>
    </g>
    <g id="patch_8">
     <path d="M 150.20625 44.918438 
L 170.20625 44.918438 
L 170.20625 37.918438 
L 150.20625 37.918438 
L 150.20625 44.918438 
z
" style="fill: none; stroke: #cd5c5c; stroke-width: 2; stroke-linejoin: miter"/>
    </g>
    <g id="text_17">
     <!-- Without reference -->
     <g transform="translate(178.20625 44.918438) scale(0.1 -0.1)">
      <defs>
       <path id="DejaVuSans-57" d="M 213 4666 
L 850 4666 
L 1831 722 
L 2809 4666 
L 3519 4666 
L 4500 722 
L 5478 4666 
L 6119 4666 
L 4947 0 
L 4153 0 
L 3169 4050 
L 2175 0 
L 1381 0 
L 213 4666 
z
" transform="scale(0.015625)"/>
       <path id="DejaVuSans-68" d="M 3513 2113 
L 3513 0 
L 2938 0 
L 2938 2094 
Q 2938 2591 2744 2837 
Q 2550 3084 2163 3084 
Q 1697 3084 1428 2787 
Q 1159 2491 1159 1978 
L 1159 0 
L 581 0 
L 581 4863 
L 1159 4863 
L 1159 2956 
Q 1366 3272 1645 3428 
Q 1925 3584 2291 3584 
Q 2894 3584 3203 3211 
Q 3513 2838 3513 2113 
z
" transform="scale(0.015625)"/>
       <path id="DejaVuSans-66" d="M 2375 4863 
L 2375 4384 
L 1825 4384 
Q 1516 4384 1395 4259 
Q 1275 4134 1275 3809 
L 1275 3500 
L 2222 3500 
L 2222 3053 
L 1275 3053 
L 1275 0 
L 697 0 
L 697 3053 
L 147 3053 
L 147 3500 
L 697 3500 
L 697 3744 
Q 697 4328 969 4595 
Q 1241 4863 1831 4863 
L 2375 4863 
z
" transform="scale(0.015625)"/>
      </defs>
      <use xlink:href="#DejaVuSans-57"/>
      <use xlink:href="#DejaVuSans-69" transform="translate(96.626953 0)"/>
      <use xlink:href="#DejaVuSans-74" transform="translate(124.410156 0)"/>
      <use xlink:href="#DejaVuSans-68" transform="translate(163.619141 0)"/>
      <use xlink:href="#DejaVuSans-6f" transform="translate(226.998047 0)"/>
      <use xlink:href="#DejaVuSans-75" transform="translate(288.179688 0)"/>
      <use xlink:href="#DejaVuSans-74" transform="translate(351.558594 0)"/>
      <use xlink:href="#DejaVuSans-20" transform="translate(390.767578 0)"/>
      <use xlink:href="#DejaVuSans-72" transform="translate(422.554688 0)"/>
      <use xlink:href="#DejaVuSans-65" transform="translate(461.417969 0)"/>
      <use xlink:href="#DejaVuSans-66" transform="translate(522.941406 0)"/>
      <use xlink:href="#DejaVuSans-65" transform="translate(558.146484 0)"/>
      <use xlink:href="#DejaVuSans-72" transform="translate(619.669922 0)"/>
      <use xlink:href="#DejaVuSans-65" transform="translate(658.533203 0)"/>
      <use xlink:href="#DejaVuSans-6e" transform="translate(720.056641 0)"/>
      <use xlink:href="#DejaVuSans-63" transform="translate(783.435547 0)"/>
      <use xlink:href="#DejaVuSans-65" transform="translate(838.416016 0)"/>
     </g>
    </g>
    <g id="patch_9">
     <path d="M 150.20625 59.596563 
L 170.20625 59.596563 
L 170.20625 52.596563 
L 150.20625 52.596563 
L 150.20625 59.596563 
z
" style="fill: none; stroke: #daa520; stroke-width: 2; stroke-linejoin: miter"/>
    </g>
    <g id="text_18">
     <!-- With reference -->
     <g transform="translate(178.20625 59.596563) scale(0.1 -0.1)">
      <use xlink:href="#DejaVuSans-57"/>
      <use xlink:href="#DejaVuSans-69" transform="translate(96.626953 0)"/>
      <use xlink:href="#DejaVuSans-74" transform="translate(124.410156 0)"/>
      <use xlink:href="#DejaVuSans-68" transform="translate(163.619141 0)"/>
      <use xlink:href="#DejaVuSans-20" transform="translate(226.998047 0)"/>
      <use xlink:href="#DejaVuSans-72" transform="translate(258.785156 0)"/>
      <use xlink:href="#DejaVuSans-65" transform="translate(297.648438 0)"/>
      <use xlink:href="#DejaVuSans-66" transform="translate(359.171875 0)"/>
      <use xlink:href="#DejaVuSans-65" transform="translate(394.376953 0)"/>
      <use xlink:href="#DejaVuSans-72" transform="translate(455.900391 0)"/>
      <use xlink:href="#DejaVuSans-65" transform="translate(494.763672 0)"/>
      <use xlink:href="#DejaVuSans-6e" transform="translate(556.287109 0)"/>
      <use xlink:href="#DejaVuSans-63" transform="translate(619.666016 0)"/>
      <use xlink:href="#DejaVuSans-65" transform="translate(674.646484 0)"/>
     </g>
    </g>
    <g id="line2d_99">
     <path d="M 150.20625 70.774688 
L 160.20625 70.774688 
L 170.20625 70.774688 
" style="fill: none; stroke-dasharray: 11.1,4.8; stroke-dashoffset: 0; stroke: #000000; stroke-width: 3"/>
     <g>
      <use xlink:href="#mb1cd6fe1b6" x="160.20625" y="70.774688" style="stroke: #000000; stroke-linejoin: miter"/>
     </g>
    </g>
    <g id="text_19">
     <!-- Ground truth $h(1)$ -->
     <g transform="translate(178.20625 74.274688) scale(0.1 -0.1)">
      <defs>
       <path id="DejaVuSans-47" d="M 3809 666 
L 3809 1919 
L 2778 1919 
L 2778 2438 
L 4434 2438 
L 4434 434 
Q 4069 175 3628 42 
Q 3188 -91 2688 -91 
Q 1594 -91 976 548 
Q 359 1188 359 2328 
Q 359 3472 976 4111 
Q 1594 4750 2688 4750 
Q 3144 4750 3555 4637 
Q 3966 4525 4313 4306 
L 4313 3634 
Q 3963 3931 3569 4081 
Q 3175 4231 2741 4231 
Q 1884 4231 1454 3753 
Q 1025 3275 1025 2328 
Q 1025 1384 1454 906 
Q 1884 428 2741 428 
Q 3075 428 3337 486 
Q 3600 544 3809 666 
z
" transform="scale(0.015625)"/>
      </defs>
      <use xlink:href="#DejaVuSans-47" transform="translate(0 0.015625)"/>
      <use xlink:href="#DejaVuSans-72" transform="translate(77.490234 0.015625)"/>
      <use xlink:href="#DejaVuSans-6f" transform="translate(118.603516 0.015625)"/>
      <use xlink:href="#DejaVuSans-75" transform="translate(179.785156 0.015625)"/>
      <use xlink:href="#DejaVuSans-6e" transform="translate(243.164062 0.015625)"/>
      <use xlink:href="#DejaVuSans-64" transform="translate(306.542969 0.015625)"/>
      <use xlink:href="#DejaVuSans-20" transform="translate(370.019531 0.015625)"/>
      <use xlink:href="#DejaVuSans-74" transform="translate(401.806641 0.015625)"/>
      <use xlink:href="#DejaVuSans-72" transform="translate(441.015625 0.015625)"/>
      <use xlink:href="#DejaVuSans-75" transform="translate(482.128906 0.015625)"/>
      <use xlink:href="#DejaVuSans-74" transform="translate(545.507812 0.015625)"/>
      <use xlink:href="#DejaVuSans-68" transform="translate(584.716797 0.015625)"/>
      <use xlink:href="#DejaVuSans-20" transform="translate(648.095703 0.015625)"/>
      <use xlink:href="#DejaVuSans-Oblique-68" transform="translate(679.882812 0.015625)"/>
      <use xlink:href="#DejaVuSans-28" transform="translate(743.261719 0.015625)"/>
      <use xlink:href="#DejaVuSans-31" transform="translate(782.275391 0.015625)"/>
      <use xlink:href="#DejaVuSans-29" transform="translate(845.898438 0.015625)"/>
     </g>
    </g>
   </g>
  </g>
 </g>
 <defs>
  <clipPath id="pc454ac7208">
   <rect x="55.46" y="28.32" width="221.74" height="217.72"/>
  </clipPath>
 </defs>
</svg>
