<?xml version="1.0" encoding="utf-8" standalone="no"?>
<!DOCTYPE svg PUBLIC "-//W3C//DTD SVG 1.1//EN"
  "http://www.w3.org/Graphics/SVG/1.1/DTD/svg11.dtd">
<svg xmlns:xlink="http://www.w3.org/1999/xlink" width="288pt" height="288pt" viewBox="0 0 288 288" xmlns="http://www.w3.org/2000/svg" version="1.1">
 <metadata>
  <rdf:RDF xmlns:dc="http://purl.org/dc/elements/1.1/" xmlns:cc="http://creativecommons.org/ns#" xmlns:rdf="http://www.w3.org/1999/02/22-rdf-syntax-ns#">
   <cc:Work>
    <dc:type rdf:resource="http://purl.org/dc/dcmitype/StillImage"/>
    <dc:date>2026-03-10T15:39:52.597100</dc:date>
    <dc:format>image/svg+xml</dc:format>
    <dc:creator>
     <cc:Agent>
      <dc:title>Matplotlib v3.10.0, https://matplotlib.org/</dc:title>
     </cc:Agent>
    </dc:creator>
   </cc:Work>
  </rdf:RDF>
 </metadata>
 <defs>
  <style type="text/css">*{stroke-linejoin: round; stroke-linecap: butt}</style>
 </defs>
 <g id="figure_1">
  <g id="patch_1">
   <path d="M 0 288 
L 288 288 
L 288 0 
L 0 0 
z
" style="fill: #ffffff"/>
  </g>
  <g id="axes_1">
   <g id="patch_2">
    <path d="M 57.212054 246.04 
L 277.2 246.04 
L 277.2 26.88 
L 57.212054 26.88 
z
" style="fill: #ffffff"/>
   </g>
   <g id="FillBetweenPolyCollection_1">
    <defs>
     <path id="m7cfdf21d62" d="M 67.211506 -251.154728 
L 67.211506 -251.148029 
L 71.292915 -251.139825 
L 75.374324 -251.132225 
L 79.455733 -251.124993 
L 83.537142 -251.118022 
L 87.618551 -251.111253 
L 91.69996 -251.104646 
L 95.781369 -251.098177 
L 99.862778 -251.091824 
L 103.944187 -251.085573 
L 108.025596 -251.079413 
L 112.107005 -251.073334 
L 116.188414 -251.067328 
L 120.269823 -251.06139 
L 124.351232 -251.055513 
L 128.432641 -251.049692 
L 132.51405 -251.043925 
L 136.595459 -251.038206 
L 140.676868 -251.032534 
L 144.758277 -251.026905 
L 148.839686 -251.021317 
L 152.921095 -251.015768 
L 157.002504 -251.010255 
L 161.083913 -251.004777 
L 165.165322 -250.999332 
L 169.246731 -250.993919 
L 173.32814 -250.988536 
L 177.409549 -250.983182 
L 181.490959 -250.977855 
L 185.572368 -250.972556 
L 189.653777 -250.967282 
L 193.735186 -250.962033 
L 197.816595 -250.956807 
L 201.898004 -250.951605 
L 205.979413 -250.946425 
L 210.060822 -250.941266 
L 214.142231 -250.936128 
L 218.22364 -250.931011 
L 222.305049 -250.925913 
L 226.386458 -250.920834 
L 230.467867 -250.915773 
L 234.549276 -250.91073 
L 238.630685 -250.905705 
L 242.712094 -250.900697 
L 246.793503 -250.895705 
L 250.874912 -250.89073 
L 254.956321 -250.88577 
L 259.03773 -250.880826 
L 263.119139 -250.875896 
L 267.200548 -250.870981 
L 267.200548 -250.985557 
L 267.200548 -250.985557 
L 263.119139 -250.98901 
L 259.03773 -250.992462 
L 254.956321 -250.995914 
L 250.874912 -250.999366 
L 246.793503 -251.002819 
L 242.712094 -251.006271 
L 238.630685 -251.009723 
L 234.549276 -251.013175 
L 230.467867 -251.016628 
L 226.386458 -251.02008 
L 222.305049 -251.023532 
L 218.22364 -251.026985 
L 214.142231 -251.030437 
L 210.060822 -251.033889 
L 205.979413 -251.037342 
L 201.898004 -251.040794 
L 197.816595 -251.044246 
L 193.735186 -251.047699 
L 189.653777 -251.051151 
L 185.572368 -251.054604 
L 181.490959 -251.058056 
L 177.409549 -251.061508 
L 173.32814 -251.064961 
L 169.246731 -251.068413 
L 165.165322 -251.071866 
L 161.083913 -251.075318 
L 157.002504 -251.07877 
L 152.921095 -251.082223 
L 148.839686 -251.085675 
L 144.758277 -251.089128 
L 140.676868 -251.09258 
L 136.595459 -251.096033 
L 132.51405 -251.099485 
L 128.432641 -251.102938 
L 124.351232 -251.10639 
L 120.269823 -251.109843 
L 116.188414 -251.113295 
L 112.107005 -251.116748 
L 108.025596 -251.120201 
L 103.944187 -251.123653 
L 99.862778 -251.127106 
L 95.781369 -251.130558 
L 91.69996 -251.134011 
L 87.618551 -251.137464 
L 83.537142 -251.140917 
L 79.455733 -251.14437 
L 75.374324 -251.147822 
L 71.292915 -251.151275 
L 67.211506 -251.154728 
z
" style="stroke: #1f77b4; stroke-opacity: 0.5"/>
    </defs>
    <g clip-path="url(#p763d384f74)">
     <use xlink:href="#m7cfdf21d62" x="0" y="288" style="fill: #1f77b4; fill-opacity: 0.5; stroke: #1f77b4; stroke-opacity: 0.5"/>
    </g>
   </g>
   <g id="FillBetweenPolyCollection_2">
    <defs>
     <path id="md9b40d57c1" d="M 67.211506 -250.430068 
L 67.211506 -250.384552 
L 71.292915 -249.624795 
L 75.374324 -248.870189 
L 79.455733 -248.118907 
L 83.537142 -247.370087 
L 87.618551 -246.623225 
L 91.69996 -245.877986 
L 95.781369 -245.134134 
L 99.862778 -244.391492 
L 103.944187 -243.649924 
L 108.025596 -242.90932 
L 112.107005 -242.169592 
L 116.188414 -241.430665 
L 120.269823 -240.692478 
L 124.351232 -239.954976 
L 128.432641 -239.218112 
L 132.51405 -238.481848 
L 136.595459 -237.746146 
L 140.676868 -237.010976 
L 144.758277 -236.276308 
L 148.839686 -235.542118 
L 152.921095 -234.808382 
L 157.002504 -234.075079 
L 161.083913 -233.342191 
L 165.165322 -232.609699 
L 169.246731 -231.877589 
L 173.32814 -231.145844 
L 177.409549 -230.414451 
L 181.490959 -229.683398 
L 185.572368 -228.952672 
L 189.653777 -228.222263 
L 193.735186 -227.49216 
L 197.816595 -226.762353 
L 201.898004 -226.032834 
L 205.979413 -225.303593 
L 210.060822 -224.574624 
L 214.142231 -223.845917 
L 218.22364 -223.117466 
L 222.305049 -222.389265 
L 226.386458 -221.661305 
L 230.467867 -220.933583 
L 234.549276 -220.206091 
L 238.630685 -219.478824 
L 242.712094 -218.751777 
L 246.793503 -218.024944 
L 250.874912 -217.298322 
L 254.956321 -216.571904 
L 259.03773 -215.845688 
L 263.119139 -215.119668 
L 267.200548 -214.39384 
L 267.200548 -214.915752 
L 267.200548 -214.915752 
L 263.119139 -215.639776 
L 259.03773 -216.363817 
L 254.956321 -217.087876 
L 250.874912 -217.811952 
L 246.793503 -218.536046 
L 242.712094 -219.260159 
L 238.630685 -219.98429 
L 234.549276 -220.708441 
L 230.467867 -221.432612 
L 226.386458 -222.156803 
L 222.305049 -222.881015 
L 218.22364 -223.605248 
L 214.142231 -224.329503 
L 210.060822 -225.053781 
L 205.979413 -225.778082 
L 201.898004 -226.502406 
L 197.816595 -227.226755 
L 193.735186 -227.95113 
L 189.653777 -228.67553 
L 185.572368 -229.399957 
L 181.490959 -230.124412 
L 177.409549 -230.848895 
L 173.32814 -231.573409 
L 169.246731 -232.297953 
L 165.165322 -233.022529 
L 161.083913 -233.747138 
L 157.002504 -234.471783 
L 152.921095 -235.196463 
L 148.839686 -235.921181 
L 144.758277 -236.645939 
L 140.676868 -237.370739 
L 136.595459 -238.095582 
L 132.51405 -238.820472 
L 128.432641 -239.545411 
L 124.351232 -240.270402 
L 120.269823 -240.995448 
L 116.188414 -241.720554 
L 112.107005 -242.445724 
L 108.025596 -243.170964 
L 103.944187 -243.896279 
L 99.862778 -244.621678 
L 95.781369 -245.34717 
L 91.69996 -246.072766 
L 87.618551 -246.798482 
L 83.537142 -247.524338 
L 79.455733 -248.250361 
L 75.374324 -248.976595 
L 71.292915 -249.703113 
L 67.211506 -250.430068 
z
" style="stroke: #ff7f0e; stroke-opacity: 0.5"/>
    </defs>
    <g clip-path="url(#p763d384f74)">
     <use xlink:href="#md9b40d57c1" x="0" y="288" style="fill: #ff7f0e; fill-opacity: 0.5; stroke: #ff7f0e; stroke-opacity: 0.5"/>
    </g>
   </g>
   <g id="FillBetweenPolyCollection_3">
    <defs>
     <path id="m410608ac73" d="M 67.211506 -249.709413 
L 67.211506 -249.61624 
L 71.292915 -248.095805 
L 75.374324 -246.583382 
L 79.455733 -245.076139 
L 83.537142 -243.572737 
L 87.618551 -242.072387 
L 91.69996 -240.574572 
L 95.781369 -239.078924 
L 99.862778 -237.585166 
L 103.944187 -236.093087 
L 108.025596 -234.602516 
L 112.107005 -233.113314 
L 116.188414 -231.625366 
L 120.269823 -230.138574 
L 124.351232 -228.652855 
L 128.432641 -227.168137 
L 132.51405 -225.684355 
L 136.595459 -224.201456 
L 140.676868 -222.718009 
L 144.758277 -221.231363 
L 148.839686 -219.745211 
L 152.921095 -218.25953 
L 157.002504 -216.774297 
L 161.083913 -215.289494 
L 165.165322 -213.805103 
L 169.246731 -212.321106 
L 173.32814 -210.837488 
L 177.409549 -209.354236 
L 181.490959 -207.871336 
L 185.572368 -206.388775 
L 189.653777 -204.906544 
L 193.735186 -203.42463 
L 197.816595 -201.943024 
L 201.898004 -200.461716 
L 205.979413 -198.980698 
L 210.060822 -197.499962 
L 214.142231 -196.019498 
L 218.22364 -194.539301 
L 222.305049 -193.059362 
L 226.386458 -191.579676 
L 230.467867 -190.100236 
L 234.549276 -188.621036 
L 238.630685 -187.142069 
L 242.712094 -185.663332 
L 246.793503 -184.184817 
L 250.874912 -182.706521 
L 254.956321 -181.228439 
L 259.03773 -179.750566 
L 263.119139 -178.272897 
L 267.200548 -176.795429 
L 267.200548 -177.512349 
L 267.200548 -177.512349 
L 263.119139 -178.986528 
L 259.03773 -180.460681 
L 254.956321 -181.934808 
L 250.874912 -183.408908 
L 246.793503 -184.88298 
L 242.712094 -186.357023 
L 238.630685 -187.831037 
L 234.549276 -189.305567 
L 230.467867 -190.781157 
L 226.386458 -192.256675 
L 222.305049 -193.732119 
L 218.22364 -195.207487 
L 214.142231 -196.682778 
L 210.060822 -198.157989 
L 205.979413 -199.633118 
L 201.898004 -201.108163 
L 197.816595 -202.583121 
L 193.735186 -204.05799 
L 189.653777 -205.532767 
L 185.572368 -207.007449 
L 181.490959 -208.482032 
L 177.409549 -209.956514 
L 173.32814 -211.43089 
L 169.246731 -212.905157 
L 165.165322 -214.379311 
L 161.083913 -215.853347 
L 157.002504 -217.32726 
L 152.921095 -218.801045 
L 148.839686 -220.274696 
L 144.758277 -221.748207 
L 140.676868 -223.22157 
L 136.595459 -224.694779 
L 132.51405 -226.167823 
L 128.432641 -227.640695 
L 124.351232 -229.117629 
L 120.269823 -230.594398 
L 116.188414 -232.070617 
L 112.107005 -233.546243 
L 108.025596 -235.021227 
L 103.944187 -236.495511 
L 99.862778 -237.969026 
L 95.781369 -239.441685 
L 91.69996 -240.913382 
L 87.618551 -242.38398 
L 83.537142 -243.853295 
L 79.455733 -245.321067 
L 75.374324 -246.786908 
L 71.292915 -248.250153 
L 67.211506 -249.709413 
z
" style="stroke: #2ca02c; stroke-opacity: 0.5"/>
    </defs>
    <g clip-path="url(#p763d384f74)">
     <use xlink:href="#m410608ac73" x="0" y="288" style="fill: #2ca02c; fill-opacity: 0.5; stroke: #2ca02c; stroke-opacity: 0.5"/>
    </g>
   </g>
   <g id="FillBetweenPolyCollection_4">
    <defs>
     <path id="m32a41cdc71" d="M 67.211506 -248.800237 
L 67.211506 -248.67001 
L 71.292915 -246.26181 
L 75.374324 -243.882899 
L 79.455733 -241.522811 
L 83.537142 -239.176622 
L 87.618551 -236.841449 
L 91.69996 -234.515398 
L 95.781369 -232.197128 
L 99.862778 -229.88564 
L 103.944187 -227.580158 
L 108.025596 -225.280068 
L 112.107005 -222.984868 
L 116.188414 -220.693086 
L 120.269823 -218.399522 
L 124.351232 -216.109323 
L 128.432641 -213.822261 
L 132.51405 -211.538136 
L 136.595459 -209.25677 
L 140.676868 -206.978007 
L 144.758277 -204.701708 
L 148.839686 -202.427746 
L 152.921095 -200.156008 
L 157.002504 -197.886392 
L 161.083913 -195.618801 
L 165.165322 -193.353152 
L 169.246731 -191.089364 
L 173.32814 -188.827363 
L 177.409549 -186.567084 
L 181.490959 -184.308462 
L 185.572368 -182.05144 
L 189.653777 -179.795964 
L 193.735186 -177.541981 
L 197.816595 -175.289445 
L 201.898004 -173.038311 
L 205.979413 -170.788537 
L 210.060822 -168.540083 
L 214.142231 -166.292911 
L 218.22364 -164.046987 
L 222.305049 -161.802277 
L 226.386458 -159.558749 
L 230.467867 -157.316373 
L 234.549276 -155.07512 
L 238.630685 -152.834963 
L 242.712094 -150.595876 
L 246.793503 -148.357834 
L 250.874912 -146.120814 
L 254.956321 -143.884792 
L 259.03773 -141.649748 
L 263.119139 -139.41566 
L 267.200548 -137.182508 
L 267.200548 -138.424199 
L 267.200548 -138.424199 
L 263.119139 -140.651098 
L 259.03773 -142.878563 
L 254.956321 -145.106606 
L 250.874912 -147.335238 
L 246.793503 -149.564474 
L 242.712094 -151.794326 
L 238.630685 -154.024809 
L 234.549276 -156.255938 
L 230.467867 -158.487728 
L 226.386458 -160.720196 
L 222.305049 -162.953358 
L 218.22364 -165.187233 
L 214.142231 -167.42184 
L 210.060822 -169.657199 
L 205.979413 -171.893331 
L 201.898004 -174.130258 
L 197.816595 -176.368005 
L 193.735186 -178.606595 
L 189.653777 -180.846057 
L 185.572368 -183.086417 
L 181.490959 -185.327708 
L 177.409549 -187.56996 
L 173.32814 -189.81321 
L 169.246731 -192.057494 
L 165.165322 -194.302853 
L 161.083913 -196.549331 
L 157.002504 -198.796973 
L 152.921095 -201.045833 
L 148.839686 -203.295966 
L 144.758277 -205.547433 
L 140.676868 -207.800302 
L 136.595459 -210.054647 
L 132.51405 -212.310553 
L 128.432641 -214.568112 
L 124.351232 -216.827429 
L 120.269823 -219.088622 
L 116.188414 -221.351828 
L 112.107005 -223.617203 
L 108.025596 -225.884933 
L 103.944187 -228.155232 
L 99.862778 -230.428364 
L 95.781369 -232.704647 
L 91.69996 -234.984484 
L 87.618551 -237.268392 
L 83.537142 -239.557064 
L 79.455733 -241.856203 
L 75.374324 -244.161606 
L 71.292915 -246.474855 
L 67.211506 -248.800237 
z
" style="stroke: #d62728; stroke-opacity: 0.5"/>
    </defs>
    <g clip-path="url(#p763d384f74)">
     <use xlink:href="#m32a41cdc71" x="0" y="288" style="fill: #d62728; fill-opacity: 0.5; stroke: #d62728; stroke-opacity: 0.5"/>
    </g>
   </g>
   <g id="FillBetweenPolyCollection_5">
    <defs>
     <path id="m3ca197e4cd" d="M 67.211506 -248.150308 
L 67.211506 -247.794885 
L 71.292915 -244.552249 
L 75.374324 -241.353648 
L 79.455733 -238.183311 
L 83.537142 -235.033827 
L 87.618551 -231.900862 
L 91.69996 -228.781567 
L 95.781369 -225.673927 
L 99.862778 -222.576442 
L 103.944187 -219.48795 
L 108.025596 -216.407527 
L 112.107005 -213.334418 
L 116.188414 -210.267997 
L 120.269823 -207.195329 
L 124.351232 -204.080997 
L 128.432641 -200.968318 
L 132.51405 -197.857189 
L 136.595459 -194.747517 
L 140.676868 -191.639222 
L 144.758277 -188.53223 
L 148.839686 -185.426475 
L 152.921095 -182.321899 
L 157.002504 -179.218446 
L 161.083913 -176.111955 
L 165.165322 -173.004723 
L 169.246731 -169.898257 
L 173.32814 -166.79253 
L 177.409549 -163.687512 
L 181.490959 -160.583178 
L 185.572368 -157.479506 
L 189.653777 -154.376472 
L 193.735186 -151.274056 
L 197.816595 -148.172238 
L 201.898004 -145.071 
L 205.979413 -141.970326 
L 210.060822 -138.870198 
L 214.142231 -135.770602 
L 218.22364 -132.671523 
L 222.305049 -129.572947 
L 226.386458 -126.474862 
L 230.467867 -123.377254 
L 234.549276 -120.280113 
L 238.630685 -117.183331 
L 242.712094 -114.068897 
L 246.793503 -110.954492 
L 250.874912 -107.840114 
L 254.956321 -104.725764 
L 259.03773 -101.61144 
L 263.119139 -98.497142 
L 267.200548 -95.382869 
L 267.200548 -99.926442 
L 267.200548 -99.926442 
L 263.119139 -102.939854 
L 259.03773 -105.953497 
L 254.956321 -108.967375 
L 250.874912 -111.981493 
L 246.793503 -114.995857 
L 242.712094 -118.010472 
L 238.630685 -121.025344 
L 234.549276 -124.040479 
L 230.467867 -127.055883 
L 226.386458 -130.071562 
L 222.305049 -133.087524 
L 218.22364 -136.103776 
L 214.142231 -139.120326 
L 210.060822 -142.137181 
L 205.979413 -145.154351 
L 201.898004 -148.171843 
L 197.816595 -151.189668 
L 193.735186 -154.207836 
L 189.653777 -157.226358 
L 185.572368 -160.245245 
L 181.490959 -163.264509 
L 177.409549 -166.284163 
L 173.32814 -169.304221 
L 169.246731 -172.324699 
L 165.165322 -175.345613 
L 161.083913 -178.366979 
L 157.002504 -181.388818 
L 152.921095 -184.411149 
L 148.839686 -187.433995 
L 144.758277 -190.457381 
L 140.676868 -193.481334 
L 136.595459 -196.505884 
L 132.51405 -199.531064 
L 128.432641 -202.556911 
L 124.351232 -205.583468 
L 120.269823 -208.610781 
L 116.188414 -211.638906 
L 112.107005 -214.667905 
L 108.025596 -217.697851 
L 103.944187 -220.728831 
L 99.862778 -223.760949 
L 95.781369 -226.794333 
L 91.69996 -229.829142 
L 87.618551 -232.874809 
L 83.537142 -235.942178 
L 79.455733 -239.005069 
L 75.374324 -242.062352 
L 71.292915 -245.112107 
L 67.211506 -248.150308 
z
" style="stroke: #9467bd; stroke-opacity: 0.5"/>
    </defs>
    <g clip-path="url(#p763d384f74)">
     <use xlink:href="#m3ca197e4cd" x="0" y="288" style="fill: #9467bd; fill-opacity: 0.5; stroke: #9467bd; stroke-opacity: 0.5"/>
    </g>
   </g>
   <g id="FillBetweenPolyCollection_6">
    <defs>
     <path id="mb09cbca3be" d="M 67.211506 -247.243654 
L 67.211506 -246.369495 
L 71.292915 -241.990551 
L 75.374324 -237.753998 
L 79.455733 -233.607344 
L 83.537142 -229.526281 
L 87.618551 -225.496738 
L 91.69996 -221.50954 
L 95.781369 -217.558237 
L 99.862778 -213.638052 
L 103.944187 -209.745305 
L 108.025596 -205.877079 
L 112.107005 -202.031004 
L 116.188414 -198.205118 
L 120.269823 -194.397771 
L 124.351232 -190.607555 
L 128.432641 -186.833257 
L 132.51405 -183.07382 
L 136.595459 -179.115799 
L 140.676868 -175.141388 
L 144.758277 -171.157667 
L 148.839686 -167.174779 
L 152.921095 -163.192684 
L 157.002504 -159.211347 
L 161.083913 -155.230733 
L 165.165322 -151.250814 
L 169.246731 -147.27156 
L 173.32814 -143.292946 
L 177.409549 -139.314949 
L 181.490959 -135.337546 
L 185.572368 -131.360717 
L 189.653777 -127.384442 
L 193.735186 -123.408703 
L 197.816595 -119.433484 
L 201.898004 -115.458769 
L 205.979413 -111.484543 
L 210.060822 -107.510792 
L 214.142231 -103.537503 
L 218.22364 -99.564662 
L 222.305049 -95.592259 
L 226.386458 -91.620282 
L 230.467867 -87.64872 
L 234.549276 -83.677563 
L 238.630685 -79.706802 
L 242.712094 -75.736427 
L 246.793503 -71.766429 
L 250.874912 -67.7968 
L 254.956321 -63.827532 
L 259.03773 -59.858617 
L 263.119139 -55.890048 
L 267.200548 -51.921818 
L 267.200548 -65.643429 
L 267.200548 -65.643429 
L 263.119139 -69.177657 
L 259.03773 -72.715343 
L 254.956321 -76.256562 
L 250.874912 -79.801393 
L 246.793503 -83.349919 
L 242.712094 -86.902226 
L 238.630685 -90.458403 
L 234.549276 -94.018545 
L 230.467867 -97.582751 
L 226.386458 -101.151125 
L 222.305049 -104.723777 
L 218.22364 -108.300821 
L 214.142231 -111.882378 
L 210.060822 -115.468577 
L 205.979413 -119.059553 
L 201.898004 -122.655448 
L 197.816595 -126.256416 
L 193.735186 -129.862616 
L 189.653777 -133.47422 
L 185.572368 -137.091412 
L 181.490959 -140.714387 
L 177.409549 -144.364602 
L 173.32814 -148.090307 
L 169.246731 -151.819268 
L 165.165322 -155.551613 
L 161.083913 -159.287482 
L 157.002504 -163.027024 
L 152.921095 -166.770403 
L 148.839686 -170.517798 
L 144.758277 -174.269405 
L 140.676868 -178.02544 
L 136.595459 -181.786141 
L 132.51405 -185.551775 
L 128.432641 -189.322639 
L 124.351232 -193.099069 
L 120.269823 -196.881444 
L 116.188414 -200.670201 
L 112.107005 -204.465844 
L 108.025596 -208.268962 
L 103.944187 -212.080252 
L 99.862778 -215.900556 
L 95.781369 -219.730904 
L 91.69996 -223.59793 
L 87.618551 -227.545903 
L 83.537142 -231.491917 
L 79.455733 -235.435576 
L 75.374324 -239.376281 
L 71.292915 -243.313019 
L 67.211506 -247.243654 
z
" style="stroke: #8c564b; stroke-opacity: 0.5"/>
    </defs>
    <g clip-path="url(#p763d384f74)">
     <use xlink:href="#mb09cbca3be" x="0" y="288" style="fill: #8c564b; fill-opacity: 0.5; stroke: #8c564b; stroke-opacity: 0.5"/>
    </g>
   </g>
   <g id="matplotlib.axis_1">
    <g id="xtick_1">
     <g id="line2d_1">
      <defs>
       <path id="mea42a3bbd1" d="M 0 0 
L 0 3.5 
" style="stroke: #000000; stroke-width: 0.8"/>
      </defs>
      <g>
       <use xlink:href="#mea42a3bbd1" x="63.130097" y="246.04" style="stroke: #000000; stroke-width: 0.8"/>
      </g>
     </g>
     <g id="text_1">
      <!-- 0 -->
      <g transform="translate(59.948847 260.638438) scale(0.1 -0.1)">
       <defs>
        <path id="DejaVuSans-30" d="M 2034 4250 
Q 1547 4250 1301 3770 
Q 1056 3291 1056 2328 
Q 1056 1369 1301 889 
Q 1547 409 2034 409 
Q 2525 409 2770 889 
Q 3016 1369 3016 2328 
Q 3016 3291 2770 3770 
Q 2525 4250 2034 4250 
z
M 2034 4750 
Q 2819 4750 3233 4129 
Q 3647 3509 3647 2328 
Q 3647 1150 3233 529 
Q 2819 -91 2034 -91 
Q 1250 -91 836 529 
Q 422 1150 422 2328 
Q 422 3509 836 4129 
Q 1250 4750 2034 4750 
z
" transform="scale(0.015625)"/>
       </defs>
       <use xlink:href="#DejaVuSans-30"/>
      </g>
     </g>
    </g>
    <g id="xtick_2">
     <g id="line2d_2">
      <g>
       <use xlink:href="#mea42a3bbd1" x="103.944187" y="246.04" style="stroke: #000000; stroke-width: 0.8"/>
      </g>
     </g>
     <g id="text_2">
      <!-- 10 -->
      <g transform="translate(97.581687 260.638438) scale(0.1 -0.1)">
       <defs>
        <path id="DejaVuSans-31" d="M 794 531 
L 1825 531 
L 1825 4091 
L 703 3866 
L 703 4441 
L 1819 4666 
L 2450 4666 
L 2450 531 
L 3481 531 
L 3481 0 
L 794 0 
L 794 531 
z
" transform="scale(0.015625)"/>
       </defs>
       <use xlink:href="#DejaVuSans-31"/>
       <use xlink:href="#DejaVuSans-30" transform="translate(63.623047 0)"/>
      </g>
     </g>
    </g>
    <g id="xtick_3">
     <g id="line2d_3">
      <g>
       <use xlink:href="#mea42a3bbd1" x="144.758277" y="246.04" style="stroke: #000000; stroke-width: 0.8"/>
      </g>
     </g>
     <g id="text_3">
      <!-- 20 -->
      <g transform="translate(138.395777 260.638438) scale(0.1 -0.1)">
       <defs>
        <path id="DejaVuSans-32" d="M 1228 531 
L 3431 531 
L 3431 0 
L 469 0 
L 469 531 
Q 828 903 1448 1529 
Q 2069 2156 2228 2338 
Q 2531 2678 2651 2914 
Q 2772 3150 2772 3378 
Q 2772 3750 2511 3984 
Q 2250 4219 1831 4219 
Q 1534 4219 1204 4116 
Q 875 4013 500 3803 
L 500 4441 
Q 881 4594 1212 4672 
Q 1544 4750 1819 4750 
Q 2544 4750 2975 4387 
Q 3406 4025 3406 3419 
Q 3406 3131 3298 2873 
Q 3191 2616 2906 2266 
Q 2828 2175 2409 1742 
Q 1991 1309 1228 531 
z
" transform="scale(0.015625)"/>
       </defs>
       <use xlink:href="#DejaVuSans-32"/>
       <use xlink:href="#DejaVuSans-30" transform="translate(63.623047 0)"/>
      </g>
     </g>
    </g>
    <g id="xtick_4">
     <g id="line2d_4">
      <g>
       <use xlink:href="#mea42a3bbd1" x="185.572368" y="246.04" style="stroke: #000000; stroke-width: 0.8"/>
      </g>
     </g>
     <g id="text_4">
      <!-- 30 -->
      <g transform="translate(179.209868 260.638438) scale(0.1 -0.1)">
       <defs>
        <path id="DejaVuSans-33" d="M 2597 2516 
Q 3050 2419 3304 2112 
Q 3559 1806 3559 1356 
Q 3559 666 3084 287 
Q 2609 -91 1734 -91 
Q 1441 -91 1130 -33 
Q 819 25 488 141 
L 488 750 
Q 750 597 1062 519 
Q 1375 441 1716 441 
Q 2309 441 2620 675 
Q 2931 909 2931 1356 
Q 2931 1769 2642 2001 
Q 2353 2234 1838 2234 
L 1294 2234 
L 1294 2753 
L 1863 2753 
Q 2328 2753 2575 2939 
Q 2822 3125 2822 3475 
Q 2822 3834 2567 4026 
Q 2313 4219 1838 4219 
Q 1578 4219 1281 4162 
Q 984 4106 628 3988 
L 628 4550 
Q 988 4650 1302 4700 
Q 1616 4750 1894 4750 
Q 2613 4750 3031 4423 
Q 3450 4097 3450 3541 
Q 3450 3153 3228 2886 
Q 3006 2619 2597 2516 
z
" transform="scale(0.015625)"/>
       </defs>
       <use xlink:href="#DejaVuSans-33"/>
       <use xlink:href="#DejaVuSans-30" transform="translate(63.623047 0)"/>
      </g>
     </g>
    </g>
    <g id="xtick_5">
     <g id="line2d_5">
      <g>
       <use xlink:href="#mea42a3bbd1" x="226.386458" y="246.04" style="stroke: #000000; stroke-width: 0.8"/>
      </g>
     </g>
     <g id="text_5">
      <!-- 40 -->
      <g transform="translate(220.023958 260.638438) scale(0.1 -0.1)">
       <defs>
        <path id="DejaVuSans-34" d="M 2419 4116 
L 825 1625 
L 2419 1625 
L 2419 4116 
z
M 2253 4666 
L 3047 4666 
L 3047 1625 
L 3713 1625 
L 3713 1100 
L 3047 1100 
L 3047 0 
L 2419 0 
L 2419 1100 
L 313 1100 
L 313 1709 
L 2253 4666 
z
" transform="scale(0.015625)"/>
       </defs>
       <use xlink:href="#DejaVuSans-34"/>
       <use xlink:href="#DejaVuSans-30" transform="translate(63.623047 0)"/>
      </g>
     </g>
    </g>
    <g id="xtick_6">
     <g id="line2d_6">
      <g>
       <use xlink:href="#mea42a3bbd1" x="267.200548" y="246.04" style="stroke: #000000; stroke-width: 0.8"/>
      </g>
     </g>
     <g id="text_6">
      <!-- 50 -->
      <g transform="translate(260.838048 260.638438) scale(0.1 -0.1)">
       <defs>
        <path id="DejaVuSans-35" d="M 691 4666 
L 3169 4666 
L 3169 4134 
L 1269 4134 
L 1269 2991 
Q 1406 3038 1543 3061 
Q 1681 3084 1819 3084 
Q 2600 3084 3056 2656 
Q 3513 2228 3513 1497 
Q 3513 744 3044 326 
Q 2575 -91 1722 -91 
Q 1428 -91 1123 -41 
Q 819 9 494 109 
L 494 744 
Q 775 591 1075 516 
Q 1375 441 1709 441 
Q 2250 441 2565 725 
Q 2881 1009 2881 1497 
Q 2881 1984 2565 2268 
Q 2250 2553 1709 2553 
Q 1456 2553 1204 2497 
Q 953 2441 691 2322 
L 691 4666 
z
" transform="scale(0.015625)"/>
       </defs>
       <use xlink:href="#DejaVuSans-35"/>
       <use xlink:href="#DejaVuSans-30" transform="translate(63.623047 0)"/>
      </g>
     </g>
    </g>
    <g id="text_7">
     <!-- t -->
     <g transform="translate(165.245871 274.316562) scale(0.1 -0.1)">
      <defs>
       <path id="DejaVuSans-74" d="M 1172 4494 
L 1172 3500 
L 2356 3500 
L 2356 3053 
L 1172 3053 
L 1172 1153 
Q 1172 725 1289 603 
Q 1406 481 1766 481 
L 2356 481 
L 2356 0 
L 1766 0 
Q 1100 0 847 248 
Q 594 497 594 1153 
L 594 3053 
L 172 3053 
L 172 3500 
L 594 3500 
L 594 4494 
L 1172 4494 
z
" transform="scale(0.015625)"/>
      </defs>
      <use xlink:href="#DejaVuSans-74"/>
     </g>
    </g>
   </g>
   <g id="matplotlib.axis_2">
    <g id="ytick_1">
     <g id="line2d_7">
      <defs>
       <path id="m0e82a53109" d="M 0 0 
L -3.5 0 
" style="stroke: #000000; stroke-width: 0.8"/>
      </defs>
      <g>
       <use xlink:href="#m0e82a53109" x="57.212054" y="195.876592" style="stroke: #000000; stroke-width: 0.8"/>
      </g>
     </g>
     <g id="text_8">
      <!-- $\mathdefault{10^{-2}}$ -->
      <g transform="translate(26.712054 199.675811) scale(0.1 -0.1)">
       <defs>
        <path id="DejaVuSans-2212" d="M 678 2272 
L 4684 2272 
L 4684 1741 
L 678 1741 
L 678 2272 
z
" transform="scale(0.015625)"/>
       </defs>
       <use xlink:href="#DejaVuSans-31" transform="translate(0 0.765625)"/>
       <use xlink:href="#DejaVuSans-30" transform="translate(63.623047 0.765625)"/>
       <use xlink:href="#DejaVuSans-2212" transform="translate(128.203125 39.046875) scale(0.7)"/>
       <use xlink:href="#DejaVuSans-32" transform="translate(186.855469 39.046875) scale(0.7)"/>
      </g>
     </g>
    </g>
    <g id="ytick_2">
     <g id="line2d_8">
      <g>
       <use xlink:href="#m0e82a53109" x="57.212054" y="116.359205" style="stroke: #000000; stroke-width: 0.8"/>
      </g>
     </g>
     <g id="text_9">
      <!-- $\mathdefault{10^{-1}}$ -->
      <g transform="translate(26.712054 120.158424) scale(0.1 -0.1)">
       <use xlink:href="#DejaVuSans-31" transform="translate(0 0.684375)"/>
       <use xlink:href="#DejaVuSans-30" transform="translate(63.623047 0.684375)"/>
       <use xlink:href="#DejaVuSans-2212" transform="translate(128.203125 38.965625) scale(0.7)"/>
       <use xlink:href="#DejaVuSans-31" transform="translate(186.855469 38.965625) scale(0.7)"/>
      </g>
     </g>
    </g>
    <g id="ytick_3">
     <g id="line2d_9">
      <g>
       <use xlink:href="#m0e82a53109" x="57.212054" y="36.841818" style="stroke: #000000; stroke-width: 0.8"/>
      </g>
     </g>
     <g id="text_10">
      <!-- $\mathdefault{10^{0}}$ -->
      <g transform="translate(32.612054 40.641037) scale(0.1 -0.1)">
       <use xlink:href="#DejaVuSans-31" transform="translate(0 0.765625)"/>
       <use xlink:href="#DejaVuSans-30" transform="translate(63.623047 0.765625)"/>
       <use xlink:href="#DejaVuSans-30" transform="translate(128.203125 39.046875) scale(0.7)"/>
      </g>
     </g>
    </g>
    <g id="ytick_4">
     <g id="line2d_10">
      <defs>
       <path id="m5f31b2ea54" d="M 0 0 
L -2 0 
" style="stroke: #000000; stroke-width: 0.6"/>
      </defs>
      <g>
       <use xlink:href="#m5f31b2ea54" x="57.212054" y="237.454544" style="stroke: #000000; stroke-width: 0.6"/>
      </g>
     </g>
    </g>
    <g id="ytick_5">
     <g id="line2d_11">
      <g>
       <use xlink:href="#m5f31b2ea54" x="57.212054" y="227.519742" style="stroke: #000000; stroke-width: 0.6"/>
      </g>
     </g>
    </g>
    <g id="ytick_6">
     <g id="line2d_12">
      <g>
       <use xlink:href="#m5f31b2ea54" x="57.212054" y="219.813711" style="stroke: #000000; stroke-width: 0.6"/>
      </g>
     </g>
    </g>
    <g id="ytick_7">
     <g id="line2d_13">
      <g>
       <use xlink:href="#m5f31b2ea54" x="57.212054" y="213.517425" style="stroke: #000000; stroke-width: 0.6"/>
      </g>
     </g>
    </g>
    <g id="ytick_8">
     <g id="line2d_14">
      <g>
       <use xlink:href="#m5f31b2ea54" x="57.212054" y="208.193991" style="stroke: #000000; stroke-width: 0.6"/>
      </g>
     </g>
    </g>
    <g id="ytick_9">
     <g id="line2d_15">
      <g>
       <use xlink:href="#m5f31b2ea54" x="57.212054" y="203.582623" style="stroke: #000000; stroke-width: 0.6"/>
      </g>
     </g>
    </g>
    <g id="ytick_10">
     <g id="line2d_16">
      <g>
       <use xlink:href="#m5f31b2ea54" x="57.212054" y="199.515108" style="stroke: #000000; stroke-width: 0.6"/>
      </g>
     </g>
    </g>
    <g id="ytick_11">
     <g id="line2d_17">
      <g>
       <use xlink:href="#m5f31b2ea54" x="57.212054" y="171.939473" style="stroke: #000000; stroke-width: 0.6"/>
      </g>
     </g>
    </g>
    <g id="ytick_12">
     <g id="line2d_18">
      <g>
       <use xlink:href="#m5f31b2ea54" x="57.212054" y="157.937157" style="stroke: #000000; stroke-width: 0.6"/>
      </g>
     </g>
    </g>
    <g id="ytick_13">
     <g id="line2d_19">
      <g>
       <use xlink:href="#m5f31b2ea54" x="57.212054" y="148.002355" style="stroke: #000000; stroke-width: 0.6"/>
      </g>
     </g>
    </g>
    <g id="ytick_14">
     <g id="line2d_20">
      <g>
       <use xlink:href="#m5f31b2ea54" x="57.212054" y="140.296324" style="stroke: #000000; stroke-width: 0.6"/>
      </g>
     </g>
    </g>
    <g id="ytick_15">
     <g id="line2d_21">
      <g>
       <use xlink:href="#m5f31b2ea54" x="57.212054" y="134.000038" style="stroke: #000000; stroke-width: 0.6"/>
      </g>
     </g>
    </g>
    <g id="ytick_16">
     <g id="line2d_22">
      <g>
       <use xlink:href="#m5f31b2ea54" x="57.212054" y="128.676604" style="stroke: #000000; stroke-width: 0.6"/>
      </g>
     </g>
    </g>
    <g id="ytick_17">
     <g id="line2d_23">
      <g>
       <use xlink:href="#m5f31b2ea54" x="57.212054" y="124.065236" style="stroke: #000000; stroke-width: 0.6"/>
      </g>
     </g>
    </g>
    <g id="ytick_18">
     <g id="line2d_24">
      <g>
       <use xlink:href="#m5f31b2ea54" x="57.212054" y="119.997721" style="stroke: #000000; stroke-width: 0.6"/>
      </g>
     </g>
    </g>
    <g id="ytick_19">
     <g id="line2d_25">
      <g>
       <use xlink:href="#m5f31b2ea54" x="57.212054" y="92.422086" style="stroke: #000000; stroke-width: 0.6"/>
      </g>
     </g>
    </g>
    <g id="ytick_20">
     <g id="line2d_26">
      <g>
       <use xlink:href="#m5f31b2ea54" x="57.212054" y="78.41977" style="stroke: #000000; stroke-width: 0.6"/>
      </g>
     </g>
    </g>
    <g id="ytick_21">
     <g id="line2d_27">
      <g>
       <use xlink:href="#m5f31b2ea54" x="57.212054" y="68.484968" style="stroke: #000000; stroke-width: 0.6"/>
      </g>
     </g>
    </g>
    <g id="ytick_22">
     <g id="line2d_28">
      <g>
       <use xlink:href="#m5f31b2ea54" x="57.212054" y="60.778937" style="stroke: #000000; stroke-width: 0.6"/>
      </g>
     </g>
    </g>
    <g id="ytick_23">
     <g id="line2d_29">
      <g>
       <use xlink:href="#m5f31b2ea54" x="57.212054" y="54.482651" style="stroke: #000000; stroke-width: 0.6"/>
      </g>
     </g>
    </g>
    <g id="ytick_24">
     <g id="line2d_30">
      <g>
       <use xlink:href="#m5f31b2ea54" x="57.212054" y="49.159217" style="stroke: #000000; stroke-width: 0.6"/>
      </g>
     </g>
    </g>
    <g id="ytick_25">
     <g id="line2d_31">
      <g>
       <use xlink:href="#m5f31b2ea54" x="57.212054" y="44.547849" style="stroke: #000000; stroke-width: 0.6"/>
      </g>
     </g>
    </g>
    <g id="ytick_26">
     <g id="line2d_32">
      <g>
       <use xlink:href="#m5f31b2ea54" x="57.212054" y="40.480334" style="stroke: #000000; stroke-width: 0.6"/>
      </g>
     </g>
    </g>
    <g id="text_11">
     <!-- $S(t)$ -->
     <g transform="translate(20.632366 145.51) rotate(-90) scale(0.1 -0.1)">
      <defs>
       <path id="DejaVuSans-Oblique-53" d="M 3859 4513 
L 3738 3897 
Q 3422 4066 3111 4152 
Q 2800 4238 2509 4238 
Q 1944 4238 1609 3991 
Q 1275 3744 1275 3334 
Q 1275 3109 1398 2989 
Q 1522 2869 2034 2731 
L 2413 2638 
Q 3053 2472 3303 2217 
Q 3553 1963 3553 1503 
Q 3553 797 2998 353 
Q 2444 -91 1538 -91 
Q 1166 -91 791 -17 
Q 416 56 38 206 
L 166 856 
Q 513 641 861 531 
Q 1209 422 1556 422 
Q 2147 422 2503 684 
Q 2859 947 2859 1369 
Q 2859 1650 2717 1795 
Q 2575 1941 2106 2059 
L 1728 2156 
Q 1081 2325 845 2545 
Q 609 2766 609 3163 
Q 609 3859 1145 4304 
Q 1681 4750 2541 4750 
Q 2875 4750 3203 4690 
Q 3531 4631 3859 4513 
z
" transform="scale(0.015625)"/>
       <path id="DejaVuSans-28" d="M 1984 4856 
Q 1566 4138 1362 3434 
Q 1159 2731 1159 2009 
Q 1159 1288 1364 580 
Q 1569 -128 1984 -844 
L 1484 -844 
Q 1016 -109 783 600 
Q 550 1309 550 2009 
Q 550 2706 781 3412 
Q 1013 4119 1484 4856 
L 1984 4856 
z
" transform="scale(0.015625)"/>
       <path id="DejaVuSans-Oblique-74" d="M 2706 3500 
L 2619 3053 
L 1472 3053 
L 1100 1153 
Q 1081 1047 1072 975 
Q 1063 903 1063 863 
Q 1063 663 1183 572 
Q 1303 481 1569 481 
L 2150 481 
L 2053 0 
L 1503 0 
Q 991 0 739 200 
Q 488 400 488 806 
Q 488 878 497 964 
Q 506 1050 525 1153 
L 897 3053 
L 409 3053 
L 500 3500 
L 978 3500 
L 1172 4494 
L 1747 4494 
L 1556 3500 
L 2706 3500 
z
" transform="scale(0.015625)"/>
       <path id="DejaVuSans-29" d="M 513 4856 
L 1013 4856 
Q 1481 4119 1714 3412 
Q 1947 2706 1947 2009 
Q 1947 1309 1714 600 
Q 1481 -109 1013 -844 
L 513 -844 
Q 928 -128 1133 580 
Q 1338 1288 1338 2009 
Q 1338 2731 1133 3434 
Q 928 4138 513 4856 
z
" transform="scale(0.015625)"/>
      </defs>
      <use xlink:href="#DejaVuSans-Oblique-53" transform="translate(0 0.125)"/>
      <use xlink:href="#DejaVuSans-28" transform="translate(63.476562 0.125)"/>
      <use xlink:href="#DejaVuSans-Oblique-74" transform="translate(102.490234 0.125)"/>
      <use xlink:href="#DejaVuSans-29" transform="translate(141.699219 0.125)"/>
     </g>
    </g>
   </g>
   <g id="line2d_33">
    <path d="M 67.211506 36.841818 
L 71.292915 36.841818 
L 75.374324 36.841818 
L 79.455733 36.841818 
L 83.537142 36.841818 
L 87.618551 36.841818 
L 91.69996 36.841818 
L 95.781369 36.841818 
L 99.862778 36.841818 
L 103.944187 36.841818 
L 108.025596 36.841818 
L 112.107005 36.841818 
L 116.188414 36.841818 
L 120.269823 36.841818 
L 124.351232 36.841818 
L 128.432641 36.841818 
L 132.51405 36.841818 
L 136.595459 36.841818 
L 140.676868 36.841818 
L 144.758277 36.841818 
L 148.839686 36.841818 
L 152.921095 36.841818 
L 157.002504 36.841818 
L 161.083913 36.841818 
L 165.165322 36.841818 
L 169.246731 36.841818 
L 173.32814 36.841818 
L 177.409549 36.841818 
L 181.490959 36.841818 
L 185.572368 36.841818 
L 189.653777 36.841818 
L 193.735186 36.841818 
L 197.816595 36.841818 
L 201.898004 36.841818 
L 205.979413 36.841818 
L 210.060822 36.841818 
L 214.142231 36.841818 
L 218.22364 36.841818 
L 222.305049 36.841818 
L 226.386458 36.841818 
L 230.467867 36.841818 
L 234.549276 36.841818 
L 238.630685 36.841818 
L 242.712094 36.841818 
L 246.793503 36.841818 
L 250.874912 36.841818 
L 254.956321 36.841818 
L 259.03773 36.841818 
L 263.119139 36.841818 
L 267.200548 36.841818 
" clip-path="url(#p763d384f74)" style="fill: none; stroke-dasharray: 11.1,4.8; stroke-dashoffset: 0; stroke: #1f77b4; stroke-width: 3"/>
   </g>
   <g id="line2d_34">
    <path d="M 67.211506 36.848314 
L 71.292915 36.853901 
L 75.374324 36.859206 
L 79.455733 36.864338 
L 83.537142 36.869349 
L 87.618551 36.874265 
L 91.69996 36.879105 
L 95.781369 36.883881 
L 99.862778 36.888602 
L 103.944187 36.893276 
L 108.025596 36.897907 
L 112.107005 36.9025 
L 116.188414 36.907059 
L 120.269823 36.911586 
L 124.351232 36.916085 
L 128.432641 36.920557 
L 132.51405 36.925004 
L 136.595459 36.929428 
L 140.676868 36.933831 
L 144.758277 36.938213 
L 148.839686 36.942576 
L 152.921095 36.946921 
L 157.002504 36.951249 
L 161.083913 36.955561 
L 165.165322 36.959857 
L 169.246731 36.964138 
L 173.32814 36.968405 
L 177.409549 36.972658 
L 181.490959 36.976899 
L 185.572368 36.981127 
L 189.653777 36.985343 
L 193.735186 36.989547 
L 197.816595 36.99374 
L 201.898004 36.997922 
L 205.979413 37.002094 
L 210.060822 37.006256 
L 214.142231 37.010408 
L 218.22364 37.014551 
L 222.305049 37.018684 
L 226.386458 37.022809 
L 230.467867 37.026925 
L 234.549276 37.031032 
L 238.630685 37.035132 
L 242.712094 37.039223 
L 246.793503 37.043306 
L 250.874912 37.047383 
L 254.956321 37.051451 
L 259.03773 37.055513 
L 263.119139 37.059567 
L 267.200548 37.063615 
" clip-path="url(#p763d384f74)" style="fill: none; stroke: #1f77b4; stroke-linecap: square"/>
   </g>
   <g id="line2d_35">
    <path d="M 67.211506 37.317776 
L 71.292915 38.025741 
L 75.374324 38.739002 
L 79.455733 39.455456 
L 83.537142 40.173691 
L 87.618551 40.892796 
L 91.69996 41.61234 
L 95.781369 42.332245 
L 99.862778 43.052433 
L 103.944187 43.7729 
L 108.025596 44.493692 
L 112.107005 45.214802 
L 116.188414 45.936217 
L 120.269823 46.657908 
L 124.351232 47.379975 
L 128.432641 48.102357 
L 132.51405 48.82504 
L 136.595459 49.54803 
L 140.676868 50.271379 
L 144.758277 50.995066 
L 148.839686 51.719052 
L 152.921095 52.443382 
L 157.002504 53.16803 
L 161.083913 53.892916 
L 165.165322 54.618126 
L 169.246731 55.343656 
L 173.32814 56.069502 
L 177.409549 56.795538 
L 181.490959 57.521925 
L 185.572368 58.248634 
L 189.653777 58.975698 
L 193.735186 59.703096 
L 197.816595 60.430758 
L 201.898004 61.158775 
L 205.979413 61.887106 
L 210.060822 62.615817 
L 214.142231 63.344833 
L 218.22364 64.074171 
L 222.305049 64.803889 
L 226.386458 65.533956 
L 230.467867 66.26435 
L 234.549276 66.995046 
L 238.630685 67.726125 
L 242.712094 68.457563 
L 246.793503 69.189267 
L 250.874912 69.921233 
L 254.956321 70.653526 
L 259.03773 71.386146 
L 263.119139 72.11909 
L 267.200548 72.852357 
" clip-path="url(#p763d384f74)" style="fill: none; stroke-dasharray: 11.1,4.8; stroke-dashoffset: 0; stroke: #ff7f0e; stroke-width: 3"/>
   </g>
   <g id="line2d_36">
    <path d="M 67.211506 37.59133 
L 71.292915 38.333806 
L 75.374324 39.073654 
L 79.455733 39.811801 
L 83.537142 40.548685 
L 87.618551 41.284566 
L 91.69996 42.019614 
L 95.781369 42.753949 
L 99.862778 43.487662 
L 103.944187 44.220822 
L 108.025596 44.953486 
L 112.107005 45.685699 
L 116.188414 46.4175 
L 120.269823 47.148919 
L 124.351232 47.879985 
L 128.432641 48.610722 
L 132.51405 49.34115 
L 136.595459 50.071288 
L 140.676868 50.801151 
L 144.758277 51.530755 
L 148.839686 52.260112 
L 152.921095 52.989235 
L 157.002504 53.718133 
L 161.083913 54.446818 
L 165.165322 55.175298 
L 169.246731 55.90358 
L 173.32814 56.631674 
L 177.409549 57.359585 
L 181.490959 58.087321 
L 185.572368 58.814888 
L 189.653777 59.542291 
L 193.735186 60.269535 
L 197.816595 60.996626 
L 201.898004 61.723568 
L 205.979413 62.450366 
L 210.060822 63.177023 
L 214.142231 63.903544 
L 218.22364 64.629933 
L 222.305049 65.356193 
L 226.386458 66.082327 
L 230.467867 66.808338 
L 234.549276 67.53423 
L 238.630685 68.260005 
L 242.712094 68.985666 
L 246.793503 69.711216 
L 250.874912 70.436657 
L 254.956321 71.161991 
L 259.03773 71.887222 
L 263.119139 72.61235 
L 267.200548 73.337379 
" clip-path="url(#p763d384f74)" style="fill: none; stroke: #ff7f0e; stroke-linecap: square"/>
   </g>
   <g id="line2d_37">
    <path d="M 67.211506 37.808036 
L 71.292915 39.232865 
L 75.374324 40.677256 
L 79.455733 42.132467 
L 83.537142 43.593208 
L 87.618551 45.056582 
L 91.69996 46.521219 
L 95.781369 47.986666 
L 99.862778 49.452797 
L 103.944187 50.919427 
L 108.025596 52.386685 
L 112.107005 53.854491 
L 116.188414 55.322881 
L 120.269823 56.791865 
L 124.351232 58.261353 
L 128.432641 59.731394 
L 132.51405 61.202075 
L 136.595459 62.673412 
L 140.676868 64.145203 
L 144.758277 65.617598 
L 148.839686 67.090666 
L 152.921095 68.564183 
L 157.002504 70.038336 
L 161.083913 71.513004 
L 165.165322 72.988168 
L 169.246731 74.464042 
L 173.32814 75.940409 
L 177.409549 77.417324 
L 181.490959 78.894922 
L 185.572368 80.373189 
L 189.653777 81.852053 
L 193.735186 83.331626 
L 197.816595 84.811937 
L 201.898004 86.292848 
L 205.979413 87.77427 
L 210.060822 89.2564 
L 214.142231 90.739116 
L 218.22364 92.222278 
L 222.305049 93.70604 
L 226.386458 95.190276 
L 230.467867 96.674989 
L 234.549276 98.160358 
L 238.630685 99.646158 
L 242.712094 101.132671 
L 246.793503 102.619769 
L 250.874912 104.107689 
L 254.956321 105.596153 
L 259.03773 107.085349 
L 263.119139 108.575259 
L 267.200548 110.065813 
" clip-path="url(#p763d384f74)" style="fill: none; stroke-dasharray: 11.1,4.8; stroke-dashoffset: 0; stroke: #2ca02c; stroke-width: 3"/>
   </g>
   <g id="line2d_38">
    <path d="M 67.211506 38.336652 
L 71.292915 39.825797 
L 75.374324 41.312815 
L 79.455733 42.798457 
L 83.537142 44.283078 
L 87.618551 45.766887 
L 91.69996 47.250023 
L 95.781369 48.732582 
L 99.862778 50.214639 
L 103.944187 51.69625 
L 108.025596 53.177459 
L 112.107005 54.658305 
L 116.188414 56.138817 
L 120.269823 57.619022 
L 124.351232 59.098941 
L 128.432641 60.578595 
L 132.51405 62.057999 
L 136.595459 63.537169 
L 140.676868 65.016118 
L 144.758277 66.494857 
L 148.839686 67.973397 
L 152.921095 69.451748 
L 157.002504 70.929919 
L 161.083913 72.407916 
L 165.165322 73.885748 
L 169.246731 75.363421 
L 173.32814 76.840941 
L 177.409549 78.318315 
L 181.490959 79.795546 
L 185.572368 81.27264 
L 189.653777 82.749603 
L 193.735186 84.226437 
L 197.816595 85.703146 
L 201.898004 87.179736 
L 205.979413 88.656209 
L 210.060822 90.132568 
L 214.142231 91.608817 
L 218.22364 93.084959 
L 222.305049 94.560996 
L 226.386458 96.036931 
L 230.467867 97.512766 
L 234.549276 98.988505 
L 238.630685 100.464148 
L 242.712094 101.9397 
L 246.793503 103.41516 
L 250.874912 104.890533 
L 254.956321 106.365818 
L 259.03773 107.841019 
L 263.119139 109.316137 
L 267.200548 110.791173 
" clip-path="url(#p763d384f74)" style="fill: none; stroke: #2ca02c; stroke-linecap: square"/>
   </g>
   <g id="line2d_39">
    <path d="M 67.211506 38.318863 
L 71.292915 40.481706 
L 75.374324 42.688157 
L 79.455733 44.91808 
L 83.537142 47.159604 
L 87.618551 49.406313 
L 91.69996 51.655406 
L 95.781369 53.906098 
L 99.862778 56.157778 
L 103.944187 58.410494 
L 108.025596 60.664151 
L 112.107005 62.91886 
L 116.188414 65.174568 
L 120.269823 67.431183 
L 124.351232 69.688542 
L 128.432641 71.94691 
L 132.51405 74.206295 
L 136.595459 76.466736 
L 140.676868 78.727902 
L 144.758277 80.989677 
L 148.839686 83.252276 
L 152.921095 85.515739 
L 157.002504 87.780159 
L 161.083913 90.045591 
L 165.165322 92.312179 
L 169.246731 94.579765 
L 173.32814 96.848349 
L 177.409549 99.11789 
L 181.490959 101.388436 
L 185.572368 103.659637 
L 189.653777 105.931659 
L 193.735186 108.204295 
L 197.816595 110.478025 
L 201.898004 112.7519 
L 205.979413 115.026619 
L 210.060822 117.302221 
L 214.142231 119.578605 
L 218.22364 121.855923 
L 222.305049 124.134354 
L 226.386458 126.413798 
L 230.467867 128.693877 
L 234.549276 130.974936 
L 238.630685 133.256078 
L 242.712094 135.538167 
L 246.793503 137.821799 
L 250.874912 140.105873 
L 254.956321 142.391195 
L 259.03773 144.676798 
L 263.119139 146.962937 
L 267.200548 149.249566 
" clip-path="url(#p763d384f74)" style="fill: none; stroke-dasharray: 11.1,4.8; stroke-dashoffset: 0; stroke: #d62728; stroke-width: 3"/>
   </g>
   <g id="line2d_40">
    <path d="M 67.211506 39.239953 
L 71.292915 41.591373 
L 75.374324 43.925497 
L 79.455733 46.248465 
L 83.537142 48.563175 
L 87.618551 50.871329 
L 91.69996 53.174045 
L 95.781369 55.472117 
L 99.862778 57.766139 
L 103.944187 60.056567 
L 108.025596 62.343769 
L 112.107005 64.628042 
L 116.188414 66.909635 
L 120.269823 69.188758 
L 124.351232 71.465589 
L 128.432641 73.740284 
L 132.51405 76.012978 
L 136.595459 78.283792 
L 140.676868 80.55283 
L 144.758277 82.820188 
L 148.839686 85.085952 
L 152.921095 87.350197 
L 157.002504 89.612994 
L 161.083913 91.874407 
L 165.165322 94.134494 
L 169.246731 96.393308 
L 173.32814 98.6509 
L 177.409549 100.907316 
L 181.490959 103.162597 
L 185.572368 105.416783 
L 189.653777 107.669911 
L 193.735186 109.922016 
L 197.816595 112.17313 
L 201.898004 114.423283 
L 205.979413 116.672504 
L 210.060822 118.920819 
L 214.142231 121.168254 
L 218.22364 123.414834 
L 222.305049 125.660579 
L 226.386458 127.905513 
L 230.467867 130.149656 
L 234.549276 132.393026 
L 238.630685 134.635643 
L 242.712094 136.877524 
L 246.793503 139.118686 
L 250.874912 141.359144 
L 254.956321 143.598915 
L 259.03773 145.838013 
L 263.119139 148.076451 
L 267.200548 150.314244 
" clip-path="url(#p763d384f74)" style="fill: none; stroke: #d62728; stroke-linecap: square"/>
   </g>
   <g id="line2d_41">
    <path d="M 67.211506 38.850714 
L 71.292915 41.774385 
L 75.374324 44.77659 
L 79.455733 47.819958 
L 83.537142 50.883431 
L 87.618551 53.955535 
L 91.69996 57.031601 
L 95.781369 60.109977 
L 99.862778 63.189802 
L 103.944187 66.270702 
L 108.025596 69.352544 
L 112.107005 72.4354 
L 116.188414 75.519245 
L 120.269823 78.604088 
L 124.351232 81.69 
L 128.432641 84.77689 
L 132.51405 87.865222 
L 136.595459 90.954661 
L 140.676868 94.045345 
L 144.758277 97.136826 
L 148.839686 100.229359 
L 152.921095 103.323213 
L 157.002504 106.417981 
L 161.083913 109.513592 
L 165.165322 112.610299 
L 169.246731 115.708142 
L 173.32814 118.807067 
L 177.409549 121.907197 
L 181.490959 125.008168 
L 185.572368 128.110668 
L 189.653777 131.213666 
L 193.735186 134.316632 
L 197.816595 137.421348 
L 201.898004 140.526952 
L 205.979413 143.633296 
L 210.060822 146.741135 
L 214.142231 149.849427 
L 218.22364 152.95887 
L 222.305049 156.069296 
L 226.386458 159.181168 
L 230.467867 162.294932 
L 234.549276 165.409561 
L 238.630685 168.524575 
L 242.712094 171.640035 
L 246.793503 174.756896 
L 250.874912 177.873961 
L 254.956321 180.991453 
L 259.03773 184.107913 
L 263.119139 187.225799 
L 267.200548 190.344825 
" clip-path="url(#p763d384f74)" style="fill: none; stroke-dasharray: 11.1,4.8; stroke-dashoffset: 0; stroke: #9467bd; stroke-width: 3"/>
   </g>
   <g id="line2d_42">
    <path d="M 67.211506 40.042216 
L 71.292915 43.195707 
L 75.374324 46.331918 
L 79.455733 49.457008 
L 83.537142 52.573879 
L 87.618551 55.68423 
L 91.69996 58.789176 
L 95.781369 61.889509 
L 99.862778 64.985815 
L 103.944187 68.078549 
L 108.025596 71.168073 
L 112.107005 74.254679 
L 116.188414 77.338612 
L 120.269823 80.420078 
L 124.351232 83.499251 
L 128.432641 86.576283 
L 132.51405 89.651305 
L 136.595459 92.724432 
L 140.676868 95.795768 
L 144.758277 98.865404 
L 148.839686 101.93342 
L 152.921095 104.999891 
L 157.002504 108.064883 
L 161.083913 111.128457 
L 165.165322 114.190667 
L 169.246731 117.251566 
L 173.32814 120.311198 
L 177.409549 123.369607 
L 181.490959 126.426833 
L 185.572368 129.482912 
L 189.653777 132.537878 
L 193.735186 135.591763 
L 197.816595 138.644596 
L 201.898004 141.696406 
L 205.979413 144.747219 
L 210.060822 147.797057 
L 214.142231 150.845945 
L 218.22364 153.893905 
L 222.305049 156.940955 
L 226.386458 159.987116 
L 230.467867 163.032405 
L 234.549276 166.07684 
L 238.630685 169.120436 
L 242.712094 172.16321 
L 246.793503 175.205176 
L 250.874912 178.246348 
L 254.956321 181.286738 
L 259.03773 184.326361 
L 263.119139 187.365226 
L 267.200548 190.403347 
" clip-path="url(#p763d384f74)" style="fill: none; stroke: #9467bd; stroke-linecap: square"/>
   </g>
   <g id="line2d_43">
    <path d="M 67.211506 39.402725 
L 71.292915 43.11249 
L 75.374324 46.947891 
L 79.455733 50.848361 
L 83.537142 54.779947 
L 87.618551 58.725101 
L 91.69996 62.676422 
L 95.781369 66.630688 
L 99.862778 70.587227 
L 103.944187 74.545252 
L 108.025596 78.505315 
L 112.107005 82.467158 
L 116.188414 86.430419 
L 120.269823 90.395348 
L 124.351232 94.361933 
L 128.432641 98.330603 
L 132.51405 102.301074 
L 136.595459 106.272411 
L 140.676868 110.244627 
L 144.758277 114.218368 
L 148.839686 118.193658 
L 152.921095 122.169363 
L 157.002504 126.14697 
L 161.083913 130.125626 
L 165.165322 134.10559 
L 169.246731 138.086623 
L 173.32814 142.068362 
L 177.409549 146.051586 
L 181.490959 150.03604 
L 185.572368 154.020477 
L 189.653777 158.005254 
L 193.735186 161.991963 
L 197.816595 165.979013 
L 201.898004 169.968604 
L 205.979413 173.961227 
L 210.060822 177.953775 
L 214.142231 181.945918 
L 218.22364 185.941743 
L 222.305049 189.937943 
L 226.386458 193.934129 
L 230.467867 197.933111 
L 234.549276 201.936073 
L 238.630685 205.939395 
L 242.712094 209.941815 
L 246.793503 213.9464 
L 250.874912 217.949446 
L 254.956321 221.952442 
L 259.03773 225.958994 
L 263.119139 229.964899 
L 267.200548 233.969708 
" clip-path="url(#p763d384f74)" style="fill: none; stroke-dasharray: 11.1,4.8; stroke-dashoffset: 0; stroke: #8c564b; stroke-width: 3"/>
   </g>
   <g id="line2d_44">
    <path d="M 67.211506 41.116654 
L 71.292915 45.228735 
L 75.374324 49.283878 
L 79.455733 53.303113 
L 83.537142 57.296168 
L 87.618551 61.268653 
L 91.69996 65.224207 
L 95.781369 69.165367 
L 99.862778 73.094001 
L 103.944187 77.01153 
L 108.025596 80.919072 
L 112.107005 84.817525 
L 116.188414 88.707623 
L 120.269823 92.589977 
L 124.351232 96.4651 
L 128.432641 100.333429 
L 132.51405 104.195339 
L 136.595459 108.051155 
L 140.676868 111.90116 
L 144.758277 115.745602 
L 148.839686 119.5847 
L 152.921095 123.418648 
L 157.002504 127.247619 
L 161.083913 131.071768 
L 165.165322 134.891231 
L 169.246731 138.706134 
L 173.32814 142.516589 
L 177.409549 146.322698 
L 181.490959 150.124552 
L 185.572368 153.922235 
L 189.653777 157.715822 
L 193.735186 161.505384 
L 197.816595 165.290983 
L 201.898004 169.072677 
L 205.979413 172.850519 
L 210.060822 176.624557 
L 214.142231 180.394836 
L 218.22364 184.161398 
L 222.305049 187.924278 
L 226.386458 191.683513 
L 230.467867 195.439133 
L 234.549276 199.191168 
L 238.630685 202.939646 
L 242.712094 206.684591 
L 246.793503 210.426026 
L 250.874912 214.163972 
L 254.956321 217.898449 
L 259.03773 221.629476 
L 263.119139 225.357069 
L 267.200548 229.081245 
" clip-path="url(#p763d384f74)" style="fill: none; stroke: #8c564b; stroke-linecap: square"/>
   </g>
   <g id="patch_3">
    <path d="M 57.212054 246.04 
L 57.212054 26.88 
" style="fill: none; stroke: #000000; stroke-width: 0.8; stroke-linejoin: miter; stroke-linecap: square"/>
   </g>
   <g id="patch_4">
    <path d="M 57.212054 246.04 
L 277.2 246.04 
" style="fill: none; stroke: #000000; stroke-width: 0.8; stroke-linejoin: miter; stroke-linecap: square"/>
   </g>
   <g id="text_12">
    <!-- Skiver predictions at 100x coverage -->
    <g transform="translate(58.801964 20.88) scale(0.12 -0.12)">
     <defs>
      <path id="DejaVuSans-53" d="M 3425 4513 
L 3425 3897 
Q 3066 4069 2747 4153 
Q 2428 4238 2131 4238 
Q 1616 4238 1336 4038 
Q 1056 3838 1056 3469 
Q 1056 3159 1242 3001 
Q 1428 2844 1947 2747 
L 2328 2669 
Q 3034 2534 3370 2195 
Q 3706 1856 3706 1288 
Q 3706 609 3251 259 
Q 2797 -91 1919 -91 
Q 1588 -91 1214 -16 
Q 841 59 441 206 
L 441 856 
Q 825 641 1194 531 
Q 1563 422 1919 422 
Q 2459 422 2753 634 
Q 3047 847 3047 1241 
Q 3047 1584 2836 1778 
Q 2625 1972 2144 2069 
L 1759 2144 
Q 1053 2284 737 2584 
Q 422 2884 422 3419 
Q 422 4038 858 4394 
Q 1294 4750 2059 4750 
Q 2388 4750 2728 4690 
Q 3069 4631 3425 4513 
z
" transform="scale(0.015625)"/>
      <path id="DejaVuSans-6b" d="M 581 4863 
L 1159 4863 
L 1159 1991 
L 2875 3500 
L 3609 3500 
L 1753 1863 
L 3688 0 
L 2938 0 
L 1159 1709 
L 1159 0 
L 581 0 
L 581 4863 
z
" transform="scale(0.015625)"/>
      <path id="DejaVuSans-69" d="M 603 3500 
L 1178 3500 
L 1178 0 
L 603 0 
L 603 3500 
z
M 603 4863 
L 1178 4863 
L 1178 4134 
L 603 4134 
L 603 4863 
z
" transform="scale(0.015625)"/>
      <path id="DejaVuSans-76" d="M 191 3500 
L 800 3500 
L 1894 563 
L 2988 3500 
L 3597 3500 
L 2284 0 
L 1503 0 
L 191 3500 
z
" transform="scale(0.015625)"/>
      <path id="DejaVuSans-65" d="M 3597 1894 
L 3597 1613 
L 953 1613 
Q 991 1019 1311 708 
Q 1631 397 2203 397 
Q 2534 397 2845 478 
Q 3156 559 3463 722 
L 3463 178 
Q 3153 47 2828 -22 
Q 2503 -91 2169 -91 
Q 1331 -91 842 396 
Q 353 884 353 1716 
Q 353 2575 817 3079 
Q 1281 3584 2069 3584 
Q 2775 3584 3186 3129 
Q 3597 2675 3597 1894 
z
M 3022 2063 
Q 3016 2534 2758 2815 
Q 2500 3097 2075 3097 
Q 1594 3097 1305 2825 
Q 1016 2553 972 2059 
L 3022 2063 
z
" transform="scale(0.015625)"/>
      <path id="DejaVuSans-72" d="M 2631 2963 
Q 2534 3019 2420 3045 
Q 2306 3072 2169 3072 
Q 1681 3072 1420 2755 
Q 1159 2438 1159 1844 
L 1159 0 
L 581 0 
L 581 3500 
L 1159 3500 
L 1159 2956 
Q 1341 3275 1631 3429 
Q 1922 3584 2338 3584 
Q 2397 3584 2469 3576 
Q 2541 3569 2628 3553 
L 2631 2963 
z
" transform="scale(0.015625)"/>
      <path id="DejaVuSans-20" transform="scale(0.015625)"/>
      <path id="DejaVuSans-70" d="M 1159 525 
L 1159 -1331 
L 581 -1331 
L 581 3500 
L 1159 3500 
L 1159 2969 
Q 1341 3281 1617 3432 
Q 1894 3584 2278 3584 
Q 2916 3584 3314 3078 
Q 3713 2572 3713 1747 
Q 3713 922 3314 415 
Q 2916 -91 2278 -91 
Q 1894 -91 1617 61 
Q 1341 213 1159 525 
z
M 3116 1747 
Q 3116 2381 2855 2742 
Q 2594 3103 2138 3103 
Q 1681 3103 1420 2742 
Q 1159 2381 1159 1747 
Q 1159 1113 1420 752 
Q 1681 391 2138 391 
Q 2594 391 2855 752 
Q 3116 1113 3116 1747 
z
" transform="scale(0.015625)"/>
      <path id="DejaVuSans-64" d="M 2906 2969 
L 2906 4863 
L 3481 4863 
L 3481 0 
L 2906 0 
L 2906 525 
Q 2725 213 2448 61 
Q 2172 -91 1784 -91 
Q 1150 -91 751 415 
Q 353 922 353 1747 
Q 353 2572 751 3078 
Q 1150 3584 1784 3584 
Q 2172 3584 2448 3432 
Q 2725 3281 2906 2969 
z
M 947 1747 
Q 947 1113 1208 752 
Q 1469 391 1925 391 
Q 2381 391 2643 752 
Q 2906 1113 2906 1747 
Q 2906 2381 2643 2742 
Q 2381 3103 1925 3103 
Q 1469 3103 1208 2742 
Q 947 2381 947 1747 
z
" transform="scale(0.015625)"/>
      <path id="DejaVuSans-63" d="M 3122 3366 
L 3122 2828 
Q 2878 2963 2633 3030 
Q 2388 3097 2138 3097 
Q 1578 3097 1268 2742 
Q 959 2388 959 1747 
Q 959 1106 1268 751 
Q 1578 397 2138 397 
Q 2388 397 2633 464 
Q 2878 531 3122 666 
L 3122 134 
Q 2881 22 2623 -34 
Q 2366 -91 2075 -91 
Q 1284 -91 818 406 
Q 353 903 353 1747 
Q 353 2603 823 3093 
Q 1294 3584 2113 3584 
Q 2378 3584 2631 3529 
Q 2884 3475 3122 3366 
z
" transform="scale(0.015625)"/>
      <path id="DejaVuSans-6f" d="M 1959 3097 
Q 1497 3097 1228 2736 
Q 959 2375 959 1747 
Q 959 1119 1226 758 
Q 1494 397 1959 397 
Q 2419 397 2687 759 
Q 2956 1122 2956 1747 
Q 2956 2369 2687 2733 
Q 2419 3097 1959 3097 
z
M 1959 3584 
Q 2709 3584 3137 3096 
Q 3566 2609 3566 1747 
Q 3566 888 3137 398 
Q 2709 -91 1959 -91 
Q 1206 -91 779 398 
Q 353 888 353 1747 
Q 353 2609 779 3096 
Q 1206 3584 1959 3584 
z
" transform="scale(0.015625)"/>
      <path id="DejaVuSans-6e" d="M 3513 2113 
L 3513 0 
L 2938 0 
L 2938 2094 
Q 2938 2591 2744 2837 
Q 2550 3084 2163 3084 
Q 1697 3084 1428 2787 
Q 1159 2491 1159 1978 
L 1159 0 
L 581 0 
L 581 3500 
L 1159 3500 
L 1159 2956 
Q 1366 3272 1645 3428 
Q 1925 3584 2291 3584 
Q 2894 3584 3203 3211 
Q 3513 2838 3513 2113 
z
" transform="scale(0.015625)"/>
      <path id="DejaVuSans-73" d="M 2834 3397 
L 2834 2853 
Q 2591 2978 2328 3040 
Q 2066 3103 1784 3103 
Q 1356 3103 1142 2972 
Q 928 2841 928 2578 
Q 928 2378 1081 2264 
Q 1234 2150 1697 2047 
L 1894 2003 
Q 2506 1872 2764 1633 
Q 3022 1394 3022 966 
Q 3022 478 2636 193 
Q 2250 -91 1575 -91 
Q 1294 -91 989 -36 
Q 684 19 347 128 
L 347 722 
Q 666 556 975 473 
Q 1284 391 1588 391 
Q 1994 391 2212 530 
Q 2431 669 2431 922 
Q 2431 1156 2273 1281 
Q 2116 1406 1581 1522 
L 1381 1569 
Q 847 1681 609 1914 
Q 372 2147 372 2553 
Q 372 3047 722 3315 
Q 1072 3584 1716 3584 
Q 2034 3584 2315 3537 
Q 2597 3491 2834 3397 
z
" transform="scale(0.015625)"/>
      <path id="DejaVuSans-61" d="M 2194 1759 
Q 1497 1759 1228 1600 
Q 959 1441 959 1056 
Q 959 750 1161 570 
Q 1363 391 1709 391 
Q 2188 391 2477 730 
Q 2766 1069 2766 1631 
L 2766 1759 
L 2194 1759 
z
M 3341 1997 
L 3341 0 
L 2766 0 
L 2766 531 
Q 2569 213 2275 61 
Q 1981 -91 1556 -91 
Q 1019 -91 701 211 
Q 384 513 384 1019 
Q 384 1609 779 1909 
Q 1175 2209 1959 2209 
L 2766 2209 
L 2766 2266 
Q 2766 2663 2505 2880 
Q 2244 3097 1772 3097 
Q 1472 3097 1187 3025 
Q 903 2953 641 2809 
L 641 3341 
Q 956 3463 1253 3523 
Q 1550 3584 1831 3584 
Q 2591 3584 2966 3190 
Q 3341 2797 3341 1997 
z
" transform="scale(0.015625)"/>
      <path id="DejaVuSans-78" d="M 3513 3500 
L 2247 1797 
L 3578 0 
L 2900 0 
L 1881 1375 
L 863 0 
L 184 0 
L 1544 1831 
L 300 3500 
L 978 3500 
L 1906 2253 
L 2834 3500 
L 3513 3500 
z
" transform="scale(0.015625)"/>
      <path id="DejaVuSans-67" d="M 2906 1791 
Q 2906 2416 2648 2759 
Q 2391 3103 1925 3103 
Q 1463 3103 1205 2759 
Q 947 2416 947 1791 
Q 947 1169 1205 825 
Q 1463 481 1925 481 
Q 2391 481 2648 825 
Q 2906 1169 2906 1791 
z
M 3481 434 
Q 3481 -459 3084 -895 
Q 2688 -1331 1869 -1331 
Q 1566 -1331 1297 -1286 
Q 1028 -1241 775 -1147 
L 775 -588 
Q 1028 -725 1275 -790 
Q 1522 -856 1778 -856 
Q 2344 -856 2625 -561 
Q 2906 -266 2906 331 
L 2906 616 
Q 2728 306 2450 153 
Q 2172 0 1784 0 
Q 1141 0 747 490 
Q 353 981 353 1791 
Q 353 2603 747 3093 
Q 1141 3584 1784 3584 
Q 2172 3584 2450 3431 
Q 2728 3278 2906 2969 
L 2906 3500 
L 3481 3500 
L 3481 434 
z
" transform="scale(0.015625)"/>
     </defs>
     <use xlink:href="#DejaVuSans-53"/>
     <use xlink:href="#DejaVuSans-6b" transform="translate(63.476562 0)"/>
     <use xlink:href="#DejaVuSans-69" transform="translate(121.386719 0)"/>
     <use xlink:href="#DejaVuSans-76" transform="translate(149.169922 0)"/>
     <use xlink:href="#DejaVuSans-65" transform="translate(208.349609 0)"/>
     <use xlink:href="#DejaVuSans-72" transform="translate(269.873047 0)"/>
     <use xlink:href="#DejaVuSans-20" transform="translate(310.986328 0)"/>
     <use xlink:href="#DejaVuSans-70" transform="translate(342.773438 0)"/>
     <use xlink:href="#DejaVuSans-72" transform="translate(406.25 0)"/>
     <use xlink:href="#DejaVuSans-65" transform="translate(445.113281 0)"/>
     <use xlink:href="#DejaVuSans-64" transform="translate(506.636719 0)"/>
     <use xlink:href="#DejaVuSans-69" transform="translate(570.113281 0)"/>
     <use xlink:href="#DejaVuSans-63" transform="translate(597.896484 0)"/>
     <use xlink:href="#DejaVuSans-74" transform="translate(652.876953 0)"/>
     <use xlink:href="#DejaVuSans-69" transform="translate(692.085938 0)"/>
     <use xlink:href="#DejaVuSans-6f" transform="translate(719.869141 0)"/>
     <use xlink:href="#DejaVuSans-6e" transform="translate(781.050781 0)"/>
     <use xlink:href="#DejaVuSans-73" transform="translate(844.429688 0)"/>
     <use xlink:href="#DejaVuSans-20" transform="translate(896.529297 0)"/>
     <use xlink:href="#DejaVuSans-61" transform="translate(928.316406 0)"/>
     <use xlink:href="#DejaVuSans-74" transform="translate(989.595703 0)"/>
     <use xlink:href="#DejaVuSans-20" transform="translate(1028.804688 0)"/>
     <use xlink:href="#DejaVuSans-31" transform="translate(1060.591797 0)"/>
     <use xlink:href="#DejaVuSans-30" transform="translate(1124.214844 0)"/>
     <use xlink:href="#DejaVuSans-30" transform="translate(1187.837891 0)"/>
     <use xlink:href="#DejaVuSans-78" transform="translate(1251.460938 0)"/>
     <use xlink:href="#DejaVuSans-20" transform="translate(1310.640625 0)"/>
     <use xlink:href="#DejaVuSans-63" transform="translate(1342.427734 0)"/>
     <use xlink:href="#DejaVuSans-6f" transform="translate(1397.408203 0)"/>
     <use xlink:href="#DejaVuSans-76" transform="translate(1458.589844 0)"/>
     <use xlink:href="#DejaVuSans-65" transform="translate(1517.769531 0)"/>
     <use xlink:href="#DejaVuSans-72" transform="translate(1579.292969 0)"/>
     <use xlink:href="#DejaVuSans-61" transform="translate(1620.40625 0)"/>
     <use xlink:href="#DejaVuSans-67" transform="translate(1681.685547 0)"/>
     <use xlink:href="#DejaVuSans-65" transform="translate(1745.162109 0)"/>
    </g>
   </g>
   <g id="legend_1">
    <g id="patch_5">
     <path d="M 64.212054 241.04 
L 196.496429 241.04 
Q 198.496429 241.04 198.496429 239.04 
L 198.496429 151.97125 
Q 198.496429 149.97125 196.496429 149.97125 
L 64.212054 149.97125 
Q 62.212054 149.97125 62.212054 151.97125 
L 62.212054 239.04 
Q 62.212054 241.04 64.212054 241.04 
z
" style="fill: #ffffff; opacity: 0.8; stroke: #cccccc; stroke-linejoin: miter"/>
    </g>
    <g id="line2d_45">
     <path d="M 66.212054 158.069687 
L 76.212054 158.069687 
L 86.212054 158.069687 
" style="fill: none; stroke-dasharray: 11.1,4.8; stroke-dashoffset: 0; stroke: #1f77b4; stroke-width: 3"/>
    </g>
    <g id="text_13">
     <!-- Read identity = 100 -->
     <g transform="translate(94.212054 161.569687) scale(0.1 -0.1)">
      <defs>
       <path id="DejaVuSans-52" d="M 2841 2188 
Q 3044 2119 3236 1894 
Q 3428 1669 3622 1275 
L 4263 0 
L 3584 0 
L 2988 1197 
Q 2756 1666 2539 1819 
Q 2322 1972 1947 1972 
L 1259 1972 
L 1259 0 
L 628 0 
L 628 4666 
L 2053 4666 
Q 2853 4666 3247 4331 
Q 3641 3997 3641 3322 
Q 3641 2881 3436 2590 
Q 3231 2300 2841 2188 
z
M 1259 4147 
L 1259 2491 
L 2053 2491 
Q 2509 2491 2742 2702 
Q 2975 2913 2975 3322 
Q 2975 3731 2742 3939 
Q 2509 4147 2053 4147 
L 1259 4147 
z
" transform="scale(0.015625)"/>
       <path id="DejaVuSans-79" d="M 2059 -325 
Q 1816 -950 1584 -1140 
Q 1353 -1331 966 -1331 
L 506 -1331 
L 506 -850 
L 844 -850 
Q 1081 -850 1212 -737 
Q 1344 -625 1503 -206 
L 1606 56 
L 191 3500 
L 800 3500 
L 1894 763 
L 2988 3500 
L 3597 3500 
L 2059 -325 
z
" transform="scale(0.015625)"/>
       <path id="DejaVuSans-3d" d="M 678 2906 
L 4684 2906 
L 4684 2381 
L 678 2381 
L 678 2906 
z
M 678 1631 
L 4684 1631 
L 4684 1100 
L 678 1100 
L 678 1631 
z
" transform="scale(0.015625)"/>
      </defs>
      <use xlink:href="#DejaVuSans-52"/>
      <use xlink:href="#DejaVuSans-65" transform="translate(64.982422 0)"/>
      <use xlink:href="#DejaVuSans-61" transform="translate(126.505859 0)"/>
      <use xlink:href="#DejaVuSans-64" transform="translate(187.785156 0)"/>
      <use xlink:href="#DejaVuSans-20" transform="translate(251.261719 0)"/>
      <use xlink:href="#DejaVuSans-69" transform="translate(283.048828 0)"/>
      <use xlink:href="#DejaVuSans-64" transform="translate(310.832031 0)"/>
      <use xlink:href="#DejaVuSans-65" transform="translate(374.308594 0)"/>
      <use xlink:href="#DejaVuSans-6e" transform="translate(435.832031 0)"/>
      <use xlink:href="#DejaVuSans-74" transform="translate(499.210938 0)"/>
      <use xlink:href="#DejaVuSans-69" transform="translate(538.419922 0)"/>
      <use xlink:href="#DejaVuSans-74" transform="translate(566.203125 0)"/>
      <use xlink:href="#DejaVuSans-79" transform="translate(605.412109 0)"/>
      <use xlink:href="#DejaVuSans-20" transform="translate(664.591797 0)"/>
      <use xlink:href="#DejaVuSans-3d" transform="translate(696.378906 0)"/>
      <use xlink:href="#DejaVuSans-20" transform="translate(780.167969 0)"/>
      <use xlink:href="#DejaVuSans-31" transform="translate(811.955078 0)"/>
      <use xlink:href="#DejaVuSans-30" transform="translate(875.578125 0)"/>
      <use xlink:href="#DejaVuSans-30" transform="translate(939.201172 0)"/>
     </g>
    </g>
    <g id="line2d_46">
     <path d="M 66.212054 172.747813 
L 76.212054 172.747813 
L 86.212054 172.747813 
" style="fill: none; stroke-dasharray: 11.1,4.8; stroke-dashoffset: 0; stroke: #ff7f0e; stroke-width: 3"/>
    </g>
    <g id="text_14">
     <!-- Read identity = 98 -->
     <g transform="translate(94.212054 176.247813) scale(0.1 -0.1)">
      <defs>
       <path id="DejaVuSans-39" d="M 703 97 
L 703 672 
Q 941 559 1184 500 
Q 1428 441 1663 441 
Q 2288 441 2617 861 
Q 2947 1281 2994 2138 
Q 2813 1869 2534 1725 
Q 2256 1581 1919 1581 
Q 1219 1581 811 2004 
Q 403 2428 403 3163 
Q 403 3881 828 4315 
Q 1253 4750 1959 4750 
Q 2769 4750 3195 4129 
Q 3622 3509 3622 2328 
Q 3622 1225 3098 567 
Q 2575 -91 1691 -91 
Q 1453 -91 1209 -44 
Q 966 3 703 97 
z
M 1959 2075 
Q 2384 2075 2632 2365 
Q 2881 2656 2881 3163 
Q 2881 3666 2632 3958 
Q 2384 4250 1959 4250 
Q 1534 4250 1286 3958 
Q 1038 3666 1038 3163 
Q 1038 2656 1286 2365 
Q 1534 2075 1959 2075 
z
" transform="scale(0.015625)"/>
       <path id="DejaVuSans-38" d="M 2034 2216 
Q 1584 2216 1326 1975 
Q 1069 1734 1069 1313 
Q 1069 891 1326 650 
Q 1584 409 2034 409 
Q 2484 409 2743 651 
Q 3003 894 3003 1313 
Q 3003 1734 2745 1975 
Q 2488 2216 2034 2216 
z
M 1403 2484 
Q 997 2584 770 2862 
Q 544 3141 544 3541 
Q 544 4100 942 4425 
Q 1341 4750 2034 4750 
Q 2731 4750 3128 4425 
Q 3525 4100 3525 3541 
Q 3525 3141 3298 2862 
Q 3072 2584 2669 2484 
Q 3125 2378 3379 2068 
Q 3634 1759 3634 1313 
Q 3634 634 3220 271 
Q 2806 -91 2034 -91 
Q 1263 -91 848 271 
Q 434 634 434 1313 
Q 434 1759 690 2068 
Q 947 2378 1403 2484 
z
M 1172 3481 
Q 1172 3119 1398 2916 
Q 1625 2713 2034 2713 
Q 2441 2713 2670 2916 
Q 2900 3119 2900 3481 
Q 2900 3844 2670 4047 
Q 2441 4250 2034 4250 
Q 1625 4250 1398 4047 
Q 1172 3844 1172 3481 
z
" transform="scale(0.015625)"/>
      </defs>
      <use xlink:href="#DejaVuSans-52"/>
      <use xlink:href="#DejaVuSans-65" transform="translate(64.982422 0)"/>
      <use xlink:href="#DejaVuSans-61" transform="translate(126.505859 0)"/>
      <use xlink:href="#DejaVuSans-64" transform="translate(187.785156 0)"/>
      <use xlink:href="#DejaVuSans-20" transform="translate(251.261719 0)"/>
      <use xlink:href="#DejaVuSans-69" transform="translate(283.048828 0)"/>
      <use xlink:href="#DejaVuSans-64" transform="translate(310.832031 0)"/>
      <use xlink:href="#DejaVuSans-65" transform="translate(374.308594 0)"/>
      <use xlink:href="#DejaVuSans-6e" transform="translate(435.832031 0)"/>
      <use xlink:href="#DejaVuSans-74" transform="translate(499.210938 0)"/>
      <use xlink:href="#DejaVuSans-69" transform="translate(538.419922 0)"/>
      <use xlink:href="#DejaVuSans-74" transform="translate(566.203125 0)"/>
      <use xlink:href="#DejaVuSans-79" transform="translate(605.412109 0)"/>
      <use xlink:href="#DejaVuSans-20" transform="translate(664.591797 0)"/>
      <use xlink:href="#DejaVuSans-3d" transform="translate(696.378906 0)"/>
      <use xlink:href="#DejaVuSans-20" transform="translate(780.167969 0)"/>
      <use xlink:href="#DejaVuSans-39" transform="translate(811.955078 0)"/>
      <use xlink:href="#DejaVuSans-38" transform="translate(875.578125 0)"/>
     </g>
    </g>
    <g id="line2d_47">
     <path d="M 66.212054 187.425938 
L 76.212054 187.425938 
L 86.212054 187.425938 
" style="fill: none; stroke-dasharray: 11.1,4.8; stroke-dashoffset: 0; stroke: #2ca02c; stroke-width: 3"/>
    </g>
    <g id="text_15">
     <!-- Read identity = 96 -->
     <g transform="translate(94.212054 190.925938) scale(0.1 -0.1)">
      <defs>
       <path id="DejaVuSans-36" d="M 2113 2584 
Q 1688 2584 1439 2293 
Q 1191 2003 1191 1497 
Q 1191 994 1439 701 
Q 1688 409 2113 409 
Q 2538 409 2786 701 
Q 3034 994 3034 1497 
Q 3034 2003 2786 2293 
Q 2538 2584 2113 2584 
z
M 3366 4563 
L 3366 3988 
Q 3128 4100 2886 4159 
Q 2644 4219 2406 4219 
Q 1781 4219 1451 3797 
Q 1122 3375 1075 2522 
Q 1259 2794 1537 2939 
Q 1816 3084 2150 3084 
Q 2853 3084 3261 2657 
Q 3669 2231 3669 1497 
Q 3669 778 3244 343 
Q 2819 -91 2113 -91 
Q 1303 -91 875 529 
Q 447 1150 447 2328 
Q 447 3434 972 4092 
Q 1497 4750 2381 4750 
Q 2619 4750 2861 4703 
Q 3103 4656 3366 4563 
z
" transform="scale(0.015625)"/>
      </defs>
      <use xlink:href="#DejaVuSans-52"/>
      <use xlink:href="#DejaVuSans-65" transform="translate(64.982422 0)"/>
      <use xlink:href="#DejaVuSans-61" transform="translate(126.505859 0)"/>
      <use xlink:href="#DejaVuSans-64" transform="translate(187.785156 0)"/>
      <use xlink:href="#DejaVuSans-20" transform="translate(251.261719 0)"/>
      <use xlink:href="#DejaVuSans-69" transform="translate(283.048828 0)"/>
      <use xlink:href="#DejaVuSans-64" transform="translate(310.832031 0)"/>
      <use xlink:href="#DejaVuSans-65" transform="translate(374.308594 0)"/>
      <use xlink:href="#DejaVuSans-6e" transform="translate(435.832031 0)"/>
      <use xlink:href="#DejaVuSans-74" transform="translate(499.210938 0)"/>
      <use xlink:href="#DejaVuSans-69" transform="translate(538.419922 0)"/>
      <use xlink:href="#DejaVuSans-74" transform="translate(566.203125 0)"/>
      <use xlink:href="#DejaVuSans-79" transform="translate(605.412109 0)"/>
      <use xlink:href="#DejaVuSans-20" transform="translate(664.591797 0)"/>
      <use xlink:href="#DejaVuSans-3d" transform="translate(696.378906 0)"/>
      <use xlink:href="#DejaVuSans-20" transform="translate(780.167969 0)"/>
      <use xlink:href="#DejaVuSans-39" transform="translate(811.955078 0)"/>
      <use xlink:href="#DejaVuSans-36" transform="translate(875.578125 0)"/>
     </g>
    </g>
    <g id="line2d_48">
     <path d="M 66.212054 202.104062 
L 76.212054 202.104062 
L 86.212054 202.104062 
" style="fill: none; stroke-dasharray: 11.1,4.8; stroke-dashoffset: 0; stroke: #d62728; stroke-width: 3"/>
    </g>
    <g id="text_16">
     <!-- Read identity = 94 -->
     <g transform="translate(94.212054 205.604062) scale(0.1 -0.1)">
      <use xlink:href="#DejaVuSans-52"/>
      <use xlink:href="#DejaVuSans-65" transform="translate(64.982422 0)"/>
      <use xlink:href="#DejaVuSans-61" transform="translate(126.505859 0)"/>
      <use xlink:href="#DejaVuSans-64" transform="translate(187.785156 0)"/>
      <use xlink:href="#DejaVuSans-20" transform="translate(251.261719 0)"/>
      <use xlink:href="#DejaVuSans-69" transform="translate(283.048828 0)"/>
      <use xlink:href="#DejaVuSans-64" transform="translate(310.832031 0)"/>
      <use xlink:href="#DejaVuSans-65" transform="translate(374.308594 0)"/>
      <use xlink:href="#DejaVuSans-6e" transform="translate(435.832031 0)"/>
      <use xlink:href="#DejaVuSans-74" transform="translate(499.210938 0)"/>
      <use xlink:href="#DejaVuSans-69" transform="translate(538.419922 0)"/>
      <use xlink:href="#DejaVuSans-74" transform="translate(566.203125 0)"/>
      <use xlink:href="#DejaVuSans-79" transform="translate(605.412109 0)"/>
      <use xlink:href="#DejaVuSans-20" transform="translate(664.591797 0)"/>
      <use xlink:href="#DejaVuSans-3d" transform="translate(696.378906 0)"/>
      <use xlink:href="#DejaVuSans-20" transform="translate(780.167969 0)"/>
      <use xlink:href="#DejaVuSans-39" transform="translate(811.955078 0)"/>
      <use xlink:href="#DejaVuSans-34" transform="translate(875.578125 0)"/>
     </g>
    </g>
    <g id="line2d_49">
     <path d="M 66.212054 216.782188 
L 76.212054 216.782188 
L 86.212054 216.782188 
" style="fill: none; stroke-dasharray: 11.1,4.8; stroke-dashoffset: 0; stroke: #9467bd; stroke-width: 3"/>
    </g>
    <g id="text_17">
     <!-- Read identity = 92 -->
     <g transform="translate(94.212054 220.282188) scale(0.1 -0.1)">
      <use xlink:href="#DejaVuSans-52"/>
      <use xlink:href="#DejaVuSans-65" transform="translate(64.982422 0)"/>
      <use xlink:href="#DejaVuSans-61" transform="translate(126.505859 0)"/>
      <use xlink:href="#DejaVuSans-64" transform="translate(187.785156 0)"/>
      <use xlink:href="#DejaVuSans-20" transform="translate(251.261719 0)"/>
      <use xlink:href="#DejaVuSans-69" transform="translate(283.048828 0)"/>
      <use xlink:href="#DejaVuSans-64" transform="translate(310.832031 0)"/>
      <use xlink:href="#DejaVuSans-65" transform="translate(374.308594 0)"/>
      <use xlink:href="#DejaVuSans-6e" transform="translate(435.832031 0)"/>
      <use xlink:href="#DejaVuSans-74" transform="translate(499.210938 0)"/>
      <use xlink:href="#DejaVuSans-69" transform="translate(538.419922 0)"/>
      <use xlink:href="#DejaVuSans-74" transform="translate(566.203125 0)"/>
      <use xlink:href="#DejaVuSans-79" transform="translate(605.412109 0)"/>
      <use xlink:href="#DejaVuSans-20" transform="translate(664.591797 0)"/>
      <use xlink:href="#DejaVuSans-3d" transform="translate(696.378906 0)"/>
      <use xlink:href="#DejaVuSans-20" transform="translate(780.167969 0)"/>
      <use xlink:href="#DejaVuSans-39" transform="translate(811.955078 0)"/>
      <use xlink:href="#DejaVuSans-32" transform="translate(875.578125 0)"/>
     </g>
    </g>
    <g id="line2d_50">
     <path d="M 66.212054 231.460312 
L 76.212054 231.460312 
L 86.212054 231.460312 
" style="fill: none; stroke-dasharray: 11.1,4.8; stroke-dashoffset: 0; stroke: #8c564b; stroke-width: 3"/>
    </g>
    <g id="text_18">
     <!-- Read identity = 90 -->
     <g transform="translate(94.212054 234.960312) scale(0.1 -0.1)">
      <use xlink:href="#DejaVuSans-52"/>
      <use xlink:href="#DejaVuSans-65" transform="translate(64.982422 0)"/>
      <use xlink:href="#DejaVuSans-61" transform="translate(126.505859 0)"/>
      <use xlink:href="#DejaVuSans-64" transform="translate(187.785156 0)"/>
      <use xlink:href="#DejaVuSans-20" transform="translate(251.261719 0)"/>
      <use xlink:href="#DejaVuSans-69" transform="translate(283.048828 0)"/>
      <use xlink:href="#DejaVuSans-64" transform="translate(310.832031 0)"/>
      <use xlink:href="#DejaVuSans-65" transform="translate(374.308594 0)"/>
      <use xlink:href="#DejaVuSans-6e" transform="translate(435.832031 0)"/>
      <use xlink:href="#DejaVuSans-74" transform="translate(499.210938 0)"/>
      <use xlink:href="#DejaVuSans-69" transform="translate(538.419922 0)"/>
      <use xlink:href="#DejaVuSans-74" transform="translate(566.203125 0)"/>
      <use xlink:href="#DejaVuSans-79" transform="translate(605.412109 0)"/>
      <use xlink:href="#DejaVuSans-20" transform="translate(664.591797 0)"/>
      <use xlink:href="#DejaVuSans-3d" transform="translate(696.378906 0)"/>
      <use xlink:href="#DejaVuSans-20" transform="translate(780.167969 0)"/>
      <use xlink:href="#DejaVuSans-39" transform="translate(811.955078 0)"/>
      <use xlink:href="#DejaVuSans-30" transform="translate(875.578125 0)"/>
     </g>
    </g>
   </g>
  </g>
 </g>
 <defs>
  <clipPath id="p763d384f74">
   <rect x="57.212054" y="26.88" width="219.987946" height="219.16"/>
  </clipPath>
 </defs>
</svg>
